<svg fill="none" height="200" viewBox="0 0 543 200" width="543" xmlns="http://www.w3.org/2000/svg"><path clip-rule="evenodd" d="m300.814 66.1057c.775.2871 1.452.9571 1.742 1.7227.196.4355.268.8965.254 1.332-.014.4248-.11.8252-.254 1.1563-.868 1.8115-2.695 5.3564-4.538 8.9326-1.858 3.6025-3.731 7.2353-4.654 9.1562-5.321 11.1016-9.772 20.2905-14.223 28.8075-13.933 26.894-31.058 57.042-58.054 73.121-7.837 4.594-17.416 7.944-26.317 9.092-2.709.383-5.515.574-8.225.574-6.773 0-12.384-1.148-17.512-3.445-10.063-4.498-17.9-13.591-20.126-25.841-3.967-21.534 8.031-42.111 29.124-49.96 10.063-3.732 20.899-2.201 27.575 3.828 4.548 4.212 6.29 10.05 4.548 15.984-.097.478-.58.67-.871.574-.29-.096-.58-.383-.484-.766.678-4.593-.29-8.517-2.805-11.293-2.806-3.062-7.451-4.594-12.966-4.307-9.579.478-18.674 6.604-24.963 16.844-7.354 12.06-9.385 27.661-4.547 38.092 3.966 8.422 10.546 13.208 19.835 15.314 13.062 2.966 29.897-1.149 41.508-10.146 19.912-15.392 33.836-44.158 44.764-66.736l.034-.068 1.645-3.541c.341-.72.632-1.441.874-2.089.09-.24.172-.468.248-.683.127-.359.236-.682.326-.948l.003-.012c-9.869 8.422-23.608 16.079-36.477 16.079-4.934 0-9.675-1.054-14.029-3.638-8.708-5.168-12.772-15.695-11.708-30.3384.968-12.7295 5.709-26.2236 9.772-34.5508 13.45-27.3721 33.285-47.0879 55.829-55.50976 9.772-3.637698 23.318-4.49903 31.542 1.72265 3.387 2.58399 5.419 6.60351 5.999 11.67581.871 7.6572-1.935 16.1748-7.257 22.3955-.29.2871-.677.2871-.87.0957-.29-.1914-.388-.5742-.194-.8613 8.515-11.5801 8.805-26.2237.194-31.00883-9.676-5.35938-23.319.28711-29.511 3.54103-23.899 12.6338-39.089 39.4316-47.701 59.626-4.257 9.9531-13.256 34.3584-6.483 46.8964 2.129 3.924 5.709 6.316 10.547 7.273 5.902 1.053 12.094 0 18.867-3.253 17.9-7.944 31.833-33.3061 43.25-57.1371.041-.0401.099-.0801.16-.1065.028-.0127.058-.0215.086-.0254.028-.0049.055-.0039.079.002.024.0058.045.0166.063.0342zm239.376-39.2392-41.606 71.0146-1.935 3.8279c-5.805 10.05-7.934 17.228-5.708 18.855 6.773 4.881 17.997-9.188 23.415-17.419 11.417-17.6106 15.384-27.3723 15.384-27.3723l.484.4785c.201.1993.324.4766.368.7637.041.2647.015.5381-.078.7676-1.161 2.4883-5.031 10.5283-15.674 27.0845-6.967 10.816-17.126 21.152-25.641 17.707-3.58-1.436-5.224-4.499-5.031-8.901-4.741 5.359-9.772 8.613-14.997 9.475-3.29.574-7.257 0-9.483-5.551-.483-1.053-.773-2.775-.87-5.168-6.676 7.848-15.288 13.207-22.061 9.953-1.935-.957-3.193-2.584-3.676-4.594-.871-4.019 1.354-8.9 3.58-13.686.29-.67.677-1.436.967-2.106.668-1.394 1.335-2.7887 2.047-4.1832l.288-.5596c.123-.2373.248-.4746.374-.7119.106-.2246.215-.4492.325-.6738.241-.4932.49-.9864.739-1.4795l.297-.5889c.262-.5215.522-1.043.768-1.5645.087-.1718.174-.3623.269-.5732l.08-.1738.095-.2061c.071-.1523.148-.3135.234-.4824 1.16-2.2012 2.999-5.6475 2.515-7.5615-.29-1.0528-.774-1.627-1.645-1.9141-3.289-.957-10.74 4.4981-12.385 6.0303-8.657 8.1992-13.72 19.2602-19.111 31.0372l-.82 1.79-.871 2.01c-.097.191-.194.287-.387.191l-4.257-1.531c-.439-.124-.757-.369-1.005-.682-.134-.17-.248-.36-.35-.562-.138-.272-.21-.565-.217-.868-.008-.339.064-.693.217-1.046l2.322-5.264c-6.192 7.465-13.739 12.92-20.222 10.24-3.58-1.435-5.225-4.498-5.032-8.9-4.74 5.359-9.771 8.613-14.997 9.474-3.289.575-7.256 0-9.482-5.55-.483-1.244-.871-3.637-.774-6.795-6.87 8.613-16.158 14.929-23.318 11.388-1.935-.957-3.193-2.584-3.677-4.593-1.838-6.891 5.128-18.0892 9.676-25.267.15-.248.326-.5214.502-.7939l.019-.0293.28-.4404.167-.2676 2.515-4.0205c-2.419 1.7236-4.838 3.0635-7.063 3.9248-4.451 1.6269-10.256 2.3926-15.191 1.6269l-18.093 27.946c-.774 1.053-1.355 1.532-2.129.957 0 0-.097-.095-.097-.191v-.287l17.61-27.1808.968-1.627c-4.742-1.1484-8.999-4.2109-10.644-7.9443-2.515-6.0293-.29-12.6328 5.612-16.6523 4.548-3.0635 10.643-3.2549 14.611.0957 4.934 4.2109 2.321 9.1875-3.58 18.2793l-2.129 3.3505c.476.1817.966.335 1.465.461.819.207 1.661.3408 2.502.4004 8.127.6699 12.288-1.5313 17.9-7.083 1.451-1.4356 5.515-7.3692 5.515-7.4649.097-.0957.29-.1914.387-.0957l5.418 2.584c.203.1006.379.2266.515.3799.123.1387.213.2988.259.4814.097.3828.097.8614-.193 1.2442-2.032 3.1582-8.708 14.0693-12.869 21.2466-4.838 8.519-7.547 15.697-6.386 18.185 1.161 2.775 7.644 1.053 12.869-3.828 2.322-2.201 4.644-4.594 6.676-7.369.484-4.021 1.741-8.9016 4.548-14.1653l.089-.168c3.267-6.1797 6.967-13.1777 16.843-17.8252 4.257-2.0097 8.708-2.1054 11.901-.2871 2.612 1.4356 4.16 4.0196 4.547 7.3692.097.3828.097.8613.097 1.2441.291-.6699.677-1.2441 1.065-1.8183.378-.5625 1.453-2.2481 2.451-3.8223 1.041-1.6426 1.999-3.1641 1.999-3.1641.04-.039.096-.0781.156-.1045.085-.0371.175-.0478.231.0088.194 0 4.258 1.627 5.806 2.4883.387.1914.677.4785.774.8613.045.1768.048.375.02.5733-.034.2314-.11.4648-.214.6709-2.032 3.2539-8.708 14.165-12.868 21.3429-5.806 10.05-7.935 17.227-5.709 18.854 5.902 4.403 15.288-5.933 21.19-14.069l3.773-8.5176 9.772-22.1084c.097-.0957.291-.1914.388-.0957 0 0 3.386 1.627 5.515 2.584.967.4785 1.451 1.627.967 2.6797-.622 1.4551-2.005 4.3496-3.317 7.0957-.932 1.9512-1.829 3.8271-2.391 5.0596 6.579-9.0928 14.997-16.2705 20.609-17.0362 5.128-.6699 7.45 1.0528 8.514 2.584 2.129 3.1582 1.452 8.71-1.935 14.4522-1.258 2.2011-3.483 6.3164-4.547 8.3257-4.838 8.519-7.547 15.697-6.387 18.185 1.162 2.775 7.644 1.053 12.869-3.828 1.838-1.723 3.677-3.541 5.322-5.551.193-4.308 1.451-9.858 4.644-15.9833l.089-.1699c3.268-6.1797 6.968-13.1768 16.844-17.8233 4.257-2.0097 8.708-2.1054 11.9-.2871 2.613 1.4356 4.161 4.0196 4.548 7.3692.022.0849.039.1758.052.2685.019.1387.03.2823.037.4248.004.086.006.1709.006.2549l.002.2959c10.546-37.5166 26.608-71.6846 34.929-74.84276 8.321-3.15821 15.191 5.45506 8.321 17.22756zm-10.16 2.0097c5.903-10.2412 5.709-15.0263 3.677-15.6962-8.805-2.8711-29.124 48.4277-34.348 68.5263.662-1.1465 1.502-2.5947 2.481-4.2783 1.889-3.251 4.297-7.3828 6.942-11.9229 7.197-12.3486 16.156-27.7216 21.248-36.6289zm-212.96 45.1739c-1.935 2.9668-3.193 7.1777.484 11.4843.433.5235.962 1.0235 1.55 1.4766.596.458 1.252.8672 1.933 1.2041l2.612-4.2119c2.516-3.8281 5.903-10.1445 1.452-12.6328-2.709-1.4356-6.289-.0957-8.031 2.6797zm66.762 24.7881c.193-.5743.58-1.3399 1.064-2.2969l.441-.8877c2.36-4.7393 6.545-13.1436 5.365-16.9141-.388-.8613-.871-1.4355-1.742-1.8183-.581-.2871-1.064-.3828-1.645-.3828-5.322 0-12.288 11.2939-14.707 15.4091l-.483.8614c-6.096 9.9531-12.482 23.2571-10.257 27.3721.484.957 1.355 1.435 2.612 1.531 3.968-.096 11.224-4.976 19.352-22.8738zm102.174 0c.194-.5743.581-1.3399 1.065-2.2969.248-.502.53-1.0586.833-1.6563 2.414-4.7656 6.176-12.1914 4.972-15.7627-.387-.8613-.871-1.4355-1.742-1.8183-.182-.0908-.356-.1621-.525-.2178-.154-.0498-.306-.0869-.459-.1133-.212-.0361-.429-.0517-.66-.0517-5.322 0-12.385 10.9111-14.804 15.0263l-.484.8614c-5.999 9.9531-12.095 23.0651-9.869 27.1811.266.525.648.907 1.147 1.16.138.069.284.129.438.179.308.1.65.163 1.027.192 3.968-.096 10.934-4.785 19.061-22.6828zm-307.394-.4786-1.258-.6699c-6.096 10.2413-15.868 23.6393-28.446 23.6393-5.322 0-8.999-5.072-6.289-11.867 1.354-3.445 4.063-6.604 4.063-6.604s16.449.478 26.027-7.6566c9.676-8.1347 5.322-18.5673-3.579-19.0459-7.644-.3828-17.126 4.5938-27.576 19.333-.307.3907-.575.8018-.821 1.2227-.295.5078-.56 1.0303-.824 1.5527-2.225 4.0191-3.483 8.2311-3.58 12.0601-1.644 2.009-3.483 3.828-5.321 5.55-5.225 4.881-11.708 6.604-12.869 3.828-1.161-2.488 1.549-9.666 6.386-18.184 1.064-2.0099 3.29-6.1252 4.548-8.3263 3.386-5.7422 4.063-11.294 1.935-14.4522-1.065-1.5312-3.387-3.2539-8.515-2.584-5.612.7657-15.287 8.9014-21.77 18.2803 1.355-2.9668 19.545-41.9199 20.609-44.4082.484-1.0527 0-2.2012-.967-2.6797-2.129-.957-5.515-2.584-5.515-2.584-.097-.0957-.291 0-.388.0957l-23.5113 53.0215-8.708 19.7159c-.2906.67-.2906 1.34 0 1.914.0664.132.1382.259.2173.378.2656.4.6152.719 1.1372.866l4.2573 1.531c.1299.065.2163.042.2886-.037.0351-.039.0669-.092.0986-.154l.8706-2.01c5.7085-12.441 11.1267-24.2136 20.1257-32.8269 1.644-1.5313 8.804-6.9873 12.191-6.0303.199.0654.378.1455.538.2432.177.1084.332.2373.469.3896.283.3154.487.7334.638 1.2813.477 1.8886-1.305 5.2675-2.469 7.4707l-.047.0908c-.161.3174-.291.6055-.409.8642-.095.21-.182.4004-.268.5713-.677 1.4356-1.452 2.8711-2.129 4.3067-.967 1.8183-1.838 3.6364-2.709 5.4554-.146.337-.316.697-.486 1.057-.169.358-.337.715-.482 1.048-2.225 4.786-4.45 9.667-3.579 13.687.483 2.009 1.741 3.636 3.676 4.593 6.773 3.35 15.481-2.201 22.157-10.048.031.18.061.371.091.564l.055.345c.048.31.096.622.145.909 1.161 4.594 3.966 9.283 11.61 9.283 17.32 0 30.382-24.9794 30.382-24.9794zm-19.061-12.5371c5.418-5.5517 9.385-8.4228 12.288-7.7529 4.064.957-.097 9.9541-4.547 14.9307-5.806 6.4121-11.805 8.4217-20.029 8.4217 4.644-6.6991 8.902-12.2499 12.288-15.5995zm-5.805-54.2675c-9.482-.0958-26.898-1.627-46.347-5.4551-8.3204 9.1875-14.4161 25.1709-24.9625 56.5635-11.6108 34.4536-33.9614 42.5896-58.1509 41.7286-14.1264-.479-23.511674-10.816-24.2856-22.491 0-.291.166504-.527.415527-.623.07959-.032.167969-.048.261719-.048.387204 0 .773924.383.773924.766.48389 6.412 4.93457 20.864 23.99563 20.864 20.4155 0 34.9292-14.643 46.6367-47.7582l4.4507-11.1015c7.063-18.9502 16.7387-31.0098 26.5108-38.7618l-5.2247-1.1484c-10.9331-2.4883-20.2217-3.3496-28.833-2.4883 2.6123 4.7852 3.8701 10.9102 3.3862 18.8545-1.3545 23.4483-23.6084 46.8965-42.6694 44.4082s-15.9648-29.6699 3.9673-49.0029c8.9014-8.6133 19.3511-14.7383 30.8652-18.1846-3.5801-3.7324-8.8052-6.6992-16.7392-8.80467l.1938-1.33984c7.6436 2.10547 13.7393 5.07231 17.9966 9.76171 13.8359-3.8281 29.1235-3.7324 44.7982.5742.506.1114 1.012.2559 1.499.3946.351.0996.692.1962 1.017.2763 4.547-2.3935 8.998-4.0205 13.062-5.1689 14.32-3.92385 23.318-3.2539 33.671-.7656 8.998 2.2011 13.642 7.083 13.449 10.9111-.29 5.0723-6.096 8.2305-19.738 8.0391zm5.418-17.5147c-13.352-3.2539-24.383-1.3398-33.477 1.4356-3.677 1.0527-6.87 2.2968-9.773 4.0205 2.911.8955 5.625 1.8154 8.272 2.7119 9.229 3.1279 17.637 5.9765 30.721 6.5713 6.483.2871 16.545-.2871 16.835-5.6465.194-3.8281-6.773-7.753-12.578-9.0928zm-125.0092 64.5068c18.6743 2.3926 36.6709-23.4482 36.8642-38.8564.0967-6.9873-.6772-13.0166-3.6767-17.8018-10.0625 1.2442-19.1577 5.168-28.6397 12.0586-17.8032 12.9209-23.125 42.2071-4.5478 44.5996z" fill="#2d2a26" fill-rule="evenodd"/></svg>