<svg fill="none" height="26" viewBox="0 0 26 26" width="26" xmlns="http://www.w3.org/2000/svg"><g fill="#3a3c42"><path d="m12.9948 2.34253c3.4719 0 3.8794.01548 5.2516.07739 1.2691.05676 1.9552.26831 2.4143.4489.5623.20639 1.073.54178 1.496.97004.4334.41794.7635.92875.9699 1.49633.1754.45921.3921 1.14546.4488 2.41476.0619 1.37249.0774 1.78012.0774 5.25265 0 3.4725-.0155 3.8801-.0774 5.2526-.0567 1.2693-.2683 1.9556-.4488 2.4148-.4385 1.1351-1.331 2.0278-2.4659 2.4663-.4591.1755-1.1452.3922-2.4143.4489-1.3722.062-1.7797.0774-5.2516.0774-3.47178 0-3.87932-.0154-5.25155-.0774-1.26904-.0567-1.95515-.2683-2.41428-.4489-.5623-.2064-1.07302-.5417-1.49603-.97-.43334-.4179-.7635-.9288-.96984-1.4963-.1754-.4592-.39207-1.1455-.44881-2.4148-.06191-1.3725-.07739-1.7801-.07739-5.2526 0-3.47253.01548-3.88016.07739-5.25265.05674-1.2693.26825-1.95555.44881-2.41476.20634-.56242.54166-1.07323.96984-1.49633.41785-.43342.92857-.76365 1.49603-.97004.45913-.17543 1.14524-.39214 2.41428-.4489 1.37223-.06707 1.78493-.07739 5.25155-.07739zm0-2.34253c-3.52853 0-3.97218.0154793-5.35988.0773963-1.38254.0619167-2.32659.2837867-3.15198.6036907-.86667.325063-1.6508.835883-2.3008 1.501493-.66031.65012-1.17103 1.43441-1.501188 2.30125-.319841.82556-.541666 1.76979-.603571 3.15777-.0619048 1.38281-.077381 1.82655-.077381 5.3558 0 3.5293.0154762 3.973.077381 5.361.061905 1.3828.28373 2.3271.603571 3.1578.324998.8668.835718 1.6511 1.501188 2.3012.65.6605 1.43413 1.1713 2.3008 1.5015.82539.3199 1.76944.5418 3.15714.6037s1.82619.0774 5.35992.0774c3.5337 0 3.9722-.0155 5.3599-.0774 1.3826-.0619 2.3266-.2838 3.1572-.6037 1.7436-.6759 3.1262-2.0536 3.8019-3.8027.3199-.8256.5417-1.7698.6036-3.1578s.0774-1.8265.0774-5.361c0-3.53441-.0155-3.97299-.0774-5.36096-.0619-1.38282-.2837-2.32705-.6036-3.15777-.325-.86684-.8357-1.65112-1.5011-2.30125-.65-.66045-1.4342-1.17127-2.3008-1.501492-.8254-.319905-1.7695-.541774-3.1572-.6036914-1.3928-.0567573-1.8365-.0722366-5.3651-.0722366z"/><path d="m12.9942 6.3252c-3.68329 0-6.67535 2.98749-6.67535 6.6767 0 3.6892 2.9869 6.6767 6.67535 6.6767 3.6885 0 6.6754-2.9875 6.6754-6.6767 0-3.68921-2.9869-6.6767-6.6754-6.6767zm0 11.0057c-2.3936 0-4.33329-1.94-4.33329-4.3341 0-2.3942 1.93969-4.33424 4.33329-4.33424 2.3937 0 4.3334 1.94004 4.3334 4.33424 0 2.3941-1.9397 4.3341-4.3334 4.3341z"/><path d="m19.9344 7.61454c.8604 0 1.5579-.69765 1.5579-1.55825 0-.86059-.6975-1.55824-1.5579-1.55824s-1.5579.69765-1.5579 1.55824c0 .8606.6975 1.55825 1.5579 1.55825z"/></g></svg>