<svg fill="none" height="23" viewBox="0 0 28 23" width="28" xmlns="http://www.w3.org/2000/svg"><path d="m27.5579 2.69146c-1.0542.44858-2.1069.7472-3.2424.89715 1.1355-.67223 2.027-1.7943 2.5134-3.140033-1.0541.672233-2.2695 1.120803-3.5661 1.345733-1.0542-1.12081-2.5134-1.79431004-4.1339-1.79431004-3.1611 0-5.6745 2.54151004-5.6745 5.68155004 0 .44857.0813.89715.1626 1.27075-4.70158-.22365-8.83547-2.46653-11.67269-5.9052-.48642.82218-.72895 1.79431-.72895 2.84014 0 1.94299.97285 3.66232 2.51341 4.70942-.89154 0-1.78309-.29863-2.59333-.67223v.07498c0 2.76519 1.94569 5.00809 4.53901 5.53159-.48642.15-.97284.2237-1.45926.2237-.40512 0-.72894 0-1.05414-.075.72894 2.2429 2.83723 3.8872 5.26933 3.9622-1.94568 1.4944-4.37641 2.3916-7.05242 2.3916-.486418 0-.891539 0-1.37796-.075 2.51341 1.5694 5.51185 2.5415 8.6729 2.5415 10.3747 0 16.0491-8.5967 16.0491-16.07125 0-.22365 0-.52355 0-.7472 1.1341-.89716 2.1069-1.86928 2.8359-2.99009z" fill="#3a3c42"/></svg>