<svg fill="none" height="25" viewBox="0 0 25 25" width="25" xmlns="http://www.w3.org/2000/svg"><path clip-rule="evenodd" d="m4 0c-2.20914 0-4 1.79086-4 4v17c0 2.2091 1.79086 4 4 4h17c2.2091 0 4-1.7909 4-4v-17c0-2.20914-1.7909-4-4-4zm1.03792 15.5459c-.10988-1.0601.02373-2.6573.34017-3.1645.15031-.2346.36567-.3568.60827-.3472.15822.0018.29975.0528 3.44307 1.3493.00176 0 .91857.3736.91857.3736.3323.1248.5336.4694.5125.8597-.0211.3806-.2391.6786-.5635.7612-.0053.0026-1.30531.4175-1.30531.4175-2.92534.9405-3.02203.9669-3.17761.959-.24261-.0088-.45533-.1521-.5819-.3929-.0923-.1741-.15559-.4659-.19426-.8157zm7.37238 6.4964c.051-.1477.0571-.2487.0659-3.3218 0 0 .007-1.358.0079-1.3712.0211-.3331-.1942-.6364-.5467-.7718-.363-.1397-.7542-.0536-.974.2198 0 0-.6416.7612-.6434.7612-2.2019 2.5869-2.2942 2.7065-2.34782 2.8594-.03252.0897-.0457.1864-.03516.2822.01319.1371.0756.2725.17844.399.51071.6066 2.95964 1.5075 3.74194 1.3739.2716-.0492.4694-.2021.5529-.4307zm7.4302-4.2019c-.1134.7885-1.7238 2.8375-2.4621 3.1319-.2558.1029-.502.0783-.6953-.0738-.1249-.0976-.2576-.2971-1.9927-3.1152l-.516-.8403c-.1978-.3006-.1609-.6988.087-1.0003.2382-.2936.5924-.4053.9027-.2848.0167.0079 1.2992.4316 1.2992.4316 2.9236.9598 3.0176.9959 3.1416 1.0891.189.1511.2751.3876.2356.6618zm-3.9732-4.1232c3.3226-.8052 3.451-.8474 3.5819-.9335.2013-.1354.3024-.3622.2848-.6382 0-.0028.0002-.0058.0004-.0088.0004-.0063.0008-.0128-.0004-.0193-.0852-.8157-1.5145-2.93765-2.2186-3.28222-.2496-.11954-.4993-.11163-.7067.02725-.1283.08351-.2224.21008-2.0015 2.64317 0 0-.8034 1.0944-.8131 1.1049-.2118.2576-.2153.6267-.0079.9432.2145.3279.5766.4878.9089.3955 0 0-.0132.0238-.0167.0282.1635-.0616.4562-.1336.9889-.2602zm-3.835-10.19495c.0466.27162.443 6.13459.5001 7.45135.0545 1.1225-.4272 1.2719-.5845 1.3203-.1591.0501-.6434.1995-1.2368-.763 0 0-4.01616-6.31919-4.11109-6.51345-.05802-.21976.01318-.46764.20656-.66893.60037-.6197 3.84213-1.52771 4.69043-1.31763.276.06944.4685.24524.5353.49136z" fill="#3a3c42" fill-rule="evenodd"/></svg>