<svg fill="none" height="25" viewBox="0 0 25 25" width="25" xmlns="http://www.w3.org/2000/svg"><path d="m1.38855 0h22.22295c.3692 0 .7202.146484.9826.40741.2594.259399.4059.6134.4059.98114v22.22295c0 .1602-.0275.3173-.0793.4653-.0702.1923-.1801.3693-.3266.5158-.1312.1312-.2868.2334-.4577.3021-.1648.0687-.3418.1053-.5249.1053h-6.3508v-9.6741h3.2593l.4852-3.7842h-3.7445v-2.40931c0-1.08643.3052-1.83259 1.8708-1.84021h1.9928v-3.36152c-.9735-.10833-1.944-.15869-2.9084-.14953-.3601 0-.708.02746-1.0376.0824-2.304.37994-3.8116 2.06604-3.8238 4.86907v.03815l-.0061 2.77095-3.241.0062v3.7857h3.2471v9.6664h-11.96595c-.36926 0-.720215-.1465-.982666-.4074-.2594-.2594-.405884-.6134-.405884-.9811v-22.22295c0-.36774.146484-.721741.405884-.98114.262451-.260926.613406-.40741.982666-.40741z" fill="#3a3c42"/></svg>