<svg alt="yelp" fill="none" height="79" viewBox="0 0 161 79" width="161" xmlns="http://www.w3.org/2000/svg"><path d="m158.044 43.6569c-1.027-.776-1.196-.8948-7.367-2.9272 5.345-1.3145 5.575-1.4543 6.522-2.0773 2.146-1.4543 3.292-3.8668 3.126-6.4799l-.022-.2851c-.435-4.1941-5.838-12.1073-9.475-13.8836-2.4-1.1456-5.068-.9846-7.169.4276-.99.6545-1.122.7443-5.184 6.2898-.396-6.4799-1.159-17.90622-1.346-18.97521l-.04-.24547-.061-.23755c-.694-2.51015-2.663-4.39474-5.271-5.049332-4.352-1.084828-15.863 2.159092-18.951 5.342312-1.813 1.89251-2.51 4.43961-1.885 6.82835l.127.4751.214.4408c.295.6097 1.074 1.9004 7.755 12.3818l2.462 3.8801c-5.981-2.4468-6.218-2.4548-7.456-2.4653-2.357-.103-4.72 1.1587-6.142 3.3864l-.027.0423c-.734 1.1825-1.188 2.7899-1.47 4.4739-1.927-2.5973-4.828-4.6798-9.2249-5.5429-3.1173-.6256-6.0418-.2481-8.7974.8657-2.5234-1.6101-5.9917-1.7975-8.8925-.1425-.8947.5094-1.5652 1.1165-2.0904 1.7632v-3.5581l-.2772-2.1142-.0844-.3801c-.5834-2.2937-2.3149-4.2284-4.6323-5.1786l-.0211-.0106c-2.5445-1.0268-5.3978-.7813-7.8182.6678-2.5788 1.523-3.9012 4.0516-3.9012 7.5093v7.256c-.9185-1.4306-2.0535-2.6712-3.397-3.69-3.6213-2.7451-8.478-3.6715-14.0367-2.6738-3.2229.5595-5.9178 1.9664-8.0531 4.0305-.0343-.066-.0686-.1478-.103-.2138-1.0848-1.9427-2.8453-3.2783-5.0994-3.8695-3.7639-1.0321-8.5414.2481-10.5131 6.9788 0 0-.3194 1.0874-.7575 2.5735-.8631-1.5837-3.1014-5.9098-3.1938-6.0392-2.0166-3.0565-6.05497-4.3815-9.66579-2.9456-3.48939 1.3144-5.508604 4.3842-5.508604 7.9923 0 1.1376.197957 2.3228.612356 3.5264l.102948.293s7.16883 14.6016 9.24349 18.8274c-3.33369.8789-5.70922 3.3653-6.09459 6.7756-.03959.3246-.06071.6519-.06071.9739 0 2.1697.90007 4.2417 2.55239 5.762 2.5075 2.3148 6.40341 3.0803 10.97761 2.1433 4.9701-.9766 7.8287-3.9724 9.8321-10.3257l3.0486-9.5787c.9924 4.0332 2.7978 6.6674 4.5108 8.3566 2.4627 2.4363 6.9736 5.1312 14.4407 4.1229 5.5482-.776 9.3886-3.2598 11.4632-6.179l.1347.7047c.5912 2.0826 2.1987 3.9329 4.3577 4.9174 2.2568 1.0452 4.8699 1.0267 7.161-.0475 1.1956-.52 2.2092-1.3409 2.9984-2.3676v3.0195c0 4.9913 2.8876 7.1134 4.6086 7.9369 2.2462 1.1297 4.9358 1.2195 7.277.2033 2.2119-.9581 3.8537-2.782 4.4977-4.9966l.1003-.3404.3009-2.0588s0-.7945 0-.8843c3.0011.3062 6.1342-.1821 8.8924-1.6127 1.219-.6335 2.286-1.3963 3.239-2.2726h2.027c1.103.5807 2.357.9423 3.706.9423 1.354 0 2.605-.3616 3.705-.9423h5.879c3.893 2.1908 9.584 3.851 12.63 3.3284 2.623-.4646 4.69-2.1538 5.564-4.5214l.044-.1188c.37-1.0769.431-1.2775.457-7.3615 3.336 5.3898 3.511 5.5323 4.448 6.2714 2.014 1.5705 4.661 1.9162 7.105.9317 3.925-1.5758 9.922-9.1986 10.524-13.3822.05-.3642.079-.7337.079-1.0954 0-2.1907-.945-4.2205-2.637-5.5719zm-60.9061-14.2057c.008.0053.0132.0053.0212.0053.0052.0053.0105.0053.0184.0053zm52.9451 34.2552h-.005c-.008 0-.01.0079-.018.0106z" fill="#fff"/><path d="m97.1379 29.4487c.0123.0061.0153.0061.0245.0061.0092.0061.0122.0061.0245.0061z" stroke="#bdbcbc" stroke-linecap="round" stroke-linejoin="round" stroke-width=".077694"/><path d="m150.093 63.7041h-.01c-.007 0-.01.0103-.021.0137z" stroke="#bdbcbc" stroke-linecap="round" stroke-linejoin="round" stroke-width=".077694"/><g fill="#e9e9e9"><path d="m111.357 35.207c-.953 1.5257-1.352 6.319-1.022 9.5048.114 1.0505.301 1.9269.583 2.4468.381.7259 1.019 1.1588 1.748 1.1825.462.0238.755-.0528 9.539-2.8849 0 0 3.904-1.2406 3.925-1.2485.966-.2508 1.626-1.1429 1.689-2.2858.063-1.1746-.546-2.2066-1.539-2.5814l-2.755-1.1244c-9.444-3.8959-9.864-4.0437-10.345-4.049-.725-.0343-1.372.3378-1.823 1.0399z"/><path d="m132.47 64.2184c.156-.4434.172-.747.196-9.9746 0 0 .023-4.078.031-4.1229.058-.9924-.586-1.9057-1.647-2.3148-1.09-.4223-2.264-.1636-2.927.6599 0 0-1.921 2.2805-1.929 2.2831-6.612 7.7733-6.889 8.127-7.048 8.5915-.1.2693-.14.5543-.108.8447.042.4091.224.8235.538 1.193 1.531 1.8292 8.888 4.5347 11.231 4.1335.816-.1479 1.413-.6124 1.663-1.2934z"/><path d="m147.383 61.0059c2.223-.8842 7.064-7.0395 7.401-9.4045.117-.8262-.14-1.5335-.71-1.9902-.367-.2797-.66-.388-9.431-3.2703 0 0-3.856-1.2722-3.898-1.2933-.937-.3643-1.998-.0291-2.713.8552-.745.9053-.861 2.0957-.262 3.0011l1.55 2.5207c5.213 8.4674 5.606 9.0639 5.981 9.3596.58.4513 1.322.5331 2.082.2217z"/><path d="m142.856 39.2151c9.977-2.4125 10.36-2.5392 10.756-2.7979.605-.4117.903-1.0874.853-1.9241 0-.0291.002-.0528 0-.0819-.259-2.4468-4.548-8.8211-6.662-9.8558-.753-.3563-1.502-.3326-2.12.0792-.385.2587-.673.6282-6.01 7.9396 0 0-2.415 3.2888-2.444 3.3178-.636.7707-.644 1.8819-.027 2.8348.642.9845 1.735 1.4649 2.732 1.1878 0 0-.045.0686-.053.0844.489-.1874 1.376-.4038 2.975-.7839z"/><path d="m132.837 30.9762c-.174-3.9539-1.359-21.55665-1.499-22.36961-.203-.74433-.781-1.26959-1.613-1.47811-2.542-.63347-12.279 2.09839-14.081 3.95922-.576.6018-.792 1.3488-.621 2.0087.283.5806 12.343 19.5559 12.343 19.5559 1.784 2.8929 3.238 2.4415 3.713 2.2937s1.922-.5992 1.758-3.9698z"/></g><g fill="#bf2519"><path d="m112.154 33.2087c-.95 1.523-1.351 6.319-1.021 9.5022.116 1.0505.306 1.9268.583 2.4494.38.7232 1.019 1.1535 1.747 1.1799.468.0237.758-.0555 9.542-2.8797 0 0 3.904-1.2458 3.92-1.2538.974-.2481 1.628-1.1429 1.692-2.2858.063-1.1719-.542-2.2066-1.539-2.5814 0 0-2.753-1.1217-2.758-1.1217-9.439-3.8933-9.864-4.0464-10.339-4.0517-.729-.029-1.376.3379-1.827 1.0426z"/><path d="m133.27 62.2184c.153-.4434.172-.747.198-9.9746 0 0 .021-4.078.024-4.1176.063-1.0004-.584-1.911-1.642-2.3175-1.09-.4196-2.265-.161-2.925.6599 0 0-1.926 2.2858-1.932 2.2858-6.612 7.768-6.889 8.127-7.05 8.5862-.097.2693-.137.5596-.105.8473.039.4118.227.8183.535 1.1983 1.534 1.8213 8.888 4.5268 11.237 4.1256.815-.1479 1.409-.6071 1.66-1.2934z"/><path d="m148.188 59.0055c2.217-.8842 7.053-7.0369 7.393-9.4045.119-.8235-.14-1.5335-.707-1.9875-.372-.2798-.655-.388-9.434-3.2703 0 0-3.851-1.2723-3.901-1.296-.932-.3616-1.995-.0264-2.711.8552-.744.9053-.855 2.101-.261 3.0037l1.55 2.5233c5.21 8.4622 5.608 9.0614 5.983 9.3544.581.4566 1.32.5305 2.088.2217z"/><path d="m143.651 37.2197c9.977-2.4178 10.362-2.5445 10.755-2.8031.605-.4065.908-1.0875.856-1.9163 0-.0264.005-.0554 0-.0845-.256-2.4494-4.548-8.8211-6.662-9.8558-.75-.359-1.5-.3352-2.123.0818-.385.2508-.667.6309-6.01 7.9369 0 0-2.412 3.2862-2.441 3.3179-.636.7733-.647 1.8819-.024 2.8321.644.9846 1.732 1.465 2.729 1.1878 0 0-.039.0713-.05.0845.491-.1848 1.37-.4012 2.97-.7813z"/><path d="m133.637 28.9812c-.172-3.9539-1.362-21.55927-1.502-22.37487-.201-.73905-.779-1.26695-1.607-1.47547-2.547-.63083-12.282 2.09575-14.085 3.95659-.58.60444-.794 1.34875-.62 2.00865.285.5833 12.345 19.5586 12.345 19.5586 1.782 2.8902 3.236 2.4415 3.714 2.291.472-.1451 1.919-.5938 1.755-3.9645z"/></g><path d="m10.1037 70.7132c1.2564 1.164 3.6372 1.494 6.5301.9054 2.7107-.5358 4.3921-1.7474 6.0101-6.8917l8.0583-25.318c.4171-1.3434.3854-2.5101-.0924-3.3759-.388-.6968-1.0346-1.1692-1.9479-1.4121-1.4359-.3933-3.2281-.3537-4.3578 3.5053l-4.2284 14.3614s-8.6127-16.2698-8.618-16.2724c-.5437-1.0875-2.13794-1.8661-3.76122-1.2221-2.11687.805-2.82161 2.7081-1.97697 5.1602 0 0 10.47609 21.3191 10.49989 21.3772 0 0 .285.7601.285.8842 0 0 .0951.578.0951.5992-.0212.8208-.2957 1.5124-.7866 1.9743-.483.454-1.1535.6915-1.9374.6599 0 0-1.6338-.037-1.7579-.037-1.6787.2059-2.73449 1.1693-2.90342 2.658-.11877.9581.19004 1.8001.88952 2.4441z" fill="#231f20"/><path d="m51.3826 46.7056h-11.2178c-.3036-.2217-.4514-.5938-.2244-1.713.1426-.5886.2956-1.1165.7444-1.8555.1451-.2218.2956-.4488.4407-.6758.8209-1.0373 1.9321-1.7024 3.1965-1.998 3.9434-.9635 6.6937 1.0399 7.1398 4.458.2138 1.4914.0739 1.7843-.0792 1.7843zm6.8943-1.9532c-.3616-3.6583-1.7737-6.5142-4.0885-8.2642-2.4653-1.8714-5.9547-2.4679-10.0855-1.7289-5.1787.8975-8.288 4.598-9.0007 10.7163-.8763 7.314.3273 12.8253 3.4921 15.9425 2.3861 2.3571 5.9151 3.2941 10.2069 2.7134 6.1209-.8605 8.8739-4.2205 8.8739-6.3453 0-1.5626-.9449-2.7926-2.3333-2.98-.7945-.1584-1.4649 0-2.9483 1.3277-2.138 1.8634-4.6165 2.6131-6.8125 2.0561-1.6734-.4249-2.98-1.5784-3.5712-3.1594 0 0-.264-1.0453-.2481-.9291-.1795-.9423-.2613-1.8767.3193-2.2568l.1558-.1056h13.4455c1.2406 0 1.8688-.161 2.2304-.5516.739-.8209.681-3.1648.3642-6.4351" fill="#231f20"/><path d="m70.4661 25.4059c-1.0637-.4329-2.2647-.3167-3.3178.3115-1.0136.5991-1.4359 1.5124-1.4359 3.1621v32.0592s.1768 1.1455.1953 1.1956c.227.7998.8183 1.4808 1.6391 1.853.9107.4223 1.9612.4144 2.9008-.0264 1.1693-.5068 1.8582-1.6761 1.8582-3.1252v-32.1199s-.2032-1.552-.2032-1.581c-.1874-.7444-.8024-1.3884-1.6365-1.7289z" fill="#231f20"/><path d="m95.837 57.9683c-4.4396 0-5.147-3.9407-5.2869-6.9154-.0079-.0079-.0581-1.7421-.0581-1.7421s.0502-1.288.0502-1.3382c.2877-5.147 1.3514-7.1767 4.0674-7.7416 1.8239-.4223 3.2176-.2164 4.2628.6256 1.5706 1.2643 2.2616 3.9407 2.1986 8.4067-.045 5.2288-.955 8.705-5.234 8.705zm.3299-23.5389c-2.9747-.6071-5.5191-.0976-7.9659 1.56 0 0-.2745.2217-.3801.285l-.2191.1109-.6704.3009-.1901-.7523-.161-.2718-.0554-.169-.0185-.0501s-.1636-.2191-.1874-.2534c-.7021-1.0928-2.6104-1.5943-4.3314-.6124-.842.4778-1.325 1.1508-1.325 3.1595v31.4653c0 1.7236.5411 2.7952 1.7236 3.36.9977.5015 2.1195.5411 3.0829.1267.8182-.3589 1.42-.9924 1.6444-1.7631l.198-1.3488v-5.4453l-.0581-.8763.0237-.2587.0344-.124.3246-1.0373.9845.6546s.2482.1636.3537.2745l.2957.1953c.0026.0026.3431.2006.3431.2006.0053 0 .3167.1531.3167.1531 2.6395 1.2458 6.1711 1.1007 9.0139-.3643 3.5793-1.8687 5.3473-5.1839 5.7563-10.7506.856-11.1254-1.705-16.4413-8.5331-17.769" fill="#231f20"/><path d="m109.961 60.4309h.367c.298 0 .578-.0159.578-.3511 0-.3009-.256-.3326-.486-.3326h-.459zm-.301-.9529h.786c.515 0 .755.1874.755.615 0 .3854-.245.5464-.567.5807l.62.9476h-.325l-.586-.9212h-.382v.9212h-.301zm.694 2.6395c.868 0 1.568-.6836 1.568-1.589 0-.8895-.7-1.5757-1.568-1.5757-.871 0-1.571.6862-1.571 1.5942 0 .8869.7 1.5705 1.571 1.5705zm0-3.4313c1.013 0 1.866.7971 1.866 1.8423 0 1.0637-.853 1.8582-1.866 1.8582-1.016 0-1.866-.7945-1.866-1.8397 0-1.0637.85-1.8608 1.866-1.8608z" fill="#231f20"/></svg>
