<svg width="57" height="56" viewBox="0 0 57 56" fill="none" xmlns="http://www.w3.org/2000/svg">
<path d="M19.0199 20.3699C18.963 20.6343 18.9914 20.857 18.8348 21.0658C18.792 21.1633 18.6354 21.1633 18.5499 21.2746C18.4787 21.3581 18.5214 21.5252 18.436 21.6226C18.4075 21.8036 18.2508 21.9428 18.1511 22.1098C18.0941 22.2072 18.0229 22.3047 17.966 22.2768C17.8947 22.249 17.909 22.1098 17.8663 22.068C17.6384 21.8871 17.2965 21.8592 17.0544 21.7061C16.8265 21.5669 16.5417 21.5252 16.2853 21.4138C16.0147 21.2885 15.8295 21.038 15.5731 20.8988C15.2171 20.7179 14.8895 20.4673 14.5334 20.2724C14.1204 20.0497 13.6503 19.9245 13.2373 19.7157C13.2231 19.7157 13.1946 19.6878 13.1803 19.6739C13.0237 19.493 12.8812 19.3259 12.6818 19.2007L12.5964 19.3259C12.3827 19.312 12.2261 19.1311 12.0836 19.0058C11.9839 18.9083 11.9269 18.7413 11.7845 18.6856C11.6848 18.6439 11.5851 18.6578 11.5281 18.5743C11.5281 18.5743 11.4569 18.616 11.4427 18.616C11.2006 18.4908 11.0581 18.1985 10.8302 18.0871C10.7448 18.0454 10.5881 18.0871 10.5027 18.0175C10.4457 17.9758 10.4742 17.7809 10.403 17.7391C10.3033 17.6834 10.232 17.6278 10.1608 17.5303C10.1323 17.4886 10.0184 17.5303 9.97567 17.5164C9.80475 17.4329 9.66232 17.3076 9.53413 17.1684C9.43443 17.0571 9.36322 16.89 9.23503 16.8205C9.03563 16.7091 8.76502 16.6813 8.60834 16.5003C8.4944 16.3611 8.46591 16.1802 8.33773 16.0549C8.18106 15.9018 8.02438 15.7487 7.8962 15.5538C7.78225 15.3728 7.56861 15.3311 7.39769 15.2337C7.26951 15.1641 7.15556 14.997 7.08435 14.8718C6.94192 14.663 6.95616 14.3567 6.82798 14.1479C6.82798 14.134 6.78525 14.0784 6.771 14.0644C6.62857 13.967 6.52887 13.8556 6.44342 13.7025C6.40069 13.619 6.44342 13.6329 6.54312 13.4798C6.55736 13.452 6.51463 13.3963 6.54312 13.3685C6.5716 13.3685 6.58585 13.3685 6.60009 13.3685C7.09859 13.6469 7.5971 13.8974 8.0956 14.1619C8.15257 14.1897 8.1953 14.2454 8.25227 14.2732C8.295 14.3011 8.28076 14.3567 8.30924 14.3985C8.3947 14.5099 8.57986 14.5377 8.6938 14.5934C8.8932 14.6769 9.17806 14.649 9.34898 14.8022C9.42019 14.8718 9.46292 14.8718 9.56262 14.8996C9.76202 14.9553 9.94718 15.1084 10.0896 15.2337C10.1181 15.2615 10.1181 15.3172 10.1608 15.345C10.3317 15.4007 10.5454 15.4424 10.6593 15.5956C10.6736 15.6234 10.6593 15.5956 10.6878 15.5956C10.8018 15.5956 10.8872 15.7487 10.9727 15.7904C11.1009 15.86 11.2575 15.9018 11.3857 15.9714C11.3857 15.9714 11.4142 15.9714 11.4142 15.9853C11.5851 16.1662 11.8415 16.1662 12.0266 16.3054C12.1121 16.375 12.0979 16.5699 12.1976 16.6256C12.2118 16.6256 12.283 16.6256 12.3115 16.6256C12.4682 16.6534 12.5536 16.7509 12.6818 16.8344C12.753 16.8761 12.867 16.8483 12.9382 16.89C13.0094 16.9179 13.0237 17.0292 13.0949 17.071C13.337 17.2102 13.5934 17.3355 13.8497 17.4747C13.8925 17.5025 13.9637 17.4468 13.9922 17.4747C14.0776 17.5721 14.2058 17.5582 14.334 17.5721C14.3767 17.5721 14.4764 17.5721 14.5192 17.5999C14.7755 17.7391 15.0177 17.9062 15.2598 18.0593C15.331 18.101 15.3737 18.2124 15.445 18.2541C15.5447 18.3237 15.6016 18.5186 15.7156 18.5604C15.9577 18.6578 16.271 18.63 16.4704 18.8109C16.4989 18.8387 16.5132 18.8109 16.5559 18.8387C16.6841 18.8805 16.8835 18.9223 16.969 19.0336C16.9974 19.0754 16.9689 19.145 17.0259 19.145C17.1826 19.1728 17.3535 19.2007 17.4532 19.312C17.5102 19.3816 17.5244 19.5347 17.6241 19.5486C17.6669 19.5486 17.6811 19.5486 17.7238 19.5765C17.909 19.6739 18.1369 19.7157 18.322 19.8131C18.3648 19.8409 18.3505 19.9105 18.379 19.9523C18.4787 20.0776 18.6211 20.2028 18.7778 20.2446C18.8348 20.2446 18.9202 20.1472 18.963 20.175C19.0057 20.2028 19.0342 20.2864 19.0769 20.3142C19.1196 20.342 19.0484 20.3699 19.0911 20.3838L19.0199 20.3699Z" fill="white"/>
<path d="M17.4105 33.4401C17.2965 33.6767 17.1399 33.8298 16.969 34.0108C16.912 34.0943 16.855 34.1639 16.7411 34.2613C16.6556 34.3448 16.5701 34.4423 16.4847 34.5258C16.4135 34.6789 16.4135 34.9155 16.2853 35.0686C16.2141 35.1522 16.0574 35.2357 16.0289 35.2218C15.9862 35.2078 15.9862 35.0965 15.9577 35.0686C15.8438 34.9155 15.6444 34.8599 15.4877 34.7346C15.3453 34.6232 15.2313 34.4562 15.0746 34.3727C14.9037 34.2892 14.7471 34.1917 14.5761 34.1082C14.3482 33.9829 14.0776 33.9273 13.8497 33.8159C13.5791 33.6767 13.2943 33.5932 13.0094 33.4818C13.0094 33.4818 13.0379 33.3844 13.0379 33.3705C12.9382 33.2313 12.7246 33.287 12.5964 33.2174V33.1756C12.4539 33.2035 12.34 33.1199 12.2403 33.0364C12.1691 32.9807 12.0979 32.9808 12.0124 32.9808C11.9412 32.9808 11.8557 32.939 11.7988 32.8694C11.7988 32.8694 11.7988 32.8555 11.7988 32.8416C11.6278 32.7998 11.4854 32.6745 11.3145 32.6328C11.2433 32.6188 11.2148 32.5075 11.1578 32.4797C11.1151 32.4518 11.0581 32.4379 11.0012 32.424C10.9299 32.4101 10.8018 32.4518 10.7305 32.3961C10.7021 32.3683 10.7305 32.2987 10.6878 32.2848C10.5739 32.2569 10.4457 32.2291 10.346 32.1456C10.2605 32.076 10.1751 32.0203 10.0754 32.0064C9.9187 31.9786 9.76202 31.9229 9.61959 31.7976C9.51989 31.7141 9.37746 31.7141 9.26352 31.6306C9.13533 31.5331 8.9929 31.4357 8.86472 31.2965C8.75077 31.1712 8.6938 31.0042 8.56562 30.9625C8.46592 30.9346 8.36621 30.8929 8.28076 30.8093C8.08136 30.5866 8.16681 30.517 7.95317 30.2804C7.95317 30.2665 7.86771 30.2804 7.85347 30.2804C7.73952 30.2386 7.62558 30.1691 7.52588 30.0438C7.46891 29.9742 7.45467 29.9046 7.4974 29.7236C7.4974 29.6958 7.55437 29.6819 7.55437 29.6401C7.56861 29.6401 7.56861 29.668 7.58285 29.668C8.16681 29.7932 8.16681 29.8211 8.75077 29.9463C8.82199 29.9463 8.85047 29.8072 8.90745 29.8072C8.95017 29.8072 8.92169 29.9324 8.96442 29.9603C9.04988 30.0299 9.17806 30.0577 9.26352 30.0577C9.42019 30.0577 9.53414 30.0855 9.66232 30.1691C9.71929 30.2108 9.83324 30.0577 9.90445 30.0438C10.0469 30.0299 10.2178 30.0855 10.346 30.1551C10.3745 30.1691 10.3745 30.1969 10.403 30.1969C10.5311 30.1969 10.6024 30.2804 10.7163 30.3918C10.7305 30.4057 10.8018 30.2943 10.8302 30.2804C10.9157 30.2386 11.0012 30.4196 11.0724 30.4335C11.2433 30.4753 11.2433 30.4335 11.4142 30.4614L11.4854 30.35C11.6421 30.4614 11.7988 30.4474 11.9697 30.517C12.0836 30.5727 12.0551 30.6145 12.1691 30.6701C12.1833 30.6701 12.1976 30.6701 12.2118 30.6701C12.34 30.6423 12.4112 30.7676 12.5252 30.8093C12.5821 30.8372 12.6676 30.8093 12.7246 30.8093C12.7815 30.8093 12.8812 30.7258 12.924 30.7397C13.2231 30.8511 13.2231 30.8789 13.5222 31.0042C13.5506 31.0042 13.5364 31.1156 13.5649 31.1434C13.6361 31.213 13.7358 31.1434 13.8355 31.1434C13.8782 31.1434 13.9494 31.1852 13.9779 31.1991C14.1773 31.2826 14.391 31.3522 14.5904 31.4496C14.6474 31.4775 14.6616 31.5888 14.7186 31.6167C14.804 31.6723 14.8752 31.7141 14.9607 31.7419C15.1459 31.8115 15.3595 31.8672 15.5162 32.0203C15.5304 32.0342 15.5019 32.1595 15.5162 32.1734C15.6159 32.2013 15.801 32.1317 15.858 32.2291C15.8865 32.2569 15.858 32.3961 15.8865 32.4101C16.0004 32.4101 16.0289 32.4379 16.1001 32.5353C16.1429 32.591 16.271 32.6467 16.3423 32.6606C16.3707 32.6606 16.3565 32.6884 16.385 32.7024C16.5132 32.7859 16.6698 32.8416 16.798 32.9251C16.8265 32.939 16.9262 32.9112 16.9547 32.9251C17.0117 33.0364 17.0544 33.0921 17.1683 33.1199C17.2111 33.1199 17.1968 33.2174 17.2253 33.2313C17.2538 33.2591 17.325 33.2452 17.3678 33.287C17.3962 33.3148 17.3535 33.3287 17.382 33.3427L17.4105 33.4401Z" fill="white"/>
<path d="M31.0979 15.1362C31.2404 15.3728 31.1976 15.5677 31.2119 15.8322C31.2404 15.9296 31.3828 16.0131 31.3828 16.1523C31.3828 16.2637 31.3258 16.389 31.3258 16.5281C31.4398 16.6813 31.4398 16.8622 31.4683 17.0571C31.4825 17.1684 31.568 17.3633 31.4967 17.3911C31.4113 17.419 31.2831 17.3633 31.1976 17.3633C30.8131 17.3772 30.4428 17.4051 30.0725 17.4468C29.7164 17.4886 29.3745 17.5582 29.0185 17.6417C28.6482 17.7252 28.2778 17.767 27.9075 17.8366C27.3948 17.934 26.8535 17.934 26.3408 18.0314C25.4435 18.1985 25.4577 18.2263 24.5604 18.3794C24.5319 18.3794 24.5319 18.3794 24.5035 18.3794C24.1901 18.3516 23.9053 18.6021 23.6062 18.6439C23.5919 18.6439 23.6062 18.6439 23.6062 18.6578C23.3783 18.7831 23.0792 18.6578 22.8655 18.6578C22.6946 18.6578 22.5664 18.7135 22.4382 18.7692C22.3385 18.8109 22.2531 18.6996 22.1534 18.6996C22.1391 18.6996 22.1534 18.9362 22.1534 18.9362C21.9397 19.0336 21.5837 18.8805 21.427 19.0336C21.37 19.0893 21.4555 19.2981 21.3843 19.3677C21.3273 19.4094 21.1564 19.3677 21.1136 19.4234C21.0424 19.5208 21.0852 19.7017 20.9712 19.7992C20.9285 19.827 20.8288 19.7992 20.8003 19.8409C20.7148 20.0219 20.6294 20.2028 20.5012 20.3838C20.4015 20.523 20.2021 20.6483 20.1451 20.8153C20.0597 21.0798 19.9315 21.2885 19.7748 21.5391C19.6466 21.72 19.6751 21.9984 19.5754 22.1933C19.433 22.4299 19.4045 22.764 19.2193 22.9867C19.0627 23.1816 18.7778 23.3068 18.7066 23.5435C18.6496 23.7244 18.4929 23.8219 18.379 23.961C18.0799 24.323 18.0799 24.323 17.7808 24.6849C17.7666 24.7127 17.9517 24.838 17.9375 24.8658C17.8663 25.0607 17.6669 25.2555 17.5102 25.4226C17.4247 25.52 17.2823 25.4365 17.1114 25.3669C17.0829 25.3669 16.9547 25.4087 16.9262 25.3669C16.9262 25.3391 16.9405 25.2277 16.9547 25.1999C17.2681 24.1698 17.382 24.1977 17.6811 23.1676C17.7096 23.0563 17.6811 23.0424 17.7238 22.931C17.7381 22.8614 17.8235 22.8614 17.8663 22.8057C17.966 22.6666 18.0229 22.4578 18.0514 22.3047C18.1084 22.0402 18.1084 21.7757 18.2366 21.5252C18.2935 21.4138 18.1226 21.2468 18.1369 21.1354C18.1654 20.8849 18.4645 20.7039 18.5784 20.4673C18.6069 20.4116 18.6496 20.3281 18.6639 20.2724C18.7066 20.0358 18.7351 19.8549 18.906 19.6461C18.9345 19.6043 18.8775 19.479 18.8775 19.4234C18.8775 19.2702 19.0199 19.1728 19.0769 19.0197C19.1766 18.8109 19.2621 18.6021 19.3902 18.3933C19.3902 18.3933 19.319 18.3237 19.319 18.3098C19.5897 18.0314 19.7178 17.5721 20.0882 17.3076C20.2448 17.1824 20.5439 17.2659 20.7148 17.1684C20.7576 17.1545 20.7148 17.0153 20.7291 16.9875C20.9285 16.8065 21.1991 16.6673 21.427 16.5977C21.6121 16.5421 21.6549 16.6813 21.84 16.6117C21.954 16.5699 22.0252 16.375 22.1249 16.3472C22.5522 16.2498 22.9652 16.389 23.3213 16.3472C23.3783 16.3472 23.4352 16.2637 23.4922 16.2776C23.6631 16.2915 23.7628 16.1941 23.9195 16.1106C23.9765 16.0827 24.1047 16.2776 24.1616 16.2637C24.7171 16.1662 24.7029 16.041 25.2583 15.9575C25.3723 15.9435 25.5005 16.0688 25.6002 16.0549C25.7568 16.041 25.9278 15.9992 26.0844 15.9575C26.412 15.8739 26.7254 15.8183 27.0672 15.8183C27.1099 15.8183 27.1954 15.8183 27.2381 15.8043C27.409 15.7487 27.5372 15.6234 27.7224 15.6512C27.7936 15.6512 27.879 15.6234 27.936 15.5956C28.1069 15.512 28.2778 15.4842 28.463 15.4981C28.5912 15.4981 28.7479 15.5538 28.8618 15.4981C28.9045 15.4703 28.9045 15.3032 28.9473 15.2893C29.3461 15.2197 29.3745 15.345 29.7734 15.2893C29.8303 15.2893 29.8731 15.2197 29.9443 15.2197C30.1437 15.2476 30.3146 15.1641 30.4997 15.0945C30.5567 15.0666 30.6279 14.997 30.6991 14.997C30.7704 14.997 30.8558 15.0527 30.927 15.0527C30.9982 15.0527 30.9982 15.1084 31.0695 15.0945L31.0979 15.1362Z" fill="white"/>
<path d="M25.9278 22.6109C25.9847 22.8753 25.9705 23.0702 25.9278 23.3208C25.9278 23.4321 25.9278 23.5156 25.8993 23.6548C25.8708 23.7662 25.8993 23.8775 25.8993 24.0028C25.9278 24.1698 25.8708 24.3647 25.8565 24.5596C25.8565 24.6709 25.8565 24.8101 25.8423 24.8101C25.8138 24.8101 25.7426 24.8101 25.7141 24.8101C25.6002 24.7684 25.5005 24.7405 25.3723 24.7544C25.2583 24.7544 25.1444 24.8519 25.0162 24.9215C24.888 24.9911 24.7029 24.9632 24.5747 25.0468C24.3753 25.1581 24.1759 25.2834 23.9622 25.4087C23.7201 25.5618 23.421 25.6592 23.1504 25.8402C23.1504 25.8402 23.1789 25.9376 23.1646 25.9376C22.9937 25.9515 22.8798 26.0768 22.7373 26.1603C22.7373 26.1603 22.6804 26.1464 22.6804 26.1603C22.6092 26.2995 22.4667 26.2717 22.3243 26.2995C22.2104 26.3273 22.1249 26.4108 22.0394 26.4804C21.9682 26.5361 21.9112 26.5918 21.8115 26.5918C21.7973 26.5918 21.7688 26.5918 21.7546 26.5918C21.5409 26.6892 21.313 26.7171 21.0994 26.7867C21.0139 26.8145 20.9142 26.7727 20.8288 26.7727C20.7576 26.7727 20.7006 26.8145 20.6294 26.8284C20.5297 26.8423 20.4585 26.7867 20.3445 26.7449C20.3018 26.731 20.2448 26.8006 20.2021 26.8006C20.0454 26.8284 19.903 26.731 19.7606 26.6753C19.6466 26.6196 19.5184 26.5779 19.3902 26.5779C19.2051 26.55 19.0769 26.4804 18.9202 26.3412C18.8063 26.2438 18.6211 26.2577 18.5214 26.1603C18.3932 26.0489 18.3505 25.868 18.2793 25.701C18.2366 25.5339 18.0799 25.4643 17.9944 25.3669C17.9232 25.2973 17.8947 25.172 17.8947 25.0468C17.8947 24.8658 17.909 24.6709 17.966 24.5178C17.966 24.5039 18.0229 24.5178 18.0229 24.5178C17.9944 24.4343 18.1369 24.3508 18.2081 24.2534C18.2508 24.1977 18.2508 24.142 18.4217 24.1002C18.4502 24.1002 18.4787 24.1002 18.5214 24.0863C18.5214 24.0863 18.5072 24.1142 18.5214 24.1281C18.5784 24.3369 18.7351 24.4343 18.849 24.5457C18.849 24.5596 18.849 24.6292 18.849 24.6431C18.849 24.6431 18.8633 24.5874 18.8633 24.6153C18.8633 24.6849 18.963 24.657 19.0199 24.657C19.0911 24.6709 19.2051 24.6988 19.2621 24.7823C19.2905 24.824 19.2905 24.838 19.319 24.824C19.4045 24.8101 19.4615 24.824 19.5327 24.8936C19.5469 24.8936 19.6181 24.9493 19.6324 24.9354C19.7178 24.9076 19.7178 24.8797 19.8033 24.9493C19.8175 24.9632 19.8888 24.9354 19.903 24.9076C19.9457 24.8519 19.96 24.7962 20.0169 24.7823C20.0882 24.7823 20.1736 24.8519 20.2306 24.838L20.2591 24.7544C20.3873 24.8101 20.4442 24.7266 20.5582 24.7266C20.6151 24.7266 20.6721 24.7962 20.7291 24.7823C20.7291 24.7823 20.6864 24.6849 20.7006 24.6849C20.7433 24.6153 20.8715 24.657 20.9427 24.6431C20.9855 24.6431 20.9855 24.5735 21.0139 24.5457C21.0709 24.5178 21.0424 24.4621 21.0994 24.4204C21.3273 24.2951 21.3558 24.3508 21.5837 24.2255C21.6121 24.2116 21.6406 24.2534 21.6691 24.2534C21.7546 24.2534 21.8258 24.1698 21.8685 24.0863C21.8685 24.0585 21.8828 24.0167 21.9112 23.9889C22.1676 23.8358 22.1961 23.9054 22.4525 23.7523C22.5095 23.7244 22.5807 23.7523 22.6376 23.7244C22.7231 23.6827 22.7801 23.5991 22.8513 23.5435C22.9937 23.4182 23.1361 23.2651 23.3355 23.2233C23.364 23.2233 23.4068 23.2233 23.421 23.2094C23.5065 23.1398 23.5777 23.0981 23.7059 23.0981C23.7486 23.0981 23.7771 23.0285 23.8056 23.0006C23.891 22.9032 24.005 22.8753 24.1331 22.8753C24.2186 22.8753 24.2471 22.8197 24.3183 22.764C24.3468 22.7362 24.3895 22.6805 24.418 22.6805C24.6032 22.6248 24.8026 22.7083 25.002 22.6805C25.0447 22.6805 25.0589 22.6666 25.1017 22.6805C25.2441 22.7083 25.415 22.7083 25.5574 22.6526C25.6002 22.6387 25.6287 22.5413 25.6714 22.5413C25.7284 22.5413 25.7853 22.5413 25.8423 22.5413C25.885 22.5413 25.8565 22.6248 25.9135 22.6109H25.9278Z" fill="white"/>
<path d="M51.0523 10C51.3087 10.1531 51.1662 10.5011 51.2659 10.7377C51.3372 10.8212 51.8214 10.696 51.8641 10.8352C51.8926 10.9465 51.6363 11.2388 51.679 11.3641C51.8499 11.4476 52.2487 11.3919 52.3484 11.559C52.4054 11.6564 52.1775 11.726 52.1063 11.7817C52.0208 11.8513 52.0208 12.0183 51.9211 12.0601C51.5081 12.2688 51.0523 12.408 50.6677 12.6307C50.2974 12.8535 50.098 13.3267 49.7562 13.5773C49.3859 13.8417 48.9016 13.967 48.5313 14.2175C47.7337 14.7326 47.8049 14.8439 47.0073 15.3728C46.0815 15.9714 45.9533 15.7904 45.0418 16.4029C45.0133 16.4168 45.056 16.5421 45.0418 16.5421C44.6857 16.6673 44.3866 16.8761 44.0733 17.0571C44.059 17.0571 43.9878 17.0571 43.9736 17.0571C43.7742 17.2937 43.5748 17.4747 43.3041 17.5999C43.1047 17.6974 42.9481 17.8366 42.7629 17.9758C42.6347 18.0732 42.4211 18.0036 42.2644 18.0593C42.2359 18.0593 42.2359 18.1845 42.2217 18.1985C41.8656 18.4351 41.5523 18.6996 41.1962 18.9223C41.068 19.0058 40.8401 18.9779 40.6977 19.0475C40.5837 19.1032 40.484 19.1867 40.3843 19.2424C40.2277 19.3398 40.014 19.312 39.8289 19.3677C39.7576 19.3955 39.8146 19.66 39.7434 19.7017C39.487 19.8688 39.074 19.7853 38.7037 19.8688C38.4188 19.9384 38.1055 19.9105 37.7779 19.9105C37.2936 19.9105 36.9091 19.8827 36.5815 19.6739C36.3251 19.5069 36.1542 19.2842 35.9405 19.1311C35.6699 18.9223 35.3281 18.8248 35.0717 18.5882C34.8581 18.3794 34.5447 18.2541 34.2741 18.1149C34.0747 18.0175 34.0605 17.6974 33.9038 17.5303C33.505 17.1406 33.3341 17.3076 32.9353 16.9179C32.9068 16.89 33.0065 16.6952 32.978 16.6813C32.7501 16.556 32.565 16.4307 32.3798 16.2358C32.2801 16.1245 32.3228 16.2358 32.4225 16.0688C32.4368 16.041 32.3798 16.0966 32.4225 16.0688C32.451 16.0688 32.5222 15.8043 32.5507 15.8183C33.7471 16.4029 33.6902 16.5281 34.8866 17.1128C35.0147 17.1824 35.0005 17.1963 35.1429 17.2659C35.2142 17.2937 35.2996 17.3215 35.3566 17.3633C35.5133 17.5025 35.6699 17.7113 35.8551 17.7809C36.1684 17.9062 36.4533 18.0314 36.7097 18.2124C36.8236 18.2959 37.08 18.0314 37.1939 18.0593C37.4361 18.101 37.607 18.1706 37.7352 18.2124C37.7636 18.2124 37.8064 18.4629 37.8206 18.4629C37.9061 18.4212 37.9346 18.101 38.1482 18.0871C38.1909 18.0871 38.0912 18.101 38.1055 18.0732C38.1909 17.9758 38.4046 17.9479 38.5328 17.8783C38.8176 17.6974 38.9316 17.8505 39.2164 17.6695C39.2164 17.6695 39.1737 17.5999 39.1879 17.586C39.544 17.4468 39.6864 16.9875 40.014 16.8065C40.2419 16.6813 40.4128 16.9736 40.6265 16.8483C40.655 16.8344 40.5695 16.6395 40.598 16.6256C40.7547 16.4586 41.0253 16.4029 41.2247 16.2915C41.3386 16.2219 41.3529 16.041 41.4668 15.9714C41.6092 15.8739 41.595 15.8461 41.7374 15.7487C42.3071 15.3868 42.3356 15.4285 42.9053 15.0666C42.9623 15.0249 43.0478 14.9831 43.119 14.9553C43.3041 14.8857 43.4466 14.8161 43.589 14.663C43.6317 14.6073 43.7599 14.6212 43.8169 14.5794C44.4008 14.2036 44.3439 14.134 44.9278 13.7721C45.0418 13.7025 45.2982 13.8556 45.4121 13.7721C45.583 13.6747 45.7824 13.5773 45.9391 13.4659C46.2667 13.2154 46.5515 12.9648 46.9361 12.7978C46.9788 12.7699 47.0215 12.6864 47.0643 12.6447C47.2352 12.5055 47.3491 12.3106 47.5485 12.241C47.6198 12.2132 47.7195 12.1853 47.7764 12.1297C47.9331 11.9626 48.0755 11.7678 48.2892 11.6982C48.4316 11.6425 48.6737 11.726 48.7734 11.6146C48.8162 11.5729 48.8589 11.5868 48.9159 11.559C49.3289 11.2945 49.2577 11.1831 49.685 10.9187C49.742 10.8769 49.8274 10.9465 49.8986 10.9187C50.1265 10.8352 50.3544 10.6542 50.5253 10.4872C50.5823 10.4315 50.6535 10.4454 50.7105 10.4037C50.7817 10.3619 50.7532 10.1114 50.8244 10.0696C50.8956 10.0278 50.9811 10.0418 51.0523 10Z" fill="white"/>
<path d="M55.6813 26.2995C55.8664 26.5083 55.9234 26.7171 55.9946 26.9676C56.0516 27.0651 56.0231 27.1486 56.0516 27.3017C56.0801 27.413 56.1655 27.5244 56.194 27.6497C56.3222 27.7749 56.4076 27.942 56.4789 28.1229C56.5216 28.2204 56.4931 28.1786 56.4504 28.2064C56.3934 28.2482 56.3934 28.3595 56.3222 28.3874C56.0231 28.457 55.7667 28.6797 55.4676 28.7771C55.197 28.8746 54.9834 29.0833 54.7127 29.2225C54.4279 29.3617 54.0433 29.2643 53.7585 29.3896C53.3597 29.5566 53.0178 29.8628 52.619 30.0159C51.9211 30.2943 51.8357 30.0855 51.152 30.3778C51.1378 30.3778 51.1662 30.5727 51.152 30.5727C50.8956 30.5727 50.6677 30.6562 50.4399 30.7258C50.4399 30.7258 50.3259 30.6562 50.3117 30.6562C50.155 30.8093 50.0411 30.9625 49.8417 30.9903C49.685 31.0042 49.5853 31.0738 49.4571 31.1434C49.3574 31.1991 49.215 31.032 49.101 31.032C49.0868 31.032 49.0298 31.1156 49.0156 31.1156C48.7449 31.213 48.5028 31.38 48.2464 31.4775C48.1467 31.5192 47.9901 31.38 47.8761 31.394C47.7907 31.4079 47.7052 31.4496 47.6198 31.4775C47.5058 31.5192 47.3919 31.7141 47.2494 31.7141C47.1925 31.7141 47.1355 31.561 47.0928 31.5888C46.9076 31.6584 46.7367 31.7976 46.5373 31.8115C46.3806 31.8115 46.2097 31.7419 46.053 31.7976C45.8251 31.8672 45.5973 31.8254 45.3551 31.8115C45.17 31.8115 44.9848 32.0621 44.7997 32.0621C44.5575 32.0621 44.3011 32.1038 44.059 32.0621C43.8454 32.0342 43.6317 31.895 43.4466 31.9507C43.3041 31.9925 43.1475 32.0064 42.9766 31.9786C42.5778 31.909 42.5635 31.9786 42.179 31.909C42.1505 31.909 42.1362 31.8254 42.1077 31.8394C41.9368 31.8672 41.7232 31.9507 41.538 31.909C41.4383 31.8811 41.538 31.7141 41.4953 31.5331C41.4953 31.5053 41.2959 31.4635 41.2959 31.4357C41.3101 31.4357 41.4383 31.5192 41.4668 31.5053C42.3214 31.2408 42.3356 31.2965 43.1902 31.032C43.2899 31.0042 43.2187 30.7954 43.3041 30.7676C43.3611 30.7537 43.4323 30.698 43.4893 30.7119C43.6317 30.7119 43.7029 30.6284 43.8311 30.5727C44.0448 30.4753 44.3011 30.6145 44.5433 30.6006C44.643 30.6006 44.6715 30.3361 44.7569 30.2943C44.9421 30.183 45.1842 30.183 45.3836 30.1551C45.4263 30.1551 45.526 30.2247 45.5688 30.2108C45.7397 30.1273 45.8679 29.8211 46.0673 29.835C46.11 29.835 46.1527 29.9881 46.1812 29.9742C46.2667 29.8907 46.3236 29.7932 46.4233 29.7654C46.637 29.6819 46.6655 29.7654 46.8934 29.6819V29.7236C47.1497 29.7236 47.3206 29.3757 47.5628 29.32C47.7337 29.2782 47.7479 29.3757 47.9189 29.3339C47.9473 29.3339 48.0043 29.3617 48.0186 29.3339C48.1467 29.2225 48.2464 29.1112 48.4031 29.0694C48.4886 29.0416 48.5883 29.0973 48.6737 29.0694C48.7877 29.0277 48.7449 28.9442 48.8589 28.9024C49.2862 28.7493 49.2434 28.6518 49.6707 28.4987C49.7135 28.4848 49.8132 28.5683 49.8559 28.5683C49.9983 28.5683 50.212 28.6379 50.3117 28.5405C50.3544 28.5127 50.3544 28.5127 50.3971 28.4987C50.8244 28.3317 50.7674 28.1925 51.1947 28.0255C51.2802 27.9976 51.3941 28.0672 51.4796 28.0255C51.6078 27.9837 51.7217 27.928 51.8499 27.8584C52.092 27.7332 52.3199 27.4826 52.5905 27.4409C52.619 27.4409 52.6902 27.5383 52.7187 27.5244C52.8469 27.4548 52.9466 27.3991 53.1033 27.3991C53.1603 27.3991 53.3027 27.427 53.3454 27.3991C53.4594 27.3017 53.5163 27.1903 53.673 27.1903C53.7727 27.1903 53.9436 27.1764 54.0148 27.1068C54.0433 27.079 54.0148 26.9815 54.0433 26.9676C54.3567 26.8423 54.3851 26.9119 54.6842 26.7867C54.727 26.7727 54.7555 26.8006 54.7982 26.8006C54.9691 26.8006 55.14 26.6475 55.2682 26.55C55.3109 26.5222 55.3394 26.5083 55.3964 26.4944C55.4534 26.4804 55.4961 26.4108 55.5531 26.383C55.61 26.3691 55.6385 26.3691 55.6813 26.3412V26.2995Z" fill="white"/>
<path d="M41.2104 14.3428C41.4383 14.1758 41.6092 14.2315 41.8656 14.2036C41.9653 14.1619 42.0223 14.0784 42.1647 14.0644C42.2787 14.0644 42.4211 13.967 42.5493 13.9531C42.6917 13.8417 42.8769 13.8278 43.0763 13.7721C43.1902 13.7443 43.4038 13.6051 43.4323 13.6608C43.4608 13.7304 43.3469 13.8835 43.3469 13.967C43.3896 14.315 43.6032 14.6212 43.6887 14.9692C43.7742 15.2893 43.7457 15.6373 43.8596 15.9435C43.9878 16.2776 44.1017 16.5977 44.2157 16.9318C44.4293 17.6278 44.4436 17.6278 44.6572 18.3237C44.9136 19.1311 45.056 19.0754 45.3124 19.8827C45.3124 19.8966 45.1415 19.9801 45.1415 19.9941C45.1415 20.2864 45.1842 20.5647 45.2554 20.8431C45.2554 20.8431 45.4833 20.7875 45.4976 20.8014C45.6542 20.9962 45.5973 21.2746 45.6115 21.4973C45.6257 21.6644 45.7824 21.7896 45.8536 21.9428C45.9106 22.0541 45.8536 22.2072 45.8536 22.3325C45.8536 22.3603 45.7397 22.4299 45.7539 22.4438C45.8679 22.7501 46.0673 23.0145 46.1812 23.3068C46.2239 23.4182 46.11 23.5852 46.1385 23.6966C46.1527 23.794 46.2809 23.8636 46.3094 23.9471C46.3521 24.0863 46.5088 24.2255 46.5088 24.3786C46.5088 24.4343 46.5515 24.4343 46.5658 24.4761C46.6512 24.6849 46.5515 24.9632 46.5658 25.1859C46.58 25.3669 46.6227 25.5339 46.6797 25.701C46.7652 25.9515 46.8079 26.2299 46.8221 26.5083C46.8221 26.7171 46.8221 26.9259 46.8364 27.1346C46.8649 27.3991 46.8934 27.6497 46.8791 27.928C46.8791 28.1647 47.0215 28.3874 47.107 28.6101C47.164 28.7771 47.0643 28.972 47.0643 29.1529C47.0358 29.5984 47.0643 29.5984 47.05 30.0438C47.05 30.0716 47.1355 30.0855 47.1355 30.0995C47.1925 30.2943 46.9218 30.517 46.9076 30.7258C46.9076 30.8511 46.9931 30.7815 46.8221 30.8372C46.7937 30.8372 46.7652 31.032 46.7224 31.032C46.7082 31.0042 46.6227 30.9485 46.6227 30.9207C46.2382 29.9603 46.3949 29.9046 46.0245 28.9442C45.9818 28.8328 45.9106 28.8606 45.8679 28.7632C45.8394 28.7075 45.64 28.6518 45.64 28.5962C45.64 28.4291 45.5545 28.3595 45.4833 28.2204C45.3694 27.9837 45.3694 27.6636 45.3266 27.3991C45.3124 27.2878 45.4121 27.1068 45.3551 27.0094C45.2269 26.8006 44.9848 26.6614 44.9278 26.4248C44.9278 26.3691 44.8566 26.3552 44.8281 26.3134C44.7284 26.1185 44.8281 25.8819 44.8281 25.6453C44.8281 25.6035 44.6002 25.6731 44.5718 25.6453C44.4721 25.5478 44.4863 25.3391 44.4436 25.2277C44.3439 24.9772 44.4863 24.9215 44.3866 24.6709H44.3296C44.3154 24.3786 44.1302 24.142 44.059 23.8636C44.0163 23.6687 44.059 23.6548 44.0163 23.46C44.0163 23.4321 43.8596 23.4878 43.8311 23.46C43.7172 23.3068 43.8881 23.0285 43.8311 22.8614C43.8026 22.764 43.646 22.7083 43.6032 22.6248C43.5605 22.4995 43.7172 22.4438 43.6745 22.3186C43.5035 21.8175 43.4038 21.8592 43.2472 21.3581C43.2329 21.3025 43.0905 21.2746 43.0905 21.2189C43.0905 21.0658 43.2187 20.8292 43.119 20.7039C43.0905 20.6622 42.8199 20.7318 42.7914 20.6761C42.6347 20.175 42.8199 20.1054 42.6632 19.6043C42.6347 19.5069 42.4353 19.4512 42.4211 19.3398C42.3784 19.1867 42.6347 18.9501 42.5635 18.8109C42.4353 18.5186 42.2074 18.2681 42.1647 17.9479C42.1647 17.9062 42.0365 17.9062 42.0223 17.8644C41.9511 17.7113 42.0365 17.5303 42.0508 17.3494C42.0508 17.2937 41.8941 17.2659 41.8514 17.2102C41.7517 17.0571 41.6092 16.8622 41.6092 16.6813C41.6092 16.5699 41.6662 16.5003 41.6092 16.4029C41.5807 16.3611 41.6804 16.2637 41.6662 16.208C41.5665 15.8322 41.6377 15.8183 41.538 15.4424C41.5238 15.3868 41.3386 15.3728 41.3386 15.3172C41.3386 15.1362 41.4383 14.8996 41.3386 14.7326C41.3101 14.6769 41.2532 14.663 41.2389 14.6073C41.2389 14.5377 41.2104 14.4681 41.1962 14.3985C41.1962 14.3428 41.2247 14.3985 41.1962 14.3289L41.2104 14.3428Z" fill="white"/>
<path d="M49.9698 24.6849C49.9271 24.8101 49.9129 24.9354 49.8844 25.0607C49.8559 25.1581 49.8844 25.2695 49.8274 25.4087C49.7847 25.52 49.7562 25.6174 49.6992 25.7288C49.6992 25.8958 49.6565 26.0907 49.5995 26.2856C49.571 26.3969 49.4998 26.4108 49.4428 26.4108C49.3716 26.4108 49.3004 26.4248 49.2577 26.3969C49.0298 26.2577 48.7734 26.1742 48.6025 25.9933C48.4458 25.8262 48.3461 25.6174 48.218 25.4365C48.0898 25.2277 48.0613 24.9911 48.0186 24.7544C47.9616 24.3786 48.0613 24.0585 48.1895 23.7523C48.3461 23.4043 48.5455 22.9589 49.2007 22.7083C49.2292 22.7083 49.2434 22.7083 49.2719 22.6944C49.6138 22.6805 49.9983 22.597 50.3117 22.7362C50.3259 22.7362 50.3117 22.7779 50.3402 22.7779C50.6108 22.8057 50.7532 23.0424 50.8387 23.1955C50.9099 23.3208 50.9811 23.4321 51.0523 23.5156C51.1093 23.5852 51.1805 23.627 51.1662 23.7244C51.1662 23.7383 51.1662 23.7662 51.1662 23.7801C51.2517 23.975 51.2802 24.1698 51.3087 24.3647C51.3087 24.4343 51.2232 24.5178 51.2232 24.5874C51.2232 24.6431 51.209 24.7127 51.1947 24.7684C51.1947 24.8519 51.1947 24.9493 51.1093 25.005C51.0808 25.0328 51.1093 25.0746 51.095 25.1024C51.0665 25.2277 50.9811 25.3391 50.8814 25.4226C50.7959 25.4783 50.6962 25.5061 50.6393 25.5757C50.568 25.687 50.4541 25.7984 50.3117 25.8262C50.1977 25.8402 50.1123 25.868 50.0126 25.8819C49.8844 25.8819 49.7847 25.8541 49.6565 25.7984C49.5853 25.7706 49.4998 25.7427 49.4428 25.7427C49.4286 25.7427 49.4001 25.8123 49.3859 25.7984V25.7427C49.3859 25.7149 49.4571 25.701 49.4571 25.6731C49.4571 25.6174 49.5141 25.5757 49.571 25.5061C49.7419 25.3669 49.7562 25.3808 49.9414 25.2416C49.9414 25.2416 49.9698 25.1999 49.9698 25.1859C49.9698 25.1163 50.0268 25.0468 50.1265 24.9772C50.1835 24.9354 50.2405 24.9076 50.4256 24.9076C50.4541 24.9076 50.4826 24.9076 50.5253 24.9076C50.5253 24.9076 50.5396 24.9354 50.5396 24.9493C50.568 25.2695 50.5396 25.2834 50.568 25.6035C50.568 25.6314 50.625 25.6592 50.6108 25.6453C49.8132 25.1859 49.8274 25.1581 49.0298 24.6709C49.0298 24.6709 49.0583 24.6988 49.0583 24.6849C49.0583 24.6709 49.0298 24.657 49.044 24.6709C49.0868 24.7127 49.0725 24.6709 49.0725 24.6709C49.0725 24.6431 49.0725 24.6431 49.1295 24.6709C49.158 24.6709 49.1722 24.6431 49.158 24.6153C49.1295 24.5735 49.1153 24.5874 49.158 24.6153L49.2007 24.5735C49.1722 24.5457 49.1153 24.5735 49.2007 24.5874C49.215 24.5874 49.2007 24.6153 49.2007 24.6013C49.158 24.5735 49.158 24.5874 49.1865 24.5874V24.5596H49.2007H49.158C49.2862 24.5874 49.3004 24.5596 49.4286 24.5874V24.6153C49.4286 24.6153 49.4286 24.5874 49.4286 24.5735C49.4144 24.5735 49.4144 24.5735 49.3859 24.5735V24.5457C49.3147 24.5457 49.2434 24.5457 49.215 24.5457C49.215 24.5457 49.215 24.6013 49.2292 24.6013V24.5596C49.2434 24.5596 49.3004 24.5874 49.3574 24.5596C49.4001 24.5317 49.3574 24.49 49.4144 24.4621C49.4571 24.4343 49.4713 24.4621 49.5141 24.4204C49.628 24.3369 49.7277 24.2116 49.742 24.1559C49.742 24.1559 49.742 24.1559 49.742 24.142C49.742 24.142 49.7704 24.1281 49.7704 24.142C49.7704 24.142 49.7277 24.1698 49.742 24.1698C49.7562 24.2255 49.8559 24.3647 49.9556 24.4343C49.9841 24.4482 50.0411 24.4343 50.0553 24.4343C50.098 24.4482 50.0553 24.5039 50.098 24.5317C50.1265 24.5317 50.1123 24.5317 50.0553 24.5317C50.0553 24.5317 50.0553 24.4621 50.0268 24.4621C49.9983 24.4621 50.0126 24.5178 49.9841 24.5178V24.4761C50.0695 24.4761 50.0695 24.4761 50.1408 24.4761V24.4621C50.1408 24.4621 50.1692 24.5178 50.1835 24.5178L50.155 24.4761V24.5178C50.155 24.5178 50.1265 24.5039 50.1265 24.5178C50.1265 24.5317 50.1265 24.5735 50.1123 24.6013C50.1123 24.6013 50.0838 24.6013 50.0695 24.6292C50.0695 24.6292 50.0695 24.6709 50.0695 24.6849C50.0411 24.6849 50.0268 24.6849 50.0268 24.6988L49.9698 24.6849Z" fill="white"/>
<path d="M9.81899 32.3126C10.1181 32.3683 10.2463 32.7441 10.403 32.939C10.5027 32.9807 10.7163 32.939 10.8018 33.0503C10.873 33.1478 10.9299 33.1478 11.0012 33.2591C11.2006 33.2731 11.3287 33.5097 11.4712 33.635C11.5566 33.7046 11.4427 33.7881 11.3857 33.8716C11.3145 33.969 11.229 34.0247 11.1436 34.1082C10.7733 34.4701 10.5454 34.9573 10.2036 35.347C9.93294 35.6533 9.90445 35.6254 9.63383 35.9316C9.32049 36.2796 9.22079 36.906 8.87896 37.1426C8.67956 37.2818 8.45167 37.421 8.23803 37.4628C7.62558 37.588 6.97041 37.1287 6.54312 36.6554C6.11583 36.21 5.91643 35.4862 5.80249 34.8181C5.73127 34.3588 5.74551 33.9273 5.75976 33.5097C5.81673 32.5632 6.03037 31.6584 6.25826 30.865C6.25826 30.8372 6.2725 30.8093 6.28675 30.7954C6.48615 30.4196 6.4719 29.9742 6.61433 29.5844C6.61433 29.5705 6.52887 29.5427 6.52887 29.5288C6.54312 29.1808 6.91343 28.9302 7.05586 28.624C7.15556 28.4013 7.35497 28.1647 7.42618 27.9141C7.46891 27.7332 7.18405 27.4409 7.26951 27.2738C7.28375 27.246 7.58285 27.3434 7.58285 27.3156C7.72528 26.8563 7.72528 26.3691 7.88195 25.9098C7.93893 25.7427 8.295 25.6731 8.36621 25.5061C8.45167 25.3112 8.26651 25.2416 8.36621 25.0468C8.43743 24.8519 8.67956 24.7544 8.80774 24.5735C8.85047 24.5039 8.66532 24.309 8.6938 24.2255C8.7935 23.9193 8.95017 23.6131 9.12109 23.3347C9.26352 23.112 9.292 22.8614 9.3917 22.6109C9.53413 22.2351 9.73354 21.8592 9.94718 21.5252C10.1181 21.2746 10.289 21.0241 10.4457 20.7735C10.6451 20.4534 10.9727 20.1889 11.2148 19.8966C11.4427 19.6321 11.7988 19.4234 11.9412 19.1032C12.0409 18.8666 12.0836 18.63 12.2403 18.4351C12.6533 17.9618 12.6533 17.9618 13.0664 17.5025C13.0949 17.4747 13.1234 17.4329 13.1518 17.4051C13.2943 17.1545 13.4225 16.8761 13.6361 16.6673C13.75 16.556 13.921 16.4864 14.0634 16.5977C14.0919 16.6117 14.1204 16.723 14.1346 16.7509C14.1346 16.7926 13.921 16.7787 13.9067 16.8205C13.4794 17.7113 13.0806 18.616 12.6818 19.5069C12.6106 19.66 12.6676 19.6739 12.5964 19.827C12.5679 19.9105 12.753 20.1332 12.7103 20.2028C12.5679 20.3838 12.397 20.5091 12.3258 20.7318C12.1976 21.0937 12.0551 21.4417 11.8557 21.7618C11.7703 21.901 11.7988 22.0819 11.756 22.249C11.6706 22.583 11.5851 22.931 11.4284 23.2372C11.3857 23.3068 11.1151 23.279 11.1009 23.3625C11.0154 23.6548 10.8872 23.8775 10.7021 24.1281C10.6736 24.1698 10.6736 24.3369 10.6736 24.3925C10.6736 24.5735 10.8445 24.7962 10.7875 24.9632C10.6593 25.3251 10.6878 25.3391 10.5596 25.701C10.5596 25.7149 10.232 25.5757 10.232 25.5896C10.0184 25.9376 10.1608 26.4526 9.98991 26.8284C9.87596 27.0929 9.81899 27.0651 9.70505 27.3295C9.69081 27.3713 9.80475 27.427 9.80475 27.4687C9.77626 27.7332 9.49141 27.928 9.40595 28.1647C9.36322 28.2899 9.40595 28.457 9.37746 28.5962C9.32049 28.7771 9.292 28.7771 9.23503 28.9581C9.00715 29.668 9.07836 29.6958 8.85047 30.4057C8.82199 30.4753 8.63683 30.4753 8.5941 30.5449C8.48016 30.7397 8.60834 31.0181 8.5941 31.2408C8.5941 31.3244 8.55137 31.4079 8.52289 31.4914C8.36621 31.9925 8.0956 32.3822 8.01014 32.8276C7.98166 32.9529 8.01014 33.0921 7.9959 33.2313C7.96741 33.4122 7.85347 33.6071 7.86771 33.7881C7.86771 34.15 8.06711 34.6093 7.9959 34.5119L7.96741 34.3031C7.9959 34.3031 8.13833 34.4701 8.10984 34.5536C8.10984 34.5815 7.93893 34.5119 7.93893 34.498C7.95317 34.4562 7.91044 34.498 7.91044 34.5119C7.91044 34.5258 7.91044 34.5397 7.92468 34.5536C7.92468 34.5954 8.18106 34.5119 8.16681 34.4701C8.16681 34.4701 8.16681 34.4701 8.16681 34.4423V34.5536C8.23803 34.4562 8.02438 34.2892 8.0956 34.1917C8.28076 33.9829 8.33773 34.0247 8.52289 33.8159C8.57986 33.7602 8.76502 33.8298 8.82199 33.7741C9.03563 33.6071 8.9929 33.2452 9.13533 33.0086C9.17806 32.9251 9.27776 32.8555 9.34898 32.7859C9.46292 32.6884 9.50565 32.7302 9.61959 32.6328C9.67656 32.5632 9.74778 32.3683 9.80475 32.2987L9.81899 32.3126Z" fill="white"/>
<path d="M0.518355 35.1382C0.575326 34.8877 0.632298 34.665 0.731999 34.4284C0.760484 34.3309 0.78897 34.2335 0.845942 34.0943C0.888671 33.9969 0.917157 33.8855 0.974129 33.7741C1.00261 33.6071 1.05959 33.4262 1.1308 33.2313C1.17353 33.1339 1.24474 33.0225 1.27323 33.0225C1.30172 33.0225 1.31596 33.0921 1.34444 33.1199C1.44415 33.2035 1.58657 33.2035 1.70052 33.2591C1.81446 33.3148 1.92841 33.3427 2.05659 33.3705C2.18478 33.3844 2.28448 33.4818 2.41267 33.5236C2.58358 33.5654 2.7545 33.6071 2.92541 33.6628C3.12481 33.7324 3.32421 33.7463 3.52361 33.802C3.52361 33.802 3.5521 33.8298 3.5521 33.8437C3.62332 33.9551 3.73726 33.9133 3.82272 33.9551V33.969C3.93666 33.9133 3.99363 34.0247 4.06485 34.0943C4.10758 34.15 4.16455 34.1917 4.22152 34.1917C4.26425 34.1917 4.34971 34.15 4.37819 34.1917C4.49213 34.2196 4.54911 34.4005 4.66305 34.4284C4.70578 34.4284 4.70578 34.5119 4.74851 34.5397C4.77699 34.5675 4.86245 34.484 4.89094 34.498C4.93367 34.5119 5.01912 34.5536 5.06185 34.6232C5.14731 34.6371 5.16155 34.7903 5.21852 34.8738C5.26125 34.9434 5.33247 34.9851 5.38944 34.999C5.4749 35.0269 5.58884 35.0826 5.64581 35.1939C5.68854 35.2774 5.74551 35.3192 5.80249 35.4027C5.8737 35.5001 5.90219 35.5976 5.95916 35.7228C6.00189 35.8481 6.05886 35.9456 6.14432 35.9734C6.20129 36.0012 6.25826 36.0569 6.30099 36.1404C6.35796 36.2796 6.44342 36.4188 6.48615 36.5719C6.48615 36.5858 6.45766 36.5998 6.45766 36.6137C6.51463 36.6554 6.61433 36.7529 6.64282 36.8642C6.65706 36.9338 6.60009 37.0034 6.52887 37.1705C6.52887 37.1983 6.52887 37.2401 6.51463 37.2818C6.51463 37.2818 6.4719 37.2122 6.45766 37.2122C6.22977 37.1287 5.95916 37.1426 5.71703 37.0591C5.68854 37.0591 5.68854 36.9756 5.66006 36.9617C5.63157 36.9617 5.56035 37.0173 5.54611 36.9895C5.51763 36.9199 5.48914 36.9477 5.41793 36.9338C5.31823 36.9338 5.20428 36.8921 5.13307 36.7946C5.10458 36.7529 5.09034 36.7668 5.04761 36.7807C4.94791 36.7946 4.89094 36.7111 4.81972 36.6554C4.80548 36.6415 4.76275 36.6137 4.74851 36.6137C4.66305 36.6137 4.56335 36.6694 4.52062 36.558C4.52062 36.5441 4.53486 36.558 4.52062 36.5719C4.46365 36.6137 4.40668 36.5163 4.36395 36.5023C4.30698 36.4884 4.23576 36.4745 4.17879 36.4606L4.13606 36.4884C4.06485 36.3771 3.9509 36.4467 3.86545 36.391C3.82272 36.3631 3.80847 36.3075 3.76574 36.2796C3.76574 36.2796 3.7515 36.2518 3.73726 36.2657C3.6518 36.2935 3.59483 36.2935 3.53786 36.2657C3.50937 36.2518 3.49513 36.1822 3.4524 36.1822C3.42391 36.1822 3.39543 36.1543 3.36694 36.1404C3.253 36.0987 3.09633 36.1404 2.98238 36.0987C2.96814 36.0987 2.93965 36.0569 2.92541 36.0291C2.88268 35.9734 2.86844 35.9595 2.79722 35.9873C2.76874 35.9873 2.76874 35.9177 2.74025 35.9038C2.62631 35.862 2.48388 35.876 2.35569 35.8203C2.32721 35.8203 2.31296 35.7507 2.27024 35.7368C2.22751 35.7089 2.17054 35.6533 2.11356 35.6533C1.99962 35.6533 1.85719 35.695 1.75749 35.6115C1.75749 35.6115 1.75749 35.5697 1.729 35.5697C1.65779 35.5697 1.60082 35.5697 1.57233 35.5141C1.57233 35.4862 1.54385 35.5419 1.51536 35.5419C1.44415 35.5697 1.41566 35.4723 1.37293 35.4166C1.34445 35.3749 1.28747 35.4305 1.2305 35.4584C1.21626 35.4584 1.15929 35.4584 1.14504 35.4584C1.05959 35.4305 1.00261 35.3053 0.917157 35.2774C0.902914 35.2774 0.845942 35.3053 0.831699 35.2774C0.78897 35.2078 0.746242 35.1939 0.660784 35.2218C0.632298 35.2218 0.603812 35.2218 0.589569 35.1939C0.561083 35.1939 0.518355 35.1939 0.504112 35.1661C0.489869 35.1661 0.518355 35.1243 0.504112 35.1243L0.518355 35.1382Z" fill="white"/>
<path d="M44.0305 31.046C44.0163 31.3244 43.9878 31.5888 43.8311 31.7837C43.8026 31.8811 43.7457 31.9786 43.646 32.0899C43.5605 32.1734 43.3469 32.1874 43.2614 32.2709C43.2614 32.4657 43.1902 32.6328 43.1047 32.7998C43.0478 32.8972 43.0763 32.8694 42.9908 32.8416C42.8911 32.7998 42.6632 32.9529 42.5778 32.8972C42.179 32.6328 41.7232 32.4379 41.3244 32.1734C40.7689 31.7837 40.7689 31.7837 40.2134 31.394C39.8146 31.1156 39.544 30.698 39.1879 30.3918C38.6894 29.9603 38.2621 29.4731 37.8206 29.0138C37.0657 28.2343 37.0942 28.2064 36.3251 27.427C36.3109 27.413 36.1257 27.4966 36.1115 27.4826C35.9263 27.1764 35.6557 26.9676 35.4278 26.7031C35.4278 26.7031 35.5845 26.4526 35.5702 26.4526C35.3139 26.2995 35.0148 26.2438 34.8581 26.0211C34.7299 25.8402 34.6302 25.687 34.4593 25.5478C34.3453 25.4504 34.2172 25.3251 34.1602 25.2416C34.1602 25.2277 34.0747 25.2834 34.0605 25.2695C33.8326 25.0746 33.6047 24.9076 33.3056 24.7684C33.1917 24.7266 33.1347 24.5317 33.0207 24.4761C32.8783 24.4204 32.8783 24.4343 32.7359 24.3786C32.5935 24.323 32.3941 24.3369 32.2516 24.2673C32.1947 24.2394 32.1947 24.1142 32.1377 24.1002C31.8956 24.0585 31.6392 24.0028 31.397 23.9054C31.1976 23.8497 30.984 23.9193 30.7704 23.9054C30.4428 23.9054 30.1437 23.6131 29.8018 23.5574C29.5455 23.5156 29.2464 23.7662 28.99 23.7383C28.6624 23.6966 28.3633 23.4321 28.0357 23.3625C27.7366 23.3068 27.3948 23.2512 27.0957 23.2929C26.8678 23.3208 26.6542 23.4739 26.4405 23.4321C25.8993 23.3208 25.942 23.0981 25.4008 22.9867C25.3723 22.9867 25.2868 23.0841 25.2583 23.0841C25.002 23.0981 24.8168 22.931 24.5747 22.8614C24.4323 22.8197 24.2044 22.9171 24.2186 22.7362C24.2186 22.7083 24.5177 22.8057 24.532 22.764C24.5604 22.764 24.4892 22.8057 24.5177 22.8057C25.3296 22.7362 26.1841 22.5274 27.0672 22.416C27.2096 22.4021 27.1954 22.249 27.3378 22.2211C27.4233 22.2211 27.4802 22.3464 27.5657 22.3603C27.7793 22.3882 27.993 22.1933 28.1924 22.1515C28.5342 22.0819 28.876 22.1515 29.2321 22.1515C29.3888 22.1655 29.5882 22.1933 29.7449 22.1515C30.0582 22.0819 30.3573 21.9567 30.6707 21.9845C30.7419 21.9845 30.8131 21.8175 30.8843 21.8036C31.1834 21.7896 31.4398 22.068 31.7389 22.1794C31.7959 22.1933 31.9383 22.1794 31.9953 22.1655C32.1804 22.1376 32.2944 22.249 32.4795 22.2768C32.7501 22.3325 33.092 22.0402 33.3626 22.1237C33.3768 22.1237 33.3198 22.2768 33.3341 22.2907C33.7186 22.4717 34.2314 22.4578 34.616 22.6666C34.8866 22.8336 34.7869 22.9728 35.0432 23.1398C35.086 23.1676 35.1287 23.1676 35.1714 23.1955C35.4278 23.3208 35.5987 23.5574 35.8124 23.7383C35.8978 23.8358 36.026 23.8915 36.1115 23.975C36.2396 24.1002 36.1827 24.1559 36.2966 24.2812C36.7666 24.7544 36.8948 24.6431 37.3648 25.1163C37.4076 25.172 37.2794 25.3391 37.3079 25.4087C37.4076 25.5757 37.6782 25.6592 37.8491 25.7566C37.9061 25.7984 37.8918 25.8958 37.9488 25.9515C38.4046 26.4387 38.5755 26.2856 39.0313 26.7727C39.1167 26.8702 39.0028 27.1346 39.0882 27.2321C39.2164 27.3713 39.3731 27.4965 39.5155 27.6218C39.8146 27.8863 40.128 28.0951 40.3701 28.3874C40.3986 28.4291 40.3843 28.5405 40.4271 28.5683C40.5837 28.6797 40.9541 28.6101 41.068 28.7771C41.1107 28.8328 41.068 28.9302 41.1392 28.9581C41.3244 29.0555 41.4668 29.2225 41.595 29.3896C41.6804 29.5009 41.7517 29.654 41.8799 29.7097C41.9368 29.7236 42.065 29.6123 42.1077 29.6401C42.3499 29.8211 42.649 29.9185 42.9053 30.0855C42.9623 30.1273 42.7914 30.4196 42.8341 30.4614C42.9908 30.6145 43.2757 30.698 43.4751 30.7676C43.5463 30.7954 43.7457 30.5727 43.8026 30.6006C43.8739 30.6423 43.9308 30.7119 44.002 30.7537C44.059 30.7954 44.0305 30.9485 44.1017 30.9764L44.0305 31.046Z" fill="white"/>
<path d="M41.2247 35.3331C41.538 35.2357 41.5808 35.3053 41.8086 35.4584C41.9226 35.4584 41.9226 35.5001 42.0365 35.5976C42.1362 35.6811 42.3784 35.347 42.4781 35.4305C42.6775 35.3331 42.8911 35.5558 43.0905 35.6254C43.2044 35.6533 42.9766 35.7507 42.9481 35.8899C42.9053 36.043 43.3326 36.3492 43.2757 36.4884C43.0193 37.1287 42.5493 37.6994 42.2644 38.3536C41.9938 38.98 41.5665 39.5228 41.2247 40.1353C40.8686 40.7895 40.6265 41.569 40.0283 42.1396C39.2307 42.947 37.9773 43.629 36.8378 43.7543C35.5275 43.9352 34.3738 43.5177 33.505 43.6847C33.4765 43.6847 33.448 43.5594 33.4195 43.5594C33.1774 43.5594 33.035 43.7821 32.7501 43.8796C32.4795 43.977 32.1947 43.9631 31.9098 44.0466C31.8813 44.0466 31.8813 44.1858 31.8528 44.1997C31.4113 44.4085 30.9128 44.2275 30.4 44.2554C30.0012 44.2832 29.6167 44.3806 29.2179 44.4085C28.933 44.4085 28.6909 44.4642 28.406 44.3807C28.3633 44.3807 28.2921 44.3946 28.2494 44.3807C27.4802 44.2693 26.8963 44.1023 26.2696 43.9213C26.0275 43.8517 25.7426 43.8935 25.5147 43.796C25.2441 43.6986 25.2583 43.6568 24.9877 43.5594C24.7171 43.462 24.3895 43.3645 24.1331 43.2114C24.0334 43.1558 24.1189 42.7521 24.005 42.7103C23.5777 42.5433 23.1646 42.4319 22.7943 42.1675C22.3385 41.8473 22.1391 42.1118 21.6834 41.7777C21.1991 41.4298 21.1136 40.7477 20.7861 40.3162C20.5439 39.9822 20.2591 39.6898 20.0312 39.3558C19.7463 38.9382 19.376 38.5763 19.1624 38.117C18.9772 37.7133 18.5499 37.4628 18.2793 37.0869C18.0799 36.8086 18.1938 36.3631 18.0657 36.0569C17.7381 35.3192 17.7666 35.3053 17.439 34.5675C17.4247 34.5258 17.4675 34.4005 17.439 34.3588C17.2111 34.0386 16.8977 33.7881 16.7411 33.4401C16.6556 33.2452 16.6271 33.106 16.7838 33.0225C16.8123 33.0225 16.8692 33.1199 16.912 33.1199C16.9547 33.1617 17.0686 33.1199 17.0971 33.1478C17.966 34.2196 18.7493 35.2774 19.5327 36.3075C19.6609 36.4745 19.7036 36.4467 19.8318 36.6276C19.903 36.725 19.6609 37.0034 19.7036 37.1009C19.846 37.3653 20.2733 37.4628 20.4727 37.6855C20.8003 38.0474 21.1849 38.3536 21.4697 38.7433C21.5837 38.9104 21.8258 38.9243 21.9967 39.0496C22.3243 39.3001 22.6519 39.5924 22.9225 39.843C22.9795 39.8986 22.8798 40.1353 22.9652 40.177C23.2786 40.3441 23.6346 40.4415 23.948 40.6781C24.005 40.7199 24.0334 40.8591 24.0904 40.873C24.3041 40.9147 24.4465 41.1375 24.6601 41.2349C24.9592 41.3602 25.2868 41.4576 25.6002 41.569C25.6144 41.569 25.6429 41.4715 25.6571 41.4854C26.1272 41.736 26.6542 41.8613 27.1527 42.0422C27.5087 42.1675 27.5087 42.1814 27.8648 42.2928C27.9218 42.3067 28.0215 42.0422 28.0642 42.0422C28.3633 42.07 28.6624 42.084 28.9473 42.1257C29.1039 42.1536 29.2179 42.1257 29.3603 42.1257C29.5739 42.1257 29.5882 42.3345 29.7876 42.3206C30.3288 42.2788 30.8273 41.903 31.4398 41.7081C31.5395 41.6803 31.7531 42.1118 31.8528 42.0979C31.9952 42.07 32.0665 41.7081 32.2089 41.6525C32.3798 41.5968 32.6077 41.6803 32.7786 41.6107C32.9068 41.569 33.0492 41.6664 33.1774 41.6525C34.0035 41.5272 34.7156 41.1931 35.3851 41.1931C35.5702 41.1931 35.7696 41.6385 35.9548 41.6385C36.2254 41.6385 36.4675 41.4298 36.6954 41.3741C37.1654 41.2627 37.4503 40.873 37.8776 40.6503C37.9346 40.6224 38.0343 40.706 38.077 40.6642C38.2621 40.4972 38.5755 40.5111 38.8034 40.358C38.8746 40.3023 38.6467 39.9543 38.6894 39.8708C38.8176 39.6202 39.1452 39.4811 39.3446 39.2584C39.4585 39.1052 39.3446 38.8964 39.4158 38.7155C39.4443 38.632 39.5013 38.5206 39.544 38.451C39.7434 38.0613 40.128 37.7411 40.2989 37.3097C40.3416 37.2122 40.3131 37.0869 40.3701 37.0034C40.541 36.7111 40.7831 36.4606 40.8544 36.1265C40.8828 36.0152 40.9541 35.9456 40.9825 35.8342C41.0538 35.6533 40.8828 35.5837 40.9541 35.4027C40.9968 35.2914 41.1819 35.3749 41.2104 35.2496L41.2247 35.3331Z" fill="white"/>
<path d="M29.7021 42.8217C29.9015 43.0305 29.9158 43.2114 29.9443 43.4759C30.0012 43.5733 30.1579 43.629 30.1722 43.7821C30.1722 43.8935 30.1722 44.0048 30.1722 44.1301C30.3146 44.2554 30.2149 44.492 30.2719 44.6869C30.3003 44.7982 30.4 44.8121 30.3146 44.8539C30.2149 44.8957 30.1294 44.9931 30.0297 45.007C29.5739 45.0905 29.1609 45.2993 28.7051 45.4107C28.2778 45.5081 27.8221 45.4803 27.3805 45.5916C26.9248 45.703 26.469 45.9118 25.9847 45.9814C25.3153 46.0649 24.6174 45.8422 23.9195 45.8143C23.1219 45.7865 22.3385 45.7169 21.5552 45.522C21.5267 45.522 21.4982 45.5499 21.4697 45.522C21.1136 45.3411 20.6436 45.4385 20.2733 45.2854C20.2591 45.2854 20.3018 45.0627 20.2733 45.0627C19.9315 45.0209 19.7321 44.8261 19.4757 44.6451C19.2763 44.5059 19.0199 44.4363 18.792 44.3389C18.6354 44.2554 18.3505 44.3389 18.2366 44.1997C18.2081 44.1719 18.2366 44.144 18.2081 44.1301C17.8235 43.8656 17.5956 43.4202 17.2538 43.114C17.1256 42.9887 16.9262 42.933 16.8123 42.7799C16.6841 42.6129 16.855 42.4876 16.7268 42.3206C16.5986 42.1536 16.442 42.0422 16.3707 41.8473C16.3423 41.7777 16.2853 41.6803 16.2426 41.6246C16.0574 41.3602 16.0147 41.0679 15.9435 40.7756C15.8865 40.525 15.6871 40.3162 15.6159 40.0796C15.5019 39.7177 15.5447 39.3419 15.5874 38.966C15.6301 38.6877 15.5304 38.3814 15.5874 38.117C15.6728 37.7829 15.7868 37.421 15.9719 37.1287C16.1429 36.8782 16.3992 36.6694 16.5274 36.4049C16.5986 36.1961 16.7126 36.0152 16.855 35.876C17.1256 35.6393 17.4105 35.4305 17.6953 35.2635C17.7238 35.2496 17.7808 35.2635 17.795 35.2357C17.9517 35.0686 18.1938 35.0686 18.4217 34.9851C18.5499 34.9434 18.4787 34.9016 18.5926 35.0408C18.6069 35.0686 18.6211 35.0408 18.6496 35.0826C18.6354 35.1104 18.792 35.2357 18.7778 35.2496C18.2651 35.7507 17.8093 36.2379 17.5529 36.8782C17.5244 36.9477 17.4675 37.0034 17.4532 37.0869C17.439 37.1426 17.3393 37.1426 17.2965 37.1983C17.1826 37.3375 17.2965 37.5602 17.268 37.7133C17.268 37.9778 17.325 38.2422 17.268 38.5067C17.2538 38.6181 17.1114 38.7433 17.1399 38.8547C17.2111 39.0774 17.4247 39.2723 17.439 39.495C17.439 39.5507 17.2823 39.6481 17.3108 39.6898C17.3962 39.8847 17.6526 40.0239 17.6669 40.2466C17.6669 40.2884 17.5529 40.4137 17.5814 40.4415C17.6811 40.525 17.909 40.4832 17.9802 40.5946C18.0657 40.7477 18.1654 40.9008 18.2793 41.04C18.2793 41.04 18.2793 41.0679 18.2935 41.0818C18.4217 41.3602 18.5784 41.569 18.7778 41.7917C18.9202 41.9448 19.0484 41.8195 19.2051 41.9726C19.2193 42.0004 19.1624 42.1118 19.1908 42.1257C19.3902 42.1953 19.5184 42.3206 19.6894 42.4319C19.7748 42.4876 19.903 42.4876 20.0027 42.5294C20.1309 42.599 20.0454 42.766 20.1736 42.8356C20.5012 43.0166 20.9 43.114 21.2561 43.2671C21.313 43.281 21.3985 43.2393 21.4555 43.2671C21.5979 43.3645 21.7688 43.3506 21.9397 43.3367C21.9967 43.3367 22.0537 43.4759 22.1107 43.4898C22.4952 43.5872 22.894 43.6012 23.2928 43.6708C23.4068 43.6708 23.5207 43.7404 23.6346 43.7682C23.8056 43.796 23.9765 43.81 24.1474 43.796C24.5035 43.7821 24.8595 43.7125 25.2299 43.7543C25.2726 43.7543 25.3011 43.629 25.3438 43.629C25.529 43.5872 25.7426 43.6847 25.942 43.7125C26.0132 43.7125 26.0417 43.5455 26.0987 43.5177C26.2981 43.4341 26.5402 43.629 26.7538 43.6429C26.882 43.6429 26.996 43.5037 27.1242 43.4341C27.1811 43.4063 27.2239 43.3367 27.2808 43.3228C27.7366 43.2114 27.7509 43.281 28.2066 43.1836C28.2778 43.1697 28.3491 43.0583 28.406 43.0583C28.6339 43.0583 28.8333 43.1001 29.0327 43.0026C29.1039 42.9748 29.1609 42.8774 29.2464 42.8634C29.3318 42.8495 29.403 42.8078 29.4885 42.7799C29.5597 42.766 29.6024 42.933 29.6879 42.9052L29.7021 42.8217Z" fill="white"/>
<path d="M31.6392 42.07C31.6392 42.3345 31.5537 42.5433 31.4825 42.7938C31.4825 42.9052 31.4825 43.0026 31.4398 43.1418C31.4113 43.2532 31.4398 43.3645 31.397 43.4898C31.397 43.6568 31.2973 43.8378 31.2689 44.0327C31.2546 44.144 31.2689 44.2554 31.2261 44.2554C31.1834 44.2554 31.1122 44.2832 31.0695 44.2554C30.8985 44.1719 30.7134 44.1719 30.5425 44.1023C30.3716 44.0466 30.2149 43.9909 30.044 43.9631C29.8588 43.9352 29.7164 43.7682 29.5455 43.7125C29.3033 43.6429 29.0754 43.5177 28.8476 43.4063C28.5769 43.2949 28.2921 43.2114 28.0357 43.0722V43.0444C27.9503 42.9052 27.7509 42.9191 27.6369 42.8356V42.7938C27.4945 42.7938 27.4375 42.6825 27.3663 42.5851C27.3093 42.5155 27.2666 42.418 27.1811 42.3902C27.1242 42.3624 26.9817 42.4041 26.9675 42.3345L27.0102 42.2788C26.8678 42.1814 26.8108 42.0004 26.6826 41.903C26.6399 41.8613 26.5829 41.8334 26.5402 41.7777C26.5117 41.736 26.4547 41.7221 26.4263 41.6942C26.3693 41.6385 26.2838 41.5829 26.2696 41.4994C26.2696 41.4715 26.2696 41.4715 26.2553 41.4576C26.1699 41.388 26.1414 41.2488 26.1129 41.1235C26.0844 41.0261 26.0844 40.9287 26.0275 40.8591C25.9278 40.7616 25.8138 40.6642 25.7996 40.5111C25.7853 40.3997 25.8281 40.2884 25.7996 40.1909C25.7711 40.0518 25.6999 39.9404 25.7141 39.7873C25.7284 39.6481 25.7568 39.495 25.6999 39.4115C25.6571 39.3419 25.6287 39.2862 25.6429 39.1748C25.6714 39.0078 25.6856 38.8408 25.7284 38.6737C25.7284 38.6598 25.7284 38.6459 25.7141 38.632C25.6856 38.5485 25.6856 38.4093 25.7141 38.2979C25.7426 38.2283 25.8565 38.2562 26.0132 38.1726C26.0417 38.1726 26.0559 38.1448 26.0844 38.1309C26.0844 38.1309 26.1272 38.0891 26.1414 38.0891C26.2838 38.3258 26.4263 38.5624 26.5829 38.7851C26.6114 38.8269 26.5687 38.8547 26.5829 38.8964C26.5972 38.9104 26.6541 38.8964 26.6541 38.9243C26.6541 39.0078 26.7111 39.0635 26.7681 39.1052C26.8535 39.1748 26.9817 39.2166 27.0102 39.3279C27.0102 39.3836 27.0102 39.4393 27.0672 39.4532C27.1669 39.495 27.2951 39.5228 27.3378 39.6063C27.3378 39.6342 27.2808 39.7177 27.3093 39.7316C27.3948 39.7734 27.5515 39.7594 27.5515 39.8847C27.5515 39.9126 27.523 39.9682 27.5515 39.9682C27.6227 39.9682 27.6084 40.01 27.6512 40.0378C27.7366 40.1074 27.8078 40.0239 27.8933 40.0935C27.8933 40.0935 27.8078 40.1492 27.8078 40.1631C27.8363 40.3023 28.0784 40.2605 28.1497 40.3441C28.1924 40.4137 28.1497 40.4415 28.1924 40.5111C28.1924 40.5111 28.2351 40.5389 28.2494 40.5389C28.3491 40.5389 28.3918 40.5668 28.4345 40.6224C28.463 40.6503 28.5057 40.6503 28.5342 40.6781C28.5769 40.706 28.5627 40.7477 28.6054 40.7756C28.7763 40.8869 28.8191 40.8312 28.99 40.9565C29.0042 40.9565 29.0327 40.9983 29.047 41.0261C29.0754 41.0957 29.1039 41.1792 29.1894 41.1653C29.2179 41.1653 29.2321 41.1235 29.2606 41.1235C29.4458 41.221 29.4315 41.2488 29.6167 41.3602C29.6594 41.3741 29.6594 41.4437 29.7021 41.4715C29.7591 41.4994 29.8161 41.5411 29.8873 41.555C30.0155 41.5829 30.1294 41.5829 30.2149 41.6803C30.2149 41.6803 30.2719 41.6107 30.2861 41.6107C30.3573 41.6107 30.4428 41.6664 30.4855 41.7499C30.4997 41.7777 30.5282 41.8473 30.5567 41.8334C30.6422 41.8056 30.6422 41.8056 30.6849 41.8752C30.7134 41.9169 30.8273 41.9587 30.8843 41.9309C30.9128 41.9309 30.9128 41.8334 30.927 41.8334C31.0695 41.8752 31.0837 41.8334 31.2261 41.8891C31.2404 41.8891 31.2261 41.9865 31.2261 42.0144C31.2831 42.084 31.4113 42.0979 31.4825 42.07C31.511 42.07 31.5252 42.0144 31.5395 42.0283C31.568 42.0283 31.5822 42.07 31.6107 42.084C31.6392 42.084 31.6392 42.084 31.6677 42.084L31.6392 42.07Z" fill="white"/>
<path d="M38.7179 40.2327C38.7037 40.4972 38.5755 40.6781 38.4615 40.9008C38.4473 41.0122 38.5185 41.1375 38.4615 41.2627C38.4046 41.3602 38.3476 41.4715 38.2906 41.5829C38.2906 41.7638 38.2337 41.9448 38.1767 42.1257C38.1482 42.2371 38.1197 42.2928 38.077 42.2788C38.02 42.2788 37.963 42.251 37.9061 42.2232C37.6639 42.0979 37.3364 42.1814 37.0942 42.07C36.8663 41.9726 36.6527 41.8613 36.4106 41.7777C36.1542 41.6942 35.9121 41.5829 35.6699 41.4715C35.3281 41.3323 35.0575 41.0261 34.7299 40.8591C34.3453 40.6781 33.9038 40.6085 33.5192 40.3997C33.5192 40.3997 33.562 40.3023 33.5477 40.2884C33.4053 40.1074 33.1774 40.0657 33.0065 39.9404C33.0065 39.9404 32.9638 39.9822 32.9495 39.9822C32.7644 39.9543 32.7359 39.7038 32.6219 39.5785C32.5365 39.4811 32.3656 39.4671 32.2374 39.4115C32.1519 39.3697 32.0522 39.3419 31.9952 39.2584C31.9952 39.2444 32.0237 39.1748 32.0095 39.1748C31.8101 39.0356 31.5964 38.9243 31.4113 38.7851C31.3401 38.7294 31.3116 38.6181 31.2404 38.5485C31.1976 38.4928 31.1122 38.4789 31.0695 38.4232C30.984 38.3536 30.9982 38.2144 30.9555 38.117C30.9413 38.0752 30.8985 38.0056 30.8701 37.9778C30.7419 37.8803 30.6564 37.769 30.5852 37.6298C30.514 37.5045 30.4 37.4071 30.3003 37.3236C30.1579 37.1983 30.0012 37.0591 29.93 36.8642C29.873 36.7111 29.7164 36.6276 29.6594 36.4884C29.5739 36.3214 29.5882 36.0987 29.5455 35.9038C29.5027 35.7229 29.4742 35.5141 29.3603 35.3888C29.2748 35.2914 29.1751 35.2218 29.1467 35.0826C29.1039 34.8599 29.1039 34.6371 29.0897 34.4144C29.0897 34.3866 29.047 34.3866 29.0327 34.3727C28.9615 34.2613 29.0327 34.0943 29.0327 33.9273C29.0327 33.8437 29.0327 33.8437 29.1751 33.7463C29.2036 33.7324 29.1894 33.6628 29.2179 33.6489C29.2321 33.6489 29.2891 33.6489 29.3033 33.6489C29.6024 33.9969 29.8873 34.3588 30.2006 34.6928C30.2576 34.7485 30.2576 34.7485 30.3146 34.8042C30.3431 34.832 30.3431 34.8738 30.3573 34.9155C30.3858 35.0269 30.457 35.1382 30.5425 35.2078C30.6849 35.3192 30.8416 35.3749 30.927 35.5419C30.9698 35.6115 31.0837 35.6115 31.1549 35.6533C31.2973 35.7229 31.3258 35.9177 31.4113 36.0569C31.4255 36.0847 31.4967 36.1404 31.5252 36.1544C31.6534 36.2239 31.7816 36.2379 31.8243 36.391C31.8243 36.4188 31.9098 36.3631 31.9383 36.3771C32.038 36.3771 32.1234 36.4606 32.1946 36.5023C32.3371 36.6137 32.2943 36.6694 32.4368 36.7807L32.3656 36.8364C32.4653 37.0173 32.8071 36.9477 32.9353 37.1009C33.035 37.1983 32.9923 37.2261 33.092 37.3236C33.092 37.3236 33.092 37.3932 33.1204 37.3932C33.2486 37.421 33.2914 37.5324 33.3911 37.6159C33.448 37.6576 33.562 37.6159 33.6189 37.6437C33.6902 37.6855 33.6332 37.7829 33.7044 37.8247C33.9893 38.0195 34.089 37.8803 34.3738 38.0752C34.4023 38.0891 34.3738 38.1866 34.4023 38.2144C34.4593 38.2979 34.559 38.4093 34.6729 38.4093C34.7156 38.4093 34.7584 38.3814 34.7869 38.4093C35.1002 38.5902 35.0575 38.6598 35.3566 38.8268C35.4136 38.8547 35.5417 38.7851 35.5987 38.8268C35.6842 38.8825 35.7269 38.9939 35.8266 39.0217C36.026 39.0913 36.2539 39.147 36.4248 39.2862C36.4533 39.3001 36.439 39.3419 36.4675 39.3558C36.5815 39.3836 36.61 39.4671 36.6954 39.5646C36.7239 39.5924 36.8379 39.4811 36.8806 39.4811C37.0088 39.4811 37.1227 39.5785 37.2224 39.662C37.2794 39.7177 37.3363 39.8012 37.4218 39.7873C37.4503 39.7873 37.493 39.7316 37.5215 39.7455C37.7636 39.829 37.7921 39.7594 38.0343 39.8569C38.0627 39.8569 37.9915 40.0518 38.0343 40.0796C38.134 40.177 38.3191 40.177 38.4473 40.177C38.49 40.177 38.5612 40.0518 38.604 40.0657C38.6467 40.0796 38.6325 40.2327 38.6752 40.2466C38.7179 40.2605 38.7037 40.2466 38.7464 40.2466L38.7179 40.2327Z" fill="white"/>
<path d="M41.9226 36.1961C41.9083 36.4606 41.7659 36.6415 41.6662 36.8642C41.652 36.9756 41.8229 37.1426 41.7659 37.2679C41.7089 37.3653 41.6092 37.4349 41.5523 37.5463C41.5523 37.7272 41.4241 37.8803 41.3671 38.0752C41.3386 38.1866 41.3529 38.1726 41.2959 38.1587C41.2389 38.1587 41.1392 38.2701 41.0822 38.2422C40.8401 38.117 40.5837 38.0752 40.3416 37.9778C40.1137 37.8803 39.9001 37.7411 39.658 37.6576C39.4016 37.5741 39.1879 37.4071 38.9458 37.2957C38.604 37.1565 38.2764 37.0034 37.9346 36.8364C37.55 36.6554 37.1085 36.5719 36.7381 36.3771C36.7381 36.3771 36.7809 36.2657 36.7666 36.2518C36.6242 36.0708 36.3821 36.043 36.2112 35.9177C36.2112 35.9177 36.1827 35.9873 36.1684 35.9873C35.9833 35.9595 35.8836 35.7228 35.7696 35.5976C35.6842 35.5001 35.613 35.3609 35.499 35.3053C35.4136 35.2635 35.2711 35.3053 35.2142 35.2218C35.2142 35.2078 35.1714 35.2496 35.1714 35.2357C34.972 35.0965 34.8154 34.9016 34.6302 34.7485C34.559 34.6928 34.5875 34.5119 34.5305 34.4423C34.4878 34.3866 34.4308 34.3448 34.3738 34.2892C34.2884 34.2196 34.1174 34.2196 34.0747 34.1082C34.0605 34.0665 34.1317 33.9551 34.1032 33.9273C33.975 33.8298 33.8041 33.7602 33.7329 33.6071C33.6617 33.4818 33.5762 33.4122 33.4765 33.3287C33.3341 33.2035 33.1774 33.0225 33.1062 32.8276C33.0492 32.6745 33.0635 32.5214 32.9923 32.3822C32.9068 32.2152 32.7359 32.0621 32.6789 31.8533C32.6362 31.6723 32.6362 31.4914 32.5222 31.3661C32.4368 31.2687 32.3513 31.1573 32.3228 31.032C32.2801 30.8093 32.2374 30.5866 32.2089 30.3639C32.2089 30.3361 32.2659 30.3222 32.2516 30.2943C32.1804 30.183 32.0665 30.0299 32.0522 29.8628C32.0522 29.7793 32.2374 29.7932 32.3798 29.6958C32.4083 29.6819 32.3798 29.5148 32.4083 29.5009C32.4225 29.5009 32.4083 29.6401 32.4225 29.6401C32.7216 29.9881 33.035 30.3222 33.3483 30.6562C33.4053 30.7119 33.3768 30.7397 33.4195 30.7954C33.448 30.8233 33.6332 30.7676 33.6474 30.7954C33.6759 30.9068 33.6759 31.0042 33.7614 31.0738C33.9038 31.1852 33.9608 31.3244 34.0462 31.4914C34.089 31.561 34.2599 31.5331 34.3311 31.5749C34.4735 31.6445 34.6159 31.7559 34.7014 31.895C34.7156 31.9229 34.7441 31.9368 34.7726 31.9507C34.9008 32.0203 35.029 32.1317 35.0717 32.2848C35.0717 32.3126 35.1002 32.2569 35.1287 32.2569C35.2284 32.2569 35.3139 32.3683 35.3851 32.4101C35.5275 32.5214 35.499 32.5493 35.6414 32.6606C35.6414 32.6606 35.6414 32.6745 35.6414 32.6884C35.7411 32.8694 35.8836 32.9668 36.0118 33.106C36.1115 33.2035 36.1684 33.1339 36.2681 33.2313C36.2681 33.2313 36.2824 33.287 36.3109 33.287C36.439 33.3148 36.5672 33.3287 36.6669 33.4122C36.7097 33.454 36.7809 33.4679 36.8378 33.4958C36.9091 33.5375 36.9091 33.5654 36.9803 33.6071C37.2651 33.802 37.2651 33.8159 37.55 34.0108C37.5785 34.0247 37.607 34.0665 37.6355 34.0943C37.6924 34.1778 37.7636 34.2474 37.8776 34.2613C37.9203 34.2613 37.9346 34.3031 37.9773 34.317C38.2906 34.498 38.2764 34.498 38.5897 34.6789C38.6467 34.7067 38.7179 34.7346 38.7749 34.7624C38.8603 34.8181 38.9173 34.9295 39.017 34.9573C39.2164 35.0269 39.4443 35.0408 39.6152 35.18C39.6437 35.1939 39.658 35.18 39.6864 35.18C39.8004 35.2078 39.9713 35.2078 40.0568 35.3053C40.0852 35.347 40.0568 35.3192 40.0995 35.3192C40.2277 35.3192 40.3843 35.4027 40.4698 35.4862C40.5268 35.5419 40.541 35.6115 40.6265 35.5976C40.655 35.5976 40.7262 35.528 40.7547 35.528C40.9968 35.6115 40.9683 35.6811 41.2104 35.7785C41.2389 35.7785 41.3244 35.7785 41.3529 35.8064C41.4526 35.9038 41.5095 36.0291 41.6377 36.0152C41.6804 36.0152 41.7089 36.0152 41.7374 36.0152C41.7801 36.0291 41.8086 36.0708 41.8514 36.0987C41.8941 36.1126 41.8941 36.0848 41.9368 36.0987L41.9226 36.1961Z" fill="white"/>
</svg>
