<svg width="128" height="128" viewBox="0 0 128 128" fill="none" xmlns="http://www.w3.org/2000/svg">
<g clip-path="url(#clip0_4203_9579)">
<rect width="128" height="128" rx="20.48" fill="#311514"/>
<path d="M18.8252 0C17.1161 11.2708 19.2545 22.6906 27.2266 31.543C33.8151 38.8587 42.1076 43.3789 51.124 45.6406C48.9943 51.5608 47.1563 58.5882 46.6426 65.3467C45.7875 77.1126 49.053 85.5718 56.0498 89.7246C59.5483 91.801 63.3582 92.6474 67.3232 92.6475C77.6635 92.6475 88.7037 86.495 96.6338 79.7275C96.4006 80.4197 96.0119 81.5731 95.4678 82.7266L94.1455 85.5723C87.59 99.1151 79.692 115.441 69.4512 128H6.94238C6.08079 120.514 8.10898 111.712 12.5127 104.49C17.5662 96.2617 24.8745 91.3396 32.5713 90.9551C37.0026 90.7245 40.7347 91.9552 42.9893 94.416C45.0104 96.6461 45.7873 99.7991 45.2432 103.49C45.1655 103.798 45.3987 104.028 45.6318 104.105C45.8651 104.182 46.2542 104.029 46.332 103.645C47.7315 98.8765 46.3318 94.1855 42.6777 90.8018C37.3133 85.9569 28.6061 84.7265 20.5205 87.7256C11.1143 91.2253 3.96076 97.8761 0 106.06V0H18.8252ZM128 128H73.875C85.4502 115.3 94.1943 99.4925 101.765 84.8799C105.341 78.0356 108.917 70.653 113.193 61.7324C114.67 58.6564 119.18 50.1199 120.579 47.1973C120.812 46.6589 120.89 45.8894 120.579 45.1973C120.346 44.5822 119.801 44.0441 119.18 43.8135L114.438 41.8906C114.36 41.814 114.205 41.891 114.127 41.9678C104.953 61.1167 93.757 81.4959 79.374 87.8789C73.9319 90.4936 68.9563 91.34 64.2139 90.4941C60.3266 89.7251 57.4497 87.8024 55.7393 84.6494C50.3514 74.6756 57.3853 55.3556 60.8457 47.21C84.6342 49.0853 110.86 37.7099 123.684 21.748L123.683 21.7471C123.685 21.7452 123.687 21.7441 123.689 21.7422C125.523 19.5987 126.983 17.1152 128 14.4932V128ZM126.638 0C127.381 1.41287 127.834 3.05444 128 4.83789V8.07812C127.635 12.2997 125.898 16.9601 122.834 21.127C122.807 21.1668 122.79 21.2097 122.776 21.2529L122.771 21.25C108.396 37.354 84.1824 47.4055 61.7646 45.0859C68.5908 29.6106 80.0639 10.0815 97.5684 0H126.638ZM85.793 0C73.3427 8.35215 62.5078 21.2761 54.4951 37.584C53.6874 39.239 52.8465 41.1483 52.0264 43.2393C43.6098 40.8681 35.7232 36.4853 29.0527 29.7168C21.1811 21.7292 19.0217 10.8762 20.834 0H85.793Z" fill="#FAF2EB"/>
</g>
<defs>
<clipPath id="clip0_4203_9579">
<rect width="128" height="128" rx="20.48" fill="white"/>
</clipPath>
</defs>
</svg>
