<svg alt="cocktail" fill="none" height="54" viewBox="0 0 54 54" width="54" xmlns="http://www.w3.org/2000/svg" xmlns:xlink="http://www.w3.org/1999/xlink"><clipPath id="a"><path d="m13.2905 4.35938h28.7095v44.3501h-28.7095z"/></clipPath><g clip-path="url(#a)" fill="#8a2432"><path d="m33.2012 4.35939c-.0125-.00403-.0401.00451-.0261.01989l.0574.0026z"/><path d="m33.1382 4.48685c.0618.02096.1285.02251.1912.00443l-.1551-.02608c-.0125-.01565.0113-.03251.0352-.03335-.0181-.00333-.0012-.02758-.0396-.03048-.0326.02872-.0394.05769.0183.07948-.0159.00589-.0331.00795-.05.006z"/><path d="m32.4291 5.95704.049.00672c-.0159-.00465-.0324-.00691-.049-.00672z"/><path d="m31.7119 6.61671c-.025-.02377-.0534-.04369-.0842-.05909.0254.0232.0537.04306.0842.05909z"/><path d="m31.1647 6.47093.0328.00974c-.0397-.01991-.0623-.02975-.0328-.00974z"/><path d="m32.4303 5.95609-.1332-.02054c.1232.04495.0992.02151.1332.02054z"/><path d="m33.5033 4.6916c-.0148-.00636-.0303-.01069-.0463-.01289l.0245.01343z"/><path d="m32.3534 5.53519.0041-.00604-.1295-.03403z"/><path d="m32.4976 5.27441c-.0142.00457.2153.03554.3155.05106-.0516-.006-.1025-.01744-.1518-.03413z"/><path d="m33.021 4.80517-.0151-.00829z"/><path d="m32.1655 5.69346-.1102-.0294z"/><path d="m28.2434 14.4129-.0206-.0106c.0063.0045.0133.0081.0206.0106z"/><path d="m27.4879 14.4789v-.0052l-.0183-.0118z"/><path d="m30.5783 6.40866.0069.0032c-.0344-.03018-.0297-.02268-.0069-.0032z"/><path d="m29.9155 9.43848c.1244.05472.1252.17032.2682.21773-.0489-.03249-.1827-.20481-.2682-.21773z"/><path d="m33.4958 4.7041.0109.01459c0-.00326-.0011-.00642-.0031-.00904-.0019-.00262-.0046-.00456-.0078-.00555z"/><path d="m30.184 9.65527h.0013l.0131.00393z"/><path d="m30.5204 7.1377.1384.09448z"/><path d="m31.1922 7.00701-.0501-.01971c.0158.00868.0327.0153.0501.01971z"/><path d="m30.828 7.7036c-.025-.01059-.0653-.03883-.0318-.00062l.0359.02417c-.0368-.03309-.0531-.05145-.0041-.02355z"/><path d="m30.6926 7.96094.0567.03836-.0101-.01949z"/><path d="m29.1535 13.9009-.2337-.1157c.1792.0953.1973.1537.2337.1157z"/><path d="m33.4393 4.69863c.0188-.00168.0377.00025.0558.00568l-.0138-.00992c-.0141-.00035-.0282.00108-.042.00424z"/><path d="m33.0992 9.47647-.0859-.00088c.0134.00636.028.00974.0429.00989.0148.00015.0295-.00292.043-.00901z"/><path d="m30.0701 12.041.023.0277s-.001-.0096-.023-.0277z"/><path d="m32.9279 9.60373c-.069-.04857-.1409-.09299-.2153-.13303l.0665.06006z"/><path d="m28.917 13.7842.0018.001z"/><path d="m29.1351 14.2478c.0585-.0173-.2467-.1577-.3957-.2495-.0308-.0766.2301.0981.3948.1683-.0365-.0566-.2805-.2195-.2465-.2286.0449.0201.0882.0437.1295.0704-.2058-.1534.096-.063-.1848-.266l.0846.0413-.4464-.2427c.009-.0178-.1815-.1446.0374-.0303-.0144.006.0709.055.1329.0964l-.0775-.0676c.3217.1593.0861.0811.3102.2068-.0608-.0801-.2962-.2675-.1864-.2414.3136.1703.0542.1139.3558.2371l-.1508-.0304c.5053.2429-.0558.0015.481.2656.142.0097-.0986-.135.0427-.1254l-.4254-.2533c-.2569-.2503.8563.4109.4818.1217-.2024-.1359-.6135-.3818-.3608-.2892l.3614.228c.0868-.0183-.514-.3389-.2133-.2367.1417.0959.0899.1073.1422.1272.3313.1466-.1915-.1451-.1718-.1703l.3435.194c-.0085-.0783-.209-.2787-.2274-.3732.101.0722.2079.136.3195.1906-.1154-.1728.1624-.1244.4259-.0613l-.2872-.2146c.0714.031.139.0703.2013.117.1353.0445-.1937-.1212-.3051-.2086-.011-.0293.19.0877.2755.1545-.2285-.2087-.4728-.493-.1244-.3479l.0846.0676c.1399.0315-.592-.4387-.298-.3068l.0493.0417c.15-.0297-.0417-.2942.3651-.1263-.3775-.2647.1684-.0144-.3406-.3568.2588.0973.3458.1755.5017.1773.0191-.0143-.2914-.2345-.3328-.2965l.2364.1571-.2416-.2078.276.1605-.0577-.0705c-.0605-.0196-.1173-.0493-.1679-.0878-.0929-.1131.1664-.0101.2708.0597l-.1727-.2361c.0578.0436.1111.0928.1591.1469-.2048-.2032.2085.131.0204-.0555-.0537-.034-.1053-.0712-.1546-.1114.1184.052.1142-.0166.0703-.0962l.1221.0938c.0222-.0727-.0662-.2329-.0635-.3319-.0918-.0323-.1725-.0898-.2329-.166l.1514.095c-.0901-.0828-.0607-.0117-.1679-.127.0244-.0208.1681.0935.2171.1497l-.0459-.0785c.0433.028.0636.0531.1181.0945-.0836-.0782.1518.029.0068-.1014l.0409.0265c.0149-.0902-.0215-.1625-.0123-.2391-.1033-.0764-.07-.0849-.1415-.162.0567-.0206.1515-.0196.1754-.0762-.0248-.0707-.0728-.0691-.1182-.1262.0861.0598.1119.0042.1551.075.0303-.0654.0393-.1385.0259-.2093-.0324-.0092-.0625-.0252-.0881-.0471-.0035-.0234.0597-.0024.0987.0301l.006.01c-.0676-.181.4266.0286.3129-.1603l.006.0104-.0354-.134c.0489-.0112.0548.072.1398.1018-.0976-.1912.1629-.0539.1159-.1856.4094.2518.182-.1162.5117.0505l-.1009-.0759c-.073-.0848.0811.0346.1207.048-.0788-.0613-.1114-.0625-.1512-.1107.0425-.18116.5383-.0176.8949.0469.1219.0139-.6578-.5904-.2439-.35804l.2361.22484c-.1857-.32569.316-.0955.1321-.42021.062.0605.151.13299.1382.13952.242.15963.1067-.04952-.0754-.19668.0942.05983.1847.12521.2711.19578.1591.09104-.2221-.2708.0154-.09942.0303.02263.0569.04972.079.08035-.0928-.09831.1076-.02556-.1732-.22737.1694.06883-.0408-.15846.1521-.05818-.2846-.2586.2198.05972-.2106-.28873.4487.35683.4417.22928.249.03875.131.11557.1683.09431.3521.25304.0255-.02792-.0329-.11924-.2803-.30037.6258.38823-.3549-.44616.4167.08736-.1348-.20021-.2443-.41626-.3262-.64327.5093.37253-.03.11927.5027.50362-.128-.22187-.5335-.58033-.3445-.56432.1103.06686.2113.14777.3006.24071-.1491-.22592.1874-.10749-.0517-.38133.0483.03414.0934.0725.135.11463-.0064-.02603.1062.0208-.1427-.14404l.0565.05892c-.3114-.21352-.6116-.44286-.8995-.68712.6964.49768.2281.05054 1.1055.68494-.0982-.08943-.2049-.16918-.3185-.23813.1237.05469.2384.12784.3401.21697-.098-.14164-.3797-.2969-.3414-.3395l.3029.21639c-.2207-.17817-.4442-.35321-.3149-.32792.0725.04935.1721.10546.1626.11691.0082-.09867-.5696-.51882-.2929-.45266.5273.34692.1928.07989.6626.35274l-.1163-.12797-.2365-.11562c.0281-.03462-.2953-.26422-.1252-.20789l.1785.13901-.0543-.12487-.1965-.05888c-.2235-.17582-.5947-.33351-.4404-.30704.043.03626.0236-.03108.3087.1014l.0012.00083c-.1403-.10089-.2878-.20317-.1593-.16737l.6158.33239c-.3826-.22872-.0707-.15353-.4743-.39145.0937.05773.3373.18456.3885.2077l-.3089-.17866c.1225.0397.2403.09281.3511.15838.08-.02628-.595-.28202-.3144-.21654.0232.0177.0714.03896.1144.07334.1567-.00207-.1489-.22356.024-.2111.4651.19475.0964.10924.4914.27035-.0628-.14572-.4923-.44437-.3608-.48444l-.0535-.00392c-.6256-.27363.3277.06264.0424-.10576.0889.04526.1802.08587.2733.12165.1126-.02695-.1275-.19612-.2939-.35185l.1526.06627c.1468.01201.0958-.0713.1669-.09222-.1081-.05866-.2233-.10318-.3428-.13244.8477.12024-.4033-.35001.2801-.27783.0355.0275.0775.04537.1219.05187l-.1296-.1303c-.1048-.02076-.211-.03391-.3177-.03934-.136-.04294-.2378-.08949-.2338-.10944.1557.05748.3205.08626.4865.08496l-.2137-.04631c.3945.0325-.4447-.09833-.1734-.10553l.1131.02489c-.0572-.03504-.2012-.08171-.1655-.09958.2426.03146.1104.04369.3119.08162-.0188-.04268-.4485-.14553-.2097-.13859.0633.02454.0631.04633.1286.07247.2788.00953.2048-.00825.2464-.02936l-.0058.00186.1081-.05074-.0677.00777c-.5855-.12407-.1226-.11284-.484-.21056.1384.04409.2836.06307.4286.05606.0631-.01734.1288-.023.1939-.01672-.1915-.04728.124-.04433-.1491-.1078.0696.00261-.0019-.03288.1732-.01549-.0678-.04494-.1159.00305-.2048-.0062-.2329-.06857.2238-.13794-.1068-.23016-.1442-.07268-.322-.07996-.4013-.13735.0585-.01229.1193-.00891.1761.00981.062-.03735.0344-.06355-.0212-.09228.037.00236.074-.0037.1083-.01771-.0265-.02522-.152-.00641-.1093-.04441.0557.00128.1112.0057.1663.01324-.0584-.02803-.1416-.05146-.183-.07893.0479-.00514.0965.0006.1419.0168-.0537-.04502-.1189-.07436-.1882-.0848l-.0186.02524c-.0076-.01196.0622-.01446.082-.00707.0811.02179-.0045.0456-.0378.0506l-.0279-.01956c-.1785.04208.0502.08357.0702.12999l-.1729-.00568.1509.03494c-.0565.01785-.1168.0198-.1743.00564-.0954.03633.0652.02384-.0437.05593-.0111.00326-.0228.00345-.0339.00056l.0548.02724c-.0422-.00409-.1473.01058-.1119-.00858-.1459.05536.1438.08069-.0352.10326l-.0131-.00409c.0635.07175.1702.00452.391.06372l-.4773.02973.1948.01154c-.0077.0074-.0244.02179-.1044.01648.1338.03204.0876-.00213.2164.01866-.1905.02832.0817.10907-.268.09408.1655.0247.1355-.02595.2456.02111-.3852-.01735.059.05051-.1255.06907-.2055-.02969-.0833-.04721-.2793-.03411.3454.05236-.1013.05014-.0482.07889.2946.03727.1067.07021.1908.12748-.1043-.01829-.2115.05129-.3593.06064l-.0565-.01208c.34.07295.2581.10062.3194.14524-.1305-.02483-.2588-.06004-.3837-.10528l-.0158.02296c.0717.01425.1405.04085.2031.07863l-.2711-.06924c-.005.03063.2916.14436.0758.13677.3138.05947.6217.14707.9198.26174-.1522-.03494-.3022-.07918-.449-.13248.0171.0094.1147.04886.0494.04111l-.2363-.08689c-.1173-.00854.1992.06658.1696.07831l-.3197-.07806c-.0178-.00953.0936.01008.0153-.01853-.118.00135-.2355-.01471-.3488-.04767.1049.02408.207.05872.3049.1034-.003.03755-.2628-.06514-.3859-.08172.1442.05272-.0252.02243.2988.12514-.0851-.01428-.1688-.03526-.2506-.06275.134.0611-.0106.08383.3551.18668l.0261.00347.0128.00781c.3014.17796-.2568.05298-.1443.16025l-.1158-.0457c.1132.08554.0368.10364.2761.23595-.127-.03055-.2503-.07505-.3675-.13271.0716.06174.2044.12556-.0162.07342-.1912-.11664-.1905-.07438-.1348-.0919-.1247-.01458-.324-.09942-.0193.08308-.2997-.15177-.407-.16038-.3255-.10458l.2381.08491c.0331.03664-.005.0375-.0406.03908l-.4045-.20347c-.5429-.20264.7751.53035-.1032.14164.2778.16729.2297.07614.5576.26557-.2403-.0801-.4754-.17479-.7041-.28354-.2615-.09514.5835.36355.397.31756.2362.11488.4614.25127.6726.40743-.2659-.10626-.5193-.24158-.7556-.40348-.0079-.01372.0418.00999.0918.03876-.0821-.06901-.174-.12542-.2726-.16739l.1464.08746c-.1444-.0397-.2827-.09915-.411-.17667.0967.07933.2073.13992.3262.17866-.2417-.08989-.0472.05137-.2184.00136.0893.04341.1759.09244.259.14681-.222-.05531.2652.19356.3041.27342-.2403-.11545-.5344-.33784-.3698-.18314-.1796-.09093-.3504-.19838-.5102-.32096.2632.20937-.2241-.05674-.2871-.07255l-.1082-.09183c.0654.05416.0568.06153.051.06946l.2997.17718c-.0669-.01998-.1299-.05127-.1862-.09251.1848.13394.4927.30329.7403.49437-.1576-.08095.1296.14951-.2592-.09701.1591.03913-.3905-.24787-.4306-.32612.042.03707.0349.04481-.0223.02201-.0349-.02106-.0682-.04474-.0996-.07082-.3672-.18337.4251.30432.3899.34515-.1126-.09155-.2377-.1666-.3714-.22292.1837.10266.3572.22247.5184.35783-.1831-.0814.1057.11681.0771.12012l.0883.03418c.2099.1506.1724.1474.2266.21544-.1661-.11102-.1024-.09791-.1796-.13957.3578.27966-.4128-.20778-.1825-.00152l-.4947-.32426c.2503.22724-.3018-.15765-.0986.03886.169.09954.326.21821.468.35364l-.1598-.20475.3794.32756c.0159-.01758-.15-.16577-.0963-.14471.1172.10771.2459.20224.3837.28192-.4321-.26557.207.22632-.0922.06039l-.6766-.48595c-.3191-.16595.3064.3371.1057.28045l.1245.06296c.2557.2005.0147.06673.1081.16534-.2158-.16293-.3013-.20824-.4394-.29907.1598.1178-.0354.038.3867.36363l-.2941-.18095c-.1365-.03157.5666.51415.4638.50973-.1797-.13543-.3524-.28008-.5172-.43338-.0101.01571-.0547.00249.0875.11207-.132-.08832.251.25985.0485.12625.0851.07614.2953.24255.2667.24829l-.0993-.07718c.1078.10665.2245.20387.3488.29061-.6532-.43349-.053.17598-.5988-.18897.0406.06969.0652.14756.072.22794-.0544-.04684-.0925-.07442-.0697-.06554-.197-.0893.5131.45529.287.35322-.3099-.20963-.1417-.1565-.2632-.22936-.6008-.47417.0447.13156-.318-.10913l-.0301-.0372c-.2092-.12986.1852.24908.1227.26534l-.0845-.06945c.1607.13968.289.31277.3759.50717-.0962-.10098-.2014-.19302-.3142-.275.0194.04525.3435.27305.3766.35888-.1578-.09172-.3092-.19378-.4534-.30553l.0053-.05068c-.2931-.21258-.0116.06154-.0683.04401l-.1204-.1027c.0238.10387.3177.3467.2657.39558l.0891.06394c.2607.26489-.1716-.09923.016.10516l-.2808-.21593c.0943.118.1772.24479.2473.37862-.1305-.14151-.2525-.29059-.3654-.44648-.0091.02533-.0036.1086.1174.22522-.0208-.0303-.0804-.09592-.0368-.07322.1954.20097.2698.31486.2393.355-.4649-.39366-.1754.02672-.5256-.20963.1261.21972-.1155.1401-.1118.27983.2892.182-.0002.0395.2828.25574.0073.03702-.0017.04177-.0203.0298l-.1866-.05253c-.0802-.04057-.0507-.06968-.1106-.11403-.0312.04429-.115-.06173-.1863-.07181.0898.06128.1288.12504.0832.12864l.1257.04331c.1056.17821-.2262-.09375-.1261.08105l-.065-.08114c.0284.07177-.0466.1474.1113.31651-.0277-.01271-.0896-.0485-.0989-.07731-.0598.07231.078.31925-.063.30305l-.0452-.0428c.0051.0256.0753.0941.0136.0752-.0196-.0161-.0449-.0424-.0524-.0379.0118.0203.0592.1017.0167.0985l-.0431-.0568c-.1202.024.0467.2079.0309.2897-.042-.036-.0911-.0628-.144-.0787-.053-.0159-.1087-.0205-.1636-.0135l-.0214-.0171c-.1179.046-.0309.2004-.0319.3195-.2554-.1068-.2968.0427-.5467-.0102.0762.0388.1431.0935.1964.1604-.0763-.0245.1172.1583-.1184-.0086l.0131-.0009c-.2523-.1529-.2485-.0917-.2967-.0793l.3301.2333c-.6172-.302-.0357.282-.5969-.0301.0773.0801.0463.0947.13.1783l-.2275-.1524c-.1294-.0064-.2-.0129-.2306.0653l-.1594-.1244c-.0745.0075.6652.5043.649.5433l-.4028-.2464c-.0654.0523-.4889-.1209-.1782.1722-.0668-.0394-.1292-.0858-.1862-.1384-.0402.019-.4161-.0877.1914.2789-.3867-.2427-.0956.0387.0548.183l-.2849-.1859c.193.1194.3692.2641.5238.4302-.0442-.0135-.2385-.1355-.1554-.1028-.1741-.0607.2587.1967.0788.142l-.1767-.1302c-.0438.0214.0581.0806.2635.233.1039.0937-.1114.022-.3768-.1324.1577.1027.3605.2524.2732.2273-.0652-.0364-.1273-.078-.1857-.1244-.2283-.0576.2894.2937-.015.1651l-.1747-.0956c.0306-.0455.0654-.076.0846-.0596-.2372-.118-.4658-.2526-.6841-.4028.188.1568.5938.4716.4542.4382l-.0931-.0489-.0278-.0219c-.0297-.006-.0084.0172.0325.0515-.0481-.0125-.083-.023-.0916-.0126-.2177-.1233-.1335-.0192-.1517-.004.1504.1037.3079.1967.4713.2784-.0095-.0037-.018-.0097-.0247-.0175-.0067-.0077-.0114-.017-.0137-.027-.0071-.01-.0157-.0188-.0256-.0261l.0243.0161c-.0023-.0207-.0015-.0417.0025-.0623.1385.1028.252.1908.0844.1198l.4439.2975c-.4083-.207-.6425-.2766-.8832-.4079.13.2317.3214.423.5532.5529.0571.0545-.1514-.0621-.2319-.1-.0465-.0394-.0347-.0477-.1051-.0951.1167.1111.0164.1398.3533.342-.1704-.0422-.3044-.2042-.2701-.1092l-.1006-.0674c-.5513-.1593.7598.6664.08.4495.0375.0084.0738.0219.1077.0401-.2763.0347.1199.4426-.2507.4249-.069.0149.0687.0931.1656.1749l-.1672-.0766.1828.1487c.0926.1225-.3409-.0463-.1298.1574l.0761.0268c-.0153.0261.0256.1202-.0462.0781.0118.0095.0632.0432.0301.0395l-.0462-.0225c.0241.037.0456.0755.0643.1155-.0312.0484-.1488-.0849-.1336.0166.0267.0483.0828.1402.0922.1319.0022-.013.0178-.0269.0421-.0158l.0014.0322c.0296.0253.0643.0439.1018.0544.0375.0104.0769.0126.1153.0063.0068-.0154.0101-.0322.0095-.049l.0642.0149-.0502.0199c.0693.0091.0572-.0131.048-.0359.0265.0102.0543.0166.0827.019-.0148-.0278-.0322-.0542-.0519-.0788.0572.0226.0671.0575.1386.0585-.0297-.0398-.1365-.0454-.1341-.0852.0849.0173.1341.0499.1092.0071.0429.0177.0608.0331.0623.0459-.0136-.0338.0662-.0371-.0098-.0897.128.0388.0649-.0572.2482.04-.0321-.0249-.0959-.0966-.0816-.1138.2003.1488.1151-.032.3975.1275-.2002-.1377.0271-.1044-.0844-.2218.0204.0142.0618.0426.0425.0375.078.01.1545.0293.2278.0576-.1448-.0841-.2798-.1842-.4023-.2983.1854.0892.3652.1895.5385.3004-.2111-.111-.1478-.149-.3419-.2397.1177.0374.2319.0848.3415.1416-.3405-.1893-.0316-.0456-.2259-.1766.2124.0707.3456.1764.2804.0921.0822.0312.1571.0789.2202.1402zm.1147-1.1055.0056.0034.003.0264zm.0472-.0722c-.0072.0005-.0141.003-.02.0071-.0059.0042-.0105.0099-.0134.0165-.0693-.0336-.134-.076-.1925-.1262.0721.0409.1477.0752.2259.1026zm-2.0846-1.0237c-.0352-.0383.0225-.0099.0817.023.0056.0163.014.0315.0249.0449l.0342.0223z"/><path d="m27.5756 12.2932.0186.018.0678.03-.0878-.058z"/><path d="m32.4869 5.96483-.0079-.00096.0462.01208z"/><path d="m30.1709 12.2237-.0537-.0362.047.0403z"/><path d="m33.6147 5.76074.0693.00678z"/><path d="m33.6523 5.52107.0802-.024c-.0276.00448-.0546.01255-.0802.024z"/><path d="m33.7274 5.33849-.0956-.01329-.0012.00024z"/><path d="m33.4556 8.5293.0106.01585c.0538.05705.0357.03073-.0106-.01585z"/><path d="m33.0948 7.28711.155.11701c.0334.00088.0454-.00636-.155-.11701z"/><path d="m33.1074 9.47756-.0039-.00393-.0052.00393z"/><path d="m33.2269 7.43921c.0777.02582.0676.0049.0232-.03354-.0291-.00152-.0719-.0085-.0232.03354z"/><path d="m33.3931 4.54301-.0026-.00785-.0131.0013z"/><path d="m33.3765 4.53647-.0155-.00717c.004.00431.0096.00688.0155.00717z"/><path d="m33.328 4.51367.0316.01496c-.0044-.00603-.0084-.01371-.0316-.01496z"/><path d="m33.5616 4.84306c.0037-.0176.0824-.04823.0336-.07123l-.0398-.00035c.0829.00824-.0889.05829.0062.07158z"/><path d="m32.8199 5.11074.0728-.04652c-.0743.00612-.1784.01216-.1867-.00953-.2489.04867.1699-.00571.1139.05605z"/><path d="m32.6359 5.24488c-.0266-.02782-.1237-.01248-.172-.01929.0542.02305.114.02976.172.01929z"/><path d="m32.0488 6.1519-.3048-.13432c.0974.05377.1994.09873.3048.13432z"/><path d="m33.5573 7.10281.2043.06946-.2847-.14981z"/><path d="m31.2383 6.09429-.0398-.02886.0948.08246z"/><path d="m30.4738 7.72234.3118.23833c-.0481-.05685-.3952-.33488-.3118-.23833z"/><path d="m30.409 8.79628c-.1198-.08596-.1986-.11781-.0924-.01005.0215-.00867.1183.04471.0924.01005z"/><path d="m28.5 10.8099-.047-.055.0175.055z"/><path d="m28.919 16.3353c-.0113-.0084-.0403-.0052-.0294.0173l.0559.0181z"/><path d="m28.8335 16.477c.0541.039.1209.056.187.0475-.0877-.0297-.0597-.0345-.1474-.0659-.0097-.0223.0168-.0373.0405-.0326-.0173-.0085.0038-.0337-.0334-.0471-.0374.0268-.049.062.0037.1021-.016.0073-.0368-.0015-.0504-.004z"/><path d="m28.1793 18.1104.0201.0257c-.0055-.0094-.0123-.0181-.0201-.0257z"/><path d="m27.5151 18.4487c.0113-.0337.0188-.0686.0225-.104-.0105.034-.018.0688-.0225.104z"/><path d="m27.508 17.949-.0025.0315c.008-.0433.012-.0673.0025-.0315z"/><path d="m28.18 18.111-.054-.0749c.0417.1019.0381.0636.054.0749z"/><path d="m29.1532 16.791c-.0128-.0092-.0269-.0165-.0419-.0215l.021.0191z"/><path d="m28.202 17.5804.0014-.0059-.0735-.0813z"/><path d="m28.2298 17.3271c-.0085.001.1641.0918.2389.1342-.0407-.0217-.0794-.0469-.1155-.0754z"/><path d="m28.6627 16.8567-.0143-.0129z"/><path d="m28.1096 17.6954-.0492-.0753z"/><path d="m28.858 17.5716-.0232-.0101c.0095.0101.0174.0157.0232.0101z"/><path d="m27.8277 17.6111.0053-.0052-.0066-.0209z"/><path d="m27.5674 17.4281-.0027.0076c.0197-.0445.0157-.0368.0027-.0076z"/><path d="m26.7321 17.0397c-.5448.0041-.6936-.0558-1.3001-.0427.2377.0092.9453.0521 1.3001.0427z"/><path d="m29.1448 16.8018.0089.0186c.0003-.0036-.0004-.0072-.002-.0105s-.0039-.0061-.0069-.0081z"/><path d="m25.4326 16.9962-.0047-.0001-.058.0026z"/><path d="m27.2401 17.5879-.1373.1552z"/><path d="m27.1104 18.2308.0195-.055c-.0083.0177-.0148.0361-.0195.055z"/><path d="m26.6324 17.9867c.0248-.0273.0762-.072.0198-.0328l-.0448.0398c.054-.0419.0807-.061.025-.007z"/><path d="m26.4745 17.877-.0839.0589.0282-.0113z"/><path d="m29.1539 14.9492c-.0472.0974-.1045.196-.1626.2909.1357-.2163.2446-.1839.1626-.2909z"/><path d="m29.0901 16.7871c.0188.0009.0373.006.0539.015l-.0116-.0137c-.014-.0025-.0282-.0029-.0423-.0013z"/><path d="m24.1556 20.0569-.0161-.1106c-.0057.0185-.0073.038-.0045.0571.0028.0192.0098.0375.0206.0535z"/><path d="m25.3806 14.6805-.0062-.0301c-.0077.0011-.0076.0098.0062.0301z"/><path d="m23.9241 19.763c.0613-.0536.117-.1132.1662-.178l-.0796.0428z"/><path d="m28.9896 15.2426.0015-.0024z"/><path d="m29.7903 15.5895c.0077-.1921-.316.1541-.5016.2613-.0932-.0918.2378-.2734.4039-.4825-.0847-.0651-.4372.1761-.4371.0969.0365-.053.0808-.1003.1313-.1402-.2706.1665-.1393-.2601-.4575.0213l.06-.1049c-.125.2034-.2608.395-.3579.529-.0208-.0284-.1855.1837-.0268-.0815.0057.0256.0723-.0734.1304-.142l-.0906.0746c.2176-.4001.1104-.0797.2887-.3419-.1279.028-.3651.2803-.3323.1219.1927-.3903.1586-.0049.2924-.4076l-.0175.2254c.3016-.6407.0218.0957.3508-.5805-.056-.2434-.2359.0539-.2832-.1987-.1246.1888-.1447.3328-.2664.5248-.1257.1003-.0765-.0896-.0183-.3227.0667-.266.1681-.649-.0189-.3809-.1287.2529-.2956.7802-.2848.4345l.1616-.4602c-.1134-.1323-.2412.6528-.2773.2492.0595-.18.1245-.1054.12-.1746.0032-.4366-.1185.2421-.1706.2067l.0677-.4442c-.1569-.0015-.3347.2508-.4691.291.0248-.1334.0281-.2699.0099-.4044-.197.1594-.4068-.1366-.6562-.3616l-.0088.3632c-.0366-.0699-.0557-.1477-.0555-.2266-.0997-.1249.0395.2236.0336.364-.0319.0259-.0943-.1961-.0905-.3032-.0761.3111-.1544.657-.378.3657l-.0111-.0986c-.1387-.0844.1467.6536-.0549.3609l-.0048-.0495c-.3037-.203-.3051.2045-.6751-.1308.2081.3648-.2554-.0413.0656.4267-.2482-.1716-.2837-.2657-.5022-.2977-.0437.0126.1634.2848.1656.3497l-.1729-.1929.1358.2404-.2269-.196.0136.0777c.0581.022.1093.0591.1484.1074.025.1162-.2247-.0108-.3092-.0845l.0361.2391c-.0415-.0416-.0734-.0917-.0936-.1469.1077.2026-.1764-.1354-.0775.0506.0439.033.0842.0705.1202.1119-.1185-.0541-.1767.0085-.1855.0755l-.0964-.0888c-.1533.0303-.0067.2721-.1738.3021.0945.0098.2438.1176.225.1422l-.163-.0858c.0682.0662.0943.0193.1587.108-.0883-.015-.1679-.062-.2237-.1321-.006.0211-.0039.0438.006.0633-.0413-.0262-.0811-.0547-.1193-.0852.0793.0702-.1944-.0048-.0557.1094l-.045-.0213c-.0756.0919-.0611.1569-.1202.2303.1169.0557.064.0704.1387.1316-.0883.0301-.2393.0475-.2933.1142.0148.0648.0883.0495.1398.0938-.112-.0365-.1666.0301-.2124-.0296-.0695.0787-.0579.1123-.0519.2403.0393-.0053.0793-.0015.1169.0111.0035.023-.0808.029-.1324.0123l-.0076-.008c.0946.1503-.5948.2102-.383.375l-.0122-.0086c.0395.0439.0763.0902.1101.1386-.0486.0516-.0783-.0436-.1771-.0122.167.15-.1905.2035-.0683.3283-.2748.0358-.2713.1218-.1993.2081.0592.0872.0368.1742-.1343.2508l.1216-.0162c.1088.0247-.0796.0457-.1168.0741.0974-.0121.1203-.0458.1815-.0306-.0302.1424.152.2521-.002.4219-.098.1604-.2537.3516-.3439.5393.0059.1183.8656-.1955.5818.0275l-.3193.0637c.4789.0613.0532.4726.4984.5177-.0808.0259-.1792.0737-.1857.0526-.2254.1631.0574.1746.2564.0641-.0068.0426-.1749.1033-.2665.1781-.127.1297.3657-.066.1391.0952-.0333.0214-.0713.0342-.1107.0375.1358-.0414.0505.1509.3164-.0498-.0899.1597.2257.0489.1004.2164.3386-.1866-.0509.2273.3968-.0883-.4575.3314-.2601.4044-.0161.2726-.147.0969-.1086.1561-.3091.2954.0532.0477.2099-.0049.415-.2045-.3832.5318.5825-.2371-.0105.4563.3422-.0488.6619-.1531.878-.1683-.3751.4929-.1947-.0571-.5905.4484.3107-.0793.6945-.4694.7464-.2652-.0098.0939-.169.2173-.2424.2974.2865-.1297.271.2316.5761-.0176-.029.0528-.0657.1009-.1089.1428.0367-.0053.0231.1158.1504-.1511l-.0623.0605c.178-.3362.3747-.6621.5893-.9762-.3998.7596.0311.2317-.4743 1.1968.0841-.1056.1504-.2243.1964-.3512-.0176.135-.0693.2633-.1502.3728.1686-.1127.2493-.4215.3357-.3941-.0521.137-.0905.1852-.1626.3426.1531-.2528.2903-.5099.3237-.3828-.0328.0834-.0607.1946-.0833.1884.1578-.011.4382-.7129.4929-.446-.1885.6305-.0021.2079-.113.758l.1179-.1652.0216-.2669c.0688.0054.1943-.4019.2168-.2306l-.0848.2382.1396-.1248-.0372-.2022c.1017-.3016.0977-.7099.1456-.571-.0201.063.0472-.008.0429.3161l-.0003.0016c.0462-.1895.0854-.3884.1125-.262-.0122.1831-.0425.6318-.0508.7533.0583-.4871.1562-.1694.1964-.703-.0116.126-.0171.429-.0136.4896l.0265-.4026c.0274.1369.0361.277.0259.4163.0833.036-.0314-.7204.0622-.4484-.006.0352-.0007.0931-.0145.1593.1024.1157.1556-.3428.2482-.1929.0923.5696-.06.1796.0193.6553.1455-.1635.1609-.8588.283-.8087l-.0329-.0445c-.1799-.8057.1682.3223.1263-.0997.0223.1206.051.24.0861.3576.1138.0511.1006-.3448.0873-.682l.0667.2008c.1074.1207.1375-.0327.2169-.0069-.0426-.1516-.1066-.2964-.19-.4299.3142.4176.3114.18.2582-.0361-.056-.2362-.1534-.4458.1546-.2091-.007.0216.0782.1692.086.1525l-.0436-.2741c-.0925-.0902-.1915-.1736-.2961-.2495-.0796-.0869-.1432-.1873-.1877-.2965.1216.1678.2769.3085.4559.4129l-.1979-.1937c.396.2781-.4151-.4015-.1439-.2545l.11.0998c-.0512-.087-.1902-.2298-.1513-.2356.2434.166.1056.1199.3044.281-.0063-.0873-.4374-.4353-.1855-.3116.0637.0651.057.0965.1184.1667.299.147.2306.0828.2882.0688l-.0078.0004c.0483-.0048.095-.0202.1367-.0451l-.0759-.0106c-.6333-.4303-.1253-.2431-.5131-.5008.3575.2284.2093.1002.459.2038.0678-.0161.1388-.0116.204.013-.2042-.1274.1158-.0633-.1746-.2253.0705.0148-.0085-.0598.1689-.0065-.0715-.0872-.1162-.0094-.2046-.0366-.2391-.1415.2304-.2043-.0878-.3342-.1354-.1002-.3102-.1298-.3832-.2128.0602-.0076.1212.0046.1739.0346.0655-.0379.041-.0726-.0115-.1162.0364.0082.0743.0063.1097-.0054-.0211-.034-.1486-.031-.0991-.0705.0547.0107.1086.0248.1615.0422-.0578-.0379-.113-.0796-.1653-.1249.0524-.0076.0911.0286.1367.0451-.0461-.047-.0956-.1199-.1693-.1369l-.0231.0269c-.0052-.0162.064-.005.0821.0078.0755.0417-.0132.0539-.0467.0542l-.0238-.0292c-.1837.0187.0332.1133.0437.171l-.1692-.034.1434.0667c-.045.0093-.1511.0104-.1737-.0186-.0984.0331.0624.0396-.0492.0659-.0113.0027-.0233.0014-.0337-.0039l.0517.0426c-.0415-.0108-.1476-.0049-.1103-.0256-.1508.0565.1332.1221-.0474.1324l-.0126-.0068c.0537.1004.1689.024.3805.1186l-.4801-.0018.1927.0304c-.0095.0095-.0273.0256-.1056.0123.1314.0482.0868.0047.2123.0406-.185.0134.067.149-.2462.0783.146.0557.1205-.0109.217.0637-.336-.0838.0497.0725-.1099.0632-.1679-.0763-.0732-.0698-.2305-.0949.2835.1302-.0724.0341-.0216.0745.2235.1132.083.1055.1447.1968-.0727-.049-.1397.0061-.2243-.0276l-.0347-.0313c.2094.1887.1556.1992.188.2734-.0778-.0775-.1508-.1597-.2185-.2461l-.0056.0224c.0459.046.0836.0995.1117.1581l-.147-.1692c.0012.0296.1499.2665.0386.1844.1943.2272.365.4737.5095.7355l-.1947-.273c-.0331-.0455-.0624-.0936-.0878-.1438.0073.0176.05.1006.0161.0693l-.107-.1889c-.0604-.0501.0927.1507.0728.1559-.0973-.1438-.0757-.0889-.1512-.2068-.0076-.0178.0471.045.0111-.0174-.0686-.0469-.1254-.1091-.1659-.1817.052.0737.0967.1523.1334.2348-.0087.045-.1164-.174-.1708-.2399.0329.0898.0725.177.1185.2609-.0399-.053-.0745-.1097-.1036-.1694.0509.1234-.0211.0955.1172.3597l.0113.0138.0035.0145c.0757.3379-.1423-.0342-.134.1369l-.0306-.1028c-.0115.1313-.0119.2632-.0013.3945-.0433-.1012-.0728-.2077-.0876-.3168-.0015.1028.0169.2389-.0456.0769-.0133-.2206-.0354-.1727-.005-.1663-.0425-.0744-.0678-.265-.0505.0839-.0314-.3117-.061-.3744-.0604-.2741l.0385.2097c-.0082.056-.0232.0384-.0365.0208l-.0285-.4205c-.0386-.505-.0545.9505-.0875.0739-.0223.3209.0186.2063.001.5764-.0233-.2263-.0306-.4539-.0219-.6812.0035-.2467-.0783.6826-.1013.5241-.0167.2631-.0577.5241-.1223.7796.0013-.2804.0338-.5599.0971-.8331.0079-.0162.0035.0364-.0047.0932.028-.1038.0451-.2103.051-.3177l-.0252.1687c-.0053-.1411.0063-.2823.0346-.4207-.0318.119-.0503.2412-.0554.3643.015-.2393-.0442.0054-.0369-.1575-.018.0942-.0627.2944-.0627.2944.0014-.2065-.1.3314-.1657.4117.0479-.2623.1802-.6305.0828-.407.0327-.1776.1348-.4598.1779-.6011-.1206.3359.0369-.2198.0602-.2807l.052-.1398c-.0301.0831-.0331.0797-.0331.0797l-.1204.3469c.0174-.0704.0397-.1395.0669-.2067-.0903.2263-.2045.5767-.3397.8853.0562-.1761-.1198.1838.0652-.2747-.0309.1602.1874-.4597.2344-.5316-.0241.0546-.0276.0519-.0066-.0094l.0509-.1208c.1621-.4103-.2219.5168-.2487.5002.1197-.2555.2197-.4863.1927-.4321 0 0-.1932.4277-.301.62.0759-.2024-.0973.1413-.1001.1144l-.0321.0969c-.0432.1097-.1109.208-.198.2874.1041-.1962.0916-.1296.1302-.218-.2674.4346.2059-.4704.0151-.1825l.3416-.5803c-.2179.3107.2003-.3399.0185-.0845-.1201.1927-.2513.3783-.3929.5559l.1942-.2117-.3421.4626c.0153.0131.1694-.1914.1421-.1321-.1108.1446-.2107.2972-.2989.4567.2938-.5004-.2482.2604-.0602-.0834l.5649-.7942c.2416-.3587-.3469.3805-.2385.1624l-.0973.1388c-.2579.2987-.0638.0268-.1835.1391.2159-.2514.2946-.3431.4292-.4999-.1671.1831-.0033-.0275-.4718.4536l.2906-.3284c.1079-.1417-.7298.6487-.6962.5362.2874-.2411.4535-.4124.668-.579-.0064-.0081.033-.0546-.144.1029.158-.1436-.3796.2838-.142.0639-.1241.1083-.2566.2067-.3962.2941l.133-.1077c-.1318.1084-.2079.1283-.4929.3789.8161-.6977-.2125-.0584.5393-.6241-.0964.0427-.1995.0681-.3047.075.0962-.0535.1578-.0911.1294-.0686.2673-.1919-.9388.5006-.6539.2727.1599-.093.3248-.177.4941-.2517 1.074-.5748-.1915.0398.4297-.3023l.0699-.0279c.3714-.1903-.4582.1714-.4072.103l.1754-.0744c-.3368.1496-.6946.2466-1.0608.2876.4851-.1589.2645-.0754.7408-.256-.0806.0106-.7674.2873-.9355.2982.2502-.1037.462-.2055.9872-.3789l.0466.013c.6663-.2391-.0439-.0183.0631-.0709l.301-.0926c-.2841.076-.574.1289-.8667.1581l-.231.0667c-.7965.1659.4201-.1332-.1779-.0215l.7916-.1945c-.3263.0555-.6564.0859-.9873.0909.6169-.084.9432-.113 1.305-.1765-.0012-.0132-.0823-.0262-.4886.0384.0821-.0075.2845-.0389.1624-.0086-.6462.1086-.983.1225-.9906.0729 1.6089-.2322.3639-.1696 1.628-.3169-.6191.0038.2472-.0921.1498-.1108-1.2877.0059-.0374-.0132-1.3586-.0339-.0829-.0221-.0606-.0301.0256-.0289.2649-.0119.5292-.0168.7929-.0147l.5853.041c.1031-.0104.56.0245.9091.0462-.4703-.0315-.672-.0528-.4918-.0439l-.6073-.0372c-.6892-.0974 1.1024.0831.4193-.0033l.407.0528c-.2374-.0376.008-.0016-1.0013-.1988l.5835.1057c.149.0282-1.0118-.3052-.3881-.1802l.2896.0839c-.082-.0267-.5372-.1658-.2401-.0871l.3042.0907c-.0987-.0298-.4896-.1674-.316-.1221l.3132.1076c.3794.1107-.7305-.2942-.8616-.4093l1.1773.4564.1063.0478c.0962.0392-.5807-.3102-.7902-.4939.7468.4105.3786.1384.7681.3862-.1092-.0774-.454-.3371-.5022-.3849.1223.0858-.3585-.3194.1512.0879l-.0129-.0065c.5085.3956.3782.2885.4005.2964l-.6286-.5469c.9104.7938-.1638-.346.5661.3952-.1206-.1476-.1081-.1477-.2185-.2971l.2577.3158c.083.0769.1126.1172.0775.0379l.1563.2305c.0111.0207-.6125-.9318-.5886-.954l.3074.4831c.0411-.011.2673.4159.0828-.0242l.1016.2312c.0223.0133.1596.3292-.0961-.3344.1656.4329.0397.0435.014-.1388l.0936.3149c-.0722-.1967-.1145-.403-.1256-.6122.0195.0425.0697.2511.0395.1694.0642.1677-.0492-.2892.0246-.1144l.0301.1938c.0296.0307.0044-.0758-.0199-.2986.0011-.1174.0758.0996.1103.3699-.0198-.1647-.0276-.3778-.0003-.2931.0077.0638.0118.1279.0122.1921.0511.2136.0477-.3055.0895-.0086l.005.1711c-.0278-.0212-.0522-.0482-.0514-.0685.0199.27.0314.3213.0436.6865-.0146-.2035.0108-.6172.0301-.482l-.001.0894-.0027.0275c.0025.0274.006.0055.0113-.035 0 .0278.0024.0555.0072.0828-.0142.2056.0015.1185.0063.1327.0314-.2633.039-.2107.0554-.4361.0007.0066-.0002.0133-.0027.0195-.0024.0061-.0064.0116-.0115.0158l-.0073.024.0033-.0228c-.009.0018-.0183.0014-.0272-.001.0181-.1343.0419-.2376.0389-.08l.0718-.4079c-.0073.2706-.0337.5404-.079.8073.0828-.1364.1559-.2784.2186-.4251.0285-.0373-.0301.1253-.057.2039-.0186.0184-.0325.041-.0406.0659.0113-.0186.0268-.0407.0252-.0203.0286-.0228.0518-.0211.1439-.2043-.0337.1428-.1197.2168-.076.2112l-.0399.0694c-.0861.2245.0025.0846.0958.0113.0919-.0848.189-.0985.0421.1145.0149-.0236.0319-.0458.0507-.0664-.1137.2142.1459.2376-.1018.4212-.0504.0316.0424.0288.1001.0557l-.116.001c.0387.0126.076.0292.1113.0495.0533.0988-.286-.0013-.1716.1135l.0627.0309c-.0272.0116-.0303.0935-.0821.0353.0071.0101.0432.057.0118.0418l-.0349-.0367c.0077.0427.0097.0862.0061.1294-.0544.0331-.0858-.1416-.1265-.0527-.0022.0525-.0232.168-.0105.1664.0034-.0034.0076-.0058.0121-.0072.0046-.0014.0094-.0016.014-.0008.0047.0009.0091.0029.0128.0059.0038.0029.0067.0067.0087.0111l-.0246.0308c.0264.0694 0 .1123.1473.1721.0224-.0126.0428-.0287.0601-.0477l.0556.0425-.0763.0007c.065.0398.0781.0096.0903-.0196.0202.0217.0457.0379.0739.0471.0106-.0375.0154-.0763.0145-.1152.0477.0404.0232.0917.1111.1033.0036-.0603-.1216-.0844-.0815-.1374.0447-.0053.2314.2027.1924.071.0472.0307.0611.062.0533.095.0063-.0806.1219-.1166.0474-.2018.1653.0434.1052-.1568.3134-.0554-.0341-.0418-.0976-.1577-.0762-.1999.1982.172.2039-.182.5603-.1142-.1767-.0949.0331-.3321-.1383-.4582.0279.0022.0848.0085.0628.0254.0432-.0875.1869-.1546.2856-.2451-.3168.071-.3391-.0488-.5366-.0211.3714-.2467.3974-.1056.7249-.2599-.254.1032-.2637-.091-.5051.063.1147-.1184.2422-.2237.3802-.3137-.4359.2272-.0833-.042-.3536.0545.2077-.2607.3997-.3045.2688-.3661.0275-.0489.0693-.0882.1199-.1126.0505-.0244.1073-.0326.1627-.0236zm-2.0068-1.1039.0004-.0073.0394-.0066zm-.1571-.041c.019.0171.043.0277.0685.0301.0063.1267.0014.2549-.013.2441-.0046-.0936-.0233-.1861-.0555-.2742zm.1262 2.2285c-.007.0353-.0033-.0185.0003-.0744l.0107-.0262.0038-.0323z"/><path d="m27.7986 16.3335.0052-.0172.0025-.0634-.0117.0818z"/><path d="m28.2037 18.1407-.0034-.004.0176.0313z"/><path d="m25.4116 14.4825.0403.0443-.0269-.0483z"/><path d="m29.1128 18.417c.0214.0193.0447.0362.0696.0506z"/><path d="m29.2552 18.0401c.0341.0018.0683-.0003.1019-.0065-.0341-.0014-.0682.0008-.1019.0065z"/><path d="m29.3569 17.735-.1028-.0485-.0014.0001z"/><path d="m25.8244 20.7529c-.0072.0022-.0138.0059-.0195.0108-.0618.0557-.0297.0375.0195-.0108z"/><path d="m27.4302 19.9668-.0592.2128c.0183.0266.0351.0306.0592-.2128z"/><path d="m24.1573 20.0684.0039-.0039-.0052-.0079z"/><path d="m27.3142 20.1856c.0116.082.0336.0599.057-.0053-.0149-.0232-.0303-.0631-.057.0053z"/><path d="m29.0748 16.5948-.0013-.0092-.0131-.0026z"/><path d="m29.059 16.5847-.0141-.0115c.0015.0028.0035.0052.0059.0072s.0052.0034.0082.0043z"/><path d="m29.0156 16.5479.0283.024c-.0032-.008-.0056-.0178-.0283-.024z"/><path d="m29.1478 16.8828.0482.0067z"/><path d="m29.1957 16.9742c.0055-.0205.0869-.0462.0408-.079l-.0396-.0056c.0815.0199-.0943.0575-.0012.0846z"/><path d="m28.4463 17.2211.0599-.0419c-.0717-.0005-.1674-.0075-.1814-.0288-.2178.0175.1589.0125.1215.0707z"/><path d="m28.3259 17.3314c-.0282-.0353-.0997-.0412-.1379-.0599.0397.0321.0873.0528.1379.0599z"/><path d="m27.9354 18.1755-.0569-.2917c.0132.0983.0322.1957.0569.2917z"/><path d="m27.934 20.1549.0544.2288-.0136-.3691z"/><path d="m27.7147 17.6993.0028-.0509-.0138.132z"/><path d="m26.871 17.6455-.4651.323c.1619-.0974.3173-.2053.4651-.323z"/><path d="m25.9543 17.5325c.3079-.0888.5044-.1484.1888-.0799-.0371.0201-.2736.0946-.1888.0799z"/><path d="m27.2816 16.6768.1196.1127-.0948-.0949z"/><path d="m17.9775 10.8381c-.0331.0116-.0142.0405.0773.027l.0646-.0585z"/><path d="m18.5943 10.9127c.1076-.0378.231-.1294.1609-.2047-.1061.0974-.1322.0682-.2464.1644-.0916.012-.1601-.0143-.1448-.0395-.0322.0188-.1423-.0001-.1915.0395.1403.0429.2908.0381.4281-.0136.0341.0163.0013.0392-.0063.0539z"/><path d="m27.5545 11.4228-.0585-.0488c.0128.023.0336.0404.0585.0488z"/><path d="m33.1059 11.7627c-.0198.0084-.0364.0228-.0475.0412-.0112.0185-.0162.0399-.0143.0614.0393-.0312.0715-.0606.0618-.1026z"/><path d="m34.0557 12.3002-.0552-.0326c.0213.044.0426.0684.0552.0326z"/><path d="m27.554 11.4209.1491.1293c.0095-.13-.0767-.0988-.1491-.1293z"/><path d="m19.8278 10.5498c-.0297.0107-.0572.0269-.0809.0477l.0762-.0244z"/><path d="m25.1097 11.6262-.0455-.0022-.0369.1346z"/><path d="m23.2312 11.5523c.0426.0136.0557-.223.0713-.3267-.0232.0973-.0543.1422-.0916.1585.0008.0567.0076.113.0203.1682z"/><path d="m20.2503 11.0547-.0519.0167z"/><path d="m26.4535 11.7627c.0023.0386.0083.077.0181.1144-.0007-.0388-.0068-.0773-.0181-.1144z"/><path d="m14.3778 13.7853.0176-.0167c-.016.0005-.0248.0044-.0176.0167z"/><path d="m13.3628 11.7529.0222.0183.0197-.0104z"/><path d="m34.5197 12.5373.0038-.0051c-.033.0476-.0254.0358-.0038.0051z"/><path d="m30.093 21.116c.2082-.0817.006.354.2732.2014-.0624-.0096-.0878-.351-.2732-.2014z"/><path d="m19.8756 10.5602.0775-.0101c-.0262-.0014-.0525.002-.0775.0101z"/><path d="m30.3662 21.3165h.0013l.0249-.0157z"/><path d="m35.1901 12.4596.258-.0768z"/><path d="m35.5582 11.7627-.0207.0417c.0251-.0287.0207-.0417.0207-.0417z"/><path d="m35.5102 12.8535c-.0436.0118-.1022.0068-.0653.0374l.0532.0023c-.0475-.0181-.0664-.0312.0121-.0397z"/><path d="m34.8861 13.6896.0737.0183.0152-.0536z"/><path d="m17.21 17.7469c.0423-.0798.0927-.155.1504-.2244-.1388.1502-.3275.0044-.1504.2244z"/><path d="m19.8284 10.617c.0023-.013.0079-.0252.0162-.0354.0084-.0103.0193-.0182.0316-.023l-.0539.0127c-.0047.0188-.0055.0361.0061.0457z"/><path d="m38.7895 13.4297-.3825.3669c.1405-.108.2687-.231.3825-.3669z"/><path d="m24.2209 26.7419-.0638-.028c.006.0111.0155.0199.027.025.0116.0051.0245.0061.0368.003z"/><path d="m37.5051 14.9492c-.1726.0049-.2708.002-.3375.0005.015.0284.0334.0549.0547.0789.0995-.0021.1968-.0294.2828-.0794z"/><path d="m17.3618 17.5205-.0013.0017z"/><path d="m15.9328 16.5599c.1266.2082.3007-.1142.4698-.1948.2396.173-.1044.2685-.1774.4622.1651.0931.4806.0013.552.117-.0373.0455-.0379.0803-.1101.1025.3241-.029.3398.4497.748.3924-.0132.0303-.031.0583-.0529.083.1078-.1326.2306-.2522.3661-.3564.0716.0816.3064.0048.1444.1955-.0359-.0568-.1147.0028-.1918.0274l.1509.0211c-.2071.3096-.1881-.0439-.3851.1235.2164.1058.6058.1157.6327.3152-.2525.2578-.3327-.2383-.4367.1445l-.0549-.2964c-.3004.5159-.0642-.1535-.4042.3743.1187.348.3593.1993.4802.5444.2003-.0663.2144-.2118.4159-.2788.5796.156-.4924.9046.1003.8796.2487-.0843.6445-.3601.6021.0045l-.389.204c.1631.2952.6008-.2421.579.2242-.1722.0589-.2679-.1201-.2791-.0464-.1382.4012.2876-.0269.3925.1121l-.2855.2751c.2545.2487.7169.3801 1.009.6513-.1082.057-.2477.0809-.2915.2316.2054.1748.3713.3912.4865.635.1153.2438.1773.5094.182.779l.3945-.0703c.0221.0364-.0831.1609-.1662.1661.0013.231.1883-.1298.3546-.1431.0838.0696-.082.2361-.2085.2475.4426.0756 1.0875.3578.9927.8558l-.1269.0093c.0501.2955.7753-.188.6612.2044l-.0795-.0018c.2368.5497.8883.8837.7719 1.5098.4278-.1937.21.5579.7442.2358-.0343.4298-.1884.419-.0333.8815.0644.1075.4186-.0569.5646.033l-.2359.1629.385-.0036-.2033.2707.1559.0714c-.0076-.0388-.0028-.079.0139-.1148.0166-.0358.0442-.0655.0787-.0846.2481.1097.2002.5348.0991.6074l.5292.2985c-.088.0428-.1749-.0085-.275-.0284.3965.0855-.176.1766.1877.2547.0211-.0558.1295-.061.1726-.0817-.0361.0579.061.2557.1967.4001.1089.1419.2323.2721.368.3886l-.1293.0697c.2039.254.4219.4963.653.7258l.3401.3531c.1034-.0586.1985-.2493.2978-.3588-.1428.1116-.0918-.213-.001-.3731l.0484.1781c.0585-.2345-.1071.0575.0151-.3024.12-.1459.1142.1338.0339.3188l.1624-.3046c.0207.0512-.0143.1389-.0144.2372.0407-.2229.3784-.2053.4212-.5602l.0333.0432c.1001-.1494.2003-.206.2608-.3974.0484-.1678.1067-.3326.1746-.4935.08-.1854.1539-.3569.2469-.5719-.1072-.0687-.0181-.1834-.0544-.3301.1955-.2286.3727-.4722.53-.7286.0617-.2287-.0524-.1077-.0615-.232.0993.0381.2515-.2494.2333-.0648.1584-.2932.2973-.5966.4156-.9083-.065.0237-.1126.0658-.1272.0206.0316-.0858.1441-.1518.1812-.1147l-.0028.0259c.1425-.5635.9661-.9108 1.0184-1.3957l-.0036.0268.1499-.4459c.1397-.1611.0055.1524.1611.0659.1087-.5148.4936-.6102.6093-1.0179.5636-.0108.6609-.9016 1.2035-1.0514l-.1182-.0489c-.0291-.1506.145-.0628.2231-.1075-.0891-.0455-.1712.0287-.1835-.061.6003-.7902 1.3532-1.4517 2.2139-1.9456.2815-.2235-.6106-.6718.023-.7588l.1934.2895c.1318-.7651.9732-1.0558 1.1112-1.8018.0449.084.1366.1534.0919.2031.3194.0572.3629-.3938.1751-.538.0893-.0662.1845.1071.3218.1282.2275-.0095-.0527-.4937.2316-.376.0468.019.0478.087.0473.1198-.048-.1543.3347-.2974-.0025-.4397.3084-.0878.2092-.4586.5161-.4818-.2554-.3146.6731-.4938.1809-.8013.517.3104 1.0236-.4666.877-.7359.141.1163.3829-.1607.5999-.0251.2204-.2813.3236-.5567-.1196-.5208.691-.233.7658-.5245.7789-.7198.0272-.209.014-.3422.9235-.643.1887-.6274.4209-1.2408.6949-1.83586 1.4248-.61224-.5463.70426.8699.13583.096-.29634-.086-.39791-.1956-.50558.0157-.02724-.0786-.00272-.1652.01859l-.2356.05305-.4118.07934c-.1843.04153-.3752.0448-.5608.00962-.043-.08964.6755-.29729.9907-.41517-.5061.10656-1.0229.15455-1.54.143-.4942-.01014-.9868.05925-1.459.20553.1223-.07844.2545-.14027.393-.18386-.1822.02424-.251-.09178-.591.2111l.2452-.08473c-.3576.43784-1.6133.92594-1.8201 1.15584 1.1066-.86548-.3726-.2119.9957-1.30483-.218.08258-.4105.22098-.5581.40133-.0805-.05769-.0396-.17494.3087-.40469-.6906.16669-.7239.48542-1.1593.48108.091-.14573.2173-.2024.3816-.37382-.4437.28483-.7869.57014-1.0873.44904.057-.08774.0577-.20157.1717-.20004-.6864.04829-1.3098.75913-1.6448.49153.1228-.63163-.1476-.2054-.1741-.7488l-.2302.16684.0946.26185c-.2029-.00531-.3794.39251-.5548.2184l.1491-.2256-.379.11073.2163.19988c-.2034.2814.0264.6819-.2444.5351.0543-.0556-.2029-.0049-.3105-.3181l.0006-.0014c-.0991.1722-.2011.3514-.3519.2218-.0401-.169.0276-.58785.0015-.70005-.0961.44545-.474.13641-.5962.60635.035-.1444.0443-.2939.0274-.44161l-.0807.35791c-.0946-.1117-.1087-.1658-.0949-.38468-.2828-.05584.0941.65848-.243.38228.026-.0291.0132-.0816.0676-.1363-.3375-.13653-.6489.2369-.9594.0751-.0946-.50429.2695-.1339.1622-.56021-.4453.11666-.9196.63801-1.3519.53441l.0806.0512c-.0553.6862-.3235-.32796-.5396.0026.0418-.0944.0601-.1975.0535-.30056-.2962-.09275-.6031.19616-1.0497.41066l.0544-.1668c-.1751-.1397-.4592-.0622-.6477-.1254-.0549.1619-.1626.1401-.0958.3677-.5859-.85005-1.1037.4955-1.6229-.1825.0615-.0046.1458-.1333.0967-.131l-.4374.1562c.036.2326.0583.1381.1516.3191-.0198.0644-.057.122-.1076.1666-.0505.0445-.1124.0742-.1787.0858.1962-.1569-.0041-.374-.0901-.4953.0146.0696-.014.1484-.0063.2195-.2318-.3953-.0354.4582-.35.193l.0158-.117c-.1166.0638-.2235.2165-.3501.1851-.0538-.2476.124-.1188.1306-.3266-.1771.0263-.3467.4768-.5088.238.0748-.0687.1832-.0732.2581-.144-.1768-.2797-.1964-.2025-.3266-.2397l.0128.0055-.3009-.1025.0769.0678c-.2179.6087-.4508.1375-.7473.5172.2881-.3529.0468-.2018.0674-.442-.0767-.0617-.1932-.1237-.1606-.1933-.1398.2006-.2366-.1179-.4341.1671-.0093-.0704-.1512.0068-.1204-.1719-.1832.0753.0443.1161.0293.2071-.2815.2457-.6667-.2071-1.0718.1241-.3503.1427-.4141.3234-.7393.4066-.1106-.0751.0887-.1813.0887-.1813-.1561-.0546-.3271-.0473-.478.0204.0336-.0398-.0015-.071-.0527-.1149-.134.0233-.0886.1585-.266.1092.0352-.0642.08-.1227.133-.1734-.1556.0696-.3147.131-.4768.1838-.0439-.0552.098-.0987.1554-.1481-.1835.0517-.4759.1091-.5321.1894l.118.0228c-.067.0067-.0349-.0681.0145-.0883.1571-.0834.2274.0103.2365.0461l-.1163.0274c.121.194.468-.0447.7025-.0596l-.0967.1809.2397-.156c.0515.0465.0872.1562-.0285.1828.1689.0983.1485-.0688.2938.0431.016.0179.0088.0276-.0058.0352l.1639-.0581c-.0319.0437.0284.151-.0728.1159.2959.1448.4748-.1513.587.0289l-.0246.0136c.4089-.068.0385-.1722.3441-.3947l.2098.4779.0389-.1958c.0422.0078.126.0245.1111.105.1562-.1348-.0275-.0881.063-.2182.2045.1929.5597-.095.6079.2609.0719-.1703-.1953-.1336.021-.2506.0645.3913.2506-.0661.4374.1183-.0557.212-.2324.0899-.0452.2872.1095-.3566.3622.0979.5183.0391.0055-.3049.3399-.1153.6022-.2141-.016.1085.4957.1962.7411.3361l-.0068.0585c.0451-.3516.2978-.2787.481-.3498.0098.0727.0026.1467-.0213.2162-.0238.0694-.0635.1323-.1159.1837l.1728.0084c.0125-.0508.038-.0974.0739-.1354.036-.0379.0812-.0659.1312-.0812l-.0415.2798c.2297.0006.4606-.3179.7577-.1098.0148-.2814-.2402-.7693.0712-.9608.0126.1505.0257.4098-.0556.4706.0266-.0194.0946-.125.1492-.0601l-.1234.2529c.1355.115.0692-.2111.1769-.1866-.0007.2175.0808.157.0663.3301-.0272.02-.0944-.0927-.1351-.0089.0755.0311.1433.0784.1985.1387.0551.0602.0964.1318.1207.2098-.0113-.1264-.0018-.2977.0868-.3243.2298-.0096.0805.2712.2153.3931.0547-.1543.2023.0161.204-.325.0673.0037.0808.164.1074.258.1179-.146.5552-.0198.4188-.399l-.0306-.0253.0193-.015c.3875-.3491.8111.217 1.1969.0715l.0002.125c.2299-.1379.5135-.0728.6765-.3478.0683.0004.1626.2368.1345.3905.1759-.0931.1947-.2409.451-.0203-.1759.2253.0625.2046-.1807.1635.2301.1179.2833.3334.5272-.0234-.0815.3376.1755.4353.2839.3364l-.1623-.2499c.1115-.0339.2314-.0277.3388.0175l-.0558.4528c.473.5798.84-.9319 1.2035.0231.122-.3255-.2564-.2366-.1478-.6168.2163.0648.4455.7461.5132.7503.2974.2716.2715-.6879.582-.5039-.0407-.171-.081-.6254.1491-.787.2165.0622.2704.7202.1349.8561-.0518.0139-.0772-.041-.0754-.0988-.0263.0158-.0491.0367-.0672.0615-.018.0248-.0308.053-.0377.0829s-.0077.0609-.0024.0911c.0054.0302.0168.059.0335.0847l.027-.1707c.1084.1761.4054.1616.3374.4425.1621-.1615.068-.2814-.0535-.3714.2787.2523.4329.0114.7192.1813-.0459-.0958-.0891-.2992-.0439-.2973.4077.2131.2092-.322.4379-.4111.0883.2473-.0608.6306.1001.38.0557.1518-.0623.4379-.0856.5897.133-.3637.0723.1258.0351.1455l-.0613.1572.0442-.1193.1308-.3002c-.0058.0412.0064.0295-.0606.1596.1343-.2803.2887-.5506.462-.8086-.0472.1416.2957-.1978.0134.1918-.0326-.0872-.2899.3901-.4003.5045.0401-.0585.0557-.0681.0306-.0309l-.0823.1111c-.247.288.3649-.4823.4901-.5024-.1261.1052-.2398.2243-.339.3551.1784-.1933.3768-.3672.5919-.5188-.0979.1609.2552-.1275.2957-.1102l.0288-.0751c.1492-.1242.3254-.2116.5146-.2553-.2211.1642-.2413.1154-.3063.187.6414-.3732-.3473.377.1365.1231-.1863.1398-.653.3938-.7867.4878.5708-.2772-.4553.2791.0268.0485.3309-.1823.6724-.3444 1.0228-.4856l-.5807.2062c.2861-.1382.592-.2758.9178-.413-.0793-.002-.4962.1811-.449.1349.2598-.1073.5088-.239.7436-.3934-.6723.4178.746-.2495.3425.0311l-1.4709.6903c-.592.2973.6454-.1775.186.114l.2677-.1279c.5049-.1619-.0143.0805.144.0715-.4107.1188-.5862.1941-.8487.2767.2962-.0786-.0843.0781.6558-.0606l-.5443.1617c-.258.11.8662.039.594.2448-.2522-.0082-.5037-.0322-.7529-.0719-.0309.0347-.1097.0612.1009.0705-.1975-.0004.3019.1551-.0041.1646.1072.0395.3853.1054.3107.1675-.0441-.0067-.0874-.0179-.1292-.0334.1327.0288.0916.1533.4228.1749-.4822-.0109-.5392.085-.6137.2255-.034.1067-.1084.1958-.2074.2481-.0989.0524-.2144.0639-.3217.032-.0697.2462-.1675.4835-.2916.7073-.0489-.0542-.0946-.0722-.0511-.0904-.3501.1095.4383.558.0439.6842-.4033-.0854-.0607-.2695-.2379-.2675-.6449-.4225-.1483.3997-.6324.3246l-.0049-.0725c-.2995-.0033-.011.5216-.2092.7288-.0246-.0274-.0544-.0498-.0876-.0658.1369.3317.1394.7036.007 1.0372-.1704-.2268-.0469-.1865-.2978-.3027-.0359.1252.3782.2276.3008.4723-.2062.026-.4155-.0047-.6055-.0889l.1109-.2051c-.3644-.1144-.1478.2627-.2633.3297l-.12-.1042c-.1365.3386.173.5622-.0536.8673l.1126.0308c.1845.3816-.2614.03-.1541.3566l-.3277-.1509c.0236.2824.0058.5668-.0529.8441-.0839-.2656-.1267-.5425-.1268-.8211-.0705.1169-.2062.42-.1074.5733.0015-.0652-.0323-.1721.0381-.1895.0668.1192.0993.2546.0941.3912-.0053.1365-.0481.269-.1239.3827-.4802-.3829-.4911.5185-.9466.4505-.0711.5284-.5127.802-.7456 1.3175.3877.0148-.069.1495.2431.3098-.0471.1239-.0774.1632-.102.1612l-.3629.2349c-.1245.0314-.0016-.1477-.0701-.1772-.1538.2397-.1729.0316-.3294.1559.1137.0263.093.1762-.0194.2973l.2291-.1257c-.0527.4367-.3789.168-.4356.606l-.0181-.1609c-.0529.2098-.3534.6753-.2698.9629-.0446.0152-.1305.019-.1033-.0704-.2653.4148-.3489 1.0668-.6505 1.3308l-.034-.0636c-.0306.0885.0184.1964-.0928.2639-.0188-.018-.0339-.0629-.0584-.0282-.0076.1262-.0503.2477-.1233.3508l-.007-.1244c-.3109.3736-.2306.717-.3987 1.0825-.1606-.0934-.4129.1968-.5423.3402l-.0204-.0191c-.0753.1071-.142.22-.1995.3376-.0853.1482.0041.0989-.015.1669.0033.1345-.012.2689-.0455.3992-.0615-.1191-.089-.1176-.1229-.0784-.0295-.0378-.0498-.0819-.0594-.1289s-.0082-.0955.004-.1419c-.0224.0759-.1294.2724-.1709.2682.0226-.088-.2271.0656-.0145-.1597l.0037.0167c.1779-.2915.1696-.1177.0475-.3895l-.3539.1912c.2954-.8024-.8296-1.0503-.4499-1.6387-.1591-.0417-.2279-.1797-.3923-.2157l.2334-.1504c-.0631-.3148-.2017-.6097-.4038-.8592l.2188-.0461c-.0943-.2267-.868.2346-1.0005.0605l.3494-.3249c-.2189-.3533-.0849-.9686-.6728-1.0544.0632-.0371.1874-.1113.2396-.0655-.0909-.1759-.1337-.8432-.662-.3701.3669-.2732-.2068-.3822-.5024-.442l.2944-.1739c-.4606.1041-.5594.1703-.8126.0299-.0018-.0767.1867-.2076.1664-.0888.0185-.2741-.3571.0641-.3636-.2464l.2317-.0561c-.1087-.1869-.1925-.1028-.4669-.0433-.1909-.0243-.1779-.3743.047-.5859-.1673.0908-.4376.1498-.4444-.0038.0544-.0578.1295-.0917.2088-.0944-.0414-.4215-.6424-.1776-.5351-.5722.0559-.0401.1011-.0934.1315-.1552.1734.2268.3025.4174.2696.4156.2471-.1901.1433-.4029.6-.5224-.3054-.0008-.9045.0641-.9325-.1991.0185-.0316.0401-.0612.0645-.0884l.0419-.0032c-.0091-.059-.0612-.0773-.1295-.0794.0047-.0699-.0119-.1397-.0477-.1999.1803-.1762-.0674-.2851-.1341-.3795-.2519.2123-.3079.0647-.4293.3413.0068-.0288.045-.008.1053.0417.0176.0107.0379.0162.0585.0161l-.0279.0121.2018.2047c-.1918.0354-.3622.05-.3004-.161l-.5185.2078c.2605-.4067.2548-.7911.4429-.9969-.3699-.1536-.6489-.5419-1.2442-.3372-.1226-.0278.0538-.1923.0992-.278.083.0061.1217.0629.2072.0329-.2473-.0545-.4409-.4019-.7748-.1854-.0307-.3004.3739-.1282.092-.3417l.1233-.0424c-.0188-.8764-1.465-.2007-1.4169-1.2279.0058.0246.0061.0503.0009.0751-.0053.0248-.0159.0481-.0312.0683-.3818-.8041-1.3976-1.1123-1.722-1.9539-.1248-.2108-.2605-.1218-.4485-.1468l.1011-.1639-.3379-.0276c-.3439-.162-.1669-.6839-.6832-.8134l-.0232.1015c-.1083-.1189-.4083-.3141-.3248-.3569-.023-.0008-.0961.0191-.1151-.0497l.0369-.0423c-.1241-.0633-.2441-.1305-.3597-.2016-.2103-.2222.1696-.0976-.1941-.3674-.1542-.0817-.4387-.2319-.3971-.1854.0502.0445.1178.1239.1014.147l-.1174-.0971c-.0736.0337-.167-.0373-.0069.3258.0587.0633.1208.1234.186.18l.007.1095-.12-.187c.0099.0495.0309.0962.0614.1364.0305.0403.0696.0732.1146.0962-.0112.0473-.0081.0968.0087.1424.0779.0454.1591.0849.243.1182-.0268.0683-.1483-.015-.0788.1541.1189.0505.0319-.189.1829-.0611.0208.1516-.0494.1687.0836.2421-.0221.0494-.0613.0444-.1069.0085.1112.0723.2038.2771.3215.2573-.0141.1906.2832.3319.1146.4731.126.017.2442.0708.34.1546-.3374.0192.2457.3765-.0368.5602.2966-.0569.4123.4037.711.5136-.0291.0051-.0869.0158-.0888-.0164.0719.1498.0222.2574.0293.3885.2236-.1749.4204-.0186.6432-.0385-.1037.3553-.338.144-.5093.3806.1757-.1712.3772.116.4975-.0804-.0526.247.0082.1651-.147.4061.3178-.2478.1288.0707.3925.0021-.0258.3108-.2617.3052-.0286.4149-.036.1812-.2664.1044-.2664.1044zm3.9652 4.0122-.0054.0041-.0842-.0817zm.2877.3761c-.0304-.0619-.0682-.1198-.1127-.1726.082-.0848.1877-.1442.2117-.1024-.0773.0274-.063.158-.0989.2751zm1.2014-2.2276c.0869.0291.0525.089.0058.1392-.0364-.0302-.0761-.0561-.1184-.0773l-.0377.0183c.0475-.0314.0978-.0582.1503-.0801z"/><path d="m20.958 18.8842c-.0131-.0039-.028 0-.0396-.0092l-.029.0817.0995-.0441z"/><path d="m27.4858 11.3659.01.0077c-.0099-.0144-.017-.0305-.0212-.0474z"/><path d="m23.7655 26.4131.055-.0371-.077.0014z"/><path d="m24.8472 10.3422c-.0048-.0262-.0171-.0504-.0354-.0697.0067.0255.0187.0493.0354.0697z"/><path d="m23.7097 10.3501-.1612-.0767c.0497.0334.104.0592.1612.0767z"/><path d="m22.8352 10.2979c-.0085.0323-.014.0653-.0166.0986l.0019.0013z"/><path d="m38.7891 9.2087c.03-.00346.0596-.01013.0882-.0199.2579-.08343.1111-.04972-.0882.0199z"/><path d="m32.5988 10.2281c.0366-.069.0808-.1337.1318-.193-.074-.0293-.1312-.03595-.1318.193z"/><path d="m38.8304 13.389-.0066-.0013-.034.0406z"/><path d="m32.9229 10.0404c-.0103-.016-.0243-.0292-.041-.0385-.0166-.00925-.0352-.01426-.0543-.01458-.019-.00032-.0378.00406-.0547.01278-.017.0087-.0315.0214-.0423.0371.0605.0256.1318.0658.1923.0032z"/><path d="m19.0467 10.6455-.0416.0027-.004.0148z"/><path d="m19.0004 10.6611-.0461.0161c.0212-.0027.0396-.0057.0461-.0161z"/><path d="m18.8562 10.7101.0991-.0333c-.0359-.0009-.071.0109-.0991.0333z"/><path d="m20.2047 10.5521.0128-.0501c-.0085.0153-.0129.0326-.0128.0501z"/><path d="m20.5561 10.5011c-.0838-.0045-.211-.0867-.3277-.039l-.0106.0408c.0543-.0837.2593.0941.3383-.0018z"/><path d="m22.029 11.2459-.295-.0691c.0518.0748.1203.1802-.0137.1883.3731.2483-.0778-.1694.3087-.1192z"/><path d="m22.9439 11.417c-.1583.0298.0026.1272-.0055.177.1-.0712.1241-.0918.0055-.177z"/><path d="m29.5501 11.6963-.0138.3349c.1216-.0436.0003-.1301.0138-.3349z"/><path d="m30.8007 9.91499-.1199-.21382-.0545.32273z"/><path d="m31.5636 12.4398-.0531.0503.2029-.1239z"/><path d="m34.8071 13.2639.3338.2088c-.0075-.1104-.3498-.3952-.3338-.2088z"/><path d="m32.4524 17.5276c-.1501-.0409-.2949.0239-.2204.1776.0718-.0822.2226-.1086.2204-.1776z"/><path d="m26.2849 26.2686.1127.0426-.1375-.1305z"/><path d="m25.834 39.894c-.0246-.0085-.036.0218.0192.0576l.0738-.0094z"/><path d="m26.0859 40.2517c.0791.0265.205.0205.2225-.0675-.1207.0182-.1126-.0159-.2365-.0035-.0536-.0367-.0688-.0892-.0435-.0995-.0293-.0026-.0702-.0702-.1224-.0664.0185.0485.0481.092.0864.127.0383.0349.0843.0605.1342.0746.0055.0283-.0267.0286-.0407.0353z"/><path d="m30.2992 44.3269.0283-.0271c-.0219.0108-.0297.0196-.0283.0271z"/><path d="m31.0262 45.8169c-.0432-.035-.0914-.0635-.1429-.0845.0442.0336.0922.0619.1429.0845z"/><path d="m29.8667 45.3613.0616.0278c-.069-.0374-.1087-.0582-.0616-.0278z"/><path d="m30.3001 44.3271-.0884.0688c.16-.0251.0849-.0416.0884-.0688z"/><path d="m26.9483 40.5882c-.0236-.0064-.0483-.0078-.0724-.0043l.0545.0187z"/><path d="m29.103 43.7947-.0245-.0213-.1018.0915z"/><path d="m28.0967 42.9105c.015.0296.1706-.1483.2439-.222-.0737.0652-.1189.0862-.1495.0822-.035.0441-.0666.0908-.0944.1398z"/><path d="m26.8264 41.155-.0367-.0124z"/><path d="m29.5243 44.2002-.0955.0604z"/><path d="m26.548 29.4045.0236.0008c-.0112-.0077-.0198-.0102-.0236-.0008z"/><path d="m27.2299 27.9062.0026.021.0222.0039z"/><path d="m28.9864 44.9368.0071.0061c-.0353-.0384-.0302-.0313-.0071-.0061z"/><path d="m22.2085 45.3906c-.2522.0598-.4261.0014-.6941.0785.2329-.0101.4648-.0363.6941-.0785z"/><path d="m26.9656 40.6172.0452.0282c-.0124-.0131-.028-.0228-.0452-.0282z"/><path d="m21.5131 45.4688-.0024.0002-.0308.0095z"/><path d="m27.8744 45.0098c.0059.0558.0163.1112.0311.1654-.0037-.0562-.0142-.1117-.0311-.1654z"/><path d="m29.341 45.5948-.0539-.0509c.0149.02.0332.0372.0539.0509z"/><path d="m26.8071 45.6139c-.0285-.0266-.0388-.0768-.0765-.025l.0122.0441c.0133-.0509.0314-.0758.0643-.0191z"/><path d="m25.6857 45.6816.0216.0696.0357-.0209z"/><path d="m25.8286 32.7682c.0864-.0187.1741-.0308.2623-.0363-.2035.0053-.2438-.1621-.2623.0363z"/><path d="m26.903 40.637c.0083-.0078.0183-.0137.0293-.0171.011-.0033.0225-.0041.0339-.0023l-.0361-.016c-.0148.0113-.0267.0231-.0271.0354z"/><path d="m26.8006 48.4927-.1802-.065c.0526.0385.1151.0611.1802.065z"/><path d="m25.6669 40.7263-.0314-.0271c-.0041.0078.004.0166.0314.0271z"/><path d="m26.0887 48.4472c-.0192-.089-.0544-.1737-.1039-.2499-.0093.0292-.0159.0592-.0198.0896z"/><path d="m25.71 31.5368c-.0509.1667.2969.0963.475.1424.0558.2059-.2597.079-.4454.1374.0562.1295.3488.2434.3212.3364-.0495.0128-.1017.0111-.1503-.0049.2552.1489-.0625.3941.2783.5704-.0309.0086-.0628.0135-.0949.0148.1699-.012.3405-.0099.51.0062-.0024.0762.2222.155-.0257.1689.0119-.0461-.0863-.0558-.1596-.0821l.0967.0858c-.3616.0504-.109-.1157-.3669-.131.0877.161.368.3598.253.4725-.3593.0035-.084-.2847-.4186-.1452l.1592-.1754c-.5689.1071.0559-.1089-.5501-.0155-.1466.2345.1319.2802-.0138.5143.1927.0662.3004 0 .4946.0664.3254.365-.9696.2129-.5109.4949.2411.0803.7199.1348.4447.2991l-.4244-.0873c-.0773.2315.6082.1714.284.3992-.1681-.0541-.1221-.1929-.1789-.1606-.3681.1381.2332.1273.2211.2497l-.3957.0018c.0293.2533.2885.5463.3382.8278-.1186-.0466-.249-.0535-.3718-.0196.1672.3613-.1187.7454-.3937 1.0709l.35.1495c-.006.03-.1661.0475-.2337.0109-.1448.1255.2279.0191.365.0903.021.0766-.2126.0887-.3178.0352.2917.2508.6246.6986.2439.93l-.1054-.0533c-.1432.1877.724.2498.3943.4143l-.062-.0368c-.1392.4167.1711.8875-.2765 1.2107.4584.0613-.1438.4374.4763.4626-.2716.2484-.3945.2159-.5178.5053-.0065.0698.3798.1062.4477.1971l-.2864-.0086.3147.1259-.323.0223.0811.0697c.0594-.0305.1276-.0393.1928-.0251.1285.1402-.1699.209-.2878.156.0799.0739.1438.1634.188.2628-.058-.0454-.1124-.0953-.1627-.1492.2109.2101-.2157-.1131-.0298.0864.0553.0309.1063.0689.1516.113-.1285-.0289-.165.0919-.1931.2362l-.0935-.1217c-.1268.2309-.2733.4504-.438.656.1059-.0321.2177.1593.1619.2346l-.1323-.1249c.0232.1312.1085-.0069.101.1854-.0989.0584-.1722-.1139-.1609-.2086l-.0652.1457c-.0357-.0376-.0272-.0821-.0595-.143.0196.126-.2715.0228-.2324.2304l-.0333-.0354c-.2335.2142-.3231.3437-.5173.5163.0665.109-.0293.1472-.0359.276-.2027.065-.3964.1551-.5767.2681-.0998.1401.0159.1088-.0052.2072-.068-.0807-.251.0562-.1952-.0734-.1905.1386-.3657.2972-.5225.4731.0555.0155.1014.008.1029.0499-.0431.0489-.1446.0411-.1654-.0063l.008-.0181c-.1522.1596-.3572.2584-.5769.2778-.2931.0936-.7264.2739-.8076.4641l.0114-.0209c-.107.1138-.1993.2199-.2769.3183l-.014.0068-.0054.0023-.002.0008-.0009.0003-.2041-.0424.2028.0429-.0007.0003-.0009.0006-.0024.0011-.0043.0021-.0082.0039-.0148.0064-.0234.0077c-.0092.0031-.0192.0026-.0279-.0015l-.0113-.0173-.003-.0119-.0015-.0064-.0009-.0032-.0005-.0016-.0001-.0008-.0002-.0004-.2361-.0498.2359.0491v-.0003l-.0001-.0006-.0004-.0012-.0005-.0023-.0015-.0047-.0044-.0087c-.005-.0055-.011-.01-.0177-.0132-.0112-.0036-.023-.0049-.0347-.0038l-.0263.003-.0156.0031-.0085.0019-.0045.0011-.0021.0005-.0012.0003-.0007.0002-.2753-.0575.2733.0575-.0016.0001-.0043.0009-.011.0032c-.1774.3626-.5807.5104-.6238.7271-.7644.1807-.2121.8471-.2818 1.3402l.0971-.0807c.1497.0353-.019.1572.0168.2291.073-.0598.0191-.1435.1201-.1306.1459.1411.3066.2661.4793.3729.0402.022.0304.0865.0538.1247l.1146.0869c.0803.069.1667.1307.2581.1842.5522.245 1.1314.4236 1.7256.5321.3755.0977.1704-.8856.5114-.423l-.086.3264c.4934-.3556 1.0155.1651 1.4981-.1809-.0281.0866-.0279.2016-.0753.1959.1052.2891.3799.0519.3792-.1854.0758.0308.0196.2116.0673.3336.1048.1785.2547-.3507.3124-.0589.0011.0212-.0025.0423-.0105.0619-.0081.0196-.0204.0371-.036.0514.0656-.136.3132.0594.2452-.2842.1842.1729.347-.1349.4949.0766.0899-.385.3146.2051.3377-.349-.0059.5734.3258.4844.4374.2135-.0363.175.1027.1892.061.4325.1315.0006.2507-.1022.2234-.4086.2531.7299.4783-.5589.6292.3764.3309-.2732.7006-.4957 1.0969-.6601-.0103.6314-.3898.0505-.3654.7072.1857-.1204.2461-.3119.468-.4603.0939-.0824.2063-.1408.3277-.1701.1214-.0292.2481-.0286.3692.002.1698.0879-.0041.2763-.0381.3844.5102-.2597 1.2367.0663 1.5335-.282.0171.0255.0272.0551.0293.0857.0022.0306-.0037.0612-.017.0889.0886-.0205.3152.0965.0827-.1979l-.0388.0794c-.4304-.4259-.3119-.8907-.5219-1.1177.5676.8449.5872.2117 1.3213 1.2811.0037-.0111.005-.0229.0039-.0346l-.0034-.0224-.0031-.0124-.0018-.0066-.0012-.0033-.0005-.0017-.0004-.0008.5455.5874-.5461-.5892-.0002-.0009-.0006-.0016-.0013-.0037-.0027-.0074-.0063-.0153-.0158-.0329-.0459-.074c-.0462-.0637-.0981-.1231-.1549-.1774.1812.0735.3266.2149.4051.394.1924-.1919-.2411-.4775.0148-.5164.1123.1152.2164.2383.3114.3682-.1651-.3042-.3312-.5686-.0274-.5085.0871.0799.2357.1736.179.1883.2783-.1547-.3608-.7457.2366-.6076.6362.4528.3183.112.9308.4551l-.058-.1696-.3357-.1365c.1121-.0498-.1774-.2962.0845-.2361l.1571.151c.0194-.0521.0461-.1013.0791-.1462-.1056-.0134-.2126-.029-.3147-.0505-.1674-.1724-.6946-.3317-.3764-.2956.0173.0374.1403-.0365.4931.0354l.001.001c-.111-.1237-.2161-.2359-.0382-.2872.1749.0336.5378.2291.6538.2519-.3725-.2228.0256-.422-.4521-.653.1374.0662.2826.115.4321.1454l-.3508-.1619c.1103-.041.1607-.0363.3825.0316.0387-.1939-.6505-.1083-.4201-.2692.0535.0221.1051.0485.1543.0791.101-.2157-.4787-.3837-.4118-.4795.6192.06.2633.1365.7617.1788-.2161-.2082-1.172-.5107-1.2104-.6952l-.0481.033c-1.1233-.0693.3852-.1306-.2622-.271.175.0216.3513.0307.5275.0273.0079-.0887-.1443-.1824-.3757-.2714-.2417-.0908-.6249-.1843-.9441-.2741l.3067-.0137c.096-.1448-.243-.3009-.3572-.425-.2779.0373-.339-.0273-.5819.1091.3139-.3494-.1972-.4688-.5097-.5171-.3575-.0642-.62-.053-.6152-.4518.0493.031.2-.0169.1591-.0446-.1198-.0384-.243-.0654-.3679-.0807-.1198.2008-.0508.1343-.1077.318-.1155.0913-.25.1271-.3109.0818.2037-.0429.2223-.2997.2493-.4324-.034.0615-.0973.1122-.136.1719.1122-.4118-.2966.3486-.3092.0043l.0798-.0857c-.1027.0009-.2548.0754-.3055-.0033.1216-.2173.1408-.0406.2713-.2013-.1133-.0527-.4813.2244-.4228-.0327.083-.021.1445.0226.2284-.0004.0763-.2955.0188-.2434-.0282-.3288l.0035.0099-.0976-.2099-.001.086c-.4979.38-.3257-.0912-.7252.0723.3785-.1453.1529-.1354.3165-.3119-.0016-.0814-.0239-.18.0378-.2194-.2027.0937-.0484-.195-.3349-.0639.0404-.0582-.0836-.0621.0477-.1851-.1443-.0239-.0519.1083-.1182.1713-.3091.0624-.2118-.4568-.6401-.3902-.2756-.0535-.4278.0493-.6517-.0424-.0073-.1064.1663-.091.1663-.091-.0212-.0544-.0562-.1024-.1016-.1392s-.0996-.0612-.1572-.0707c.0436-.0127.0464-.0517.0492-.1072-.0838-.0462-.1501.0712-.2073-.0484.0579-.0281.1193-.0484.1825-.0603-.1229-.0236-.2439-.0564-.3619-.0983.0158-.0606.1157-.0227.1772-.0301-.1253-.0523-.3094-.1538-.3932-.1237l.0433.0738c-.0381-.0278.0295-.0657.0678-.0561.135.017.1059.1181.0863.1481l-.0768-.037c-.0719.1979.265.1954.3936.2955l-.1694.0832.226.0023c-.0047.0578-.0591.1543-.1359.118.0211.1519.1212.0215.1216.172-.0035.0206-.0137.0243-.0265.0229l.1236.035c-.0454.0169-.0853.1239-.1146.0502.0577.2475.3465.1132.2856.3002l-.0218-.0016c.2587.1411.1339-.1098.4404-.1359l-.2031.4574.1488-.1298c.0085.0089.015.0196.0191.0312.0042.0117.0058.0241.0049.0364-.001.0124-.0045.0243-.0103.0352-.0059.0109-.014.0205-.0237.0281.1704-.0299.043-.0794.1755-.1362-.0174.2413.3591.1814.1557.4762.1478-.0979-.0185-.1911.1722-.1825-.2163.3294.1754.0635.1591.288-.1649.139-.1837-.0348-.2073.2015.2863-.2263.1353.2384.259.2631.1937-.2336.259.0611.4652.0987-.076.0779.1529.3713.2059.5886l-.0392.0433c.2389-.2585.3345-.0904.4803-.0689-.1363.1739-.207.2296-.318.2595l.0924.0816c.0311-.0331.0697-.0582.1126-.073.0429-.0149.0887-.0191.1336-.0123l-.1912.2062c.0738.0616.1711.0218.2482-.0028.073-.0068.1508.0117.1284.11.2397-.1585.4292-.5841.7991-.582-.1206.1185-.2624.2135-.4179.28.0274-.0035.147-.0409.124.0178l-.26.11c-.0294.109.1983-.1054.2336-.0525-.1781.1235-.0911.1138-.2424.2047-.0275.0047.0354-.0782-.0497-.0408.0186.0584-.0371.1672-.1726.2605.0952-.0708.2056-.1187.3223-.1398.1044.0554-.2171.1462-.2866.225.1681-.0547.0499.0409.3954-.088.0242.0187-.1354.08-.2236.1183.1931-.0277.2247.1092.6021-.0208l.0146-.0154.026.0017-.0004-.0003.0004.0003c.6099.0528.1076.2784.4575.3553l-.1761.0023c.2731.0888.5518.1596.8341.212-.1831.0263-.3691.0239-.5514-.007.2201.0545.4821.0933.2262.1186-.4502-.0878-.3175-.026-.3466-.0751-.0986.0359-.4677-.0171.2506.1266-.6191-.1012-.7094-.0839-.4963-.0363l.3912.0404c.1317.0404.1162.056.0984.0689l-.8554-.1586c-.4657-.0625 0 .0359.4081.1823.4027.1336.7022.3216-.2377.0813.6372.2444.4562.0562 1.2009.3128-.4988-.0518-.9908-.1564-1.4676-.3118-.5217-.1557 1.2422.5893.7987.4975.447.1726.8743.3925 1.2746.6559-.5174-.1892-1.0177-.4225-1.4952-.6973.0684.0189.1342.0462.1958.0814-.1609-.1078-.3336-.1967-.5147-.2652l.2805.1407c-.2925-.1037-.5766-.2293-.8501-.3759.1962.12.4019.2235.6151.3096-.4859-.2109-.1551-.0084-.4866-.1499.1453.0795.4501.2484.4309.2469-.442-.1783.3841.2735.347.338-.404-.2192-.7719-.5257-.6005-.3401-.249-.1523-.4885-.3197-.717-.5013.337.2795-.3357-.1797-.3897-.23l-.1378-.1178c.0848.0699.0728.0691.0728.0691l.3566.2881c-.0798-.0493-.1547-.1061-.2236-.1698.2025.1907.5822.4803.8248.7415-.1948-.1458.0384.162-.3585-.2201.2231.1238-.3945-.3844-.4148-.4515.0433.0465.03.0462-.0307-.0027l-.0999-.1021c-.1114-.1004-.1114-.1012-.0692-.0534l.0928.102.0601.0665.0315.0351.0156.0177.008.0089.0038.0044.002.0022.001.0011-.534-.5755c.2091.2269.4171.4526.6138.6659l.0623.0759c.0336.0435.0474.0703.0286.0642-.177-.2147-.3581-.4209-.3245-.3793.1475.1669.2819.345.402.5326-.1889-.1856.0183.1158-.0391.0907l.1003.0882c.134.222.0658.1892.0382.2562-.1047-.1779-.0115-.1171-.0796-.1968.1383.397-.3588-.434-.3001-.1738-.0928-.1648-.1666-.4416-.2238-.5568.0349.2893-.1298-.3506-.1072-.1168.0559.1811.0742.3718.0539.5603.0374-.0633.0667-.1311.0871-.2019.0172.1511.02.3034.0082.4549.0605.0093.0647-.1906.1061-.1318-.0042.1546.031.3077.1024.4448-.195-.4903-.1309.2754-.2969-.0595l-.0684-.8182c-.0289-.0963-.035-.1238-.0606-.1076-.062.0387-.1151.0902-.1555.151-.1056.133-.2192.2836-.3663.1899l.0959.136c-.0336.3254-.1789.0544-.2708.1897.0002-.1811-.0334-.3607-.0991-.5295.0082.1983-.213-.0024-.2309.531l-.1354-.3418c-.2367-.1246-.2566.7657-.4841.6842.064-.2856-.0414-.4633.1069-.6755-.0753.0024-.1438-.0402-.1424.1392-.0463-.158-.204.3599-.2769.1194-.0302.1144-.0369.3826-.122.3648-.0055-.0416-.006-.0838-.0013-.1256.0013.126-.1304.1762-.0526.4545-.2427-.778-.6495.0765-.8598-.5753-.1588.0937-.331.1625-.5106.2042.009-.0719-.0006-.1189.0278-.0957-.2083-.2083-.1197.6881-.3571.4502-.1237-.3733.1227-.2107.0465-.351-.04-.7693-.2822.1228-.4442-.3086l.0379-.0477c-.1226-.2418-.2917.3081-.4894.2717.0049-.0362.0051-.073.0003-.1093-.0481.1374-.1241.2635-.2232.3703s-.2191.192-.3527.2502c.0574-.2708.0853-.1476.0474-.418-.0848.045.028.4383-.1414.5208-.1048-.1638-.1722-.3487-.1975-.5414l.1599-.0304c-.0843-.3602-.207.033-.2918-.0208l.0098-.1583c-.2596.0907-.2305.466-.4024.4424l-.0034.1152c-.1965.3822-.0266-.2125-.2108.0723l.1187-.3855c-.159.1897-.3552.3449-.5765.4559.217-.1888.42-.3932.6071-.6117-.0319-.0041-.129.0365-.2954.2291.0484-.0385.1317-.1349.1119-.0773-.1461.2318-.3775.3969-.6442.4597.3505-.3672.3353-.4098.2243-.3752-.0476-.0229-.129-.0752.2106-.3267-.4575.126.0349-.289.0512-.3126-.801.1765.0015-.0262-.7654.0992.0065-.0324.01-.0434.0575-.0514.1465-.0453.2952-.0832.4456-.1133.1787-.0216.1041.0147.2402.0034.1279-.0275.2584-.0404.3892-.0384-.1875.0042-.2598-.0125-.1749-.0271l-.2523.0203c-.0873-.0302.0048-.0483.0932-.0503l.1315-.0016.0466-.0022.0141-.003.0043-.0021.0015-.0013.0005-.0007.0003-.0003v-.0003l.2818.0589-.2816-.0591v-.0002l.0002-.0003v-.0019l-.0005-.0027-.0038-.0066-.0183-.0187.0992.0445c-.0347-.0463.058-.0677-.0542-.258.0336.0141.0915.0617.0899.0891.1018-.1012.1979-.2079.288-.3196.0953-.1361.2331-.2367.3918-.286l.0128.0658c.0424-.0512.0278-.1585.128-.1521.0105.0234.0125.0653.0389.0517.0164-.0366.0811-.1839.1714-.2007l-.0222.0971c.3227-.117.3366-.4175.5488-.6034.1018.154.3618.0712.4948.0346l.0111.0251c.3596-.1625.49-.4484.7616-.7033.3455.0978.7652-.2658 1.2432-.4083-.0924.0015-.1466-.1731-.1092-.241.1287-.0188.0602-.3268.2618-.1278l-.0334.0222c.2713.1353.4089-.0804.5503-.243l-.3242-.2389c.1692-.03.3216-.1208.4284-.2554.1069-.1346.1608-.3036.1517-.4752.0264-.3086-.0327-.5385.3125-.6518-.1062-.1097-.0876-.2318-.2058-.3225l.2776-.001c.1068-.1852.1551-.3984.1385-.6115l.2048.0531c.0532-.1436-.8385-.2018-.8457-.3487l.473-.0357c.0234-.2732.5082-.5432.0878-.834.0726.0074.2164.0212.2309.067.0289-.1293.4068-.496-.3003-.4783.4563.0168.0727-.2885-.123-.4524l.3385.0406c-.4254-.1509-.5445-.1612-.6551-.3489.0471-.0408.2758-.0237.185.0289.1872-.134-.3172-.1284-.1266-.293l.2153.0763c.0334-.1461-.0847-.1405-.3351-.2355-.133-.1003.0991-.2761.4067-.2809-.1867-.0302-.4333-.1252-.341-.2076.0768-.005.1535.0118.2211.0485.2384-.2344-.3774-.3903-.0415-.5418.0672.006.135.0002.2003-.0172-.0138.1963-.0373.3534-.0613.3372.3112.0176.3687-.1378.7948.0128-.2332-.1403-.7327-.3877-.5847-.5346.035-.0074.0704-.0122.1061-.0143l.0341.0181c.0309-.0341.0028-.0678-.0479-.101.0509-.0465.0883-.0758.0934-.1231.2515-.0035.1363-.1745.1475-.2533-.329-.013-.2747-.1138-.5473-.0326.0239-.0111.0391.0174.052.071.0096.0125.0143.0269.0336.0359l-.0289-.0071c.0098.0657.0157.132.0178.1985-.1678-.0726-.3058-.1465-.1209-.2233l-.5273-.1424c.4628-.0813.7109-.2763.9871-.289-.183-.2539-.1288-.5801-.7073-.7679-.0727-.0736.1682-.0694.2591-.0897.0577.0434.0484.0903.1319.117-.1463-.1472-.0612-.4136-.4532-.4702.1792-.1635.3612.1198.2974-.1237l.1194.0395c.582-.4366-.9453-.8227-.2027-1.3014-.0317.0328-.0747.0524-.1204.0547.2734-.5813-.2525-1.2421.1096-1.8126.0592-.165-.0991-.1906-.217-.2981l.1859-.0279-.2224-.1845c-.1284-.2518.3511-.4161.0799-.74l-.0853.0378c.0087-.1123-.0663-.3585.0208-.3377-.0153-.012-.0798-.0388-.045-.0822l.0552-.0023c-.0416-.0934-.078-.1863-.1093-.2787.0069-.2146.1919.0361.1169-.2808-.055-.118-.1566-.3306-.1587-.2865.0054.0468-.0005.1201-.0283.1241l-.0176-.1057c-.0767-.0177-.0948-.0957-.2304.1633-.0015.0595.0018.1191.0098.1781l-.0709.0572.0429-.1496c-.0262.0251-.0437.058-.0498.0938s-.0006.0726.0159.105c-.0378.0153-.0705.0411-.0943.0743.0249.0618.0556.1211.0918.177-.066.0202-.0956-.0801-.1619.0365.0495.0831.1526-.0765.1714.0604-.0891.0842-.1513.0575-.1059.159-.0085.0039-.0179.0056-.0272.005-.0093-.0005-.0184-.0033-.0264-.0081-.0081-.0048-.0148-.0115-.0197-.0194-.0049-.008-.0078-.017-.0085-.0263.0314.0896-.0426.2356.0524.2849-.1377.0853-.0366.3024-.2494.2858.0701.0639.1145.1511.1248.2453-.2467-.1611-.0961.3059-.4212.2517.2442.1226.0095.4029.1469.6082-.0244-.0123-.073-.0366-.052-.053-.0525.1091-.1629.136-.2477.2033.2813.0287.3119.2042.4849.3073-.3203.1201-.3406-.1012-.6267-.0731.2438.0058.1875.2475.4101.213-.1158.0754-.25.118-.3881.1231.4001.0403.0417.0999.2792.2-.234.1389-.4012.0168-.3079.1887-.0473.0169-.0988.0179-.1467.0028-.0478-.0151-.0894-.0455-.1184-.0865zm.2529 3.9931-.0067-.0004-.0115-.0831zm-.023.3341c.0164-.0463.0248-.0951.025-.1442.1172-.0049.2362.0146.2276.0479-.0766-.0228-.1497.0521-.2526.0963zm2.3553-.57c.0464.0555-.0188.0693-.087.0726-.008-.0333-.021-.0653-.0385-.0947l-.0404-.0086c.0559.0066.1113.0168.1659.0307z"/><path d="m27.8637 35.1738c-.0074-.0082-.0211-.0133-.0238-.0234l-.0755.0273.104.0251z"/><path d="m30.3328 44.2944-.0042.0047.0432-.0179z"/><path d="m25.4962 40.4806.0674.0014-.0633-.022z"/><path d="m29.7292 42.6621c.0128-.0215.0206-.0455.0229-.0703-.0114.022-.0191.0458-.0229.0703z"/><path d="m29.1072 42.1854-.0392-.1307c.0051.0455.0184.0898.0392.1307z"/><path d="m28.6747 41.7617-.0714.0691.0001.0017z"/><path d="m31.078 48.1572c-.0062.0005-.0121.0024-.0174.0055-.0053.0032-.0098.0075-.0132.0126-.0496.078.0001.0475.0306-.0181z"/><path d="m33.4663 46.7314c.0413.0415.0767.0884.1054.1395.0712-.0193.1104-.0429-.1054-.1395z"/><path d="m26.8191 48.5.0013-.0065-.0196-.0013z"/><path d="m33.4536 46.9348c.1218.0153.1402-.0137.1193-.0627-.0603.0144-.1438.0162-.1193.0627z"/><path d="m26.4945 40.282-.0209-.0183-.0118.0078z"/><path d="m26.4597 40.2705-.0327-.0107c.0119.0081.0229.0148.0327.0107z"/><path d="m26.3557 40.235.072.0246c-.0094-.0093-.0207-.0163-.0332-.0206-.0124-.0042-.0257-.0056-.0388-.004z"/><path d="m27.137 40.769.0386-.0297c-.0146.0074-.0277.0175-.0386.0297z"/><path d="m27.3533 40.8903c-.0404-.0419-.0515-.16-.1436-.1784l-.0325.0247c.0835-.0361.0717.1876.1761.1537z"/><path d="m27.6383 42.1292-.1134-.1878c-.0211.0809-.0528.1929-.1296.1367.0392.3609.068-.1641.243.0511z"/><path d="m28.0254 42.6767c-.1064-.0487-.0799.1005-.1161.1359.101-.01.1273-.0153.1161-.1359z"/><path d="m30.7553 44.8408-.5405-.0488c.1792.0259.3596.0422.5405.0488z"/><path d="m33.9344 45.6256.2179-.0054-.4058-.0899z"/><path d="m30.0137 45.0114-.1035-.0368.2614.1117z"/><path d="m25.8812 45.3585.0305.3919c.0566-.0736.0633-.5186-.0305-.3919z"/><path d="m22.6749 46.0045c.0047-.1535.006-.2513-.0628-.0992.0227.0203.0349.1393.0628.0992z"/><path d="m27.395 41.8108.0125.1287c.0203-.0674.037-.1359.05-.2051z"/></g></svg>
