<svg fill="none" height="54" viewBox="0 0 54 54" width="54" xmlns="http://www.w3.org/2000/svg" xmlns:xlink="http://www.w3.org/1999/xlink"><clipPath id="a"><path d="m8 11h37.871v32.8888h-37.871z"/></clipPath><g clip-path="url(#a)" fill="#8a2432"><path d="m17.4569 32.9963.0936.004c-.0296-.0132-.063-.0146-.0936-.004z"/><path d="m11.6575 37.0806c.0395-.0398.0445-.0734.0352-.0923-.0306.0459-.0552.0843-.0352.0923z"/><path d="m10.6112 37.7186.0618-.0389c-.0297.006-.0556.0179-.0618.0389z"/><path d="m17.457 32.996-.2397-.0136c.0799.1354.1451.0385.2397.0136z"/><path d="m19.7213 30.9156.0442-.0338c-.021-.0522-.045-.103-.0719-.1523z"/><path d="m21.5265 29.458c-.0483.0264.1178.1992.1825.285-.0532-.0882-.0593-.1459-.0388-.1894-.0437-.0378-.0919-.07-.1437-.0956z"/><path d="m18.307 31.8179c-.0315-.037-.0666-.0708-.1046-.1011.03.0384.0652.0724.1046.1011z"/><path d="m8.71692 39.0977.00998-.0055c.03883-.0503.01281-.0254-.00998.0055z"/><path d="m11.1561 43.8882c0-.0529-.0084-.1055-.025-.1558-.0051.0532.0035.1069.025.1558z"/><path d="m8.05707 40.5498-.05719.1297c.02285-.0414.04199-.0849.05719-.1297z"/><path d="m13.3474 43.606c.052.0218.0677.062.1438.0202-.0048-.0127-.0115-.0247-.0199-.0354-.0054.0112-.0136.0208-.0237.028-.01.0072-.0218.0118-.0341.0133s-.0248-.0001-.0364-.0046c-.0115-.0046-.0217-.0119-.0297-.0215z"/><path d="m23.3449 27.9341c-.0326.0295-.0675.0564-.1043.0803l.0207.0476c-.033.0433-.0984.1281-.1188.0929-.0596.1977.0526-.0083.0417.1215-.218.1678-.3318.6444-.5853.534.0464.1488.2333-.1373.1346.1335-.2952-.1208-.1524.2871-.4166.3825-.1028-.1762.1266-.2729-.1605-.205.1676.3168-.3907.2647-.4862.4331.2172.205-.1965.3954-.3722.6854-.0743-.0999-.6039.2775-.9511.3467l-.0401-.0566c.2369.3427-.0646.4853-.1816.7023-.1711-.2094-.2092-.3158-.1896-.4786l-.17.1294c.0287.0578.0418.1221.0378.1866-.0039.0644-.0246.1266-.0601.1805l-.1827-.2969c-.2184.1762-.2013.6604-.6522.6897.202.2918.8383.5634.674 1.0067-.1292-.1386-.3423-.3852-.3089-.5104-.0111.0403.0027.1997-.1015.1791l-.0735-.349c-.2217-.0067.0952.264-.0305.326-.1662-.2169-.2021-.0945-.32-.2779.0126-.0402.1658.0197.1406-.0961-.0986.0277-.2023.0327-.3032.0147-.1008-.018-.1963-.0585-.2793-.1187.1072.118.2277.2962.1584.3903-.2226.1852-.2842-.2107-.5085-.2307.0604.1962-.2098.1391.0391.4833-.0695.0483-.1999-.1024-.2943-.1763-.0104.2368-.5395.4443-.1353.7177l.049.002-.0092.0295c-.1566.6366-.9745.4013-1.27.8359l-.0771-.115c-.1477.304-.4781.4595-.4945.8154-.0728.0483-.3012-.0821-.3562-.2328-.1283.2135-.0719.3456-.4518.3593.0639-.3159-.1692-.1167.0994-.271-.2965.0795-.4563-.0434-.5278.4224-.007-.0526-.0319-.1011-.0704-.1375-.0385-.0365-.0883-.0586-.1412-.0627-.0528-.0041-.1055.01-.1492.0401-.0437.03-.0757.0741-.0908.1249l.2847.0617c-.0963.1102-.2177.1955-.3539.2489l-.1547-.3771c-.3661-.0149-.462.3383-.5749.6292-.1102.2961-.2497.5119-.5986.3983.0016.2956.3342-.0881.3748.237-.2478.1273-.703-.0401-.7624.0284-.3578.1496-.041.5843-.4019.7616.0404.019.0754.0479.1018.084.0263.0361.0432.0783.0491.1226.0058.0443.0004.0894-.0157.1311-.016.0417-.0424.0787-.0765.1076-.2466.1293-.4512-.0589-.3535-.2288.0466-.0502.0852-.0506.0983-.0261.0528-.0826.1206-.1938-.0116-.193l.0187.0929c-.1506.0238-.4276.299-.428.138-.1188.2004-.0025.1565.1369.0845-.3286.1528-.4196.3785-.7359.5688.0628-.0128.1444.0095.0988.0461-.4581.2878-.1249.2347-.3973.4818-.2093.0658-.0508-.196-.3015.0864-.20769.0989-.11558-.0743-.0699-.1645-.20153.2859-.53731.341-.71187.4691l.12357-.1509c-.06635.0775-.14072.1477-.22186.2095l.1482.0037c-.09783.0564-.16901.12-.19581.0877-.04319.1214.17487.0631.06795.2742-.14542.061-.27898.3414-.42192.2888.3471-.2729-.06118-.0967.09212-.2962-.05178.0541-.11036.1013-.17427.1404-.02475.0021-.0104-.0318.00839-.0573-.45253.2485-.03764.2461-.36363.6236-.03808-.1031-.22789.0077-.27329.0926.15041-.1761.19874-.0077.16197.1853-.25805.2732-.12478.3664-.18541.5484.03007-.0706.0668-.1382.10969-.2018.08451.0937.00337.2521.03617.5078-.03749.0103-.05448-.0195-.06267-.057.07161.2239-.21558.7506.15962 1.0555.05434.2496-.20561.2121-.12389.435.1807.0905.32462.2406.40742.4249.0295.084.08045.1588.1478.217.06734.0582.14875.0978.23612.1148-.00645-.3008-.03559-.2336.29627-.3198-.23754-.0528-.46572-.1412-.67676-.2623.18438.026.37195.0183.55359-.0226-.16739-.0945-.44829-.1195-.5382-.2602.28793.0124.22889.0211.25291-.1914.06283.4919.55198.099.69696.4424l-.25028.5895c.29861.5277.84441.0573 1.34491.3912l-.1457-.1763c.1492-.2448.3515.0629.5609-.0072-.0419.1706-.0169.3507.0698.5035.0271-.1741.4234.0896.5598-.3679l.1999.3388c.4503.1735.6149-.5968 1.0275-.4844-.1551.2328.0287.396-.2864.5594.1481.0082.2772.0464.2941-.1037.0756.1361.4288-.2783.5454-.084.0674-.0928.1009-.3082.2592-.289.0077.0331.0056.0678-.0061.0997.0069-.0991.2561-.1376.1286-.3566.4135.5882 1.2083-.0445 1.581.3099.3061-.0921.6698-.2127.9435-.271-.0047.0096-.0084.0195-.0112.0298l.1304-.0369.0603-.0158c.049-.0644.1139-.115.1884-.1466.0745-.0317.156-.0434.2363-.0339.2024.026-.1457.0807-.1061.0941l.3699-.1223-.0825.005c-.2479.0086-.5043-.0764-.4985-.1786.0021-.0366.035-.0646.0891-.0818-.2341-.074-.4625-.1648-.6835-.2717-.3895.0385-.7826.0096-1.1623-.0854-.1257-.0269-.248-.0681-.3643-.1228-.1726.0114-.3447-.0279-.4953-.113-.1299-.0732-.5262-.372-.8711-.6204-.0139.0406-.0198.0836-.0173.1265-.2753-.5904-.6849.0214-.8825-.2562l-.103.0121c-.0852.005-.1704-.0119-.2472-.0491-.0769-.0372-.143-.0935-.192-.1635-.4678.0732-.9406.1093-1.4141.108.2002-.4822.6365.0807.7785-.4629-.2861.0662-.5436.1861-.7964.2573-.2192.083-.46128.0825-.68008-.0016-.06034-.0625.14637-.1579.21484-.224-.24618.0547-.3052.0888-.37843.0908-.07278.0098-.16972-.0129-.26214-.2102.02607.008.05462.0521.08494.0829-.0205-.0551.01362-.1266-.09695-.1641.00757.0275.01917.0537.03442.0778-.08038.0253-.19795-.0593-.24267-.1958-.05947-.1336-.04643-.2957-.08099-.3245.19185.2995.2929-.3848.47816.0516.00703-.0652.00805-.1587-.05023-.1868.06385-.0672.10778-.0671.11637.0566.13546-.3159.00102-.2847.21103-.5248.02813.0309-.0038.0905.00996.1499.01839-.1045.05894-.2039.11893-.2915.06-.0876.13805-.1612.22894-.2161.0022.0292.0468.0338-.01762.0844.37052-.297.55022-.6694 1.05882-.8929-.0215.2487.2005-.0388.3338.1013l.2342-.1761-.1617-.0267c.2351-.1112.3403-.361.5852-.396l-.121.1634.4174-.2451-.3013.0422c.1619-.2278-.1981-.2442.1389-.3605-.0444.0597.222-.1347.436-.055l-.0005.0009c.0627-.1373.1186-.293.3291-.3214.1017.0645.1616.3198.2286.3629-.0364-.2862.5163-.316.4752-.6736.0153.1078.0641.208.1396.2864l-.0465-.2671c.1515.0125.1904.0404.2619.1866.3518-.1222-.3752-.3679.123-.3884-.0176.035.0195.0626-.0202.1304.4522-.0945.6296-.56 1.053-.6387.3535.3283-.2415.2663.0845.5218.4675-.3346.7284-1.0592 1.2682-1.2532l-.12.0071c-.3325-.6377.553.0822.6046-.3511-.0281.0821.1512.3865.1214.3088.3957-.1035.574-.5551.9082-1.0922l.0548.2026c.2889.0145.5492-.2624.7995-.337-.0573-.2025.0719-.2647-.1649-.4418 1.2644.4049.7751-1.3505 1.8154-1.131-.0585.0564-.0425.2523.0052.2083.1081-.1726.2096-.3542.3092-.536-.2206-.1839-.167-.0756-.4008-.1628-.0318-.08-.0416-.167-.0285-.252.013-.085.0486-.165.1028-.2318-.0632.3142.3027.3423.4836.3734-.07-.0502-.1056-.1476-.1699-.2054.5385.1483-.333-.4433.1799-.4808l.0782.1158c.0603-.1598.0322-.3917.1734-.4795.2454.1544-.018.2136.1412.3956.1384-.1983-.0627-.7134.2713-.6746-.0127.1241-.107.2294-.119.3573.3819.0577.3369-.0284.4797-.1287l-.0153.0087c.1156-.0722.2257-.1528.3295-.2411l-.114.0346c-.284-.6588.2615-.5736.2251-1.1131.018.5031.106.1687.257.3289.1014-.0476.2179-.1556.2443-.0776-.0069-.0357-.0066-.0725.0009-.1082-.0665-.1141-.0459-.3441.1095-.6474.1599-.3696.3006-.7472.4217-1.1313-.044.0413-.0936.0763-.1472.104z"/><path d="m17.5655 33.0011-.0159-.0001c.0205.0071.0395.0179.0561.0319z"/><path d="m20.9985 31.876c.0261.0196.0576.0306.0902.0315-.0273-.0173-.0581-.0281-.0902-.0315z"/><path d="m22.0334 30.7753c.0676-.0325.1332-.069.1965-.1093-.0684.031-.1341.0675-.1965.1093z"/><path d="m22.7722 29.8694c-.0157-.0276-.0347-.0533-.0566-.0764l-.0022.0011z"/><path d="m9.28235 40.6934.01689.0201c.05453.0444.02783.0183-.01689-.0201z"/><path d="m12.6117 37.3652c-.024.0586-.0558.1137-.0947.1636.0933-.0289.1617-.0571.0947-.1636z"/><path d="m12.295 37.637c.0425-.0019.0841-.0126.1223-.0313.0381-.0187.0721-.045.0996-.0774-.0824.0155-.1591.053-.2219.1087z"/><path d="m22.7802 28.5503c.0909-.0871.1733-.181.2573-.275-.07.0332-.1756.0657-.0694-.0653-.4185.2823.1375-.0254-.1879.3403z"/><path d="m21.8862 29.3005c.1235-.1527-.0928-.0744-.1218-.113-.0423.1251-.0475.1618.1218.113z"/><path d="m15.2667 34.276-.169-.2926c-.0967.1344.0703.1092.169.2926z"/><path d="m14.8059 36.5266.2364.0851-.0888-.2699z"/><path d="m12.9175 35.3692.0312-.0792-.144.258z"/><path d="m23.8137 42.8612-.0664-.0507c.0146.0251.0384.0433.0664.0507z"/><path d="m29.5141 41.9219c-.0421.0179-.0566.0457-.0556.0667.0374-.0273.068-.0506.0556-.0667z"/><path d="m30.4979 41.835-.0586.0059c.0241.0084.0472.0098.0586-.0059z"/><path d="m23.8129 42.8604.1696.1327c-.0061-.1568-.0911-.1065-.1696-.1327z"/><path d="m21.2984 43.3547-.0474-.0002-.0253.1642z"/><path d="m19.3297 43.2841c.0454.0156.0443-.2238.0538-.33-.018.0996-.0476.1448-.0854.1609.0044.0573.015.114.0316.1691z"/><path d="m22.7135 43.4189c.0067.0475.0173.0943.0316.1401-.005-.0478-.0156-.0948-.0316-.1401z"/><path d="m32.2977 41.6633-.0083-.0022c-.0439.0138-.018.0113.0083.0022z"/><path d="m36.5476 41.6366c-.0184-.0481-.0428-.0937-.0726-.1356.0151.0495.0398.0956.0726.1356z"/><path d="m33.3256 41.3789.0836.0263c-.0259-.0142-.0543-.0231-.0836-.0263z"/><path d="m37.9996 40.7169c.0453.0088.068.0441.1137-.0144-.0069-.0109-.0152-.0209-.0247-.0296-.0108.0464-.0327.075-.089.044z"/><path d="m17.3758 42.829c.0349.0108.0687.0247.1012.0415l.0227-.0437c.0441.003.1312.0098.1171.0463.16-.0613-.0298-.0388.0612-.1025.2169.1001.5757-.1049.639.1526.0678-.1306-.2077-.0924.0118-.1889.0832.304.2566-.0649.4584.0766-.0467.1922-.2374.0768-.0325.2545.0955-.3221.3828.0962.5434.0493-.0135-.3061.3463-.122.612-.2359-.0085.122.5301.1974.7986.3552l-.0019.0694c.0159-.4164.2848-.345.4678-.4451.0185.0851.0187.173.0007.2582-.018.0851-.0538.1655-.105.2359l.1808.0012c.0054-.0588.026-.1152.0597-.1637.0338-.0485.0795-.0874.1328-.1129l-.0155.3459c.2407-.0079.4469-.422.7777-.1896-.0161-.3538-.3314-.9384-.032-1.2087.0296.187.072.5103-.0054.5941.0253-.0268.084-.1655.1474-.0895l-.0995.3282c.153.1311.0481-.2708.1622-.2503.0236.2724.1012.1884.1058.4065-.0261.028-.1083-.1064-.1411.0022.0871.0369.1652.092.2291.1617.0639.0696.1121.1522.1413.2421-.0264-.1569-.036-.3718.0529-.4139.2371-.0363.1148.33.2691.4671.0389-.1976.2123-.0047.1735-.4277.0701-.0032.1031.1931.1419.3055.1048-.1958.572-.1098.3848-.5487l-.0347-.0265.0182-.0208c.357-.4658.8633.1458 1.2419-.0967l.0154.1375c.2195-.1934.5181-.1773.6534-.4837.0703-.0085.1948.2129.1838.3714.1695-.1289.1721-.2701.4602-.1071-.1545.2505.0874.182-.1665.1934.2495.0689.3276.2459.537-.1353-.0456.3287.2279.3519.3273.2344l-.1933-.1829c.1073-.0545.2283-.0761.3479-.0623l-.0079.4051c.2717.1777.4589-.0942.638-.3025.1783-.2162.352-.3487.5773-.0922.0927-.2646-.2786-.0695-.2056-.3776.2259-.0038.5143.3473.5808.3125.3159.0247.2159-.5036.5423-.4981-.0245-.0332-.0416-.0713-.05-.1117-.0083-.0404-.0079-.0821.0014-.1224.0092-.0402.027-.0779.0522-.1106.0252-.0326.0572-.0595.0937-.0786.2257-.0058.3184.253.1915.3612-.0509.0241-.0797.0073-.0816-.0204-.0658.0501-.1517.1192-.0527.1773l.0155-.0912c.12.0457.4141-.0766.363.0673.1525-.1257.0519-.1385-.0751-.1363.2936.0105.4335-.1421.7301-.1655-.0507-.0177-.1039-.075-.0582-.0863.4337-.0425.1695-.1498.4534-.237.1765.0424-.0282.1954.251.0685.1859.0129.0594.1202-.0042.1771.2479-.1551.5051-.0433.6614-.0479l-.1345.0595c.0699-.0302.1444-.0483.2203-.0535l-.0974-.085c.0858.0051.1564-.0023.162.0382.0747-.0732-.0936-.1527.0609-.2604.1196.0372.3273-.0958.3912.0429-.3319-.0192-.0041.1108-.1813.1642.0543-.009.1099-.0073.1637.0047.0155.0155-.0069.0292-.0287.0373.3644.1289.1268-.1675.4798-.1701-.0285.091.1138.174.1704.1673-.147-.023-.0975-.1599.0195-.2345.2435.0904.2365-.0541.3569-.0457l-.1434-.0415c.0252-.1111.1402-.1024.2893-.1498.0057.0121.0064.0259.0019.0385-.0044.0126-.0136.0229-.0257.0287.145-.1125.4196.2645.6147.1213.1341.105.0657.2826.1813.3627.2399-.1845.3524.2709.6114.1088-.1334-.2487-.134-.1797.022-.4216-.1447.063-.2934.1165-.4451.1599.0867-.107.1666-.2193.2393-.3363-.1416.0093-.2723.1552-.3663.1151.1104-.1789.1047-.1307.0015-.3079.2621.3347.3399-.246.6103-.0269l.1195.629c.4045.3016.5364-.3589 1.0004-.2669l-.1636-.0979c-.0002-.2867.2569-.0857.3709-.2293.0321.1649.1125.3166.2311.4357-.0441-.171.3141-.0614.252-.5359l.2539.2524c.3654.0191.246-.7517.5886-.7611-.0451.2634.1361.3687-.0424.6098.1082-.0341.2138-.0283.1821-.1769.0928.1097.2355-.3776.3786-.2158.0249-.105-.0085-.3206.1164-.341.0147.0304.0222.0637.0218.0974-.0219-.0984.1592-.19.0036-.3731.4647.4684.9246-.2949 1.3018-.0125.2192-.1541.4473-.2951.6831-.4225l-.0025.0308.0955-.0561.0446-.0248c.0677-.1004.0614-.1983.3-.2403.1663-.0043-.0993.1003-.0651.1076l.2692-.1741-.0646.0171c-.1956.0447-.4174-.0005-.4341-.1008-.0016-.0192.0027-.0385.0124-.0552.0096-.0167.0242-.0301.0416-.0384-.2044-.0377-.4057-.0903-.6025-.1575-.3053.1026-.6278.1446-.9492.1239-.1088-.0027-.2168-.0182-.3219-.046-.1387.046-.2885.046-.4271 0-.1232-.0409-.5224-.2344-.8849-.3723.0008.0429.0088.0852.0237.1254-.412-.4855-.5588.2268-.8125.0368l-.0808.0471c-.07.0356-.1484.0515-.2267.0459-.0783-.0057-.1536-.0325-.2178-.0778-.3899.2669-.7421.5079-1.0789.7384-.0858-.5162.5306-.2449.3966-.7825-.4161.3847-.5949.9266-1.0737 1.0075-.1275.0016.0293-.2209.0535-.3155-.4158.4127-.869.4725-1.2441.8354-.0036-.0262.0348-.0762.0719-.1196-.0782.0495-.1924.0567-.1611.1729l.0721-.0712c.1657.1384-.2549.4992-.2587.5663.0844-.3512-.43.0484-.2729-.3866-.0498.0429-.11.1092-.086.1696-.0842.0061-.1158-.0199-.0474-.1207-.2853.1536-.1635.2145-.4355.2797-.0063-.0412.0458-.0702.0653-.1262-.0609.07-.1355.1266-.2193.1664s-.1749.0619-.2676.0648c.0098-.0263-.0226-.0526.047-.0641-.3981.0754-.6476.3174-1.1056.2761.0987-.2098-.1628-.058-.2164-.243l-.2342.048.1128.0978c-.2137-.0105-.3739.1618-.568.0859l.1431-.0921-.3916.0334.2394.0961c-.1942.1314.0703.3058-.2192.26.0523-.0332-.2091.0216-.3449-.1468l.0006-.0008c-.0907.0934-.1816.2086-.3484.1403-.0557-.1026-.0198-.3571-.0562-.4252-.0635.2716-.4867.053-.5691.3905.0225-.1053.0178-.2146-.0137-.3176l-.0496.2594c-.109-.0778-.1292-.12-.1361-.2823-.3003-.0461.1629.4954-.2148.2924.0243-.0233.0054-.0644.0567-.107-.3666-.1187-.6479.2157-.9861.0942-.1539-.4516.2639-.1276.106-.502-.4493.0897-.8797.6092-1.3385.5245l.0895.05c.0241.717-.3732-.3296-.5573.0218.0318-.1064.0383-.2188.0192-.3282-.3175-.102-.5997.2126-1.0332.5003l.0357-.2017c-.1974-.1592-.4802-.0539-.6811-.1173-.0369.2031-.1501.1856-.0542.4614-.6994-1.0155-1.0785.7143-1.6846-.07.0625-.0122.1354-.1809.0857-.1728l-.4316.2439c.0597.2798.0732.1618.1868.3736-.0417.181-.1581.3252-.2702.3359.1872-.2092-.0402-.4551-.1394-.5907.0217.0825-.0003.1812.0142.2661-.274-.4472.0059.5542-.3422.2694l.006-.1396c-.1141.0893-.2114.2767-.3445.2526-.0756-.2772.1178-.1495.1072-.3909-.1785.0599-.3187.5766-.5039.3269.0719-.0845.1829-.1007.2543-.1885-.2035-.2961-.2171-.2021-.3528-.2219l.0134.0038-.3141-.0545.083.0566c-.1826.6623-.4518.2207-.7352.618.2777-.3588.0372-.1919.046-.4107-.0817-.0404-.2031-.0653-.1734-.134-.0151.0268-.036.05-.061.0679-.0293.1237-.1724.2539-.4347.3268-.3566.1007-.6933.2307-.9257.3019.048.0139.0935.0355.1347.0639z"/><path d="m23.7359 42.8036.0116.0082c-.0125-.017-.022-.0359-.0283-.0559z"/><path d="m20.905 41.8165c-.0068-.0301-.0216-.0577-.0427-.0802.0088.0293.0234.0565.0427.0802z"/><path d="m19.7427 41.99-.1701-.0535c.0537.0264.111.0445.1701.0535z"/><path d="m18.8476 42.1094c-.0068.0309-.0107.0625-.0117.0942l.0018.0007z"/><path d="m33.0374 40.1766.0308-.0251c.0695-.0761.0206-.0341-.0308.0251z"/><path d="m28.8892 41.2438c.036-.0406.0781-.0754.1247-.1031-.0802-.0167-.1412-.0227-.1247.1031z"/><path d="m29.2138 41.1425c-.0308-.0169-.0652-.0259-.1004-.0263-.0351-.0003-.0697.008-.1008.0242.0649.0235.1358.0243.2012.0021z"/><path d="m18.0576 42.9503-.3095-.0567c.0558.0393.1302.1085-.0099.094.3969.1871-.0855-.0973.3194-.0373z"/><path d="m19.0214 43.1396c-.1637.0205.0098.1185.0043.1664.1009-.0587.1246-.0808-.0043-.1664z"/><path d="m25.8981 42.8018.0247.3366c.1195-.0735-.0148-.129-.0247-.3366z"/><path d="m26.9856 41.0132-.1476-.1812-.0216.2796z"/><path d="m28.0258 42.8879-.048.0576.1907-.1691z"/><path d="m44.5856 34.1582.0097.0963c.0096-.0322.0061-.0668-.0097-.0963z"/><path d="m39.1527 30.8138c.0472.0145.077.0029.0896-.014-.0492-.0042-.09-.0069-.0896.014z"/><path d="m38.2544 30.2294.0541.0335c-.0154-.0222-.0343-.0384-.0541-.0335z"/><path d="m44.5857 34.1577-.033-.2475c-.1185.1024-.0079.1524.033.2475z"/><path d="m45.1849 37.4746-.0348.0549.1138.1264z"/><path d="m43.2175 39.0446c.0565-.0083-.0387-.2282-.0715-.3298.0211.0997.0069.1556-.0273.1885.0265.0513.0597.0988.0988.1413z"/><path d="m45.735 35.4667c.0476-.0112.0934-.0293.1359-.0536-.0482.0096-.0942.0278-.1359.0536z"/><path d="m36.5925 29.1807.0058.0071c.0466.0177.0227.0029-.0058-.0071z"/><path d="m32.849 26.4883c-.0129.0502-.0189.102-.018.1538.0168-.0494.023-.1018.018-.1538z"/><path d="m35.525 28.7401-.0567-.0741c.0141.028.0333.0532.0567.0741z"/><path d="m31.0026 26.3263c-.0351-.0347-.0342-.0771-.1102-.0578-.0004.0131.0011.0263.0043.039.0376-.0309.0743-.0406.1059.0188z"/><path d="m40.9904 39.2149c.039.0032.0777.0095.1156.0189l.0157-.0479c.0473-.0066.1411-.019.1335.0197.1575-.0965-.0394-.0311.0444-.1143.2526.0506.5819-.2426.7112-.0122.0389-.1451-.2412-.0326-.0343-.1863.1655.2697.2509-.1364.4985-.0709.0098.1997-.2291.1552.0419.2542.0025-.3364.4395-.0493.6018-.1724-.1324-.2749.3185-.2721.5237-.5406.0518.1237.627-.1766.974-.3384l.0468.0515c-.2751-.3138-.0088-.5023.0285-.7522.2298.1403.3023.2313.3188.4093l.1398-.2041c-.0455-.0496-.0785-.1092-.0964-.174s-.0202-.1329-.0068-.1987l.2855.1983c.1584-.3289-.1107-.7313.1937-1.1237-.3522-.02-.9867.1337-1.1962-.1868.1894.0016.5161-.0022.5852.1043-.0228-.0367-.1463-.1213-.0657-.1818.1067.0499.21.1067.3093.17.1564-.1752-.256-.1046-.2273-.2344.2735-.0018.1942-.111.412-.1024.0268.0408-.1124.1372-.0066.1963.0732-.2145.2126-.4002.398-.5305-.1547.0437-.3655.0568-.4282-.0637-.0974-.3328.2992-.2024.373-.4728-.2069-.0268-.1252-.3376-.5088-.1506-.0437-.0899.1217-.2048.1997-.2999-.2456-.0972-.5574-.6625-.7734-.2095l.0038.0501-.0309-.0069c-.6169-.0687-.6027-.8574-1.1021-.9621l.0778-.1144c-.3127-.0091-.5499-.2252-.8633-.0869-.0643-.042-.0239-.2963.0886-.4091-.2254-.0199-.3204.0874-.4568-.2335.2932-.0852.0445-.1982.2663-.0338-.1662-.2216-.1157-.4128-.5391-.2664.2512-.2186.0374-.4266-.1231-.4042l.0442.2723c-.1261-.0329-.2413-.0984-.334-.1899l.2688-.3046c-.1152-.3208-.4502-.2403-.7362-.2022-.2902.0442-.5225.0289-.549-.3212-.2484.1405.1917.2423-.0681.4296-.1938-.1501-.2133-.6159-.2922-.634-.2548-.23-.5076.2453-.7822.023-.0007.0424-.0112.084-.0305.1217-.0194.0377-.0472.0704-.0812.0956-.034.0253-.0734.0423-.1151.0499s-.0845.0055-.1253-.0061c-.1945-.1482-.1104-.4081.0674-.4083.0586.0155.0723.0482.0564.0708.0875.0057.2046.0105.1574-.1013l-.0712.06c-.072-.1179-.4027-.2167-.2672-.2949-.2103-.0038-.1323.073-.0222.1556-.2448-.2031-.4613-.178-.7303-.3563.0325.0469.0416.1272-.0046.1055-.4005-.2504-.2413.0067-.5395-.1132-.1245-.15.1473-.1334-.1719-.2197-.1512-.1331.0247-.1329.1152-.1351-.3096-.0449-.4628-.2974-.6006-.3961l.1536.0409c-.0796-.0219-.1552-.0562-.2242-.1016l.0309.13c-.0711-.0598-.1368-.1-.1162-.1353-.1103.0087-.0146.1805-.2157.1643-.0802-.107-.3424-.1387-.3115-.2885.2753.231.0732-.0848.2595-.0104-.0521-.0288-.099-.0662-.1387-.1107-.0038-.0222.0242-.0184.0482-.0106-.2356-.338-.2145.049-.5221-.1783.0813-.0531.0096-.2107-.0438-.2423.1134.1136-.0149.189-.1627.1716-.1547-.23-.2397-.1091-.3391-.1931l.0994.1241c-.0911.0716-.186-.0085-.3456-.066.0015-.0066.0043-.0129.0083-.0184s.009-.0102.0148-.0138c.0059-.0035.0123-.0058.0191-.0068.0067-.001.0136-.0007.0202.001-.1969-.0023-.2017-.4793-.4605-.4919-.0527-.1685.1169-.2655.0649-.4026-.3243-.0068-.1425-.4393-.4701-.4763-.0356.2823.007.228-.2784.3204.166.0423.3293.0947.489.1569-.1412.0293-.2804.0674-.4168.1142.1299.0827.3342.0503.3919.142-.2071.0714-.1722.0369-.191.243-.0239-.4319-.4484-.0217-.5511-.3664l.2809-.5756c-.1739-.4918-.6914-.057-1.0458-.4203l.0854.1802c-.1747.2291-.2799-.0917-.4681-.048.072-.1537.093-.3263.0599-.4927-.0646.1642-.3164-.1468-.5482.2707l-.0725-.3603c-.3137-.2428-.6721.4492-.9817.2449.1989-.1844.101-.3813.4049-.4638-.1165-.0405-.2076-.1094-.2688.0297-.017-.145-.4376.1608-.4682-.0569-.0852.0695-.1844.2634-.3076.2024.005-.0334.0184-.0651.0388-.092-.0394.0929-.2548.0542-.2263.2981-.1293-.6629-1.0106-.3273-1.1597-.7793-.2646-.0016-.5272-.0457-.7778-.1305l.0245-.0184-.0999-.0349-.0445-.0194c-.1146.0051-.2074.0692-.354-.1378-.0659-.1539.1307.0543.1254.0149-.093-.0542-.1785-.1203-.2545-.1965l.0345.0606c.0923.1824.1919.4005.1187.4708-.0182.0119-.0398.0174-.0614.0159-.0217-.0016-.0422-.0103-.0584-.0247.107.2288.2327.4485.3758.6567.3413.1521.6674.3364.9739.5504.0944.0676.1812.1454.2586.2321.1494.0461.2814.1362.3787.2586.0841.1096.3204.5121.558.8411.0249-.0349.0433-.0741.0542-.1156.0713.6421.6265.1624.735.4711l.0993.0121c.0822.0144.1592.0497.2238.1024s.1147.1212.1453.1987c.48.0268.945.0416 1.3892.0855-.2403.4649-.6103-.1401-.8206.3728.593-.0424 1.0828-.3661 1.548-.1257.1117.0794-.1611.1567-.2401.2165.6153-.0671 1.0412.1817 1.5927.1311-.0131.023-.0775.038-.1365.0488.0984.0104.2021.0774.2468-.0339l-.1064.0101c-.0574-.2161.5301-.2292.575-.2786-.2911.2213.4013.2405-.005.4806.0696-.0016.1627-.0148.1796-.0777.0764.0497.0876.0907-.0341.1256.3416.0635.2743-.0622.5494.0632-.0205.0364-.0834.0253-.1351.0566.1983-.0302.4007.0181.5639.1348-.025.0142-.0136.0557-.0807.0197.3914.1961.7528.1804 1.121.5096-.2174.0992.1031.1512.0313.3314l.2296.1176-.0339-.1505c.1751.1494.421.1218.538.3091l-.1802-.0232.3532.235-.1415-.2348c.2482.0279.135-.2842.3509-.0539-.0656-.0093.1907.1245.199.3438l-.001.0002c.1368-.0121.2878-.0407.3861.1227-.0185.1161-.2118.2889-.2244.3656.2273-.167.4432.2869.7293.0829-.0862.0652-.1528.1529-.1924.2534l.2084-.1659c.0232.0519.0292.1098.0172.1653s-.0415.1058-.0841.1433c.2227.2379.1817-.4906.3684-.0794-.0353.0015-.0461.0458-.1163.0439.2308.3392.6843.2708.8879.5952-.164.4495-.3024-.083-.413.3109.4293.2405 1.1283.1345 1.4532.5157l-.0416-.0996c.4479-.5609.0954.5071.4759.3665-.0768.011-.2887.2942-.2301.2357.1889.2987.5944.2171 1.0547.3171l-.1694.1108c-.0119.2297.1741.3302.1573.4679.1842-.0809.1956.0017.4221-.1775-.3918.4488-.2407.3945-.041.5932.1962.157.3239.4834-.1257.5346.0111-.0481-.1277-.1536-.1334-.1203.0371.123.0578.2504.0618.3788.2649.1081.1674.0383.4042.0579.063.0438.1104.1066.1351.1792s.0255.1512.0023.2244c-.0654-.2763-.3946-.2224-.5522-.2512.0774.0356.1434.1101.2187.1522-.5025-.0958.4338.3553-.0195.4226l-.094-.1029c-.0126.1376.0343.3472-.0912.4137-.2277-.1729.001-.1889-.1665-.3671-.0709.1369.0974.6539-.2044.544.0205-.1083.1017-.1855.1091-.2955-.3282-.135-.2795-.0571-.3995-.0092l.0124-.003-.2807.0852.0947.0176c.1311.6754-.306.3843-.4518.8472.1617-.4341-.025-.1936-.0839-.404-.0918-.0135-.2136.0002-.206-.0745-.0062.0302-.0193.0585-.0383.0829.0083.1264-.094.2971-.3462.4361-.3238.181-.6281.3511-.9075.5074.0531.0034.1055.0149.1551.0341z"/><path d="m44.5974 34.2693-.0019-.0164c-.0045.0215-.0131.0419-.0254.0601z"/><path d="m43.6907 36.9283c-.0266-.0135-.0559-.021-.0857-.0221.027.0125.056.0199.0857.0221z"/><path d="m43.0424 37.6855-.1625.027c.0554.0011.1105-.008.1625-.027z"/><path d="m42.3136 38.1367c.0039.0315.0105.0626.0198.0929l.0019.0002z"/><path d="m35.0306 29.8734c-.014-.0018-.0283-.0018-.0423.0002-.1075.016-.039.0139.0423-.0002z"/><path d="m39.2494 31.7587c-.0566.0074-.1139.0065-.1702-.0028.057.0654.1046.1101.1702.0028z"/><path d="m38.9105 31.6182c.0156.0343.039.0645.0683.0882s.0638.0403.1006.0484c-.0409-.0618-.0999-.1095-.1689-.1366z"/><path d="m41.7405 39.1738-.3419.0202c.0673.0257.1613.0759.0086.0943.4639.0874-.1116-.0727.3333-.1145z"/><path d="m42.8283 39.0469c-.1716.0843.0491.1082.0599.1552.093-.0969.1091-.1272-.0599-.1552z"/><path d="m42.7776 32.5928.1987-.273c-.1481-.0269-.0717.1083-.1987.273z"/><path d="m40.7067 33.2109.006.2388.1979-.1992z"/><path d="m41.0367 31.0706.078-.012h-.27z"/><path d="m28.4929 20.623-.0604.0412c.0247-.0054.0464-.0201.0604-.0412z"/><path d="m28.5878 16.3174c.0025.0132.009.0253.0186.0348.0096.0094.0219.0156.0352.0179-.0187-.0323-.0354-.0592-.0538-.0527z"/><path d="m28.6746 15.5566-.0036.0457c.012-.0175.0171-.0351.0036-.0457z"/><path d="m28.4924 20.6243.1573-.1047c-.1556-.0183-.119.0511-.1573.1047z"/><path d="m28.6146 22.5303-.006.0345.1594.0396z"/><path d="m28.2893 23.9646c.0214-.0315-.2119-.0584-.3143-.0779.0949.0249.1349.052.1455.0816.0563.0034.1127.0022.1688-.0037z"/><path d="m28.8796 21.5043c.0477.0017.0955.0004.143-.0037-.0476-.003-.0955-.0017-.143.0037z"/><path d="m28.55 14.042-.0012.0078c.0192.0367.0135.0141.0012-.0078z"/><path d="m26.0866 10.999c-.0056.0512-.0053.1029.0011.1539.0097-.0508.0093-.1031-.0011-.1539z"/><path d="m28.0235 13.2631-.0098-.0776c-.0022.0263.0011.0527.0098.0776z"/><path d="m24.5414 11.3949c-.0368-.0188-.0504-.0581-.0996-.0119.0039.012.0093.0235.0161.0343.0168-.0426.0412-.0653.0835-.0224z"/><path d="m27.8079 25.3326c.0019-.0279.0073-.0554.0162-.0818l-.0432-.0046c-.0065-.0318-.011-.0956.0244-.0928-.0751-.1019-.0321.0294-.102-.025.0678-.1669-.1234-.4295.1371-.4706-.1267-.0542-.1008.1501-.187-.0149.3071-.0458-.0488-.1935.1123-.3326.1831.0543.0549.178.2468.0491-.3054-.1006.1312-.2676.1081-.3904-.2995-.0255-.0744-.2693-.1529-.4785.1198.0208.2596-.3667.4535-.5437l.0684.0102c-.4102-.064-.304-.2528-.3799-.4003.1696-.0072.3369.0421.4756.14l.0232-.1325c-.1388-.0408-.2089-.0873-.2489-.1768l.339.0561c.0214-.1769-.3529-.3826-.0764-.5938-.3514-.0362-.9754.1178-1.1984-.1397.199-.0129.3985.0159.5858.0844-.0228-.0223-.1513-.0842-.0672-.1205l.3099.1176c.1509-.0946-.2606-.072-.2241-.1531.2721.0197.2006-.0486.4165-.0223.0236.0229-.121.0649-.0182.1037.1169-.1286.2797-.2061.4532-.2157-.1591-.0023-.3725-.0247-.401-.0956-.0019-.1785.3427-.0384.5004-.132-.1895-.0557.0252-.1553-.3982-.1864.0069-.0517.2061-.0482.3232-.0605-.1766-.1041-.019-.4325-.4814-.3591l-.0316.0216-.0176-.0163c-.402-.3292.2748-.6103.1012-.9221l.138.0096c-.1533-.1894-.0873-.4047-.3663-.5511.0035-.0528.2425-.109.3968-.0762-.0983-.1435-.2373-.1681-.0277-.352.2198.1523.1937-.0347.1619.1519.1091-.1708.2997-.1985-.038-.412.3144.0859.3879-.1083.2883-.1995l-.2135.1106c-.0344-.0842-.0349-.1785-.0012-.263l.3961.072c.2169-.1677-.0026-.3465-.1791-.5116-.1782-.1652-.2743-.3141.0205-.4331-.2416-.1124-.1218.1898-.4099.0845.0398-.165.4395-.313.4182-.3669.0856-.2242-.4532-.2435-.3827-.4805-.0801.0258-.3219.039-.3945-.1456.0161-.0363.0408-.0681.0718-.0929.0311-.0247.0676-.0416.1066-.0493.0389-.0076.0792-.0057.1172.0055.0381.0112.073.0314.1016.059.0127.042-.0103.0603-.038.0568.035.0571.0835.1326.1626.0699l-.0861-.0275c.0723-.0796.016-.322.1472-.2597-.1001-.1368-.1282-.0618-.1516.0339.0678-.2204-.0703-.3514-.042-.5847-.0262.0377-.0923.0714-.0955.0348.0264-.3418-.1252-.148-.1739-.3729.0615-.1349.1934.0342.095-.1937.028-.1481.1246-.0454.1765.0101-.1336-.2064-.0145-.4191-.023-.5574l.0599.1129c-.0296-.0589-.0487-.1225-.0563-.1881l-.082.0908c.0037-.0734-.0074-.1333.0324-.1423-.0761-.0549-.1467.0937-.2605-.0201.0354-.1065-.1314-.2457-.0009-.3309.0249.2833.1071-.0187.187.1231-.0185-.0455-.0254-.095-.0199-.1438.013-.0171.0295.0001.0403.0182.0684-.3574-.1652-.0838-.2537-.3754.0967-.0055.1299-.1522.1064-.2013.0235.1369-.1226.136-.224.0678.0116-.2392-.1155-.1785-.1552-.2721l.0152.1303c-.1057.0263-.1423-.0603-.2384-.1495.0073-.0103.0182-.0176.0306-.0205.0124-.0028.0253-.0011.0365.005-.1444-.0488.0556-.4703-.1731-.5284.011-.1623.1892-.2184.1848-.3559-.2807-.0714-.0275-.4264-.3206-.5267-.0832.2726-.0414.2187-.304.2796.1344.0601.2653.1278.392.2029-.1307.0102-.2604.0313-.3876.0632.0862.0898.2724.0765.2977.1668-.1983.0425-.1561.019-.2305.1999.0892-.3885-.3493-.0532-.3594-.3637l.3364-.543c-.1119-.4927-.6139-.0624-.9086-.371l.0753.1694c-.1466.2381-.2371-.0544-.3948.023.0529-.1586.0573-.3294.0126-.4906-.0375.1668-.2972-.0831-.4297.3815l-.114-.3292c-.3136-.1534-.4453.6273-.7053.5362.1002-.2394-.0282-.3913.1888-.5718-.1032.0021-.1943-.0334-.2025.1201-.0592-.1253-.2793.3187-.3671.128-.0391.0976-.0448.3084-.1479.3064-.0081-.0326-.0098-.0664-.0052-.0996.0034.1-.1511.1623-.0477.3672-.1566-.285-.3613-.2231-.5391-.1361-.1824.081-.3472.1576-.5117.0441-.1776.1246-.3541.3317-.4927.4477l-.0048-.029-.0631.0631-.0293.0286c-.0266.1054.0055.1935-.1615.2691-.1267.0301.0473-.1018.0199-.1026l-.1554.1918.0443-.0244c.1372-.0696.3104-.0693.3487.0202.0066.0144.0088.0304.0064.0461-.0025.0156-.0095.0302-.0202.0418.161.0123.3186.0529.4656.12.1891-.0965.4043-.1293.6136-.0936.0745.0164.1459.045.211.0848.0477-.011.0975-.0096.1444.0042.047.0137.0897.0392.1241.0741.167.1665.3188.3475.4538.5408.0063-.0419.0089-.0844.0076-.1268.1118.5881.3249-.0805.4031.1936l.0499-.0191c.0877-.0317.1582.0399.1798.168.2384-.1189.4944-.1984.7581-.2356-.244.4382-.3263-.0108-.5332.5063.1536-.1171.314-.2251.4802-.3236.1718-.1042.3186-.1332.4294-.0592.0388.0592-.1572.1395-.2251.2037.3911-.1097.5245.0934.9083.117-.0372.0129-.0765.0186-.1157.0168.0594.0165.0739.0828.1742.0124l-.0717-.0108c.0903-.1724.4821-.0566.5519-.0672-.3268.0672.0982.2741-.3287.3116.0256.0129.0537.0197.0823.02.0286.0004.0569-.0058.0828-.0181.013.0529-.01.0781-.1119.0654.1687.133.226.0432.2983.2126-.0404.0108-.0706-.0189-.1261-.0209.0642.0193.1207.0584.1613.1118.0405.0534.063.1184.0643.1854-.0258-.005-.0529.0188-.0621-.0274.0568.2597.268.4517.1593.7763-.1965-.0903-.0797.1086-.2715.1242l.0033.1674.1184-.0652c-.0489.1467.0835.287-.0242.4138l-.0668-.1167-.0364.2847.1388-.1553c.0948.1616.3177.0012.2159.2028-.0224-.0438-.0199.1554-.2108.2249l-.0008-.0007c.0741.0828.1694.1692.0702.279-.1113.0228-.3538-.0478-.4276-.033.254.0935-.0419.3657.273.4839-.1009-.0348-.2075-.0498-.314-.0443l.2447.0807c-.0427.0322-.0925.0536-.1452.0626s-.1068.0052-.1578-.011c-.1028.2125.5163-.0354.2462.2069-.0184-.0216-.0622-.0148-.0948-.0595-.1815.2494.0983.5115-.0859.7395-.4723.0396-.0766-.2149-.4731-.1601.0027.3465.4412.7463.2812 1.0708l.0643-.0581c.7102.0935-.3875.2238-.0726.4142-.102-.0402-.2104-.062-.32-.0644-.1538.2193.1119.4766.3276.8386l-.1935-.056c-.188.1228-.1283.3477-.2226.4876.1947.0563.1601.1375.447.1058-1.102.3773.5461.8955-.307 1.2386-.0042-.0481-.1619-.1247-.16-.0866l.1832.3526c.2842-.008.1699-.0333.3941-.0899.1725.0545.2993.159.2949.2431-.1814-.1652-.4547-.0288-.6031.0274.0847-.0055.1792.0235.2653.0236-.4797.146.5493.0662.2212.2873l-.1375-.022c.0734.0957.2462.1909.2048.2862-.2846.0217-.1326-.1056-.373-.1277.0348.1399.5314.3068.2623.4135-.0759-.0634-.0787-.1477-.157-.2114-.3186.1146-.2262.1364-.2598.235l.0051-.0096c-.0324.0755-.0608.1513-.0854.2273l.0639-.0551c.6314.2146.1673.361.52.6181-.3165-.2476-.1829-.0494-.3959-.0797-.0507.0578-.0905.1528-.1542.1222.0237.0142.044.0334.0596.0562.0759.0351.1426.0876.1944.1533s.0874.1426.1039.2247c.0858.2543.2232.4881.4035.6869.0002-.0407.0084-.081.0243-.1185z"/><path d="m28.4231 20.6713.0099-.0072c-.0193.0067-.0393.011-.0596.0126z"/><path d="m27.0432 22.623c-.0297.001-.0587.0083-.0853.0215.0294-.0026.0581-.0099.0853-.0215z"/><path d="m27.0693 23.5078-.0708.1213c.0309-.0357.0549-.0769.0708-.1213z"/><path d="m27.0869 24.1885c.0296.0087.0598.0152.0903.0195l.001-.0014z"/><path d="m27.0539 14.0223-.0279-.0037c-.0789.0025-.0337.0062.0279.0037z"/><path d="m27.794 16.6559c-.0316-.0318-.0576-.0686-.077-.109-.0318.0552-.0494.0991.077.109z"/><path d="m27.7569 16.4004c-.0215.0167-.037.0398-.0442.066-.0073.0262-.0058.0541.0041.0794.0274-.0446.0592-.0979.0401-.1454z"/><path d="m27.8567 24.8389c-.0228.0715-.0383.1452-.0462.2198.0325-.045.0963-.1019.0889-.0076.1667-.2836-.0959.07-.0427-.2122z"/><path d="m28.1117 24.1753c.0031.121.1166.0063.1624.0159-.0468-.0811-.0655-.1012-.1624-.0159z"/><path d="m28.7734 19.0939.3357.0347c-.0524-.0983-.1296-.0095-.3357-.0347z"/><path d="m27.2134 18.0098-.2063.0791.2687.0612z"/><path d="m29.2398 17.5657.0468.0444-.1284-.1667z"/><path d="m20.542 13.748.0573.019c-.0172-.0111-.0369-.0176-.0573-.019z"/><path d="m19.8566 15.3774c-.0094-.018-.0253-.0318-.0445-.0385.0143.0188.0269.0346.0445.0385z"/><path d="m19.6879 15.6304.0101-.0142c-.0136.0019-.0208.0062-.0101.0142z"/><path d="m20.5419 13.7473-.1499-.0491c.1248.0946.1081.0477.1499.0491z"/><path d="m20.8767 12.965.0135-.0084-.1068-.1216z"/><path d="m21.4956 12.7012c.054.0922.1165.1791.1869.2595-.0564-.0785-.0756-.1171-.0746-.1345z"/><path d="m20.4216 13.1817-.1147-.087z"/><path d="m19.3964 16.1073.0043-.0012c-.0004-.0145-.0053-.0078-.0043.0012z"/><path d="m18.3438 17.2149.1479.0091c-.0491-.0064-.0985-.0094-.1479-.0091z"/><path d="m19.4022 16.4424-.0447.0121c.0156-.0008.0308-.0049.0447-.0121z"/><path d="m18.8637 17.7939c-.0202.0108-.0603.0111-.0161.0335l.0346-.0018c-.0417-.0107-.063-.0216-.0185-.0317z"/><path d="m22.2973 12.8033c-.0164-.005-.0323-.0117-.0474-.0199l.0163.0373c-.0103.004-.0216.004-.0318-.0001s-.0184-.012-.023-.022c-.0116.0665.028.0268.0367.0876-.1123-.054-.0927.153-.2577-.0468.0571.1134.1091.0498.1059.1537-.1998-.2347-.0314.082-.1676-.0046-.1026-.158.0188-.093-.1426-.2053.1658.2655-.1575-.016-.1781.0423.191.2321-.0224.14-.0245.263-.0777-.0958-.2747-.0722-.4573-.1412l-.0466-.0511c.2775.3074.1561.2969.1762.398-.1234-.1063-.2292-.2314-.3136-.3708l-.052.0318c.0664.0623.1146.1414.1395.229l-.2382-.2456c-.0667.0512.1708.3685-.0886.2703.3268.236.6267.5071.8944.8084-.1556-.1211-.301-.2548-.4347-.3997.0129.0223.0998.1244.0276.0836l-.2152-.2365c-.137-.0616.1862.1899.1414.1947-.2073-.1775-.1664-.1084-.329-.2524-.0132-.0232.1084.0521.0374-.0264-.147-.0386-.2845-.1067-.4042-.2003.1125.0774.2117.1725.2939.2816-.0384.0666-.2799-.1944-.4279-.2533.1382.1353-.0585.0456.2758.309-.0159.0157-.1754-.103-.2724-.1668.1204.1452-.075.183.3184.4182l.03.01.0113.0162c.2734.3468-.3474.0711-.2521.2908l-.1157-.0758c.0992.1534.0071.2032.226.3964-.1283-.0325-.2494-.0889-.3568-.1663.0628.1049.1781.1772-.0306.1513-.1715-.1647-.1757-.0773-.1202-.1375-.1207.0162-.2943-.0572-.0258.184-.2661-.1792-.361-.1309-.2857-.0483l.2066.0503c.0267.0604-.0048.0829-.0365.1069l-.3447-.2036c-.2196-.0227-.0532.1496.088.2912.1415.1435.2137.2397-.0709.1733.2086.1412.1339-.0302.3852.1279-.0542.0485-.4394-.0447-.4265-.0131-.1048.0627.389.2686.3039.3371.1353.0295.2589.0983.3553.1977-.051.0484-.3141-.0387-.3777-.1105-.0079-.0208.0152-.0199.0407-.0088-.0157-.0247-.0372-.0453-.0625-.0602-.0253-.0148-.0538-.0234-.083-.0251l.0779.0415c-.0741.0065-.0451.1199-.162.0499.08.0875.114.0683.1453.0399-.0857.0609.0304.1578-.0292.2304.03-.0043.0964.0063.0945.0205-.0748.1105.0969.0953.1056.1894-.0829.0232-.1724-.078-.1263.0302-.0572.0373-.1252-.0297-.1624-.0654.0828.113-.0864.1312-.1217.17l-.0208-.0519c.0053.0112.0074.0236.0061.0359s-.0058.024-.0133.0339l.104.0066c-.0272.0178-.0379.0368-.0768.0245.0492.042.1658.0305.2257.1015-.0658.0146.0116.107-.138.0756.1046-.0696-.1-.0364-.1063-.0957-.0029.0138-.0152.0268-.0463.0369-.0187-.0015-.0252-.0111-.0265-.0188-.222.0427.1159.0821.0371.1682-.0621-.0291-.1331-.0328-.1979-.0104.0587-.0288.1741.0263.2146.0768-.1462.0308-.0091.073-.0473.0991l.0751-.0219c.0978.0392.0608.0635.0679.1127-.0369-.0076-.0514-.0168-.0572-.0252.0716.0666-.3549.0258-.2657.1158-.1303.0052-.282-.0613-.384-.053.1181.1128-.3291.0228-.2555.1328.1388-.0088.2763.0313.3887.1133-.0168-.0502-.0277-.1023-.0324-.155l.2534.1484c.0307-.0369-.075-.1086-.0161-.1221.0845.0584.1859.0873.2885.0823-.3747-.0217.1433.1455-.1308.1558l-.6256-.1273c-.3818.0358.2028.23-.0019.3303l.1346-.0214c.2743.0652.0164.087.1251.1489-.1568-.0273-.316-.038-.475-.0322.1749.0246-.0208.1006.4493.1809l-.3059.0173c-.1062.0987.6559.212.5835.3024-.1961-.019-.3893-.0602-.576-.1228.007.0364-.0235.0648.1266.0828-.1263.0069.3063.1308.1124.1413.0941.0244.3088.0511.2961.0874-.0332-.001-.0664-.0043-.0991-.0099.1145.0416.2357.0622.3576.0608-.5625.052.0672.2887-.309.3504.0731.0778.1917.1705.2381.237l-.0284-.004.0318.0322.0134.0148c.0777.0289.1701.0368.1502.1056-.0384.0457-.0636-.0365-.0783-.0279l.0863.0895.0015-.0192c.0098-.0574.0979-.113.1946-.1073.025-.0012.0495.0071.0687.0232.1005-.0551.2055-.1016.3137-.1391.0185-.0614-.0282-.1483.1071-.2518.0395-.0304.0834-.0544.1303-.0713-.0044-.0358.0306-.0745.1178-.1002l.5741-.1404-.126-.0156c.5782-.0039-.0813-.1595.1697-.1795l-.0255-.0259c-.0431-.0451.023-.0749.1381-.0855-.1451-.125-.3216-.2575-.4453-.3838.5017.1013.1082.167.653.258-.2841-.1666-.732-.3309-.7131-.4562.0327-.0259.196.0614.2839.0905-.2761-.1853-.2212-.2947-.4738-.4772.0335.0126.0653.0293.0948.0497-.0274-.0303-.0065-.0558-.123-.0838l.0491.0358c-.1706-.005-.4062-.2024-.4671-.2252.3061.1252.0667-.1054.4348.0635-.04-.0346-.0878-.059-.1392-.0713.0135-.0201.0448-.0183.1251.0284-.0839-.1102-.1627-.1031-.1611-.1822.0356.0163.0701.0348.1034.0555-.0822-.0642-.15-.1265-.0978-.1782.0218.011.0539.0135.0477.0316.0272-.1059-.1315-.2449.0165-.3233.1708.0997.0916-.0109.2727.0494l.0176-.0611-.1188-.0174c.0639-.0356-.0474-.1329.064-.1412l.0523.0656.0571-.0896-.1417.0068c-.0752-.0926-.296-.1126-.1851-.1513.0178.0247.0301-.0516.2129-.0058l.0006.0004c-.0614-.0564-.1412-.124-.0396-.1257.1047.0347.3219.1523.3913.1754-.2257-.1305.0687-.1069-.2085-.2751.0907.054.1851.1017.2825.1427l-.2162-.1273c.0991.0179.1941.054.28.1065.1107-.0295-.4714-.2016-.2056-.1736.0282.0183.0552.0385.0807.0604.1854-.0068-.0353-.215.1523-.21.4227.2033.0466.1047.4047.2665.0254-.105-.3167-.4465-.1349-.4703l-.0626-.014c-.5989-.3902.3606.1252.1125-.0949.0843.0678.1725.1304.2642.1877.1526.0135-.0431-.1994-.1667-.4329l.1515.1263c.1709.0702.1511-.029.245-.0147-.1032-.1116-.2186-.2112-.344-.297.4831.2822.3856.1338.291-.0381-.0971-.1683-.187-.352.1466-.1312.0246.0504.0605.0944.1048.1287l-.0747-.2161c-.0949-.0893-.1977-.1698-.3072-.2404-.1172-.1313-.1882-.2492-.1668-.2724.1209.1619.2716.2992.4441.4044l-.1876-.1887c.3741.2886-.383-.3986-.1005-.2393l.0933.1028c-.0331-.0796-.1342-.2313-.0844-.2317.203.1961.0703.1266.2349.3033-.0004-.065-.3025-.4701-.0922-.3062.037.0732.0197.0988.0599.1727.2453.1985.1848.1273.2289.1254l-.0056-.0012c.0347.0037.0697.0048.1046.0033l-.054-.0329c-.3731-.5282-.033-.2237-.1999-.5647.1434.3131.1053.1539.2334.3263.0444.0229.0895.0317.1229.0887-.0105-.0184-.0188-.0381-.0248-.0585-.0667-.0881-.0968-.1986-.0839-.3084.0281-.1259.0442-.2731.0729-.3518-.0246-.0092-.0478-.0217-.069-.0372z"/><path d="m20.6081 13.7695-.0092-.0029.0499.0287z"/><path d="m22.0483 14.002.0657.0527z"/><path d="m22.2007 13.7412.0728.0203c-.0224-.0122-.0473-.0192-.0728-.0203z"/><path d="m22.3326 13.5445-.0534-.0744-.0009-.0004z"/><path d="m20.6038 16.7305.0157.0132c.0534.0353.0264.0137-.0157-.0132z"/><path d="m20.6239 15.5371c.0237.0199.0449.0425.0633.0674.0329-.0085.0529-.0172-.0633-.0674z"/><path d="m20.6388 15.6419c.0544 0 .0611-.0157.0483-.0384-.0289.0062-.0623.0141-.0483.0384z"/><path d="m22.0485 12.7909.1182.0102c-.0363-.025-.0956-.0727-.0473-.0762-.2163-.1066.0771.0682-.0709.066z"/><path d="m21.6713 12.7682c.0324-.0419-.0742-.0915-.1017-.1295.0074.0627.0146.083.1017.1295z"/><path d="m20.0303 14.1936-.287-.177c.0283.0659.1116.0666.287.177z"/><path d="m21.2738 15.3095.192.066-.234-.1392z"/><path d="m19.3915 14.6208-.0375-.0388.0969.1247z"/></g></svg>