<svg alt="fire" fill="none" height="54" viewBox="0 0 54 54" width="54" xmlns="http://www.w3.org/2000/svg" xmlns:xlink="http://www.w3.org/1999/xlink"><clipPath id="a"><path d="m13 9h28v35h-28z"/></clipPath><g clip-path="url(#a)" fill="#8a2432"><path d="m15.6903 11.4854c-.0181.004-.0234.0326.017.0399l.0508-.0381z"/><path d="m15.8882 11.6781c.0378-.0064.073-.0234.1013-.0489s.0486-.0585.0584-.095c-.0879.062-.0835.0311-.1725.0911-.0401-.0086-.0538-.0459-.0361-.0648-.021.0097-.0541-.0299-.0905-.0053.0132.0311.0377.0562.0687.0705s.0663.0167.0991.0069c.005.0212-.0184.0343-.0284.0455z"/><path d="m18.2386 14.5137.0271-.0459c-.0133.0124-.0227.0283-.0271.0459z"/><path d="m18.8603 16.5848c-.0148-.0119-.0615-.0034-.103.0094.0345.0069.0703.0036.103-.0094z"/><path d="m18.4361 17.0674.0268-.0274c-.0415.019-.0632.0326-.0268.0274z"/><path d="m18.2387 14.5137-.0772.1215c.1106-.0683.0668-.0801.0772-.1215z"/><path d="m16.5323 11.6514c-.0194.0023-.0379.0087-.0545.0188l.0407-.0012z"/><path d="m17.4934 13.8792-.0094-.0149-.1092.0765z"/><path d="m17.0422 13.3006c.003.0206.1695-.1463.2457-.2166-.0739.0636-.114.0878-.1364.0898z"/><path d="m16.4136 12.1621-.0277.0015z"/><path d="m17.7147 14.3623-.0863.0732z"/><path d="m15.4795 12.677.021-.0129c-.0079.0026-.0151.007-.021.0129z"/><path d="m15.4038 11.6631.0123.0068.0151-.0176z"/><path d="m18.0489 17.7415.0073-.0038c-.0487-.0059-.0394.0007-.0073.0038z"/><path d="m16.9182 21.1465c.0465.14-.1437.1752-.0641.3317.0016-.0578.1343-.244.0641-.3317z"/><path d="m16.5453 11.671.0344.0102c-.0098-.0074-.0221-.0111-.0344-.0102z"/><path d="m16.854 21.4785v.0012l.0087.0154z"/><path d="m18.5044 18.9943.1664-.006z"/><path d="m18.9355 17.957-.0495.0324c.0351-.0146.0461-.0245.0495-.0324z"/><path d="m19.0377 19.5391c-.0288.0083-.0789.0035-.0318.03l.0445.0026c-.0488-.0155-.0715-.0279-.0127-.0326z"/><path d="m18.9602 20.0371.0684.0153-.0136-.0212z"/><path d="m15.2629 14.1797.2614.0077c-.2032-.0158-.2463-.0834-.2614-.0077z"/><path d="m16.4968 11.7072c.0201-.0235.0341-.034.0485-.0358l-.0267-.0025c-.0107.0107-.0182.0239-.0218.0383z"/><path d="m21.8818 20.0732-.0959.1357c.0467-.0332.0805-.081.0959-.1357z"/><path d="m13.2987 18.3486-.0254-.0449c-.007.0122-.0009.0278.0254.0449z"/><path d="m21.6843 20.6582c-.0895-.0094-.18-.0052-.2683.0125.0254.0166.0521.0312.0798.0437z"/><path d="m15.0774 13.7262c-.0344.0635.3042.0009.4856-.0009.0772.0843-.2496.0589-.4281.0963.0662.0401.3673.0738.3452.1159-.0497.0065-.1001.007-.15.0015.26.0616-.0485.1526.2917.2498l-.0945-.0008c.1888.0089.3766.025.51.0414-.001.0386.2205.1042-.0274.088.013-.0237-.0849-.038-.1578-.058l.095.0537c-.3623-.0112-.1067-.0701-.3647-.0994.0853.0793.364.2201.2427.2633-.3553-.0547-.0749-.1513-.4107-.1316l.1598-.0611c-.5675-.0178.0558-.04-.5485-.0693-.1427.0689.1287.1308-.0197.2012.1868.0653.2961.057.4839.1247.2981.2522-.9591-.1248-.5267.1028.2269.0966.6817.2586.4014.2601l-.399-.1644c-.0919.0737.5628.2645.2302.2684-.1527-.0814-.0949-.1281-.152-.1319-.3637-.0588.2092.1326.1801.1882l-.3726-.1354c.001.1175.1958.3511.1905.5095-.1018-.0724-.2146-.1284-.3342-.1658.0915.2368-.247.2881-.5515.2898l.2687.2431c-.076-.0216-.1458-.0607-.2035-.1141-.1531-.0186.1918.1251.2924.2278-.0014.0467-.2035-.0692-.2807-.1477.1952.2603.3472.66-.0368.5566l-.0716-.0845c-.1728.0077.5237.5273.1999.4253l-.0398-.0536c-.2513.13-.1588.5535-.6557.5031.369.2776-.2861.1901.2413.5168-.3245.0217-.412-.0871-.6524.1106-.0387.0695.3001.2542.3349.3606l-.2687-.1028.2577.2277-.3255-.04.0572.1126c.019-.0318.1266-.0384.2015-.0082.0942.1604-.2106.2801-.3359.2658.0685.1324.1464.2614.2199.3773-.0969-.016-.134-.0767-.1999-.1325.2617.214-.2556.0112-.0066.2055.0504-.0193.1427.0213.1905.0272-.1354.0724-.0926.2674 0 .3912l-.1565-.0144c.0868.2545.2184.4919.3887.7016.0043-.0966.2256-.1378.2744-.0847l-.1615.0824c.1297.0032.0311-.0853.2062-.0495.0194.082-.161.1215-.2473.0944l.118.0743c-.0455.0245-.0852.0121-.1521.0297.123-.0011-.0494.2368.1602.2155l-.0408.0262c.1222.1445.2572.278.4034.3989.1069-.0698.1337.0015.249-.0177.0414.1474.1189.2826.2256.3938.127.0344.0936-.0482.1788-.0646-.0679.0825.0645.1794-.0505.1818.1345.1032.2912.1746.4582.2086.0017-.0504-.0113-.0815.0207-.1031.0445.0086.0561.0903.0244.13l-.0154.0028c.2921-.0042.4018.6072.6979.4878l-.0155.0062c.0835-.0089.1648-.0171.246-.0328.0886.0604-.0839.0638-.0354.1671.2814-.1127.3536.1877.5765.1042.0879.4835.5367.1292.7319.4944l-.0091-.1245c.0582-.1045.0652.0869.107.1268-.005-.0984-.0589-.1256-.0234-.1848.4488-.0698.9896.4003 1.8191.4272.3021-.0204-.24-.8405.2429-.5767l.0816.3263c.2687-.5277 1.033-.5489 1.0454-1.1581.0568.0706.1514.1363.1169.1718.3038.0784.263-.295.0475-.4047.0618-.0452.1932.0894.3228.1089.2139-.0111-.1935-.375.0896-.2935.0475.0119.0722.0632.0832.0885-.0942-.1139.1825-.2472-.1621-.323.2269-.0886-.0133-.326.2266-.376-.3425-.1837.2754-.1986-.2557-.3613.5575.1535.5415-.1503.2898-.2864.1664.0629.2029-.045.4361.0336.0238-.1101-.0625-.2232-.3706-.2488.7603-.1041-.5056-.4267.4398-.4478-.2351-.2547-.4453-.5305-.628-.8239.6344-.0026.0432.2737.7032.2662-.2293-.2574-.7723-.3701-.626-.6069.0877-.0661.2801.0173.3897.0335-.267-.2228.0592-.482-.3238-.6512.0615-.0043.1233.0034.1818.0227-.0257-.0391.0859-.1106-.2109-.0662l.0849.0297c-.3817.0411-.7668.0393-1.148-.0054.8602-.0599.1885-.224 1.278-.2881-.133-.0266-.2704-.0236-.4021.0088.1192-.0716.2602-.0992.3981-.0781-.1812-.1234-.489-.013-.5087-.1424.1437-.0271.2045-.0115.3763-.0293-.2934-.0159-.5868-.0219-.4896-.1536.0876-.0119.1971-.0485.2022-.0155-.0899-.1836-.8011-.1398-.5986-.3943.6284-.1082.1802-.1204.7022-.279l-.1924-.0645-.2399.1171c-.0224-.097-.4268-.0599-.2828-.1899l.236.0005-.1584-.1396-.1605.1587c-.2961-.0029-.646.2193-.5441.0609.0612.0044-.0251-.0836.255-.2328l.0017-.0003c-.1788.0143-.3626.0342-.2634-.0729.1528-.0759.5575-.1924.6591-.2426-.4345.1136-.2059-.1628-.6621-.0399.1424-.0401.2812-.0916.4151-.1537l-.3462.1c.0958-.0886.2123-.1526.3392-.1863-.002-.1423-.5922.2929-.3991.0459.0454-.0121.0917-.0205.1384-.0253.0615-.1981-.3372-.1735-.2476-.3693.4368-.2591.1727.0565.538-.1717-.1955-.1518-.771-.0986-.767-.3208l-.0277.0574c-.6129.3138.2216-.2925-.1223-.2126.0955-.0335.187-.0774.2727-.1309.0063-.1659-.3195-.1417-.6053-.1932l.1528-.0704c.0765-.1464-.0662-.2098-.0665-.3156-.1478.072-.1584.0204-.3258.1757.5233-.7221-.6825-.0967-.3052-.6905.0214.0185.1451-.0332.1287-.0492l-.2476-.0539c-.1648.1645-.0866.1105-.1976.2598-.1236.0737-.2399.1049-.27.0699.1721-.0384.2801-.2467.3442-.3573-.0474.0511-.1146.0935-.1654.1431.2233-.3384-.3496.2934-.2476.0185l.0902-.074c-.0825.0061-.2249.0772-.2396.0169.1614-.1865.1226-.0429.275-.1823-.0758-.0399-.4461.2198-.3252.0036.0709-.0246.107.0064.1802-.0187.1447-.2499.0825-.204.0685-.2721v.008l-.0235-.1714-.0227.0735c-.4899.3667-.2443-.0392-.5962.1521.3295-.1767.1507-.135.3178-.3066.0157-.0685.0171-.1503.0742-.192-.1801.107-.005-.162-.258-.0072.0425-.0563-.0555-.0405.0695-.1673-.1129.0032-.0581.1012-.123.1665-.2516.1098-.1109-.3487-.4578-.1991-.2082.0182-.3349.1494-.4973.1409.0017-.0867.133-.1255.133-.1255-.0294-.0941-.0942-.1042-.1858-.0966.0334-.0244.0374-.058.0418-.1059-.0625-.0128-.1157.1079-.1544.0251.0421-.0413.0886-.078.1386-.1096-.0892.0089-.1875.0382-.2696.0372.0109-.0558.0876-.0622.133-.0876-.0943-.0022-.236-.0138-.2958.0423l.0331.0446c-.0284-.0084.0204-.0656.0491-.0721.1013-.0367.0816.0579.0665.0896l-.0575-.0016c-.0504.1848.1932.0677.2875.1136l-.1293.1247.1684-.0707c-.006.05-.0531.1474-.1079.1419.0063.1193.0899-.021.0798.1037-.0043.0182-.012.0244-.0214.0271l.0896-.0087c-.0357.0278-.0749.1284-.0899.0766.0201.1831.2503-.0101.1815.1644l-.0161.0046c.1742.0509.113-.1279.3503-.2243l-.2212.4302.133-.1434c.0093.0169.0264.0514-.0284.1102.1353-.0652.0457-.0756.1567-.1537-.0521.1997.248.0746.0307.3601.1331-.1085.0258-.1559.1691-.1836-.2349.3128.122.021.0592.2114-.1588.1415-.1303.0032-.2052.2005.2717-.2337.0434.1703.1287.1669.2119-.22.1821.0085.3235.0179-.0802.0714.0017.2817-.0354.4455l-.0448.0373c.27-.2239.2887-.1014.3874-.0891-.0947.0956-.2085.1709-.3342.2211l.0361.0574c.059-.0522.1359-.0804.2152-.0791l-.2231.1689c.0552.0656.3603-.0652.2744.1534.2253-.1668.5341-.5544.77-.5687-.1141.1077-.2431.1991-.3833.2712.0224-.0037.1233-.0465.0872.0106l-.2308.1161c-.0552.1125.1844-.1086.1921-.0581-.1714.132-.1042.1218-.2443.2218-.0224.0038.0515-.0873-.0254-.0481-.033.1214-.1034.2297-.2015.3102.0979-.0791.236-.1788.2774-.1658.0605.0683-.1982.1863-.2667.3.1364-.0734.0308.0715.3078-.1254.0123.0238-.115.1203-.1858.1826.1451-.0471.1393.1613.4227-.0934l.0137-.0241.0171-.0021-.0003-.0003.0003.0003c.3776-.0588-.0104.3935.1928.443l-.1076.0637c.1698.0053.1614.1379.4348.0634.0127.0252-.1778.1706-.3185.2334.1136.0156.2497-.0441.1003.1452-.2323.0427-.1708.1141-.1782.0135-.0628.1325-.2489.243.1147.1672-.3152.1211-.3667.2493-.2617.2427l.2022-.1627c.0608.022.0471.0738.0351.1244l-.4205.1712c-.4719.3792.9896-.0891.1451.3987.3188-.0771.1892-.1741.5565-.2785-.0308.1047-.6424.4245-.6393.4457-.2233.1872.6817-.1442.5474.0262.2395-.1172.5014-.1835.7686-.1946-.2361.1703-.5122.2787-.8025.3152-.018-.0138.0318-.0398.0873-.0571-.1102-.0115-.2209.0148-.3135.0746l.1661-.0445c-.1571.093-.1167.1887-.392.2488.0644.0039.1289-.0055.1894-.0276s.1156-.0565.1618-.101c-.2159.169.0304.1523-.1063.2954.0893-.0447.1848-.0762.2834-.0936-.1681.202.3382-.0216.4394.0646-.2453.1237-.6203.1326-.383.1809-.1854.084-.3868.1283-.5909.1299.345.0095-.1831.2067-.2336.2612l-.1477-.0127c.0876.0072.0902.0284.0942.0492l.3366-.0939c-.0515.0508-.1198.0817-.1925.0873.2313-.0168.5648-.1346.8857-.1367-.1641.0695.2145.0838-.2413.176.134-.1424-.4529.0913-.5481.013.0585.0072.0628.0292.006.0652-.0399.0101-.0812.0137-.1223.0107-.39.1678.5237-.0421.533.0735-.26.025-.4829.0972-.4244.1058.2029-.0649.4173-.0882.6297-.0683-.1865.1004.1644.0612.1484.1046l.0852-.0572c.26-.0169.2333.0273.3239.0741-.1989.0266-.1468-.0346-.231-.005.4642.0141-.4445.1831-.132.2342-.1678.0513-.4786.0422-.5909.0822.3433.0631-.3318.1116-.0438.1823.1952-.0439.3982-.0409.5919.0089l-.2623-.1427.509.0737c-.001-.0507-.227-.0914-.1731-.1237.1584.0337.3227.0302.4795-.0103-.5029.0989.3115.126-.0237.2252l-.8368.0256c-.3536.1122.4445.187.2489.3378l.1384-.0449c.3262.0258.0511.0943.1855.1476-.1782-.0079-.3567.0001-.5334.024.2012.01-.0097.0955.5237.1452l-.3489.0363c-.1387.0897.7503.2056.6473.3183-.225-.0297-.4469-.0789-.663-.1473-.0034.0338-.0508.0573.1276.084-.1588-.0057.3376.1538.0929.1465.1097.035.374.0905.3466.1299-.0418-.0058-.0832-.0141-.124-.025.1388.0641.2874.1051.4398.1213-.7853-.0573-.0264.3637-.6841.2547.058.0839.0905.1823.0936.2838-.0632-.0348-.1076-.0513-.0812-.0524-.2256-.0169.5889.3575.3165.3555-.3536-.138-.1534-.1542-.2941-.1932-.6721-.3723.0404.162-.3573-.0277l-.0314-.0365c-.2146-.1187.1881.2552.1016.2908l-.0792-.0749c.0838.0765.1478.1716.1867.2774.039.1058.0517.2192.0372.3308-.0566-.1274-.1342-.2448-.2296-.3474-.0023.0551.2754.3433.2463.4571-.1437-.1158-.2658-.2554-.3609-.4124l.0321-.053c-.2152-.2905-.0378.0612-.0966.0287l-.0702-.1405c-.0217.1031.12.456-.001.4881l.0475.0987c.0404.3717-.113-.1672-.1073.1132l-.1083-.3344c-.0163.167-.0754.3271-.1718.4654.0227-.2498.0949-.4103.1056-.5864-.0421.0282-.0758.0669-.0977.1121s-.0312.0953-.0269.1452c.014-.0375.0227-.1264.0478-.0822-.0074.2804-.0806.4209-.1882.4313-.0264-.5991-.2797-.1024-.3613-.5182-.1798.2318-.3469.0067-.5504.0588.0281.3394-.0625.0139-.1009.3595-.0555.0205-.0742.0121-.0752-.0098l-.1167-.2025c-.0157-.0931.0612-.0688.0709-.1424-.1003-.021-.0165-.134-.0659-.2096-.0103.1085-.0735.1623-.1216.117l.0501.1406c-.1908.1477-.0615-.2513-.2486-.1123l.0728-.0835c-.0932.0519-.262-.034-.4194.1436-.001-.0323.012-.1038.0511-.1132-.152-.0658-.4776.0503-.53-.1343l.0458-.0435c-.0381-.0011-.115.0635-.113-.0104.0167-.019.0468-.0415.0364-.0529-.0254.0075-.1373.0352-.147-.0213l.0712-.0301c-.0732-.1603-.2995-.047-.4355-.1357.0453-.044.079-.0981.0984-.1577s.0238-.1229.0129-.1846l.0234-.0143c-.0514-.1784-.2566-.1976-.3853-.3404.2058-.1978.0916-.4079.3162-.5645-.0835.0257-.1731.0248-.256-.0026.0708-.0371-.1908-.0891.0979-.0918l-.0101.0116c.2927-.0337.257-.0787.2924-.1165l-.4047-.0406c.3306-.0397.3286-.0911.3172-.1774-.0144-.0781-.0405-.1821.2894-.0837-.0889-.0693-.0535-.0983-.1444-.1793l.2507.121c.1417-.0302.2105-.0368.2556-.1541l.1628.126c.0802-.0254-.6694-.5177-.6293-.5931l.4084.2387c.0993-.1106.5755.0408.3242-.3458.0571.0447.1711.133.1681.1645.0621-.047.507-.0308-.0856-.419.3713.2664.1648-.1237.0568-.3223l.2711.2059c-.3055-.3174-.4044-.3861-.4361-.5502.0534.0014.2433.1307.148.1135.2045.0194-.2293-.2388-.013-.2347l.1604.1541c.0769-.0685-.0264-.1261-.2142-.3064-.0843-.1232.1694-.11.4418.0321-.1544-.1085-.3439-.2815-.2386-.2864.0687.0319.1302.0769.1811.1324.2834-.0376-.2252-.407.1173-.3537.0587.0324.1214.0574.1865.0742-.0672.1211-.1354.2079-.1517.1871.272.1529.3726.074.7075.3644-.1618-.2028-.5421-.5761-.3693-.6102l.1013.0333.0264.026c.0374-.0106.021-.0451-.0165-.0877.0592-.0113.102-.0169.1197-.0472.2339.0943.1731-.0731.2039-.1244-.3045-.128-.2293-.1758-.5044-.2191.0251.0012.0325.0256.0318.066.0039.014.0117.0265.0224.0364l-.0251-.0155c-.0065.0472-.0175.0938-.0327.139-.1354-.1131-.248-.212-.0575-.1935-.1832-.1123-.3713-.2279-.4602-.2823.4488.1185.7275.0653.9932.1427-.1189-.2389-.0036-.4689-.5451-.7339-.0615-.0656.1735-.0081.2657-.0027.0502.0432.0345.0744.1123.1129-.1196-.137-.0067-.3126-.3894-.4187.1922-.0816.3479.1463.3052-.0367l.115.047c.3228-.1159.0842-.3161-.1317-.4782-.2193-.1721-.3914-.294-.0592-.4798-.0328.0265-.0733.0421-.1156.0445.2376-.4527-.388-.7791-.2066-1.2391.0047-.1287-.1507-.0836-.289-.0973l.16-.0963-.262-.0095c-.1905-.0696.1508-.4225-.2108-.4459l-.0531.0707c-.0408-.0632-.2046-.1328-.1287-.1803-.0164.0037-.0772.0345-.0708-.0085l.0397-.038-.2076-.0497c-.0996-.0935.1471-.1235-.0581-.2061-.098-.007-.2647-.0076-.2433.0114.0264.0135.0591.0462.0438.0696l-.0619-.0259c-.0558.0533-.0972.044-.0645.2401.0261.0208.054.0393.0833.0554l-.0238.0743-.0334-.0865c-.01.0848.0211.0904.0592.0981-.0175.0287-.0291.0605-.0341.0936l.1333-.0011c-.0404.0524-.0979.0373-.1039.1243.0672-.0033.0822-.1327.1484-.0939-.0338.0921-.0899.1198-.0211.131-.0331.0364-.0591.0435-.0785.0339.0531.0155.0448.1133.1377.0747-.0846.1156.0662.1425-.1177.2512.0422-.0118.1555-.0047.1739.0331-.2563.0575-.002.1701-.3105.2927.2513-.0606.0949.1453.2614.1803-.0254.0027-.0762.009-.0595-.0047-.0294.0626-.127.1062-.1989.1574.1709-.0401.349-.0397.5197.0009-.2947.1318-.3462.0379-.6203.124.2383-.0604.2156.054.4295-.0083-.1132.0625-.236.1063-.3636.1296.3993-.0576.0514.0317.2994.0349-.2142.0952-.3927.0641-.2827.1209-.0886.0257-.1827.0261-.2715.0013zm.0649 1.7624-.006-.003.004-.0452zm-.0856.1533c.0228-.0141.0404-.0349.0505-.0595.1066.0486.2102.11.1955.1232-.0776-.0351-.1609-.0566-.246-.0637zm2.282.634c.0284.0569-.0358.0422-.0996.0184.0013-.0274-.0025-.0547-.0114-.0807l-.0351-.0211z"/><path d="m16.9667 16.0326c-.005-.0081-.0164-.0164-.0167-.0241l-.0762-.0095.0902.0545z"/><path d="m18.2701 14.4598-.0044.0076.0351-.0338z"/><path d="m13.2218 17.979.063.0242-.0507-.0471z"/><path d="m18.3854 12.9495c.0167-.017.0306-.0365.041-.0579-.0157.0178-.0295.0372-.041.0579z"/><path d="m18.0214 12.5847.0027-.1072c-.0075.0353-.0084.0716-.0027.1072z"/><path d="m17.768 12.2734-.0711.0671-.0004.0013z"/><path d="m21.6522 17.6006c.0055.0064.0123.0114.0201.0148.0829.0306.0491.0069-.0201-.0148z"/><path d="m20.2506 15.8971c.0675-.0071.1354-.0092.2032-.0064.0163-.0417.0137-.0691-.2032.0064z"/><path d="m21.8924 20.059-.0068-.0014-.0041.0162z"/><path d="m20.4812 15.9754c.0638-.0574.0361-.0787-.0274-.0848-.0147.0348-.0418.0783.0274.0848z"/><path d="m16.1909 11.5452-.0178-.0081-.0082.0121z"/><path d="m16.1646 11.5488-.0261.0036c.0043.0019.009.0026.0136.0019.0046-.0006.009-.0025.0125-.0055z"/><path d="m16.0851 11.5593.0535-.0067c-.0087-.004-.0183-.0055-.0278-.0043-.0095.0011-.0184.005-.0257.011z"/><path d="m16.6722 11.7452.0328-.0382c-.0125.0113-.0235.0242-.0328.0382z"/><path d="m16.8343 11.7881c-.0288-.0239-.0318-.1211-.103-.1105l-.0263.0303c.0671-.0545.0458.1384.1293.0802z"/><path d="m16.8878 12.753-.0521-.127c-.0298.0711-.0745.1691-.122.1426-.0378.2829.0816-.1502.1741-.0156z"/><path d="m17.0499 13.1264c-.0668-.0201-.0848.0942-.1209.1284.0768-.0263.0985-.0345.1209-.1284z"/><path d="m18.3981 15.3223-.2981.1534c.0598.0187.1153-.0611.2981-.1534z"/><path d="m20.2332 15.0106.1711-.1415-.3025.1119z"/><path d="m18.0362 16.2979-.0534.0026.1424.0176z"/><path d="m18.6828 19.8582.3786.1092c-.0615-.0468-.4876-.18-.3786-.1092z"/><path d="m18.3997 21.0641c-.0625-.1317-.115-.1981-.0969-.0504.0321.0029.0946.0942.0969.0504z"/><path d="m15.1847 19.0672.0684.0283-.041-.0418z"/><path d="m27.6511 42.1493c-.0047.0126.0061.0395.0231.0228l.0014-.0578z"/><path d="m27.8029 42.19c.0201-.0627.0165-.1305-.01-.191-.0017.0917-.0137.0665-.0174.1589-.0177.0153-.0384-.0056-.0404-.0294-.003.0187-.0314.0059-.0334.0451.034.0279.0695.029.0909-.0324.008.015.0116.0319.0103.0488z"/><path d="m29.9334 42.0962-.0311-.0396c.0075.0152.0181.0287.0311.0396z"/><path d="m31.2893 41.8896c.0037.0339.0151.0665.0334.0954-.0047-.0336-.016-.066-.0334-.0954z"/><path d="m31.7525 42.2612-.0284-.0229c.0261.0367.0428.0558.0284.0229z"/><path d="m29.9335 42.0957.0822.1062c-.0475-.1198-.0548-.0841-.0822-.1062z"/><path d="m27.9848 41.7969c-.004.0155-.0058.0315-.0054.0475l.0101-.0263z"/><path d="m29.4626 42.4746-.0111.0008.0368.1261z"/><path d="m29.0094 42.5242c-.0211-.1035-.0489-.2055-.0833-.3054.0173.0489.0266.1001.0278.1519z"/><path d="m28.2019 42.2373-.0073.0181z"/><path d="m29.8145 42.499.0451.1027z"/><path d="m37.0995 33.4512.022.0094c-.0067-.0044-.0142-.0076-.022-.0094z"/><path d="m37.8867 33.2607v.0068l.0206.0094z"/><path d="m32.3936 42.5018-.0057-.0057c.0134.0463.0151.0358.0057.0057z"/><path d="m34.6986 39.1252c-.1224-.0644-.0946-.1913-.239-.2482.0455.0372.1484.2312.239.2482z"/><path d="m27.9974 41.8024.0137-.0143c-.0034.0009-.0064.0027-.0088.0053-.0025.0025-.0041.0056-.0049.009z"/><path d="m34.4602 38.8769-.0013-.0014-.0137-.0054z"/><path d="m33.061 41.6621-.1009-.1309z"/><path d="m32.184 41.6553.0431.0364c-.0122-.0145-.0268-.0268-.0431-.0364z"/><path d="m33.043 40.9721c.0234.0163.0551.0548.0367.0064l-.0287-.0332c.0251.0433.0337.0666-.008.0268z"/><path d="m33.3263 40.705-.0471-.0507.0023.0234z"/><path d="m36.1497 34.1388.2395.1046c-.1834-.0876-.2011-.1512-.2395-.1046z"/><path d="m28.0017 41.8585c-.0051-.0181-.0065-.0371-.0043-.0558l-.008.0151c.0023.0141.0065.0277.0123.0407z"/><path d="m31.3876 38.6332.0809.0271c-.0108-.0099-.0236-.0173-.0376-.022-.0139-.0047-.0287-.0064-.0433-.0051z"/><path d="m35.0334 36.2597-.0217-.0312s-.0003.0111.0217.0312z"/><path d="m31.5835 38.5654c.0532.0648.1106.1261.1718.1835l-.0485-.0749z"/><path d="m36.3924 34.2446-.0031-.0014z"/><path d="m36.1755 33.7492c-.0615.0255.253.1477.406.2333.0294.0823-.2376-.0835-.4074-.1434.0368.0588.2864.2137.251.228-.0461-.0176-.0905-.0391-.1327-.0644.2102.1492-.1002.0812.1865.2787l-.0869-.0371.4572.2239c-.01.0214.1845.1437-.0397.0391.0151-.0085-.0722-.0544-.1353-.0943l.0788.0678c-.3295-.144-.0876-.0822-.3168-.1991.0615.0836.3008.27.1876.2528-.3205-.1584-.0535-.1231-.3627-.2292l.1551.0177c-.5173-.2186.0578-.0076-.4919-.2468-.1461.0036.1013.1416-.0485.1433l.4335.2406c.255.2544-.877-.3767-.5-.0909.2049.1322.6223.3685.3623.2885l-.3663-.2211c-.0919.0275.5197.3311.2099.244-.1427-.0944-.0879-.1114-.1414-.129-.3389-.1342.1922.1445.1701.1744l-.3489-.1862c.005.0857.2042.2924.2186.3972-.1013-.0721-.2093-.1345-.3225-.1865.1136.1848-.1782.15-.4505.0956l.2847.2176c-.0724-.0296-.1404-.0687-.2022-.1162-.1387-.0409.1938.1213.3035.2105.009.0316-.1925-.0849-.2771-.1531.2236.2148.4535.5149.1013.3754l-.0832-.0699c-.1431-.027.5831.4521.2867.3234l-.0481-.0435c-.1564.0435.0154.3257-.3983.1567.3689.2757-.1805.0214.3181.3786-.263-.0972-.3455-.1801-.5103-.1773-.0221.0162.2797.2481.3158.3155l-.2306-.1654.23.2216-.2714-.1681.0525.0762c.0609.0194.1174.0505.1661.0914.0845.1224-.1761.0175-.2774-.0568l.1524.2563c-.0554-.0469-.1053-.0998-.1487-.1577.1898.2187-.2029-.1391-.0301.0607.0522.0362.1019.076.1487.119-.1197-.0552-.1257.0191-.0913.1055l-.1156-.1008c-.0351.0791.0341.2531.0154.3618.0922.034.1702.0974.2215.18l-.1463-.1028c.0829.0901.0631.0121.1588.1379-.0298.0233-.1645-.1011-.2076-.1624l.0365.0859c-.0415-.0303-.0592-.0579-.1107-.1029.0766.0855-.1564-.0302-.023.1123l-.0391-.0289c-.0301.0998-.002.1803-.0248.2647.0969.0839.0592.0925.1213.1768-.0665.0212-.1681.0194-.2052.0806.0131.0773.0649.0762.1026.1392-.0812-.0663-.1199-.0062-.1524-.0839-.0447.068-.0688.1471-.0695.2282.0401.0208.0635.024.0853.053-.001.0257-.0645.002-.1-.0344l-.0043-.011c.0354.2001-.4458-.0354-.3682.1679l-.0041-.0113.0074.1453c-.0555.0099-.0428-.0799-.128-.1158.0618.2102-.1882.0502-.1674.1941-.383-.293-.2213.1171-.5344-.0809l.0902.0878c.0589.0958-.0782-.0419-.117-.0586.0698.0708.104.0738.1354.1283-.0949.1901-.5822-.0322-.9314-.1473-.1194-.0325.5414.6946.1704.3998l-.1902-.2638c.1177.3652-.3432.0389-.2366.3932-.0468-.0723-.1176-.1619-.1032-.1655-.2019-.2073-.1177.0243.025.2087-.0785-.0789-.1517-.1627-.2192-.2508-.1334-.125.1504.3143-.0397.0932-.0241-.0289-.0434-.0614-.0572-.0963.0662.1171-.1109-.0004.1117.262-.1471-.108-.002.1641-.1625.0192.2052.3232-.1945-.1139.1244.3353-.3342-.4616-.3617-.3434-.2333-.1073-.0923-.147-.1344-.1384-.2644-.3418-.0317.0181-.0016.1186.1798.3642-.4752-.5596.1962.5285-.3659-.2168.0676.2298.0992.4684.0936.7076-.3395-.5276.0691-.1001-.2945-.6425.0515.2428.2965.7282.125.6397-.0755-.1033-.1379-.2153-.1858-.3335.0518.2596-.2039.014-.0959.3525-.0292-.0508-.0544-.1038-.0752-.1584-.004.025-.0846-.0658.0702.1871l-.0268-.0758c.1937.3212.3661.6544.5161.9975-.4104-.7441-.1875-.1418-.6962-1.0892.0502.1218.111.2391.1818.3505-.0857-.1037-.1559-.219-.2082-.3424.0295.1665.2086.4308.1561.4513l-.1711-.3279c.1176.2556.2333.5146.1313.4321-.0408-.077-.1016-.1727-.0885-.1778-.0458.0767.2493.725.0374.533-.2777-.5606-.126-.1662-.3887-.6377l.0371.165.141.2206c-.0401.0127.1116.3756-.0033.2386l-.0769-.2107-.0201.1299.1337.1565c.0909.2652.3212.5963.1992.4921-.0144-.0539-.0431.0146-.2069-.252l-.0007-.0013c.0592.1605.1197.328.0311.2276l-.3148-.619c.1821.4027-.0278.1629.1557.5904-.0404-.1016-.1621-.3456-.1895-.3941l.1424.3246c-.0758-.1033-.1387-.2151-.1876-.333-.0788-.0254.3065.5768.12.3608-.0077-.0281-.0327-.0738-.0461-.1272-.124-.0922-.0251.2673-.1541.1521-.2309-.4435-.0056-.1449-.2068-.5172-.0288.1485.0892.6479-.0398.5895l.0368.0398c.2643.6229-.1969-.2711-.1077.0428-.0312-.0938-.0673-.1858-.1082-.2759-.095-.0631-.0415.22-.0505.45l-.0528-.1567c-.0882-.1149-.1143-.0212-.1755-.0646.025.1192.0645.2349.1177.3447-.4238-.7324-.0471.5422-.3967-.0547.0029-.0438-.0059-.0877-.0254-.1272l-.0358.1719c.0384.0993.0852.1952.14.2867.0375.1358.0485.2459.0251.2537-.0317-.1616-.0945-.3156-.1851-.4539l.0721.2042c-.1797-.3507.1451.4274-.0096.2027l-.0351-.1094c-.0034.067.023.2152-.0141.1946-.0909-.2247-.012-.118-.0778-.3104-.0271.0371.0792.4632-.0308.2538-.0057-.0682.0157-.0795.0087-.1496-.1257-.2461-.1046-.1736-.143-.1992l.0043.0042-.0936-.0743.0368.0573c.1414.575-.0511.1565-.0007.5254-.0434-.3441-.0501-.1891-.1169-.4123-.0408-.0504-.0716-.1079-.0906-.1695.0301.1939-.0829-.0967-.0411.1796-.0224-.0651-.0294.015-.0745-.1536-.0167.0785.0427.1068.0658.1917.0104.2461-.2012-.1696-.1938.1663-.0348.1559-.001.3289-.0512.4226-.0265-.0537-.0359-.114-.027-.1731-.0548-.0496-.0759-.0161-.098.046-.0042-.0365-.0176-.0714-.0391-.1015-.0227.0298.0191.1488-.031.1139-.0073-.0545-.0115-.1093-.0127-.1642-.0146.0654-.0344.1295-.0592.1918-.022-.0473-.0017-.0942-.001-.142-.0407.0593-.0653.1279-.0712.1993l.0308.0141c-.0131.0096-.0228-.059-.0167-.0799.0147-.0835.0511-.0031.0615.0286l-.0188.0309c.0709.1682.0919-.0645.1381-.0912l.0227.1692.0144-.1548c.0224.0396.0578.1387.0387.1687.0619.0821.0154-.0706.0759.0255.0063.0097.0089.0214.0073.0328l.0218-.0617c.004.0422.0454.1392.0137.1111.1046.1225.0661-.1638.1393.0005l-.0016.014c.0728-.0834-.0378-.1644-.0325-.3911l.1798.4419-.0464-.1873c.0117.0051.0347.0164.0541.093-.0033-.1356-.0307-.0816-.0478-.209.1006.171.0956-.1183.2086.2087-.0338-.1634-.0809-.1113-.0682-.2348.128.3595.0348-.0782.1293.0802.0508.1998-.0244.0997.0752.2688-.0818-.3372.1086.064.1267-.0002-.0912-.2809.0404-.1284.0675-.2366.0301.1005.1718.1485.2744.2636l.0174.0546c-.105-.3283-.0248-.2767-.0081-.3543.0513.1217.0863.2494.104.38l.0424-.0027c-.0263-.0685-.0356-.1422-.0274-.215l.0866.2632c.0528-.017-.0067-.3283.133-.1575-.14-.2847-.2487-.5832-.3242-.8907.0631.1417.1148.2879.1547.4375-.001-.0198-.0237-.1215.011-.0655l.0628.2415c.0705.0961-.0595-.1987-.0277-.1848.0772.2002.0732.1376.132.298.001.0207-.0535-.077-.0328.0032.0836.0844.1498.1839.1949.2931-.0471-.0965-.08-.1991-.0976-.3047.0471-.0275.1159.2423.1908.3432-.0441-.146.0518-.0018-.0735-.3148.0484.0713.0884.1478.1193.2279-.0274-.1435.1173-.0637-.0561-.3999l-.0165-.0207-.0013-.0152h-.0004.0004c-.0495-.3502.259.1299.2877-.036l.0495.1132c-.0044-.1447.0839-.1102.008-.371.0786.1042.1418.2187.1878.3403.0014-.0984-.0561-.2327.0916-.0558.0538.2167.0986.1782.0271.1618.0996.0858.2042.2773.1083-.0658.1233.3106.2225.3735.2052.2745l-.1421-.2085c.007-.0537.0445-.0342.0816-.0175l.1811.4112c.3593.4654-.2209-.9183.2804-.1062-.1176-.3005-.1621-.1837-.3061-.5316.0745.0361.4312.6164.4491.6132.1922.21-.2503-.6358-.0985-.5046-.1383-.2217-.249-.4589-.3299-.7066.1776.2244.3206.4733.4244.7388-.005.0174-.0357-.0282-.0621-.0792.0207.1049.0657.2037.1314.2888l-.0729-.1527c.1056.1441.1658.1002.2814.3533-.0282-.1223-.0926-.2336-.1851-.3199.1801.1914.1016-.0354.2466.0838-.059-.0796-.1097-.1649-.1511-.2546.1959.1444-.1173-.3055-.0942-.4025.1618.211.2938.555.2466.3292.122.16.2186.3373.2865.5258-.1063-.321.2152.131.2793.1641l.0388.1387c-.0227-.0826-.0067-.0892.009-.0976l-.1898-.2891c.0589.0398.1056.0947.135.1588-.0955-.2065-.3011-.4895-.4217-.7776.1106.1379-.0278-.2028.2118.1868-.1497-.0905.241.3914.2169.4931-.0157-.0546 0-.0616.0482-.0202.0226.0339.0408.0705.0541.1089.2774.3071-.2306-.4662-.1554-.5017.123.2269.2664.4074.2497.3522-.1305-.1649-.2349-.3481-.3098-.5437.1473.1417-.0288-.1584.006-.1532l-.0749-.063c-.124-.2245-.0849-.2092-.0969-.297.1063.1677.0441.1344.1006.202-.2015-.4025.3178.343.2059.0544.1119.1296.2536.4008.3342.4848-.122-.315.2413.2479.1514-.0223-.1261-.1506-.2256-.3211-.2941-.5042l.0387.2656-.2055-.4538c-.0291.0138.0571.2176.0103.1806-.0587-.1469-.1399-.2841-.2406-.407.3078.4027-.0855-.294.1374-.0377l.4478.6965c.26.252-.1236-.4478.0669-.3417l-.103-.0956c-.1677-.2764.0231-.0772-.024-.2059.0973.1472.2048.2875.3218.42-.1123-.1623.0662-.0376-.2256-.48l.2309.2568c.1421.0584-.3549-.6738-.2443-.6463.1323.1808.2502.3715.3526.5702.0214-.0158.0662.0063-.0364-.1396.1043.12-.1457-.3294.0137-.147-.0572-.0982-.2096-.3167-.1751-.3172l.0732.1014c-.0681-.1343-.1513-.2607-.248-.3768.5243.5876.1336-.1792.5781.3023-.0127-.0877-.0062-.1771.0191-.2621.0411.0585.0722.0937.0501.081.1838.1223-.3833-.5649-.1754-.423.2606.2679.0949.1887.2008.2836.4789.5928.004-.1499.3145.1559l.0187.0444c.1855.1645-.1063-.295-.0297-.3052l.0685.0847c-.1263-.1745-.2069-.377-.2346-.5895.0717.1189.1568.2296.2536.3298-.0063-.0519-.2861-.3302-.2951-.4274.1424.1139.2755.2385.3984.3725l-.0231.0566c.253.2571.0341-.0687.0909-.0452l.0993.1223c.0097-.1186-.2376-.407-.1651-.4568l-.0785-.0764c-.2062-.3082.1584.1206.014-.116l.244.2552c-.0682-.1373-.1217-.2813-.1594-.4295.1035.1631.1937.3341.2696.5113.0184-.0275.0388-.1199-.0608-.2546.014.0343.0602.1099.0187.0824-.1557-.2321-.2052-.3601-.1597-.4014.4011.4547.2022-.0176.5233.2594-.0808-.248.1608-.1528.1925-.3079-.2703-.21.0104-.0435-.2446-.2909.0014-.0407.012-.0456.0294-.0318l.1908.0639c.0779.0471.0381.0782.0926.1288.0458-.0478.111.0714.1865.0845-.0832-.0701-.1096-.1413-.0589-.144l-.1273-.0512c-.0715-.1987.2253.1094.1591-.0854l.0511.0908c-.014-.0802.0899-.1595-.0438-.3491.0274.0143.0863.0547.0903.087.0805-.0813-.0171-.3579.1323-.3393l.0398.0477c0-.0285-.0615-.1048.0014-.0835.018.0179.0397.0472.0487.0422-.0083-.0226-.0424-.113.0034-.1094l.0347.063c.1364-.0268-.0063-.2307.0281-.3208.0412.0401.0913.0702.1464.0878.055.0177.1135.0224.1708.0138l.0197.0187c.139-.0522.0705-.2273.0929-.361.256.1126.3292-.0562.5912-.0056-.0758-.0411-.1393-.1009-.1845-.1735.0786.0249-.0985-.1735.1273.0054l-.0143.0016c.2466.1625.2543.0936.3098.0781l-.3175-.2491c.6176.3128.0792-.3241.6356-.0005-.0712-.087-.0354-.1055-.1126-.1958l.2219.1599c.139-.001.2149.0015.2604-.0902l.1534.1316c.0825-.0142-.6427-.5313-.62-.5762l.3994.2534c.0799-.0629.514.1025.2159-.2121.0669.04.1282.0885.1821.1444.0452-.0258.4348.0627-.1714-.3073.3846.2466.1066-.0544-.0371-.2066l.2831.1887c-.3409-.2686-.4422-.3333-.5104-.448.0458.0115.2396.1343.1547.1041.1795.0541-.2546-.2025-.0682-.1557l.1745.1335c.0494-.0286-.0528-.0873-.2557-.2432-.1006-.0977.122-.0348.3894.1172-.1575-.1031-.3583-.2554-.2674-.2346.0658.0355.1278.0773.1851.125.2407.0449-.278-.3084.0325-.1916.057.0342.1162.065.1771.0921-.0361.0565-.0752.0959-.0946.0785.2411.1119.4718.2444.6895.3958-.1852-.1634-.5882-.4857-.4435-.4624l.0942.0466.0277.0224c.0311.0037.0104-.0211-.0301-.0565.0498.0091.0859.0173.0959.0041.2206.1189.1401.0067.1604-.0133-.1507-.1034-.3103-.1937-.4769-.27.0102.0036.019.0099.0256.0183s.0106.0185.0115.0291c.0067.0105.0152.0198.0251.0275l-.0244-.0161c.0009.0245-.0016.049-.0073.0728-.1384-.1041-.2517-.1934-.0803-.1298l-.4465-.2953c.4155.1945.6588.2486.9037.3731-.1113-.2453-.302-.4475-.5424-.5749-.0565-.056.1561.054.2386.0884.0465.0399.0331.0509.1043.0973-.1153-.1144-.006-.1593-.3489-.3519.1785.0289.3078.1985.2797.0939l.1016.0654c.5729.1131-.7673-.6759-.0645-.5128-.0386-.0046-.0762-.0155-.1113-.0322.2911-.0783-.1042-.4911.2804-.5242.0716-.028-.0708-.0982-.1711-.1785l.1731.0637-.1895-.145c-.0959-.1274.353.0009.1351-.202l-.0792-.0192c.0164-.0324-.0258-.1343.0488-.0969-.0121-.0091-.0655-.0399-.0308-.0408l.0478.0185c-.025-.0392-.0471-.0801-.0662-.1225.0331-.0604.1547.0742.1397-.04-.0274-.0513-.0856-.1476-.0956-.1365-.0007.0048-.0025.0094-.0053.0133-.0027.004-.0064.0073-.0106.0097-.0043.0024-.009.0038-.0139.0041s-.0098-.0005-.0143-.0023l-.001-.0367c-.0316-.0244-.069-.0405-.1087-.0466-.0397-.0062-.0803-.0023-.1179.0114-.0072.0182-.0106.0377-.0101.0572l-.0668-.0071.0525-.0304c-.0726.0003-.0599.0237-.0505.0482-.0279-.0076-.0569-.0107-.0859-.0091.0151.029.0331.0564.0538.0818-.0598-.0171-.0698-.0553-.1444-.0457.0308.0407.1421.0312.1394.0768-.0882-.0069-.1394-.0368-.1136.0082-.0448-.0137-.0632-.0286-.0649-.0428.0141.0363-.0688.0516.0101.1004-.1334-.0256-.0672.0746-.2577-.0096.0337.0236.1003.0962.0855.1179-.2082-.1409-.1183.0529-.411-.0891.2079.1287-.0264.122.0895.2403-.021-.0134-.0638-.04-.0441-.0369-.08-.0008-.1594-.0129-.2359-.0358.1498.0763.2885.1721.4124.2848-.1912-.0774-.3765-.1679-.5548-.2709.2179.0986.1504.1487.3506.227-.1214-.0275-.2396-.067-.3529-.1179.3502.1716.0317.0472.2309.1709-.2202-.0541-.3562-.1571-.2904-.0704-.0847-.0257-.1619-.0709-.2254-.1316zm-.1651 1.2443-.0057-.0034-.0016-.0295zm-.0529.0853c.008-.0015.0155-.0051.0217-.0102.0063-.0051.0111-.0117.0141-.0192.0706.0319.1359.0742.1935.1255-.0728-.0398-.1496-.072-.2293-.0961zm2.1186.9638c.0341.0407-.0248.0142-.0846-.0173-.0045-.0178-.0122-.0346-.0227-.0497l-.0344-.0221z"/><path d="m37.7114 35.7985-.018-.0187-.0689-.0269.0876.057z"/><path d="m29.8974 42.0506.005.0064-.0228-.0424z"/><path d="m34.9476 36.0601.0534.0391-.0465-.0445z"/><path d="m28.9723 41.299-.0304-.0617z"/><path d="m28.7427 41.386-.0572-.0598c.0158.0227.0351.0429.0572.0598z"/><path d="m28.5472 41.3945.0254.0912.001.001z"/><path d="m30.7629 39.3485c0-.0063-.0011-.0125-.0033-.0184-.0264-.0736-.02-.0428.0033.0184z"/><path d="m30.4799 40.5882-.0626-.1815c-.0277-.0194-.0417-.0204.0626.1815z"/><path d="m31.3789 38.6299.0029.0058.0059-.0014z"/><path d="m30.4558 40.392c-.0508-.0633-.0538-.0413-.0385.0141.0234.0173.0558.0463.0385-.0141z"/><path d="m27.8417 41.9268-.0082.0053.0027.0135z"/><path d="m27.8357 41.9443-.0064.0173c.0022-.0023.0039-.0051.005-.008.0011-.003.0015-.0061.0014-.0093z"/><path d="m27.8157 41.997.0136-.0351c-.0054.004-.0096.0094-.012.0156s-.003.0129-.0016.0195z"/><path d="m28.0653 41.7764-.0104-.0479z"/><path d="m28.1251 41.7045c-.0187.0009-.0662-.067-.0782-.0148l.008.0383c-.01-.0813.0785.0706.0702-.0235z"/><path d="m28.6518 42.3255-.0855-.0482c.0327.0676.0782.1624.0504.178.1548.2109-.0658-.1547.0351-.1298z"/><path d="m28.9042 42.4189c-.0264.0392.0384.1171.0515.1636.0042-.0293.0017-.0592-.0072-.0875-.0089-.0282-.024-.0542-.0443-.0761z"/><path d="m30.4812 42.1738.1334.3023c.0103-.0496-.0529-.117-.1334-.3023z"/><path d="m29.995 40.4667-.115-.1806.1273.2938z"/><path d="m31.2489 42.6434.0096.0485-.0082-.1294z"/><path d="m33.4617 41.0018-.2406-.3075c.0277.0699.2884.4277.2406.3075z"/><path d="m33.9729 39.8098c.1046.1017.1818.141.0989.0167-.0266.0083-.1162-.0562-.0989-.0167z"/><path d="m36.5328 37.5765.0438.0607-.0109-.062z"/><path d="m37.7927 33.2245c.005.0178.0354.0207.0381-.0215l-.0438-.0477z"/><path d="m37.9654 32.9989c-.0108-.0366-.0324-.0692-.062-.0937s-.066-.0398-.1044-.0439c.0745.0773.0431.0777.1142.1583-.0043.0417-.0404.0602-.0615.0449.0124.0199-.0237.0579.0051.0923.03-.018.0526-.046.0634-.0789.0109-.033.0094-.0687-.0043-.1006.0207-.0082.0368.0133.0495.0216z"/><path d="m39.4574 29.2197-.0515.0214c.0191-.0013.0372-.0088.0515-.0214z"/><path d="m39.8734 26.6452c.012.0193.0598.0242.1033.022-.0305-.0196-.0673-.0274-.1033-.022z"/><path d="m40.372 26.1348-.0304.0314c.0434-.0155.0671-.029.0304-.0314z"/><path d="m39.4573 29.2194.1373-.0553c-.1296-.0171-.1023.0254-.1373.0553z"/><path d="m37.822 32.376c.0073.0177.0181.0338.0318.0473l-.0111-.0382z"/><path d="m39.4877 30.3623-.006.0202.128.0402z"/><path d="m39.2264 31.1956c-.0993-.0474-.204-.083-.3118-.1058.0925.0322.1333.0562.1453.0764z"/><path d="m38.3562 32.3564.008.0274z"/><path d="m39.7253 29.7656.1133.0069z"/><path d="m28.8119 9.65653.0231.00907c-.0087-.0095-.0164-.01449-.0231-.00907z"/><path d="m29.895 9.06152-.0055.01213.0178.01617z"/><path d="m40.7637 25.1758-.007.0054c.0512.0151.0405.0032.007-.0054z"/><path d="m35.4996 19.2314c-.0277.151-.2329.0573-.2373.2437.0304-.0506.2617-.1194.2373-.2437z"/><path d="m37.8388 32.3588.0013-.0346c-.0049.011-.0054.0233-.0013.0346z"/><path d="m35.2624 19.4746-.001.0009v.0186z"/><path d="m39.8129 23.249c-.0506.0239-.0996.0509-.1468.0807.0514-.0224.1005-.0494.1468-.0807z"/><path d="m39.8259 24.8388.0435-.0478c-.0321.0226-.0415.0368-.0435.0478z"/><path d="m38.944 22.7628c.0147-.0297.0561-.0581-.0023-.0597l-.0355.0271c.0498-.0138.0779-.0129.0378.0326z"/><path d="m38.4999 22.0918-.0507.0485.0301.0108z"/><path d="m27.965 12.1548c.0831-.028.168-.0507.254-.0679-.2008.0359-.2673-.0848-.254.0679z"/><path d="m37.8859 32.3969c-.0281-.0137-.0418-.0245-.0472-.0375l.0041.0258c.0131.0075.0279.0115.0431.0117z"/><path d="m36.3462 24.0221.0194-.108c-.0107.0156-.018.0333-.0213.0519-.0034.0187-.0027.0377.0019.0561z"/><path d="m30.7292 17.1602-.0471.0037c.0057.01.0197.0108.0471-.0037z"/><path d="m36.2252 23.6907c.0701-.0491.1344-.1059.1915-.1692l-.0829.0358z"/><path d="m28.2222 12.0859-.0032.0007z"/><path d="m27.7434 11.1812c-.0461.1393.2998.0753.4792.1093.0619.1549-.2573.0675-.4411.1215.0638.1048.372.1722.3506.2436-.0488.0139-.1001.0167-.1501.0084.2674.0888-.0291.3151.3316.3971-.0298.0108-.0604.0192-.0916.0249.167-.0342.336-.0581.506-.0717.0093.0521.2439.0668.001.1166.0043-.0326-.0943-.0233-.1712-.0296l.1097.0426c-.3496.0956-.1264-.0613-.384-.0318.1126.1045.4231.1858.3282.2842-.3523.0778-.1315-.183-.4365-.018l.1267-.1563c-.5431.1802.0364-.0916-.5458.086-.1019.2122.1801.1893.0805.4007.2009.004.2931-.0706.4957-.0688.3987.1632-.888.4054-.3757.4879.2517-.0101.7222-.1192.498.0772l-.4261.0715c-.0123.193.6239-.0781.3816.1828-.1741.0213-.1714-.0898-.2159-.0488-.3064.2194.2577.0093.2811.0937l-.3706.1403c.1019.1702.4304.2684.5731.4215-.125.0194-.2434.0679-.3455.1415.2717.1699.1517.532.0441.8773l.3623-.0771c.0063.0214-.1264.1123-.1992.1227-.0776.1522.2055-.1014.3516-.1254.0457.0367-.1488.1606-.2624.1815.3587.0091.8145.084.5879.4252l-.1107.0272c-.0381.1883.7086-.2616.5047.0114l-.0668.0149c.0561.3159.5096.3783.289.8176.3911-.2441.0669.3165.5665-.0534-.1089.2943-.2349.3366-.1818.5999.0368.0526.3479-.172.4525-.1636l-.2149.1888.3121-.1356-.2008.252.1157-.007c-.0134-.0266.0384-.1162.1013-.1665.1804-.0152.0912.2818.0026.3711l.38-.0046c-.0624.0462-.135.0773-.2119.091.3005-.1011-.1584.1884.1174.0953.0227-.0458.1079-.0932.144-.1246-.0468.1322.0852.2019.2166.2169l-.1224.0947c.1978.0913.4008.1712.608.2392-.0311-.0759.134-.2246.1981-.2049l-.1042.146c.1113-.0613-.0077-.084.156-.1411.0511.0571-.0922.1737-.1744.1966l.1266.0017c-.0307.0409-.0688.0494-.1196.0954.1063-.0576.0297.2063.2025.1014l-.0284.0386c.1868.1025.2954.1218.4452.2038.0876-.0922.1226-.0338.2289-.0781.0715.1023.1186.2539.2413.3358.1186.0212.0882-.0545.1697-.0769-.0635.0832.0558.1689-.0524.177.123.0921.2607.1636.4074.2117.0103-.0482.0027-.0801.0367-.0977.0415.0135.0391.0936.0014.1279l-.0151.0012c.2978.0386.1996.6379.4874.6085l-.0157.001.2252.053c.0485.0859-.0989.0269-.1043.1362.2885.0059.1969.296.4115.3263-.2139.4325.3261.3708.2012.7633l.0792-.0973c.1089-.0448-.0181.1007-.0207.1531.0655-.0743.0508-.1256.1136-.1484.3455.2255.3028.8622.3178 1.3491.0167.168.7212-.5216.4839-.0812l-.2797.1727c.4565-.0101.2206.5396.6514.5464-.0799.0376-.1735.1046-.1842.0806-.1982.2124.0689.1951.2674.0631-.0033.0517-.1694.1277-.2567.217-.12.1432.366-.0809.1381.1038-.0318.0229-.0692.0371-.1083.0412.133-.045.0384.1665.3107-.0451-.0999.173.2059.0898.0615.2635.3596-.1475-.0993.2399.3947-.0141-.5036.2708-.3569.3728-.0866.3053-.1654.0613-.147.1304-.3756.2184.0287.0563.1447.0668.4177-.0747-.6189.4155.6173.0075-.2212.4437.2912.0411.5688.148.8111.3123-.6042.1908-.1136-.1821-.7326.0435.2774.0728.8255.0149.7196.2359-.0745.069-.2751.0515-.3827.0683.2938.0989.005.341.3813.4141-.0591.0107-.1196.0128-.1794.0062.026.0261-.0829.092.2092.0239l-.0846-.0126c.3736-.0826.7563-.1178 1.139-.1046-.8536.1199-.1775.2104-1.2627.3363.1346.0089.2697-.0033.4004-.0362-.1212.0643-.2582.0942-.3957.0864.1771.0795.487-.0169.4976.0887-.1443.0245-.2031.0133-.3739.0328.2881.0009.5802.0095.4732.1185-.0879.0082-.1995.0358-.2015.0095.0635.1398.7931.1591.5421.3705-.6353.02-.1999.0823-.7423.1483l.1748.072.2587-.0622c.002.0794.4071.1177.236.2042l-.2296-.0424.1203.1441.1948-.1026c.2871.0636.6828-.0619.5424.0647-.0571-.02.0004.0887-.3114.1514l-.0014-.0002c.1758.0316.3553.0678.2272.1383-.1691.0241-.5902.0141-.7028.0299.4485.0207.1427.1872.6156.2269-.1477-.0114-.2961-.0118-.4438-.0011l.3592.0256c-.1235.0447-.2558.0608-.3866.0471-.0565.1177.6617-.05.3836.0959-.0461-.0058-.0918-.0148-.1367-.0269-.1366.1405.2367.273.0692.4033-.5076.0299-.1316-.1142-.5611-.0759.1153.1783.627.397.5103.5766l.0535-.0314c.6878.0614-.3382.1186-.0147.2285-.098-.0245-.1984-.0387-.2995-.0425-.1032.1164.1765.2629.3697.473l-.1645-.0388c-.1464.0597-.0839.1852-.156.2566.1588.0411.1316.0842.3612.0826-.8746.1345.4235.5379-.2907.6564.0003-.0265-.1203-.0821-.122-.0615l.12.2075c.1089.0149.2196.0119.3275-.0087.1363.0474.2353.1199.2256.167-.1377-.1123-.37-.0643-.4966-.051.0701.0064.1453.0328.2162.0425-.4094.0251.4482.0996.1598.1853l-.1136-.0291c.0531.0617.1915.1375.1487.1858-.2473-.0267-.1046-.0767-.3075-.1204.0097.0785.4335.2443.1842.264-.0599-.0463-.0538-.0933-.1157-.1394-.2907.0169-.2165.0404-.2663.0867l.0067-.0041-.1317.1017.0742-.0167c.5722.2265.0869.218.4234.4325-.3118-.2064-.1915-.0679-.4234-.1345-.0685.017-.1417.0496-.2059.0193.1801.107-.1407.0665.113.2193-.0695-.0142-.0114.0638-.1812.0049.0518.0941.118.0122.2046.0416.2055.1825-.2814.2161-.0137.4749.0909.1853.256.2663.2864.4273-.0866.0233-.1584-.0917-.1584-.0917-.0856.0543-.0786.1173-.0481.2046-.0325-.0264-.0662-.0213-.1147-.014.0024.0623.1337.0861.0612.1434-.0503-.0319-.0973-.0684-.1404-.1091.0391.0818.0714.1667.0966.2536-.0582-.0003-.0765-.0727-.1136-.112.0204.0916.0244.2288.0909.2797l.0408-.0405c-.0047.0297-.0696-.009-.0803-.0358-.0521-.0919.0468-.089.0816-.0811l.0067.0568c.2012.0148.0307-.2082.0535-.308l.153.0967-.1093-.1483c.0508-.0069.1588.0118.1665.0686.1169-.0406-.0428-.0833.0838-.1101.0191-.0013.0271.0047.0321.0132l-.0304-.0865c.0364.0266.1467.0335.0986.0657.1828-.0819-.0755-.2459.1129-.2406l.0094.0145c-.0073-.1934-.1588-.0666-.3315-.2583l.4882.0444-.1838-.0708c.0131-.0159.0401-.0471.116-.0188-.11-.1036-.0889-.0124-.2029-.0862.2146-.0354-.023-.2627.3292-.1923-.1567-.074-.1537.0497-.2409-.0726.3887.071-.0337-.1236.1668-.1584.2002.0752.0605.1232.2747.0893-.3352-.1338.1383-.1351.0976-.2194-.2975-.0719-.0766-.1758-.1457-.3124.1032.0301.2416-.1777.403-.262l.0568.0142c-.3412-.0872-.2459-.1852-.2994-.2792.1366.0121.2679.0578.3819.1329l.0251-.0768c-.112-.0387-.1668-.0733-.1971-.1304l.2737.0666c.0187-.1067-.2768-.2608-.0502-.3643-.2773-.0467-.7787-.0104-.9458-.1729.1579.0076.3137.0391.4619.0933-.0174-.0148-.117-.06-.0488-.0746l.2413.0915c.1237-.0441-.2038-.0616-.1718-.1057.2153.0312.1611-.0139.3316.0167.018.0153-.0986.0296-.0184.0599.1084-.0708.2373-.1051.3673-.0975-.126-.0118-.2951-.0393-.3152-.083.006-.1056.2744-.0013.4047-.0483-.1494-.0445.0305-.0923-.3084-.1338.0077-.0303.1681-.0176.2633-.0191-.138-.0716.0144-.2597-.3726-.2362l-.0271.0112-.0137-.0103c-.3278-.2074.258-.3479.126-.5376l.125.0085c-.1291-.1142-.0535-.2403-.3266-.3281.1254-.0495.2621-.0643.3954-.0427-.0889-.0858-.2369-.0987-.009-.2091.2212.0892.2065-.0223.1594.0896.1243-.1021.3412-.124-.013-.247.3375.0467.4401-.0747.3425-.1282l-.2536.073c-.0455-.0583-.0107-.108.0227-.1592l.4542.0306c.5852-.2381-.9318-.3933.022-.5878-.3285-.0489-.2336.1307-.6173.088.0619-.1009.7434-.2378.7467-.2731.2693-.1619-.6942-.0994-.5187-.2573-.2619.0562-.5336.0503-.7928-.0171.2662-.123.5633-.1662.8542-.1242.0154.024-.0387.0401-.0969.0433.0495.0256.1042.0401.1601.0425.0558.0023.1116-.0076.1631-.029l-.1721-.0014c.1738-.0646.1507-.2101.4338-.1995-.0607-.027-.1279-.036-.1937-.026-.0657.01-.1271.0386-.1766.0823.2436-.1578-.007-.2124.1504-.3704-.0936.0331-.2951.0751-.2951.0531.1955-.2274-.3349-.0518-.4275-.175.2537-.1101.6337-.0535.3944-.1624.189-.0828.3994-.1057.6022-.0656-.3516-.084.1875-.2778.2323-.3679l.1521.0496c-.0903-.0301-.0943-.0653-.1003-.1012l-.3372.0968c.0204-.0322.0484-.0589.0816-.0779.0333-.019.0708-.0298.1092-.0313-.2947.0501-.5921.0835-.8906.1001.1647-.0831-.2169-.1214.2342-.2247-.1216.1946.4535-.1043.5558.027-.0601-.0185-.0648-.0528-.0127-.1054.04-.0126.0827-.0143.1237-.0052.3713-.2447-.5298.0208-.5585-.1455.2603-.0311.4729-.1397.411-.1565.0131.0704-.4161.1208-.6249.1032.1707-.1481-.1752-.0803-.1655-.1388l-.0768.0823c-.2577.0367-.2353-.0209-.3352-.0707.1935-.0531.1527.0309.2316-.0144-.4616.0311.4017-.2893.0725-.3261.1511-.0961.4622-.1291.5605-.2063-.3616-.0386.2824-.2349-.0301-.2955-.1724.1065-.3773.1498-.5789.1224l.3078.1462-.5243.0024c.0167.0632.2526.0731.2105.1272-.1634-.0148-.3274.0209-.4692.1022.4619-.2264-.3406-.0805-.0435-.2745l.7988-.2465c.2904-.272-.52-.1387-.4037-.398l-.1066.1107c-.3155.0849-.0923-.1024-.2447-.1169.1689-.0614.3278-.1468.4716-.2534-.1838.0767-.0561-.1501-.5575.0366l.2824-.2195c.0438-.211-.781.1317-.7676-.0405.2784-.0778.4094-.2213.6473-.2099-.0247-.0495-.0067-.1136-.1694-.0373.1306-.0997-.389.0214-.1952-.1286-.1126.0308-.3556.1455-.366.0855.0356-.0222.0731-.0413.112-.0572-.1126.0568-.1975-.0002-.4224.1732.6213-.5124-.2761-.3401.2189-.7915-.1296-.0466-.2514-.1117-.3616-.1933.0638-.034.0996-.065.0912-.036.0939-.2354-.621.3092-.509.047.2624-.2798.2199-.0493.3078-.1709.6193-.4561-.2069-.095.0772-.4299l.0545-.0065c.1437-.2121-.3713.0168-.4218-.1114.0311-.0193.0603-.0415.0872-.0662-.2248.1107-.4822.1394-.7265.081.2333-.142.1504-.0494.3436-.2394-.0709-.0154-.3282.29-.4619.2572.088-.1642.1998-.3149.3319-.4475l.0925.0643c.2397-.2747-.1153-.0882-.1106-.1664l.1247-.0975c-.1755-.0718-.4636.1819-.5749.0478l-.0688.0862c-.3375.1791.0899-.1894-.1768-.0733l.24-.2608c-.1778.045-.361.065-.5444.0595.1915-.0905.3947-.155.6039-.1919-.0486-.0369-.1075-.058-.1687-.0606s-.1217.0135-.1732.0461c.0431-.0067.1286-.0446.1116.006-.2557.1373-.4178.1581-.5053.0736.4488-.4126-.1421-.3082.0825-.6633-.3218.0163-.3282-.285-.5715-.3965-.1614.3053-.0698-.033-.2961.2345-.0618-.0188-.0755-.0367-.0645-.0563l-.0113-.249c.0277-.0927.0962-.0233.142-.0813-.0963-.0845.0461-.1305.0254-.2341-.0605.0924-.1507.0998-.1845.0284l-.007.1609c-.2617.0237.0394-.2747-.2219-.2535l.1106-.0381c-.1183-.0069-.2918-.1834-.509-.0736.0074-.0329.0381-.1.0846-.0916-.1638-.1472-.5378-.1255-.5859-.3278l.0534-.0355c-.0438-.0121-.1306.0412-.1293-.0374.0184-.0172.0528-.0352.0404-.0498-.0304.0021-.1527.0107-.1697-.0511l.0799-.0214c-.1066-.1985-.3533-.0909-.5123-.1794.0402-.0563.063-.123.0655-.1918.0026-.0688-.0152-.1369-.0512-.196l.0204-.0183c-.1427-.2076-.3797-.1974-.5885-.3052.0792-.2915-.1965-.4793-.1939-.7969-.0208.0389-.0505.0726-.0868.0983-.0362.0258-.078.043-.122.0503.017-.0902-.234.0314-.0244-.1662l.006.0201c.1801-.2346.0792-.2805.0448-.3606l-.2985.2717c.3336-.6164-.4719-.3187-.0678-.8276-.1136.0336-.1374-.0254-.2577.0118l.2146-.1755c.0013-.1736.0036-.2568-.1164-.3678l.1815-.0992c-.0097-.1017-.7369.4191-.7995.3516l.3637-.3015c-.0853-.1442.2125-.5347-.23-.4248.0622-.0379.1851-.1132.2129-.1016-.0238-.075.1738-.4378-.4138-.0436.3847-.241-.0327-.166-.2536-.142l.3014-.1594c-.4114.1552-.5177.2109-.6764.1776.0261-.0434.2293-.1512.1688-.0805.1169-.1573-.3185.0996-.2082-.0758l.2117-.0701c-.0174-.0857-.116-.0249-.3653.0497-.1477.0132-.0003-.1863.2714-.3301-.1741.073-.4231.1394-.3673.0559.0659-.037.1376-.0629.2122-.0768.139-.2158-.4555-.0272-.1939-.2483.0622-.025.1218-.0559.1778-.0922.0395.101.0602.1877.0345.1904.2229-.1455.4649-.2607.7192-.3425-.2437.0446-.7613.1344-.6668.0028l.0936-.0492.0358-.0053c.0197-.0281-.0151-.0324-.0705-.0279.0344-.0418.0614-.0697.0538-.0935.2292-.0979.0835-.1306.0785-.1713-.3102.114-.2824.0443-.5187.1832.0197-.0143.0404-.0055.0648.0163.0125.0051.0261.0069.0395.0053l-.0288.0072.0675.0906c-.1744.03-.3248.0437-.1691-.0646l-.526.119c.4117-.2147.6009-.3938.8596-.4902-.237-.0612-.2393-.2295-.8352-.1754-.0849-.021.149-.0818.2333-.1154.0645.0077.0645.0341.15.0255-.1684-.0367-.1403-.1938-.5304-.1379.1524-.1287.3713-.0158.2744-.1312l.1227-.0042c.27-.1719-.007-.219-.2554-.3054-.2439-.0794-.4274-.2021-.1019-.3586-.0343.0218-.0736.0349-.1143.0378.2233-.3159-.2881-.7303.107-1.0072.0762-.0758-.0746-.123-.1755-.2137l.1841.0308-.1915-.1631c-.0925-.1957.3927-.1176.2106-.38782l-.0869-.01275c.0314-.05876.0214-.22934.0953-.1789-.0111-.01325-.0622-.05731-.0208-.06576l.0495.02397c-.0087-.06551-.0119-.13163-.0094-.19765.0742-.10907.1521.11476.1909-.08182-.0084-.08704-.0184-.25681-.0348-.23583-.0114.02758-.0414.06199-.0658.0482l.0224-.06592c-.0562-.05318-.0395-.11169-.2467-.0443-.0237.03307-.0434.06881-.0585.10646l-.0818-.00463.0929-.06311c-.0936.00872-.0976.05169-.104.09627-.0349-.01045-.072-.01181-.1076-.00395-.001.05055.0048.101.0171.15009-.0656-.01896-.0552-.0942-.1561-.0548.014.0731.1621.02659.1307.11599-.105.01066-.1521-.03192-.1404.05291-.0478-.0128-.0638-.03754-.0598-.06754.002.0718-.105.13816-.0308.20823-.15.00243-.1139.18397-.3098.09893.0445.06105.0663.13526.0618.21023-.2065-.19039-.146.1875-.4515.0642.2183.1531-.0762.3053.0518.4879-.023-.0131-.0691-.0395-.0471-.0484-.0611.0732-.1728.0773-.2633.1188.2774.0615.2937.1966.4602.2863-.3299.0594-.3339-.1068-.622-.1158.2437.0298.1678.2107.3954.1992-.123.0498-.2551.0743-.388.0719.4017.0491.0421.0808.2824.1642-.231.1015-.4018.0083-.3035.1438-.0464.0151-.0962.0169-.1436.0051-.0475-.0117-.0905-.0365-.1241-.0714zm1.039 2.8429-.0063.0025-.0378-.0473zm.0892.2184c-.0002-.035-.0086-.0694-.0247-.1006.1046-.0531.2189-.0917.2216-.068-.0765.0189-.1186.096-.1968.1686zm1.9862-1.2665c.0568.0078.0003.0386-.0618.0662-.0181-.0131-.0383-.023-.0599-.0294l-.0394.0111z"/><path d="m30.4288 13.0799-.0274-.0028-.0635.0413.1016-.026z"/><path d="m39.3971 29.245.0087-.0038-.0495.0047z"/><path d="m30.4056 17.0978.0493-.0431-.0616.0269z"/><path d="m38.196 30.2487c-.0236-.0027-.0475-.002-.0709.0021.0236.0019.0474.0012.0709-.0021z"/><path d="m38.1018 30.7236-.0919.05c.0336-.0107.0648-.0277.0919-.05z"/><path d="m37.9574 31.0723.0936.0301.0013-.0004z"/><path d="m37.163 25.4804c-.0059-.0043-.0128-.0071-.02-.0083-.0819-.0109-.0482.0015.02.0083z"/><path d="m38.3484 26.9713c-.0663-.0107-.1319-.0252-.1965-.0436-.0277.0322-.033.0559.1965.0436z"/><path d="m36.3439 24.0346.0054-.0027-.0027-.0094z"/><path d="m38.1505 26.8486c-.0778.0359-.0575.0595.0014.0795.0244-.0265.0628-.0587-.0014-.0795z"/><path d="m37.788 32.7217-.0041.0175.0124.0067z"/><path d="m37.7966 32.7471.0074.0243c.001-.0096.0013-.0181-.0074-.0243z"/><path d="m37.8188 32.8225-.0147-.051c-.0027.009-.0028.0185-.0002.0276.0026.009.0078.0171.0149.0234z"/><path d="m37.8785 32.222-.0461-.0208c.0145.0087.0299.0157.0461.0208z"/><path d="m37.8762 32.0625c-.0157.0331-.1103.0602-.0805.1224l.0367.0168c-.0715-.0477.1237-.078.0438-.1392z"/><path d="m38.7836 31.6504-.1046.1094c.0792-.0022.1905-.0039.1804.0566.2891-.0966-.1731-.0113-.0758-.166z"/><path d="m39.0613 31.292c.0107.0771.1246.0291.1721.0443-.0575-.0616-.0749-.0767-.1721-.0443z"/><path d="m39.8099 28.3201.3359.0213c-.0408-.0598-.1307-.0057-.3359-.0213z"/><path d="m38.0427 27.7266-.2163.0471.3231.0256z"/><path d="m40.5807 27.3638.0492.0256-.1245-.0984z"/><path d="m38.8493 22.0508-.3292.2144c.0839-.0022.4743-.2171.3292-.2144z"/><path d="m36.932 20.5744c.0916-.115.1073-.216-.029-.144.0263.0444-.0191.1531.029.144z"/><path d="m32.4069 16.0412.0807-.0216-.0876-.0216z"/><path d="m29.9575 9.11335c-.0014-.01618-.0284-.02934-.0384.00434l.0307.05429z"/><path d="m29.7604 9.23681c.0048.03631.0188.07086.0407.10046s.051.05331.0846.06895c-.0531-.08842-.0244-.0776-.0742-.16818.0016-.00648.0049-.0124.0097-.01713.0047-.00472.0107-.00807.0173-.00966.0066-.00158.0134-.00136.0199.00065.0064.00201.0122.00574.0166.01076-.0073-.02048.0321-.03895.0123-.07715-.0146.00162-.0286.00635-.0412.01386-.0125.00751-.0232.01762-.0314.02963s-.0136.02563-.0159.03991c-.0023.01427-.0014.02887.0026.04278-.0206-.00065-.0313-.02374-.041-.03488z"/><path d="m27.5861 11.7345.0538-.0003c-.0176-.0051-.0363-.005-.0538.0003z"/><path d="m26.5484 13.5944c-.0064-.0183-.0512-.0363-.093-.0475.0254.0247.0578.0413.093.0475z"/><path d="m25.93 13.8321.0378-.0144c-.0458-.0014-.0722.0017-.0378.0144z"/><path d="m27.586 11.735-.1437-.0006c.1187.054.1036.0128.1437.0006z"/><path d="m29.7707 9.78763c-.0035-.01759-.0104-.03434-.0203-.04935l.003.03482z"/><path d="m27.8153 10.8296.01-.0139-.1119-.0735z"/><path d="m28.2367 10.2539c.0831.0709.1731.1337.2687.1873-.0796-.0562-.1126-.0888-.1197-.1089z"/><path d="m29.2781 9.61955-.002-.02482z"/><path d="m27.4577 11.2233-.1053-.0417z"/><path d="m28.0736 30.0804-.0204-.014c.0074.0102.0141.0165.0204.014z"/><path d="m27.0367 30.3043.0055-.0108-.0151-.0162z"/><path d="m25.2703 14.4265.0084-.0019c-.0431-.0263-.0368-.0144-.0084.0019z"/><path d="m27.0045 20.5018c.113-.0936.2199.0559.3352-.0721-.0548.0226-.28-.0244-.3352.0721z"/><path d="m29.7526 9.79492-.0074.02752c.0032-.00377.0056-.0082.0068-.01295.0013-.00476.0015-.00973.0006-.01457z"/><path d="m27.3397 20.4303.0014-.0003.011-.013z"/><path d="m25.4725 16.0947.1671-.0096c-.0558-.0008-.1117.0024-.1671.0096z"/><path d="m26.0497 14.9561-.0571.0215c.0379-.0065.0517-.0141.0571-.0215z"/><path d="m26.0527 16.7178c-.0267.0157-.0769.0215-.0254.0423l.0438-.0069c-.0505-.0072-.0752-.0173-.0184-.0354z"/><path d="m26.1262 17.3385.0689-.0154-.0218-.0184z"/><path d="m29.4532 28.5126c-.0839-.0106-.1715-.0288-.258-.0487.1972.0509.2115.1603.258.0487z"/><path d="m29.7166 9.74902c.023.02068.0337.03421.0361.04658l.0006-.02239c-.0104-.01048-.0229-.01872-.0367-.02419z"/><path d="m28.9479 16.7158-.0672.0773c.0162-.0073.0306-.0181.0422-.0314.0116-.0134.0201-.029.025-.0459z"/><path d="m29.5104 23.9463.0397.0168c.0018-.009-.0093-.0155-.0397-.0168z"/><path d="m28.897 17.0195c-.0847.0103-.1682.0285-.2493.0545l.0902.0049z"/><path d="m29.1923 28.4629.0032.0007z"/><path d="m29.359 29.2843c.0788-.0831-.2594-.1625-.4175-.2521-.016-.1353.257.0447.4422.073-.0264-.0971-.2908-.2587-.2486-.3018.0497.0082.0975.025.1413.0495-.2186-.1627.124-.2123-.1778-.4064l.0936.0173c-.1848-.043-.3646-.0984-.4916-.1415.0127-.0402-.1989-.1409.0428-.0834-.0161.0216.0778.0526.146.0864l-.0849-.0721c.3556.0657.0939.0918.3409.1689-.0655-.1162-.3205-.2935-.1975-.3269.3512.0812.0535.1798.3937.1808l-.1731.0615c.5634.0808-.0665.0503.532.1479.1697-.1085-.0969-.2008.0715-.3095-.1821-.0805-.2947-.0644-.4782-.1441-.2924-.2695.9698.0637.5397-.1927-.2323-.0912-.7031-.2006-.4197-.249l.415.1181c.0936-.1286-.5942-.1919-.263-.2769.1655.054.1143.1298.1721.1189.371-.0307-.2269-.1081-.2108-.1759l.394.0497c-.018-.1576-.2666-.3561-.3184-.5189.1201.0366.2462.0503.3716.0403-.1628-.2255.119-.427.3863-.6212l-.3542-.0925c.0763-.0225.1574-.024.2346-.0044.1424-.0732-.2289-.0129-.369-.0548-.024-.0435.2096-.0506.3175-.0192-.3051-.1503-.6537-.387-.2867-.5291l.1089.0259c.1327-.1138-.7412-.1068-.4217-.2122l.0645.0169c.1216-.24-.23-.4663.2038-.6786-.4659.0085.117-.2425-.503-.194.2584-.1571.3894-.1352.4937-.3359-.0004-.0506-.3881-.0245-.4673-.0736l.2851-.0404-.3312-.0363.3115-.089-.0969-.0432c-.005.0237-.1003.0633-.1808.0717-.1524-.0657.0925-.228.2172-.2513l-.3078-.1562c.0756-.0053.1515.0044.2233.0285-.2995-.0596.2403-.062-.0348-.1163-.062.0157-.1258.0238-.1898.024.1183-.0718.0531-.1746-.0431-.2408l.1547-.013c-.0518-.1445-.2464-.275-.3362-.425-.0211.0655-.2423.0975-.2818.0566l.1715-.056c-.1257-.0052-.0448.061-.2096.0306-.005-.0615.1791-.0807.2577-.061l-.0979-.0559c.0503-.0084.1013-.0133.1524-.0147-.1183-.0058.1039-.1564-.097-.1572l.0462-.0146c-.0856-.15-.1591-.2099-.2253-.3315-.1253.0267-.117-.0287-.2276-.0431.0064-.1014.0618-.2264.0167-.3362-.0802-.0651-.1029.0004-.1805-.0187.101-.0308.0599-.141.1498-.1007-.041-.1181-.1054-.227-.1895-.3203-.0378.0292-.0511.0548-.0886.0526-.0247-.027.0264-.0818.0772-.0898l.0123.0057c-.2092-.1526.2337-.53-.011-.6307l.0131.0058-.1454-.1317c.0137-.0804.0946.0227.1651-.0516-.2246-.1249.023-.2905-.128-.401.4271-.2151-.0351-.396.2944-.621l-.121.0358c-.1143-.0134.0739-.0636.107-.0995-.0966.0254-.115.0677-.1792.0578-.1413-.3016.2597-.7331.5211-1.0904.0835-.1271-.886.0824-.4469-.1375l.3295-.0111c-.385-.1762.1073-.4808-.2529-.6562.0876.004.2026-.008.1981.0135.2858-.0761.0395-.1715-.1981-.1517.0284-.0368.2112-.0274.3318-.0591.1739-.0597-.3559-.0834-.0648-.1311.0384-.0047.0774-.0006.114.0118-.1371-.0185.0558-.1385-.2881-.0872.1714-.0906-.1401-.1467.0702-.2215-.3894-.0261.2025-.1438-.3523-.1393.5758-.0131.4899-.1509.2186-.1998.1754.0149.1911-.0458.4351-.0281.002-.0556-.1003-.1071-.4087-.098.7332-.0968-.5525-.227.392-.265-.2409-.1295-.4519-.3067-.62-.5204.6324.0535.0278.1777.6895.2126-.2229-.1535-.753-.2875-.5752-.4224.095-.0291.2751.0492.3817.0714-.2396-.1721.117-.267-.2105-.4416.059.0101.1166.0273.1714.0512-.016-.0282.1079-.0452-.1898-.0837l.0758.0361c-.3779-.0529-.7492-.1441-1.1082-.2719.8439.1711.2356-.1052 1.3001.1315-.1249-.0486-.2559-.0807-.3894-.0954.1363-.0119.2736.007.4014.0552-.1451-.1159-.4659-.136-.4425-.2198.1444.025.1962.0515.3636.0886-.2713-.0884-.5437-.183-.408-.2337.0859.0202.2002.0328.1941.0536-.0197-.1264-.7081-.3598-.4077-.4449.6093.1741.2139-.0028.7486.1085l-.1451-.1068-.264-.0297c.0217-.0609-.3519-.2101-.1671-.2253l.2079.1006-.0772-.1456-.2126.0202c-.257-.1338-.667-.1558-.5003-.2105.0495.0323.0221-.0679.3366-.0227l.0013.0006c-.1567-.0758-.3195-.157-.1784-.1724.1674.032.5661.165.6774.1865-.4218-.1492-.0856-.1841-.5257-.3554.1381.0529.2793.0974.4228.1334l-.3365-.1269c.1304.0031.2592.0301.3796.0796.0819-.0729-.6423-.1598-.3429-.1882.0425.0182.0839.0388.124.0616.1621-.0667-.1541-.2779.0351-.3271.4906.1311.0969.1263.5153.2271-.0625-.1676-.5049-.4931-.3482-.593l-.0589.0072c-.637-.2587.3509.0148.0692-.1688.0876.0493.1793.0913.2741.1254.1253-.0554-.107-.2541-.2434-.4777l.1461.0815c.1547.0015.1233-.1146.2082-.1462-.0948-.0793-.2041-.1399-.3222-.1785.8519.1756-.282-.5533.4171-.414-.006.0204.0953.1026.1013.0872l-.0685-.1997c-.098-.0469-.202-.0806-.3091-.1-.118-.0813-.1945-.1699-.1765-.2043.127.111.2853.1813.4539.2017l-.1935-.1038c.3876.1139-.4001-.225-.1117-.1978l.1003.06c-.0351-.0649-.1494-.1701-.0986-.1937.2259.1025.0813.0944.2621.1954.0076-.0641-.3533-.3339-.1157-.2668.0461.0561.0301.0907.0782.1471.2754.083.2116.0406.2674.0207l-.007.0011.1423-.0363-.0725-.0116c-.4856-.3676-.0397-.2019-.3078-.4826.2463.2662.1641.1175.3659.2476.0694-.0004.1374.0186.1962.0547-.1447-.144.1451-.0039-.0601-.2098.0618.0347.023-.0464.1687.0574-.029-.0915-.1066-.0495-.1811-.1019-.1517-.2126.2984-.0776.1043-.3724-.0471-.17785-.1812-.29801-.1788-.43842.0839.01095.1276.12803.1276.12803.0889-.0143.0943-.06728.0833-.14788.0261.02918.0626.04734.1019.0507.0087-.0514-.1069-.11598-.0301-.13746.0395.04285.0757.08858.1083.13679-.0208-.07728-.0337-.1564-.0385-.23619.0532.0208.0555.08473.0813.12881.001-.07904.0224-.19171-.0281-.25578l-.0452.01846c.01-.02237.0618.03148.0665.05685.0301.09202-.0598.05511-.0902.03672l.005-.048c-.1795-.08075-.0735.15334-.1093.22843l-.1222-.13114.0728.15781c-.0477-.0119-.143-.064-.1393-.11246-.115-.00742.0234.08177-.0979.05994-.0178-.00551-.0241-.01308-.0271-.02165l.0114.08017c-.0285-.03392-.1284-.07719-.0776-.08663-.1834.00419.0197.22236-.1527.15386l-.0057-.01473c-.0331.15632.1334.10762.2533.31837l-.4415-.20076.1558.11895c-.0151.00841-.0458.02441-.1103-.0239.0815.12031.0792.03981.1704.13751-.2035-.0428-.031.2167-.3429.0427.1304.1114.1528.0123.2089.1387-.3462-.1867.006.1093-.1888.0688-.1704-.1263-.0297-.1173-.237-.1625.2824.217-.157.061-.1356.1425.262.1556.0357.1654.0722.2965-.091-.0581-.2644.0604-.4362.0731l-.0504-.0297c.3014.1804.1928.2273.2235.3191-.125-.0533-.2375-.1313-.3305-.2293l-.0391.0532c.0966.0669.1404.1119.1564.1666l-.2423-.1411c-.0414.0782.2036.2952-.0354.3023.251.1254.7319.2596.8519.4389-.1468-.0564-.2858-.1307-.4138-.2211.0127.017.096.0841.0285.0734l-.2063-.1486c-.127-.0055.1775.1133.1377.1374-.1958-.0933-.154-.0404-.3081-.119-.0134-.0177.0983.0079.0304-.0413-.1236.0209-.2507.007-.3666-.0402.1163.0494.2694.125.2787.1658-.0287.081-.2587-.0863-.392-.0908.131.0825-.0491.0631.2613.2033-.0143.021-.1627-.0397-.2533-.0689.1136.0998-.0749.198.2965.3019l.028-.0002.0107.0124.0004-.0003-.0004.0003c.2574.2623-.3215.1905-.2446.3787l-.117-.0456c.0956.1292-.0067.2039.2289.3547-.1337-.0008-.2656-.0309-.386-.0882.0648.0944.2025.1493-.0391.1662-.1902-.1371-.2015-.0453-.131-.1185-.141.0422-.3539-.0068-.0475.1958-.3094-.1385-.4378-.0753-.3582-.0042l.2597.0201c.0284.0587-.0171.0866-.0615.1162l-.4248-.1605c-.6246.007.7921.5846-.1708.4474.3001.1354.2577-.0302.6116.117-.2615.0123-.5235.0076-.7844-.0139-.2984.0442.6323.282.4245.3503.2642.0351.5192.1195.7513.2488-.2912.0137-.5814-.0409-.8469-.1593-.0084-.0229.0474-.0191.1036-.0043-.0849-.0705-.193-.1083-.3041-.1062l.1634.0521c-.1825-.0024-.1985.1155-.4659.0232.0516.039.1118.0655.1758.0771.064.0117.1298.0083.1922-.0099-.2741.0476-.0542.1621-.249.2343.1007-.0001.2007.016.2961.0477-.2523.1127.3028.1385.3556.2587-.2727.0071-.618-.1485-.4214.0043-.2051.0052-.4083-.0396-.5916-.1304.3092.1671-.2563.152-.3288.2039l-.128-.0815c.0758.0489.0685.0758.0624.1038l.35.0295c-.0324.0181-.0682.0294-.1052.0334s-.0745.0005-.1101-.0102c.2196.0721.5769.0757.8736.1923-.182.0119.1655.1547-.2931.0954.1768-.1067-.4618-.0593-.5163-.1861.0505.0315.0441.058-.0221.081-.0414-.0028-.0819-.0141-.1186-.0333-.4254.0685.5093.1438.4832.2743-.2556-.0555-.4913-.0405-.4381-.0097.0103-.055.4314.0371.6229.1132-.2088.0566.1394.112.1113.152l.0989-.0371c.255.0514.2166.0873.2911.1539-.1998-.0202-.1316-.069-.2215-.0599.4428.1182-.4796.0875-.1835.2145-.1737.0234-.4779-.0483-.5955-.0228.3268.139-.3473.0809-.0769.2199.1996-.0228.4017.009.5842.0918l-.2346-.2.4903.1605c.007-.051-.2092-.131-.1504-.157.1499.0616.3128.0859.4745.0709-.5126.0207.2881.165-.0591.2134l-.8339-.0724c-.3662.1031.4205.2599.221.4092l.14-.0449c.3252.0401.0481.1027.1805.1616-.1789-.0107-.3584-.0014-.5351.0276.1995.0051-.0104.1228.5247.154l-.3482.0628c-.1341.1322.7596.1636.6764.2822-.2279.005-.4556-.018-.6778-.0685.0017.0427-.0418.0812.1387.0822-.1594.0257.36.1154.1177.155.1146.0165.3843.0189.3656.0647-.042.0034-.0842.004-.1264.0018.1495.035.3042.0429.4566.0235-.7871.1445.0762.3392-.5719.4799.0898.0731.1631.1637.2153.2662-.0722.0005-.1193.0092-.0966-.0081-.2042.1309.6908.0109.4622.1543-.3682.099-.2159-.0466-.3533.0062-.7683.0909.1351.141-.289.2715l-.0495-.0159c-.2363.0949.3202.1276.2968.2356-.0367.0018-.0733.0063-.1093.0133.2366-.0009.4665.077.6523.2211-.1405-.013-.2822-.001-.4184.0355.0502.0382.4331-.077.5274-.0024-.1662.0822-.342.1442-.5234.1848l-.0421-.08c-.3516.0992.0481.1052.001.1578l-.1577.0199c.1063.1171.4822.0545.4989.1915l.1053-.0333c.3797.0074-.1811.097.1046.1207l-.3452.0875c.1662.0365.3265.0955.4762.1755-.2036-.0129-.4051-.0487-.6005-.1068.0235.0489.062.0894.1101.1157.048.0263.1033.0372.1579.031-.0391-.0123-.13-.0202-.0865-.0489.2857.0062.4311.0561.4528.1505-.6016.1071-.0662.2734-.4572.4306.2697.1177.0936.3322.2199.5089.3115-.1466.0358.0516.376-.0419.0381.0386.0384.0567.018.0658l-.142.1787c-.0779.0532-.0903-.0235-.1611-.0019.0247.0986-.1156.0719-.1621.1526.1036-.0395.1795-.0073.1631.0563l.1029-.1091c.2209.0917-.1978.1749.0214.2683l-.1103-.0194c.0893.054.117.2489.3553.2633-.026.0198-.0912.0536-.1223.0284.0391.1704.3445.3124.2587.4733l-.0635.0023c.0267.0267.1273.0263.0782.0801-.0254.0041-.0632.0023-.0625.0175.0251.0114.1263.057.1016.1071l-.0758-.0189c-.0382.1828.2212.2122.291.3408-.062.0168-.1182.0502-.1621.0965-.044.0463-.074.1037-.0868.1658l-.0271.004c-.0174.2034.1765.2969.2754.46-.246.1666-.1337.4137-.3349.6296.0807-.0361.1723-.0408.2563-.013-.0675.0546.2066.0779-.0798.1243l.0073-.0163c-.2847.0844-.2309.1589-.2533.2281l.4017-.0593c-.6406.2805.1978.4259-.4358.6058.1136.0244.1009.0754.2226.1002l-.2771.0319c-.0996.1203-.1527.1778-.1159.3055l-.2073-.0067c-.0474.0755.8533.0152.867.0876l-.4716.059c-.0127.1349-.4746.2851-.0381.3903-.0787.0069-.158.0012-.2349-.0167-.0204.0617-.3844.2332.3258.1994-.4586.0099-.0552.1297.1457.2026l-.3419-.0122c.4341.0596.5544.0642.6734.1518-.0452.0194-.2757.0117-.1868-.0128-.1818.0617.3242.0601.1403.1372l-.2195-.0373c-.0264.0671.0906.0649.3445.1141.1354.0507-.0925.1295-.401.1196.1881.0198.4381.0743.3479.1098-.0755-.0009-.1505-.0118-.223-.0323-.2302.0939.3874.2035.0508.2521-.0665-.0077-.1335-.0101-.2005-.0073.0131-.0869.0355-.1562.0589-.1478-.2665.0117-.5335-.0056-.7961-.0516.2363.0683.7359.2151.5902.2693l-.1059-.0032-.0341-.0109c-.0308.012-.002.029.0488.0483-.0502.0156-.0869.0243-.0916.0443-.2496-.0239-.1354.0587-.148.0903.1782.0459.3609.0725.545.0793-.024.0022-.0387-.0124-.0508-.0378-.0092-.0089-.0204-.0157-.0327-.0198l.0287.0065c-.0084-.0299-.0143-.0603-.0177-.0911.1685.0493.3065.0997.12.1138l.5234.1279c-.4632-.0143-.7122.0375-.9863.0024.1825.1383.1143.2629.6771.4609.0682.0487-.1684-.0001-.2587-.0092-.0552-.031-.0441-.0503-.1253-.0782.1383.0941.0454.1962.4224.3089-.1868.0349-.345-.135-.2991-.0111l-.114-.0453c-.5835.0294.8519.631.0909.6367.0402-.0038.0808.001.119.0139-.3178.1594.0568.6641-.3753.7558-.0866.0391.0475.1258.1259.2307l-.1674-.0809.1517.1915c.0535.1839-.39-.0154-.2496.2652l.0795.0337c-.0357.0415-.0441.1872-.1083.1258.0091.0139.0525.064.0127.0604l-.0441-.0328c.0041.0581.0034.1165-.002.1745-.0739.0775-.134-.1346-.1801.0275.003.0776.0043.2259.0207.2115.012-.0211.0411-.0441.0628-.0267l-.0234.0516c.0498.0585.0325.1043.2259.094.023-.023.0424-.0491.0578-.0776l.0746.0232-.0877.0323c.0866.0143.0916-.0213.0993-.058.0301.0168.0637.0267.0983.029.0025-.0444-.0005-.089-.0091-.1326.0589.0322.0462.0939.1397.0849-.01-.0661-.1467-.0623-.1139-.1313.0976.0178.1383.0662.1346-.0067.0435.0233.0562.0479.0498.0714.0044-.0594.1093-.0846.0468-.1625.1391.0393.1224-.1195.2948.0056-.0247-.0373-.0581-.1487-.0321-.1866.1658.2119.1631-.103.4295.0884-.1805-.1873.1113-.2144.0321-.3917.019.0175.0568.0527.0344.052.0718-.0348.1771-.0003.2694-.0008-.2464-.1395-.234-.2468-.3696-.3721.3191.0688.288.1953.5544.3006-.2203-.1056-.113-.2151-.3256-.2853.1312.0074.2602.0359.382.0844-.3619-.1777-.0183-.0734-.2205-.2197.2416.0085.3759.1378.3198.0045.0472.0053.0926.021.1328.046.0402.0249.0742.0585.0994.0982zm.1314-2.392.0067.0007.0113.0479zm.024-.1867c-.0162.0235-.0251.0511-.0257.0795-.1173-.0052-.2366-.0243-.2279-.0418.0862.0036.1723-.0092.2536-.0378zm-2.3528.0846c-.0461-.0283.0181-.0275.0863-.0217.0101.0171.0232.0323.0387.0448l.0401.0081z"/><path d="m27.5914 26.8903.0234.0131.0749-.0037-.1023-.0227z"/><path d="m27.6489 11.7344-.009.0002.0478.012z"/><path d="m29.7335 24.123-.0671.0095.0657.0067z"/><path d="m29.0007 11.3389c.0214.0097.0438.017.0669.0215-.0216-.0091-.044-.0163-.0669-.0215z"/><path d="m29.1892 11.0002.0953-.0089c-.0321-.0029-.0644.0001-.0953.0089z"/><path d="m29.3911 10.7729-.0809-.055-.0014-.0001z"/><path d="m28.7694 15.2949c.0043.0054.0098.0097.016.0126.0739.0342.0462.0141-.016-.0126z"/><path d="m28.087 13.7998.1758.0915c.0344-.0164.0461-.0327-.1758-.0915z"/><path d="m28.9566 16.707h-.0074l-.0014.0088z"/><path d="m28.2434 13.9526c.0835-.0042.0702-.0283.0194-.061-.0301.0129-.0752.0261-.0194.061z"/><path d="m29.8689 9.52156.0069-.01213-.0096-.00943z"/><path d="m29.8656 9.49975-.002-.02221c-.0019.00347-.0028.00745-.0024.01141.0003.00396.0019.00772.0044.0108z"/><path d="m29.86 9.43164.0037.04612c.0042-.00713.0062-.01538.0055-.02363-.0006-.00826-.0039-.01611-.0092-.02249z"/><path d="m29.6908 9.8916.0385.03253z"/><path d="m29.6627 10.0202c.0208-.02108.1127-.0102.0969-.07019l-.0303-.02618c.0567.0627-.1281.01992-.0666.09637z"/><path d="m28.743 10.0402.1187-.05242c-.0735-.02487-.1765-.06065-.1558-.1062-.286-.01916.1588.06777.0371.15862z"/><path d="m28.4088 10.2311c.0064-.0646-.1102-.0647-.1514-.0924.0109.03.0318.0555.0593.0723s.06.0239.0921.0201z"/><path d="m27.036 12.3253-.3138-.1192c.025.0594.1226.0443.3138.1192z"/><path d="m28.574 13.3181.2163.0296-.2998-.1172z"/><path d="m26.0662 12.8358-.0411-.035.0945.1132z"/><path d="m25.7987 17.2433.393-.0333c-.0751-.0281-.5223-.0153-.393.0333z"/><path d="m26.639 18.9883c-.1404.0445-.2103.1084-.0572.1116.0033-.0412.1023-.0992.0572-.1116z"/><path d="m27.4898 24.0056-.0752-.0202.0561.0525z"/><path d="m27.1101 30.3727c-.003-.0133-.0264-.0295-.0334-.0071l.0297.0488z"/><path d="m26.9507 30.416c.0146.0639.0524.1205.1063.159-.0445-.0801-.0204-.0648-.0645-.1454.0076-.0218.0374-.0146.0521.0043-.0074-.0173.0254-.0211.0063-.0548-.0457-.006-.0778.0102-.0655.0733-.0167-.0055-.026-.0256-.0347-.0364z"/><path d="m25.0267 31.0098.0305.0394c-.0075-.0149-.0178-.0284-.0305-.0394z"/><path d="m23.8467 30.9793c.0033-.0337.0002-.0678-.0091-.1004-.0022.0337.0008.0676.0091.1004z"/><path d="m23.5729 30.4873.0154.0305c-.0113-.0429-.0194-.0663-.0154-.0305z"/><path d="m25.0267 31.0089-.0786-.1066c.0485.1194.0528.0844.0786.1066z"/><path d="m26.971 30.8591c-.0027-.0162-.008-.0319-.0157-.0466l.002.0296z"/><path d="m25.392 30.6281.0094-.0018-.0575-.1185z"/><path d="m25.766 30.5234c.0489.0939.1027.1852.1611.2736-.0291-.043-.0519-.0897-.0679-.1389z"/><path d="m26.5761 30.5571-.001-.019z"/><path d="m25.0926 30.6221-.0518-.0996z"/><path d="m16.6418 26.0782.0238.004c-.0076-.0029-.0156-.0043-.0238-.004z"/><path d="m17.3915 25.7129v.0067l.0219.0081z"/><path d="m23.21 30.0062.002.0075c.002-.0475-.0014-.0386-.002-.0075z"/><path d="m20.2302 30.7559c-.0311.1313-.153.1478-.1725.2968.0248-.0527.1762-.2105.1725-.2968z"/><path d="m26.9564 30.8594-.0067.0204c.0029-.0025.0051-.0057.0062-.0093.0012-.0036.0014-.0074.0005-.0111z"/><path d="m20.058 31.0527v.0014l-.0027.0148z"/><path d="m22.5676 30.3965.002.164z"/><path d="m23.1113 30.8518-.0177-.052c.0034.0181.0093.0356.0177.052z"/><path d="m22.2551 30.9602c-.0053-.027-.0033-.0763-.018-.0271l-.001.0434c.0083-.0492.0153-.0729.019-.0163z"/><path d="m21.944 30.9775-.0043.0688.0127-.0183z"/><path d="m16.0222 27.3732.2601-.0397c-.2033.0219-.2514-.0422-.2601.0397z"/><path d="m26.928 30.8105c.0131.0141.0228.0309.0284.0492l.001-.0183c-.0081-.0117-.018-.0221-.0294-.0309z"/><path d="m21.9857 33.7975-.0685-.0729c.0053.0164.0141.0314.0259.044.0119.0127.0264.0225.0426.0289z"/><path d="m17.2651 30.2578-.0384.0067c.0006.0069.0117.0063.0384-.0067z"/><path d="m21.6943 33.7149c.0039-.0844.0009-.169-.009-.253l-.0204.0863z"/><path d="m15.8525 26.8719c-.0458.0712.2924.035.4675.0503.0608.0782-.2506.037-.4301.0663.0615.0528.3569.0849.3335.1218-.0489.0077-.0986.0098-.148.0061.258.0428-.0452.1634.3034.2018l-.0935.0145.5086-.0447c.0024.0274.2323.0314-.0147.0613.009-.0172-.0896-.0108-.1647-.0131l.1025.0208c-.3575.0559-.1173-.0304-.3746-.0112.0956.0544.3957.0916.2951.1444-.3559.0475-.1166-.0934-.4324-.0013l.1413-.0849c-.5571.1044.0452-.0494-.5497.0542-.123.1158.1644.0974.0491.2114.1985-.0018.2964-.0432.4959-.0462.3643.0799-.927.2392-.4451.2755.2453-.0108.7212-.083.4689.0306l-.4261.0506c-.0502.1096.6156-.0593.3292.0939-.1722.0171-.1464-.0462-.1976-.0218-.3405.1329.2453-.0013.2517.0451l-.3857.0907c.0702.0931.3653.1382.4529.2248-.1241.0165-.2455.0489-.361.0965.2163.0897.0174.3083-.1811.5332l.3563-.0656c-.0662.0422-.1399.0716-.2173.0865-.1133.0992.2169-.0737.3583-.0963.0327.0197-.1832.109-.2911.1269.3198-.0066.7182.0036.412.2374l-.1069.0245c-.0923.1269.7095-.2155.4438-.0253l-.0635.0144c-.0361.1978.3229.207-.0023.5202.4161-.2014-.0395.2094.501-.0874-.1858.21-.2991.2474-.3399.4274.0127.0347.345-.1526.4255-.1557l-.239.1535.2974-.1236-.2503.1998.0949-.0146c-.0013-.0184.0722-.0881.1401-.1299.1483-.0277-.0284.1967-.128.2699l.3128-.0439c-.0624.0393-.1305.0691-.2019.0884.2771-.1044-.1902.1564.0638.0602.0493-.0404.1019-.0765.1575-.1079-.0812.1034.0033.1427.1032.1385l-.128.0857c.0829.0743.2911.0568.4104.1068-.0026-.0538.1722-.1912.2163-.1866l-.125.1275c.1053-.0642.0191-.0627.1638-.1321.0217.036-.1233.1482-.1945.1774l.0969-.0162c-.0361.0367-.0675.0484-.1203.0915.0983-.0603-.0408.1629.1227.0548l-.0335.0353c.1073.0607.2016.042.2948.0803.0909-.0903.1019-.05.1932-.1058.0244.0696.0284.1761.0979.2208.0829-.0081.0775-.0631.143-.0997-.0655.081.006.1215-.0765.1537.0784.0463.168.071.2593.0716.0168-.0423.0171-.0663.0452-.0895.0274.0002.0107.0663-.0227.1044l-.0114.0049c.1979-.045.0512.4725.264.3678l-.0113.0056.1562-.0292c.0274.055-.0735.0561-.0862.1489.2055-.0941.1233.1828.2753.1317-.156.4525.2199.2011.1668.5655l.0481-.1157c.074-.087-.0036.0901.0007.1342.0388-.091.0234-.1258.0662-.1736.254.0256.3121.571.4899.9517.0689.1294.3172-.8171.2965-.3374l-.1264.2978c.2851-.2764.359.2776.629-.0098-.0291.0809-.0531.1919-.0708.1818-.0184.2914.1443.0818.1871-.1468.0237.0365-.0328.2064-.0367.3288.0106.1832.1654-.3171.137-.0284-.0048.0377-.0181.0739-.0388.1059.0501-.1262.1183.0868.1467-.2549.0468.1836.1574-.1055.1862.1128.0859-.3692.1009.2224.1771-.3216-.0722.563.0782.4926.1481.2309-.0318.1706.0234.1913-.0165.429.0555.0071.1137-.0885.1274-.392.0514.7315.2245-.5282.2319.3987.1256-.2274.278-.4396.4538-.6322.0014.6244-.1517.0433-.1487.6932.1441-.2317.2066-.7566.3379-.6046.0167.1273.0108.2566-.0174.382.123-.2574.2694.0735.3626-.279.0033.0586-.0005.1174-.0113.1751.022-.0209.0631.095.0357-.1991l-.016.0799c-.0258-.3725-.0282-.7462-.0074-1.1191.0421.8466.1267.2059.1742 1.2768.0138-.1315.0107-.2641-.0091-.3948.0423.1277.0586.2623.0482.3962.0675-.1681.0013-.4795.0745-.4806.0174.1431.009.1998.021.3686.0061-.2822.0054-.5656.0816-.4526.008.0865.0304.1975.0117.1978.1043-.0583.0645-.7628.2152-.5135.0739.6218.0726.1938.1741.7218l.0338-.174-.0726-.2502c.0559-.0049.0251-.3984.1033-.2374l.005.2258.0776-.1254-.096-.1834c-.0056-.2821-.1427-.6601-.0488-.5293-.001.056.0478-.0036.1421.2943l.0003.0014c-.0127-.1707-.0297-.3473.0358-.2292.0387.1638.1343.5653.1601.6741-.0779-.4319.0905-.1581.0036-.6161.0177.1079.0859.3713.1033.4241l-.0695-.3472c.0568.1145.0975.2362.121.3615.0855.036-.1922-.6228-.0388-.3794.0014.0293.0184.0786.0194.134.1213.1089.0939-.263.2142-.1304.1721.47-.0281.1452.1223.5414.0869-.1427.0375-.6691.1721-.607l-.0364-.041c-.2166-.6409.1872.2787.1284-.0444.0247.0957.0553.1898.0915.2818.1066.0604.0843-.2261.1033-.4626l.0518.1575c.0952.1109.1323.0107.2026.0488-.0251-.1193-.0682-.2342-.1277-.341.4963.6979.0351-.5401.4499-.0018-.0117.0109.0284.1333.0384.1258l.0264-.187c-.0539-.0919-.1158-.179-.1852-.2603-.0554-.1302-.0828-.2383-.0608-.2501.0552.1556.1434.2978.2588.4173l-.1053-.1899c.2426.3127-.2159-.3972-.0211-.2039l.0545.1012c-.0067-.0674-.0612-.2075-.0197-.1944.136.2018.0341.1132.1367.2893.0254-.045-.1678-.4354-.0144-.2578.0207.0668.0007.0831.0204.1501.1805.2139.1451.1446.1918.1586l-.0057-.0028.1174.0436-.0518-.0452c-.2761-.5265.0213-.1722-.125-.5149.1356.319.1009.1681.2289.3637.0561.0347.1043.0806.1414.1347-.0816-.1786.1196.0633.001-.1892.0424.0548.0287-.0247.1253.1213-.003-.0834-.0769-.0865-.1257-.1608-.0849-.2278.2647.0712.1434-.2482-.0224-.164-.1243-.3088-.117-.4141.0474.0374.0816.0885.0976.1461.0732.0216.0812-.0187.0749-.0842.02.0311.0482.0563.0815.0728.0077-.0392-.0848-.1257-.0234-.1194.032.0455.0609.0931.0866.1423-.0153-.0672-.0265-.1351-.0338-.2036.0431.0305.0465.0828.0679.1263.0109-.0725.0005-.1465-.0301-.2133l-.0348.0033c.007-.0149.0498.0398.0545.0612.0267.0813-.0458.0295-.0702.0064l.002-.0368c-.1451-.113-.0508.102-.0826.1512l-.0975-.142.0571.1465c-.0388-.0257-.1143-.1001-.11-.1344-.0929-.0486.0161.0695-.0808.0073-.0098-.0063-.0173-.0156-.0211-.0265l.0067.0639c-.0217-.0364-.0999-.1081-.0595-.0948-.1444-.0723.0087.1739-.124.0511l-.004-.0135c-.0314.104.1006.1364.1815.3514l-.3289-.3463.1117.1589c-.0124-.0005-.0371-.0025-.0826-.0679.0531.127.0575.0657.1193.1803-.1484-.123-.0508.146-.2633-.1314.0832.1442.1133.0834.1387.2021-.2337-.3046-.0104.0826-.1491-.0429-.1066-.1768-.0077-.0989-.1504-.2359.1761.2992-.118-.037-.1129.0256.1614.2485-.0007.131.003.2414-.0515-.0885-.1956-.1152-.3102-.2145l-.0274-.0504c.1651.3031.0803.2643.0793.3426-.0686-.113-.1246-.2329-.1671-.3577l-.0355.0066c.037.0634.0593.1339.0655.2067l-.125-.2479c-.0384.0195.0662.3228-.0825.1655.1687.2692.307.5558.4124.8546-.0763-.1351-.1422-.2757-.1971-.4206.0033.0194.0361.1185-.004.0658l-.0869-.2339c-.0772-.0905.0799.1924.0471.1797-.0953-.1926-.0846-.1323-.1571-.2869-.0037-.0199.0585.0745.0298-.003-.0871-.0815-.1585-.1778-.2109-.2843.0537.0926.0948.1918.1224.2949-.0398.026-.1301-.2359-.2059-.3355.0545.142-.0431-.0006.0972.3061-.0494-.0705-.0915-.1457-.1256-.2244.0377.1399-.0936.0574.0815.3921l.016.0206.0021.0151h.0003-.0003c.0581.3523-.2423-.1374-.2627.0205l-.0438-.1153c.003.1425-.0742.1007-.0171.3668-.0673-.1109-.1191-.2302-.154-.3548-.0034.0973.0377.2376-.0809.0467-.0361-.2216-.0749-.1878-.0164-.1639-.0806-.0955-.1538-.2987-.0943.0477-.0856-.3213-.1611-.4043-.1521-.3068l.1033.2302c-.01.0494-.0404.0225-.0698-.0019l-.118-.4323c-.2323-.5323.0932.9289-.2139.031.0565.3174.1039.2156.1781.5842-.1087-.227-.2001-.4617-.2733-.7021-.1113-.2559.1059.6711.006.5033.0731.2499.1176.5071.1327.7667-.1039-.265-.1713-.5425-.2006-.8251.0071-.0149.0228.0374.0341.0935.0022-.1063-.0153-.2121-.0514-.3122l.0301.166c-.0728-.1307-.1228-.2724-.1481-.4193.0007.124.0285.2464.0816.3589-.098-.2358-.0806.003-.1615-.1543.0268.0946.0464.1911.0585.2885-.1139-.1998.0207.3244-.0244.4055-.0728-.2554-.0869-.6193-.1069-.3966-.0495-.1933-.0778-.3912-.0842-.5905.004.3323-.113-.2072-.1417-.2643l.0026-.1407c-.0013.0836-.012.0827-.0227.0836l.0565.3395c-.0291-.0628-.0459-.1304-.0495-.1993.0137.226.0829.5663.0903.8769-.0405-.1703-.0415.1961-.098-.2558.0772.1433-.0561-.4542-.0173-.5361-.0027.0558-.0141.0557-.0335-.0018-.0061-.04-.0088-.0804-.008-.1209-.0932-.3946.0321.5197-.0284.517.0014-.1441-.0193-.2875-.0615-.4254.037.205.052.4133.0448.6214-.0551-.1927-.0301.153-.0535.1324l.0314.0899c.0117.2552-.0123.2238-.0364.3073-.016-.1971.0171-.1393.0004-.2248-.0037.4486-.101-.449-.125-.1422-.0281-.1663-.0254-.4717-.0468-.5831-.0308.3349-.0595-.3303-.0946-.0506.0237.1927.0227.3877-.0027.5802l.0739-.2507-.0368.4971c.0271.001.0475-.2195.0645-.1652-.0169.1569-.0142.3152.008.4714-.0547-.4987-.0665.3035-.1203-.0348l-.015-.824c-.0582-.3531-.0976.4379-.1768.2443l.023.1361c-.0147.3214-.0501.0508-.0788.1833.009-.2674-.0044-.362-.0097-.5253-.005.1963-.0528-.0055-.0826.5215l-.0197-.3403c-.0521-.1319-.1156.7464-.1788.6569.015-.222.0419-.4431.0806-.6623-.0201-.0004-.0341-.0449-.0482.1321.0017-.1574-.0859.3473-.0849.1076-.0187.1116-.0464.3755-.0698.3548l.0124-.1238c-.0349.1463-.0557.2954-.0622.4454.0151-.7713-.2072.0473-.1768-.6067-.044.0696-.1039.1281-.1748.171.0151-.0694.0207-.1157.0244-.0916-.0197-.2127-.1574.6617-.1858.4169.0361-.3676.0762-.197.0805-.3369.1371-.7441-.1029.1021-.0575-.3304l.0197-.0428c.0224-.2437-.1413.2717-.1891.2213l.026-.1051c-.0555.207-.1656.3958-.3192.5474.0558-.1269.098-.2592.1257-.3947-.0357.036-.1086.4205-.1818.4845.0163-.1803.0484-.3589.0959-.5338l.0512-.0133c.0782-.3491-.0628.0109-.0709-.0485l.0488-.1489c-.0869.0591-.2048.418-.277.3848l-.0274.1053c-.1611.3326.0291-.1944-.1027.049l.1063-.3342c-.0815.1292-.1802.2471-.2934.3506.1173-.2146.2256-.3354.3162-.4831-.0278-.0003-.1086.0355-.1818.1826.023-.0281.0668-.1038.0602-.0565-.13.2474-.2216.3463-.2764.3257.242-.5531-.0912-.1669.0448-.5625-.1885.1787-.1664-.0792-.3021-.0506-.1264.315-.0401.0059-.2049.3187-.0381.0119-.0458.0033-.0371-.0169l.0161-.1927c.0273-.0843.0638-.0593.0985-.1246-.0511-.0239.0438-.1212.0435-.1911-.0482.0954-.1093.1449-.1183.0981l-.0258.1295c-.1704.1233.0655-.2358-.0999-.1211l.0752-.0711c-.0698.034-.1524-.0359-.3175.1275.0107-.0285.0431-.0913.0728-.1017-.0812-.0513-.3345.074-.3235-.0714l.0445-.0435c-.0264.0037-.0986.0702-.0792.0085.0167-.0187.0444-.0426.0397-.0505-.0211.0106-.1083.0522-.1053.009l.0608-.0392c-.025-.12-.2229.0279-.3101-.006.0401-.0388.0717-.0854.0926-.1368s.0308-.1065.029-.1618l.0198-.0187c-.0335-.1227-.2036-.0618-.3245-.0971.157-.2302.0113-.3035.136-.528-.0586.0617-.1304.1099-.2102.1409.0461-.0656-.1879.0614.0431-.1112l-.003.0128c.2222-.1932.1654-.2051.1704-.2529l-.3295.2341c.4916-.4664-.259-.1399.25-.5331-.104.0399-.1036.0075-.2146.0493l.2346-.1415c.0652-.1082.0983-.1586.0532-.2128l.1824-.0862c.0351-.0595-.7529.3592-.7807.324l.4118-.2322c-.0121-.0798.3619-.3319-.0482-.2128.0693-.0343.1414-.0626.2156-.0847.0087-.0414.3208-.2679-.3282.0238.4201-.1823.0281-.086-.1785-.0494l.3192-.1211c-.2103.089-.433.1461-.6607.1695.0371-.0269.2533-.1062.1768-.0613.1537-.0976-.3168.0854-.1604-.0233l.2119-.058c.0127-.0455-.0976-.0022-.3463.0602-.1387.0194.0542-.1032.3456-.2025-.1808.0541-.4285.1093-.3523.0593.0707-.0248.1432-.0441.2169-.0577.1959-.1257-.416.0191-.1156-.1163l.1905-.0607c.0127.0489.013.0915-.0127.0952.2486-.0936.5029-.172.7613-.2348-.2413.0466-.7523.1317-.6263.0567l.101-.0315.0347-.0052c.026-.0155-.005-.0151-.0578-.0091.0438-.0235.0765-.0391.0759-.0506.2429-.064.1122-.0695.1156-.0892-.1812.0296-.3604.0703-.5364.1219.0095-.0037.0198-.0053.03-.0045s.0201.0039.0289.0092c.0121.0018.0245.002.0367.0003l-.0291.0054c.0158.0119.0296.0262.0408.0423-.1708.0262-.3145.0408-.1437-.0233l-.5298.0893c.4395-.1333.6608-.2329.9291-.2934-.2535-.0684-.5183-.0865-.779-.0532-.0792-.0082.1577-.0461.245-.0655.0468.0079.0943.0106.1417.0079-.1604-.0124-.0989-.0928-.4923-.055.1615-.0686.3683-.0171.2824-.0727l.122-.0051c.5401-.1585-1.0039-.1348-.3145-.3271-.0365.0119-.0745.0188-.1129.0205.2172-.1622-.3125-.3698.0371-.5179.0608-.041-.0963-.0633-.2153-.1091l.1845.0125-.2226-.0819c-.125-.0987.3352-.074.0769-.2149l-.0819-.0035c.0104-.0326-.0488-.1228.0315-.0993-.0137-.0066-.0718-.0277-.0378-.034l.0505.0104c-.0319-.0337-.0608-.0701-.0862-.1088.022-.0637.1641.0523.1296-.0557-.0357-.0461-.1076-.1376-.1152-.1258.0002.0047-.0008.0094-.0028.0137s-.005.0081-.0088.011-.0083.0048-.013.0057c-.0048.0008-.0096.0005-.0142-.0009l-.0071-.0374c-.033-.0223-.0717-.035-.1117-.0369-.0399-.0018-.0796.0074-.1146.0265-.0044.0207-.005.0421-.0017.063l-.0668.0029.0474-.0412c-.0711.0111-.0558.0353-.0427.0601-.0289-.0036-.0583-.0019-.0866.0051.0186.0287.0404.0552.0652.079-.0618-.0068-.0775-.0471-.1504-.0212.0368.0383.1457.0058.15.0554-.0892.01-.1447-.0108-.1122.0326-.0468-.005-.0675-.0172-.0712-.0326.0194.0367-.0618.0742.0244.1082-.1404.0053-.0491.1002-.255.061.0381.0175.1203.0793.1113.1077-.2366-.0933-.1029.0989-.4234.041.2342.0739.0016.1588.1457.2495-.0247-.0064-.0735-.0192-.0532-.024-.0743.0327-.1531.0544-.2339.0642.1696.0249.335.0719.4919.1399-.3078.0342-.3385-.0503-.6179-.0513.2396.0121.1972.1049.4127.0965-.1219.0275-.2465.0412-.3716.0411.391.0204.0481.0406.2811.0802-.2239.0541-.3907.0086-.2951.0763-.088.0185-.1797.0077-.2607-.0308zm.6463 1.5122-.0063.0017-.0231-.0263zm.0315.1232c.0039-.009.0058-.0187.0056-.0285-.0001-.0097-.0024-.0194-.0066-.0283.0718-.0298.1484-.0467.2263-.0498-.0798.0252-.1556.061-.2254.1066zm2.1927-.8004c.0515 0-.0103.0191-.0759.0369-.0154-.0061-.0318-.0097-.0484-.0108l-.0401.008z"/><path d="m18.2898 27.7852c-.008-.0002-.0257.0002-.0257.0002l-.0695.0245.1029-.019z"/><path d="m25.0621 31.0552-.005-.0064.0231.0421z"/><path d="m17.0287 30.2382.0562-.0351-.0589.0243z"/><path d="m26.0631 31.7129c.0121.0196.0259.0381.0415.0552z"/><path d="m26.306 31.5664.074.0414c-.0223-.0176-.0472-.0316-.074-.0414z"/><path d="m26.5196 31.4917-.0498-.0808-.0014-.0007z"/><path d="m23.3303 33.541c-.0039.0055-.0066.0116-.008.0182-.017.0779-.0037.0472.008-.0182z"/><path d="m24.2787 32.4443c.0033.0736.0063.1457.0087.1922.0247.0251.0411.029-.0087-.1922z"/><path d="m21.9943 33.8066v-.0058l-.0088-.0029z"/><path d="m24.2379 32.6423c.0351.0735.0471.0522.0495-.0057-.0211-.0221-.0471-.0578-.0495.0057z"/><path d="m27.0463 30.6624.0069-.0081-.0096-.0107z"/><path d="m27.0439 30.6445-.0027-.0185c-.0008.0031-.001.0063-.0005.0095.0004.0032.0015.0062.0032.009z"/><path d="m27.0369 30.5879.0043.0379c.0033-.006.0046-.0129.0038-.0196-.0008-.0068-.0036-.0132-.0081-.0183z"/><path d="m26.9003 30.917.0294.0391z"/><path d="m26.8678 31.0113c.0184-.0096.0939.0304.0856-.0238l-.0238-.0314c.0425.0705-.1072-.0283-.0618.0552z"/><path d="m26.1469 30.6368.0919.0178c-.0535-.0522-.1263-.1268-.1096-.1504-.2072-.149.1143.1255.0177.1326z"/><path d="m25.8893 30.6033c.011-.0417-.0698-.1022-.0952-.1433.0118.058.0459.1093.0952.1433z"/><path d="m24.5471 30.8892-.1053-.313c-.0077.0474.0418.1213.1053.313z"/><path d="m24.8054 32.6425.0904.1954-.0767-.3086z"/><path d="m23.9732 30.2794-.0042-.0499-.0027.1267z"/><path d="m22.0412 30.6728-.0461.3858c.0258-.0688.0866-.5048.0461-.3858z"/><path d="m21.0179 31.069c.0364-.1401.0384-.2232-.0257-.0888.016.0167.002.1244.0257.0888z"/><path d="m18.9985 29.2604.0685-.027h-.0589z"/><path d="m17.4609 25.753c-.0037-.0169-.0327-.0242-.0384.0139l.0387.0501z"/><path d="m17.2769 25.9316c.0087.0363.0273.0696.0538.0962.0265.0267.0599.0457.0965.0551-.0658-.082-.035-.0773-.0982-.162.0073-.0373.0438-.0485.0628-.0313-.0103-.02.0274-.0491.002-.0849-.0149.0056-.0285.014-.0401.0248-.0117.0108-.021.0237-.0275.038-.0065.0144-.0101.0299-.0105.0456-.0005.0157.0022.0313.0079.046-.021.0041-.0351-.018-.0467-.0275z"/><path d="m15.3093 28.9987.0545-.0072c-.0185-.0031-.0375-.0006-.0545.0072z"/><path d="m14.3719 31.1331c-.0074-.0193-.0525-.0348-.0953-.0433.026.0245.0595.0397.0953.0433z"/><path d="m13.7666 31.4481.0368-.0194c-.0458.0026-.0719.0084-.0368.0194z"/><path d="m15.3094 28.999-.1447.0173c.1226.0435.1053.001.1447-.0173z"/><path d="m17.3563 26.5179c-.0052-.0176-.014-.034-.0257-.0482l.0063.0364z"/><path d="m15.4751 27.9943.0094-.0163-.1187-.062z"/><path d="m15.8501 27.3154c.0905.0615.1874.1134.2891.1547-.0859-.0467-.122-.0758-.1307-.0959z"/><path d="m16.8347 26.445-.0054-.0261z"/><path d="m15.1466 28.4651-.1092-.0305z"/><path d="m25.7368 41.5625.0074.0233c-.0003-.0083-.0028-.0164-.0074-.0233z"/><path d="m26.7506 41.8799-.011.0067.0069.0216z"/><path d="m13.141 32.155.008-.0028c-.0454-.0254-.0381-.0128-.008.0028z"/><path d="m15.8842 38.7356c.0698-.1336.2359-.0027.2941-.1741-.0432.0409-.2817.0531-.2941.1741z"/><path d="m17.3383 26.5303-.005.031c.0028-.0046.0048-.0097.0056-.015.0009-.0054.0007-.0108-.0006-.016z"/><path d="m16.1783 38.5617.001-.0007.0054-.0171z"/><path d="m13.4612 33.986.1654-.0251c-.0557.0039-.1111.0123-.1654.0251z"/><path d="m13.9514 32.6729-.0558.0286c.0378-.0106.0508-.02.0558-.0286z"/><path d="m14.0962 34.6309c-.0247.0199-.0739.0309-.0197.0494l.0428-.0116c-.0515-.0034-.0772-.0125-.0231-.0378z"/><path d="m14.2399 35.3177.0671-.0237-.023-.0186z"/><path d="m23.9796 41.2842.0301.2569c-.012-.2006.0662-.2492-.0301-.2569z"/><path d="m17.2965 26.4883c.0257.017.0381.0292.0418.0418l-.0014-.024c-.0119-.009-.0257-.0151-.0404-.0178z"/><path d="m16.9801 34.3711-.0565.0895c.0154-.01.0285-.0232.0382-.0386.0098-.0155.016-.0328.0183-.0509z"/><path d="m20.0818 40.4259.0361-.0208c-.0054-.0066-.0167-.002-.0361.0208z"/><path d="m16.968 34.7041c-.0841.0192-.1659.047-.244.083l.0899-.0032z"/><path d="m24.5438 41.0643c-.0816-.028-.0044.3018-.0027.4814-.0939.0812-.0709-.2428-.12-.4161-.0515.0693-.0755.3769-.125.3516-.0109-.0484-.0149-.098-.0117-.1474-.0518.2575-.1935-.0424-.2623.3032l-.0124-.0928c.0165.1859.0228.3714.0228.5035-.0408.002-.0745.2288-.0923-.0152.0254.0089.0264-.0886.0371-.1626l-.0414.1009c-.0401-.354.0565-.1148.0525-.37-.0756.0953-.1745.3867-.237.2805-.005-.3544.1451-.1024.0682-.4231l.0919.1454c-.0705-.5546.0541.048-.01-.5442-.1103-.1289-.1287.1491-.239.0219-.0334.1947-.0023.2965-.0374.4923-.1971.3254-.0772-.9565-.2272-.499-.0495.2392-.1067.7121-.1738.4429l.0718-.4197c-.1032-.0721-.1307.6015-.2179.2861.0428-.1661.106-.1233.0953-.1787-.0345-.3595-.0826.2317-.1444.2215l.0391-.3884c-.1223.0402-.2978.2686-.4498.3108.042-.1164.0652-.2386.0685-.3621-.2022.1469-.3439-.1304-.4238-.4284l-.1524.3238c.0001-.0779.0177-.1548.0515-.2252-.0221-.1493-.0645.2169-.132.3424-.0428.0131.0109-.2113.0625-.3075-.1848.2592-.5134.5339-.5087.1498l.0575-.0925c-.0397-.1585-.3486.6452-.3239.3134l.0385-.0528c-.1467-.1918-.5.0253-.4629-.4414-.2226.4013-.122-.2169-.4047.3278.0107-.2972.0979-.3912.0093-.578-.0361-.0249-.2379.3023-.3241.3385l.1367-.2497-.2246.2449.1216-.2969-.0892.0499c.001.0656-.0191.1299-.0575.1836-.1434.0783-.1113-.2146-.0468-.3221l-.3118.1311c.0464-.0587.1033-.1086.1678-.1473-.24.1844.115-.2161-.1053-.0469-.0304.0556-.0674.1074-.1103.1544.0271-.1317-.0886-.1509-.2045-.1268l.0996-.1179c-.1301-.0642-.3553-.0281-.5244-.0833.0274.0623-.1166.2308-.1758.2242l.0923-.1527c-.1.0766.0083.0754-.1394.1576-.0475-.0445.0825-.1754.1557-.2113l-.1133.0206c.0278-.0427.0619-.057.1076-.1079-.0959.0705-.0217-.1807-.1798-.0566l.0268-.0395c-.1564-.071-.2513-.0777-.3793-.141-.0869.0929-.1137.0417-.215.0904-.0433-.1096-.1072-.2101-.1885-.2963-.1032-.0191-.0876.052-.1644.0731.0695-.0787-.0247-.1587.0745-.1662-.099-.087-.2135-.155-.3378-.2008-.0181.0439-.0161.0735-.0512.0887-.0364-.0138-.0204-.0873.0211-.1173l.0144-.0006c-.2848-.0429-.0331-.5977-.3045-.5892l.0144.0006-.1942-.0702c-.0227-.081.0992-.0133.1327-.109-.2694-.0362-.0819-.2907-.2667-.3468.3358-.3399-.1798-.3703.0899-.6839l-.1076.0658c-.113.0156.0554-.0811.0788-.1238-.0869.0486-.0942.0947-.1584.1009-.2236-.2589.0802-.7795.2757-1.1777.0575-.1389-.8696.2212-.4665-.0732l.3228-.0585c-.3963-.132.0248-.505-.3482-.6521.0872-.0054.1999-.0309.1982-.0074.2747-.1126.02-.1864-.2142-.1406.024-.0424.2068-.0517.3228-.098.1678-.0811-.3673-.0524-.0842-.133.0382-.0088.0779-.0085.1159.001-.14-.0059.0325-.1531-.3024-.0642.1524-.1128-.1541-.1462.0471-.2476-.3877.0078.1895-.1759-.3643-.1191.5719-.0679.4676-.2084.1909-.2371.1768.0003.1838-.0667.4298-.0694-.008-.0596-.1103-.1077-.4171-.0705.7289-.171-.5668-.202.3696-.325-.2579-.1218-.4843-.2999-.6617-.5208.634.0063.0424.1943.7028.1775-.2319-.1511-.7723-.2551-.6052-.4194.0922-.0402.278.0315.386.0473-.2536-.17.0956-.3062-.2399-.4733.0597.0063.1183.0206.1741.0426-.0177-.0301.1056-.0597-.1942-.0772l.0775.0337c-.3811-.027-.7579-.0968-1.1229-.2081.8532.1183.23-.137 1.3074.0351-.1272-.0434-.2602-.0679-.3947-.0728.1349-.0251.2741-.0158.4044.0268-.1527-.1167-.4756-.1114-.4605-.207.1454.0154.1998.0404.3699.0672-.28-.0752-.5534-.1568-.4201-.2254.0869.015.2022.0188.1966.0427-.0254-.1404-.7203-.3371-.4288-.46.6209.138.2122-.0232.7533.051l-.1535-.1063-.2647-.0081c.014-.0708-.3616-.2012-.1771-.2359l.2118.0922-.0808-.1551-.2139.0433c-.2627-.1241-.6768-.1092-.51-.1855.0505.0309.021-.0768.3385-.058l.0017.0006c-.1621-.069-.3302-.1429-.1908-.1743.1694.0186.5768.1263.6891.1389-.4314-.1235-.0986-.1978-.5498-.3427.1412.0443.2852.0791.4312.1042l-.3436-.106c.1309-.0102.2625.0064.3866.0487.0819-.0898-.6547-.1097-.3509-.1726.0434.0157.0857.0341.1267.0551.1664-.0911-.1675-.2924.0204-.3684.4996.0895.1049.1301.5304.1947-.0749-.1832-.5344-.4919-.379-.6215l-.0589.0153c-.656-.2084.3543-.0274.0602-.1967.0909.0436.1857.0785.2833.1045.1233-.0787-.1209-.2705-.272-.4995l.1521.0706c.1564-.0198.1189-.1448.2035-.1921-.1467-.071-.112-.103-.3366-.1516.8803.0698-.3251-.5683.3957-.5209-.005.0234.103.0981.1083.0801l-.0809-.2093c-.1035-.0356-.2119-.0559-.3215-.0602-.125-.0704-.2088-.1546-.1928-.1945.137.1009.3049.1528.4759.1472l-.2039-.082c.4028.0612-.4214-.1802-.127-.1973l.1063.0489c-.0418-.0655-.1671-.1614-.1186-.1958.2369.0734.0912.0895.2827.1694.0017-.0725-.3897-.3056-.142-.2727.0501.0526.0384.0937.0922.1472.2847.0425.2166.007.2727-.0244l-.0073.0024.1444-.065-.0752.0003c-.5243-.314-.0515-.2114-.3516-.4683.2764.2443.1778.0974.395.2014.0685-.014.1397-.0064.2035.0218-.1611-.1302.1464-.0337-.0825-.2194.0662.0257.0184-.0557.1768.029-.0391-.0949-.1133-.0327-.1939-.0754-.1804-.2031.3045-.1425.0732-.4247-.0678-.1837-.2182-.2848-.2329-.4359.0862-.0062.1447.1104.1447.1104.0886-.0345.0876-.093.0665-.1771.0151.0126.0327.022.0517.0275.019.0056.0389.0072.0586.0047.0047-.0566-.1213-.1003-.0441-.1395.0455.0369.0875.0778.1256.1221-.0293-.0797-.052-.1615-.0678-.2447.0571.01.0675.0781.0996.1198-.0094-.0855-.0023-.2113-.0622-.268l-.0431.0302c.007-.0262.0669.0193.0749.0454.0424.0918-.0538.073-.0869.0601l-.0014-.0525c-.1935-.046-.0515.1818-.0842.2682l-.1389-.1129.0909.152c-.0498-.0023-.1528-.0378-.1551-.0903-.1173.0165.0337.0825-.0916.0849-.0187-.0022-.026-.0089-.0301-.0175l.0214.0833c-.0331-.0303-.1394-.0557-.0896-.0763-.1844.0421.0478.2339-.1346.1957l-.0077-.0145c-.0144.1743.1477.0881.2937.2912l-.4715-.1293.1707.0969c-.0147.0118-.0451.0344-.1156-.0048.0943.1125.0849.0274.1868.1143-.2145-.0089-.0093.2394-.3432.1102.1434.0958.1547-.0157.2256.1105-.369-.1368.0184.1172-.1822.1097-.1851-.1055-.0431-.121-.2559-.1322.3088.1834-.1518.0932-.124.1752.2797.1219.0488.1699.0959.3039-.0986-.0481-.258.1097-.4285.1503l-.0535-.0241c.3195.1467.2119.2136.2497.3075-.1307-.0387-.2509-.1057-.3519-.1961l-.0358.0623c.103.0571.1504.0988.1705.1549l-.2556-.1155c-.0351.089.2242.2853-.0121.3281.2624.1005.7553.1741.8927.3538-.1526-.0403-.2987-.1011-.4345-.1806.0147.0167.1043.0779.0358.0763l-.2206-.1322c-.1267.0126.1892.0978.1511.13-.2046-.0735-.1588-.0222-.3195-.0856-.0151-.0173.1002-.005.027-.0488-.1206.0396-.2506.0419-.3726.0067.1206.0375.2804.098.2928.1406-.0241.091-.2674-.0582-.4024-.0457.1377.0714-.0452.0737.2774.184-.0131.0246-.1671-.0216-.26-.0412.1209.0923-.0629.2217.3185.287l.0284-.0038.0117.012c.275.252-.3115.2472-.2226.4412l-.1203-.0356c.1042.129.006.2219.252.3593-.1338.0144-.2691-.0037-.3941-.0526.0685.0945.2079.1386-.0324.184-.1995-.1285-.2049-.0273-.139-.1147-.1387.0616-.3549.0307-.0348.2183-.3188-.1174-.4428-.0356-.3586.0331l.2613-.0054c.0324.0609-.0113.0961-.0538.133l-.4357-.1306c-.6183.0701.8161.552-.1501.4989.3091.1186.2546-.0582.6183.0678-.0812.073-.7724.0316-.783.061-.2955.0758.654.2484.4458.3418.2664.0134.527.0823.7643.2022-.2896.0422-.5854.0089-.8579-.0964-.009-.024.0475-.0249.1043-.0139-.0432-.0341-.0928-.0594-.146-.0745-.0531-.0151-.1088-.0196-.1638-.0133l.1661.0418c-.1838.0138-.1959.1428-.4679.0665.0533.0376.1156.061.1808.068.0652.0071.1312-.0025.1915-.0278-.276.0753-.0468.1812-.2339.2783.1001-.0091.2011-.0003.2981.026-.2416.1467.3145.1256.3726.2531-.2733.0316-.6259-.1089-.4227.0414-.2043.0234-.4112-.0082-.5986-.0917.3172.1561-.2506.1877-.3208.25l-.1321-.0779c.0782.0468.0719.0768.0672.1078l.3519.0029c-.0305.0221-.0656.0374-.1027.0448-.0371.0075-.0754.007-.1122-.0015.2969.0309.5921.0767.8843.1371-.1798.0289.1801.1575-.2818.131.1655-.1334-.4645-.0262-.531-.162.0535.0305.0495.0605-.0137.0915-.0419.0004-.0833-.0087-.121-.0267-.4191.1115.5177.1154.4996.2616-.2587-.0397-.4929-.0034-.4384.0261.0073-.0615.4334.0046.6293.0726-.2056.0799.1457.1118.12.1583l.0969-.0492c.2573.0355.2212.0784.2994.1458-.2008-.0057-.1356-.0653-.2249-.0478.4502.094-.4762.1361-.1694.2525-.1711.0404-.4799-.0139-.5952.0244.3365.1271-.3403.119-.0599.2507.1975-.042.4032-.0235.5896.0531l-.2493-.2026.501.1371c.0033-.0572-.2186-.128-.1621-.1618.1529.0558.3184.0693.4786.0391-.5094.066.3004.1591-.0421.2419l-.8372-.0105c-.3583.1454.4425.2533.249.4361l.1363-.0618c.3245.0171.0575.1104.1945.1648-.1792.0033-.3573.0289-.53.0764.1992-.0114.0023.138.5384.1266l-.3402.1002c-.1194.1593.774.1162.6971.2557-.2878-.0178-.4632.0613-.6795-.0168.0044.0475-.0367.0944.1431.0796-.1591.0429.3689.097.1337.1626.1163.0082.385-.0133.3729.0392-.0415.0076-.0835.0121-.1256.0135.1521.0254.3078.0202.4578-.0151-.7613.2319.1167.3696-.5173.5878.1004.0766.1866.1696.255.275-.0719.0078-.1173.0221-.0976.0007-.1821.1656.6925-.0571.4832.1254-.3536.1482-.2209-.0302-.3506.0427-.7523.1797.1524.1447-.252.3352l-.0511-.0128c-.2243.1326.3365.1099.3349.2331-.0363.0061-.0719.0152-.1066.0272.2435-.0242.488.036.6914.17-.1414.0027-.2808.0337-.4097.0911.0565.0366.4181-.1392.523-.0677-.15.1117-.3142.2039-.4882.2741l-.0551-.086c-.3316.1568.0658.1142.0277.1797l-.1527.043c.1307.1195.4966-.0053.5437.1449l.0972-.0525c.379-.0482-.1577.1349.1314.1182l-.3225.1504c.1752.0159.3472.0561.511.1194-.2061.0202-.414.0125-.618-.0229.0303.0491.0757.0875.1296.1096.0538.0221.1135.0268.1702.0134-.0411-.0077-.133-.0017-.0969-.0411.2857-.0396.4325-.0068.4876.0897-.5661.2305.0217.3113-.3138.5701.3001.0796.2015.3608.4084.5209.2416-.2449.0571.0468.3482-.1498.0528.0303.0602.0494.0441.0651l-.0621.2348c-.0522.0818-.0963.0009-.1558.0453.0665.1024-.0798.1138-.0885.2185.0819-.075.1681-.062.1804.0141l.0505-.1529c.2477.0326-.1103.2558.1497.2807l-.1163.0174c.1139.0259.245.2252.4745.1506-.014.0304-.0568.0906-.0995.0756.1233.1725.4852.1892.5073.3798l-.0565.0303c.0408.015.132-.0306.1203.0449-.02.0154-.0555.0305-.0458.0455.0301.0003.1494-.0007.1581.0604l-.0795.0161c.0838.1996.3228.1145.4752.1908-.0425.0525-.0679.1165-.0729.1834-.005.067.0106.1339.0448.192l-.0204.0183c.1394.2002.3653.1941.5765.2723-.0605.2927.2353.442.2821.765.009-.0728.1354-.1845.1795-.1804-.0007.0933.2246-.0793.0571.1556l-.01-.0181c-.1297.2633-.0144.2894.0408.3614l.2282-.3313c-.1641.6843.5431.1949.3406.7992.1009-.0703.1517-.0231.2537-.1015l-.1311.2425c.0853.1668.1304.2527.3122.3171l-.1234.1654c.0776.0979.4803-.6943.5662-.662l-.1668.4373c.1602.0846.1654.5916.4986.2609-.029.0662-.0858.1973-.1209.2012.0735.052.1958.4886.402-.1832-.153.4306.1671.12.3239-.0461l-.1203.316c.2158-.3832.2529-.4961.3976-.5774.0128.0498-.0564.2664-.0661.173.0367.1963.1601-.2872.2135-.0841l-.0996.1967c.0835.051.1093-.0629.2253-.2922.0906-.1157.144.128.0839.4268.0588-.176.1674-.4045.2002-.3115-.0117.0741-.0369.1455-.0746.2106.1073.2478.3152-.3412.3516-.0043-.0148.0645-.0218.1304-.021.1965-.1247-.027-.222-.0603-.2069-.0826-.0698.3006.0267.368-.1521.771.1427-.2156.3844-.6838.4559-.5308l-.0057.1048-.0171.0322c.0181.0326.0448.0074.0736-.0402.0237.0529.0384.0915.0691.0997-.0301.247.1006.1456.1518.1617.0458-.3229.1042-.2632.0822-.5364.0047.0242-.0154.0374-.0511.0468-.0116.0077-.0208.0184-.0268.0309l.008-.028c-.0429.0055-.0863.0072-.1296.0051.0691-.1599.131-.2912.1574-.1049.0591-.2032.12-.4121.1484-.5105-.0047.4597.1019.6999.0882.9733.1838-.1789.4007-.1253.5367-.6981.0472-.0721.0378.1661.0485.2561-.0288.0571-.0585.0481-.0785.1307.0989-.1462.267-.0593.3021-.4531.1019.1661-.0749.3644.0789.2854l-.0241.1204c.3168.5445.4655-.9854.8071-.2941-.0257-.0323-.0416-.0711-.0458-.1119.3954.1856.7005-.3762 1.1039-.1484.1116.0252.0869-.1312.116-.2636l.0661.1719.0438-.2462c.0976-.1741.3499.2688.4382-.0715l-.0495-.07c.0635-.0206.1691-.1469.1895-.061.001-.0169-.008-.0824.0281-.0601l.0214.0503c.0332-.0565.0696-.111.1089-.1635.1177-.0413.0545.1806.1979.0475.0431-.0738.1169-.208.0919-.2012-.0231.0144-.0652.0235-.0786-.0009l.0498-.0369c-.0214-.0729.0117-.104-.1804-.1765-.0322.0102-.0626.0248-.0906.0434l-.0582-.0534.096.0101c-.0742-.0502-.0939-.0217-.1184.0075-.0194-.0282-.0447-.0521-.0741-.0701-.0228.0385-.0412.0795-.0548.122-.0348-.0563.0043-.1048-.0789-.141-.0237.0634.0956.124.0328.1707-.0756-.0638-.0839-.1271-.119-.0634-.0241-.0425-.0217-.0698-.0047-.0861-.0344.0476-.131.0122-.123.1119-.0872-.106-.1621.0318-.2222-.1745-.0017.0431-.0415.1493-.0856.1567.0067-.2601-.1811-.0393-.2439-.3576.0073.2532-.1899.0744-.255.2426.0003-.0256.001-.0765.0136-.0592-.0648-.0314-.1016-.1331-.151-.2032.0478.2794-.0344.3255-.0545.5065-.1216-.2979-.0144-.3424-.0845-.617.0447.2372-.0839.2093-.0274.4223-.062-.1139-.105-.2369-.1273-.3643.0468.3951-.0405.0516-.0522.2962-.1029-.2103-.0668-.3891-.135-.2759-.0304-.0873-.0296-.1823.0024-.2691zm-1.9468.394.001-.0065.0445-.0079zm-.1678-.0353c.0194.0171.0439.0277.0699.03-.0174.1143-.0475.2294-.0639.2196.0125-.0829.0105-.1673-.006-.2496zm-.018 2.3322c-.0428.0419-.0441-.0231-.0374-.0902.0243-.0061.0473-.0169.0675-.0316l.0107-.0391z"/><path d="m22.5419 43.3381c.006-.0066.011-.0197.0177-.0218l-.0087-.0751-.0277.0997z"/><path d="m15.3729 28.9902-.009.0014.0491.0068z"/><path d="m20.3414 40.3496-.0315.058.0438-.0499z"/><path d="m16.7157 28.3623c.0226.0073.0461.0116.0698.0127-.0228-.0065-.0462-.0108-.0698-.0127z"/><path d="m16.8781 27.9553.0971-.0266c-.0338.0028-.0667.0118-.0971.0266z"/><path d="m17.0707 27.6709-.0873-.0449-.0013.0001z"/><path d="m16.689 32.8203c.0045.0054.0102.0098.0166.0127.0756.0319.0469.0117-.0166-.0127z"/><path d="m15.929 31.2129c.0614.0249.1215.0531.1798.0845.0347-.0216.0457-.0411-.1798-.0845z"/><path d="m16.9867 34.3613-.0059.0015-.0014.0088z"/><path d="m16.0907 31.3676c.0842-.0129.0702-.0384.018-.0697-.0301.0173-.0752.0364-.018.0697z"/><path d="m17.4243 26.2104.0068-.0148-.0123-.0081z"/><path d="m17.4192 26.1874-.0051-.0233c-.0016.0039-.0021.0082-.0012.0124s.0031.008.0063.0109z"/><path d="m17.4045 26.1152.0097.0486c.0035-.0081.0044-.0171.0026-.0257-.0017-.0087-.006-.0166-.0123-.0229z"/><path d="m17.2861 26.6475.0425.0267c-.0132-.0104-.0274-.0194-.0425-.0267z"/><path d="m17.2728 26.794c.0184-.0274.1129-.0359.0902-.0976l-.0344-.0216c.0652.0556-.1277.0498-.0558.1192z"/><path d="m16.3377 26.9976.1153-.0777c-.0775-.0128-.1864-.0323-.1691-.084-.2941.0311.1671.0422.0538.1617z"/><path d="m16.0239 27.2631c-.0003-.0702-.1173-.0499-.1621-.0727.0485.0656.0635.0825.1621.0727z"/><path d="m14.7924 29.7019-.3222-.0945c.0268.0608.1257.0346.3222.0945z"/><path d="m16.3935 30.6241.2191.0067-.308-.0956z"/><path d="m13.8447 30.352-.0425-.0336.0986.1132z"/><path d="m13.9061 35.2431.3877-.0741c-.0769-.0244-.5204.0316-.3877.0741z"/><path d="m15.036 37.1113c-.1297.07-.1838.1531-.0308.1341-.0066-.0471.0786-.1266.0308-.1341z"/><path d="m18.8068 41.9678-.0739.0377.0931.0027z"/></g></svg>
