<svg fill="none" height="54" viewBox="0 0 54 54" width="54" xmlns="http://www.w3.org/2000/svg" xmlns:xlink="http://www.w3.org/1999/xlink"><clipPath id="a"><path d="m11 9h31.0278v36.0686h-31.0278z"/></clipPath><g clip-path="url(#a)" fill="#8a2432"><path d="m23.3433 24.7486.0976-.0041c-.0319-.0109-.0667-.0094-.0976.0041z"/><path d="m18.8108 30.601c.0159-.0558.0044-.0887-.0127-.101-.0054.057-.0089.1041.0127.101z"/><path d="m18.2044 31.7131.0339-.0676c-.0228.0214-.0394.0459-.0339.0676z"/><path d="m23.3434 24.748-.2526.0091c.089.1292.1543.0249.2526-.0091z"/><path d="m25.9677 22.6929.0561-.0263c-.007-.0564-.0174-.1124-.0309-.1676z"/><path d="m28.3957 21.8496c-.0611.0011.0013.2323.017.3382-.0036-.1026.0219-.1567.0647-.1856-.0199-.0544-.0474-.1058-.0817-.1526z"/><path d="m24.2855 23.4905c-.0296-.0385-.0634-.0736-.1006-.1048.028.0399.0619.0752.1006.1048z"/><path d="m17.2734 33.8496.0063-.0087c.011-.0599-.0006-.0276-.0063.0087z"/><path d="m15.5964 39.0965c.0524-.0085.1032-.0253.1504-.0496-.0535.0039-.1051.0209-.1504.0496z"/><path d="m17.0224 35.1982-.0607.0883c.025-.0259.0455-.0557.0607-.0883z"/><path d="m16.1821 41.2129c-.0164.055-.0549.0754-.0057.147.0122-.0064.0234-.0145.0332-.0242-.0435-.0245-.0676-.0591-.0275-.1228z"/><path d="m30.9254 21.7563c-.0442-.0036-.0882-.0106-.1313-.0209l-.023.0479c-.0552.0058-.1649.0166-.1523-.0224-.1915.0929.0424.0324-.0624.1139-.2885-.0646-.6948.235-.8191.0025-.0593.1474.2728.033.0204.1892-.1607-.2747-.3036.1331-.5803.0546.0148-.2042.2793-.1431-.0149-.2593-.0467.3457-.4937.0382-.685.1406.0919.2867-.3966.2399-.6828.4691-.025-.1219-.7034.0288-1.077.0249l-.0214-.0666c.1249.4063-.2261.4551-.3979.6558-.0533-.0743-.0868-.1611-.0973-.252s.0025-.183.0376-.2676l-.2148.1002c.0126.0661.0081.1343-.0133.198-.0213.0638-.0586.121-.1084.1662l-.1147-.3291c-.2883.1427-.3599.6371-.8355.6326.1748.3081.7715.6554.5606 1.0726-.1142-.1515-.3037-.4171-.2529-.5391-.0173.0395-.0219.1991-.1262.1683l-.0313-.3553c-.2312-.0257.0635.2732-.0737.3228-.1473-.2304-.1982-.1081-.3008-.3005.0175-.0412.1709.0295.1607-.0881-.1038.0216-.211.0216-.3149 0s-.2022-.0643-.2889-.1254c.1015.1226.2103.3088.1312.4057-.2464.191-.282-.2168-.5206-.2323.0502.2015-.2385.1507.0099.4952-.0761.0504-.2097-.0996-.308-.1705-.0184.2484-.5701.5138-.1407.7556l.0508-.002-.0086.0308c-.1405.641-.982.5233-1.2349 1.0279l-.0952-.1005c-.104.3405-.4208.564-.3559.9276-.0605.0663-.316-.0016-.4045-.1364-.0823.2501.0068.3606-.3725.4848-.0112-.3286-.2002-.0638.0369-.2956-.2846.1629-.4731.1043-.4161.5877-.1734-.2932-.444-.0558-.4585.1252l.3009-.0414c-.0659.1407-.16.2664-.2763.3694l-.2689-.31c-.7011.3117.0095 1.435-.7731 1.4917.1165.2758.282-.2323.4453.0558-.1819.2247-.6814.2762-.7032.3741-.2655.3178.2144.5628-.0399.8951.0974-.0083.3233.062.2609.3727-.1547.238-.4264.176-.4205-.0269.0176-.0692.0516-.0893.0747-.0738.0076-.1013.0157-.2373-.1011-.1689l.0602.0748c-.1223.0988-.2375.4895-.3147.3456-.0104.2412.0727.1407.1621.0042-.2246.305-.1901.5532-.3665.8913.048-.0452.13-.0694.1091-.0129-.2484.4996.006.2701-.0971.6327-.1437.1717-.1466-.1417-.2114.2404-.1253.1997-.137.0002-.1463-.1035-.0598.2816-.1804.5466-.3535.7766l.0243-.1864c-.0134.0971-.0396.192-.0779.2822l.1281-.0672c-.0524.0957-.0858.1808-.1238.1661.0213.1236.1845-.0276.1914.2044-.102.1172-.0977.4223-.2497.4284.1895-.3758-.0983-.0612-.0479-.2931-.0229.0662-.0537.1294-.0918.1881-.0217.0105-.0222-.0226-.0179-.0523-.303.3641.0817.2319-.0986.6459-.0656-.0769-.2142.0507-.2353.1219.0941-.1639.1896-.0394.2006.1337-.1893.2486-.057.3071-.1183.4465l.1012-.1521c.0871.0805.0304.2132.0017.4103-.0377-.0017-.0479-.0283-.0486-.0577.0308.2191-.4336.3856-.3844.6847-.1532.1192-.2878-.0388-.4103.0697.0666.3706-.399.3252-.3424.7168.282-.0693.2173-.095.3867.1921-.0073-.2048-.0017-.4099.0168-.614.0636.1485.1384.2919.2238.429.0418-.1772-.0456-.3963.0338-.4941.1188.2072.0769.1796.2836.1268-.4168.1845.1042.5086-.2011.7522l-.6337-.0914c-.4369.3963.156.8063-.0788 1.3548l.1428-.1731c.2686.0965.0097.3515.116.5419-.239-.0303-.3316.0801-.4823.153.1782-.0022-.0288.4221.4512.4859l-.3035.2472c-.0998.464.6679.5246.6202.9542-.2516-.1253-.3872.0783-.5933-.2135.0145.1475-.0096.2813.1422.2792-.1243.0916.3304.3943.1462.5361.0981.0567.3187.0647.3212.2265-.032.0117-.0667.0136-.0998.0055.1009-.005.1665.243.3698.0883-.5448.4871.1884 1.2187-.1247 1.6414.1369.2997.3005.6554.3947.9257-.0102-.0035-.0207-.0059-.0314-.0072l.0573.127.0252.059c.0719.0406.1322.0991.1749.1698s.0664.1512.0689.2338c.0047.2089-.1016-.1353-.1089-.0934l.1763.3558-.0173-.0827c-.0455-.2498 0-.5211.1017-.5296.0363-.0032.0694.0258.0946.0774.0347-.2454.0918-.4872.1708-.7222-.0904-.3863-.1103-.7858-.0588-1.1792.0134-.1299.0402-.2582.0798-.3827-.0272-.1739-.0081-.3519.0554-.516.0526-.1405.3043-.5786.5091-.9707-.0421-.0091-.0856-.0096-.1278-.0015.5449-.3653-.1081-.7119.1337-.9615l-.0271-.107c-.0197-.0895-.0171-.1824.0078-.2706.0248-.0882.0709-.169.1344-.235-.1555-.5051-.2806-.9957-.3872-1.4849.5177.0821.0678.6971.6196.7183-.241-.5934-.6864-.9969-.5903-1.5816.0456-.1468.1954.1192.2769.1823-.1189-.5802-.2046-1.1667-.2569-1.7566.0251.0075.0516.0733.073.1341-.0078-.1098.0394-.2417-.0791-.2589l.03.1133c-.2007.1278-.3282-.5167-.3795-.5535.2695.2601.175-.5099.4816-.1251-.0132-.0759-.0416-.1753-.1072-.1775.037-.0977.076-.1202.1307.0051.0074-.3936-.1097-.289-.0173-.6232.0394.0141.036.0864.0743.1359-.0548-.2201-.0316-.4523.0658-.6572.0172.0249.0577.0031.0295.0859.0669-.4701.2144-.925.436-1.3449.1091.2254.1526-.1384.3385-.0859l.1101-.2725-.1516.0595c.1394-.2193.1239-.4826.3163-.6351l-.0261.2018.2443-.4167-.2416.1825c.0312-.28-.2907-.119-.0522-.3875-.0142.0732.1354-.2266.3671-.2505l.0001.0011c-.005-.1497-.0248-.3168.1506-.4367.1186.0137.2851.2183.3635.2279-.167-.2485.3351-.4912.1505-.8027.0573.0927.1421.165.2427.2069l-.1504-.2261c.1422-.0482.1882-.037.3113.0699.2698-.2436-.492-.2012-.0363-.4013-.0035.0383.0413.0505.0293.1266.3869-.2413.3754-.7457.761-.9408.4354.207-.1421.3181.2469.4617.3112-.4403.3623-1.1923.8371-1.4939l-.1134.0305c-.4623-.5546.5528-.0243.5114-.4445-.0115.0845.2203.351.1764.2806.3496-.159.4407-.605.7106-1.1609l.0722.1942c.2835.0034.5101-.2709.7426-.3483-.0679-.2019.0596-.2566-.1772-.4364.6305.2389.7864-.1017.972-.4333.1809-.327.3636-.6822.8465-.4853-.0637.0431-.0737.2337-.023.2012l.3721-.443c-.1725-.2288-.1415-.1128-.35-.2494-.0151-.0845-.0067-.1716.0243-.2517.0309-.0801.0833-.1503.1513-.2027-.1321.2949.2156.4004.3742.4809-.0418-.0784-.0795-.1588-.1131-.2411.4729.2938-.2049-.5149.2985-.409l.041.1346c.1-.1359.1508-.3598.313-.3992.176.2295-.0873.1975.0049.4225.1769-.1433.1897-.6834.4823-.5239-.0596.11-.1845.1708-.2403.2835.3273.1996.3119.1054.4747.0703l-.0166.0018.3751-.0715-.1106-.0222c.0348-.7077.4735-.364.7185-.8483-.252.4438-.0006.1999.0373.4167.1047.0101.2543.0007.234.0771.0132-.0314.033-.0596.058-.0825.0084-.1286.1534-.2944.4577-.4379.4121-.1973.8157-.3722 1.0953-.496-.0596-.004-.1184-.0163-.1747-.0367z"/><path d="m23.4566 24.7422-.0167.0012c.0214.0054.0415.0148.0593.0278z"/><path d="m26.9903 23.918c.0198.0256.0466.0448.0771.0554-.0212-.024-.0476-.0429-.0771-.0554z"/><path d="m28.2513 23.2564.2101-.0158c-.0704-.0041-.1411.0012-.2101.0158z"/><path d="m29.263 22.8274c.001-.0322-.0017-.0643-.0078-.0958l-.0025-.0002z"/><path d="m18.2245 35.3975.008.0458c.0353.1113.0206.0381-.008-.0458z"/><path d="m19.7942 30.3955c.0044.0628.0003.1258-.0124.1875.0713-.0676.1202-.123.0124-.1875z"/><path d="m19.635 30.7821c.0721-.0457.1244-.1167.1468-.1991-.0685.0494-.1198.119-.1468.1991z"/><path d="m30.0547 21.7787.397-.0106c-.0754-.0277-.1797-.0809-.0007-.0951-.529-.1021.1214.0749-.3963.1057z"/><path d="m28.8154 21.8814c.1989-.0774-.0393-.1122-.0438-.1607-.1131.0929-.1365.1225.0438.1607z"/><path d="m21.254 26.4709-.2336-.2443c-.0706.1646.0947.0888.2336.2443z"/><path d="m21.4494 28.7762.2447.0036-.1727-.2232z"/><path d="m19.2552 28.4093v-.09l-.0396.3144z"/><path d="m22.7379 18.5088.0207.0981c.0052-.0342-.0022-.069-.0207-.0981z"/><path d="m16.1157 20.968c.002-.069-.0164-.1021-.0364-.1096.0077.0667.016.1211.0364.1096z"/><path d="m15.817 22.4452.0143-.0888c-.0086.0129-.0144.0275-.0169.0429-.0024.0153-.0016.031.0026.0459z"/><path d="m22.738 18.5092-.0464-.2572c-.1223.0992-.0041.1584.0464.2572z"/><path d="m24.7886 18.0583.0355-.0482c-.0338-.0449-.0706-.0875-.1102-.1273z"/><path d="m26.2417 15.6562c-.0434.0518.1661.1689.2522.2346-.0296-.0221-.0528-.0515-.0675-.0853-.0147-.0339-.0203-.0709-.0163-.1076-.0536-.0226-.1104-.0367-.1684-.0417z"/><path d="m23.8909 18.6091-.0035-.1462c-.0033.0487-.0022.0977.0035.1462z"/><path d="m15.5328 25.2031.0036-.0125c-.0062-.0737-.0082-.0319-.0036.0125z"/><path d="m11.0845 28.7157c.0586.0051.1176-.0013.1738-.0189-.0584-.0143-.1199-.0076-.1738.0189z"/><path d="m15.5043 26.6035c-.0213.022-.0439.0425-.0678.0616.0273-.0146.0506-.0358.0678-.0616z"/><path d="m11.3729 31.8457c.0024.0788-.028.1162.0451.2045.0101-.0122.0181-.026.0239-.0408-.0508-.0239-.0868-.0679-.069-.1637z"/><path d="m27.803 13.194c-.0276.0441-.0583.0861-.0918.1258l.0278.0493c-.0267.0605-.0803.1797-.106.1452-.0307.2485.0518-.0262.0606.1274-.2091.2613-.2328.8472-.5026.8205.0776.1515.2048-.2458.1628.1002-.3222-.0218-.0948.3831-.3474.5939-.1407-.1536.0774-.358-.2056-.1628.2266.2809-.3274.4691-.3907.7018.2759.1332-.1214.5211-.2105.9274-.0944-.0722-.5465.5855-.8793.8326l-.0563-.0416c.3339.2581.0798.554.0079.8233-.2232-.1515-.2878-.2474-.3123-.4194l-.1354.1916c.0396.0498.0673.108.0807.1702.0135.0622.0123.1267-.0033.1884l-.2483-.2424c-.0595.1169-.0031.6613-.3613.5859.0715.2017.1673.394.2853.5725.075.0962.1113.2171.1016.3387-.0097.1217-.0646.2353-.1539.3185-.0684-.1767-.1505-.4924-.0697-.6194-.0245.0385-.0863.221-.181.1628.0389-.1258.067-.2548.0839-.3854-.179-.0694-.0198.3022-.1696.3263-.0366-.2799-.1239-.1762-.1245-.4051.024-.0321.1175.0903.1419-.0363-.0503-.0035-.0988-.0204-.1405-.0488-.0416-.0285-.075-.0675-.0966-.1131-.0452-.0625-.0721-.1363-.0779-.2131-.0001.1635-.0152.387-.1185.4223-.2453-.0156-.0231-.355-.0892-.5195-.1014.1802-.1307-.057-.3123.3286-.062-.0351.0204-.2173.061-.3306-.147.1596-.484-.3345-.6694.1112l.0114.0511c-.0118.0011-.0193-.005-.0329-.0048-.716-.0806-.6627-1.0707-1.3512-1.3543l.0847-.1095c-.4151-.1294-.9326-.4175-1.288-.1782-.075-.0382-.1348-.1006-.1698-.1772-.035-.0765-.043-.1627-.0228-.2444-.3694.0945-.3688.2208-.8805.1128.2991-.2906-.164-.177.3285-.2278-.4632-.0341-.6759-.1738-.9912.3349.0321-.3679-.4909-.1983-.6224.0213.1273-.002.2546.0041.3811.0185-.1723.1349-.3542.2571-.5444.3655l-.1422-.3926c-.225.0805-.4204.227-.5607.4205-.1403.1934-.2189.4247-.2254.6635-.0741.4231-.1283.7396-.5261.9144.1263.3046.3007-.3673.4753-.0528-.1967.3081-.6957.5401-.7112.6669-.2314.4784.3002.5914.1273 1.066.0911-.0467.335-.0454.3412.3268-.0961.325-.374.3568-.4196.1252-.0001-.0847.0296-.1203.0557-.1113-.0168-.1174-.0381-.2755-.1389-.154l.0768.0625c-.101.1587-.1094.641-.2217.5075.0546.2754.107.1314.1583-.0552-.0673.3766-.1083.7574-.1227 1.1397.0343-.0686.1071-.126.1021-.0544-.1044.6558.0879.3043.0792.7521-.0932.2465-.1816-.1077-.1395.3488-.0632.272-.1326.0496-.1692-.0645.0252.3406-.0151.6828-.1185 1.0083l-.0284-.2204c.0134.1156.0148.2324.0042.3483l.1038-.1222c-.0238.1275-.0295.2362-.0705.233.0572.1329.1678-.0971.2436.1643-.0582.1685.0374.5175-.1096.574.0751-.4906-.1086-.0336-.1311-.3144-.0003.0832-.0112.166-.0327.2464-.0178.019-.0277-.0171-.0318-.0528-.1914.4939.1507.2335.073.7172-.0807-.0628-.198.0952-.2076.1609.0601-.1703.1838-.0709.2174.1043-.1711.253-.0418.2961-.1119.4176.0391-.0403.0749-.0837.107-.1298.086.0803.0248.2138-.048.3801-.0065-.002-.0126-.0053-.0179-.0097s-.0096-.0098-.0128-.0159c-.0031-.0061-.005-.0128-.0056-.0196-.0005-.0068.0003-.0137.0025-.0202-.0098.1016-.1384.1456-.2597.1494-.1246.0095-.2284-.0277-.291.0696-.1502-.0743-.1335-.2565-.2436-.3198-.198.2105-.3297-.2458-.7102-.055.1737.2404.1926.1657-.0807.4358l.6303-.2102-.3296.3646c.215-.0239.3805-.1844.4863-.158-.1227.1952-.1287.148.0106.311-.3338-.2992-.4851.2804-.8997.1087l-.1461-.6236c-.1777-.0341-.3613-.0201-.5318.0404-.1705.0606-.3218.1656-.4382.3041-.2836.2592-.484.584-.8467.8722.0929-.052.1895-.097.2891-.1346.1145.2656-.3256.4319-.3658.7354-.1973-.1447-.3561-.0337-.5437.0176.151.0549-.2663.6187.1857.8245-.1334.0851-.2605.1797-.3803.2831-.211.6784.5729.8112.5406 1.3547-.2595-.1573-.3898.1399-.6046-.2753.01.2144.0136.4117.1617.3967-.1212.1532.4064.5087.2805.729.1158.057.3336.0086.3933.2081-.0257.023-.0592.0353-.0937.0344.0918-.0298.2613.2436.3897-.0009-.1807.37.0464.7236.2873 1.0128.2423.2956.4984.5462.5236.8335.3188.2297.6964.5017.978.7046-.0109.0021-.0214.0055-.0315.0101l.1366.0919.0623.0434c.0955.0023.1893.026.2744.0695.0851.0436.1592.1058.2169.1819.1522.1951-.1824-.0728-.1587-.0292l.403.2403-.0737-.0686c-.2171-.2102-.3697-.4944-.2895-.5582.0286-.0229.077-.0131.1347.0226-.1406-.251-.2611-.5128-.3604-.7829-.335-.3096-.6027-.6849-.7864-1.1025-.058-.1305-.0982-.2682-.1194-.4095-.1066-.1519-.1649-.3325-.1674-.518.0261-.3366.1257-.6633.2917-.9572-.0427-.0029-.0855.001-.127.0117.526-.3034-.1095-.5787.1707-.7601l-.0116-.0865c-.0028-.0695.0198-.1375.0637-.1915.0438-.0539.1059-.0899.1744-.1013-.0214-.1674-.0076-.3376.0404-.4994.048-.1619.1292-.312.2385-.4407.1712.4773-.2871.3203.0823.7373-.0477-.1952-.0324-.4005.0438-.5865.0902-.1266.2061-.2328.3401-.3115.134-.0788.2832-.1285.4377-.1458.2271-.031-.078.2367-.1291.3358.4689-.2416.909-.5354 1.3118-.8758.186-.1858.3311-.4083.4259-.6535s.1372-.5074.1246-.77c.0243.0084.0423.1069.0483.2045.0229-.1783.0774-.3873-.0432-.3904l.0216.1651c-.1976.1849-.3174-.6709-.4111-.6732.3242.2514.0542-.6777.442-.3006-.0318-.0921-.0859-.2042-.1497-.1836.0085-.13.0397-.1725.1272-.0398-.103-.475-.1848-.2971-.2008-.7164.0417.002.0609.0857.1126.1285-.1226-.2377-.1673-.508-.1277-.7726.0234.0221.0565-.0172.0517.0871-.0707-.5618-.0555-1.131.0453-1.6883.1671.2161.1095-.2131.3043-.2219l.0391-.3493-.1339.1232c.0875-.2986-.0096-.594.1425-.8368l.0267.2378.1355-.5576-.1931.292c-.0378-.3257-.3159-.0274-.1429-.4152.0057.0881.0774-.305.3006-.4084l.0003.0012c-.037-.0864-.0502-.1811-.038-.2743.0121-.0931.0491-.1813.107-.2553.1221-.0174.3216.1593.4024.1484-.2025-.2293.2503-.5947.0579-.8889.0618.0906.1529.1571.2579.1884l-.1627-.2192c.1444-.0663.1932-.0521.319.049.2735-.2504-.5006-.1904-.0309-.4104-.0063.0392.0388.0532.025.1323.3686-.2352.4757-.7004.9155-.7474.2996.3655-.2216.2317.0789.5113.1734-.1313.3336-.3189.54-.4647.0841-.0763.1899-.1244.3026-.1376.1127-.0133.2268.009.3263.0637-.0158-.0283-.0344-.055-.0555-.0796.1183-.3379.2034-.2187.2447-.0429.0488.1765.0375.3986.2368.3346-.0836-.0009-.2915.2923-.2351.2297.1499.2685.6175.3407 1.3028.7119l-.2034.0726c.0808.3335.4499.6261.8169.9587.2157-.0865.3995.0484.4105-.2687.0439.1324.1148.2542.208.358.0932.1037.2069.1872.3338.245.127.0578.2645.0889.404.0911.1394.0023.2779-.0242.4066-.0779.7729-.2944 1.0642-.9013 1.7998-1.0666-.0866.1072-.1194.3969-.0441.3023.1886-.2854.3396-.594.4492-.9181-.2722-.0988-.1925-.0131-.4725.011-.0414-.0906-.0629-.1891-.0629-.2888-.0001-.0996.0212-.1982.0625-.2889-.0005.3729.3924.2389.5913.1768-.0849-.0205-.1445-.111-.2254-.1426.5946-.1079-.4513-.3203.0536-.6095l.1116.0869c.0141-.2011-.0692-.4321.0489-.5941.2903.0515.0391.238.2496.358.0865-.2739-.254-.7379.0905-.8521.0215.1411-.0453.2983-.0218.442.3977-.1149.3295-.1854.443-.3598l-.0129.0165.2692-.403-.1072.0853c-.4457-.5853.1207-.731-.0476-1.3117.1373.5504.1456.1421.3332.2571.09-.0936.1884-.2528.2308-.179-.0148-.0373-.0223-.0772-.022-.1174-.0918-.0986-.1172-.3579-.0283-.757.1208-.544.1838-1.0716.2395-1.427-.0365.0601-.0803.1154-.1303.1647z"/><path d="m22.7628 18.622-.0042-.0165c-.0017.022-.0077.0435-.0176.0633.0062-.0161.0134-.0318.0218-.0468z"/><path d="m26.3286 18.5379c.0343.0084.0704.0044.1021-.0113-.0345-.0051-.0696-.0012-.1021.0113z"/><path d="m27.0785 16.8674.1669-.2053c-.0623.0627-.1182.1315-.1669.2053z"/><path d="m27.5886 15.5727c-.0222-.0237-.0476-.0443-.0755-.061l-.0017.0022z"/><path d="m16.6873 26.9014-.0064.0746c-.0016.1837.0099.0608.0064-.0746z"/><path d="m17.0343 20.3828c.0184.0695.029.1408.0318.2126.0523-.1003.0893-.1765-.0318-.2126z"/><path d="m16.9695 20.8679c.0621-.0775.0962-.1738.0966-.2732-.0542.0817-.0874.1756-.0966.2732z"/><path d="m27.3182 14.0962.2257-.4049c-.0669.0613-.1712.1354-.0802-.0526-.3913.471.1381-.0768-.1455.4575z"/><path d="m26.5676 15.316c.0854-.2283-.1107-.0432-.1494-.0738-.0124.1614-.0087.2043.1494.0738z"/><path d="m19.8651 16.471.0513-.3353c-.2876.0473-.005.1295-.0513.3353z"/><path d="m18.5823 18.5625c.0758.022.1502.0488.2226.0801l-.1089-.2608c-.0385.0631-.0812.1174-.1137.1807z"/><path d="m16.3187 18.1894.0136-.1162c-.0323.1401-.0589.278-.0796.4137z"/><path d="m36.6066 16.8726-.1112-.105c.0274.044.0657.0802.1112.105z"/><path d="m36.1188 26.047c-.0557-.1046-.0978-.1416-.1189-.1407.061.097.1132.1718.1189.1407z"/><path d="m36.9621 28.2213-.0296-.1305c-.0018.0454.0084.0904.0296.1305z"/><path d="m36.6057 16.873.2734.2765c.0857-.1347-.123-.1795-.2734-.2765z"/><path d="m31.6365 13.0711-.0381-.1012c-.0604-.0122-.1219-.0185-.1836-.0187z"/><path d="m29.5828 10.5578c.0405-.0225-.0273-.2754-.0321-.4045-.001.092-.0233.1824-.0652.2643.0268.0504.0595.0975.0973.1402z"/><path d="m33.8014 16.5273c-.0074.0528-.0003.1065.0205.1555.0117-.0526.0045-.1077-.0205-.1555z"/><path d="m36.0228 31.2437h.015c.0831-.0275.0348-.0177-.015 0z"/><path d="m25.7589 32.9945c.0652-.0177.1256-.0496.1769-.0934-.0344-.0047-.0848.0131-.1769.0934z"/><path d="m33.6717 31.1109-.1802-.0777c.0575.0315.1179.0575.1802.0777z"/><path d="m25.9234 36.958c-.0402.0553-.0799.0512-.0743.1257.0139.002.028.0017.0418-.0007-.0244-.0417-.0319-.0697.0325-.125z"/><path d="m27.9727 14.1859c.0867-.0087.1723-.0251.256-.049l.0348-.0696c.1002-.05.2672-.1967.2622-.1448.233-.3524-.0696.0288.0356-.1926.2203-.2262.3492-.5258.362-.8413.028-.3099.0107-.5669.147-.6368-.1381-.1773-.0741.5047-.1928-.0441.3044-.1806-.1321-.6407.0503-1.1019.1721.1469.0617.5549.2452.1217-.0602-.0653-.094-.1506-.0948-.2394-.0007-.0888.0317-.1747.0908-.2409.1036-.1533.2478-.2114.3167-.3292-.0738-.139.0317-.3149.2672-.3816.2706-.04637.5488.0071.783.1504-.0482.0358.1367.2367.3011.5536.1681.3345.2952.6881.3786 1.053l-.0693.0173c.4225-.097.6281.5046.8806.8905-.096.0476-.205.0621-.31.0411-.105-.0209-.2002-.0761-.2705-.1568l.1521.3858c.0948.0241.1827.0699.2569.1336.0741.0638.1325.144.1705.2341l-.3584.0253c.1255.2651.2705.5205.4338.7641.0902.1551.1696.3162.2378.4822.0798.219.1611.4421.2537.6964.1502-.085.2465-.3959.4177-.5636.0379-.045.0846-.0818.1372-.1082s.11-.0418.1687-.0453.1176.005.1729.0249c.0554.02.1061.051.1491.0911-.125.1439-.3378.4128-.5272.272.0639.0503.2604.1056.3065.2658-.1523.0014-.3042-.016-.4523-.0519.1559.4302.3165-.014.506.2165-.1712.2171.0765.3047-.0751.4599-.0958-.0282-.1779-.2749-.3345-.2941.2263.3407.6179.7015.7396.9539.0016-.0479.0136-.095.0354-.1378.0217-.0428.0526-.0803.0904-.1098.0378-.0296.0816-.0505.1284-.0613.0467-.0108.0953-.0112.1422-.0011.6113.1208.1453.3776.4328.5968.1712-.1629.4532.1249.5713-.2818.1555.0465.1306.2445.1566.3736.3243-.1118 1.2547.3796 1.1171-.1561l-.0592-.0546.0511-.0006c1.0761-.0467 1.7182 1.0318 2.5725 1.3881l-.0799.1129c.5516.174.9822.6459 1.4252.7904.0218.0404.0346.085.0377.1307.003.0458-.0038.0917-.02.1346-.0163.0429-.0415.0819-.0741.1142s-.0717.0572-.1148.073c.2342.2417.4376.2958.2724.784-.2487-.2916-.1666.1058-.2046-.2886-.0467.4121-.2167.3421-.0313.8566-.2381-.2422-.4399.0653-.5017.2753.1149-.0303.2277-.0685.3374-.1144-.084.2089-.2275.3885-.4126.5168-.0597-.1241-.1275-.2472-.1989-.3663-.4253.1355-.606.5257-.9554.9135-.1451.2035-.3373.3688-.5602.4819-.2229.113-.4699.1703-.7198.167-.1803.3718.6633-.2174.5286.1834-.5126.2132-1.2563.2135-1.4373.3912-.1616.0979-.2969.2338-.3941.3959-.0972.162-.1535.3453-.1639.5339-.0202.376-.0152.7528.0148 1.1281.0804-.1615.254-.2136.4941.3463.1696.5324.0159.7721-.2303.4704-.0731-.1279-.0797-.2045-.0513-.2085-.1103-.1683-.2369-.4441-.2325-.1615l.1097.0562c.0413.3554.4838 1.0079.2762.904.2803.3144.1984.1016.0679-.1859.2886.4997.5269 1.0268.7115 1.5735-.0052-.1098.0295-.2255.0631-.1219.2068.9855.2328.4036.3703 1.0886-.0481.3997-.1824-.1263-.0853.5597-.0561.4182-.1247.0827-.1742-.0765.049.2199.0467.4482-.0066.6671s-.1562.4226-.3008.5954c.0319-.0724.0561-.148.0721-.2256-.0232.1204-.0824.2308-.1698.3168.0556-.0099.1101-.0249.1629-.0449-.0991.1056-.1874.1873-.215.152-.0775.1414.2184.0443.0038.3102-.1934.0941-.6499.2965-.7603.1473.6662-.0592.037-.1043.3667-.2178-.0951.0333-.1957.0476-.2963.0421-.0276-.0146.0192-.0292.0596-.0423-.6631-.122-.2821.197-1.0489.0896.1066-.0721-.1545-.2115-.2809-.2339.3047.0893.1289.197-.1778.2013-.4925-.2183-.5609-.1013-.8435-.1888l.308.1334c-.125.0785-.3949-.0118-.7767-.0656-.0054-.0387.0432-.0463.0992-.0429-.4121.0065-.838-.4978-1.4018-.4631-.2654-.1602.0073-.2916-.2307-.4195-.7096.0684-.6965-.4078-1.4958-.3334.2234.2813.258.2008-.29.4127.4094-.0365.8209-.0424 1.2312-.0178-.2655.0636-.5272.1419-.784.2345.3237-.0161.6481-.008.9706.0242-.372.1225-.3286.0811-.1778.2875-.4559-.4135-.9531.0941-1.5393-.1313l-.0267-.6411c-1.0332-.2801-2.0337.5507-2.9293 1.6787.1205-.1111.2481-.2142.3821-.3086.0819.3112-.4792.7389-.5 1.1926-.2125-.1213-.3873.106-.5748.251.1522.0233-.2041.9594.2811 1.1077l-.3356.4988c-.135.899.6753 1.0097.5308 1.796-.2218-.252-.3944.0649-.5479-.4374-.0063.2478-.064.4434.0866.4689-.1326.0967.1917.731-.0602.7465.0484.0821.2155.2198.0962.357-.0089.0095-.0189.0178-.0297.0249-.0321-.0146-.0577-.0405-.0718-.0727.0958.0798-.2087.2718.1068.361l-1.3228-.2209c-.4849-.0666-.9361-.2858-1.288-.6261-.5684-.183-1.2789-.4485-1.8403-.582.012-.005.0233-.0118.0334-.02-.086-.0225-.1802-.0327-.2745-.0475l-.1275-.019c-.2968.0734-.6022.1053-.9077.0949-.4171.0057.3018-.1083.2249-.1001-.259.0351-.5114.1085-.7489.2178l.1621-.0415c.5012-.1283.9985.0618.9526.1628-.0126.0379-.0794.0457-.1796.0543.3996.1406.7698.3536 1.0922.6283.723.3283 1.4258.6993 2.1047 1.1112.3277.1711.5789.2858.7823.37.2399.0575.4844.0938.7306.1082.274.0222.5496.0092.8202-.0388.3119-.0434.6047-.1757.8435-.381.2769-.1634.5082-.3939.6727-.6701.2047-.3251.3743-.6711.5058-1.0321-.0163-.0155-.0362-.0265-.058-.0321s-.0446-.0056-.0663.0001c.6814-.867-.0122-1.6716.2568-2.1056l-.0166-.1935c-.0167-.136-.0039-.2739.0374-.4045.0412-.1305.1101-.2507.2019-.3524.0497-.718.065-1.0702.7208-1.3875.0114.4835-.6757.4182-.2477.8341.0033-.14.0439-.2766.1175-.3958s.1776-.2166.3014-.2822c.3934-.2347.8534-.3325 1.3082-.2781.2943.0454-.1858.1965-.2835.2832 1.0988-.1435 2.2083-.1868 3.3149-.1293-.0066.0252-.1379.0391-.2478.0515.2112.011.5013.087.4985-.0341l-.2211.0098c-.3064-.2269.937-.25.9827-.3331-.424.3063 1.1123.1178.4841.473.157-.022.3571-.0882.3177-.1486.2301-.0009.3149.0183.0751.1253.2458-.0309.483-.1103.6979-.2335.1189-.076.2393-.1155.5943-.3405.0219.0392-.1137.1482-.175.23.4145-.3284.7325-.7628.9202-1.2572.008.0465.0692-.0183-.0081.1755.1655-.4789.2134-.9907.1394-1.492-.0429-.4601-.1195-.9178-.1988-1.4868.2705.2844-.0146-.4003.1371-.5165-.0683-.2015-.1467-.3994-.235-.5929l-.01.2772c-.156-.5346-.5329-.9033-.617-1.3139l.2268.2966c-.1319-.2552-.2399-.522-.3227-.797-.0026.1631.0138.3259.0491.4851-.2727-.4001-.2947.1749-.4091-.4604.0371.1291-.0911-.5025.1936-.6054l.0003.0014c-.0189-.1249.0074-.2525.074-.3598s.1693-.1874.2896-.2259c.1328.0362.1667.3237.2542.3482-.0223-.3409.9106-.5474 1.057-.9605-.0206.054-.0248.1129-.0122.1693.0127.0564.0417.1079.0833.1479l.0782-.3153c.2555-.0198.309.0036.3441.1669.7044-.2509-.4413-.3469.4613-.5253-.0529.0505-.0025.0729-.1164.1732.8644-.3763 1.6027-.9926 2.1275-1.7757.5811-.0029-.4282.7814.0804.7293.2606-.3376.4449-.7277.5402-1.1433.0953-.4157.0992-.8471.0116-1.2645-.2064-.7206-.5651-1.3885-1.0518-1.9587.0399.0726.0776.1474.1127.2246-.3318.1503-.4015-.068-.5098-.3719-.1052-.2978-.2609-.6798-.6123-.725.1512.0467.405-.2042.3217-.1651-.7766-.6154-1.7113-.9989-2.6963-1.1062l.2176-.1191c-.4897-.3439-1.0269-.6146-1.5947-.8036-.2056.143-.4767.037-.3841.3584-.2549-.3249-.6166-.5491-1.021-.6328-.3267-.0718-.424-.0207-.6508-.0879-.1032-.0298-.1992-.0806-.2818-.1493s-.1501-.1537-.1983-.2498c-.1368-.3007-.1701-.6383-.0949-.96.0628.1586.2843.31.2408.1929-.1886-.3465-.3959-.7022-.6106-1.0368-.2262.1948-.0938.2074-.2104.5145-.2559-.1126-.4613-.3155-.5769-.5701.3812.3896.4206-.1859.4506-.4572-.06.07-.1802.0405-.2498.0944.1563-.7499-.5315.1484-.6283-.7086l.1428-.0289c-.2508-.1951-.4756-.4216-.6687-.6738.1494-.2839.3075.1958.5209.0944-.3269-.4359-.9807-.4393-1.1851-.88835.2375.09682.462.22283.6683.37515-.1299-.5855-.2547-.59084-.6586-.84284l.0394.0275c-.3126-.22468-.6965-.32756-1.0795-.28934.0976.00541.1946.01885.2901.04019-.3489.23767-.6746.50772-.9727.80656-.1457.15763-.2491.34963-.3003.55803-.0513.2085-.0489.4265.0071.6337-.1078-.4271-.1157-.5459-.1702-.473-.0439.06-.102.2456-.2031.181-.0979.2985-.1239.6156-.1904.5255.0286.0592.0511.1213.0672.1851.2229.3251.3519.7053.3728 1.0989.1611.7813-.3481 1.6215-.9584 1.5564.1039.0327.2111.0534.3196.0618z"/><path d="m36.4755 16.7511.02.0176c-.0151-.0219-.0247-.047-.0281-.0734.0045.0183.0072.037.0081.0558z"/><path d="m32.8095 11.8538c.0267-.0342.0394-.0772.0358-.1204-.0228.0361-.0352.0777-.0358.1204z"/><path d="m30.751 9.27388c-.1688-.11707-.3555-.20594-.5528-.26314.1931.06768.3785.1559.5528.26314z"/><path d="m28.2877 10.668c.0162.0364.042.0678.0747.0908l.0023-.0062z"/><path d="m33.567 32.3271-.0848.0007c-.2023.0196-.067.015.0848-.0007z"/><path d="m36.6871 24.792c.0058.0807.031.1535.041.2266.0325-.1172.0772-.1788-.041-.2266z"/><path d="m36.742 25.371c.0107-.1176.006-.2361-.0139-.3524-.0377.1153-.0328.2404.0139.3524z"/><path d="m29.0819 12.9219c-.0499.2709-.1608.527-.3243.7488.104-.0991.2721-.2402.0566.0853.3629-.4206.275-.4197.2283-.3721-.0778.0297-.0737.0646.0394-.462z"/><path d="m29.304 10.8082c-.0299.2391.1041.0437.1387.0903-.0244-.1433-.0137-.217-.1387-.0903z"/><path d="m40.1591 19.6084-.3147.126c.1288.1387.1228-.0513.3147-.126z"/><path d="m40.6075 22.799c.1396-.0291.2777-.0652.4137-.1081l-.0706-.3208c-.1055.1499-.22.2931-.3431.4289z"/><path d="m37.9227 22.0917.0972-.1044-.4079.3563z"/></g></svg>