<svg alt="projector" fill="none" height="54" viewBox="0 0 54 54" width="54" xmlns="http://www.w3.org/2000/svg" xmlns:xlink="http://www.w3.org/1999/xlink"><clipPath id="a"><path d="m9 10h36.0821v39.4371h-36.0821z"/></clipPath><g clip-path="url(#a)" fill="#8a2432"><path d="m32.7815 45.2764-.0258.0523c.0138-.0144.0228-.0327.0258-.0523z"/><path d="m31.525 43.1784c.0204.0089.0608-.0124.0934-.0368-.0346.0004-.0678.0135-.0934.0368z"/><path d="m31.6294 42.5251-.0064.039c.0249-.0334.0358-.0554.0064-.039z"/><path d="m32.7812 45.2773.0701-.1367c-.1155.0883-.0643.0931-.0701.1367z"/><path d="m33.694 45.7052.0123.0101.1264-.1303z"/><path d="m34.229 45.9872c-.0031-.0206-.18.3146-.2617.4587.04-.0776.0892-.15.1466-.2157z"/><path d="m33.4019 45.3129.0953-.0981z"/><path d="m31.4503 41.58-.0027.0074c.0451-.0123.0315-.0163.0027-.0074z"/><path d="m29.9203 40.3867c-.0345.0438-.0665.0895-.096.1368.0358-.0429.0679-.0886.096-.1368z"/><path d="m30.5589 41.75.013-.0605c-.0155.0341-.0165.0504-.013.0605z"/><path d="m29.0177 40.3193c.004-.0345.0324-.0795-.0201-.0559l-.0234.0411c.0401-.0346.0654-.0458.0435.0148z"/><path d="m34.5979 46.8871.0018-.2305-.0527.2425c-.0145-.018-.0413-.0546-.0027-.2149-.117.2647-.0243.1778-.1157.4312.0024-.3742-.2908.1023-.1132-.527-.1261.2886.0041.2538-.1508.4339.2025-.6747-.1435.0833-.104-.2545.1599-.3279.1413-.1256.2024-.4531-.273.5506-.0636-.1699-.1492-.0848-.2219.4354-.203.1252-.371.2143.0905-.1415-.0158-.3261.0262-.5239l.0514-.0643c-.3096.3859-.3336.2517-.4547.2845.113-.1449.2433-.2755.388-.3888l-.0475-.0359c-.0657.0812-.1529.1423-.2517.1763l.2554-.2683c-.0694-.0328-.4213.2104-.3291-.0493-.2525.2362-.6015.7584-.8673.8196.128-.1474.2727-.2792.4313-.3929-.0252.0097-.1392.0804-.0991.0079l.2608-.1839c.0593-.1354-.2072.1643-.2189.1115.1917-.185.1132-.1553.2703-.2974.0258-.0102-.0526.1027.0337.0413.0334-.1408.1064-.2692.2103-.3699-.1078.1066-.2614.2456-.3111.2427-.0764-.0544.2149-.2397.2824-.3689-.152.1084-.046-.0594-.3462.2013-.0161-.0222.1208-.148.1955-.2263-.1625.0796-.1793-.1338-.4708.1774l-.0133.0275-.0186.005c-.4129.1213-.0378-.4061-.2693-.4307l.1066-.0803c-.1809.015-.2023-.1213-.4758-.0093-.0173-.0243.1554-.1993.2913-.2825-.1256-.0019-.2522.0773-.1381-.1405.2334-.0733.1517-.1415.1839-.0355.0354-.1479.1968-.2891-.162-.1644.2992-.1681.306-.3113.1951-.291l-.1577.1992c-.0718-.015-.0744-.0709-.0785-.1267l.3805-.2396c.3216-.4889-.9717.2371-.334-.436-.287.1397-.107.2268-.4342.402-.0089-.1139.4448-.584.4259-.6116.1128-.2636-.6013.2934-.5533.0769-.1725.182-.387.3188-.6247.3987-.0113-.1119.4522-.5108.593-.5409.0253.0107-.0077.0514-.0509.084.0521-.0054.1022-.0223.1469-.0495.0446-.0273.0826-.0641.1112-.1079l-.134.0883c.0987-.1408-.0034-.239.2226-.3773-.061.0093-.1178.0366-.1632.0783-.0455.0417-.0775.096-.0919.1559.0991-.2462-.1214-.1624-.0861-.3647-.054.0727-.1868.2071-.1991.1901.0271-.2758-.2886.1287-.4254.0752.1387-.2142.4616-.3565.2204-.3252.1037-.1589.2547-.2811.4317-.3495-.3138.107.0005-.3079-.0055-.4012l.141-.0352c-.0841.0205-.1038-.0054-.1254-.0309l-.2147.2408c.0004-.0354.0093-.0702.0259-.1015.0166-.0312.0406-.058.0697-.0781-.2038.1827-.4184.3531-.6425.5104.0875-.1463-.2309.0062.0712-.2931.0005.1974.2572-.2199.4092-.2439-.0259-.0055-.0341-.0312-.0231-.0793.0252-.0292.0576-.0512.094-.0638.1739-.3722-.4032.2714-.5025.1487.1889-.1483.307-.3378.251-.3218.0416.0506-.2706.2951-.4439.3793.0658-.201-.176.0167-.1961-.0358l-.0222.1035c-.187.1509-.1983.0939-.2997.097.0278-.033.0627-.0593.1021-.0768-.1803.0763.2398-.46-.0127-.3491.0794-.1499.3153-.3211.3613-.4307-.3061.1333.1355-.3298-.1394-.2376-.0944.1669-.243.2966-.4212.3676l.3091-.0153-.4235.2403c.0418.0459.2361-.0522.2242.0135-.1401.0632-.2572.1682-.3352.3007.2791-.405-.3156.0857-.1576-.2155l.5538-.573c.134-.3654-.4767.1114-.4832-.1667l-.0473.1446c-.233.2162-.1172-.0489-.2504.005.1209-.1308.2242-.2768.3072-.4344-.1287.15-.0972-.11-.4608.2785l.1651-.3219c-.0278-.2135-.6303.4601-.6827.2968.2201-.1931.2886-.3824.4997-.4751-.0372-.035-.0412-.1021-.1598.0391.0836-.1484-.3364.188-.2115-.0364-.0905.0772-.2718.2894-.3006.2375.0249-.0361.0525-.0702.0828-.1021-.0831.1019-.1795.085-.3269.3449.4001-.7463-.3644-.2101-.0375-.8569-.1311.0117-.2631-.0035-.3881-.0447l.0518-.0642c-.0178.0002-.0355-.0024-.0525-.0077l-.0227-.0058c-.1481.138-.4009.4811-.3751.2644.1674-.3621.1961-.1869.2409-.2741-.0939.0143-.181.0575-.2493.1236l-.0239.0853c-.0913.3189-.2349.6205-.4249.8924-.0747.1034-.1569.2014-.2457.293-.0151.1605-.0288.3066-.0402.4254.2231-.1529.4096-.196.4928-.0299.0247.0479.0359.1015.0323.1553.0748-.0098.1203.0328.1102.1268-.0084.0816-.0843.393-.1129.6206l.1012-.1188c-.3065.5417.3105-.0103.2006.2437l.0516-.0066c.0894-.0107.0945.0764.05.1937.2194-.0473.4451-.0571.6678-.029-.4223.4359-.2053-.1087-.6327.3661.3058-.061.7472-.3577.7835-.1193-.0238.0944-.2048.1682-.2893.2317.3109-.0445.2177.2944.5722.1878-.043.0369-.0917.0666-.1442.0879.0373.0105-.0116.1174.1868-.0759l-.0771.0282c.2592-.243.5495-.4505.8633-.6172-.6188.4982-.0277.2647-.8254.8768.1126-.0532.2145-.1266.3006-.2166-.0171.0609-.09.1412-.2672.2593.1912-.0141.3809-.2429.4506-.1571-.1.0891-.1533.1072-.278.2044.2304-.1344.4634-.2644.4407-.119-.0643.049-.1362.1264-.153.1043.1347.0899.7073-.2449.6315.0558-.4819.3318-.1083.1686-.4923.496l.1746-.0228.1659-.1837c.0448.0693.3782-.1021.2948.0572l-.2015.0809.1716.0631.0955-.1884c.2569-.0929.4949-.4023.4552-.2242-.0552.013.0489.0734-.1594.2894l-.0012.0006c.1528-.0642.3155-.1313.2539-.0045-.1191.1101-.453.3245-.5321.3974.361-.2197.2094.0871.6029-.1351-.1227.0706-.2397.1507-.35.2395l.2973-.1735c-.0721.1042-.1677.1899-.2791.2503.0199.1353.4956-.4055.3566-.1267-.0398.0205-.0811.038-.1235.0523-.0325.2006.3408.1029.283.3121-.3894.327-.1701-.0248-.4915.2609.1888.1063.7327-.0183.7524.2091l.0236-.0627c.5927-.4023-.2002.3275.1337.208-.0956.0467-.1859.1037-.2693.1698-.0079.1804.3131.1228.6199.1442l-.1592.0952c-.0776.1681.0677.2307.064.3555.157-.0986.1677-.04.3492-.2393-.5806.9245.7568-.001.3395.7934-.0254-.0197-.1671.0665-.1481.0848l.288.0283c.0901-.1161.1654-.2429.2242-.3776.1423-.1216.2759-.1923.3143-.1618-.1863.1363-.3237.3291-.3918.5497.054-.079.1321-.1517.19-.2298-.2513.507.4023-.4816.2897-.0966l-.1039.1266c.0952-.0305.2616-.1792.2836-.1095-.1813.3124-.1447.1061-.3191.3464.0962.039.5207-.4747.3919-.1295-.0829.0658-.1288.0378-.2152.1004-.1542.405-.0829.3242-.0574.4187l-.0015-.0118.0594.2513.0155-.1224c.5479-.7694.3069-.0296.699-.5355-.3609.48-.1558.3003-.3226.6731.0152.1243 0 .2503-.0443.3674.0184-.0286.0428-.0529.0714-.0712.1022-.1987.2519-.3599.3926-.3263.1063.0207.2164.0085.3156-.035s.1828-.1162.2396-.2085z"/><path d="m32.7512 45.3377.0039-.0086-.0354.0405z"/><path d="m32.6798 47.1064c-.0193.0271-.035.0566-.0464.0878.0182-.0277.0337-.0571.0464-.0878z"/><path d="m33.139 47.5332.0144.1621c.0037-.0545-.0012-.1091-.0144-.1621z"/><path d="m33.5153 47.9322.0735-.1455v-.0025z"/><path d="m28.7459 43.5258c-.0073-.0009-.0148-.0002-.0219.0021-.0753.0285-.0394.0238.0219-.0021z"/><path d="m30.5215 44.2373c-.0572.0256-.116.0473-.176.0652-.0043.0421.0042.0654.176-.0652z"/><path d="m30.3018 44.2335c-.0414.0716-.0126.0817.0443.0681.0047-.0357.0172-.0836-.0443-.0681z"/><path d="m34.4353 46.498c.0214.0456.0461.0895.074.1315.0127-.1466.0402-.3413.0867-.3689-.0056-.4466-.0506.3299-.1607.2374z"/><path d="m34.2257 46.1957c.0725-.0435.0849-.1951.1226-.2689-.0687.0741-.1117.1684-.1226.2689z"/><path d="m32.4644 44.4658.2835-.1971c-.0705-.0124-.1087.0782-.2835.1971z"/><path d="m30.6923 45.0557-.144.1667.2724-.1631z"/><path d="m32.4978 43.3521.054-.0084-.1584-.0048z"/><path d="m19.8014 46.7858-.0579-.0192c.0166.0128.037.0196.0579.0192z"/><path d="m22.0461 45.166c-.01.0214.0113.0619.0358.0944.0007-.0349-.0121-.0687-.0358-.0944z"/><path d="m22.7157 45.2638-.0396-.007c.0331.0257.0549.0371.0396.007z"/><path d="m19.8009 46.7861.1498.0521c-.0955-.1099-.1013-.0532-.1498-.0521z"/><path d="m19.1822 47.8906-.0152.0163.1158.141z"/><path d="m18.5879 48.6038c-.1097-.1386-.2298-.2686-.3593-.389.0651.0603.1184.1321.1573.2118z"/><path d="m19.7117 47.4834.1009.0923c-.0318-.0328-.0655-.0636-.1009-.0923z"/><path d="m23.6793 45.1442-.0071-.0036c.0076.0458.013.0329.0071.0036z"/><path d="m25.1357 43.8587c-.0336-.0451-.0697-.0883-.1082-.1292.0324.046.0686.0892.1082.1292z"/><path d="m23.6305 44.2312.0593.0203c-.032-.0199-.0485-.0228-.0593-.0203z"/><path d="m25.4838 42.9998c.0323.0142.0657.0555.0616-.0028l-.0315-.0351c.0191.0496.0211.0775-.0301.0379z"/><path d="m17.4119 48.7756.2011.1156-.1766-.1745c.0253-.0059.0765-.0164.1939.0995-.1567-.247-.1424-.1098-.3093-.3219.3472.1757.0613-.3287.5609.0971-.2059-.2387-.244-.0904-.3309-.3187.541.4546-.0039-.1761.2979-.0254.2469.2686.0472.2025.3477.3548-.4126-.4598.2227-.0388.1893-.1752-.3542-.3386-.0319-.2637-.0597-.472.1131.1195.3647.0071.5774.0462l.0563.0601c-.3377-.3631-.1821-.3877-.1903-.5251.1391.1223.2541.2693.3394.4337l.0581-.0623c-.0766-.0766-.1258-.1764-.14-.2839l.2469.2768c.064-.0949-.1463-.4721.1332-.3976-.2352-.2532-.7596-.6033-.8067-.8792.1484.1272.2784.2743.3864.4371-.0077-.027-.0738-.1446.0014-.1065l.1746.2684c.1448.0517-.1582-.2123-.0989-.2291.1853.1915.1614.1083.3032.2652.0082.028-.1103-.0461-.0521.043.1485.0162.2877.0804.3965.1828-.1091-.1052-.2495-.2577-.2417-.3134.0685-.0938.2504.2034.3926.2563-.1084-.1528.0758-.0645-.1977-.3541.0253-.0219.158.1085.2416.1779-.078-.1672.1662-.2235-.1724-.4869l-.0303-.01-.0048-.0193c-.1261-.4224.4485-.1126.4763-.366l.0895.099c-.0164-.1896.1303-.2373.0013-.5065.0261-.0227.2217.1279.3162.2565-.001-.1332-.0923-.2529.1476-.1719.0872.2331.1581.1345.0449.1879.1604.0099.3205.1565.1737-.1984.1923.2846.3458.2698.3196.1576l-.2194-.1333c.0135-.0772.0737-.0888.1333-.1018l.27.3598c.5239.2685-.2826-.9812.4395-.3899-.1529-.2808-.2375-.0907-.4301-.4079.1223-.0221.6165.4055.6423.386.2679.1018-.3103-.5946-.0845-.5592-.1152-.1125-.3988-.4333-.4015-.6232.1228-.0216.5226.4431.55.585-.0116.0264-.0531-.0059-.0859-.0488.0042.0524.0207.1031.0483.1479.0275.0447.0652.0824.1101.1098l-.0893-.1335c.1435.0948.2469-.0084.3832.2183-.0081-.0614-.035-.1189-.0769-.1645-.042-.0457-.097-.0773-.1575-.0907.2505.0979.171-.1262.3767-.0899-.0715-.0559-.2033-.1915-.1848-.204.2833.0293-.1152-.2967-.0457-.4377.2124.1455.332.4796.3199.2324.154.1113.2677.2696.3242.451-.0859-.3219.3106.0197.4009.0225l.025.1429c-.0148-.0851.0123-.1027.0388-.1219l-.2219-.2336c.0353.0029.0693.0144.099.0335.0298.0191.0544.0453.0717.0761-.165-.2188-.3154-.4483-.4502-.687.1385.0984.0257-.2366.2926.095-.2024-.0178.1915.2787.1983.4323.0082-.0252.0351-.0305.082-.0143.0263.028.0448.0625.0536.0999.3504.2153-.2269-.429-.0886-.5169.1242.2058.2974.3455.2886.2888-.0553.0341-.2601-.3049-.3184-.4893.1941.0897.0116-.1796.0693-.1945l-.1022-.0341c-.1223-.2072-.0608-.213-.0444-.3179.0288.0324.0492.0713.0596.1134-.0429-.1967.4253.3029.3618.0341.1361.1028.2621.3658.3627.4299-.0737-.3268.2985.1924.2607-.0937-.1464-.1247-.2438-.2973-.2749-.4871l-.0518.3116-.1497-.4657c-.0579.0345-.0009.2467-.0648.2245-.0328-.1509-.1147-.2866-.2328-.3859.35.345-.009-.3359.2634-.128l.4463.6603c.3267.2049.0029-.4936.2853-.4415l-.1314-.079c-.1518-.279.0816-.1069.0665-.2511.096.1502.2112.2872.3427.4075-.1106-.1635.1333-.0673-.139-.5233l.2675.246c.2159.0333-.2481-.7411-.0624-.7514.1132.271.2747.3921.2952.6242.0463-.026.1122-.0102.0149-.1669.1143.1249-.0653-.3836.1099-.1951-.0426-.1114-.1828-.3523-.1194-.3649.026.0354.049.0729.0687.1121-.069-.112-.0126-.2015-.2122-.4253.5748.6238.3689-.294.8576.2453.0471-.1304.121-.2495.2171-.3495l.037.0737c.0082-.0169.0189-.0325.0318-.0462l.0161-.0191c-.0615-.1933-.2648-.568-.0687-.4598.2609.3022.0807.2604.1418.3371.0316-.0925.0336-.1925.0057-.2862l-.0688-.0566c-.2584-.2102-.478-.4639-.6488-.7498-.0628-.1115-.1151-.2287-.1563-.3499l-.4238-.1818c.0269.2813-.0338.4788-.2542.5206-.0612.0127-.1246.0096-.1843-.0089-.0061.0194-.0164.0372-.0302.0522-.0137.015-.0305.0268-.0493.0346-.0187.0079-.039.0115-.0593.0108-.0203-.0008-.0402-.006-.0583-.0152-.0836-.0296-.3871-.186-.6312-.2589.0238.0464.0508.091.081.1335-.4556-.4348-.1487.34-.3796.1743l-.0176.0575c-.0316.0988-.132.0915-.2466.0266-.0517.256-.1375.5038-.2551.7369-.3329-.5092.2088-.2111-.1551-.7361-.0741.3483.1026.8613-.1832.8813-.1003-.032-.1204-.238-.1613-.3359-.0631.3489-.4335.2312-.4204.6332-.0305-.0492-.0502-.1044-.0579-.1618-.0242.0418-.1353-.0127.0306.2092l-.0092-.0861c.29.2858.3503.7817.4697.9571-.4063-.6846-.2924-.0344-.7882-.9119.029.1225.0873.2362.1698.3312-.0662-.0183-.1413-.0973-.2305-.2926-.0385.2143.1809.4166.0643.497-.0795-.108-.0876-.1667-.1696-.302.0976.2531.1973.5056.0343.4868-.0428-.0688-.1172-.1444-.0873-.1644-.1406.1581.1418.762-.1869.6995-.305-.5007-.1773-.1043-.4967-.4939l-.0032.1938.1892.1622c-.0889.0591.0657.4045-.1078.3312l-.0674-.2111-.0962.1976.2071.0799c.0786.2686.4064.4912.2103.4673-.0107-.0578-.0851.0592-.3136-.1363l-.0005-.0012c.0609.1576.1269.3217-.0115.2739-.1174-.1118-.3402-.4415-.4181-.5158.2272.3582-.1173.2474.1195.6335-.0755-.1199-.1622-.2323-.2591-.3357l.1859.2903c-.1144-.0576-.2101-.1463-.2762-.256-.1534.0456.4456.4597.136.36-.0074-.03-.0456-.0651-.0572-.1231-.2256.0043-.1147.3843-.3454.3604-.3674-.3526.0257-.1855-.2946-.4741-.1201.2218.0348.7729-.2093.8329l.0683.014c.4542.5537-.3599-.1527-.2191.174-.0533-.0922-.1176-.1776-.1915-.2543-.1931.0168-.1149.3433-.1304.665l-.1043-.154c-.1781-.0583-.239.0936-.3682.0996.105.153.0437.1692.2528.3399-.9423-.5436-.0185.798-.8176.3633.0209-.0242-.0598-.1684-.0784-.1509l-.0406.2824c.1077.0997.229.1837.3602.2494.1107.1509.1681.2967.1293.336-.0762-.2169-.3561-.352-.5113-.4424.0732.0618.1377.1466.2094.2122-.4783-.3051.4332.4539.0547.3057l-.1113-.1207c.0176.1013.1343.2912.0555.3043-.278-.2317-.0762-.1623-.2862-.3721-.0505.0796.3676.6037.0517.4139-.0461-.0974-.0091-.1389-.0543-.2363-.367-.2283-.2972-.1456-.3919-.1432l.0116.0018-.2465-.0187.1108.0502c.604.7294-.0366.2882.3083.8198-.3245-.5051-.2299-.2478-.5212-.534-.1182-.0357-.2269-.0977-.3176-.1815.0207.0261.0362.0559.0458.0879.1524.1667.2494.3593.1661.4633-.0588.0853-.0941.1846-.1023.2879-.0082.1032.0109.2068.0555.3003z"/><path d="m19.7335 46.7632.0094.0028-.044-.0316z"/><path d="m17.8669 46.7687c-.025-.0221-.0527-.0408-.0824-.0558.0257.0211.0533.0398.0824.0558z"/><path d="m17.3939 47.132-.1554-.0324c.0497.0191.1022.0301.1554.0324z"/><path d="m16.9438 47.334.1141.1184.0023.0009z"/><path d="m22.1288 42.1859c.0046-.0073.0063-.0161.0046-.0246-.0091-.0851-.0153-.0445-.0046.0246z"/><path d="m20.9469 44.2006c-.0248-.0593-.0447-.1205-.0595-.183-.0477.0017-.0754.0147.0595.183z"/><path d="m20.9704 43.9601c-.0781-.0357-.0934-.0031-.0829.0576.0403-.0005.0944.0076.0829-.0576z"/><path d="m17.888 48.7666-.1805.0351c.1263.079.2948.1864.2764.259.4478.1572-.2688-.1914-.0959-.2941z"/><path d="m18.3515 48.5762c-.0041.1033.1563.1444.2138.2039-.0637-.1268-.0796-.1587-.2138-.2039z"/><path d="m20.6956 46.2959.2229.2636c.0117-.0771-.0882-.1005-.2229-.2636z"/><path d="m20.0099 44.5298-.1859-.1236.1823.2604z"/><path d="m21.8816 46.1649.012.054-.0036-.1584z"/><path d="m26.3361 34.8042.0539-.0171c-.0192.0008-.0378.0067-.0539.0171z"/><path d="m26.0397 36.6091c-.0102-.0142-.0549-.0213-.0957-.0232.0292.0163.0623.0243.0957.0232z"/><path d="m25.5377 36.9049.0303-.0172c-.0407.0058-.0633.012-.0303.0172z"/><path d="m26.336 34.8047-.1415.0435c.1452.0085.1086-.021.1415-.0435z"/><path d="m25.9973 33.9919-.0003-.0148-.1808-.0191z"/><path d="m25.9468 33.376c.1748.024.3508.039.5272.0451-.0876-.0028-.1745-.0164-.2588-.0406z"/><path d="m25.9027 34.4287-.1355.0007z"/><path d="m25.0348 37.4591.0072-.0023c-.0411-.0154-.034-.0071-.0072.0023z"/><path d="m25.2261 38.7726.1663-.0099c-.0556.0001-.1111.0034-.1663.0099z"/><path d="m25.7941 37.8125-.0519.0231c.0351-.0088.0473-.0164.0519-.0231z"/><path d="m25.747 39.2891c-.0295.0126-.0825.0161-.0316.0351l.0467-.0046c-.0519-.0075-.0763-.0166-.0151-.0305z"/><path d="m26.7135 32.8031-.2273.0216.2477.0183c-.0153.0132-.0469.0391-.2114.0272.2803.063.1794-.0012.4445.0396-.3768.0506.17.1897-.4859.1777.3119.0366.243-.0535.4586.0262-.7059-.0088.1184.0867-.2068.1339-.3635-.0333-.1692-.0829-.4956-.0355.614.0615-.1384.1126-.022.1685.4897.022.2011.1193.3619.2115-.1648-.0119-.2739.1508-.4533.2238l-.0821-.0055c.4945.0345.3988.1132.4994.177-.1836.0007-.3665-.0216-.5445-.0664l.0005.0565c.1038.003.2055.0299.2971.0788l-.3696-.0282c.0182.076.4313.1675.1815.2549.3983-.0267.7985-.0035 1.1911.069-.1947.0039-.3894-.0097-.5817-.0405.0244.0096.1542.0369.0739.0515l-.3128-.0522c-.1393.0388.2617.0326.2314.0666-.2662-.0105-.1907.019-.4019.0063-.0255-.0099.1107-.0266.0067-.0439-.1279.061-.2683.0914-.41.0886.1322-.0071.2646.0075.3922.0432.0172.0757-.3211.0141-.4593.053.1845.0248-.0085.0658.3894.0813-.0972.0217-.1969.0297-.2963.024.1745.0451.0448.1832.4695.1543l.0282-.009.0172.007c.3921.1408-.2331.2563-.0661.3884l-.1333-.0047c.1498.0805.0851.1707.3699.2339-.1311.0362-.268.0464-.403.0299.0984.0609.2478.0722.0258.1482-.2307-.0654-.2064.0134-.1686-.0648-.117.0711-.3308.0814.0309.1734-.3402-.0383-.4313.0428-.3302.0817l.2456-.0448c.0484.0415.0171.0755-.0129.1102l-.448-.0332c-.5504.1369.9207.3051.0036.3942.3127.05.2234-.0767.5894-.0294-.2333.0648-.4707.1133-.7106.1452-.2515.0895.6528.1094.48.2056.2478-.0205.4972.0037.7364.0715-.2623.0658-.5358.0724-.801.0193-.013-.0173.0383-.024.0923-.0218-.0937-.0431-.1988-.0548-.2996-.0334l.1598.0138c-.1644.0303-.15.128-.4117.0978.0549.0232.114.0345.1736.0333s.1182-.0149.1722-.0402c-.2345.084-.0108.1413-.1695.2302.0909-.0154.1835-.0175.275-.0061-.2022.1312.3019.0685.3694.1629-.2455.046-.582-.0346-.3802.0641-.1846.0319-.374.0232-.5549-.0254.3062.0933-.2074.1537-.2654.2009l-.1278-.0482c.076.0288.0731.0507.0717.0732l.3208-.0173c-.0565.0374-.1247.0527-.1917.0431.209.0326.533-.0069.8183.0542-.1637.0309.1714.1111-.2536.1124.1359-.0984-.3379-.016-.4644-.0771.0151.0151.0032.0315-.0381.0495-.0379.0023-.0758-.0024-.112-.0137-.3827.0961.479.0607.4661.1698-.239-.0199-.4548.0141-.4043.0332.1943-.0303.3928-.0188.5823.0338-.1885.0655.1365.0795.1137.1157l.0887-.0398c.239.02.2068.0543.2808.1048-.0427.0022-.0855-.0026-.1266-.0143.1821.0558-.496.1022-.241.1768-.163.0313-.4499-.0071-.5608.0211.3081.0921-.3307.0845-.0766.1796.1862-.0294.3768-.0139.5558.0452l-.2222-.1517.4652.1047c.0058-.044-.1995-.0978-.1441-.123.1457.0426.299.0526.449.0293-.4845.0494.2778.1261-.0503.1885l-.7965-.02c-.3584.0974.4033.1959.199.328l.1397-.0409c.3159.025.0416.0852.1687.132-.1772-.0053-.3546.0052-.53.0314.1976.0018-.0211.0996.5106.1229l-.3525.0538c-.1469.1074.7551.1408.6615.2447-.2297.0003-.4588-.0225-.6839-.068-.0036.0353-.0533.0662.1311.0703-.1672.0175.3562.1049.1022.1326.1166.0171.3955.0273.3722.0665l-.1314-.0026c.1549.0356.3142.0478.4728.0362-.8341.0935.0518.3047-.6647.387.0816.0644.146.148.1875.2433l-.0823-.0044c.0098.0097.0177.0212.0232.0338l.008.0156c.1974.0315.6234.0438.4295.1168-.3936.0449-.2648-.0422-.3621-.0339.0712.0529.1546.087.2424.0994l.084-.0197c.3203-.0747.6482-.1114.977-.1091.1273.0025.2543.0124.3805.0296l.374-.1655c-.2547-.0767-.3947-.1749-.3112-.3048.0262-.04.0626-.0723.1056-.0934-.0524-.0429-.0447-.0916.0353-.1305.0691-.0335.363-.1371.5594-.2356l-.1559-.0044c.6136-.0816-.2024-.192.0629-.2521l-.0382-.0289c-.0657-.0504-.0024-.0985.1162-.1329-.1723-.1075-.328-.2393-.4624-.3914.6081.0193.0554.1809.6942.1878-.2462-.1592-.766-.2599-.6145-.4094.0845-.0376.2633.0285.3667.0442-.2462-.1596.0638-.296-.2633-.4409.0559.0036.1111.0147.164.0331-.0189-.0274.0914-.0605-.1856-.0642l.0743.0281c-.3527-.0115-.7035-.0578-1.0471-.1381.7912.0656.2031-.1306 1.2023-.0327-.1193-.0334-.243-.0486-.3668-.0452.1223-.0308.2503-.0303.3724.0014-.1478-.1004-.4427-.0736-.4339-.1611.134.0038.1851.0228.3422.0359-.2593-.051-.5196-.1025-.4042-.1736.0806.0066.1859.0007.1832.0228-.0369-.1282-.6889-.2356-.4329-.3685.5807.0571.193-.0423.6967-.0358l-.1479-.0792-.2453.0233c.0105-.0654-.3546-.1339-.1881-.1859l.2061.0548-.092-.126-.1929.0644c-.2576-.0741-.6373-.0111-.4945-.0948.0511.0193.008-.0658.3058-.0915l.0013.0002c-.1594-.0372-.327-.0757-.201-.1208.1614-.0079.5567.0266.6639.0215-.4199-.0445-.1122-.1575-.5593-.2117.1406.016.2819.0236.4234.0226l-.3414-.0373c.1225-.0288.2492-.0351.3739-.0187.0652-.0898-.6395.0097-.3611-.0908.0438.0062.0872.015.13.0263.1466-.1049-.2109-.2181-.0397-.3134.5075-.0135.1216.0917.55.0713-.0878-.1474-.5986-.3192-.4753-.4556l-.0566.0243c-.7146-.0431.3564-.0928.0215-.1748.1046.0175.2104.0271.3165.0287.1175-.0921-.1702-.202-.3908-.3554l.1831.0244c.1656-.0509.0989-.1456.1842-.2038-.1364-.0386-.2783-.0544-.4199-.0468 1.0517-.1506-.5505-.3802.3259-.5154.0482.0293.1045.0426.1608.0378l-.1654-.1488c-.1449-.0025-.2897.0083-.4326.0324-.1842-.025-.3261-.0707-.3251-.1061.2227.0458.4525.0449.6748-.0026l-.2977-.0138c.5564-.0533-.6264-.0365-.2501-.124l.1632.0117c-.0824-.0412-.2977-.0847-.2497-.124.3609-.003.167.0471.4636.0612-.0192-.0584-.6796-.1404-.3189-.1786.0998.0285.1004.0638.1995.0921.4247-.0402.3174-.0509.3858-.0905l-.0096.0038.1943-.0898-.1155.0202c-.9373-.1094-.1673-.1536-.7799-.2755.2434.0597.4951.0776.7444.053.1165-.03.2368-.0426.3569-.0373-.0317-.0041-.0627-.0123-.0923-.0243-.2243-.0208-.4242-.0765-.4299-.1604-.0079-.1142-.1307-.2271-.352-.3106z"/><path d="m26.3985 34.7833-.0089.003.0547-.0051z"/><path d="m27.724 33.9754c.0328.0001.0656-.0025.098-.0076z"/><path d="m27.8195 33.6084.1365-.0469c-.0473.0099-.0932.0256-.1365.0469z"/><path d="m28.0156 33.3325-.1624-.0122-.0024.0005z"/><path d="m28.3309 37.8545c.0048.005.0106.0089.017.0114.0735.0277.0447.0094-.017-.0114z"/><path d="m27.484 36.4873c.0601.0129.1195.029.1778.0484.0297-.0231.0378-.0414-.1778-.0484z"/><path d="m27.6536 36.599c.0772-.022.0612-.0426.0085-.0629-.0262.0191-.0659.0413-.0085.0629z"/><path d="m26.3612 33.0009.1126-.0916c-.1469.0107-.3443.0246-.3781-.0206-.4405.1031.328-.0114.2655.1122z"/><path d="m26.1403 33.2914c-.0666-.0544-.2126-.0079-.2952-.014.0935.0402.1984.0452.2952.014z"/><path d="m26.0767 35.4471-.3449-.0164c.0485.0415.1337.0047.3449.0164z"/><path d="m27.8477 35.9155.2148-.0324-.3156-.0276z"/><path d="m25.384 36.0828-.0496-.0193.1247.0702z"/><path d="m26.1801 42.7786.0535-.0227c-.0198.0019-.0385.0099-.0535.0227z"/><path d="m25.9377 44.9818c-.0107-.0169-.0556-.024-.0965-.0248.0287.0184.0625.0271.0965.0248z"/><path d="m25.4446 45.3599.0299-.022c-.0406.0085-.0631.0169-.0299.022z"/><path d="m26.18 42.7793-.1403.058c.1455.005.1081-.0295.1403-.058z"/><path d="m25.8172 41.8022-.0007-.0179-.1815-.0167z"/><path d="m25.7483 41.055c.1752.0228.3517.0348.5284.0359-.0881-.0003-.1757-.0138-.2598-.0401z"/><path d="m25.7357 42.3359-.1354.0057z"/><path d="m24.9586 46.0524.0071-.003c-.0415-.0172-.0342-.0074-.0071.003z"/><path d="m25.1888 47.644.166-.018c-.0557.0021-.1111.0081-.166.018z"/><path d="m25.7267 46.4551-.0499.0292c.034-.0117.0457-.0211.0499-.0292z"/><path d="m25.725 48.2539c-.0292.0164-.082.0226-.0305.0439l.0465-.0073c-.0522-.0073-.0769-.0175-.016-.0366z"/><path d="m26.4976 40.3312-.2265.0343.248.0134c-.0148.0166-.0457.0492-.2104.0406.2821.0666.1792-.0079.4453.0323-.375.075.1758.2246-.4803.2335.313.0333.2413-.0737.4591.0154-.7057.0147.121.1011-.2027.1704-.3644-.0275-.1715-.0948-.4965-.0254.6157.0527-.1349.1418-.0168.2057.49.0091.2046.1378.368.2441-.165-.0086-.2693.1932-.4465.2885l-.0823-.0038c.4955.0242.402.1233.5045.1972-.1841.0074-.3683-.0132-.5462-.0611l.0024.0687c.1056.0005.2091.0299.2992.0851l-.3703-.0209c.0205.0917.4363.188.1891.3033.3974-.0467.7995-.0328 1.1927.0412-.1947.0116-.3901.0021-.5827-.0284.0246.0109.155.0393.0754.06l-.3143-.0523c-.138.0523.2625.0302.2333.0727-.2664-.0031-.1901.03-.4015.0221-.0257-.0111.1099-.0364.0055-.0536-.122.0773-.2629.1196-.4073.1224.1323-.0132.2659-.0001.3932.0385.0196.0914-.3203.0287-.4574.0809.1851.0236-.0066.0804.3918.085-.0021.0266-.1878.0302-.2955.0398.1755.0485.0502.2212.4738.1708l.0279-.012.0174.0078c.3961.1572-.2253.3201-.0545.4748l-.1334-.001c.1522.0924.0901.2046.3767.2712-.1281.0484-.2658.0658-.4019.0508.1002.0705.2498.0788.0302.1793-.2326-.0712-.2059.0237-.1704-.0728-.115.0907-.3283.1108.036.2097-.3412-.0343-.4298.0676-.3276.1112l.244-.0633c.0498.0488.0195.0914-.0095.1346l-.4489-.0244c-.546.1862.9295.3379.0155.4792.314.0495.2208-.1013.5881-.0569-.0604.0857-.7047.175-.706.202-.2485.1179.656.1097.4861.2328.2475-.0338.4995-.0131.7382.0605-.2571.0892-.5335.1072-.8.0522-.0135-.0205.0375-.0305.0915-.0297-.0925-.0487-.2003-.0594-.3005-.0299l.1602.011c-.1633.0428-.1461.1611-.4087.1337.0546.0261.115.0378.1755.0342.0604-.0037.1189-.0226.1701-.055-.232.1106-.0067.1722-.1626.2861.0899-.022.1829-.0279.2748-.0174-.1983.1669.3037.0724.3738.1848-.2439.0648-.5827-.0211-.3779.0917-.1829.0453-.3745.0416-.5554-.011.3087.1025-.2028.1943-.2593.2538l-.1292-.0541c.0768.0324.0745.0591.0738.0864l.3201-.0325c-.0257.0228-.056.0399-.0888.0501-.0328.0103-.0674.0134-.1016.0093.2737-.0022.5472.01.8196.0365-.1626.0434.1747.1288-.2501.1458.1329-.1245-.3382-.0074-.4665-.0771.0155.0177.0041.0381-.0365.0616-.0379.004-.0763-.0003-.1124-.0128-.3796.1307.4806.0567.471.1898-.2396-.0156-.4543.0335-.4032.055.0048-.0538.3995-.028.583.0201-.1864.0864.1389.0918.1171.1366l.0875-.0516c.2395.0158.2083.0586.2837.1174-.0427.0042-.0858-.0002-.1268-.0128.1836.0613-.4927.142-.2356.2236-.162.0439-.4499.0075-.5599.0458.3106.1009-.3281.1145-.0713.2211.1851-.0425.3785-.0303.5569.035l-.2267-.1765.4682.1106c.0045-.0537-.2024-.1117-.1478-.1444.1455.0465.3008.0533.4497.0196-.4828.0774.2814.1433-.0446.2309l-.7969.0044c-.3551.1313.4091.2237.2089.3916l.1384-.0547c.3164.0192.0442.102.1726.1545-.1778-.0001-.3552.019-.529.0571.1978-.0049-.0179.1219.5141.1311l-.3508.0781c-.1435.1359.7591.1442.6684.2739-.2299.0084-.4601-.0111-.6853-.0582-.0027.0431-.0513.0824.1331.0808-.1665.0273.3591.1148.1062.1576.117.0166.396.0189.3739.0674-.0437.0035-.0876.004-.1314.0016.155.0376.3154.0468.4737.027-.8309.1437.0609.3688-.6528.4945.0865.08.1531.179.1946.2892l-.0824-.0024c.0104.0119.0186.0255.0243.0402l.0084.0187c.1983.0312.6243.031.4329.1266-.392.0688-.2659-.0418-.3629-.0281.0694.06.1544.0989.2452.1121l.0834-.027c.3148-.1018.6425-.1583.9732-.1677.1274-.0015.2548.006.3812.0224l.3689-.2148c-.2567-.0841-.3996-.1984-.3201-.3593.0231-.0477.0586-.0883.1028-.1175-.0538-.0502-.0475-.1097.0313-.1598.0681-.0434.3588-.1798.5523-.3066l-.1561.0002c.611-.1213-.208-.2262.0555-.3088l-.0391-.0338c-.0672-.0588-.0054-.1197.112-.1658-.1797-.1288-.3394-.2836-.4737-.4592.6083.0016.0607.2179.6994.2033-.2508-.1847-.7733-.2884-.6265-.4757.0834-.0488.2642.0252.368.0406-.2509-.1853.0551-.3622-.2765-.5267.0565.0024.1123.0141.1651.0344-.0197-.0327.0894-.0769-.1875-.0715l.0751.0316c-.3542-.0016-.7069-.0453-1.0508-.1303.7929.0513.1992-.1662 1.201-.0829-.1191-.0363-.2439-.0504-.3681-.0418.12-.0418.2499-.0458.3723-.0117-.1507-.1168-.4447-.0736-.4386-.1804.1342-.0002.1858.0211.3433.0314-.2608-.0527-.5226-.1059-.4093-.1966.0806.0051.1858-.0058.1838.0211-.0406-.1545-.6955-.2616-.4436-.4325.5819.0486.1917-.0583.6953-.0685l-.1503-.0909-.2444.0372c.0085-.08-.3585-.1502-.1936-.2193l.2076.0591-.0957-.1498-.1909.0852c-.2597-.0808-.6374.0095-.4971-.0975.0517.0217.0062-.0803.3029-.1222l.0014.0002c-.1605-.0396-.3292-.0804-.2044-.1397.1611-.0154.5571.0124.6641.0023-.4211-.0391-.1168-.1874-.5654-.2373.1408.0144.2825.0185.424.0123l-.3424-.0331c.1202-.0392.2476-.0516.3731-.0362.0625-.1116-.639.0348-.3637-.0975.0442.0061.0879.0152.1308.0273.1434-.1328-.2173-.2576-.049-.3796.5068-.0347.1241.1072.5518.0669-.0921-.1761-.6077-.3666-.4885-.5369l-.0561.0316c-.7154-.0268.3537-.1256.0164-.2133.1048.0175.211.0254.3172.0235.1148-.1162-.1762-.2395-.4013-.4181l.1838.0231c.164-.0678.0945-.1806.1781-.2544-.1362-.0419-.2793-.0561-.4211-.0418 1.0467-.221-.5615-.4426.3103-.6384.0021.0243.161.0594.1619.0401l-.1698-.1749c-.1454.0022-.2901.0206-.4314.0549-.1848-.0238-.3281-.0743-.3282-.1173.2236.0476.4556.0382.6745-.0274l-.298-.0062c.5546-.0847-.6272-.0218-.2536-.1417l.1635.0084c-.0836-.0472-.3-.0924-.2533-.1418.3606-.0167.1683.0512.4651.0577-.0208-.0703-.6833-.1464-.3239-.2057.1004.031.1022.0739.2019.1049.4235-.0642.3159-.0734.383-.1239l-.0095.0049.1916-.1162-.115.0288c-.9401-.0995-.1717-.1807-.7876-.3071.583.1228.3373.0235.7456.0377.1141-.0404.2346-.06.3557-.0581-.0322-.004-.0636-.0128-.0932-.0262-.2248-.0172-.4261-.0778-.4345-.1797-.0113-.1385-.1374-.2714-.361-.365z"/><path d="m26.2417 42.7522-.0087.004.0544-.0082z"/><path d="m27.5425 41.7198c.0329-.0011.0657-.0053.0978-.0128-.0329.0019-.0656.0062-.0978.0128z"/><path d="m27.6271 41.2709.135-.0619c-.0477.0141-.0932.0349-.135.0619z"/><path d="m27.8148 40.9288-.1627-.0089-.0022.0007z"/><path d="m28.2649 46.4141c.0047.0056.0106.0102.0173.0133.0743.031.0449.0098-.0173-.0133z"/><path d="m27.3777 44.7842c.0608.0135.1206.0311.1791.0524.029-.0291.0366-.0517-.1791-.0524z"/><path d="m27.5507 44.9136c.0764-.0294.0598-.0539.0065-.0767-.0256.0241-.0648.0525-.0065.0767z"/><path d="m26.1512 40.5839.1099-.1154c-.1465.0183-.3435.0423-.3786-.0115-.437.1413.3276-.0256.2687.1269z"/><path d="m25.9391 40.9451c-.0681-.0638-.2127-.0021-.2954-.0065.0458.0225.0959.0347.147.0359.051.0011.1016-.0089.1484-.0294z"/><path d="m25.9398 43.5692-.3452-.0077c.0496.0488.1337.001.3452.0077z"/><path d="m27.7242 44.0745.2147-.0468-.3167-.0228z"/><path d="m25.2663 44.3663-.0496-.0206.1259.0811z"/><path d="m18.3728 32.3518-.0447-.0618c.003.0128.0085.0248.0162.0354.0076.0105.0173.0195.0285.0264z"/><path d="m23.1468 32.5117c-.0139.0022-.0268.0085-.037.0182s-.0172.0222-.0201.036c.0353-.0193.0643-.0359.0571-.0542z"/><path d="m23.9554 32.6231-.0471-.0059c.0173.0128.0353.0187.0471.0059z"/><path d="m18.3723 32.3516.1138.1609c.0229-.1551-.0549-.121-.1138-.1609z"/><path d="m16.2506 32.3969-.0382-.0082-.0491.1572z"/><path d="m14.6674 31.9996c.0341.0228.0743-.213.1002-.316-.0316.0951-.0634.1347-.0968.1444-.0063.057-.0074.1144-.0034.1716z"/><path d="m17.3847 32.7061c-.003.0476-.0027.0955.0009.1431.0044-.0476.0041-.0956-.0009-.1431z"/><path d="m25.4389 32.8252-.0062-.0039c-.038.0041-.0167.0071.0062.0039z"/><path d="m28.8623 33.7226c-.0054-.0505-.0163-.1002-.0325-.1484.0027.0509.0137.1011.0325.1484z"/><path d="m26.3197 32.7666.0624.0434c-.0174-.0188-.0387-.0336-.0624-.0434z"/><path d="m30.2051 33.1535c.0346.0188.0461.0584.0941.0118-.0033-.012-.0081-.0236-.0142-.0344-.0176.0428-.0406.0656-.0799.0226z"/><path d="m13.1588 31.2368c.0269.0164.052.0355.0751.057l.026-.0395c.0352.0101.1049.0306.0873.0643.1402-.035-.0178-.043.0671-.0912.1591.1332.4855-.0116.493.2519.0773-.1178-.1529-.1239.0418-.184.0156.3127.2196-.0233.3593.1486-.0709.1814-.2059.0377-.07.2452.1327-.3014.2942.1576.4323.1379.0416-.3036.302-.0633.537-.1317-.0278.1183.396.2816.586.4832l-.0135.0679c.085-.4069.2906-.2911.4564-.3584.0021.1716-.0585.3381-.1705.4682l.1464.0319c.0114-.0537.0361-.1037.0717-.1455.0355-.0417.081-.074.1321-.0939l-.0726.3376c.1962.0326.4355-.3392.6627-.0524.0489-.3507-.1044-.9806.1855-1.194.0091.2002-.028.3997-.1085.5832.0253-.0219.0971-.148.1352-.0622l-.1381.3053c.101.1555.0864-.2578.1753-.2178-.0286.272.0489.2029.0145.4182-.0261.0229-.0691-.1236-.1147-.0226.0674.0575.1224.1281.1618.2074.0394.0794.0622.1659.0672.2544.0062-.1589.036-.3718.1155-.3976.1981.0057.035.3444.1357.5061.066-.1874.1724.0325.2154-.3901.0573.0092.0495.208.0611.3255.1192-.1735.4817-.0049.4079-.4698l-.0235-.0323.0184-.0171c.3713-.3928.6728.2975 1.0217.1298l-.012.1379c.2117-.1493.4503-.078.6143-.3537.0585.0046.1195.245.0823.3986.16-.0951.1875-.2334.391-.0197-.1698.2169.038.1948-.1693.1588.1894.1135.2205.3032.4582-.0312-.096.3137.1206.3886.222.2923l-.1232-.2163c.0949-.033.1985-.0311.2922.0052l-.0794.3959c.1871.226.3872-.005.5694-.1752.1831-.1772.3472-.2729.4824.0226.1229-.2411-.2121-.1227-.0974-.4103.1832.0406.3521.4411.412.42.2503.0861.2659-.4514.5282-.3817-.0286-.0733-.0284-.1548.0005-.228.029-.0733.0845-.1329.1555-.1669.0387.0123.0736.0345.1011.0645.0275.0299.0466.0666.0556.1062.0089.0397.0073.081-.0046.1198-.012.0389-.0339.0739-.0636.1017-.0454.0133-.0657-.0089-.0623-.0364-.0621.0359-.1441.0862-.0748.163l.0293-.0862c.0883.0689.3479.0083.2804.1389.1459-.0924.0671-.1252-.0357-.1485.2349.0693.3758-.052.6193-.0154-.0376-.0274-.07-.0942-.0312-.0961.3577.0457.1644-.1129.4094-.1398.1345.0778-.0588.1853.1899.1187.1473.0509.0255.1298-.0363.1724.2286-.1007.4152.0618.542.0895l-.1194.0305c.0614-.0151.1252-.0174.1875-.0069l-.0627-.1033c.0681.0227.1264.03.1233.0708.0738-.0562-.0471-.1686.0976-.2421.0894.0607.2816-.0254.3072.1236-.2639-.089-.024.1073-.1766.1222.0461.0029.0909.0163.1309.0392.0096.0184-.011.0271-.03.0303.2697.203.1333-.1367.4182-.0647-.0399.0829.0591.1941.106.1995-.1141-.0535-.0486-.1769.0596-.225.1793.1399.2005-.0028.296.0308l-.1078-.0708c.0411-.1033.1321-.0704.2611-.0853.0028.0378-.0132.0535-.0318.0607.138-.0797.2882.3482.4722.2507.0881.1316-.0003.29.0777.3933.2276-.1281.2323.3407.4712.2387-.0604-.2717-.0738-.2045.0972-.4068-.1276.0301-.2574.0501-.3882.0597.0909-.0868.1764-.1792.256-.2765-.1159-.0215-.2486.0925-.3165.033.1224-.1507.1088-.1049.0592-.3003.1479.3836.32-.1664.4963.106l-.0227.64c.2681.3817.4991-.2316.8548-.0393l-.113-.1316c.0543-.2797.2229-.0267.3418-.1414-.0063.1649.029.3286.1028.4762-.0028-.1765.2642.0095.3047-.4661l.1558.3035c.29.1016.3416-.6762.6191-.6076-.087.2464.0385.3901-.1513.5843.0936-.0086.1772.021.1804-.1308.0534.1278.2618-.3143.3457-.1243.0401-.0965.0547-.3139.1592-.3047.0059.0331.0055.067-.0012.0998.0012-.1008.1646-.1478.0748-.362.2831.5636.8004-.0722 1.0487.2904.2045-.097.4153-.1799.6311-.2481l-.0081.0293.0878-.0318.0407-.0135c.0739-.0814.088-.178.2879-.1622.1346.0354-.0994.0739-.0734.0891l.2505-.1051-.0552.0012c-.166-.0031-.3354-.0996-.3291-.201.0014-.0177.008-.0345.019-.0484.0109-.0139.0258-.0243.0427-.0297-.1589-.0865-.3105-.1855-.4536-.2962-.2671.0265-.5366-.0088-.7879-.1031-.0883-.0285-.1724-.0687-.2502-.1194-.123.0118-.246-.0238-.3438-.0993-.0913-.0687-.3754-.3497-.641-.5655-.0077.042-.0094.0849-.005.1275-.2388-.5664-.4943.0938-.6623-.1488l-.0741.0276c-.065.0179-.134.0149-.1972-.0085s-.1175-.0662-.1551-.1221l-1.0107.4804c.0286-.5224.4744-.121.4685-.6749-.409.2819-.6558.7722-1.0572.7476-.1031-.026.0653-.2093.1028-.2964-.4134.3128-.7903.272-1.1609.5483.0019-.0264.0425-.0671.0804-.1016-.0722.0318-.1658.0146-.1623.1348l.0713-.0543c.1076.1703-.299.4339-.3146.4987.1338-.3253-.3557-.0437-.1479-.4355-.0482.0314-.1091.0835-.1009.1475-.0691-.0117-.0898-.0439-.0158-.1279-.2588.09-.1718.1744-.4035.1821.0027-.0416.0501-.0592.0762-.11-.0573.0542-.1268.094-.2026.1158-.0759.0219-.1558.0253-.2332.0099.0128-.0237-.0084-.0561.0497-.053-.3352-.0079-.5812.1758-.9433.043.1184-.1856-.1206-.0895-.13-.2814l-.1979-.0002.0731.1185c-.1706-.0532-.3315.0832-.4745-.0301l.1326-.0615-.3225-.046.1759.1423c-.1809.0896.0007.3136-.2247.2104.0483-.0221-.1727-.0209-.2517-.212l.0005-.0007c-.0902.0738-.1846.1688-.3069.0692-.0264-.1115.0489-.3538.0319-.4277-.1008.2537-.403-.0434-.531.2712.0376-.1002.0535-.2072.0466-.314l-.0872.2445c-.0352-.0411-.0592-.0907-.0695-.1438-.0104-.0532-.0067-.1082.0106-.1595-.2344-.1038.0419.517-.2265.2449.0237-.0182.0159-.0621.065-.0941-.275-.1864-.5629.088-.8146-.0957-.0432-.4722.2365-.0748.1762-.4721-.3799.0014-.8215.4307-1.1778.263l.0636.0657c-.1087.7084-.2434-.3927-.4553-.0819.0451-.1004.0702-.2086.0741-.3186-.239-.1598-.524.099-.926.3034l.0646-.1917c-.1318-.192-.3798-.1395-.5315-.238-.0658.1928-.1544.1552-.1254.4435-.3888-1.1206-.9995.5124-1.3539-.3631.0529-.0013.1415-.1549.0996-.1553l-.3928.1666c-.0003.2854.0312.1716.0866.3993-.0655.1709-.1848.293-.2775.2845.188-.174.0464-.4545-.0106-.6046.0032.0848-.0318.178-.0347.2641-.1448-.4865-.0915.5461-.3244.2069l.0292-.1363c-.1081.0685-.2194.2363-.3233.19-.0134-.2855.1215-.127.1545-.3663-.155.0281-.3582.5144-.4655.238.0729-.0714.1659-.069.239-.1437-.1141-.3249-.1413-.2347-.2482-.2765l.0104.0059-.246-.1052.0577.0694c-.2623.6217-.4049.1428-.7031.4873.2869-.3075.0631-.1829.1077-.3967-.0594-.0533-.1538-.0975-.1179-.1603-.0161.0232-.037.0427-.0612.0571-.0397.0746-.0985.1373-.1703.1817-.0719.0444-.1543.0689-.2388.071-.3069.0424-.6026.1168-.8034.1499.0375.0221.0709.0507.0985.0844z"/><path d="m18.3202 32.2803.008.0102c-.0071-.0193-.0115-.0395-.013-.06z"/><path d="m16.1989 30.8175c-.0001-.0299-.0072-.0593-.0207-.0861.0019.0297.0089.0588.0207.0861z"/><path d="m15.2264 30.7923-.1301-.0814c.0383.0345.0823.062.1301.0814z"/><path d="m14.4777 30.7637c-.0109.0295-.0195.0599-.0257.0908l.0014.001z"/><path d="m26.3124 31.5305.0297-.018c.0703-.0597.0229-.029-.0297.018z"/><path d="m22.7665 31.721c.0354-.032.0757-.0578.1195-.0766-.0616-.0321-.1099-.0498-.1195.0766z"/><path d="m23.0472 31.6863c-.0199-.0222-.0459-.0381-.0748-.0457-.0289-.0075-.0593-.0063-.0875.0034.0229.0175.049.0302.0769.0375.0278.0072.0569.0089.0854.0048z"/><path d="m13.6925 31.4636-.2418-.1052c.0385.0476.0871.1276-.0242.091.2906.2474-.0527-.1095.266.0142z"/><path d="m14.442 31.8069c-.1363-.0068-.0124.1182-.025.1644.0918-.0411.115-.059.025-.1644z"/><path d="m20.0686 32.6748-.0402.3351c.1096-.0501.0112-.1294.0402-.3351z"/><path d="m21.2696 31.1282-.0875-.2063-.0672.2699z"/><path d="m21.77 33.1644-.0492.0468.1848-.1272z"/><path d="m41.6332 32.5429-.0856-.0536c.0211.0276.0515.0467.0856.0536z"/><path d="m44.0126 26.1029c.0106.0598.0356.0849.0564.0881-.0207-.0557-.0385-.1013-.0564-.0881z"/><path d="m44.0903 24.7773-.004.0789c.0069-.0118.0109-.0252.0116-.0389s-.0019-.0274-.0076-.04z"/><path d="m41.6323 32.543.2188.1403c.0035-.1568-.1148-.1104-.2188-.1403z"/><path d="m38.209 32.9495-.0636-.0013c-.0186.0536-.0338.1084-.0455.1639z"/><path d="m35.5626 32.8475c.0602.0161.0743-.2237.0942-.3299-.0309.0996-.0737.1445-.1257.1603.0022.0577.0128.1149.0315.1696z"/><path d="m40.1104 33.0566c.0056.0481.0164.0954.0323.1411-.0034-.0484-.0143-.096-.0323-.1411z"/><path d="m44.2434 22.3525-.0039.0107c.0052.0629.0078.0273.0039-.0107z"/><path d="m45.0821 16.7656c-.0521.0105-.1022.0294-.1483.0558.0533-.006.1042-.0252.1483-.0558z"/><path d="m44.1547 20.925.0402-.1037c-.0189.0322-.0325.0672-.0402.1037z"/><path d="m44.5144 14.5969c.0186-.0559.0578-.0747.0117-.1516-.0125.0059-.024.0136-.0342.023.0117.0054.0218.0136.0296.0237.0078.0102.013.0221.0152.0348.0022.0126.0013.0256-.0025.0378-.0039.0122-.0107.0233-.0198.0323z"/><path d="m32.9592 32.3904c.0456.0104.0903.0242.1338.0413l.0334-.0439c.0593.003.1762.0095.1551.0461.2193-.0618-.0379-.0387.0889-.1028.2859.0997.7825-.1066.8513.1511.0998-.131-.2738-.0919.0283-.1892.0924.3046.3499-.0663.6128.0761-.0756.1916-.3249.0772-.0604.2546.1497-.3217.5097.0999.7288.0545.002-.3066.4748-.1187.8402-.2303-.0197.1188.7012.2087 1.0519.3709l-.0073.0696c.0499-.4181.4073-.3415.661-.4373.0019.2704-.0398.3772-.175.4921l.2436.0052c.0186-.0658.0541-.1255.1029-.1733s.1093-.082.1754-.0992l-.0451.3457c.3246-.0035.6317-.4121 1.0609-.1674.0037-.3543-.38-.9495.0434-1.2095.0264.188.0605.5126-.0501.5938.0363-.0259.1254-.1625.2053-.0845l-.1577.3248c.1968.1362.0843-.2691.2368-.2447.0122.2731.1227.1918.1132.41-.037.027-.1382-.1101-.1902-.0027.1039.031.1998.0843.281.1563.0811.0719.1456.1606.1889.2601-.0241-.1578-.0216-.373.1012-.4119.3219-.0278.1308.3344.3287.4763.0665-.1966.2858.0024.2646-.4218.0946-.0009.1248.1967.1687.3108.1557-.1907.7788-.0831.5593-.53l-.045-.0281c.0075-.0092.0168-.01.0261-.0199.2439-.224.5716-.1799.9511-.1094.3561.1075.7341.1201 1.0966.0367l.1109.1279c.0782-.0471.1622-.0841.2498-.1099.0753-.0423.234-.0059.1599-.1776-.036-.2508-.1233-.4916-.2563-.7072.0003-.1006.2341-.1478.3906-.0254-.1104-.3933-.2462-.4249-.047-.8521.2264.3735.1919-.0888.1686.3799.1007-.3889.2911-.631-.0574-.9355.3188.1199.3809-.2386.2788-.3921l-.2087.2233c-.0386-.1553-.0427-.3171-.0119-.4741l.3998.0857c.2147-.3267-.0277-.6249-.2083-.903-.1864-.2781-.2901-.536-.0017-.7836-.2471-.1759-.1119.3559-.4051.1979.0315-.3019.423-.6135.3989-.7083.0737-.4134-.4645-.3901-.4074-.8228-.0775.0547-.3194.1051-.401-.2194.032-.3022.3027-.3692.3881-.1775.0153.0726-.0061.1074-.0337.1041.0384.0981.0922.2268.166.1076l-.0873-.04c.0652-.1495-.0063-.5661.1272-.4673-.0984-.2293-.128-.0987-.1469.0704.0594-.3874-.0677-.6066-.0412-1.0056-.0259.0633-.0912.1212-.0948.058.0311-.5854-.122-.2589-.1555-.656.0735-.2248.1875.0824.1125-.3177.0464-.2435.1281-.0506.1735.0468-.0492-.2971-.0247-.6018.0715-.8872l.0345.192c-.0172-.1004-.0216-.2026-.0132-.3042l-.101.1086c.0204-.1123.0258-.2075.0666-.2051-.0586-.1165-.1671.0874-.2451-.1434.0571-.1496-.0339-.4572.1146-.5079-.0824.4348.108.0327.1266.2801.0014-.0731.0135-.1457.0359-.2153.0183-.0168.0273.0162.0311.047.1963-.4499-.1401-.2088-.0751-.6761.0836.0601.1935-.1069.1951-.1833-.0469.1882-.1744.0888-.2269-.0847.1307-.299-.0114-.3262.018-.4831l-.0654.1788c-.1027-.0616-.0763-.2114-.0912-.4207.0373-.0065.0529.0187.0602.0487-.0822-.2211.3469-.4852.2475-.7795.1302-.149.2901-.0121.392-.143-.1318-.3641.337-.3902.231-.7726-.2705.1077-.2031.1274-.4083-.1429.0275.2093.0596.4186.066.6277-.0857-.1402-.1794-.2754-.2806-.4048-.0197.1891.0965.4002.038.5131-.1526-.193-.1066-.1729-.3011-.0839.3811-.2559-.1716-.5149.0978-.8121l.6403.0144c.3774-.4469-.2358-.8016-.0474-1.3845l-.1308.1867c-.28-.0807-.0284-.3611-.144-.5513.2402.0196.328-.0979.4753-.1775-.1762.0084.007-.4277-.4675-.4847l.3033-.2584c.1018-.4711-.6762-.5442-.6072-.9973.2462.1387.39-.0663.5841.2392-.0085-.1515.0211-.2874-.1307-.2911.1279-.0874-.3141-.4226-.124-.5603-.0965-.0646-.3136-.0873-.3035-.2573.0326-.0098.0675-.0093.0998.0015-.1011-.0015-.146-.2674-.3613-.1206.5723-.4618-.0671-1.3046.3001-1.7078-.104-.2817-.117-.5889-.0372-.8783.0058.0084.0126.0163.02.0234.0091-.0393.0205-.0779.0343-.1158l.0205-.0506c.001-.1035-.0687-.2621.2146-.3271.1678.0178-.1131.0894-.0652.1064.0428-.0357.0938-.0604.1484-.0719.0545-.0115.1111-.0094.1647.0061l-.076-.0324c-.2241-.1158-.518.05-.5802-.031-.0233-.0297-.0037-.0804.0512-.1429-.3002.1475-.5624.3623-.766.6277-.0726.2204-.1193.4485-.1391.6797-.0115.2591-.0493.5164-.1126.7679-.0294.1404-.0717.2777-.1266.4101.0111.1934-.0229.3867-.0993.5647-.0666.1498-.3527.618-.567 1.0583.0413.0121.0849.0145.1274.007-.5666.4001.0936.8133-.1493 1.0934l.027.1218c.0198.1009.0187.2049-.0035.3053-.0221.1004-.0648.1952-.1252.2784.1735.587.3336 1.1283.4883 1.6511-.5233-.0296-.1266-.7766-.6786-.7511.2832.668.7789 1.0561.7606 1.716-.0243.1706-.2103-.0989-.2981-.1573.3096.6676.303 1.2883.5776 1.8822-.026-.0018-.0663-.066-.1004-.1266.0315.1169.0142.2713.1334.2591l-.0538-.1141c.1671-.1847.4319.4667.499.4881-.3285-.2006-.0349.5842-.4317.2665.0326.077.0862.1737.1501.1567-.0101.1137-.0419.1496-.1276.0334.0967.4185.1778.2708.1932.6494-.0418-.0017-.0608-.0783-.1125-.1178.1206.2141.1697.4611.14.7051-.024-.0195-.0556.0174-.0545-.078.0874.5081.1128 1.025.0756 1.5393-.1904-.1793-.0845.2042-.2759.2346l.0082.3241.1152-.1291c-.0461.2834.097.5354-.0104.7785l-.0667-.2114-.0327.5315.1349-.2999c.0969.288.3132-.0281.2195.3488-.0243-.0769-.0136.2838-.2.4302l-.0008-.001c.0567.0677.0944.1493.1093.2363.0148.0871.0063.1765-.0247.2592-.11.0536-.3559-.0468-.4289-.012.2585.1406-.0231.6645.2975.8426-.097-.0509-.2086-.0668-.3159-.045l.2485.1184c-.0253.0546-.07.0978-.1255.1213-.0554.0234-.1176.0254-.1744.0055-.0918.3947.5137-.1213.2564.3459-.0195-.037-.063-.0198-.0977-.0968-.17.47.1207.9118-.048 1.3435-.4689.1239-.0884-.3792-.4815-.2362.0025.2851.0882.5632.2465.8003.0623.0814.1059.1755.1278.2757.0218.1002.0213.2039-.0014.3039l.0583-.0303c.3378.2399.2522.2899.1161.2789l-.105-.0122-.15-.0679c-.0856-.0347-.1305-.0387-.1105.0327.007-.045-.2739-.334-.2161-.2672-.0432-.0254-.0943-.0341-.1435-.0246-.0493.0096-.0934.0368-.124.0765-.0738.0339-.1773.1167-.3761.2045l.027-.1842c-.1556-.2105-.6172-.0878-.8619-.17-.0648.201-.2164.1783-.1073.4581-.8705-1.0395-1.507.6755-2.269-.1259.0854-.0108.1957-.178.1278-.171l-.5997.2347c.0611.2813.0876.1635.2261.3779-.0292.0847-.0806.16-.1488.2181-.0683.0581-.1508.0968-.2391.1122.267-.2053-.0225-.4563-.147-.5942.0235.0831-.0131.1812.0007.2666-.3389-.4548-.0305.555-.4802.2613l.0177-.14c-.1602.0864-.304.2727-.4818.2459-.0833-.2798.1688-.1478.171-.391-.245.0568-.4686.5761-.7016.3234.1025-.0838.2534-.0994.3554-.1871-.2542-.2978-.279-.2035-.4608-.2248l.0179.0039-.4201-.0575.1082.0574c-.2905.6614-.6242.2167-1.0323.6118.3979-.3566.0627-.1919.0888-.4107-.1075-.0416-.2698-.0669-.2251-.1356-.0242.0283-.0537.0515-.0869.0683-.0474.124-.2489.2548-.6072.3286l-1.2671.305c.0618.013.1215.0344.1775.0635z"/><path d="m41.5329 32.482.0149.0087c-.015-.0166-.0265-.036-.034-.0571.0074.0157.0137.0319.0191.0484z"/><path d="m37.7855 31.4024c-.0083-.0319-.0265-.0603-.0521-.0811.0106.0308.0285.0586.0521.0811z"/><path d="m36.2053 31.5552-.2258-.0552c.0728.0274.1486.0459.2258.0552z"/><path d="m34.9896 31.666c-.011.0304-.0183.0621-.0218.0942l.0024.0008z"/><path d="m42.9376 20.9997-.0176-.0478c-.0588-.1123-.0287-.036.0176.0478z"/><path d="m43.2399 26.7923c-.0352-.0585-.0627-.1213-.0818-.1868-.0285.1028-.0439.1828.0818.1868z"/><path d="m43.1933 26.3369c-.0453.082-.0579.1782-.0351.2691.0337-.0854.0458-.1779.0351-.2691z"/><path d="m33.8707 32.5082-.4137-.0561c.0726.0393.1685.1084-.0195.0943.5233.1862-.1088-.0973.4332-.0382z"/><path d="m35.1564 32.7002c-.2219.0189.0056.1187-.005.1666.1397-.0577.1733-.0796.005-.1666z"/><path d="m44.3411 31.3926.3371.178c-.0589-.2926-.1302-.0551-.3371-.178z"/><path d="m42.7255 29.3027-.2004.1644.2736.0816z"/><path d="m44.7314 28.2746.0492.0756-.1368-.2867z"/><path d="m35.4385 10.6133.087.056c-.0213-.0285-.0522-.0484-.087-.056z"/><path d="m27.2488 10.9415c.0628-.0122.0887-.0378.0915-.0587-.0581.0221-.1058.0411-.0915.0587z"/><path d="m25.8486 10.8974.0832.0019c-.0128-.0066-.0269-.0103-.0413-.0106-.0145-.0003-.0288.0026-.0419.0087z"/><path d="m35.4385 10.6134-.2213-.1466c-.0128.1568.1141.1138.2213.1466z"/><path d="m39.0463 10.303.0665.003c.0211-.0529.0387-.1072.0527-.1624z"/><path d="m41.8216 10.4775c-.0629-.0178-.0808.2215-.1032.3272.0338-.0987.0795-.1425.1343-.1567-.0017-.0581-.0122-.1156-.0311-.1705z"/><path d="m37.0591 10.141c-.0038-.0482-.013-.0958-.0275-.14198.0013.04848.0106.09648.0275.14198z"/><path d="m23.2865 10.8065.0114.0036c.0663-.0068.0286-.0085-.0114-.0036z"/><path d="m17.3748 10.1113c.0124.0521.0336.1016.0625.1467-.0079-.0535-.0294-.104-.0625-.1467z"/><path d="m21.7848 10.931-.1104-.0374c.0347.0181.0719.0307.1104.0374z"/><path d="m15.1028 10.7342c-.0594-.0172-.0801-.0559-.1601-.0078.0066.0125.0151.0238.0252.0336.0059-.012.0145-.0224.0251-.0305.0106-.008.0229-.0135.036-.016.013-.0025.0265-.0019.0393.0017s.0247.0101.0345.019z"/><path d="m44.5624 11.0087c-.0481-.0116-.0954-.0266-.1414-.045l-.0352.0429c-.0625-.0046-.1859-.0144-.1637-.0504-.2313.0557.0401.0398-.0936.1004-.302-.1077-.8263.0846-.8982-.1749-.1057.1282.2887.0996-.0303.1884-.0965-.3071-.3696.0564-.6463-.0932.0811-.1894.3428-.0681.0655-.2528-.1602.3173-.536-.1141-.7666-.0749-.0058.3064-.5013.1055-.8878.2068.0226-.1182-.7341-.2282-1.098-.4001l.0095-.0694c-.0631.4165-.437.3299-.7068.4186.0063-.2703.0533-.376.1983-.487l-.2551-.012c-.0229.0664-.0626.1257-.1153.1721-.0527.0463-.1166.0782-.1854.0924l.0585-.3443c-.3395-.0055-.6769.3944-1.1177.1377-.0188.3541.363.9599-.0946 1.208-.0203-.1887-.0427-.5142.0768-.5923-.0391.0249-.1385.1591-.2195.0787l.1791-.3203c-.2011-.1417-.0996.2667-.2591.2381-.0013-.2735-.1208-.1952-.1016-.4132.0401-.026.1406.114.1998.0081-.1059-.0323-.2033-.0875-.2854-.1617-.082-.0743-.1467-.1657-.1893-.2678.0182.1584.0062.3735-.1246.409-.3391.0187-.1217-.3381-.3221-.4856-.0789.1948-.2987-.0104-.2975.4144-.0993-.0017-.121-.2003-.1611-.3156-.1727.1863-.8194.0612-.6139.5143l.0453.0293-.0282.0192c-.5687.433-1.1994-.2154-1.7672-.011l-.0013-.1383c-.3382.1714-.7569.1264-.9956.4184-.1008.0017-.2417-.2307-.2012-.3875-.2588.1118-.2856.2526-.6654.0618.2582-.2337-.0934-.1895.2657-.1761-.3401-.0919-.4199-.2789-.7776.078.1184-.3217-.2612-.3746-.4204-.2687l.2407.2029c-.1631.0426-.3333.0508-.4997.0241l.0804-.4019c-.3499-.20626-.6583.0437-.947.2313-.2885.1936-.5579.3038-.8263.0219-.1791.2515.3782.1027.2191.3998-.3192-.0236-.6575-.4071-.757-.3806-.4378-.063-.3997.4744-.8573.4283.0596.0761.1187.3168-.2212.4066-.3195-.0241-.397-.293-.197-.3834.0763-.017.1134.0035.1107.0311.1023-.0409.2366-.0979.1092-.1687l-.04.0884c-.1593-.0613-.5968.0207-.496-.1151-.2393.1043-.1008.1304.0779.145-.4099-.0494-.6378.0832-1.0593.067.0674.0242.1302.0881.0636.0932-.618-.0161-.2699.1286-.6877.1722-.239-.0676.0821-.1894-.3379-.1042-.2579-.0401-.0565-.1268.045-.1746-.312.0568-.6329.04-.9373-.0489l.2015-.0394c-.1056.0198-.2131.0269-.3204.021l.117.0983c-.1189-.0175-.2195-.0204-.2179-.0614-.1214.0616.0964.1648-.1452.2488-.159-.0533-.4812.0456-.5383-.1017.4606.0713.0316-.1086.2922-.1337-.0771.0005-.1538-.0097-.2281-.0303-.0181-.0178.0164-.0278.0488-.0323-.4793-.1847-.2165.1454-.711.0924.0613-.0852-.1176-.1907-.1982-.1903.1998.0421.0982.1721-.0836.229-.3185-.1229-.3436.0198-.5098-.0057l.1903.0609c-.0624.1042-.2212.0818-.4415.102-.0077-.0371.0185-.0533.05-.0613-.2311.0878-.5205-.3345-.8282-.2276-.1604-.1263-.0202-.2896-.1607-.3883-.3806.1411-.42-.3268-.8207-.2111.1204.2678.1396.1999-.1403.4119.22-.0329.4399-.0703.6602-.0821-.1453.0889-.2854.1861-.4197.2909.1999.0148.4196-.1067.5401-.0513-.1998.1576-.1797.1111-.081.3033-.2793-.3744-.5386.1848-.8588-.0771l-.0009-.6404c-.4808-.3658-.8393.2562-1.4586.083l.2002.1259c-.0781.282-.38.0376-.5778.1581.0147-.2407-.1114-.3253-.1991-.4707.0133.1761-.4512.0041-.4994.4799l-.28-.2965c-.4994-.0897-.5568.6898-1.0363.6325.14-.2497-.0798-.3882.2375-.5901-.1596.0125-.3037-.0137-.3037.1382-.0954-.1256-.4376.3248-.5876.1383-.0659.0982-.0843.3157-.2637.31-.0112-.0323-.0115-.0674-.0009-.0998.0009.101-.2784.1529-.1182.3643-.5013-.5603-1.3739.1005-1.8082-.2562-.3473.0942-.7654.2104-1.081.2634.0055-.0093.0101-.0192.0135-.0295l-.1506.034-.0697.0144c-.0629.0657-.1406.1154-.2267.1448-.086.0295-.1779.0378-.2678.0244-.2319-.0321.1707-.0763.1258-.0908l-.4306.1111.0952-.0025c.2855-.001.5777.0914.5678.1929-.0036.0365-.0428.0639-.1059.0797.2672.0799.5295.1751.7858.285.4563-.0324.9149-.0051 1.3641.0811.1484.0257.2942.0644.4357.1159.2031-.0161.4072.0129.5978.0849.1598.0627.6605.3365 1.1303.5397.0117-.0416.0132-.0854.0043-.1277.4361.5562.8551-.1143 1.1565.1213l.1278-.0301c.2132-.0456.4357-.0047.6188.1136l1.7287-.5303c-.0182.5238-.8157.1464-.7749.6975.6973-.3002 1.0939-.8057 1.7902-.8044.1806.0201-.099.2128-.1583.302.6961-.3265 1.3507-.3359 1.97-.6256-.0012.0261-.0679.068-.1309.1036.1224-.0344.2857-.0211.2699-.14l-.119.0567c-.199-.1624.4812-.4437.5022-.5114-.2035.3335.6168.0199.2918.4248.0804-.0346.1811-.0906.1614-.154.1203.0072.1589.0379.0385.1266.4388-.1073.2811-.1846.6799-.2098-.0008.0418-.081.0628-.1214.1155.2248-.1266.4829-.1817.7398-.1581-.0197.0245.0198.0553-.0808.0566.5342-.1005 1.0782-.1391 1.6212-.1151-.1842.1949.2175.0792.2543.2697l.3416-.0164-.139-.1119c.2999.0388.5621-.1107.8211-.0096l-.2213.0722.5614.019-.3197-.1271c.3012-.1044-.0375-.3125.3623-.2285-.0806.0263.2996.0064.4587.189l-.001.0007c.0714-.0587.1566-.0985.2476-.1155.0909-.017.1847-.0107.2725.0183.0594.1087-.0404.357-.0017.4289.1418-.2619.7012.0062.8809-.3189-.051.0975-.065.2101-.0394.317l.1185-.2515c.1403.0904.1612.1347.1413.2967.4186.0815-.1409-.5105.3582-.2653-.0385.0205-.0192.0634-.0996.1002.5.1579.9584-.1442 1.418.0134.1425.4656-.3976.0982-.2368.4875.6581-.0384 1.3557-.5123 1.9954-.3852l-.1199-.0584c.0766-.7161.4808.3641.7978.0319-.0781.0533-.0968.4062-.0769.3249.4389.1338.8901-.1577 1.5475-.4077l-.0788.198c.2603.1752.6793.094.9586.174.0792-.1992.2386-.1722.1374-.4551.8744 1.0636 1.6243-.6335 2.3981.1889-.0906.0084-.2138.1726-.1416.1674l.6441-.2179c-.0558-.2829-.0875-.1659-.2273-.3841.0359-.0854.0935-.1599.1673-.2159.0737-.0561.1609-.0917.2528-.1034-.288.1977.0101.4567.1382.598-.0225-.0837.0191-.1808.007-.2665.346.4641.0476-.5539.5145-.2477l-.0221.1394c.1716-.0819.3278-.2642.5148-.2323.0819.282-.1818.1431-.1896.386.261-.0498.5073-.5627.7487-.3036-.11.0809-.2698.0922-.3795.1772.263.3047.2914.2111.4836.2375l-.0189-.0044.4445.0692-.114-.0605c.3169-.6529.664-.1991 1.0991-.5826-.4234.3453-.0678.1901-.0971.408.1135.0446.2853.0744.2376.1418.0261-.0279.0575-.0502.0923-.0658.0511-.1227.2651-.2478.6441-.3115.4921-.0991.9543-.1921 1.3384-.2694-.0652-.0148-.1284-.0378-.1878-.0686z"/><path d="m35.54 10.6762-.0152-.0092c.0146.017.0257.0367.0325.0581-.0069-.0159-.0127-.0322-.0173-.0489z"/><path d="m39.4468 11.8613c.0081.0326.0266.0616.0527.0826-.0105-.0315-.0286-.0598-.0527-.0826z"/><path d="m41.1243 11.752.2385.0614c-.0769-.0294-.1569-.0501-.2385-.0614z"/><path d="m42.4142 11.6745c.012-.0301.02-.0615.0239-.0936l-.0025-.0008z"/><path d="m21.8938 12.1465-.05.0189c-.1169.0616-.0373.0295.05-.0189z"/><path d="m27.9946 11.6953c-.0611.0368-.1267.0659-.195.0865.1092.026.1939.0392.195-.0865z"/><path d="m27.515 11.7537c.0884.0432.1894.0532.2846.0282-.0914-.0316-.1888-.0413-.2846-.0282z"/><path d="m43.6003 10.8659.4365.0675c-.0769-.0412-.1781-.113.0202-.0936-.552-.2008.1148.1003-.4567.0261z"/><path d="m42.247 10.6371c.2337-.0127-.0047-.1188.0069-.1664-.1473.0538-.1829.0747-.0069.1664z"/><path d="m32.4914 10.4821.018-.3376c-.1792.0617.0005.1299-.018.3376z"/><path d="m30.6552 12.1446.1775.1968.0792-.276z"/><path d="m29.5202 10.1658.078-.0515-.2975.1439z"/><path d="m11.145 25.9648-.0582.0514c.0254-.0087.0464-.0272.0582-.0514z"/><path d="m11.0153 20.9955c.0024.0142.0091.0272.0192.0373.0101.0102.0231.017.0372.0195-.0207-.0357-.0384-.065-.0564-.0568z"/><path d="m11.0929 20.1484-.0039.0493c.012-.0187.0172-.0375.0039-.0493z"/><path d="m11.1445 25.9659.152-.1308c-.1565-.0113-.1166.0665-.152.1308z"/><path d="m11.3672 28.1572-.0045.0403.1611.0356z"/><path d="m11.1243 29.8356c.0194-.0377-.2195-.054-.3245-.07.0978.0227.1405.0514.1533.0849.0574.0004.1148-.0046.1712-.0149z"/><path d="m11.577 26.9578c.0478-.0011.0955-.0056.1427-.0134-.0479-.0004-.0957.0041-.1427.0134z"/><path d="m11.246 18.5986-.0038.0066c.005.0393.0076.0171.0038-.0066z"/><path d="m12.0844 15.0332c-.0506.006-.1003.0175-.1482.0346.051-.0031.1011-.0148.1482-.0346z"/><path d="m11.1649 17.6871.0418-.066c-.0184.0188-.0327.0413-.0418.066z"/><path d="m11.5166 13.6436c.0189-.0359.0585-.0477.012-.0977-.0121.0034-.0237.0083-.0346.0146.0429.0184.0658.0425.0226.0831z"/><path d="m10.5281 31.4843c.0132-.0298.0294-.0581.0483-.0847l-.042-.0222c.0062-.0378.0189-.1124.0543-.0981-.0501-.1413-.0407.0235-.0979-.0589.1149-.1805-.0646-.5026.1965-.5403-.1255-.0669-.1065.1727-.1876-.0226.3093-.0514-.0475-.2252.109-.3894.1873.0535.0597.2093.251.0454-.3133-.1044.1271-.3221.0934-.4627-.3061-.0105-.0933-.3061-.1851-.5426.12.0165.2403-.4396.4247-.6561l.0688.0074c-.413-.0478-.3167-.2724-.3991-.4378.1715-.0182.3436.0286.4821.1313l.0182-.1543c-.0552-.0073-.1077-.0284-.1527-.0612-.0449-.0329-.0809-.0766-.1046-.127l.3428.0433c.014-.2055-.3777-.4191-.1103-.6804-.3536-.0194-.9684.198-1.2053-.0849.189-.008.515-.0141.5902.0601-.024-.0242-.1557-.0875-.0734-.1348l.3159.1159c.1464-.1186-.2642-.0664-.2317-.1624.2733.0055.198-.0688.4153-.0521.0252.0249-.1173.0825-.0127.1208.0504-.0741.1156-.1371.1915-.1848.0758-.0478.1607-.0795.2493-.093-.1587.0075-.3734-.0048-.4058-.0848-.011-.2058.3402-.066.493-.184-.1923-.0523.0178-.1808-.4069-.1897.0043-.0602.2033-.0688.3194-.0905-.182-.1088-.0411-.4978-.4992-.3837l-.0305.0269-.0184-.0176c-.419-.3544.2444-.7217.0539-1.0704l.1383.0024c-.1631-.2088-.108-.4614-.3941-.6127.0006-.0611.2364-.1412.3923-.1131-.1056-.1593-.2456-.1788-.0457-.4044.2272.1617.1917-.0524.1695.1649.1002-.2039.289-.248-.0591-.4729.3188.0792.3809-.1496.2788-.2485l-.2087.1411c-.0385-.0967-.0427-.2037-.012-.3032l.3998.0579c.2147-.2073-.0277-.3998-.2083-.579-.1864-.1793-.2901-.345-.0017-.5011-.2471-.1143-.1119.2267-.405.1236.0314-.1929.4228-.3891.3988-.4499.0735-.2638-.4645-.253-.4074-.5293-.0723.0333-.1548.0369-.2298.0101s-.1365-.0819-.1714-.1534c.0091-.0404.0288-.0775.0572-.1075s.0643-.0518.1041-.0632c.0397-.0113.0818-.0117.1217-.0011.0399.0105.0763.0317.1052.0611.0153.0466-.0061.0687-.0338.0664.0385.063.0923.1457.1661.07l-.0874-.0262c.0652-.0951-.0061-.362.1272-.2978-.0984-.1474-.1279-.0642-.1469.0438.0594-.2472-.0677-.3883-.0412-.6433-.0259.0403-.0911.0768-.0947.0364.0307-.3741-.1201-.1664-.1554-.4206.0733-.1432.1871.0541.1124-.2023.0459-.1554.1288-.0314.1734.0312-.1082-.2341.048-.4342.0715-.5668l.0344.123c-.0171-.0633-.0215-.1295-.013-.1946l-.1013.0687c.0204-.0717.0258-.1325.0666-.1307-.0585-.0749-.1669.0547-.2451-.0935.0571-.0952-.0338-.2926.1147-.3239-.0823.2774.1079.0217.1266.1801.0016-.0479.0139-.0949.0359-.1374.0182-.0106.0273.0105.0311.0303.1962-.2862-.1402-.1346-.0752-.433.084.0391.1926-.0668.1969-.1156-.0507.12-.1756.0554-.2264-.0559.1354-.1901-.0078-.2086.0234-.3087l-.0681.1138c-.1043-.0402-.0737-.1357-.0917-.2697.0124-.0032.0255-.0018.0368.0041.0113.0058.0201.0156.0247.0275-.0838-.142.3423-.3077.2417-.4966.13-.0943.2899-.0056.392-.0885-.132-.2338.3368-.247.2308-.4923-.2706.0668-.2031.0799-.4083-.0945.0322.1321.0543.2665.0661.4019-.0881-.0926-.1818-.1797-.2805-.2609-.0197.1207.0965.2566.0382.3283-.1528-.1245-.1068-.1113-.3013-.0559.3811-.1607-.1716-.3305.0979-.5185l.6403.0141c.3767-.2829-.2364-.5144-.0476-.8856l-.1308.1184c-.28-.0538-.0284-.2312-.144-.3537.1653.0052.329-.0327.4753-.1099-.1762.004.007-.2734-.4678-.3135l.3036-.1629c.1016-.3004-.6762-.3531-.6074-.6423.2464.0906.3902-.0394.5842.1574-.0086-.0969.0211-.1837-.1307-.1872.1278-.0549-.3142-.2726-.1241-.3592-.0965-.042-.3135-.0582-.3034-.1668.0331-.006.067-.0054.0999.0017-.1009-.0017-.1465-.1721-.3615-.0798.5662-.2911-.0651-.8347.3001-1.0898-.0937-.2147-.1729-.4355-.2371-.6609l.0291.0089-.0303-.092-.0128-.0426c-.0801-.0786-.1765-.0951-.1572-.3035.0378-.1396.0722.1053.0879.0783l-.1008-.2634.0002.0577c-.0058.1731-.1053.348-.2066.3396-.018-.002-.0349-.0094-.0486-.0211-.0138-.0118-.0237-.0274-.0285-.0449-.089.1642-.1907.3212-.304.4696.0211.2799-.0177.561-.1141.8246-.0292.0919-.0701.1797-.12167.2613.01073.1286-.02571.2566-.10251.3603-.06971.0952-.35338.3924-.56853.6723.04202.0081.08501.01.12757.0055-.56662.2515.09343.5207-.14938.698l.02753.0781c.01809.0678.01546.1396-.00756.2059s-.06538.1243-.12161.1664c.17852.3871.33742.732.48829 1.0594-.52271-.0229-.12465-.4975-.67853-.4853.28412.4292.77824.6811.76063 1.1029-.02446.109-.2103-.0648-.29803-.1028.31962.4293.28371.8258.5704 1.2079-.0264-.0014-.06799-.0428-.10357-.0818.03367.075.01874.1736.13887.1667l-.056-.0734c.1675-.1168.4409.3018.5061.316-.3283-.1307-.0347.3733-.4316.1671.0327.0495.0861.1118.15.1014-.0101.0726-.0418.0953-.1276.0204.0967.2683.1778.1745.1933.4166-.0417-.0014-.0609-.0504-.1124-.0761.0565.0594.0986.1311.1229.2095.0242.0784.0301.1614.0171.2424-.024-.0127-.0557.0107-.0547-.0503.004.3512.1938.601.0758.9848-.1904-.1161-.0844.13-.2758.148l.008.2072.1154-.0816c-.0461.1809.097.3431-.0104.4977l-.0669-.1357-.0325.3396.1347-.1907c.0971.1849.3134-.0156.2197.2247-.0243-.0494-.0136.1814-.2.2735l-.0008-.0006c.0782.0908.178.1844.0845.3174-.1099.0335-.3557-.0326-.42863-.0109.25833.0919-.02314.4247.29743.5411-.1017-.0337-.20957-.0443-.31588-.0311l.24848.0775c-.0383.0389-.0864.0667-.13917.0806-.05281.0139-.10838.0133-.16086-.0018-.09167.2517.51373-.0736.25663.2232-.0197-.0239-.063-.0132-.09773-.0628-.17003.2993.12083.5839-.04789.8587-.46894.0757-.08846-.2431-.48168-.1546.02241.3996.47934.8331.33669 1.2177l.06119-.0712c.71412.0628-.37551.2829-.05126.4826-.1028-.0397-.21261-.0581-.32273-.054-.14454.2628.1359.5428.36993.9468l-.19595-.0522c-.1816.1536-.11037.4093-.19727.5767.19727.0526.16637.1485.45165.0936-1.08358.5055.59345.9986-.24706 1.4487-.00614-.0552-.16738-.1335-.16387-.0897l.20209.3952c.28427-.0274.16797-.0493.38959-.1289.1763.052.3088.1645.309.2618-.1907-.179-.45679-.0044-.60119.07.08421-.0117.18028.0157.26629.0104-.47118.199.5522.0415.2359.3174l-.1384-.0166c.0782.1058.2555.2046.2191.3172-.2832.0431-.1377-.1134-.379-.1237.0417.1593.547.3203.2825.4605-.0784-.0684-.0854-.1654-.167-.2339-.31177.1523-.21937.1717-.25012.2875l.0048-.0114-.07996.2677.06328-.0675c.645.207.1829.4068.5558.6792-.335-.2643-.1884-.0454-.4057-.0681-.04714.0677-.08127.1711-.14731.1407.02503.0144.04666.034.06341.0575.0798.0345.1492.0894.2011.1591s.0846.1519.0947.2383c.0757.3144.1819.6125.2368.817.0178-.0414.0425-.0794.0733-.1124z"/><path d="m11.0779 26.0256.0095-.009c-.0186.009-.0384.0151-.0588.0184z"/><path d="m9.79937 28.3662c-.02995.0032-.0587.0135-.08379.0301.0295-.0049.05788-.0151.08379-.0301z"/><path d="m9.86797 29.3828-.06719.1431c.03021-.0436.05291-.092.06719-.1431z"/><path d="m9.91418 30.167c.03044.0081.06148.0136.09282.0167l.0008-.0016z"/><path d="m9.92983 17.7243-.01862-.0307c-.06148-.0723-.02956-.0233.01862.0307z"/><path d="m10.2436 21.4327c-.0339-.0356-.0617-.0766-.0825-.1212-.0288.0662-.0443.1176.0825.1212z"/><path d="m10.1961 21.1387c-.0216.0223-.0364.0503-.0426.0807-.0063.0304-.0037.062.0075.091.033-.0507.0456-.1121.0351-.1717z"/><path d="m10.6948 30.9043-.0782.2627c.043-.0456.1173-.1052.0931.0144.2141-.3297-.1031.0674-.0149-.2771z"/><path d="m10.9551 30.0891c.007.1419.1189-.0001.166.008-.05-.0905-.0701-.1125-.166-.008z"/><path d="m11.3468 24.183.3371.0186c-.0574-.11-.1299-.0027-.3371-.0186z"/><path d="m9.72831 23.0322-.20036.1044.27354.054z"/><path d="m11.7342 22.3905.0492.0479-.1368-.1835z"/></g></svg>
