<svg fill="none" height="54" viewBox="0 0 54 54" width="54" xmlns="http://www.w3.org/2000/svg" xmlns:xlink="http://www.w3.org/1999/xlink"><clipPath id="a"><path d="m7 11h40.2767v35.7003h-40.2767z"/></clipPath><g clip-path="url(#a)" fill="#8a2432"><path d="m29.2445 42.033-.0384-.0584c.0051.0236.0188.0444.0384.0584z"/><path d="m32.4336 42.88c-.0101-.0051-.0215-.0075-.0328-.0069-.0114.0007-.0224.0042-.0319.0104.0272.0047.0514.0094.0647-.0035z"/><path d="m32.4662 43.2893.0081-.0227c-.0133.0083-.0202.0164-.0081.0227z"/><path d="m29.244 42.0332.096.1523c.0102-.1564-.0482-.1166-.096-.1523z"/><path d="m27.6376 42.3617-.0298-.0004-.0054.1632z"/><path d="m26.3734 42.3374c.0317.0127-.0076-.219-.018-.3228.0038.0979-.008.1434-.03.1613.0121.0549.0282.1089.048.1615z"/><path d="m28.5255 42.4883.0172.1419c-.0022-.0476-.008-.0951-.0172-.1419z"/><path d="m31.9636 43.8298.0052.0011c.0157-.0162.0037-.0115-.0052-.0011z"/><path d="m29.4331 43.7422c.0117.0486.0276.0961.0473.1421-.0099-.0491-.0258-.0968-.0473-.1421z"/><path d="m31.4878 44.1735-.0566-.0221c.0167.012.0361.0196.0566.0221z"/><path d="m28.5044 44.4372c-.0281-.0169-.0396-.0559-.073-.0077l.0134.0337c.0104-.0433.0262-.0667.0596-.026z"/><path d="m25.0075 42.1181c.0262.0046.0518.0119.0765.0219l.0043-.0431c.0296-.0044.0886-.0104.088.0246.0907-.0779-.029-.0307.016-.1019.1659.0627.3588-.176.4566.0641.0166-.1348-.1576-.0638-.0331-.1842.1203.287.1575-.0914.3204.0245.0055.1903-.1398.1014.0277.2499.0018-.322.2676.0557.3618.0017-.0588-.2968.2085-.1369.3673-.262.0115.1219.3741.171.5606.3314l.0049.0689c-.0278-.413.1554-.3475.2694-.4445.0352.1635.0233.3337-.0344.4907l.1145.0017c-.004-.0509.0036-.1019.0222-.1494.0186-.0474.0477-.0901.0851-.1247l.0079.3433c.1471-.0077.2698-.4053.4851-.159-.0091-.3531-.2335-.9532-.0262-1.2057.036.1956.0351.3962-.0027.5915.0166-.0254.0563-.1602.0987-.0812l-.0659.3216c.1002.1387.0312-.2671.1074-.2406.014.2725.0652.1935.0663.4109-.0168.0261-.0694-.1124-.0909-.0059.1279.1077.2103.2597.2306.4257-.0137-.1584-.0165-.3729.0416-.408.1526-.0186.0643.3375.1556.4858.0309-.1939.1299.0103.1252-.4133.0448.0033.0556.2022.0738.3181.075-.1845.361-.0483.2778-.5047l-.0204-.0305.0133-.0184c.2764-.4183.5396.2472.8043.0743l-.0105.138c.1668-.1554.3508-.0845.4937-.3585.0473.0048.0829.2444.0448.3974.1148-.09.1564-.2323.2715-.0072-.1451.2051-.0022.1928-.1349.1492.1144.1223.0884.3035.3098.0005-.1235.2991-.0089.3872.0748.3072l-.0255-.2233c.0324-.0105.067-.0124.1003-.0053s.0642.0229.0894.0458l-.1602.3687c.0408.2307.2055.0488.3807-.0746.1685-.128.3288-.1626.2405.1254.1881-.1734-.0457-.1611.1532-.3822.0994.0962-.0473.4726-.0189.4666.0314.1236.4123-.2693.4711-.1091.0492-.0577.2229-.2421.378-.1636.0528.1438-.1893.2736-.2973.2642-.0254-.0118-.0123-.0324.0118-.0464-.0294-.0085-.0607-.0069-.0891.0045-.0283.0114-.052.0319-.0673.0584l.0787-.0388c-.0265.0732.0756.1414-.0596.1701.1217.0091.1327-.0213.131-.0755-.0069.1124.1303.1369.1123.2645.0244-.0169.0888-.0374.0937-.0161-.0569.1972.1255.1046.1208.2707-.0937.0652-.1646-.0867-.1466.0782-.0802.0604-.1175-.0426-.1539-.0854.0566.1559-.1469.1608-.1996.1866l.0108-.0681c-.0017.0164-.0074.0322-.0165.0459-.0092.0137-.0216.0249-.0361.0328l.099.0451c-.0438.0133-.0701.0332-.0971.0028.0088.0732.1416.099.1229.2197-.0814-.0043-.1338.1516-.2363.0363.1925-.0336-.0491-.0951.0164-.1674-.0124.0086-.0263.0145-.0409.0176-.0147.003-.0298.0031-.0445.0002-.0028-.0019-.0052-.0043-.0069-.0072-.0018-.003-.0028-.0062-.0032-.0096-.0003-.0033.0002-.0067.0013-.0099.0012-.0032.003-.0061.0054-.0085-.2476-.0828.01.1567-.1867.2027-.0176-.0871-.1243-.15-.152-.142.0871.0127.1103.141.0646.2211-.1709-.0711-.1253.0646-.2023.0615l.0984.0338c.0127.1061-.0606.1062-.1462.1552-.0151-.0345-.0095-.0537.0008-.0656-.0717.1172-.3117-.256-.4051-.1195-.1014-.1043-.081-.2772-.1654-.3566-.1295.1771-.2523-.2609-.3983-.1295.1099.2519.1052.1833.0274.4084.088-.0484.1785-.0922.271-.1313l-.1193.316c.0939.0018.1623-.1382.2276-.0989-.0505.173-.0537.1259.0355.3001-.2088-.3279-.2037.2247-.4054-.0006l-.1333-.6245c-.2762-.3162-.3128.3121-.617.1769l.1083.1129c.0118.2832-.162.0582-.231.1889-.0226-.1604-.0752-.315-.155-.456.03.1743-.1928.0245-.1555.4987l-.1592-.2841c-.2248-.0652-.1757.7014-.4027.663.0431-.2526-.0655-.3818.057-.5948-.0687.0193-.134-.0032-.1223.1478-.0503-.1215-.1725.3362-.2528.1486-.0239.0975-.0204.3138-.1033.3091-.0066-.0327-.0084-.0662-.0052-.0995.0058.0999-.1208.1552-.0374.3643-.1302-.2957-.2823-.2333-.4368-.1873-.1534.0526-.3067.0903-.4039-.0729-.1635.0903-.3331.1689-.5076.2352l.0077-.0282-.0717.03-.0333.0125c-.0636.0761-.0808.1685-.2419.1406-.1063-.0435.0851-.0597.0648-.0753l-.2093.0763.0448.0036c.1339.0161.2664.1112.256.207-.0012.0154-.0072.0301-.017.042-.0099.0119-.0233.0204-.0382.0245.1297.0989.2518.2073.3656.3242.2275-.0081.4546.0252.6703.0983.0778.0296.151.07.2176.12.0543-.0051.1092.001.1611.0178.052.0168.0999.044.141.0799.0826.0768.3468.3157.6084.5171.0029-.0424.0004-.085-.0075-.1267.2747.5519.4325-.1427.6108.083l.0629-.0364c.0569-.0258.1206-.032.1814-.0178s.1152.0481.1548.0964c.289-.21.5453-.4549.7945-.6545.0911.5061-.3848.2137-.2692.7532.3136-.369.4114-.8745.7494-.9649.0948.0027-.001.2117-.0109.3076.2601-.3822.6388-.4458.856-.8539.0019.0433-.0086.0864-.0302.124.0517-.0553.1423-.0815.0877-.1879l-.0397.0787c-.1549-.1128.0661-.5131.0374-.576.0489.3466.3018-.1185.3381.3147.0174-.0265.0271-.0573.0278-.089.0008-.0316-.0074-.0629-.0235-.0901.0606-.0283.0972-.0149.0839.0989.1569-.234.0381-.2371.2029-.3953.0265.0324.0039.0776.0174.1344.0164-.1588.0911-.3058.2097-.4127.0112.0243.0509.0262.0112.072.2248-.2922.1482-.5854.2921-.9251.1869.1301.0926-.1255.2717-.1611-.0021-.0822-.0135-.1639-.0338-.2436l-.0974.1123c.013-.2169-.1755-.3311-.1572-.5193.0442.0326.0862.0682.1258.1063-.0395-.1204-.0937-.2355-.1612-.3427l-.0035.242c-.1853-.1059-.2654.1712-.3048-.062.0465.0174-.0856-.126-.0117-.32l.0009-.0001c-.121-.0037-.2399.0096-.2737-.132.0438-.1051.2472-.2584.2766-.3278-.2264.1427-.3396-.2725-.5968-.0425.0771-.0742.1386-.163.1809-.2612l-.1851.1827c-.0131-.0523-.0131-.107 0-.1593.0131-.0524.0388-.1006.075-.1406-.1761-.1915-.167.4844-.3004.14.0278-.009.0368-.0525.0931-.0653-.1911-.2779-.5362-.0807-.7215-.3109.0528-.4745.2441-.0222.273-.422-.3917-.0993-.9158.2846-1.1907.1263l.0532.0662c-.1143.7068-.1998-.3959-.3937-.081.0401-.1019.0626-.2099.0667-.3194-.2136-.1565-.4709.1098-.8055.3413l.0461-.1958c-.1262-.1833-.3428-.1122-.4852-.1942-.041.1981-.1207.1695-.0687.4535-.2223-.5519-.437-.3724-.6238-.1773-.191.1937-.3581.3937-.586.019.0447-.0113.0936-.1787.0574-.171l-.3052.2393c.0577.2784.0617.1613.152.3725-.0212.1793-.093.3218-.1688.3317.1163-.2066-.0549-.4525-.1371-.5882.021.082.012.1803.0281.2648-.2267-.4415.0457.5516-.217.2729l-.0084-.1388c-.0724.0898-.12.2781-.2132.259-.0828-.2725.065-.1521.0332-.3916-.1226.0657-.1554.5837-.3131.3469.0381-.0892.1133-.1092.1527-.1998-.1778-.2843-.1781-.1903-.2757-.1982l.0099.0026c-.0762-.0126-.153-.0214-.2301-.0262l.0671.048c-.0287.6603-.2823.256-.407.6618.1241-.3692-.0095-.1885-.0444-.4007-.0647-.0331-.1552-.0455-.1474-.1149-.0049.0257-.0151.0502-.03.0717-.0045.0762-.028.15-.0684.2148-.0404.0647-.0963.1184-.1627.1559-.219.1489-.4092.3257-.5464.4185.0373.0075.0731.0211.1061.0403z"/><path d="m29.1995 41.9664.0066.0095c-.0067-.0191-.0113-.0388-.0137-.0589z"/><path d="m27.2741 40.8314c-.0064-.0287-.0188-.0558-.0363-.0794.008.0281.0203.0549.0363.0794z"/><path d="m26.4617 41.0462-.1291-.0384c.0402.0209.084.0339.1291.0384z"/><path d="m25.8473 41.2402.0089.0917.0013.0006z"/><path d="m31.9687 45.3115-.0197.0279c-.0403.0821-.009.0355.0197-.0279z"/><path d="m32.8422 42.1465c.0482.0009.0957.0124.1389.0338-.0212-.07-.0459-.1206-.1389-.0338z"/><path d="m33.0643 42.3362c.0031-.0313-.0031-.0628-.018-.0905-.0148-.0277-.0376-.0503-.0653-.065.0086.06.0381.115.0833.1555z"/><path d="m25.4843 42.1381c-.0729-.0088-.1457-.0156-.2173-.017.0461.0288.1113.0852.0158.0879.3049.1307-.079-.0815.2015-.0709z"/><path d="m26.15 42.2197c-.1021.0341.0278.1134.0325.1599.0536-.0656.066-.0887-.0325-.1599z"/><path d="m30.5478 42.2988-.0505.3333c.0681-.0489.0177-.1286.0505-.3333z"/><path d="m31.7997 40.939-.0312-.2232-.1331.2436z"/><path d="m31.4386 42.9555-.0432.0324.1476-.0768z"/><path d="m23.4607 44.0576.0103.0635c.0037-.0217 0-.044-.0103-.0635z"/><path d="m21.9705 42.7848c.0084.0107.0487.0055.0858-.0033-.0284-.0065-.058-.0053-.0858.0033z"/><path d="m22.466 42.5244-.0298.0079c.0359-.0028.0563-.0051.0298-.0079z"/><path d="m23.4608 44.0572-.0244-.1646c-.0524.1476.0006.1211.0244.1646z"/><path d="m24.6793 44.1226.0205.0081.0516-.1541z"/><path d="m25.5403 44.5142c-.0179-.0221-.0596.2086-.083.3098.0262-.0935.0477-.1322.0679-.1422z"/><path d="m24.098 43.7803.0292-.1397z"/><path d="m22.9189 42.4838-.004-.0024c.0206.0163.0175.0131.004.0024z"/><path d="m23.8798 42.7527c-.0006-.0496-.0042-.0991-.0107-.1482-.0007.0496.0028.0992.0107.1482z"/><path d="m22.7343 42.0723.0295.0186c-.0151-.0147-.0238-.0183-.0295-.0186z"/><path d="m24.6875 42.2189c.0202.0203.025.0601.0578.0162l-.0067-.0349c-.0136.0417-.0295.0632-.0511.0187z"/><path d="m26.401 45.1778c-.0168-.0142-.0319-.0302-.0451-.0478l-.0157.0386c-.0212-.0064-.0628-.0219-.052-.0543-.0845.0404.0103.039-.0413.0894-.0931-.118-.2946.0414-.2892-.218-.0513.1205.0874.1144-.0324.184.0039-.3095-.1339.0341-.2099-.1286.0528-.1808.1251-.0492.0554-.2441-.0964.3005-.1654-.1379-.2456-.1173-.0475.2971-.1826.0652-.3279.1347.0278-.1181-.2055-.2734-.2872-.476l.0167-.067c-.1022.402-.2084.2856-.3158.3493.0225-.1632.0796-.3196.1674-.4589l-.0788-.0317c-.049.1339-.0905.2001-.1543.2329l.0948-.3292c-.1036-.0342-.3057.3184-.3833.0278-.0962.3398-.1148.9666-.3324 1.1591.0317-.1954.0902-.3855.1738-.5649-.0189.0203-.0857.1399-.0924.0543l.1394-.2919c-.0295-.1563-.0994.248-.1448.2046.0693-.2637.0108-.2005.0732-.4087.0192-.0206.0158.124.0616.0273-.0595-.1467-.0726-.3082-.0373-.4626-.0362.1546-.0965.3605-.1476.3811-.1124-.0163.0527-.3373.0317-.4997-.0778.1782-.0879-.041-.2074.3664-.0306-.0126.0192-.2052.04-.3201-.1065.1612-.2686-.0319-.3416.4236l.0056.0332-.0148.015c-.3163.346-.3106-.3461-.5507-.2255l.0469-.1301c-.1627.1171-.2766.0199-.4562.259-.0328-.0124.0141-.2471.0854-.3865-.1145.0694-.1813.193-.173-.0348.1554-.1764.0735-.1852.1269-.1235-.022-.1316.0897-.307-.1635-.0405.1963-.2706.1979-.3678.1194-.2997l-.1056.2142c-.0593.0216-.0704-.0205-.0772-.06l.294-.3321c.1445-.2259-.0179-.0618-.1931.0254-.0837.0456-.1647.0773-.1797.0584-.0082-.0086.0019-.0306.0358-.0666l.0706-.0652.1911-.1368c-.0653.0318-.1268.0709-.1834.1164-.199.1403-.1224.1453-.3651.2839-.0041-.0162.0251-.0537.1163-.1271.1337-.1256.2794-.2378.4351-.3348.2144-.1301-.6045.211-.4572.0587-.1422.0527-.5384.2105-.6719.1397.0648-.124.6189-.2361.7321-.2293.011.01-.036.028-.0852.0401.094.0081.1883-.0108.2718-.0545l-.1453.0335c.1121-.0786.2421-.1278.3782-.1433-.1083-.0039-.2158.0183-.3137.0647.2199-.0874.0324-.0932.1896-.1495-.078.0095-.1567.0115-.2351.006.2156-.0829-.2297-.0529-.231-.1435.2204-.0132.4414.0821.3295-.0044.1405.0119.2787.0426.411.0913-.2026-.0837.1806-.0007.2091.0234l.0819.0359c-.0504-.0197-.0456-.0216-.0456-.0216l-.2042-.0881c.0448.0082.0877.0243.1267.0476-.1648-.0774-.3235-.1672-.4749-.2683.1103.0384-.0188-.1198.206.035-.1201-.0116.1718.129.2235.1881-.0057-.0076.0046-.0066.029.0061l.057.043c.1973.1419-.2371-.1896-.1791-.219.053.0629.1115.1211.1747.1738-.0848-.0797-.1569-.172-.2136-.2736.104.0697-.0022-.0901.0331-.0928l-.0565-.0292c-.0656-.1244-.0236-.1245.005-.1814.0132.0213.0204.0456.0211.0706.0061-.1297.195.2339.2397.1213.0667.1113.0762.2784.1249.365.0525-.1451.0933.2986.1756.1973-.055-.2663-.0586-.1976-.0017-.4057-.0502.0254-.0988.0537-.1456.0847.0099-.0988.0292-.1964.0577-.2915-.0672-.0177-.0861.1133-.1255.0626.0261-.1002.0137-.2065-.0347-.298.122.3506.1368-.1931.2649.061l.045.6371c.1362.3591.2107-.2523.4011-.0634l-.057-.1308c.0306-.2805.1169-.0279.1831-.1432-.0087.1597.004.3199.0379.4763.006-.1768.1361.0106.1878-.4616l.0697.3068c.1574.1046.2418-.6609.4045-.5877-.0699.2431-.004.3881-.1327.5784.0573-.0072.106.0234.1185-.1273.0228.127.1814-.3073.2213-.113.031-.0941.053-.3089.1167-.2952.0018.0333-.0004.0667-.0066.0994.007-.0998.1106-.1418.0666-.3583.1504.569.4946-.0717.6573.2903.1317-.0802.2806-.216.3891-.2809l-.0013.029.0511-.0412.0236-.0177c.0344-.0855.0269-.1746.1489-.185.0889.0179-.0465.0767-.0284.0874l.1315-.1208-.0329.0066c-.0495.0093-.1008-.0006-.1432-.0279-.0424-.0272-.0728-.0697-.0848-.1186-.003-.0133-.0025-.0271.0014-.0401s.0111-.0248.0208-.0342c-.1073-.0759-.2028-.1672-.2835-.2709-.1435.0289-.2927.0027-.4177-.0736-.0514-.0338-.0964-.0765-.1328-.1261-.0384-.0001-.0761-.0111-.1085-.0318-.0324-.0206-.0582-.0501-.0746-.0849-.0423-.0751-.2044-.3632-.3261-.5797-.0076.0418-.0115.084-.0119.1264-.0981-.5822-.3052.0768-.3983-.1768l-.0504.025c-.0856.0416-.1704-.0239-.233-.1382-.2517.1524-.4976.3433-.7312.4997-.0085-.5153.3474-.1442.3326-.6946-.3275.3077-.4583.7844-.7759.8394-.0974-.0096.0193-.2113.0456-.3082-.1452.1462-.3024.2799-.47.3998l-.0531.0429c-.0303-.0561.0471.2039.0136.1416l-.0281.0223-.1091.0936c-.0723.0611-.131.1364-.1726.2214-.0123-.0202-.0001-.066.0148-.1067-.0439.0518-.1343.0766-.0632.1625l.0288-.0673c.1618.0905.0151.4227.0747.4732-.1341-.2811-.2483.117-.4035-.229-.0103.0252-.0117.0531-.004.0792s.024.0488.0464.0644c-.0533.0263-.0936.0189-.1124-.0706-.0969.1895.0327.1873-.0886.314-.0378-.0216-.029-.056-.06-.097.0073.1148.0388.2117-.1078.3009-.0171-.0155-.0653-.0154-.0243-.0464-.2477.1891-.0841.3656-.3508.5883-.2248-.082-.1495.08-.4065.1057l-.0183.1555.1649-.0708c-.071.1336.0505.2342-.0267.3539-.0443-.0136-.0838-.0397-.1138-.0751-.0241.0863.0633.1562.0859.233.0222-.0543.0474-.1074.0754-.159.1669.0882.3597-.0952.2913.0747-.0271-.0232-.0021.1148-.1769.2484l-.0008-.0002c.0856.0327.2077.0429.1452.1679-.0936.0739-.3368.1454-.3989.194.1614-.036.1593.102.2079.1877.1172-.0033.1157.0643.2502.005-.0996.0418-.192.0989-.2738.1694l.2449-.1069c-.0256.0945-.0483.1271-.1836.2178.0639.2064.3526-.3607.3055-.0341-.0263.0001-.0525.0348-.1038.0297.0258.3075.4222.1853.4805.4457-.2182.4352-.194-.0702-.3651.2912.2909.2564.8964-.0581 1.017.155l-.0198-.0719c.2843-.6566.0318.4089.2592.1444-.0583.0918-.1049.1905-.1388.2938.1078.1865.3665-.0221.669-.1756l-.0889.178c.0366.1998.2092.1763.2848.2864.086-.1812.1337-.1371.1793-.4198.0211 1.1254.7264-.4261.794.4383-.0342-.0004-.1167.1473-.0895.149l.2796-.1485c.0224-.1307.0238-.2641.0041-.3952.0669-.1654.158-.2824.2134-.2719-.1015.1816-.1293.3953-.0778.5969.0096-.084.0444-.1749.058-.2598.0261.4845.13-.5371.2286-.199l-.035.1343c.0762-.0666.1637-.2303.2219-.1851-.0235.2827-.0892.1258-.1375.3619.1026-.0258.2778-.51.3156-.2377-.052.0719-.1096.0704-.163.1446.0377.3214.0656.2318.1295.2698l-.0061-.0055c.0475.0346.0972.0661.1487.0944l-.0314-.0658c.2142-.6174.2668-.1537.4714-.4967-.1933.3076-.0494.1804-.0885.3914.034.0524.0912.094.0655.1568.0101-.0216.0242-.0412.0414-.0576.0192-.0633.0534-.1211.0997-.1683s.1034-.0825.1663-.1029l.4929-.1992c-.0239-.0217-.0439-.0472-.0593-.0755z"/><path d="m23.4731 44.1306-.0021-.0105-.0073.0592z"/><path d="m24.4821 45.6787c-.004.0285-.0034.0575.0017.0859.0027-.0286.0021-.0574-.0017-.0859z"/><path d="m25.1003 45.707.0763.0754c-.0196-.0304-.0456-.0562-.0763-.0754z"/><path d="m25.5736 45.7134.0211-.0893-.0008-.0011z"/><path d="m22.0778 41.0142.0159-.025c.039-.0708.0031-.0311-.0159.025z"/><path d="m20.8885 43.3536c-.0344-.01-.0658-.0285-.0913-.0538-.0226.0574-.033.1007.0913.0538z"/><path d="m20.8125 43.166c-.0366.0585-.0418.1042-.0155.1328.0173-.0463.05-.1035.0155-.1328z"/><path d="m26.0852 44.9918c.0455.033.0929.0633.1418.091-.0224-.0434-.0497-.1189.0156-.0876-.1669-.2282.029.1031-.1574-.0034z"/><path d="m25.6578 44.6944c.0796 0 .0147-.1158.0254-.1612-.0561.0449-.0713.0629-.0254.1612z"/><path d="m22.6091 43.5664.1342-.3096c-.0687.0354-.0504.1199-.1342.3096z"/><path d="m21.1744 44.6172-.056.2071.2136-.1945c-.0529.0048-.1062.0006-.1576-.0126z"/><path d="m22.632 42.8211.0435-.0242-.1174.0532z"/><path d="m25.7798 31.2223.0579-.0416c-.0239.006-.0446.0209-.0579.0416z"/><path d="m25.924 35.1732c-.0038-.0123-.0112-.0231-.0213-.0312-.01-.0081-.0222-.013-.035-.0141.0204.0285.038.0518.0563.0453z"/><path d="m25.8496 35.8468.0046-.0382c-.012.0144-.0175.029-.0046.0382z"/><path d="m25.7798 31.2207-.1514.106c.1566.0069.1162-.0544.1514-.106z"/><path d="m25.5514 29.4818.0041-.032-.1612-.025z"/><path d="m25.7963 28.1431c-.0197.0305.2148.0374.3181.0474-.096-.0156-.1376-.0373-.1498-.0635-.0564.0011-.1127.0065-.1683.0161z"/><path d="m25.3439 30.4395-.1425.013c.0478-.0005.0954-.0049.1425-.013z"/><path d="m25.7051 37.078.0039-.0052c-.0038-.0313-.007-.0137-.0039.0052z"/><path d="m24.8827 39.8974c.0498-.0036.0992-.0117.1476-.0244-.0501.0013-.0998.0095-.1476.0244z"/><path d="m25.7914 37.8066-.0415.052c.0178-.0137.032-.0316.0415-.052z"/><path d="m25.4609 41.0166c-.019.0281-.0586.0364-.013.0773l.0346-.0107c-.0424-.0157-.0649-.0354-.0216-.0666z"/><path d="m26.3766 26.8164c-.0125.0244-.0275.0474-.0445.0689l.0395.0164c-.0049.0303-.0174.0901-.0506.0797.0461.1112.0382-.0198.0921.0441-.1109.1471.066.3986-.1929.436.1249.0498.1056-.1405.1864.0127-.3081.0497.0478.1781-.106.3132-.1854-.0376-.0619-.165-.2487-.0294.3089.0747-.117.2596-.0871.3705.3004.0006.089.2412.1793.4272-.1209-.0101-.2389.3556-.4227.5316l-.0688-.0043c.4131.0288.3176.2096.4015.3395-.1667.0192-.3353-.0137-.4825-.0943l-.016.1229c.1409.0275.2136.0651.2585.1444l-.3417-.0276c-.0114.1633.3736.3258.1094.5382.3528.0093.9673-.1754 1.2044.0461-.1971.0255-.3974.0128-.5897-.0374.0241.0189.1558.0669.0739.106l-.316-.0866c-.1454.097.2642.0482.2323.1251-.2727.0005-.1976.0582-.4146.0487-.0249-.0193.1171-.0676.0124-.0962-.1135.128-.2705.2093-.4405.2281.1589-.0085.3733-.0024.4058.0607.0117.1634-.34.058-.4924.1541.1923.0384-.0165.1437.408.1443-.004.0478-.203.0577-.3193.0767.1822.0836.0431.3945.5006.2976l.0303-.0218.0186.0138c.4197.2765-.2403.5771-.0497.852l-.1384-.0004c.1638.1643.1097.3657.3965.4836-.0006.0487-.2361.1143-.3919.0932.1061.1258.2463.1404.0473.3213-.228-.127-.1916.0429-.1704-.1299-.0993.1628-.288.1988.0609.3754-.3185-.0609-.3812.121-.2768.199l.2071-.1133c.0193.0369.0307.0773.0334.1188s-.0033.0831-.0176.1222l-.3995-.0441c-.2072.1654.022.3169.2074.4587.1872.1418.2913.2735.0036.3979.2475.0905.111-.1803.4045-.0988-.0306.1536-.4213.3098-.397.358-.0729.2094.4661.2011.4086.4209.0785-.0273.3195-.0513.4017.1146-.0315.1538-.3087.1854-.3929.0873-.0145-.0371.0074-.0546.0353-.0527-.038-.0502-.0902-.116-.1661-.056l.0876.021c-.0677.0755-.0016.2878-.1355.2365.105.1175.1303.0513.1503-.0345-.0598.1964.0823.3094.0508.512.0268-.0319.0928-.0607.0958-.0285-.0352.2976.1218.1331.1581.3358-.0728.1136-.1876-.0442-.1123.1603-.0441.1234-.1284.0242-.1743-.0259.1118.187-.0451.3451-.0676.4504l-.0348-.0981c.0174.0496.0219.1029.0132.1548l.1014-.0537c-.0209.0568-.0257.1052-.0664.1034.0591.0601.1675-.0421.2451.0765-.0587.0753.0374.2334-.1152.2568.085-.2199-.1058-.0183-.1263-.1445-.0002.0392-.0127.0774-.0359.109-.0186.0082-.0273-.0087-.0303-.0244-.2055.2254.1321.1082.0761.3451-.0378-.0093-.0777-.0055-.113.0108-.0354.0164-.0642.0442-.0816.079.0501-.0947.1753-.0421.2265.0471-.1345.1497.0087.1661-.0222.2453l.0677-.0897c.1043.0333.0742.109.0927.2159-.0377.0026-.0538-.0105-.0616-.026.0851.1143-.3429.2403-.2376.3919-.127.0731-.2887.0003-.3871.0647.1374.1878-.3187.1913-.2254.3872.2708-.0485.203-.0602.403.0816-.0267-.1054-.0472-.2123-.0613-.3202.0836.0703.1759.1409.2769.2118.0231-.0957-.0943-.2055-.039-.2618.1538.1015.1075.0903.299.0491-.372.1221.1682.2657-.0989.411l-.6384-.0219c-.369.218.2358.4125.0483.7039l.1301-.0915c.2809.0482.0289.1842.1453.2839-.1619-.0081-.3236.0183-.4745.0775.177.0005-.0062.2167.4688.2589l-.3028.1228c-.0954.2362.674.2959.6109.5247-.2468-.0779-.3874.022-.5852-.1391.0107.0773-.0167.1454.1344.1519-.125.0405.3175.2245.1257.2886.0953.0358.3113.0542.3006.1403-.0332.004-.0668.0026-.0995-.0039.1.0039.146.1408.3605.073-.5587.2167.0838.6673-.2892.8596.0742.1712.1942.3788.2415.5337l-.0284-.008.0322.0743.0136.0344c.0779.0651.1704.0813.1514.2468-.0377.11-.064-.086-.0786-.0649l.0874.2127.0012-.046c.0091-.1376.0964-.2743.1932-.2646.0156.0013.0305.0072.0428.017.0123.0097.0214.0229.0262.0378.0925-.1309.1969-.253.3118-.3649-.0129-.2233.0211-.4467.0998-.6561.0317-.0743.0742-.1435.1263-.2052-.0027-.0528.0059-.1055.0253-.1547.0194-.0491.0491-.0936.087-.1303.0746-.0695.3467-.323.5624-.5242-.0418-.0075-.0843-.01-.1267-.0075.575-.1878-.096-.4196.1523-.5558l-.0278-.0633c-.0466-.11.0155-.2175.1275-.2958-.1612-.2981-.3542-.5822-.4943-.8583.5113.0272.1301.4008.6827.4015-.3029-.3505-.7711-.5596-.7774-.8973.0273-.0867.2039.0549.2956.0869-.3072-.3484-.2676-.665-.5592-.974.0397.013.0755.036.1038.0666-.0338-.0604-.0193-.139-.1392-.1349l.0562.0593c-.167.0913-.4424-.2462-.507-.2581.327.1079.04-.2974.4376-.1287-.0166-.0252-.0391-.0459-.0657-.0603-.0265-.0144-.0562-.022-.0863-.0222.0084-.0579.0392-.0758.1284-.015-.108-.2155-.1819-.1411-.2003-.3347.0418.0015.0619.0409.1143.0619-.0548-.0414-.0973-.0971-.1227-.1609s-.0329-.1334-.0215-.2012c.0241.0103.0558-.0081.0549.0406-.0044-.2805-.1952-.481-.0772-.7865.1944.0936.0825-.1034.2733-.1169l-.0041-.1656-.1178.0648c.0482-.1443-.0893-.2741.0128-.3973l.0713.1085.0237-.2713-.1312.1521c-.1021-.1478-.3169.0118-.2255-.1797.0247.0394.0115-.1447.1981-.2181l.0007.0005c-.0785-.0726-.1785-.1472-.0856-.2534.1098-.0267.3558.026.4286.0086-.2587-.0733.0217-.3395-.2995-.4318.1031.0267.2101.0349.3161.0242l-.2488-.0614c.042-.0323.0907-.0547.1426-.0658.0518-.011.1055-.0103.157.0021.0908-.2015-.5135.0602-.2573-.1776.0196.0189.063.0103.098.0497.1674-.2398-.1267-.4659.0446-.6863.4694-.0632.0883.1939.4813.1211-.022-.3201-.482-.6633-.3404-.9718l-.0611.0575c-.7142-.0437.3747-.2296.0495-.3862.1048.0308.214.0443.3231.0398.1415-.2119-.1382-.4332-.3737-.7529l.1964.0392c.1808-.1253.1088-.329.1949-.4641-.1974-.0392-.1675-.1163-.4523-.0682 1.0795-.4219-.5951-.7874.2377-1.162.0069.044.1686.1035.1645.0685l-.2024-.312c-.2836.0277-.1679.0428-.3887.1109-.1752-.0379-.3077-.1249-.308-.2025.1904.1388.4556-.006.6007-.0685-.0842.0111-.1801-.0087-.2661-.0026.4707-.1691-.5523-.0213-.2369-.2482l.1384.0102c-.0785-.0827-.2563-.1574-.2203-.248.2829-.041.1381.0872.3794.0899-.0424-.1263-.5475-.2426-.2848-.3608.0792.0527.0867.1299.1686.1827.3115-.1291.218-.1424.2463-.2356l-.0047.0092c.0281-.072.0523-.1439.0726-.2158l-.0607.0556c-.6422-.1489-.1876-.3201-.553-.5275.3288.2019.1849.0312.3992.0435.0474-.0553.0835-.1389.1483-.1164-.0235-.0101-.0445-.0252-.0616-.0442-.0724-.0205-.1379-.06-.19-.1142-.0521-.0543-.0888-.1214-.1064-.1945-.0835-.2485-.191-.4829-.2365-.6443-.0188.0342-.0429.0651-.0713.0918z"/><path d="m25.8467 31.1732-.0094.0072c.0189-.0074.0387-.0126.0588-.0154z"/><path d="m27.1162 29.2857c.0294-.003.058-.0118.084-.0259-.0291.0044-.0574.0131-.084.0259z"/><path d="m27.0408 28.4725.0638-.117c-.0285.0346-.0502.0743-.0638.117z"/><path d="m26.9853 27.8487-.0912-.0108-.0009.0012z"/><path d="m27.026 37.791.0189.0248c.0616.0586.0296.019-.0189-.0248z"/><path d="m26.6989 34.8271c.033.0273.0611.0601.0829.0969.0286-.0528.0439-.0939-.0829-.0969z"/><path d="m26.7488 35.0609c.0204-.0156.0348-.0378.0407-.0628.0058-.025.0029-.0512-.0084-.0743-.0251.0429-.0536.0934-.0323.1371z"/><path d="m26.2146 27.2819.0787-.2116c-.0415.0376-.1146.0872-.0885-.0088-.2135.2689.1-.0566.0098.2204z"/><path d="m25.9621 27.9361c-.0097-.1126-.1167.0033-.1631-.002.0514.0707.071.0877.1631.002z"/><path d="m25.5843 32.64-.3371-.0121c.0577.0869.1299.0012.3371.0121z"/><path d="m27.2024 33.5478.2015-.0839-.2723-.042z"/><path d="m25.2034 34.0657-.0492-.0384.1367.1464z"/><path d="m19.415 19.2019.063.0131c-.019-.0111-.0411-.0157-.063-.0131z"/><path d="m17.7792 21.3719c.0023-.0111.0017-.0225-.0017-.0333-.0035-.0107-.0096-.0204-.0179-.0281.0014.0282.0032.0521.0196.0614z"/><path d="m17.4073 21.6557.0214-.0158c-.0155-.0013-.0262.0022-.0214.0158z"/><path d="m19.415 19.2013-.1626-.0363c.1199.1009.1137.0425.1626.0363z"/><path d="m19.9262 18.1044.0156-.0157-.1223-.1092z"/><path d="m20.6287 17.4844c-.0277.0065.164.1419.2459.2057-.0738-.063-.1001-.0988-.1004-.1209z"/><path d="m19.3868 18.5094-.12-.0797z"/><path d="m16.7092 22.1502.0054.0005c.0128-.0175.0018-.0115-.0054-.0005z"/><path d="m14.7462 22.8125c.034.0367.0702.0712.1085.1033-.0329-.0377-.0692-.0723-.1085-.1033z"/><path d="m16.4074 22.5566-.0543-.0058c.0174.0064.036.0084.0543.0058z"/><path d="m14.5308 23.7323c-.0268-.0029-.0559-.0303-.0489.0228l.0272.0224c-.0182-.0398-.0218-.0657.0217-.0452z"/><path d="m21.5945 17.0196c-.0201.0081-.0411.0138-.0625.0173l.0275.031c-.015.0154-.0473.0443-.0714.0203-.0012.091.0394.0087.0618.0758-.1463.0278-.0885.2742-.319.1551.0869.098.1392-.0261.1517.1095-.2762-.1394-.0237.1329-.2019.1281-.14-.1242.0074-.1318-.1964-.1545.2295.2145-.1942.086-.2102.1662.2487.1686-.0159.1901-.011.3491-.0949-.0737-.3292.0706-.5481.0622l-.0546-.0422c.3263.255.178.3029.196.4258-.141-.0851-.2623-.1993-.3557-.335l-.0599.0597c.1039.0979.1484.1617.1542.2329l-.2661-.2162c-.0698.0845.1767.4041-.1212.3634.2787.217.8479.478.9468.7462-.1685-.1036-.3222-.2294-.4572-.374.0115.025.0975.131.0161.104l-.2181-.2379c-.1555-.0331.1921.1852.1355.2093-.2184-.1635-.1815-.0862-.3511-.2219-.0121-.0256.1207.0327.0484-.046-.1581-.0012-.3121-.0497-.4423-.1393.13.0913.2986.224.2992.2786-.0558.0977-.2937-.1739-.4526-.2138.1376.138-.0694.0683.2666.3278-.0221.0241-.1838-.0924-.2835-.1534.1098.1563-.1276.2384.2722.4686l.033.0068.0087.019c.2126.4116-.4261.1674-.3954.4324l-.1069-.0878c.0563.1913-.0719.2642.097.5114-.0216.0261-.2302-.0902-.3404-.2017.0273.135.1279.2343-.102.2013-.1186-.2149-.1638-.1013-.0738-.1791-.145.0228-.3049-.0841-.1177.2356-.2148-.2394-.3414-.1871-.2966-.0785l.2059.0774c.0002.0788-.047.1066-.0941.1352l-.2814-.2859c-.2276-.0522-.1205.1759-.0448.3728.0762.1963.0923.3337-.1766.2029.1419.2124.1639-.0164.3443.2219-.0934.0583-.4523-.1268-.4559-.0863-.148.0554.251.419.1072.4914.0699.0403.2575.1929.2379.333-.0967.0561-.3121-.1195-.3268-.2264.0069-.0285.0312-.022.0504-.002-.0036-.0511-.0108-.1196-.0941-.1419l.0536.0705c-.0845-.0089-.1367.1421-.2093.0241.0206.1308.07.1157.1249.0867-.1358.0562-.0867.2111-.2051.2904.0342.0028.0951.0344.082.0527-.1663.1241.0244.1524-.0487.2775-.1072.0044-.1115-.1537-.158-.0007-.0914.029-.1025-.0792-.1108-.1358-.0118.17-.1994.1357-.2659.1703l.023-.0725c-.0107.0353-.0341.0653-.0656.0845l.097.0463c-.0422.0127-.069.0327-.0965.0028.0119.0715.1375.0992.1338.2127-.077-.0047-.0893.1397-.2069.0407.1688-.043-.0643-.0848-.0158-.1592-.0107.0095-.0232.0167-.0369.0211-.0136.0044-.028.0059-.0422.0044-.0031-.0014-.0058-.0033-.0079-.0058-.0022-.0026-.0038-.0055-.0046-.0087-.0009-.0032-.001-.0066-.0004-.0098.0006-.0033.002-.0064.0039-.009-.254-.0423.038.1462-.1187.2176-.0183-.0308-.0444-.0563-.0758-.0737-.0313-.0174-.0668-.0262-.1026-.0254.0813-.008.1415.1075.1322.187-.1666-.0275-.0767.0846-.1373.0996l.0908.007c.0547.092-.0038.1059-.0447.1702-.0268-.0264-.0312-.0445-.0288-.0575.001.1178-.3537-.1405-.3591.0062-.1226-.0607-.1945-.2135-.293-.2573-.0024.1869-.309-.1507-.3439.0061.2042.1806.1655.1243.2269.3381.0348-.0668.075-.1306.1203-.1908l.0778.3023c.0643-.0264.0414-.1638.1069-.1484.0516.1605.0259.1212.1753.2444-.3107-.2207-.024.2479-.2762.1154l-.4117-.4881c-.3514-.1791-.0549.3582-.3272.3452l.1317.0588c.1581.2344-.0762.1028-.0522.2353-.099-.1255-.2156-.2361-.3462-.3285.1135.1355-.1135.0896.1677.4715l-.2582-.1808c-.1838.0253.2724.6463.1095.6966-.114-.2253-.2551-.2922-.2952-.5141-.0337.041-.0867.0484.0048.1688-.0994-.0805.0804.3431-.0735.2208.0404.09.1647.2664.1111.2941-.0227-.0244-.0428-.0511-.0597-.0798.06.08.0136.1732.1838.3134-.4637-.3497-.3155.346-.6485.13-.0429.1391-.0943.2754-.1538.4082l-.0124-.0261-.0224.056-.0113.0249c.0095.0892.0549.1704-.0498.2224-.0842.0142.011-.0867-.0095-.0899l-.0688.1571.0268-.0177c.0423-.0252.0924-.0342.1408-.0253.0485.0089.0921.0351.1228.0737.0083.011.0136.0241.0153.0378s-.0003.0276-.0058.0403c.1341.0224.266.0561.3944.1007.125-.1034.2754-.1713.4357-.1967.0648-.0067.1303-.0029.1939.0113.0321-.0257.0704-.0424.111-.0486.0407-.0061.0822-.0015.1205.0135.0931.033.3837.1313.6499.2056-.0222-.0361-.0475-.0703-.0755-.102.4703.36.1775-.2659.4122-.1362l.0183-.0502c.0331-.0855.1323-.089.2484-.0407.0624-.2645.0933-.5442.1521-.7783.323.397-.1351.286.2262.7041.0001-.3954-.1988-.846-.0232-1.013.0646-.0215.1071.1779.1509.2618-.018-.397.1791-.5179.1387-.8845.0195.0332.032.0701.0364.1084.0082-.0544.0589-.0824-.0255-.1678l.0079.0701c-.1609-.0776-.1766-.4423-.2155-.4944.1698.2897.1795-.115.3677.2546.0002-.0279-.0053-.0556-.016-.0814-.0108-.0258-.0266-.0491-.0466-.0687.0355-.0222.0662-.0087.0965.0853.0359-.1834-.0524-.1986.0314-.3086.0284.0307.0227.0647.0487.1128-.0168-.1188-.0259-.2281.08-.2838.0119.0222.0432.0355.0183.0592.1368-.1444.1032-.3757.3358-.4484.0934.1839.109.0047.2525.1307l.0781-.0881-.1163-.0485c.1051-.0408.0688-.2025.2027-.1953l-.0014.1051.1497-.1235-.1694-.012c-.0022-.146-.2357-.2121-.0768-.2469-.0006.0373.0781-.0655.2485.0225l.0003.0007c-.0231-.0917-.0615-.1986.0565-.1912.0935.0604.2495.2549.3113.2951-.1557-.2138.1782-.1659-.016-.4302.0645.0841.1394.1596.2229.2248l-.1555-.1994c.1003.0263.1893.085.253.1669.1633-.0468-.41-.3104-.108-.2665.0059.0233.0424.0474.0501.0921.2364-.0192.12-.3361.3506-.3428.3843.2727-.0233.1638.307.3817.1366-.1907-.0583-.6784.187-.7594l-.0726-.0071c-.53-.4807.391.1116.2113-.1835.0682.0845.146.1608.232.2272.2071-.0287.087-.3348.0408-.662l.1368.1443c.1965.0406.2293-.121.3566-.1457-.1388-.1435-.0817-.1691-.3279-.3158 1.0361.4078-.1453-.8116.6748-.5325-.0121.0301.0941.1613.1051.138l-.0374-.3048c-.1106-.0724-.2318-.1272-.3592-.1626-.1267-.1252-.1998-.2532-.1695-.2983.0998.1919.3722.263.5155.3101-.0729-.0425-.1431-.11-.2154-.1565.4508.1744-.4411-.3333-.0945-.2822l.109.0859c-.0312-.0937-.1472-.2392-.082-.271.2482.1382.0788.1299.2752.2703.0169-.0986-.3556-.4564-.0943-.3762.0452.0762.0219.1263.0689.2044.3054.1009.2341.0392.2931-.0006l-.0074.0029c.0496-.0264.0974-.056.1431-.0885l-.0716-.0008c-.474-.4504-.0325-.2968-.2574-.6227.1972.3016.1422.1211.3159.2469.061-.0064.1223-.0372.1679.0123-.0153-.0181-.0272-.0387-.0351-.061-.0489-.0432-.0867-.0976-.1102-.1584-.0235-.0609-.032-.1265-.0249-.1913.0207-.1954.0148-.3936.0345-.5142-.03.0107-.0615.0163-.0934.0167z"/><path d="m19.4878 19.2157-.0105-.0018.0526.0278z"/><path d="m21.2732 18.9033c.0244.0151.0509.0264.0786.0336-.0249-.014-.0512-.0253-.0786-.0336z"/><path d="m21.5332 18.3779.0978-.0341c-.0347.0038-.0682.0154-.0978.0341z"/><path d="m21.7276 17.9721-.0718-.0571-.0013.0003z"/><path d="m17.2574 23.4521v.026c.0117.0739.0104.031 0-.026z"/><path d="m18.5079 21.7246c.011.0348.016.0712.0148.1076.0459-.0083.0766-.0196-.0148-.1076z"/><path d="m18.4326 21.8812c.0628.0081.0857-.0137.0908-.0492-.0388.0059-.085.0117-.0908.0492z"/><path d="m21.2903 17.2103.1421-.0832c-.0485 0-.1278-.01-.0715-.0529-.276.044.1045.0205-.0706.1361z"/><path d="m20.8425 17.457c.0337-.0705-.0984-.0629-.1349-.0918.0167.0692.0266.0902.1349.0918z"/><path d="m18.6657 19.8387-.2527-.2235c.0076.0828.0988.0843.2527.2235z"/><path d="m19.4857 21.3798.1908.0864-.186-.2016z"/><path d="m17.7567 20.3243-.0192-.0528.036.1655z"/><path d="m32.7894 18.0831.0262-.0597c-.0153.0164-.0245.0374-.0262.0597z"/><path d="m34.8377 20.1796c-.011-.0033-.0228-.0038-.034-.0011-.0113.0026-.0217.0081-.0301.016.0294.001.0542.0012.0641-.0149z"/><path d="m35.1318 20.586-.0165-.0235c-.0011.0161.0025.0277.0165.0235z"/><path d="m32.7895 18.083-.0692.1546c.1261-.0928.0656-.1032.0692-.1546z"/><path d="m31.8083 17.1974-.011-.0216-.1425.0786z"/><path d="m31.422 16.2506c-.0032.0294.1948-.0966.285-.1481-.0865.0441-.1304.054-.1518.045-.0464.0317-.0908.0662-.1332.1031z"/><path d="m32.0798 17.8906-.109.0943c.0382-.0292.0746-.0607.109-.0943z"/><path d="m35.6827 21.3299v-.0055c-.0197-.0131-.0124-.0019 0 .0055z"/><path d="m36.7158 23.3604c.03-.0404.0571-.0828.081-.127-.0314.0394-.0585.0819-.081.127z"/><path d="m36.1357 21.6357v.0569c.0046-.0186.0046-.0382 0-.0569z"/><path d="m37.7301 23.4463c.0045.0283-.015.0635.0367.0468l.0151-.0323c-.0352.026-.0605.0343-.0518-.0145z"/><path d="m31.3563 15.1301c-.0008.022-.0041.0438-.0096.0652l.0404-.011c.008.0209.022.0637-.0104.075.0845.0428.0243-.0323.0961-.0222-.0336.1482.2185.2048.0158.3673.1255-.0375.0313-.142.1621-.0932-.2386.197.1126.0819.0395.2468-.1713.0793-.12-.0663-.2207.1184.2903-.1246.0127.2201.0857.2712.2503-.1664.177.0954.3311.1565-.1052.0622-.0454.3482-.116.5581l-.0583.0369c.3514-.2198.3527-.058.4785-.0298-.1254.1078-.2746.1845-.4353.2236l.042.0831c.0795-.0567.1781-.0798.2745-.0643l-.2899.183c.0639.1064.448-.0247.3334.2563.2873-.2053.7-.6749.9889-.6899-.1472.1323-.3124.2433-.4906.3295.0278-.0033.1553-.0541.1071.0172l-.2931.1381c-.0726.1432.2342-.1294.2433-.0658-.2187.1631-.1321.1519-.3103.2762-.0288.0034.0631-.1096-.034-.0638-.0393.1552-.1259.2944-.2478.3983.123-.1006.2973-.2256.352-.2082.0843.0888-.2447.2391-.3214.3882.1709-.0935.0536.0957.391-.1619.0186.0306-.1346.1574-.2176.2393.1842-.0621.2217.2036.5364-.1341l.0138-.0312.0211-.0036c.4594-.1026.0798.4816.362.5182l-.1073.0871c.206-.0107.2615.1373.538.0198.0229.0273-.1261.2155-.2557.3038.1424.0029.2556-.0797.1916.1508-.2356.0763-.1252.1486-.1929.0368.0025.1569-.1202.2995.2317.1706-.272.1739-.2279.3173-.11.2925l.0999-.1992c.0821.0152.1063.0693.1318.1239l-.3226.2385c-.1176.4423.9362-.2239.5922.3367.2289-.1175-.0099-.1734.2487-.3262.0546.1032-.1532.4531-.1103.4634.0543.1647.4436-.2073.5133-.0501.0428-.0684.2064-.2459.3508-.2158.0553.102-.1282.3106-.24.3168-.0297-.0096-.0228-.0341-.0017-.0522-.0533-.0004-.1255.0006-.1494.0846l.0744-.0491c-.0098.0866.148.1539.0249.2192.1366-.0102.1205-.0631.0905-.1223.0588.1458.2192.1066.3012.2357.0027-.0357.035-.097.0538-.0822.1283.1815.1547-.0149.2866.0637.008.1098-.156.1099.0048.1619.0338.0948-.0778.1037-.1367.1103.1776.0173.1509.2106.191.2816l-.0763-.0259c.0376.0126.0698.0376.0914.0709l.0422-.1006c.0155.0444.0377.0729.0085.1012.0729-.0114.0944-.142.2108-.1368-.0017.0818.1494.092.057.2139-.0597-.1724-.083.0674-.1652.0181.0108.0107.0193.0233.0252.0373.0058.014.0088.029.0088.0441-.0013.0032-.0033.006-.0058.0083-.0026.0023-.0056.004-.0089.0049s-.0068.0011-.0101.0004c-.0034-.0006-.0066-.002-.0093-.004-.0192.2634.1498-.0408.2393.1197-.0304.0201-.0544.0484-.0694.0816-.0149.0332-.0201.07-.015.1061-.0173-.0849.0971-.1494.1803-.1418-.0108.1744.0956.0778.1175.1405l-.0027-.0951c.0889-.0598.1091.0004.1791.0406-.024.0291-.042.0344-.0555.0323.1179-.0049-.0997.3735.0552.3712-.0442.1307-.1929.2148-.2226.3204.1967-.0084-.1041.3346.0687.3641.1512-.2282.1005-.1826.3115-.2622-.076-.0323-.1493-.0705-.2194-.1141.0948-.0273.1952-.0613.3014-.1019-.0376-.0648-.1765-.0315-.171-.1007.1586-.0646.1214-.0358.2259-.199-.1792.3387.2575.0044.1608.2766l-.4319.4703c-.1188.3902.3895.0251.4335.3107l.0317-.1442c.2087-.1913.1235.0676.2552.0269-.1079.1192-.1956.2553-.2594.4029.1134-.1363.1208.1124.4473-.2358l-.1203.2928c.0785.1879.5955-.3839.6864-.228-.1987.1565-.2281.3142-.4453.3923.0518.0284.0745.0825.1722-.033-.0537.1178.3268-.1431.245.038.0797-.0583.2235-.2205.267-.1729-.018.0281-.0393.0539-.0634.0769.0638-.0771.1715-.0514.2635-.2518-.2144.5416.4368.2351.3246.6203.1533.0055.3061.0188.458.04l-.0212.0196.0625.0063.0283.004c.0836-.0348.1468-.1031.2327-.0156.0426.0789-.0874.0148-.0836.0358l.1751.0215-.0262-.0211c-.0386-.0327-.0642-.0783-.072-.1284-.0077-.0501.0028-.1012.0297-.1442.0079-.0114.0188-.0204.0315-.0261.0126-.0058.0266-.0079.0404-.0063-.0223-.1355-.0317-.2728-.0281-.41-.0807-.0821-.2316-.1353-.3139-.3637-.0234-.0609-.0366-.1253-.0389-.1906-.0328-.0242-.0585-.0568-.0745-.0943s-.0217-.0786-.0165-.119l.06-.672c-.0302.0296-.058.0617-.083.096.2585-.5317-.2862-.1097-.2037-.363l-.0517-.0062c-.0894-.0117-.1064-.1087-.0759-.2299-.2598-.0098-.5357.0084-.7754-.012.3494-.374.2986.0837.6574-.3364-.3802.0757-.7986.3299-.9806.1748-.0276-.061.1644-.1266.2418-.1805-.3861.0669-.5279-.1102-.8848-.0476.0317-.0218.0675-.0367.1052-.0438-.0543-.0045-.0852-.0533-.1649.0365l.0691-.0123c-.0654.1674-.4303.2033-.4815.244.2809-.1853-.1292-.1757.2326-.3818-.0281.0013-.0555.0081-.0809.0201-.0253.0121-.048.029-.0667.0499-.0248-.0344-.0128-.0654.0805-.1002-.1867-.0276-.2004.0633-.3126-.0208.0298-.0294.0641-.024.1111-.0513-.1176.0192-.2275.0288-.2865-.0785.0223-.012.0349-.0439.0593-.0187-.1461-.1382-.3872-.1025-.4581-.3431.1857-.0882.0068-.111.1365-.2515l-.0857-.0817-.052.1152c-.0378-.1074-.2021-.0788-.1903-.2127l.106.0063-.1186-.155-.0189.1684c-.1484-.0057-.2235.2246-.2541.0626.0378.0036-.065-.0831.0357-.2498l.0007-.0002c-.0928.0156-.2031.0441-.1873-.0749.0676-.0886.274-.228.319-.2866-.226.1372-.1489-.1907-.4319-.0232.0902-.0557.1729-.1228.246-.1995l-.2144.135c.0359-.0972.1033-.1795.1914-.234-.03-.1654-.353.3752-.2773.0789.0237-.003.052-.0366.0968-.0389.0114-.2382-.3169-.1642-.2928-.3941.3252-.3405.1584.0444.4205-.2517-.1665-.15-.6767-.0365-.7101-.2954l-.0205.07c-.5702.4321.1823-.363-.1402-.24.0963-.0503.1864-.1118.2684-.183.0119-.2013-.3015-.145-.6309-.1755l.1718-.1001c.0861-.1804-.061-.2466-.0531-.3729-.1737.0993-.1847.0386-.3889.2385.6781-.886-.824-.0852-.3162-.7933.0244.021.1802-.0405.1622-.0579l-.296-.0581c-.2187.1808-.1183.122-.2685.2899-.1586.0805-.304.107-.338.062.2152-.03.3685-.2682.4605-.3873-.0639.0551-.1507.0992-.2182.1523.3122-.3686-.4603.3064-.3005-.0068l.1177-.0735c-.0999-.0026-.2783.0554-.2879-.0179.2151-.1846.1513-.028.3509-.1642-.0895-.047-.5538.1689-.3867-.049.0875-.0136.126.0276.2153.0121.2033-.2518.1212-.2063.1058-.2764v.0079c-.0062-.0558-.0158-.1112-.0288-.1659l-.0274.0662c-.5953.2711-.2888-.0822-.6809-.0032.3597-.0614.1679-.0833.3522-.1934.0164-.0583.0126-.127.0763-.1493-.0224.0068-.046.0093-.0694.0075-.0592.0276-.1244.04-.1897.036-.0652-.004-.1284-.0242-.1839-.0587-.1707-.1034-.3575-.1874-.4622-.2608-.0025.0321-.0103.0635-.0232.093z"/><path d="m32.8192 18.0127-.0039.0098c.0114-.0158.0242-.0305.0383-.044z"/><path d="m32.9968 16.1746c.0223-.0181.0417-.0394.0577-.0633-.0215.019-.0408.0402-.0577.0633z"/><path d="m32.5933 15.7522.0046-.1038c-.0094.0338-.0109.0693-.0046.1038z"/><path d="m32.2891 15.418-.0807.0438-.0003.0012z"/><path d="m36.9657 20.7208.0257-.0018c.0722-.017.0301-.0126-.0257.0018z"/><path d="m35.2264 19.4662c.0354-.0082.072-.0102.1081-.006-.005-.0473-.0139-.0791-.1081.006z"/><path d="m35.3787 19.5537c.0109-.0623-.011-.0852-.0453-.0937.0025.0402.0077.0857.0453.0937z"/><path d="m31.4105 15.4975-.0205-.1704c-.0198.0449-.0611.1141-.0785.0418-.07.2776.0612-.0878.099.1286z"/><path d="m31.4714 16.0346c-.0562-.0626-.096.0661-.137.0886.0733.0145.0971.0137.137-.0886z"/><path d="m33.3162 19.0156-.2641.21c.0869.0127.0999-.083.2641-.21z"/><path d="m34.9802 18.4569.1116-.1776-.2244.1572z"/><path d="m33.7421 20.0654-.0564.012.1763-.012z"/><path d="m25.554 17.6444.0591-.0262c-.0221.0018-.043.0111-.0591.0262z"/><path d="m25.6299 20.4745c-.0057-.0099-.0138-.0182-.0237-.024-.0098-.0058-.0209-.0089-.0323-.0091.0201.0206.0377.0375.056.0331z"/><path d="m25.5541 20.954.0047-.0272c-.0122.0101-.0177.0205-.0047.0272z"/><path d="m25.554 17.6445-.1542.0669c.1559.0142.1174-.0321.1542-.0669z"/><path d="m25.3887 16.382.0054-.0227-.1596-.0312z"/><path d="m25.6945 15.4458c-.0211.0199.212.0476.3144.0647-.0951-.0204-.1352-.0399-.1462-.0598-.0559-.0047-.1121-.0063-.1682-.0049z"/><path d="m25.1448 17.0553-.1426-.0006c.0475.003.0951.0031.1426.0006z"/><path d="m25.4148 21.8353.0038-.0038c-.0041-.0223-.0072-.0096-.0038.0038z"/><path d="m24.6425 23.8884c.0494-.0048.0985-.0128.1468-.0241-.0496.003-.0988.0111-.1468.0241z"/><path d="m25.508 22.3545-.04.037c.0162-.0088.0299-.0216.04-.037z"/><path d="m25.2542 24.665c-.0181.0213-.0573.0296-.0105.0563l.0342-.0097c-.0429-.0088-.0659-.0217-.0237-.0466z"/><path d="m26.3435 14.5626c-.0144.0163-.0305.031-.048.0437l.0384.0161c-.0066.0209-.0224.0618-.0548.0508.0396.0838.0391-.0098.0891.0414-.1185.092.0434.2887-.2162.2878.1215.0484.1129-.0883.1848.0287-.3093.0029.0375.1309-.1229.2106-.1827-.0454-.0524-.1234-.2459-.0462.3037.0843-.1293.1728-.1052.2551.2991.0297.0769.1803.1575.321-.1201-.0185-.2553.231-.4452.3414l-.0684-.0091c.4105.0563.3075.1768.3857.2763-.165.0008-.3281-.0358-.4769-.1073l-.0213.0869c.1393.0312.21.064.2515.1242l-.3396-.0471c-.0187.1169.3589.2625.0879.395.3518.0321.9711-.0522 1.1997.1213-.1978.0037-.3953-.0198-.5868-.0698.0233.0153.1531.059.0699.0807l-.3121-.0847c-.1485.0586.2618.0537.2273.106-.2721-.0193-.1993.0273-.4154.005-.0241-.0157.1193-.04.0159-.068-.1324.0886-.2885.1347-.4477.1324.1589.005.3724.0244.4026.0718.0058.1177-.3414.0181-.4968.0771.1905.0406-.0217.1025.4019.1308-.0059.034-.2046.0282-.3213.0343.1794.072.0313.2867.4909.2451l.0309-.0137.0181.011c.4114.2217-.2579.3981-.0735.6057l-.1381-.0073c.1598.1258.1014.2673.3851.3643-.0017.0345-.2385.071-.3936.0491.1033.0948.2427.1107.0402.2319-.2253-.1002-.1925.0231-.1674-.1-.1033.1125-.2915.1318.0542.2717-.3174-.0558-.383.0732-.2797.133l.2086-.074c.0184.0247.0293.0542.0314.085.0021.0307-.0047.0614-.0195.0884l-.3985-.0451c-.2097.1128.0168.2301.1999.3372.1856.1075.2887.2039 0 .2866.2465.0708.1126-.1269.4052-.0612-.032.1087-.4241.2124-.4002.2479-.0748.1495.4641.1532.4049.3091.0785-.0183.3196-.0313.4015.0876-.032.1086-.3092.1281-.3931.0568-.0145-.0267.0076-.0389.0354-.0372-.0178-.0259-.0445-.0445-.075-.0523-.0305-.0077-.0628-.0042-.0909.01l.0874.0162c-.0678.0531-.0022.2059-.1359.1676.1046.0854.1302.0382.1503-.0229-.0604.1399.0816.2219.0496.3663.0268-.0226.0929-.0428.0958-.0198-.0357.212.1213.0955.1585.2397-.0724.0808-.1879-.0317-.1116.1141-.0437.088-.1284.0173-.1746-.0185.1126.1334-.0435.2466-.0656.3221l-.0353-.07c.0175.0342.0224.0734.0139.1108l.1012-.0391c-.0206.0408-.0253.0754-.0659.0744.0593.0425.1673-.0311.2455.0529-.0589.0541.0389.1658-.1132.184.0826-.1577-.1061-.012-.1279-.102-.0001.0148-.0033.0293-.0093.0428-.006.0134-.0147.0255-.0255.0355-.0031.0013-.0065.0019-.0098.0017-.0034-.0002-.0067-.0012-.0096-.0028-.0029-.0017-.0054-.004-.0074-.0067-.0019-.0028-.0031-.006-.0036-.0093-.203.1637.1334.076.0799.2459-.0353-.0077-.0721-.0056-.1063.0063-.0341.0119-.0644.0329-.0873.0609.0491-.0687.1749-.0327.2272.0302-.133.1091.0104.1185-.0197.1757l.0666-.0653c.1048.0219.0755.0764.0951.1523-.0376.0025-.0539-.0065-.0618-.0174.086.0795-.3395.179-.2316.2854-.1255.0556-.2885.0073-.3859.0562.1409.1315-.3151.1467-.2183.2859.2699-.0434.2019-.0494.4045.0464-.0284-.0742-.0509-.1506-.0671-.2284.0848.0483.1783.0963.2806.1441.0216-.0691-.0978-.1446-.0436-.1864.1556.0685.1091.0616.2997.0271-.3697.0977.173.1845-.0915.2961l-.6385.0047c-.3654.1702.2452.2893.0648.5059l.1277-.0711c.2819.0235.0334.1312.1521.198-.1604.0007-.3198.0264-.4723.0763.177-.0074-.001.1572.4753.1653l-.2985.1026c-.0882.1755.6827.1788.6267.345-.249-.0425-.3863.0369-.5891-.0684.0132.0551-.0121.1057.1392.1019-.1238.0364.3242.1434.1346.2001.0965.0202.3129.0207.3056.0827-.033.0048-.0664.0059-.0996.0031.1001-.003.1512.0916.3628.0304-.5496.1891.1088.4689-.256.6308.0946.1158.183.2366.2648.3619l-.0287-.0034.0354.0502.0152.0234c.0806.0401.1736.0442.1622.1628-.0328.081-.0678-.0557-.0815-.0396l.0967.1435-.0007-.0326c.0006-.0499.0193-.0978.0526-.1351.0332-.0372.0787-.0611.1282-.0674.0138-.0013.0276.001.0401.0069.0125.0058.0233.0149.0311.0263.0895-.1023.1883-.1962.2949-.2805-.0227-.1594.0026-.3218.0725-.4667.0309-.0568.0709-.1081.1184-.1519-.0031-.0403.0047-.0807.0226-.1169.0178-.0362.0451-.067.0789-.0891l.5439-.3963c-.0423-.003-.0847-.0024-.1268.0017.5686-.1601-.1089-.2855.135-.3923l-.0297-.0425c-.0503-.0739.0093-.1511.1193-.21-.1683-.1988-.3682-.3886-.5149-.5762.5118.0018.1399.2739.6921.2538-.3118-.2296-.7836-.3608-.7956-.5966.0256-.0612.2048.0328.2971.0523-.3134-.2338-.2802-.4557-.5744-.6668.0377.0075.0733.0228.1047.0448-.0345-.0417-.0211-.097-.141-.0922l.057.0407c-.166.0672-.4451-.166-.51-.1739.3284.0716.0368-.2102.4363-.0963-.0205-.019-.0446-.0338-.0708-.0434-.0263-.0096-.0542-.014-.0821-.0128.0076-.0409.0384-.0537.1282-.012-.1102-.1503-.184-.0974-.2032-.2336.0418.0008.0621.0284.1146.0427-.0964-.0693-.1805-.1393-.1458-.254.024.0071.0557-.006.055.0283-.0053-.1972-.1983-.3391-.0799-.5544.1942.067.0826-.0724.2736-.0806l-.0036-.1163-.1179.0445c.0485-.101-.0889-.1938.0135-.2794l.0711.0772.0242-.1903-.1315.1052c-.1018-.1055-.3169.0041-.2251-.1299.0246.0282.0119-.1022.1995-.1507l.0007.0004c-.0779-.0524-.1772-.1072-.0835-.1802.1101-.0166.3556.0255.4285.0148-.258-.057.0246-.2372-.2955-.3101.1037.0215.2098.0299.3156.0251l-.2482-.0495c.0933-.0448.1988-.0578.3002-.0368.0925-.1385-.5142.0282-.2554-.1316.0193.0139.0628.009.0972.0377.1709-.1629-.1195-.331.0551-.4798.4699-.027.0853.1387.479.1017-.0178-.2224-.4707-.4814-.3219-.6914l-.0622.0374c-.7127-.064.3791-.1431.0578-.2678.1052.027.2132.0417.3218.044.1453-.1401-.1273-.3078-.3534-.5456l.1949.0389c.1843-.0767.118-.2227.2078-.3113-.1959-.0399-.1638-.0919-.4493-.0767 1.0918-.2201-.5669-.5942.2784-.7953.005.0313.1639.0853.1613.0606l-.189-.2335c-.1322-.0051-.2645.0105-.392.0462-.1731-.0406-.3016-.1128-.2986-.1677.1937.0732.4074.0738.6016.0018-.0844.0007-.1791-.0212-.2651-.024.4763-.0789-.5495-.0615-.2257-.1948l.1375.0192c-.0748-.0649-.2488-.1334-.209-.1942.2835-.0036.1339.0738.3743.097-.0376-.092-.5344-.2201-.2669-.2794.0763.0444.0799.0995.1588.1439.3167-.0623.2243-.0798.2568-.1425l-.005.006c.0306-.0462.0583-.0943.0828-.1441l-.0631.0331c-.6324-.1659-.1715-.2425-.5251-.425.3176.1754.1827.0406.3953.0709.0498-.0341.09-.0889.1535-.0665-.0218-.0087-.0418-.0214-.059-.0373-.0631-.0153-.1214-.0459-.1699-.0891-.0484-.0432-.0855-.0977-.108-.1586-.0692-.1836-.1631-.361-.1994-.4802-.022.023-.0477.0422-.076.0567z"/><path d="m25.622 17.6141-.0096.0046.0591-.0074z"/><path d="m26.9568 16.3714c.0287.0005.0572-.0032.0848-.011-.0286.0006-.057.0043-.0848.011z"/><path d="m26.9175 15.7985.0693-.0758c-.0286.0196-.0523.0456-.0693.0758z"/><path d="m26.8926 15.3546-.0903-.0167-.001.0008z"/><path d="m26.7438 22.3213.019.0169c.0623.0399.0299.0129-.019-.0169z"/><path d="m26.4064 20.2402c.0311.0184.0588.0419.082.0696.0291-.0367.0446-.0653-.082-.0696z"/><path d="m26.4552 20.4064c.0514-.0362.0522-.0674.0331-.0968-.0257.03-.0544.0654-.0331.0968z"/><path d="m26.1564 14.8761.0899-.1414c-.0434.022-.1188.0493-.0874-.0159-.2275.1674.1026-.0293-.0025.1573z"/><path d="m25.8695 15.3164c-.0039-.0812-.1163-.0093-.1621-.0177.0476.0557.0663.0696.1621.0177z"/><path d="m25.3223 18.6523-.3366-.0234c.0558.0652.1297.0064.3366.0234z"/><path d="m26.9238 19.3546.2028-.0516-.2724-.0384z"/><path d="m24.9193 19.6645-.0492-.0288.1356.108z"/><path d="m41.8828 18.3389.0237.0775c.0025-.028-.006-.0558-.0237-.0775z"/><path d="m37.0856 15.8537c.0138.0058.0291.0071.0438.0039.0146-.0032.0279-.0109.038-.022-.0442-.0015-.0808-.002-.0818.0181z"/><path d="m36.3208 15.3243.0448.0302c-.0117-.0206-.027-.0354-.0448-.0302z"/><path d="m41.8828 18.3388-.058-.2001c-.0809.1343.0118.1368.058.2001z"/><path d="m44.114 19.1332.0378.0213.0983-.133z"/><path d="m45.6904 20.0316c-.031-.0326-.131.1847-.1841.2768.0573-.0828.1011-.1115.1393-.1106.0206-.0537.0356-.1094.0448-.1662z"/><path d="m43.0309 18.4136c.0192-.0439.0351-.0891.0476-.1353-.0207.0433-.0366.0886-.0476.1353z"/><path d="m34.9171 14.3516.0045.0067c.0403.0165.0201.0025-.0045-.0067z"/><path d="m31.787 11.7734c-.0155.0491-.0251.0998-.0283.1511.0188-.0481.0285-.0994.0283-.1511z"/><path d="m33.9984 13.938-.0436-.0718c.0096.0267.0244.0511.0436.0718z"/><path d="m30.1341 11.6472c-.0297-.0326-.0264-.074-.0963-.0523-.0011.0126-.0006.0254.0016.0379.0358-.0316.0696-.0425.0947.0144z"/><path d="m47.1824 21.1832c-.0265-.023-.0509-.0484-.0729-.0758l-.0357.0323c-.0372-.0191-.1104-.0573-.0847-.0861-.1615-.0017.0117.0471-.0911.0727-.1506-.1723-.5415-.115-.4958-.3753-.11.0953.144.1612-.0843.1695.048-.3102-.2487-.0341-.3668-.239.1184-.1577.2354.0166.1311-.2206-.2145.2622-.2841-.241-.4366-.2629-.1175.2827-.3419-.0322-.614-.0389.0612-.1087-.3593-.3882-.4996-.6564l.0336-.0605c-.2047.3615-.3913.1759-.588.1806.1162-.244.1879-.3268.3187-.3874l-.1445-.0823c-.0306.0485-.0731.0883-.1234.1156-.0504.0273-.1069.0412-.1642.0404l.1792-.296c-.1939-.1013-.5673.172-.7111-.1925-.167.3121-.2046.9749-.5842 1.0571.0706-.1758.2006-.475.3047-.5087-.0337.0105-.151.1006-.1633.0038l.2454-.2332c-.0549-.1883-.1751.2093-.2559.135.1198-.2457.0156-.2117.1233-.4013.0347-.0113.0313.1447.1123.0675-.0505-.0771-.084-.1639-.0984-.2549-.0145-.0909-.0095-.1839.0146-.2728-.0602.1473-.163.3362-.2547.3285-.2051-.0851.0812-.3381.0328-.53-.1334.1497-.1665-.0986-.3595.2798-.0567-.0315.0217-.2145.0514-.329-.1859.1176-.4962-.2-.5902.2661l.0125.0405-.0252.0079c-.5308.1996-.5866-.5737-1.0085-.575l.0664-.1214c-.2752.038-.4902-.1416-.7701.0328-.0584-.0324-.0234-.2814.0773-.404-.2018.011-.2877.1238-.4075-.168.263-.1163.042-.1951.2383-.0641-.1464-.1935-.0971-.3787-.4778-.194.2286-.2373.0427-.4127-.1001-.3759l.0324.2575c-.1111-.0181-.2136-.0709-.2929-.1507l.2491-.3186c-.091-.2972-.3902-.1872-.6484-.125-.2612.0683-.4692.0665-.4745-.2682-.2301.1529.1592.2202-.083.4192-.1671-.132-.1591-.5786-.2283-.5906-.2127-.2067-.4694.2664-.7027.0668-.0026.0404-.0136.0798-.0322.1157-.0187.0359-.0446.0675-.0761.0929s-.0679.0439-.1069.0545c-.0391.0106-.0799.0129-.1199.0069-.0341-.0259-.0602-.061-.075-.1012-.0147-.0402-.0177-.0838-.0084-.1257.0093-.0418.0304-.0801.0607-.1103.0304-.0302.0689-.051.1107-.06.0517.0122.0621.0428.0462.0655.0788.001.1839-.0005.1489-.1058l-.0682.0615c-.0579-.1085-.3464-.1922-.2194-.2729-.1887.005-.1242.076-.0314.1514-.2048-.1865-.4017-.1532-.6303-.3153.0254.0444.0276.1212-.0124.1022-.3394-.2308-.2172.0132-.4764-.0938-.1001-.1412.1439-.1334-.1371-.2072-.1252-.1241.0336-.1291.1152-.134-.2763-.0326-.3902-.277-.5054-.3693l.1343.0366c-.0691-.0196-.1342-.0514-.1921-.0941l.016.1254c-.0583-.0566-.1137-.0943-.092-.1289-.1.0106-.0296.1753-.2089.1633-.0622-.1023-.2968-.1262-.2546-.273.2268.2191.0732-.0828.2347-.015-.045-.0267-.0841-.0622-.1149-.1044-.0014-.0215.0234-.0183.0444-.0111-.1811-.3239-.1976.0511-.4535-.1643.078-.0528.028-.2044-.0171-.2341.0915.1083-.0309.1835-.1624.1691-.1183-.2199-.2046-.104-.286-.1846l.0772.1204c-.0884.0703-.1657-.0071-.3029-.0623.0031-.0127.0111-.0237.0222-.0307.0111-.0069.0244-.0093.0373-.0066-.1761-.0007-.1386-.4603-.3706-.4691-.0317-.1637.1295-.2596.0954-.3928-.2906-.0039-.0881-.4268-.3791-.4602-.0574.2756-.0144.2221-.2789.3148.1449.0396.2868.0893.4247.1486-.1305.0301-.2589.0685-.3846.1149.1092.0795.2954.0462.3388.1349-.1923.0714-.1579.0376-.1938.2385.0185-.4209-.4002-.0165-.4603-.3525l.3038-.5637c-.1141-.4787-.6211-.0434-.9083-.3958l.0615.176c-.1759.2256-.2431-.088-.4153-.044.0768-.1489.1093-.3168.0937-.4837-.0696.1592-.2758-.1369-.5164.2761l-.0389-.3509c-.2661-.2323-.6373.4535-.8993.2593.1904-.1841.1158-.3757.3947-.4626-.1024-.0369-.1791-.1042-.2433.0334-.0058-.1425-.4005.1613-.4162-.0471-.0811.0711-.1822.2641-.2893.2094.0065-.033.0202-.0642.0402-.0913-.041.0922-.2326.0631-.221.3001-.0835-.6435-.8725-.2916-1.0038-.729-.2563.0067-.5129-.0018-.7682-.0255l.019-.0243-.1053-.0058-.0485-.0038c-.1078.0462-.1564.1311-.3647.0353-.1318-.0876.1318-.0291.1093-.0539l-.3039-.0026.0594.0212c.1765.0701.3238.229.2817.3215-.0087.0166-.0222.0301-.0388.0388s-.0354.012-.0539.0097c.1371.1429.2629.2964.3761.4589.2914.0782.5613.2212.7897.4183.0802.064.1523.1376.2145.2192.1305.0412.2428.1262.3181.2405l.4348.8007c.0246-.035.0435-.0737.0563-.1145.013.6279.5393.1416.6111.4403l.0866.009c.0724.0119.1398.0449.1935.0949.0538.05.0916.1147.1087.1861.4199.0218.8322.0268 1.2257.0588-.2566.4562-.5319-.1226-.7644.3803.5306-.0568.9975-.3791 1.3909-.1488.0924.0761-.1586.1543-.2346.2134.5536-.0676.9178.1553 1.4153.1069-.0139.0225-.0731.0375-.127.0483.0873.0097.1738.0743.2247-.0348l-.0966.0108c-.0316-.2088.4979-.2292.5434-.2786-.2825.2193.3393.2267-.0486.4661.0628-.0026.1479-.0168.169-.0782.0643.047.0704.0866-.0424.1223.3019.0567.253-.0651.4902.0511-.0217.0357-.0775.026-.1271.0572.0867-.0168.1759-.0147.2617.0062s.166.0601.2352.115c-.0237.0142-.0171.0543-.0744.0205.3345.1862.6658.1544.971.4658-.2043.102.0811.1442.0032.3202l.2004.1058-.0203-.1444c.1485.1385.373.1028.4662.2802l-.1617-.0159.3053.2133-.1136-.2209c.2233.0166.141-.2804.322-.0681-.059-.0057.1651.1106.1602.3226l-.001.0003c.1251-.0184.2633-.054.3434.0994-.0227.1138-.2072.2914-.2226.3666.2153-.1745.3925.2517.6613.0362-.0818.0697-.1454.1582-.1854.2579l.1963-.1741c.0184.0524.0213.1089.0084.1628-.0129.054-.0412.103-.0813.1413.196.2158.1821-.4867.3398-.103-.0324.0042-.0434.0478-.108.0514.204.3095.6188.2088.8002.504-.1539.4513-.2763-.0536-.3818.338.3946.1996 1.0378.0231 1.343.3509l-.0404-.0915c.3961-.5976.0987.4802.4452.2987-.086.0696-.1552.1576-.2026.2576.1917.2647.6027.1565 1.1053.1513l-.1396.1489c.0721.2386.3544.3093.487.4657.1395-.1521.2224-.0787.2914-.3616.0501 1.2174 1.2437-.0532 1.3589.9024-.059-.0188-.2047.0936-.1581.11l.4866-.0096c.0841-.2733.0157-.1762.0227-.4146.1229-.1388.2885-.2117.3865-.1695-.2554.0973-.1839.4182-.1634.5843.0208-.0827.0861-.1591.1141-.2407.0202.522.2555-.4912.4121-.0789l-.0696.1207c.1365-.0245.3039-.1486.4058-.0712-.0611.2798-.1677.0828-.269.3022.1816.0256.532-.3806.5789-.0789-.0987.0458-.2012.0137-.3019.0623.0425.3507.0974.2728.2061.3479l-.01-.0091.2494.1823-.0477-.0863c.4424-.5219.4842-.0056.8935-.2537-.3866.2161-.1113.1609-.2083.3575.0551.0686.1527.1376.0984.189.0242-.0187.0521-.0321.0819-.0393.0669-.0645.1491-.111.2389-.1351.0897-.0242.1841-.0253.2744-.0033.3528.0395.6952.0431.9232.0623-.0372-.031-.0691-.0679-.0944-.1092z"/><path d="m41.9107 18.4289-.0044-.0129c.0003.0209-.0026.0417-.0085.0618z"/><path d="m43.7065 20.665c-.0085.0296-.009.0608-.0016.0906.0063-.0298.0068-.0605.0016-.0906z"/><path d="m44.7831 21.0283.1256.1214c-.0353-.0468-.0777-.0877-.1256-.1214z"/><path d="m45.6117 21.2991c.0187-.0254.035-.0525.0488-.0809l-.0014-.0014z"/><path d="m33.4479 15.0459-.038.0004c-.0977.0162-.036.0138.038-.0004z"/><path d="m37.1138 16.7627c-.051.01-.1032.0118-.1547.0056.048.0605.0891.1015.1547-.0056z"/><path d="m36.8137 16.6416c.0112.0317.0305.0598.0561.0816.0255.0218.0563.0364.0894.0425-.0389-.0508-.0837-.1119-.1455-.1241z"/><path d="m46.6359 20.8227.2463.1658c-.0337-.0569-.0719-.1482.0438-.0835-.2723-.3182.0369.1213-.2901-.0823z"/><path d="m45.8871 20.2888c.1451.0486.0403-.1118.0649-.1531-.108.0121-.1374.0223-.0649.1531z"/><path d="m40.2686 17.2668.1776-.2871c-.1314-.0058-.0643.1129-.1776.2871z"/><path d="m38.3884 18.0781.0024.2316.1848-.21z"/><path d="m38.7603 15.9855.0696-.0167-.2412.0191z"/><path d="m21.3188 13.5069.0905-.0088c-.0302-.0089-.0626-.0057-.0905.0088z"/><path d="m17.282 17.6166c.0111-.0107.0185-.0246.0212-.0397.0028-.0152.0007-.0308-.006-.0447-.019.0416-.0341.0764-.0152.0844z"/><path d="m16.4675 18.1616.048-.0307c-.0243.0037-.0452.012-.048.0307z"/><path d="m21.3187 13.5068-.2309.0209c.1053.1156.1409.0191.2309-.0209z"/><path d="m23.4563 11.7201.0466-.0186-.0362-.1624z"/><path d="m25.4416 11.1026c-.0511-.003.0136.2277.0329.3331-.0092-.1019.0093-.1528.0432-.1784-.0193-.0543-.0448-.1063-.0761-.1547z"/><path d="m22.0476 12.3319c-.0294-.0387-.0622-.0746-.0981-.1073.0279.0398.0609.0759.0981.1073z"/><path d="m14.9258 19.0657.0084-.0012c.0345-.0293.012-.0172-.0084.0012z"/><path d="m11.005 20.248c.0268.0441.0589.0847.0958.1208-.0242-.0458-.0567-.0868-.0958-.1208z"/><path d="m14.084 19.6934-.086.0039c.0287.0045.0579.0032.086-.0039z"/><path d="m9.77131 21.3541c-.04507-.0042-.07123-.037-.10896.0256.00795.0101.0172.0192.0275.0269.00501-.0472.02289-.0776.08146-.0525z"/><path d="m27.5317 11.2453c-.0353-.0153-.0695-.0332-.1022-.0535l-.0256.0428c-.0447-.0024-.1343-.0077-.1203-.0445-.1644.0641.0309.0383-.061.1035-.2304-.0973-.564.1627-.6674-.0774-.0463.1405.2233.0552.0195.1883-.1387-.2876-.2439.1115-.4713.0188.0047-.1969.2235-.129-.0223-.2553-.0268.3308-.4087-.001-.5635.088.0923.2889-.3124.2157-.54.4087-.0278-.1197-.5792-.0151-.8985-.0625l-.0219-.0658c.1262.3938-.1557.4302-.2947.5939-.1158-.2441-.1314-.3535-.0811-.4999l-.1787.0709c.0158.0583.0167.1197.0025.1785-.0141.0588-.0429.113-.0835.1578l-.1189-.3261c-.2367.1128-.263.5787-.6797.5241.1755.3072.7128.6994.5652 1.0676-.1094-.1535-.295-.4242-.2598-.5333-.0126.0346-.0031.186-.0942.1488l-.0561-.3411c-.2017-.0442.0765.2658-.0365.3019-.1464-.2309-.1798-.1178-.2851-.3088.012-.0383.1503.0403.1318-.0731-.0969.0112-.1952.0022-.2885-.0265s-.1796-.0766-.2534-.1405c.1005.1252.2102.306.1484.3926-.2027.1657-.2702-.2229-.4883-.25.063.1927-.2056.1326.0559.4713-.0625.0479-.1999-.0964-.2986-.165.003.2203-.4846.5085-.0407.7158l.0467-.0039-.0029.0293c-.0094.6079-.7593.462-.8993.8926l-.0998-.096c-.0441.2887-.2894.4582-.2039.7836-.0501.0509-.2843-.0459-.3736-.1776-.0522.2047.0338.3224-.2928.3664-.0299-.291-.1775-.0903.0126-.254-.2353.0987-.4062-.0045-.3441.4239-.1603-.2894-.3899-.1514-.399.0004l.2615.036c-.0533.1061-.1369.1939-.2404.2521l-.2306-.3335c-.3151.0126-.3085.3305-.3359.6018-.0229.2744-.095.4814-.4189.3878.0686.2723.2658-.0925.3756.2045-.1836.1308-.6161-.0193-.6516.0437-.2753.1392.0851.539-.1943.7035.0381.0162.0723.0404.1001.0711.0279.0306.0488.0669.0613.1064s.0163.0812.0111.1223c-.0051.0411-.0191.0806-.041.1158-.1973.1161-.4049-.0646-.3483-.2189.0323-.0452.0658-.0445.0813-.0216.0333-.0738.069-.1791-.0438-.1784l.033.0865c-.1272.0179-.3216.2641-.3481.1147-.0702.1817.0228.1454.1321.0826-.2597.1308-.3076.3314-.5541.4941.052-.0084.1253.0168.0908.0487-.3648.235-.0814.2103-.2977.4143-.1778.0397-.0611-.1874-.256.0487-.1719.0695-.105-.0827-.0735-.1612-.1526.249-.4313.257-.5719.3197l.0971-.1071c-.0508.0551-.1108.1009-.1772.1355l.123.039c-.0801.0294-.141.0641-.1624.0292-.0384.0966.147.1022.0491.2627-.1234.0143-.2625.2181-.3744.1144.3109-.1106-.0388-.1039.1017-.2214-.0459.0292-.097.049-.1506.0584-.02-.0084-.005-.0296.0116-.0453-.379.019-.0492.2057-.3762.3315-.0071-.0942-.1683-.1224-.2177-.097.1433-.0288.148.1151.0658.2254-.2572-.0005-.1999.1324-.3143.1662l.1469-.0105c.0149.1132-.0952.1451-.2177.2418-.0093-.0096-.0145-.0225-.0146-.0359s.005-.0263.0142-.036c-.0983.1583-.4807-.1216-.617.0716-.1574-.061-.1479-.2495-.2793-.2929-.1677.2416-.4002-.1548-.5931.0605.1927.206.176.139.0952.4092.1236-.0911.2427-.1891.3701-.2706-.0475.1172-.0857.2543-.127.3886.1332-.044.2104-.2262.3105-.2135-.0506.2032-.0604.156.089.2953-.3409-.2421-.2547.3329-.5748.1912l-.2794-.5761c-.4529-.1986-.4042.4805-.8717.4766l.1769.0638c.0634.2786-.2266.133-.3049.2951-.064-.1541-.1704-.2869-.3067-.3831.0749.1589-.279.12-.1353.5726l-.2891-.2116c-.3499.0301-.116.7743-.4524.8345.0076-.2681-.1806-.3477-.0448-.611-.0982.0485-.19918.057-.1488.2004-.10061-.0939-.18115.3981-.34006.2538-.01215.1066.04408.3168-.07747.3488-.01761-.0288-.02843-.0611-.03163-.0947.03239.0956-.1384.2037.03368.3712-.49789-.4155-.8998.364-1.29286.1013-.21022.1645-.43474.3098-.67086.4343l.0024-.0308-.09549.0564-.04468.0248c-.06779.1007-.06224.1988-.30286.2418-.16701.0048.10111-.1011.06673-.1082l-.27298.1756.06517-.0173c.19712-.0455.42031-.0011.43685.0992.00141.0195-.00317.039-.01314.0558-.00997.0169-.02485.0303-.04264.0384.20926.037.41583.0879.61831.1524.31514-.1075.64521-.1648.97813-.1698.11308-.0044.2263.0038.33758.0243.14053-.058.29502-.0733.44419-.044.13077.0272.56703.1781.96953.2605-.0057-.0426-.019-.0838-.0394-.1216.4953.4128.5626-.3244.8558-.1801l.079-.0612c.0681-.0481.1468-.0792.2295-.0906.0826-.0114.1668-.0028.2454.0251.3502-.3377.667-.6724.9716-.9954.2098.4781-.4887.3881-.2385.8746.3615-.4938.4098-1.0672.8694-1.2908.1275-.0432.0318.223.0319.3232.3052-.5411.7511-.7299.9899-1.2243.0124.0233-.0082.0849-.0299.1399.0596-.0761.1685-.1258.0983-.2234l-.0457.0939c-.2057-.0702.0745-.5639.0521-.6267.0439.3587.3954-.2027.402.2594.0332-.058.0665-.1431.0208-.1902.0772-.0399.1173-.0288.0899.0931.2131-.2601.0747-.2647.3046-.4385.0222.0354-.0153.0838-.0118.1437.03-.0903.0778-.1736.1407-.2451.0628-.0714.1394-.1295.2251-.1708.0015.028.0428.0384-.018.078.3417-.2423.4615-.5756.8997-.7484.0063.234.1747-.0257.3077.1096l.1886-.1606-.1476-.0298c.1974-.0982.2582-.3294.4698-.3607l-.0842.1524.3366-.2284-.2627.0389c.1089-.2124-.2124-.228.0659-.3368-.0284.0564.1706-.1284.3749-.0579l-.0001.001c.031-.1296.0493-.2765.23-.3086.1028.0568.2053.2927.273.3307-.0855-.2628.4004-.3162.2843-.6497.038.1009.102.19.1855.2584l-.0996-.246c.1361.0025.177.0257.2724.1572.2843-.1366-.4137-.3176.0217-.3682-.0075.0334.0317.0565.0119.1219.3834-.1157.4248-.5626.7751-.6716.3944.2703-.1461.2669.2049.4734.3353-.3527.3742-1.04.7909-1.2737l-.1034.019c-.4667-.5455.5077.0162.4361-.3802-.0012.0777.2399.3342.1926.2672.3195-.1342.3409-.5738.4897-1.0834l.1047.1762c.2808-.0323.3291-.1966.5305-.249-.0926-.1805.0013-.2212-.2244-.403.5535.2637.6343-.0055.7588-.3004.1117-.2951.2538-.5938.6688-.3655-.0501.035-.0433.2157-.0035.1897l.2783-.3849c-.1614-.2372-.1276-.1238-.3117-.2741-.0224-.073-.0231-.1509-.0018-.2242.0213-.0732.0636-.1387.1216-.1883-.0952.2629.2091.4063.3467.4979-.0501-.0689-.0665-.1684-.1111-.2422.4126.3203-.2082-.5195.2208-.3716l.0428.1329c.0751-.1212.1038-.3321.2382-.3528.1614.2372-.0622.1792.029.404.1418-.1142.1144-.6465.3671-.469-.0419.1033-.1413.1537-.1801.2591.2834.2178.2642.1248.396.1024l-.0136.0002.3065-.0335-.0927-.0317c-.0137-.6888.3616-.3317.54-.7797-.1866.41.0086.1932.0493.4086.0864.0236.2046.0236.1919.0965.008-.029.0223-.0559.0419-.0788.0008-.1287.1083-.2858.3484-.3975.2766-.1477.5727-.2557.8795-.3207-.045-.0201-.0868-.0468-.124-.0792z"/><path d="m21.4234 13.4961-.0151.0019c.0211.0042.0412.0123.0593.0237z"/><path d="m24.4019 13c.017.0253.0404.0458.0678.0594-.0186-.024-.0416-.0442-.0678-.0594z"/><path d="m25.4045 12.4616.1734.0048c-.0572-.0106-.1157-.0122-.1734-.0048z"/><path d="m26.2051 12.1204c-.0008-.0315-.0045-.0628-.011-.0937l-.002-.0003z"/><path d="m14.7625 20.7246-.0218.0354c-.0428.0983-.0086.04.0218-.0354z"/><path d="m18.1687 17.877c-.0105.0541-.0291.1064-.0552.155.0776-.0289.1339-.057.0552-.155z"/><path d="m17.9357 18.1392c.036-.0019.071-.0125.102-.031.031-.0184.057-.0442.0758-.075-.0692.0152-.1316.0524-.1778.106z"/><path d="m26.8181 11.1487.3273.0248c-.0602-.037-.1454-.0996.0063-.0939-.4365-.1501.0963.0851-.3336.0691z"/><path d="m25.792 11.1596c.1614-.063-.0376-.1127-.0438-.1606-.0898.084-.1075.1114.0438.1606z"/><path d="m19.7524 14.8835-.2273-.2497c-.046.1303.0909.0926.2273.2497z"/><path d="m19.9355 16.9787.2292.0576-.144-.2424z"/><path d="m18.0137 16.0283.006-.0732-.0612.2411z"/><path d="m9.27365 23.6436-.01005-.0606c-.00224.0207.00124.0417.01005.0606z"/><path d="m11.2709 24.0068c-.0095.004-.018.0099-.025.0175-.007.0075-.0123.0165-.0154.0263.0203-.0137.0374-.0259.0404-.0438z"/><path d="m11.5703 24.1946-.0167-.011c.0025.0137.0076.0214.0167.011z"/><path d="m9.27356 23.6416.02399.1577c.0336-.153-.00479-.1187-.02399-.1577z"/><path d="m8.372 23.7591-.01537-.0052-.03046.1593z"/><path d="m7.72229 23.477c.02459-.1039.03887-.2101.04261-.3168-.01376.0957-.02723.1367-.04143.1486z"/><path d="m8.81342 24.0146-.01581.1417z"/><path d="m12.0946 24.5691-.0007-.0047c-.016-.0033-.0092.0034.0007.0047z"/><path d="m12.9318 25.9342.0675-.1315c-.0254.0423-.0479.0863-.0675.1315z"/><path d="m12.4679 24.6484.0053.0473c.0021-.0159.0002-.0321-.0053-.0473z"/><path d="m13.7047 25.7432c.001.0228-.0176.0567.0244.0309l.0147-.0306c-.0299.0299-.0502.0427-.0391-.0003z"/><path d="m7.04902 22.897c.01381.0133.02609.0281.03662.0441l.00878-.0397c.01611.0047.04775.0168.04199.0501.05916-.0469-.0104-.0381.024-.0925.07644.1099.21425-.0689.22714.1897.02987-.1253-.07177-.1045.012-.1865.01679.3082.09621-.0499.16256.1046-.02769.1839-.08878.0627-.02564.248.05228-.3075.12976.1214.18688.0933.01742-.2999.1302-.0849.233-.1717-.01377.119.16608.2445.23593.437l-.00879.0684c.05434-.4101.13855-.3076.21455-.3858-.00835.163-.04236.3236-.10078.476l.05932.0206c.00803-.0921.04371-.1796.10236-.2511l-.05432.3383c.07761.016.21015-.3577.28-.0811.00688-.4038.0725-.8045.19479-1.1894-.0148.1968-.04959.3916-.10384.5813.0132-.0226.05741-.1498.06598-.0662l-.09003.3072c.02855.1502.06253-.2584.09812-.2217-.03984.2698.00073.1991-.03661.4131-.01333.0234-.0168-.1201-.04658-.0183.05136.144.06743.2982.04686.4496.00744-.1368.03902-.2713.09329-.3971.08378-.0013-.02519.3394-.00307.4954.05024-.1874.06649.0248.13883-.3935.00951.1069.00374.2147-.01713.32.07206-.1723.19932-.0094.23652-.4672l-.00541-.0317.01039-.017c.22216-.3859.2453.2824.41957.126l-.03074.1349c.11789-.1417.20576-.0673.33419-.3324.01435.1321-.00202.2657-.04788.3904.08783-.0892.13183-.2236.17103-.0106-.1208.2059-.0278.1894-.1073.1502.0556.1128.0205.3021.1987-.0126-.1136.2994-.0445.3827.0209.292l.0021-.2137c.0562-.038.0885-.0108.1212.0159l-.1326.3781c.0194.2193.1535.0178.277-.1411.1221-.1586.2195-.2365.1887.0551.1206-.2214-.0514-.1325.0781-.3995.0665.0531.0168.447.0467.4309.0743.1001.2487-.4111.3371-.3214.0137-.0785.0824-.3101.1929-.3572.0659.0578-.0162.3228-.0927.3845-.023.0072-.0237-.0166-.0133-.0424-.026.0143-.0476.0355-.0624.0613s-.0222.0551-.0214.0848l.04-.0785c.0129.0767.1374.0519.0658.1682.093-.0778.0707-.1129.0363-.1467.0729.0904.1782-.0225.2649.0427-.0054-.0305.005-.0969.0217-.094.1317.0857.1107-.0903.2227-.0836.027.0902-.0932.1644.034.1359.0419.0653-.0388.1231-.0801.1556.1326-.0659.1459.1096.1859.1507l-.0602.0127c.0135-.0034.0276-.0036.0412-.0004s.0262.0095.0368.0186l.0158-.1032c.0185.0303.0394.0442.0219.0809.0528-.042.0483-.1612.137-.2083.0123.0675.1272.015.0737.1589-.0671-.1256-.0529.0919-.1201.0831.0151.0062.028.0223.0353.0563-.0041.0186-.0154.0228-.024.0222.0164.2349.1058-.0963.1917.006-.0205.0276-.035.0592-.0425.0928-.0074.0335-.0077.0683-.0008.102-.0214-.0654.0566-.1671.1206-.1937.01.1536.0807.0285.1039.0735l-.0116-.0801c.0618-.0863.084-.0425.1425-.0355-.0159.0342-.0293.0457-.04.0492.0936-.0515-.0463.3605.0696.3023-.0267.1295-.1345.2555-.1524.3574.1469-.078-.0684.324.059.2855.1103-.2479.0713-.1919.2307-.334-.0573-.0008-.1142-.0075-.1701-.0202l.2262-.1938c-.0321-.0431-.137.0344-.1358-.0274.118-.1117.0917-.0732.1634-.2518-.1219.3561.2024-.0836.14.1854l-.3215.5518c-.0889.3684.2911-.1044.3217.129l.028-.1344c.1644-.2291.0937.0215.1968-.0531-.0862.1334-.1584.2753-.2154.4236.0933-.15.0868.0566.3569-.3325l-.1115.2888c.0432.1421.4895-.486.5545-.3684-.1702.1838-.2069.3276-.383.4493.0377.0116.0504.0525.1372-.0712-.0537.1141.2721-.202.1912-.0259.0692-.0689.1993-.2407.2293-.2063-.0173.0284-.0369.0554-.0586.0806.0586-.0811.1424-.0775.2371-.2738-.2331.5212.332.1351.1909.4939.1207-.0151.2425-.0216.3642-.0195l-.021.0197.0506-.0012.0227.0006c.0754-.0396.1403-.1062.1971-.037.0217.0654-.0762.0214-.0766.0396l.1435.0024-.0183-.0161c-.0264-.0346-.0397-.0774-.0376-.1209.0021-.0434.0195-.0848.049-.1167.0077-.0105.0177-.0192.0292-.0253s.0243-.0095.0373-.0099c.0036-.1237.0161-.2469.0375-.3688-.0593-.0683-.1757-.1078-.2301-.3013-.0154-.0552-.0219-.1124-.019-.1696-.0461-.0255-.0754-.0873-.0658-.186.0138-.092.0514-.3784.067-.6362-.0271.0326-.0519.0671-.0741.1031.2239-.5412-.2597-.0553-.1913-.3071l-.0463.003c-.0786.003-.1004-.0811-.0823-.2005l-.6838.1706c.2658-.4372.2653.0049.5447-.4718-.3352.1515-.6682.5046-.841.4212-.031-.0472.1243-.1649.1848-.2365-.3244.176-.464.0543-.7524.2439.0219-.0302.0489-.0563.0799-.0771-.0459.0158-.0794-.0161-.1301.0927l.0548-.0363c-.0288.171-.3174.3393-.3499.3955.1948-.2698-.1292-.1053.1245-.4253-.0476.0263-.085.0679-.1061.1181-.0252-.0211-.0212-.0534.0471-.1198-.1541.0474-.1462.1299-.2518.1058.0179-.0377.0461-.0477.0785-.0909-.0907.066-.1746.1215-.2421.0549.0148-.02.0182-.0528.0425-.0417-.1453-.0545-.3166.0757-.4275-.0916.1204-.1628-.0226-.096.0404-.2762l-.0879-.0279-.0089.1221c-.0577-.0725-.1732.0317-.2011-.0872l.0813-.0462-.133-.074.0337.1521c-.1114.0679-.1037.2995-.1696.1781.0284-.0166-.0689-.0377-.0458-.2246l.0004-.0005c-.0641.0619-.135.1444-.16.0391.0213-.1085.1283-.3326.1426-.4044-.1215.2328-.1754-.0784-.3229.2117.0462-.0951.0829-.1945.1095-.2968l-.1085.2267c-.0071-.1021.0125-.2042.0567-.2964-.0811-.1202-.1214.4988-.1718.217.016-.016.0242-.0587.0558-.0863-.0817-.1954-.2869.0539-.3581-.1425.0917-.4614.1301-.0566.1973-.4453-.1876-.0307-.4927.3699-.6273.1973l.0173.0662c-.1909.6892-.0386-.392-.20135-.095.04105-.1002.07255-.204.09415-.3101-.08799-.1667-.27793.0856-.49981.2858l.0599-.1889c-.03574-.1899-.16535-.1393-.22675-.2375-.06714.1373-.10684.2863-.11686.4388-.02197-.5658-.1696-.411-.30243-.2466-.13557.1672-.25702.3311-.31383-.069.02562-.0048.08038-.1625.05989-.1601l-.20269.1864c-.01004.1306-.0044.2619.0168.3911-.04174.1724-.10355.3002-.14517.2972.06649-.1933.07603-.4017.0275-.6003l-.02987.2644c-.04467-.4758-.06899.5485-.15949.2249l.01889-.1373c-.05301.0745-.1091.2484-.1545.2085.00205-.2836.05916-.1338.0823-.3741-.07498.0353-.1779.5394-.22109.2744.03442-.078.07719-.084.11291-.1646-.04613-.3131-.06209-.2203-.11188-.2502l.0048.0047c-.03674-.0285-.07562-.0541-.11629-.0766l.02739.0616c-.12289.6384-.18927.1814-.31942.5427.12375-.325.02533-.1844.04115-.3982-.02857-.0489-.07382-.0853-.05857-.1499-.00582.022-.01501.0428-.02724.0619-.00686.0597-.02644.1173-.05741.1688s-.07261.0958-.12213.1298c-.13767.0852-.26421.1945-.34988.2412.01991.0209.03641.0447.0489.0707z"/><path d="m9.26172 23.5726.00192.01.0031-.0592z"/><path d="m8.44056 22.1941c.00154-.0284-.00035-.0568-.00562-.0847-.00066.0283.00122.0567.00562.0847z"/><path d="m7.97818 22.2409-.06119-.0661c.01492.0265.03588.0492.06119.0661z"/><path d="m7.62541 22.2861-.01005.091.00059.0009z"/><path d="m13.0111 23.5402.0205-.0105c.0561-.0401.0224-.0215-.0205.0105z"/><path d="m11.3605 23.2181c.0227-.0247.0492-.0456.0785-.0621-.0182-.0358-.0349-.057-.0785.0621z"/><path d="m11.4992 23.2109c-.0096-.0579-.0323-.0681-.0608-.056.0146.0304.0305.0682.0608.056z"/><path d="m7.29373 23.0556c-.03509-.028-.0719-.0537-.11022-.0771.01948.0412.04452.114-.00541.0886.13775.2117-.02832-.0996.11563-.0115z"/><path d="m7.62559 23.3076c-.05814.0077-.0038.1167-.00878.1629.03822-.0502.04832-.0696.00878-.1629z"/><path d="m9.93379 23.9707-.08845.3255c.05565-.047.03251-.1257.08845-.3255z"/><path d="m10.831 22.5315.0096-.2063-.0984.2555z"/><path d="m10.5096 24.516-.0327.0424.1102-.1102z"/><path d="m42.9061 20.8828.0352.047c-.0077-.0183-.0198-.0344-.0352-.047z"/><path d="m41.5077 21.8183c.0014-.0207-.0048-.0412-.0174-.0576-.0007.0206.0054.0408.0174.0576z"/><path d="m41.2397 21.9301.0156-.0062c-.0123-.0059-.0204-.0064-.0156.0062z"/><path d="m42.907 20.8852-.0951-.1264c.0512.1495.0623.1013.0951.1264z"/><path d="m43.575 20.4321.015.0006-.0227-.1602z"/><path d="m44.1985 20.5576c-.0037.1067.0019.2135.017.3193-.0085-.0511-.0054-.1034.0089-.1532z"/><path d="m43.1023 20.3518-.046-.135z"/><path d="m40.7521 22.1692.0042.0013c.0069-.0125-.0006-.0094-.0042-.0013z"/><path d="m39.2937 22.6133.1284.077c-.0409-.0287-.0838-.0544-.1284-.077z"/><path d="m40.5931 22.4542-.0441-.0128c.0136.0073.0287.0116.0441.0128z"/><path d="m39.4922 23.372c-.0225.0008-.0579-.0156-.0288.0223l.0314.0132c-.032-.0269-.0462-.0455-.0026-.0355z"/><path d="m44.784 21.0784c-.0106-.0132-.02-.0273-.0278-.0423l-.0057.0401c-.0105-.0024-.0197-.0087-.0258-.0176-.006-.009-.0085-.0198-.0069-.0305-.0426.0497.0088.0376-.0148.0936-.0622-.106-.1512.0787-.1817-.1784-.0118.1262.0618.1007.0067.1865-.0404-.3056-.0662.0525-.1311-.0947-.0016-.1877.062-.0678-.0096-.2496-.0024.3124-.1171-.0999-.1627-.0626.0342.2986-.0887.1044-.1525.206-.0129-.1219-.1814-.2123-.2912-.3718l-.0107-.0682c.0635.4092-.0274.3327-.0632.4276-.0435-.1568-.0636-.3192-.0594-.4818l-.0574-.0028c.0209.0881.0188.1801-.0062.2672l-.0634-.3361c-.0786.0054-.0533.3977-.2088.1715.1385.3784.2376.7701.2957 1.1688-.0615-.1873-.1084-.3792-.1403-.5737-.0012.0256.0154.1585-.0211.0842l-.0493-.3156c-.0775-.128.0502.261.0121.2396-.0733-.2627-.0764-.183-.1316-.393.0015-.0265.0593.104.0432-.0006-.0974-.1156-.1715-.249-.2182-.3928.0496.1271.0796.2611.0889.3973-.0646.0329-.1224-.3179-.2098-.4499.0402.189-.0695.0049.0602.409-.0553-.0917-.0994-.1899-.1313-.2922.0208.1871-.1547.107.0376.5227l.0186.0252.0007.0196c.0388.4382-.3131-.1383-.3525.092l-.0534-.1276c0 .1814-.0998.1697-.024.4513-.0864-.0999-.1543-.2144-.2004-.3382-.0044.1204.0528.2475-.1044.1038-.0517-.2297-.102-.1636-.0241-.1781-.108-.0594-.2091-.2146-.1181.1334-.1218-.2969-.2243-.3109-.2065-.2009l.1415.1577c-.0098.0644-.0471.065-.0852.0667l-.1736-.3607c-.3313-.2524.1855.8706-.2313.3883.0974.2322.1254.05.2487.3201-.0689.0091-.3366-.282-.3426-.2488-.1196-.0074.1818.4382.074.4432.0961.0994.1625.2237.1917.3588-.0659.0111-.2389-.2053-.2545-.2994.0039-.0214.0225-.008.0379.0152-.0004-.0292-.0075-.0579-.0208-.084-.0132-.0261-.0322-.0488-.0555-.0665l.043.0772c-.0645-.0356-.0985.0738-.1594-.0481.0212.116.0593.1188.0997.1128-.1021.003-.0551.1464-.1413.1732.0271.0129.0769.0579.0681.0685-.1191.0481.0307.1288-.0084.2112-.0802-.0258-.1047-.1576-.1199-.0435-.0664 0-.09-.0919-.1031-.1415.0127.1381-.138.0624-.1874.0759l.0085-.0543c-.001.012-.0054.0234-.0127.033-.0072.0096-.017.017-.0283.0212l.0842.0608c-.0316.0004-.0502.0104-.0767-.0204.0205.0608.1244.1135.1397.2038-.0636-.0238-.0443.0928-.1547-.0114.1223-.0032-.0668-.0832-.0427-.1361-.0094.0098-.0261.0145-.0575.0067-.015-.0111-.0158-.0226-.0131-.0297-.2093-.08.0576.1297-.0515.1609-.0381-.0567-.0967-.0966-.1634-.1113.0644.006.1353.1124.1452.1756-.1397-.0497-.0434.0565-.0886.0588l.0748.0202c.0646.0834.0212.0845.0037.1291-.028-.0253-.0359-.0404-.0369-.0504.0284.0906-.3183-.1599-.2849-.0374-.115-.0607-.2138-.1938-.3062-.2373.0471.1563-.2973-.1427-.2882-.0096.2217.1575.1721.1111.2837.2888.0096-.0517.0255-.1022.0473-.1501.042.0794.0914.1637.1482.2529.0442-.0162-.0131-.1301.0445-.1124.0865.1355.0556.1004.2103.214-.3142-.2047.0562.194-.1866.0672l-.4849-.4156c-.355-.1543.0664.3011-.1614.2917l.129.0443c.2112.1868-.0262.0844.0409.1899-.126-.0974-.2622-.1808-.4061-.2489.1445.103-.0678.0805.3144.3676l-.28-.1231c-.1406.0432.4908.485.3877.531-.1913-.1599-.3348-.1957-.4628-.3642-.0101.0362-.0504.0488.0768.1309-.1174-.0486.2179.2508.0385.1758.0738.0622.2568.1789.2305.2057-.0296-.0151-.0581-.0323-.0854-.0513.0854.052.0987.1255.298.207-.2836-.1116-.2716-.0192-.267.0604.0094.0834.0107.1563-.1542.1217.0374.1002.1121.2298.1307.3066l-.0248-.0144.0176.0409.007.0183c.0612.0551.144.0967.1009.1495-.0521.026-.0458-.0556-.0625-.0537l.0479.1106.0082-.0162c.0296-.0263.0667-.0424.1061-.0461s.0789.0052.1128.0255c.0233.0083.043.0245.0555.0458.1124-.0091.2253-.0079.3375.0035.0376-.043.0231-.1353.1849-.163.0475-.0083.096-.0092.1438-.0028.0087-.0305.054-.0468.1412-.0294.082.018.3353.0797.5618.1482l-.1063-.0691c.5131.2637-.0168-.1567.2115-.0552l-.0137-.0314c-.0231-.0546.0476-.0443.1512.0036-.0902-.1657-.171-.3364-.2419-.5112.3911.3303.0297.1828.4657.5219-.1882-.2632-.5032-.6164-.4351-.7058.0384-.0035.1415.1484.205.2156-.1612-.2855-.0681-.3416-.2001-.619.0226.0276.0421.0576.058.0894-.0098-.0385.0191-.0476-.0666-.1315l.0255.0545c-.1421-.0933-.2512-.3764-.2914-.4276.2003.263.1047-.0504.3365.2814-.0183-.0494-.0471-.0942-.0844-.1314.0204-.009.0457.0092.0919.0896-.0202-.1332-.0902-.171-.0498-.2315.0219.0321.0419.0654.0599.0998-.038-.0948-.0655-.1824.0026-.1957.0129.0208.0385.0402.0248.0514.073-.0691.0058-.2719.1688-.25.0924.1744.0806.0417.2002.1905l.0437-.0391-.0889-.08c.0694.007.0256-.1332.1205-.0779l.011.0819.0895-.04-.1185-.0737c-.0163-.1167-.1865-.256-.0771-.2256.0019.0293.0506-.0245.1777.1167l.0003.0007c-.0221-.0798-.0533-.1793.0301-.1236.0676.0869.1856.3041.2303.3618-.1182-.2323.1073-.0466-.033-.339.0464.0949.0988.1868.157.2749l-.1111-.2249c.0711.0709.1294.1537.1723.2445.1034.0399-.2797-.4311-.0788-.2552.0134.0304.0248.0616.0342.0934.154.1045.0796-.192.2277-.0801.2358.4053-.0146.1108.1904.4455.0701-.0705-.029-.537.1278-.4537l-.0427-.0469c-.279-.6584.2232.3073.1373-.0126.0326.1031.0709.2043.1148.3031.1135.0981.0675-.1823.0884-.4451l.0557.1892c.0999.1546.1347.0623.2019.1275-.0249-.1499-.0654-.2967-.1209-.4382.2397.5083.2382.3285.2516.1347.0095-.1928.0319-.3956.1846-.0243-.0064.0556-.0006.112.017.1651l.0522-.2209c-.0297-.1267-.0703-.2507-.1213-.3704-.0258-.1741-.0218-.3113.0072-.3186.013.2014.0625.3988.146.5825l-.0526-.261c.1502.4475-.1007-.5434.0427-.254l.0216.1371c.0145-.0844.0116-.2662.0514-.2388.0614.2755-.0087.144.032.3821.0332-.054-.0006-.5572.0831-.3054-.0077.0816-.0345.0935-.0404.1773.094.3004.0823.2077.1185.2303l-.0037-.004c.0258.022.0531.0421.0819.06l-.0264-.0572c-.0284-.6458.088-.2047.128-.581-.0445.3399.006.1862.0207.4004.0324.0403.0511.09.0533.1418.0009-.0212.0043-.0423.0099-.0627-.0088-.1092.023-.2178.0894-.305.0862-.091.1732-.2061.2357-.2569-.0151-.0211-.0274-.0441-.0364-.0685z"/><path d="m42.9481 20.9404-.0061-.0078.0256.0531z"/><path d="m43.9752 21.9453.0253.0802z"/><path d="m44.2316 21.8135.048.0569c-.0115-.0224-.028-.0418-.048-.0569z"/><path d="m44.4369 21.7232-.0048-.0915-.0005-.0008z"/><path d="m41.4802 23.3145.0074.0187c.0297.0559.0163.0248-.0074-.0187z"/><path d="m42.0565 22.377c.0093.0286.0151.0582.0173.0882.0319.0131.0523.0177-.0173-.0882z"/><path d="m42.0159 22.4669c.0443.0307.0566.0209.0582-.0031-.0275-.0128-.0578-.0241-.0582.0031z"/><path d="m44.593 20.9323.0882.0716c-.0164-.0402-.0393-.1116.0006-.0888-.1175-.2045.0267.0982-.0888.0172z"/><path d="m44.3038 20.7094c.0464-.0171-.0126-.1161-.0152-.1625-.0255.0559-.03.0766.0152.1625z"/><path d="m42.264 20.9537-.139-.3072c-.0117.0698.0552.1175.139.3072z"/><path d="m42.6919 22.5652.1212.1632-.1176-.246z"/><path d="m41.5186 20.9385-.0096-.0528.0132.1548z"/><path d="m35.5337 23.6875.0393.058c-.0053-.0236-.0193-.0443-.0393-.058z"/><path d="m31.7305 23.9296c.0117-.0046.0219-.0127.0291-.0231s.0111-.0227.0114-.0354c-.0263.0218-.0479.0406-.0405.0585z"/><path d="m30.973 23.9517.0605-.006c-.0254-.0074-.0503-.0083-.0605.006z"/><path d="m35.5337 23.6874-.1004-.1513c-.0086.1565.0511.1161.1004.1513z"/><path d="m37.2255 23.4807.031.0049.0325-.1604z"/><path d="m38.5137 23.7817c-.0281-.0215-.0552.2118-.0736.3142.0233-.0949.048-.135.0745-.1457.0039-.0561.0036-.1124-.0009-.1685z"/><path d="m36.3014 23.256-.0086-.1427c-.0009.0477.002.0954.0086.1427z"/><path d="m29.1572 24.1133.0071-.0015c.0046-.0256-.0051-.0143-.0071.0015z"/><path d="m28.338 24.0029c.0194.0463.043.0908.0704.1328-.0173-.0473-.041-.0919-.0704-.1328z"/><path d="m29.4678 24.4575-.005-.0141c.0108.0087.005.0141.005.0141z"/><path d="m27.4672 24.9149c-.0341-.0074-.0573-.0408-.0788.0163l.0235.0279c-.0015-.0448.0089-.0728.0553-.0442z"/><path d="m39.7283 24.4735c-.0212-.0155-.0409-.0332-.0585-.0527l-.0219.0372c-.0279-.0083-.083-.0274-.0682-.0591-.1128.0331.0132.0401-.0555.0862-.1249-.1263-.3863.0267-.3915-.2332-.0621.1198.1217.1166-.034.1842-.0123-.3105-.175.0329-.2873-.1296.0548-.1817.1652-.0495.0538-.2453-.103.3018-.2392-.1345-.3506-.1112-.0268.2991-.2407.0746-.4268.1562.0189-.1203-.3257-.2545-.4862-.4433l.0082-.0686c-.0525.4113-.221.3103-.3505.3905-.0103-.1678.0302-.3348.1162-.4793l-.119-.0194c-.0338.1401-.0738.2116-.1526.2544l.0428-.3406c-.1596-.0156-.3323.366-.5283.0983-.0205.3526.1323.9696-.0861 1.2033-.0176-.1981.0013-.3977.056-.589-.0189.0239-.0694.1549-.104.0725l.0939-.3147c-.0885-.1467-.0554.2634-.1282.2305.0085-.2727-.0495-.1984-.0335-.4152.0195-.0245.0615.118.0926.0138-.1213-.1173-.1952-.275-.2077-.4431.0036.1588-.0087.3731-.0705.4049-.1583.0102-.047-.3406-.1366-.4935-.0422.192-.1398-.0175-.1498.4069-.0463-.0044-.0516-.2034-.0675-.3197-.0852.1816-.3843.0423-.2976.4999l.0207.0304-.0136.0185c-.271.4195-.5532-.239-.8201-.0454l.0005-.1384c-.1586.1654-.3529.1142-.4644.4027-.0465.0003-.1114-.2341-.0923-.3903-.1207.1086-.1327.2486-.3095.0534.1198-.2306-.0439-.1907.1235-.1728-.1585-.0961-.197-.2841-.3621.069.0538-.32-.124-.3784-.1978-.2718l.1138.2042c-.035.0201-.0739.0325-.114.0363-.0402.0038-.0807-.001-.1188-.0142l.034-.4006c-.1658-.2027-.3086.0311-.4405.2211-.1323.1917-.255.3007-.3862.018-.0785.2507.1787.1041.11.4005-.1485-.0249-.3152-.409-.3615-.3826-.2069-.0638-.1745.4745-.3888.4274.0305.077.0648.3167-.0895.4069-.1483-.0235-.1949-.2986-.1048-.3878.035-.0165.0531.0045.0527.0324.0464-.0406.1073-.0959.0454-.1687l-.0157.0884c-.0766-.0636-.2782.0138-.2363-.1225-.1078.1115-.0419.1331.042.1481-.2118-.0575-.2527.119-.5731.1295.0545.0155.1057.0697.0633.0792-.4195.0013-.144.111-.3635.1655-.1881-.0569-.0655-.1677-.2856-.0887-.2103-.0339-.1554-.1159-.107-.1587-.0927.0622-.2625.0269-.4348-.0029l-.264-.0525c-.0542-.0042-.1087-.0026-.1625.0049.0256-.0243.0377-.0594.0766-.0769-.053.0373-.1111.0667-.1726.0872l.214.067c-.0986.0052-.1453.0288-.2087-.008.0362.08.2909.1268.3122.2428-.141-.0064-.1089.1229-.3189.052.2308-.0706-.1305-.0687-.1014-.1633-.0107.0148-.0244.0273-.0401.0367-.0158.0094-.0332.0155-.0514.018-.027-.0043-.0321-.0209-.0313-.0344-.2839.0849.1211.1308.0328.3037-.0919-.0347-.1737-.0404-.1526-.0422 0 0 .1485.0496.2671.0781-.0385-.0337.1334.011.1634.004l.0043.0228c.0948.0253.1917.0419.2895.0498-.0308-.012-.0625-.0213-.0949-.0279.0905.022.0549-.0052-.0032-.0139.0112.0021-.1018.0165.0115.0126l.0761-.0017.0398-.0008.005-.0001h.0026l.482.2489-.0008-.0002-.0057-.0023-.0111-.005c-.0287-.0137-.0534-.0345-.0718-.0605-.0076-.0372-.1353-.1639-.1763-.2566-.0272-.0485-.0513-.0987-.0721-.1503-.0012.0059-.0018.0119-.0017.018-.0771-.1036-.1217-.2614-.1771-.3438-.043.1666-.2225-.2551-.3349-.1184.124.2438.1182.1755.0597.4043l.2346-.1447-.0726.3186c.0908-.0054.135-.1464.1941-.1098-.0195.1714-.0324.1263.0708.2927-.2229-.3131-.1703.237-.3863.0259l-.181-.6124c-.3034-.2915-.2945.3375-.6234.2428l.1256.0974c.0423.2811-.1617.0797-.2185.2199-.0437-.1566-.1199-.3022-.2236-.4273.0568.1672-.2091.0601-.093.522l-.2166-.2477c-.26-.0142-.0508.7281-.2828.7442-.0157-.2569-.1623-.3536-.0781-.5943-.0708.0368-.1469.0353-.0978.1783-.0861-.1029-.0956.3744-.2286.22.0026.1014.0694.3066-.0144.3295-.0168-.0289-.0289-.0603-.0359-.093.0355.0936-.0716.187.0769.3582-.4348-.429-.5622.3389-.9136.1156-.1209.1499-.235.3743-.3299.5091l-.012-.0272-.0391.0761-.0181.0338c.0014.101.0565.1758-.0681.2828-.1001.0651.0051-.1078-.0163-.0986-.0278.0719-.0495.1461-.0649.2216l.0283-.0359c.0867-.112.251-.1357.308-.062.0099.0107.0169.0239.02.0382.0032.0143.0025.0292-.002.0432.1435-.0112.2878.0053.4251.0486.1466-.1166.3272-.1824.5145-.1874.0732.0002.1459.0128.215.0371.042-.0213.0886-.0321.1357-.0316.0471.0006.0934.0125.1349.0348l.6325.3566c-.0091-.0414-.0224-.0818-.0396-.1206.3519.4827.3106-.2115.5114-.0168l.0439-.044c.0791-.0745.1905-.0457.2942.0393.2061-.2347.4029-.4955.617-.7085.1305.4954-.3286.2372-.1573.7627.2264-.3875.2696-.8857.6125-1.0104.1057-.0092.0096.2138.0099.3094.0615-.1041.1399-.1972.2322-.2755l.1693-.1384c.1881-.1256.3436-.2942.4538-.4917.0113-.058.0155-.1171.0127-.1762.0003-.037-.002-.0124-.003-.0217l-.0106-.0054-.0324-.0099-.1518-.0416.1325.0405c-.0264-.0063.0441.0177-.1674-.0489l.0713.0205-.958-.2908c.3809.1139.3393.1186.4345.1077.2075.0362.4087.1022.5973.1961l-.2857-.1191c.1051.0287.2071.0676.3046.1162-.0814-.0549-.3027-.151-.2274-.1581l.2071.1188c-.1589-.0904-.256-.1879-.126-.1543.036.0292.0942.0661.0776.0668.0305-.0196-.0421-.2729.1986-.1888.0321.2258.0737.0708.1083.2657-.0077-.0262.0644-.022.101-.034l-.0631-.1115c.1171.0307.2413-.1099.3611-.0154l-.0983.077.2566.0095-.1502-.1232c.1341-.1096-.0285-.316.1581-.2344-.0361.0268.1381.0044.2163.1877l-.0004.0007c.0649-.0817.1317-.1851.2362-.0967.0299.1087-.0098.3567.0097.4288.0586-.2618.32.0079.3963-.316-.0219.1041-.0261.2112-.0123.3167l.0496-.2509c.0321.0418.055.0899.067.1412.0121.0512.0131.1045.0029.1561.1924.084-.0728-.5112.1596-.2631-.0173.0203-.0079.0634-.0441.0996.2304.1594.437-.1408.649.0251.0678.4677-.1809.0931-.1048.4841.2981-.0302.6163-.4969.9088-.3598l-.0546-.0601c.0383-.7151.218.3712.3643.0444-.0291.1052-.0418.2144-.0376.3235.1983.1393.4055-.1425.7102-.3788l-.0392.1965c.1152.1805.3071.1084.432.1952.0406-.1974.1126-.1672.0732-.452.3668 1.081.7617-.5882 1.0847.2521-.0415.006-.1039.1663-.071.163l.3007-.1952c-.0122-.2839-.0319-.1687-.0857-.391.0441-.1741.1333-.3044.2072-.3025-.1414.1865-.0171.4552.0333.602-.006-.0844.0177-.1796.0165-.2657.1334.4754.0506-.5514.2481-.2288l-.0179.138c.0828-.0757.1651-.2505.2489-.2107.02.2839-.0917.1343-.1096.3752.1206-.0377.2666-.537.3599-.2692-.0557.0767-.1292.0805-.1844.1601.0997.3163.1179.2239.2033.2561l-.0084-.005c.0651.0313.13.0593.1952.083l-.0467-.0633c.1927-.6329.3148-.1699.5453-.5198-.2233.314-.0476.1822-.0807.3945.0471.0509.1206.0927.093.1557.0115-.0225.0277-.0424.0473-.0583.0251-.0692.0679-.1307.1242-.1781.0563-.0475.1241-.0793.1966-.0923.242-.0615.478-.1419.638-.1656-.0291-.0231-.0542-.0508-.0746-.0819z"/><path d="m35.5794 23.7555-.0068-.0094c.0069.019.0116.0387.0139.0588z"/><path d="m37.3345 25.0498c.0012.0292.0079.0579.0198.0846-.0026-.029-.0093-.0574-.0198-.0846z"/><path d="m38.0991 25.0039.1041.0695c-.0297-.03-.0651-.0536-.1041-.0695z"/><path d="m38.6852 24.9847.019-.0902-.001-.0009z"/><path d="m31.0831 24.998.0161.0046c.0581.0179.0337.0105-.0161-.0046z"/><path d="m32.0997 24.6865c-.024.0339-.0536.0635-.0876.0873.0513.0261.0907.0395.0876-.0873z"/><path d="m31.8812 24.7484c.015.0195.0366.0328.0607.0375.024.0047.049.0005.0703-.0118-.0416-.023-.0908-.0491-.131-.0257z"/><path d="m39.3052 24.2619.1926.0991c-.03-.0449-.068-.1225.0209-.0867-.2301-.2391.0408.1045-.2135-.0124z"/><path d="m38.6994 23.9581c.1102-.0021.008-.1163.0174-.1622-.074.0465-.092.065-.0174.1622z"/><path d="m34.1637 23.5043.0088-.3373c-.0839.0594 0 .1299-.0088.3373z"/><path d="m33.3234 25.1437.0839.1992.0336-.2736z"/><path d="m32.7726 23.1629.036-.0516-.1379.1428z"/><path d="m23.4167 24.3506.0212.0622c.0003-.0226-.0071-.0446-.0212-.0622z"/><path d="m20.6105 24.3888c.0098-.0057.018-.0138.0238-.0236.0058-.0097.009-.0208.0093-.0322-.0204.0201-.0372.0375-.0331.0558z"/><path d="m20.1416 24.3081.0266.005c-.0099-.0123-.02-.0178-.0266-.005z"/><path d="m23.4168 24.3512-.0547-.1598c-.0291.154.0224.12.0547.1598z"/><path d="m24.7999 24.4718.0236.0133.0841-.1404z"/><path d="m25.668 25.2677c-.0076-.0322-.1693.1383-.2437.2109.0732-.0642.115-.0834.1402-.0784.0375-.0417.0721-.086.1035-.1325z"/><path d="m24.1049 24.0392.0249-.1408c-.0115.0464-.0198.0934-.0249.1408z"/><path d="m19.2804 24.1544.0037.004c.0219-.0035.0095-.0069-.0037-.004z"/><path d="m17.2124 23.3604c.0075.0492.0185.0978.0329.1455-.0055-.0496-.0165-.0984-.0329-.1455z"/><path d="m18.7725 24.2334-.0364-.041c.0087.0164.0211.0304.0364.041z"/><path d="m16.4089 24.055c-.026-.0146-.0414-.052-.0637.0001l.0163.0317c.0028-.0443.0138-.0696.0474-.0318z"/><path d="m25.8063 26.4449c.0057-.0208.0136-.041.0234-.0602l-.0416.003c-.0035-.0213-.0081-.0652.0253-.0712-.0726-.0554-.0298.0276-.0965.0073.052-.1418-.1858-.2051.0104-.3639-.1255.041-.0281.1371-.1611.0957.2299-.2027-.1103-.074-.0537-.2366.1615-.1026.131.0573.206-.144-.2744.1631-.0534-.2312-.154-.2751-.2049.2237-.2035-.0628-.3821-.0659.0808-.0976-.0984-.3466-.15-.5747l.0353-.0596c-.2141.3562-.2952.2138-.4211.2506.049-.1588.1414-.3008.2668-.4098l-.09-.0559c-.0774.1213-.1337.1776-.2092.1973l.149-.309c-.1329-.0649-.379.2624-.46-.0381-.1027.3382-.1727.9576-.3788 1.1449.0388-.1942.1039-.3821.1935-.5587-.0204.0191-.09.1377-.0937.0523l.1499-.2879c-.0294-.1575-.1092.2448-.1535.2006.0739-.2626.0117-.2008.0763-.4083.0214-.0202.0183.1255.0684.0302-.0671-.1469-.0882-.3106-.0605-.4697-.0327.1558-.0917.3614-.1463.382-.1252-.014.0364-.3396-.005-.5037-.0731.1811-.1119-.04-.2004.3751-.0351-.0113-.0026-.2079.0056-.3242-.1013.1674-.3144-.0087-.3174.4546l.0107.0325-.0132.0166c-.2611.3849-.3847-.2933-.6123-.1205l.0136-.1377c-.1369.152-.2754.0907-.3775.3783-.0338-.0009-.0627-.2363-.0368-.3916-.096.1048-.1152.2445-.2286.0443.1044-.2264-.0174-.1915.1027-.1686-.1077-.1007-.1219-.2893-.268.0573.0628-.3174-.0624-.3816-.1238-.2781l.0677.2078c-.0241.0185-.053.0296-.0832.032-.0303.0025-.0606-.004-.0873-.0185l.0536-.3984c-.1062-.2084-.227.0189-.3361.2028-.1094.1856-.2056.2886-.2813.0001-.0741.2464.1223.1125.0523.4049-.1058-.0319-.2005-.4236-.2358-.3998-.1456-.0748-.1579.4641-.3095.4047.0168.0786.0258.3198-.0912.4005-.1054-.0328-.121-.3102-.0501-.3935.0262-.0142.0379.0079.0359.0357.0257-.0179.0442-.0444.0522-.0747.0081-.0303.0051-.0624-.0084-.0907l-.0172.0872c-.0511-.0682-.2015-.004-.1622-.1374-.085.1039-.039.1299.0205.1506-.1362-.0616-.2179.0796-.3588.0463.0219.0271.0408.0933.0184.0961-.2068-.0377-.0944.1207-.2355.1553-.0782-.0737.0325-.1872-.1103-.1136-.0856-.0451-.016-.1287.0193-.1742-.1312.1103-.2408-.0479-.3146-.0715l.0687-.034c-.0335.0169-.072.0211-.1084.0119l.0377.1019c-.0397-.0213-.0735-.0266-.0724-.0672-.0417.0586.0296.1679-.0527.2446-.0526-.0595-.1618.0353-.1793-.1174.1538.0869.0119-.1058.0999-.1251-.0146-.0007-.0289-.0043-.042-.0106-.0131-.0064-.0249-.0153-.0344-.0264-.0013-.003-.0019-.0063-.0017-.0097.0001-.0033.0011-.0065.0027-.0094s.0039-.0054.0066-.0073.0059-.0031.0092-.0036c-.1598-.2074-.0746.1313-.2407.0733.0076-.0355.0054-.0723-.0061-.1067s-.0321-.0651-.0595-.0888c.0672.0509.032.1757-.0296.2263-.1067-.1359-.1158.0072-.1716-.0244l.0639.0685c-.0213.1042-.0746.0733-.1485.091-.0027-.0377.0061-.0538.0168-.0614-.0774.0842-.1761-.3451-.2799-.241-.0551-.1276-.0085-.2888-.057-.3879-.1283.136-.146-.3203-.2823-.2286.0446.2713.0499.2037-.0425.4026.0727-.0258.1475-.0454.2235-.0587-.0469.0829-.0933.1747-.1393.2752.0677.024.1409-.0926.182-.0369-.0662.1531-.0596.1068-.0247.2987-.0978-.3731-.179.1662-.29-.1023l-.0098-.6383c-.1759-.3631-.2876.2464-.5164.0734l.0776.1255c-.0167.283-.1335.0365-.1997.1594-.0068-.1606-.0411-.3189-.1014-.468.0178.1753-.172.0089-.151.4851l-.1301-.2909c-.2043-.0711-.1343.6966-.3086.6611.0151-.2525-.0889-.3785.005-.5937-.0602.0204-.1201.0019-.0971.1517-.0592-.1159-.1128.3442-.2021.1675-.0071.0996.0287.313-.0372.3174-.011-.0315-.0181-.0642-.0213-.0974.0203.098-.0673.1658.0356.3621-.1521-.274-.2693-.189-.3734-.1093-.1055.0817-.1999.1605-.3372.04-.0963.1221-.1829.3006-.2571.3991l-.0095-.0275-.0308.0568-.0145.025c.0016.0922.0414.1704-.0631.2239-.0863.0156.0118-.0875-.0082-.0908l-.0709.1586.027-.0179c.0419-.0262.0923-.0352.1406-.0251.0484.0102.091.0386.1189.0793.0077.0109.0125.0236.014.0369.0015.0132-.0004.0266-.0055.039.124.0326.2421.085.3495.155.055-.0363.117-.0605.1821-.0709.065-.0104.1315-.0068.195.0105.0548.0182.1057.0463.1502.083.0458-.023.1158-.0056.1821.0636.0618.0682.2433.2861.3905.4887l-.0188-.1256c.1882.5502.2061-.1301.3187.106l.0325-.0314c.0571-.0529.1242.0017.1797.11.1539-.1869.3206-.3628.499-.5265.0029.5111-.2509.1426-.2188.6944.1928-.3147.3191-.7896.5465-.7901.0593.0279-.0303.2036-.0484.295.2233-.3044.438-.2622.6417-.5513-.0072.037-.0219.0722-.0432.1033.0403-.0334.0937-.0183.0891-.1383l-.0393.0558c-.0656-.1678.1605-.4406.1684-.5052-.0696.3264.2042.0425.0932.439.0375-.0413.0572-.0957.0547-.1514.0396.0088.052.0398.0113.1285.1459-.1062.0949-.1807.2272-.1976-.0009.0418-.0277.0616-.0419.1139.0675-.0952.1359-.1781.2472-.1413-.007.024.0054.0558-.0278.0545.1912-.0021.3306-.1913.5387-.0707-.0667.1936.0696.0832.0756.2742l.1126-.0028-.0417-.1182c.0973.0493.1892-.0872.2709.0158l-.0758.0705.1842.0258-.1002-.1324c.1039-.1008.0003-.3168.1294-.224-.0279.0246.0993.0129.1433.1999l-.0004.0007c.0521-.0779.1072-.1772.1765-.0836.0142.11-.0309.3554-.0217.4283.0598-.2579.2292.0242.3061-.2958-.0229.1035-.0331.2095-.0305.3155l.0529-.2481c.0417.0942.052.1993.0296.2998.1322.0922-.0167-.5132.133-.2556-.014.0194-.0103.0628-.0387.0974.1539.169.3238-.1228.4639.0499.0142.4689-.1365.0867-.1103.4794.2147-.0197.4783-.476.6777-.3325l-.0342-.0613c.0862-.7138.1255.3763.2473.0613-.0293.1045-.0477.2117-.0547.32.1156.15.2725-.1178.5073-.324l-.0535.191c.0491.1869.1771.1354.2387.2326.0707-.136.1145-.2844.129-.4371.012.5718.1446.4211.3019.2769.1536-.1515.3294-.2841.2922.1194-.0243-.0025-.1093.1403-.0903.1421.0734-.0478.1488-.0917.2273-.1324.0485-.1219.0783-.2503.0886-.381.0862-.1539.1938-.2588.2408-.2368-.1589.1379-.1776.4193-.2119.5634l.1133-.2408c-.1149.4646.2527-.493.2449-.1489l-.0703.1193c.0789-.0461.2109-.1768.2455-.1169-.125.2538-.1201.092-.2418.3004.0783-.0096.421-.3909.3359-.1298-.0731.0467-.1159.0272-.1853.0791-.1098.3015-.0581.2236-.0326.2738l-.0012-.0063.04.1189.0181-.0637c.4751-.4424.2534-.0401.6021-.198-.3335.1296-.1507.1107-.3178.2459-.0152.0522-.0141.1028-.0719.1367.0186-.0108.0389-.0186.06-.023.048-.036.1046-.0588.1642-.0661.0595-.0073.12.0011.1753.0243.1434.0676.2754.1572.3912.2655.0104-.0289.0252-.056.044-.0804z"/><path d="m23.4413 24.4233-.0037-.0102c.0024.0198.0028.0399.0014.0598z"/><path d="m24.293 25.9561c-.0106.0263-.0183.0537-.023.0817.0101-.0265.0178-.0539.023-.0817z"/><path d="m24.7024 26.0918.0098.083c.0048-.028.0014-.0569-.0098-.083z"/><path d="m24.9728 26.2469.0715-.0574.0002-.001z"/><path d="m18.8073 25.4697-.0164.0186c-.0384.0612-.0124.0295.0164-.0186z"/><path d="m20.8265 25.167c-.0181.031-.0413.0588-.0687.0821.0352.029.0626.0445.0687-.0821z"/><path d="m20.6649 25.2143c.0345.0517.0646.053.0936.0337-.0287-.0256-.0627-.0548-.0936-.0337z"/><path d="m25.8049 26.0723.0088.1732c.0239-.0408.0718-.1069.0832-.0305.0902-.2763-.0674.082-.092-.1427z"/><path d="m25.6819 25.5098c.0738.0621.0839-.0811.1198-.1106-.0822-.0107-.1043-.0049-.1198.1106z"/><path d="m22.402 24.0705.0324-.3361c-.0656.0568-.01.1295-.0324.3361z"/><path d="m21.674 25.679.0455.2015.0432-.2711z"/><path d="m21.416 23.6798.0299-.048-.1103.1356z"/></g></svg>