<svg alt="table" fill="none" height="54" viewBox="0 0 54 54" width="54" xmlns="http://www.w3.org/2000/svg" xmlns:xlink="http://www.w3.org/1999/xlink"><clipPath id="a"><path d="m4 12h46.4476v33.4649h-46.4476z"/></clipPath><g clip-path="url(#a)" fill="#8a2432"><path d="m46.6132 18.8886-.0381-.0439c.0094.0172.0224.0321.0381.0439z"/><path d="m47.8417 18.0752c-.0032.02.0005.0405.0103.0582.0025-.02-.0011-.0403-.0103-.0582z"/><path d="m48.0942 18.0254-.0145.0024c.0101.0083.0173.0107.0145-.0024z"/><path d="m46.6138 18.8887.1021.1186c-.0671-.143-.0695-.0957-.1021-.1186z"/><path d="m46.1451 19.3965-.0123.0019.0624.1493z"/><path d="m45.6002 19.4069c-.0339-.101-.075-.1995-.1231-.2946.0242.0453.0393.0949.0445.146z"/><path d="m46.5493 19.415.0674.1271z"/><path d="m48.5608 17.9408-.0029-.0023c-.0074.0077-.0012.0075.0029.0023z"/><path d="m50.4477 16.9873c-.0514.0006-.1025.0069-.1524.0187.0515.005.1036-.0013.1524-.0187z"/><path d="m48.7614 17.7373.0339.0268c-.0094-.0111-.021-.0202-.0339-.0268z"/><path d="m49.5264 15.8662c-.0025-.0296.0194-.0629-.0355-.0514l-.0169.0311c.0373-.0229.0647-.0286.0524.0203z"/><path d="m44.914 19.1142.0417.0283-.0117-.0386c.0105-.0013.0211.0012.0299.007.0089.0059.0153.0147.0181.0249.0162-.0607-.0232-.031-.0257-.0906.0963.0745.1014-.1284.2262.0984-.0381-.1212-.0919-.0708-.0769-.1702.1502.2691.0372-.0738.1483.0415.0684.1734-.0269.0843.0986.229-.1101-.2912.1358.0604.159.0144-.1306-.2706.04-.1221.0614-.2354.0494.1105.2204.1535.3582.2882l.0287.0627c-.171-.3768-.0703-.3221-.0644-.4201.0777.1425.1382.2937.1801.4505l.0472-.007c-.0412-.0797-.0637-.1678-.0658-.2575l.1405.3121c.0584-.0181-.0571-.3926.1283-.1918-.2069-.3456-.3787-.711-.5129-1.0908.0948.1728.1771.3521.2463.5366-.0044-.0249-.0464-.1516.0022-.0847l.1101.299c.0955.114-.1-.2458-.0609-.2304.1198.2451.1058.1675.1977.3642.0046.0257-.0735-.0936-.0369.0056.1096.102.2003.2227.2679.3563-.0688-.1177-.1219-.2438-.1582-.3752.0483-.0389.1681.2956.2664.4157-.0718-.1795.0543-.0101-.1318-.3916.0644.0852.1198.1769.1653.2736-.0526-.1781.1103-.1072-.1226-.5013l-.0204-.0235-.0035-.0191c-.0943-.4249.2944.1159.3004-.1029l.0607.1242c-.0184-.1754.0712-.1619-.0167-.4395.0858.0999.1545.2132.2033.3354-.0055-.117-.0628-.2453.0842-.098.0592.2266.0987.1643.0327.1752.0972.0609.1924.2239.096-.1197.1209.2963.2082.321.1876.2137l-.1288-.1661c.006-.061.0389-.0581.0719-.0559l.1625.3659c.1458.1571.0941-.0747.0584-.2655-.0365-.1924-.0397-.3086.1286-.0724-.0801-.2374-.1083-.0682-.2118-.3453.0637.0008.2884.3239.2934.2937.1009.029-.1414-.4525-.044-.439-.0792-.1122-.1278-.243-.141-.3797.0641.0017.1978.2445.2031.3368-.0056.0195-.0211.0028-.0328-.0224-.0019.0288.002.0576.0115.0848.0096.0273.0245.0523.044.0735l-.0321-.0819c.0548.0474.0948-.0485.1376.0802-.0082-.1143-.0412-.1256-.0781-.1286.0908.0196.0644-.1272.1447-.1341-.0224-.0184-.0612-.0726-.052-.0808.1129-.02-.0108-.1321.0391-.1997.0696.0455.0693.1755.1025.0728.0599.018.0652.1107.0693.1605.0111-.1325.1328-.0195.1773-.0175l-.0164.0482c.0024-.0103.008-.0197.016-.0266.008-.007.0181-.0112.0287-.012l-.0629-.0814c.0278.0088.0458.0048.0634.0414-.0067-.0632-.0886-.1425-.0847-.2325.051.0396.0596-.0737.1355.0586-.1098-.038.0413.0979.0092.138.0101-.006.026-.0044.0517.0133.011.0152.0094.0258.0056.0314.1656.1446-.0237-.137.0788-.128.0204.0641.0613.1198.1164.1585-.029-.0267-.0517-.0594-.0665-.0958-.0149-.0364-.0216-.0757-.0196-.115.1092.0945.0505-.0364.0902-.0225l-.0596-.045c-.0355-.0994.001-.0844.0301-.1209.0126.0173.0192.0384.0186.0598-.0008-.0959.2478.2564.2633.1253.096.0903.1452.2495.2266.3155.0201-.1756.2727.2071.3474.0359-.1961-.1922-.1551-.136-.2024-.3539-.037.0625-.0814.1202-.1321.1722-.0108-.1012-.0291-.2014-.0546-.2999-.0569.0142-.0418.1449-.0971.1146-.0378-.1587-.0208-.1147-.14-.2654.2604.273.0036-.2064.2246-.0458l.4076.4915c.2017.0831.2323-.0499.2482-.191.0166-.1464-.0033-.2983.1558-.4233-.0539.0182-.109.0326-.165.043-.2288-.1629.0595-.191-.0248-.3346.1588.0523.3306.0489.4871-.0096-.1693-.0173.039-.3184-.4466-.3344.1013-.0529.1965-.1169.2836-.1909.0098-.3753-.7357-.1112-.7511-.2502.2388-.0861.2974-.2569.5574-.216-.0543-.0698-.0791-.1511-.2021-.0632.065-.1256-.3671.0524-.2623-.1066-.0854.0515-.2373.2049-.2689.1635.0189-.0274.0406-.0528.0646-.0759-.0674.0733-.1525.068-.2551.2588.1438-.2724.0219-.2895-.0646-.2869-.0943.0024-.1692.0102-.1513-.1582-.105.0377-.2279.1254-.3013.1546l.011-.0265-.0384.0229-.0171.0099c-.0457.0695-.0732.1567-.13.1257-.0336-.0451.0462-.0561.0418-.0718l-.0983.0697.0168.0045c.0502.0184.0785.1152.0505.2081-.0047.024-.0168.0459-.0346.0627.021.1076.0284.2175.022.3269.0313.0277.1109.0056.1104.145-.0036.043-.0134.0853-.029.1255.0104-.0006.0107.0346-.0426.1028.0665-.0858.1431-.1634.228-.2311l.001-.0008c.0893-.0624.1144-.0621.1144-.0621l-.0065.0007c.0216.003-.093-.0058-.0215.0014-.0923-.0415-.1737-.1039-.2378-.1822.0531.0559.1119.1061.1754.1499-.0779-.0528-.1486-.1156-.2103-.1867l-.1355-.1649c.0156.0218.0386.061.0288.0652-.0152-.0098-.1186-.192-.1488-.232.1414.2314.0576.2717.0807.577-.0125-.0336-.0208-.0687-.0249-.1043-.0045.0407-.0364.0413.0186.1479l-.006-.0606c.0748.157.1232.3252.1431.4979-.1113-.3111-.1148.0156-.2378-.3692.0019.0526.016.104.0411.1502-.0225.0026-.0422-.022-.0622-.1122-.0218.1337.0353.1869-.0195.2368-.0127-.0369-.023-.0746-.0309-.1129.0104.1031.0154.1951-.0534.1915-.0075-.0234-.0276-.0485-.0113-.056-.0894.0523-.0696.2577-.2217.2048-.0563-.1902-.0705-.0559-.16-.2245l-.052.0322.0736.0942c-.0684-.0182-.0495.1274-.1351.0573l.0037-.0827-.0989.0256.1078.0913c-.0028.117.1449.2818.0418.2331.0017-.0291-.0523.0145-.1592-.1399l-.0002-.0007c.0113.0828.0314.1853-.0444.1205-.0576-.0939-.1495-.3234-.1876-.3857.0911.2445-.1199.0392-.0076.3429-.0378-.0986-.0819-.1946-.1322-.2874l.0903.2336c-.0659-.0762-.1179-.1634-.1536-.2576-.1057-.0466.2472.4499.0562.2613-.0112-.0315-.0203-.0637-.0272-.0964-.152-.1088-.0955.194-.243.0783-.2281-.41.0239-.1126-.1735-.4524-.0942.0747-.0026.5465-.1655.4727l.0457.0448c.3008.6486-.2399-.2965-.1475.0223-.0371-.1015-.0803-.2007-.1293-.297-.1312-.0905-.0798.1987-.0802.4654l-.0737-.1831c-.1202-.141-.1547-.0412-.2365-.0953.0412.1461.1005.2865.1764.418-.6106-.8974.0047.6708-.4821-.0133-.0034-.0564-.0205-.1113-.0498-.1597l-.0128.2358c.0594.1157.1283.2262.206.3304.0644.1642.094.2983.0688.312-.0605-.1926-.1572-.372-.285-.5285l.1156.2398c-.2608-.3943.2343.5005.0227.2561l-.0573-.1264c.0075.085.0607.2579.0154.2411-.1368-.2475-.0319-.1394-.1363-.3571-.0226.0601.1599.5348.0067.3187-.0174-.0804.0045-.1005-.0139-.1832-.1781-.2581-.1416-.1718-.1843-.181l.005.0025c-.0331-.0122-.0671-.0216-.1017-.0281l.0445.045c.2314.604-.0224.2243.0689.5891-.0773-.3311-.0702-.1721-.1594-.3671-.0388-.0332-.0816-.0512-.1026-.1135.0066.0205.0107.0416.0125.0631.0466.1002.0566.2135.0284.3204-.0448.118-.0745.2555-.1075.3244.0224.0134.0429.0297.0611.0485z"/><path d="m46.568 18.8358.0065.0071-.0302-.049z"/><path d="m45.3969 18.0232c-.0131-.0248-.0282-.0486-.0451-.0711z"/><path d="m45.1655 18.2307-.0659-.0373c.0189.0173.0414.03.0659.0373z"/><path d="m44.9863 18.3877.0362.084.0008.0006z"/><path d="m48.2028 16.6366-.0004-.0211c-.0086-.0652-.0071-.0298.0004.0211z"/><path d="m47.3847 17.441c-.0056-.03-.0074-.0605-.0054-.091-.0298-.0165-.0499-.0231.0054.091z"/><path d="m47.4388 17.3558c-.0399-.0368-.0546-.03-.0595-.0053.0254.0152.0548.0322.0595.0053z"/><path d="m45.1367 19.1787-.1033-.0342c.0304.0309.0783.0882.0356.0813.1806.1459-.0619-.0804.0677-.0471z"/><path d="m45.4606 19.293c-.0325.0282.052.1045.0705.1472.0007-.0585-.0024-.0792-.0705-.1472z"/><path d="m47.1639 18.8174.1449.3046c.0031-.0669-.057-.1168-.1449-.3046z"/><path d="m46.7448 17.2107-.1164-.1668.1068.252z"/><path d="m47.7994 18.9116.0084.0504-.012-.1475z"/><path d="m44.0914 14.6182.028.0646c-.0008-.0243-.0108-.0474-.028-.0646z"/><path d="m40.2804 14.0154c.0126-.0015.0245-.0068.0341-.0151s.0166-.0193.02-.0315c-.0311.0146-.0569.0275-.0541.0466z"/><path d="m39.6495 13.8166.0358.0118c-.0116-.0147-.0245-.0227-.0358-.0118z"/><path d="m44.0914 14.6182-.07-.168c-.0391.1517.028.1238.07.168z"/><path d="m45.8055 14.7219.0299.01.0585-.1528z"/><path d="m47.035 15.2119c-.0249-.025-.0829.2026-.1152.3016.036-.091.0659-.1274.0937-.1344.0113-.0551.0185-.111.0215-.1672z"/><path d="m44.9321 14.3391.0175-.1418c-.0096.0467-.0154.0941-.0175.1418z"/><path d="m38.4974 13.4414.0043.0049c.0306.0021.0144-.0044-.0043-.0049z"/><path d="m35.9427 12.1025c-.0053.0499-.0061.1001-.0024.1501.0075-.0497.0083-.1002.0024-.1501z"/><path d="m37.7849 13.3903-.0411-.0495c.0096.0195.0237.0365.0411.0495z"/><path d="m34.7721 12.4614c-.0236-.0241-.0249-.0646-.0718-.0273l.0044.036c.0222-.0388.045-.0572.0674-.0087z"/><path d="m48.1772 16.029c-.0205-.0168-.0393-.0357-.056-.0564l-.0246.0356c-.0276-.0106-.0821-.0341-.0648-.0645-.1165.0241.0104.0411-.0628.0816-.1158-.1357-.3954-.0104-.3737-.2699-.0753.1125.1108.1293-.0535.1795.0207-.3101-.1808.0132-.2759-.1624.0768-.1738.1713-.0294.0829-.2371-.1394.2875-.2225-.1629-.3354-.1547-.0663.2931-.2503.0417-.4478.0948.0359-.1161-.2884-.3001-.4174-.5127l.019-.0664c-.1167.3981-.2692.2708-.4114.3284.0177-.1672.0852-.3253.1938-.4537l-.1144-.0387c-.0565.1325-.1081.1964-.1936.2253l.0994-.3286c-.1543-.042-.3917.3039-.5392.0056-.0835.3432-.0373.9784-.2989 1.1687.0175-.1982.072-.3913.1605-.5695-.0231.02-.0969.1398-.117.0524l.1497-.2926c-.0621-.1605-.102.2491-.1689.2035.0573-.2668-.0139-.2041.041-.4145.0237-.0206.04.1272.0895.0302-.0992-.1367-.1441-.3055-.1258-.4735-.0252.1569-.0763.3654-.1435.3853-.1589-.0193.0159-.3435-.0444-.5104-.0772.1808-.1344-.0432-.2238.3717-.0449-.013-.0127-.2095-.0067-.3267-.1182.1623-.3874-.0322-.3894.4336l.0145.0338-.017.0156c-.3514.3587-.5028-.3437-.8054-.2089l.0288-.1353c-.1909.1294-.3726.0386-.5435.2972-.0464-.0096-.0617-.2526-.01-.4013-.1419.0803-.1839.2149-.317-.0141.1674-.1995-.0027-.1957.1586-.1423-.1359-.128-.1329-.3197-.3719-.011.1222-.3007-.0398-.3964-.1354-.3087l.0671.2243c-.0388.0119-.0798.0154-.1201.0102-.0403-.0051-.0791-.0189-.1136-.0402l.1217-.3832c-.1176-.2343-.3086-.0383-.4811.1167-.173.1568-.3193.2343-.3823-.0712-.1351.2256.151.1427.0154.4152-.1409-.0589-.2142-.4715-.2653-.4568-.1866-.111-.2833.4195-.4823.3217.0108.0821-.0129.3232-.1873.3727-.1408-.0599-.1179-.3379-.0078-.402.0384-.0073.0508.0176.0436.0445.0554-.0278.1285-.0667.0857-.1524l-.0369.0819c-.0593-.0805-.2753-.0556-.2005-.1773-.1325.0809-.0741.1183.0043.154-.1767-.0958-.3118.0226-.4997-.0465.0253.0323.0404.1025.0089.0994-.2778-.0904-.1504.0946-.3509.0923-.0949-.0928.0776-.1759-.1322-.1404-.1097-.0665.0012-.1307.0577-.1664-.2001.0747-.3218-.1091-.4184-.1512l.1004-.0158c-.0508.0078-.1027.0022-.1507-.0161l.0325.1097c-.0505-.0312-.0959-.045-.0865-.0846-.0686.0468.0089.1725-.1189.2265-.0611-.072-.2301-.0072-.2241-.1615.1946.1249.037-.1006.1615-.0969-.0377-.0076-.0719-.0272-.0975-.0559-.0046-.0198.0133-.0251.0288-.0252-.1778-.2443-.128.1096-.3443.01.0159-.0353.0196-.075.0105-.1127s-.0305-.0713-.0608-.0956c.0816.0672.0081.1804-.0867.214-.1184-.1605-.1605-.0228-.2306-.068l.0735.0834c-.051.0964-.1177.0525-.2235.0506.0046-.0375.0199-.0509.0362-.0556-.1248.0622-.1676-.3826-.332-.3076-.047-.1386.052-.284.0079-.393-.2047.0998-.1263-.3496-.331-.2948-.0017.2757.0214.2111-.1502.3813.1058-.0064.2119-.0064.3177 0-.0823.069-.1664.1465-.2524.2326.0874.0408.2136-.054.2576.0109-.1248.1323-.1058.0888-.1008.2849-.0501-.3889-.2843.1158-.3755-.1745l.1349-.6242c-.1437-.4045-.4375.1543-.6837-.0851l.0649.1453c-.0955.2676-.1816-.0063-.2974.0897.036-.1584.039-.3225.0086-.4821-.0315.1743-.2071-.047-.3299.4131l-.0651-.3214c-.2101-.1388-.3998.6085-.6078.5033.1171-.2286.0453-.3861.2336-.5508-.0758-.004-.1365-.0439-.1685.1039-.0176-.1309-.2694.2708-.2979.0696-.0507.0874-.105.2969-.1856.2702.0018-.0333.0088-.0662.0207-.0974-.0208.0979-.1594.1175-.1309.3419-.113-.5919-.6519-.0427-.7735-.4469-.176.0411-.3943.1205-.5502.1382l.0123-.0266-.0763.0179-.0351.007c-.075.0648-.1056.1529-.2604.1032-.099-.0579.0924-.0471.0749-.0654l-.2175.0464.0436.0098c.1301.0348.2464.1467.2212.2404-.0035.015-.0115.0285-.0228.0388-.0114.0104-.0256.017-.0408.0191.11.1163.2093.2422.2967.3763.2163.0296.4238.105.6085.2213.0659.0454.1246.1003.1743.163.0514.0076.1005.0262.1441.0545.0435.0283.0804.0657.1082.1096.0533.0864.2485.4026.4026.6524.0144-.0399.024-.0814.0288-.1236.0795.602.4152-.0163.5017.2538l.0649-.0156c.1126-.0254.2039.0558.2587.1807.3112-.1033.6152-.2403.9028-.3267-.1168.4983-.4042.0534-.5024.5973.3859-.233.6685-.6548.9911-.5979.0776.0429-.0889.1904-.1357.2747.3865-.2373.6805-.1392 1.0282-.3682-.0063.0258-.0458.0606-.0824.0897.0637-.022.1359.0069.154-.1118l-.0669.0442c-.0565-.1813.3159-.3889.3392-.4502-.1632.3013.2763.0951.042.4544.0273-.0119.0514-.0304.07-.0537.0186-.0234.0312-.051.0367-.0803.0538.019.0651.0528-.0093.1289.2253-.0656.1682-.1522.3561-.134-.0092.0407-.0504.0531-.0802.1007.0488-.0459.1096-.0772.1754-.0903.0658-.013.134-.0073.1967.0165-.0142.0218-.0026.0562-.0489.0462.2683.0483.4956-.1016.7648.0716-.1263.1733.0828.1003.0594.2902l.1586.027-.0392-.1277c.1283.0742.2786-.0365.3766.0868l-.1173.0497.2541.074-.1198-.1573c.1606-.0724.0497-.3131.2149-.1876-.0423.017.136.0386.1698.2354l-.0006.0006c.0844-.0635.1752-.1476.2583-.0366.0041.1127-.094.3442-.0916.4189.1202-.2401.3191.0846.4701-.2129-.0458.0961-.0746.1994-.0851.3053l.1073-.2325c.0226.0478.0344.0999.0347.1527s-.0109.1051-.0329.1531c.1739.1267.0438-.5147.22-.2191-.022.0157-.0223.0599-.0668.0868.1953.2089.4692-.037.6451.1721-.0337.4718-.2023.0504-.2113.4489.3085.0383.728-.3481.9933-.1517l-.0424-.0705c.1867-.6912.1426.4097.3579.1207-.0508.0967-.0859.201-.104.3088.1727.178.4402-.0544.7936-.225l-.078.1848c.0818.2004.2905.1679.4011.2775.0785-.1858.1457-.1421.1593-.4295.175 1.1343.876-.4345 1.0567.4497-.0434-.0015-.1345.1454-.1002.148l.3402-.1396c.0343-.2821-.0048-.1719-.0225-.4004.0736-.1641.1851-.2772.2592-.263-.1734.16-.092.4463-.0636.5997.0075-.0844.047-.1743.0596-.2595.06.4915.139-.5355.2878-.1849l-.0396.1333c.0958-.0612.2056-.2208.2842-.1686-.0221.2839-.113.1185-.1678.3538.1295-.018.3502-.4894.406-.2106-.0675.0674-.143.0603-.2109.1303.0553.3284.0883.2396.171.2846l-.0077-.0062c.0613.0403.1246.0774.1898.1112l-.0396-.0696c.2823-.5991.3462-.1233.6246-.441-.2653.283-.0706.1747-.1295.3815.0423.0567.114.1074.0782.1666.0148-.021.0338-.0387.0558-.0519.035-.0663.0865-.1225.1496-.1631.0631-.0405.1356-.0641.2105-.0683.2557-.0348.5035-.0957.668-.1098-.0285-.0248-.0526-.0542-.0716-.0868z"/><path d="m44.1243 14.6923-.005-.0107c.0031.02.0039.0403.0025.0605z"/><path d="m45.6588 16.2871c-.0035.0291-.0012.0586.0066.0869.002-.0291-.0002-.0584-.0066-.0869z"/><path d="m46.4492 16.3652.0976.0843c-.0267-.0342-.0598-.0629-.0976-.0843z"/><path d="m47.0565 16.4289.0305-.087-.0011-.0011z"/><path d="m37.5749 14.6084-.0271.0138c-.0671.0497-.0235.0256.0271-.0138z"/><path d="m40.4614 14.8428c-.0322.0272-.069.0486-.1085.0632.0449.038.0811.0607.1085-.0632z"/><path d="m40.2285 14.8473c.0107.0229.0292.0414.0522.052s.049.0127.0734.0059c-.0363-.0329-.0793-.0707-.1256-.0579z"/><path d="m47.7672 15.7821.1848.1164c-.0267-.0475-.0579-.1281.0281-.0847-.2095-.2588.032.1082-.2129-.0317z"/><path d="m47.1962 15.4137c.1098.0117.0225-.1145.0377-.1588-.0789.0369-.0995.0529-.0377.1588z"/><path d="m42.7725 14.1599.0798-.3279c-.0951.0402-.0274.127-.0798.3279z"/><path d="m41.5813 15.5749.0396.2135.0948-.2591z"/><path d="m41.4815 13.5183.0468-.0408-.1667.1068z"/><path d="m38.5981 23.7821.093.0047c-.0292-.0134-.0625-.0151-.093-.0047z"/><path d="m33.0159 27.9622c.0372-.04.0411-.0735.0312-.0921-.0284.0459-.0512.0844-.0312.0921z"/><path d="m32.0054 28.5948.0597-.0382c-.029.0058-.0541.0174-.0597.0382z"/><path d="m38.598 23.7809-.2389-.0153c.0798.1354.1447.0394.2389.0153z"/><path d="m40.9629 21.8036.0487-.0292c-.0151-.0541-.0334-.1073-.0548-.1592z"/><path d="m43.0169 20.624c-.0543.0155.0684.2213.1124.3191-.032-.0975-.0246-.1554.0058-.1933-.0337-.0469-.0734-.0892-.1182-.1258z"/><path d="m39.4733 22.6195c-.03-.0381-.0637-.0733-.1006-.1049.0285.0395.0623.0748.1006.1049z"/><path d="m30.1494 29.7416.0097-.0024c.0418-.0363.0151-.0202-.0097.0024z"/><path d="m25.5931 31.9912c.0379.0369.0811.0678.1282.0919-.0352-.0399-.079-.0714-.1282-.0919z"/><path d="m29.1586 30.5576-.0998.0204c.0342-.0009.068-.0078.0998-.0204z"/><path d="m24.3466 33.5899c-.052.0143-.0889-.008-.1182.0706.0115.007.0239.0124.0369.0158-.0044-.0496.0095-.0878.0813-.0864z"/><path d="m45.2468 19.7509c-.0409.0135-.0827.0237-.1251.0305l-.0004.0521c-.0466.0261-.1392.077-.1439.0367-.1313.1563.0509.0136-.009.1274-.2736.0553-.5342.4643-.7316.2846-.0019.1561.2597-.0558.0852.1698-.2416-.2072-.2285.223-.5079.2316-.0499-.1949.203-.2198-.0968-.2396.0666.3382-.442.1617-.5823.3041.1693.2555-.2932.3264-.5082.5944-.0522-.1102-.6429.1668-.9985.1958l-.0324-.0616c.1901.3722-.1225.4787-.2622.6808-.1485-.2259-.1751-.3355-.1356-.4963l-.1866.1119c.0223.0605.0284.1257.0175.1892s-.0384.1231-.0796.1726l-.1536-.3119c-.2422.1574-.2536.6483-.7092.6471.187.3009.7984.6183.6165 1.0414-.1209-.146-.3208-.4037-.2809-.5252-.0134.0392-.0076.1973-.1099.1698l-.055-.3497c-.2218-.0209.0806.2674-.0478.32-.1556-.2249-.1956-.1033-.3052-.2922.0134-.0406.1634.0269.1451-.0887-.0996.0226-.2031.0228-.3029.0008-.0997-.0221-.1934-.066-.2742-.1285.1025.122.2155.3051.1436.3968-.228.1777-.2766-.2202-.5013-.2465.0542.198-.2164.1339.0246.4836-.0709.046-.1984-.1074-.292-.1833-.0161.236-.5423.4416-.1415.7173l.0487.0024-.0091.0294c-.1556.6285-.9665.395-1.2507.8346l-.0792-.1135c-.1412.3028-.4615.4655-.4644.8203-.07.0496-.3008-.0748-.3609-.2235-.119.2158-.0582.3448-.4334.3687.0495-.3161-.1731-.1116.0874-.2721-.2915.0866-.4534-.0295-.5035.4356-.0083-.052-.0343-.0995-.0735-.1346-.0393-.0351-.0894-.0556-.142-.0581-.0526-.0024-.1044.0133-.1468.0446-.0423.0313-.0726.0762-.0857.1272l.2841.0525c-.0899.1124-.206.2011-.3381.2583l-.1708-.3697c-.3631-.0031-.4389.3502-.536.6428-.0937.2974-.2212.5168-.5696.4125.0161.2929.3244-.0958.3804.2251-.2382.1329-.6933-.0217-.7483.0475-.344.157-.0132.582-.3615.7626.0404.018.0758.0457.1029.0807.0272.035.0452.0761.0525.1198.0074.0437.0038.0885-.0104.1304-.0142.042-.0386.0797-.0709.11-.2388.1325-.4454-.0524-.3556-.2223.0439-.0504.0818-.0513.0955-.0271.0489-.0827.1113-.1938-.0185-.1913l.0218.0919c-.1469.0255-.4086.302-.4143.1418-.1095.2003.0027.1558.1368.0825-.3166.1549-.4022.3731-.7081.5608.0612-.0121.1415.0106.0975.0467-.4441.2819-.1184.2333-.387.4702-.2065.0584-.0492-.1952-.2969.0753-.2041.0904-.112-.0781-.0671-.1654-.2025.2792-.5228.3174-.6877.4072l.1197-.1287c-.063.0666-.1349.1239-.2139.1703l.1381.0252c-.0937.0423-.1662.0879-.1883.0534-.0506.1087.1611.0899.0386.2744-.1423.032-.3131.2673-.4367.1732.3648-.1611-.0391-.1047.1302-.2497-.0543.0373-.1144.0656-.1778.0838-.0228-.006-.0041-.0308.0161-.05-.4419.0765-.0702.2233-.4485.4156-.0052-.0996-.1901-.1003-.2481-.0638.1665-.0575.1671.0962.0703.2285-.2966.0467-.2329.1773-.3654.2342l.17-.0384c.0158.1171-.111.1708-.2529.2953-.0053-.0048-.0095-.0107-.0123-.0171-.0029-.0065-.0044-.0136-.0044-.0207-.0001-.0071.0014-.0141.0042-.0206s.007-.0124.0122-.0172c-.1123.184-.553-.0236-.7085.2125-.1844-.0276-.178-.2292-.3328-.2434-.1882.298-.4806-.069-.6972.2176.2362.1634.2113.0983.1341.4067.1323-.1352.272-.2631.4184-.3829-.0523.144-.0961.2911-.131.4403.1491-.0832.235-.2884.3513-.3002-.0516.2253-.0637.1774.1145.2888-.4084-.1754-.2749.4095-.6483.3464l-.3628-.5277c-.5451-.0717-.4459.6124-.9803.7648l.2121.0082c.1045.2699-.2464.2125-.3174.4062-.1258-.2054-.2626-.215-.4064-.293.1088.1388-.3155.2186-.0801.6343l-.3653-.1111c-.4023.1644-.0019.8347-.3719 1.0164-.0426-.2728-.2758-.2821-.1665-.6-.1053.0864-.2216.1336-.1356.2589-.1382-.058-.1246.4768-.3356.3946.0092.1124.1192.3006-.0104.3815-.0263-.0214-.0461-.0498-.0571-.0819.0577.0828-.1094.2592.1228.3569-.6663-.2178-.9118.7372-1.4184.652-.1916.2546-.3959.4993-.6123.7333-.0013-.0105-.0037-.0209-.0072-.0309l-.0866.0999-.0411.0453c-.0419.129-.0039.2203-.2526.3756-.1813.0841.0772-.1445.0372-.135l-.2403.2973.0656-.0476c.2005-.1371.4587-.2004.5089-.1119.018.0318.006.0731-.0294.1162.2349-.0619.4736-.1087.7145-.14.3038-.245.6432-.4421 1.0066-.5844.119-.051.2428-.0899.3696-.1162.1351-.1119.2977-.1854.4709-.2129.1496-.0219.6559-.0371 1.102-.0932-.0154-.0402-.039-.0767-.0693-.1073.6217.2505.5377-.5025.8831-.4521l.0728-.0863c.0628-.0691.1405-.1231.2271-.158.0866-.0348.18-.0496.2732-.0432.3279-.4512.6283-.8646.9175-1.2627.2832.4402-.4928.5087-.1513.9452.3208-.5812.315-1.1862.8058-1.518.1386-.0697.0508.2227.0593.3246.2998-.6098.7725-.906 1.0379-1.4506.0141.0225-.0084.09-.0318.1506.0655-.0886.1866-.1576.1078-.2487l-.0505.1054c-.2323-.0392.0826-.6032.0602-.6674.0454.3721.4456-.2781.4458.211.037-.0669.0763-.1611.0266-.2041.0886-.0514.1333-.0445.0988.0861.2483-.298.0934-.2864.3601-.4976.023.0348-.0216.0905-.0202.1532.0827-.2069.2355-.3781.4317-.4836-.0002.0297.0451.0361-.025.0853.3977-.2913.5698-.6492 1.0767-.8689-.0197.2487.1978-.0385.3315.101l.2313-.1765-.1613-.026c.2332-.1112.3332-.3596.5728-.3999l-.115.1652.406-.2524-.2969.0478c.1531-.2299-.2033-.2397.1258-.3613-.0417.0601.2148-.1378.43-.0631l-.0003.0011c.0571-.1375.1047-.2947.3114-.3285.1032.0612.1734.3136.2413.3546-.0483-.2838.4974-.3297.4401-.6836.0203.1068.0732.2047.1514.2802l-.0588-.264c.1499.0077.1897.0341.2673.1772.3408-.1325-.3879-.3538.1022-.3898-.0155.0353.0224.0615-.0134.1302.4414-.1084.5934-.5764 1.0061-.6659.3636.316-.2245.2708.1089.5152.4419-.3458.6651-1.0698 1.1873-1.2703l-.1173.0091c-.351-.6273.5445.0707.5798-.3546-.0248.0812.1615.3812.1296.3046.3847-.0991.5377-.5549.8592-1.075l.0565.2009c.2824.0203.5315-.2467.7734-.314-.0568-.2021.0708-.256-.1606-.441 1.2168.4591.786-1.2974 1.7958-.989-.0592.0502-.0531.2444-.0052.2056l.3304-.4871c-.1993-.2067-.1555-.095-.3772-.2083-.0251-.0805-.0276-.1663-.0073-.2481.0204-.0818.0627-.1564.1225-.2158-.0909.3006.2654.3719.4354.4273-.0631-.0583-.0888-.1582-.1457-.2232.5054.2166-.2795-.4792.2219-.4506l.0629.1252c.0742-.1498.0818-.3739.2316-.4368.2166.1928-.0476.204.0835.407.1567-.1642.041-.7037.3572-.6055-.0317.1193-.138.2046-.1676.3266.3581.1263.3253.0359.4754-.0343l-.0158.0054.3522-.1551-.1145.0045c-.146-.6898.355-.4812.4446-1.0052-.1028.4869.0598.1891.1624.3829.105-.0174.243-.0749.2475.0034.0023-.0343.0118-.0679.0278-.0983-.0333-.1256.0466-.3309.2774-.5644.3133-.319.5899-.6492.7901-.8611-.0551.0191-.1127.0303-.1709.0331z"/><path d="m38.706 23.7854-.0158-.0002c.0204.0073.0393.0182.0557.0324z"/><path d="m42.127 22.8984c.023.0225.0522.0374.0839.0429-.0244-.0205-.0531-.0351-.0839-.0429z"/><path d="m43.2462 22.0065.2029-.0631c-.0701.0121-.1383.0334-.2029.0631z"/><path d="m44.1112 21.3269c-.0087-.0308-.0208-.0605-.036-.0886l-.0024.0005z"/><path d="m29.9326 31.5215-.024.0402c-.0459.1088-.009.043.024-.0402z"/><path d="m33.9681 28.2285c-.0217.0586-.0515.1139-.0885.1644.0917-.0307.1588-.0602.0885-.1644z"/><path d="m33.6633 28.5041c.0419-.0027.0828-.0141.12-.0334.0373-.0194.0701-.0463.0963-.0791-.081.0169-.1559.0559-.2163.1125z"/><path d="m44.4882 20.093.3455-.1526c-.0773.0026-.1892-.0083-.0387-.0869-.5022.0978.1376.0278-.3068.2395z"/><path d="m43.4065 20.5506c.1573-.122-.0706-.0957-.0893-.1404-.0734.1147-.0866.149.0893.1404z"/><path d="m36.4485 25.0809-.1782-.287c-.0912.1365.0738.107.1782.287z"/><path d="m36.0948 27.33.2376.0767-.1008-.2651z"/><path d="m34.1777 26.2384.0264-.0792-.1284.2603z"/><path d="m18.2036 33.9971.0279.0676c-.0001-.0253-.0101-.0496-.0279-.0676z"/><path d="m13.9971 33.0516c.0134-.0001.0264-.0042.0373-.0119.011-.0076.0193-.0184.024-.0309-.035.0123-.0638.0234-.0613.0428z"/><path d="m13.3015 32.8032.0403.0149c-.0127-.0159-.0271-.0253-.0403-.0149z"/><path d="m18.2037 33.996-.07-.1757c-.0503.1485.0254.1272.07.1757z"/><path d="m20.0992 34.2838.0326.0134.0733-.1468z"/><path d="m21.4325 34.9184c-.0261-.028-.1046.1935-.1465.2889.0456-.0869.081-.1199.1122-.1236.0159-.0541.0274-.1093.0343-.1653z"/><path d="m19.15 33.8027c.0117-.0463.0206-.0932.0265-.1406-.0129.046-.0217.0931-.0265.1406z"/><path d="m12.0283 32.3486.0046.0052c.0341.0041.0161-.0035-.0046-.0052z"/><path d="m9.19031 30.8525c-.00587.0501-.0067.1006-.0025.1509.0084-.0499.00924-.1007.0025-.1509z"/><path d="m11.2381 32.2508-.0464-.0535c.0111.0211.027.0394.0464.0535z"/><path d="m7.88664 31.1598c-.02663-.0253-.02822-.0662-.08024-.0307l.00517.0364c.02455-.038.04953-.0555.07507-.0057z"/><path d="m22.6406 35.8759c-.0213-.0192-.0406-.0404-.0577-.0634l-.0297.0325c-.03-.014-.0883-.0442-.0671-.0726-.1303.0096.0086.0425-.075.074-.1185-.1505-.4355-.0595-.3941-.3172-.0906.1036.1137.1436-.0712.1735.0438-.3084-.2002-.0094-.2936-.1969.0962-.1653.1913-.0084.1072-.2279-.173.2716-.2355-.1898-.3611-.1949-.092.2861-.2794.0122-.5012.042.0472-.1125-.3003-.3352-.4314-.5624l.0249-.0646c-.1523.3863-.3137.2415-.4744.2833.0298-.1672.1143-.3197.2404-.4336l-.1248-.0517c-.07.1266-.1308.1849-.227.2044l.1283-.3188c-.1689-.06-.4505.2612-.5986-.0536-.1101.3357-.0934.9778-.3923 1.1411.0299-.1972.1006-.3861.2076-.5544-.0267.0176-.1147.1299-.1323.0401l.181-.2778c-.0603-.1676-.1259.2393-.1974.1864.0771-.2617-.0049-.2064.0667-.4117.0275-.0182.0379.132.0976.0399-.101-.1416-.1424-.3171-.1154-.4889-.0358.1549-.1029.3587-.1785.3716-.1753-.0363.0348-.3432-.0239-.5174-.0946.1734-.1471-.0579-.2665.3495-.0492-.0178-.0041-.2117.0084-.3288-.1393.151-.429-.0714-.453.3961l.0147.0353-.0197.0139c-.4058.3255-.5414-.3963-.8833-.2895l.0375-.1331c-.2172.1119-.4152.0036-.6148.2473-.0512-.014-.0583-.2595.0048-.404-.1607.0674-.2124.1985-.3514-.0439.1933-.185.0044-.197.1815-.1282-.1459-.1417-.1361-.3332-.4127-.0445.1466-.2912-.0303-.4017-.1398-.3221l.067.2313c-.0896.017-.1824-.0011-.2589-.0507l.1483-.3744c-.123-.2458-.3422-.0658-.5388.0748-.1973.143-.362.2091-.4231-.1031-.1568.2156.1636.1558.0047.4183-.1545-.0706-.2242-.4912-.2815-.4807-.2046-.1268-.3263.3983-.5446.2841.0101.0833-.0227.3235-.2174.3602-.0322-.023-.0584-.0535-.0765-.0887-.018-.0352-.0273-.0743-.0272-.1139.0002-.0396.0098-.0786.0282-.1137.0183-.0351.0447-.0653.0771-.088.0427-.0045.056.0215.0473.048.0621-.0238.1444-.0573.099-.1466l-.0432.0794c-.0638-.0853-.3044-.0768-.2183-.1933-.1492.0712-.0851.1132.001.155-.1939-.1095-.3468-.0008-.5539-.0844.0276.0344.0427.1061.0079.1006-.3063-.1117-.1688.0836-.3913.0672-.1035-.0998.0897-.1713-.1439-.1502-.1206-.0743.0036-.1312.0671-.1631-.2234.0612-.3554-.132-.462-.1809l.1119-.0089c-.0571.0042-.1144-.0049-.1673-.0267l.0343.1126c-.0555-.0348-.1057-.052-.0948-.0911-.0768.0423.0072.174-.1355.2196-.0665-.0769-.2552-.0226-.2464-.1771.2144.1378.0426-.0988.181-.0871-.0412-.0098-.0787-.0315-.1077-.0624-.0046-.0202.0152-.0243.0326-.0235-.1945-.2567-.144.102-.3831-.0117.0175-.036.0218-.0771.012-.116-.0097-.0388-.0328-.073-.0653-.0965.0901.0726.0069.1818-.0989.2096-.1297-.1689-.178-.0331-.2554-.083l.0807.0885c-.0577.0937-.1313.0454-.2487.0369.0053-.0375.0227-.05.0408-.0537-.139.0544-.1827-.3945-.3663-.3287-.0514-.142.0599-.2824.0117-.3945-.2288.0886-.1385-.3587-.3673-.3156-.0034.2772.0226.2137-.1693.3749.1182-.0004.2364.0057.3539.0182-.0922.0646-.1864.1377-.2825.2194.097.046.2382-.0421.2865.0256-.1397.1259-.1181.0833-.114.2807-.0531-.3939-.3165.1002-.4161-.1968l.1528-.62c-.1588-.4155-.48829.132-.762-.1217l.07221.1495c-.10662.2641-.20225-.0156-.33128.0749.04008-.1586.04319-.3243.00908-.4843-.0347.1737-.23094-.0582-.36686.3989l-.07351-.326c-.2352-.149-.44316.5937-.6747.4787.12888-.2246.04818-.3862.25716-.5433-.08464-.0074-.15244-.0503-.18731.0969-.02049-.1325-.29817.2602-.33127.0566-.05564.0856-.11452.2941-.20444.2642.00174-.0334.00927-.0663.02227-.0972-.02242.0976-.17648.112-.14294.3385-.13077-.5991-.72463-.0678-.86421-.4787-.19555.0356-.43715.1083-.60996.1212l.01319-.0264-.08449.0156-.03881.006c-.0823.0626-.11482.1503-.28764.0955-.11085-.0614.10198-.0445.08202-.0634l-.24048.0397.04863.0113c.14484.039.27577.1553.24925.2486-.00429.0155-.01331.0292-.02579.0393-.01248.01-.02779.0159-.04379.0169.12268.119.23461.2487.33449.3874.23915.0358.4689.1183.67617.2428.0725.0473.13794.1047.19435.1703.05595.009.10955.029.15767.0589.04813.0299.08982.0691.12264.1153.05974.0895.27488.412.44784.6715.01576-.0394.02629-.0808.03134-.123.08949.6083.45766.0012.55373.2762l.07147-.0128c.06234-.0047.12442.0119.17614.0471.05172.0351.09003.0867.10871.1463.34269-.0888.67865-.2116.9966-.2843-.13152.4947-.44624.0338-.55667.5754.42572-.2159.7403-.6244 1.09599-.5492.0854.0475-.09969.1864-.15183.2686.42803-.2172.75233-.1031 1.13883-.311-.0072.0255-.0514.058-.0921.085.0705-.0182.1501.0153.1716-.1029l-.0746.0404c-.0603-.1858.3543-.3714.3813-.4315-.1847.2927.3046.1128.0402.4592.0484-.0194.1141-.064.12-.128.0592.0224.0712.057-.0123.1289.2503-.0518.1886-.1429.3961-.1118-.0108.0404-.0566.05-.0903.0958.0586-.0435.1275-.0709.1999-.0795.0724-.0085.1458.002.2129.0306-.0162.0209-.0041.0563-.055.0432.2956.067.5508-.0691.8448.1249-.1435.1649.0895.1069.0592.2961l.1744.0389-.0402-.1313c.14.0842.3088-.0159.414.1152l-.1308.0412.2789.0932-.1283-.1668c.1796-.0608.0631-.3108.2428-.1724-.0475.0138.1495.0489.1813.2498l-.0007.0004c.095-.057.1978-.1342.2867-.016.0012.1136-.1141.3383-.1136.4135.14-.2315.3495.1106.5257-.176-.0534.0923-.0887.194-.1037.2997l.1261-.2248c.0232.0481.0346.1011.0333.1545-.0014.0534-.0155.1057-.0412.1526.1879.1412.065-.5135.25-.202-.0247.0139-.0266.0583-.0766.0814.2083.2268.5192.0034.7059.2286-.0546.4707-.2249.0332-.2495.4325.3381.064.8157-.2861 1.1003-.0639l-.0438-.0746c.2346-.6768.1401.4244.3894.1541-.0599.0918-.1032.1935-.1279.3003.1824.194.4865-.013.8842-.1495l-.0947.1778c.0806.2092.3118.1971.4283.3179.0954-.1787.1675-.1283.1966-.4153.1338 1.157.9886-.3449 1.14.5623-.0476-.0063-.1559.1311-.1185.1375l.3821-.1026c.0539-.2793.0046-.173-.002-.4043.0903-.1566.2198-.2576.3009-.2351-.2005.1413-.1269.4376-.1047.5946.0131-.0838.0618-.1697.0807-.2537.0375.4997.1845-.5217.3284-.1535l-.0516.1293c.1092-.0508.24-.1986.3238-.1374-.0415.2822-.132.1062-.2065.336.1438-.004.4159-.4506.4603-.1644-.0787.0598-.1613.0437-.2405.106.041.3361.0825.2508.1708.3056l-.0082-.0071c.0662.0483.1334.0929.2018.1337l-.0393-.0745c.3493-.5677.3893-.0831.717-.3688-.311.2525-.0891.1669-.1678.3671.0429.0617.1185.1212.0751.1762.0181-.0196.0403-.035.0649-.0452.0466-.0642.1091-.1153.1813-.1482s.1518-.0465.2308-.0395c.284-.0033.5618-.0336.7443-.0273-.0292-.0279-.0537-.0602-.0728-.0958z"/><path d="m18.2365 34.0747-.0051-.0112c.0027.0202.0027.0407 0 .0609z"/><path d="m19.848 35.8379c-.0055.0291-.0048.0591.0023.0879.0038-.0293.0031-.0589-.0023-.0879z"/><path d="m20.7135 36.0059.1021.0959c-.0278-.038-.0624-.0706-.1021-.0959z"/><path d="m21.3782 36.1395.0391-.0836-.001-.0012z"/><path d="m10.9902 33.4609-.0301.0123c-.0745.0458-.0262.0243.0301-.0123z"/><path d="m14.1758 33.8945c-.0371.0251-.0782.0436-.1215.0549.0484.0418.0877.0674.1215-.0549z"/><path d="m13.9183 33.8812c.0125.0243.0325.0439.057.056s.0522.016.0791.0111c-.0388-.0358-.0851-.0763-.1361-.0671z"/><path d="m22.2051 35.5805.1961.1397c-.0262-.051-.0551-.1356.0369-.0814-.2137-.2856.0277.1124-.233-.0583z"/><path d="m21.5983 35.1372c.1208.0248.0324-.1121.052-.1548-.0898.0276-.1137.0413-.052.1548z"/><path d="m16.7594 33.4079.1012-.322c-.1072.0315-.0353.1251-.1012.322z"/><path d="m15.3888 34.7233.0372.2171.1128-.2519z"/><path d="m15.3457 32.6475.0539-.0371-.1895.0935z"/><path d="m23.9563 16.2708.1037.0027c-.0331-.0134-.0699-.0144-.1037-.0027z"/><path d="m17.1712 20.9455c.0458-.045.0535-.0808.0443-.0998-.0364.0507-.066.093-.0443.0998z"/><path d="m15.9741 21.6852.071-.0446c-.0145.0016-.0283.0065-.0406.0142s-.0227.0181-.0304.0304z"/><path d="m23.9563 16.2715-.2664-.0098c.0705.1407.1572.0377.2664.0098z"/><path d="m26.9183 14.1502.0595-.0311c-.0083-.0563-.0203-.1121-.0359-.167z"/><path d="m29.4278 12.9111c-.0639.0159.0384.2329.071.336-.0115-.0344-.0139-.0712-.0069-.1068s.0232-.0688.0469-.0962c-.0299-.0498-.0674-.0946-.111-.133z"/><path d="m25.1127 15.0287c-.0281-.0399-.0607-.0764-.0972-.1088.0262.0414.0591.0781.0972.1088z"/><path d="m13.7889 23.0506.011-.0035c.0497-.0423.0185-.0227-.011.0035z"/><path d="m8.52124 25.917c.04083.0348.08722.0624.13722.0818-.03788-.0387-.08517-.0669-.13722-.0818z"/><path d="m12.6181 24.0137-.1126.0323c.039-.0049.0769-.0158.1126-.0323z"/><path d="m7.04267 27.7734c-.05843.0216-.09838.0029-.13459.0892.01277.0061.02641.0101.04042.012-.00263-.0516.0145-.0935.09417-.1012z"/><path d="m32.0895 12.0313c-.0478.0132-.0966.0231-.1458.0295l-.0101.0546c-.057.0264-.1701.078-.168.0356-.1759.1613.0545.0153-.0336.1334-.317.0528-.6836.4761-.873.2843-.0303.1634.3017-.0536.065.1793-.234-.2209-.2968.2286-.612.2338-.0222-.2057.2676-.2268-.0666-.2528.0155.356-.524.1662-.7066.315.1458.2695-.3859.3404-.6734.6201-.0393-.1149-.7545.1662-1.1561.2032l-.0264-.0648c.1535.3925-.2147.5063-.4045.7189-.0579-.0722-.0952-.1588-.1079-.2506-.0127-.0917-.0005-.1852.0356-.2705l-.2282.1187c.0134.0691.0087.1405-.0138.2072s-.062.1264-.1145.1733l-.1229-.3269c-.2993.1661-.3894.6826-.9005.6891.1644.3142.8011.6407.5332 1.0883-.1135-.152-.2986-.4207-.2351-.5491-.0211.0415-.0385.2078-.1494.1802l-.0085-.3675c-.2459-.0187.0498.2806-.1024.3377-.1405-.2345-.2039-.1058-.2986-.3031.0216-.043.1797.0258.1768-.0957-.1078.0267-.2201.0293-.3291.0076-.1089-.0216-.2117-.067-.3011-.1329.097.1268.1964.3179.1015.4155-.2835.1902-.2784-.2278-.5276-.2513.0314.2078-.2644.145-.0449.5087-.0868.0494-.2075-.1093-.3015-.1872-.0527.25-.674.4809-.2627.7614l.0543.0013-.0145.0312c-.2626.6677-1.1439.4393-1.5225.9154l-.0736-.1171c-.1991.3253-.5803.5091-.6298.8835-.0851.0548-.3283-.0677-.3767-.2222-.162.2324-.1103.3654-.5356.4058.0961-.3357-.1807-.111.1334-.2905-.34.1019-.5064-.0108-.6205.4835-.0708-.3362-.422-.1759-.501-.0004l.3133.0417c-.1158.1239-.2561.2225-.4118.2897l-.1471-.3826c-.4086.015-.5373.3927-.6814.7064-.1399.3206-.3068.5607-.6866.4709-.0149.3093.3751-.1208.4018.2159-.2818.1546-.7763.0182-.8459.095-.4044.1873-.0791.6158-.4895.8285.0917.0305.273.1991.0379.4627-.2806.1566-.4937-.0248-.3758-.2112.0545-.0566.097-.0601.1098-.0354.0633-.0911.1447-.2133-.001-.2017l.015.096c-.1671.0372-.4889.3487-.4792.1793-.1431.22-.0126.1648.1452.0778-.3709.1864-.4887.4235-.8507.6438.0699-.0172.1579.0012.105.0423-.5265.3298-.1552.256-.4786.5269-.2365.0783-.0373-.2035-.3392.1036-.2369.1119-.1179-.0733-.0601-.1702-.228.2228-.5044.3897-.8077.4877l.1457-.1462c-.0769.0759-.1626.1423-.2553.1979l.1528.0153c-.1088.0526-.1942.1068-.216.0721-.0663.1192.173.0819.0194.2873-.163.0447-.3735.31-.5037.2214.4209-.2042-.0353-.1078.1661-.2771-.0635.0443-.1327.0797-.2058.1051-.025-.0042-.0022-.0322.0221-.0545-.5011.1218-.0969.2437-.536.4825.0025-.1051-.2054-.0896-.2719-.0433.1892-.0796.1787.0856.061.2362-.3335.081-.2729.2127-.425.2867l.1922-.0586c.0077.1212-.1362.1934-.3068.3358-.0276-.026-.0153-.0543.0063-.0789-.1415.203-.6204.0255-.8122.2916-.2045-.0103-.183-.2254-.3553-.2245-.232.3364-.5343-.023-.7978.3046.254.1485.2304.0821.1228.4175.1618-.1546.3213-.3128.4957-.4504-.0682.1569-.1274.3176-.1773.4812.1727-.1038.2832-.3305.4143-.3552-.0734.2448-.0835.195.1082.2949-.4455-.144-.3355.4628-.7497.4346l-.3717-.5214c-.60907-.019-.53848.7018-1.14624.9245l.23724-.0157c.10105.2748-.28851.2542-.37945.4682-.12917-.2036-.28193-.1978-.43892-.2638.11439.1348-.36744.2687-.1255.6833l-.402-.0726c-.45869.2261-.04394.8887-.46587 1.128-.03471-.2845-.29524-.2648-.15758-.6167-.12213.1053-.25468.1703-.16446.2925-.15216-.044-.16183.5222-.3944.4617.00514.1181.1204.3042-.02737.4078-.02826-.0192-.04946-.0472-.06035-.0796.06108.0806-.13225.2906.12287.3636-.7384-.1464-1.04346.9083-1.60685.886-.22012.2873-.48299.6351-.70237.8699-.00121-.0108-.00362-.0214-.0072-.0317l-.09929.1189-.04686.0541c-.01013.0906-.04182.1775-.09243.2533-.0506.0759-.11864.1385-.19842.1826-.2043.116.08947-.1646.04481-.1487l-.27516.3507.07425-.0601c.227-.175.5161-.2801.56987-.1934.01933.0311.00498.0767-.0356.1276.26097-.0994.52747-.1836.79817-.2523.34187-.3045.72403-.5604 1.13572-.7607.13403-.0686.27391-.1251.41797-.1688.15266-.1347.33319-.234.52868-.2907l1.2274-.239c-.01532-.0404-.04019-.0765-.07248-.1052.68011.1903.61919-.5969 1.0007-.5851l.08494-.0998c.07138-.0806.15823-.146.25538-.1925.0972-.0464.2026-.0729.3102-.0778l1.0894-1.438c.2895.437-.5753.5947-.2209 1.0186.3866-.6506.4175-1.291.9874-1.6903.1589-.0876.0419.2308.0451.3377.3793-.6669.907-1.0536 1.2529-1.6413.0137.0222-.0173.0945-.0488.1595.0811-.0978.223-.1797.1424-.2684l-.0657.1143c-.2567-.0202.1436-.6386.1228-.7064.0218.3903.5196-.3349.4814.1837.0465-.0742.0976-.1776.0456-.2187.103-.0625.1522-.0592.1034.0825.3008-.3376.126-.3136.4427-.558.0228.0349-.0317.0973-.0355.1635.1154-.231.2984-.4215.5247-.5459-.0028.0315.0474.0347-.0355.0923.4713-.338.6925-.7361 1.2822-1.003-.0457.2639.2256-.0544.3619.0838l.2758-.2023-.178-.0165c.2718-.1334.4081-.403.6801-.4619l-.1448.1826.4786-.2943-.3366.0705c.1942-.2538-.2031-.2403.1771-.3913-.0532.0662.2539-.1605.4879-.0933l-.0004.0012c.0787-.1484.1489-.3172.3843-.3649.109.0588.1605.3212.2321.3606-.0236-.2969.5917-.3761.5663-.7472.0098.1096.059.2119.1385.288l-.0367-.276c.1666-.0002.2082.0256.2791.1727.3954-.1585-.3947-.3539.1579-.4172-.0214.0379.018.0637-.03.1377.507-.1346.7321-.6351 1.2047-.7483.3689.3173-.2832.2958.0608.5387.5322-.3859.8718-1.1569 1.4834-1.385l-.1326.0135c-.3124-.6489.6003.0559.6943-.3934-.0383.0865.1311.3967.1053.317.4413-.1187.674-.5988 1.106-1.154l.0356.2101c.3132.0149.6284-.2716.908-.3477-.0351-.2118.115-.2714-.1173-.4614 1.2961.4678 1.072-1.3763 2.1584-1.0597-.0742.0527-.0974.256-.0376.2154l.4463-.5111c-.1908-.2164-.1593-.0994-.3901-.2177-.012-.0919.0004-.1853.0361-.2708.0356-.0856.0932-.1602.1669-.2163-.1501.3158.2385.3896.42.4476-.0614-.0611-.0742-.1659-.1277-.234.5321.2276-.2365-.5031.3215-.4731l.0505.1318c.1075-.1571.152-.3937.3299-.4603.2115.2033-.0861.2155.0284.43.2001-.1752.1611-.7405.4997-.6354-.0556.1246-.189.2134-.2425.3414.3805.1344.3585.0393.5388-.0327l-.0186.0055.4207-.1592-.129.0036c-.0464-.7245.4796-.5013.6705-1.0506-.1998.5105.0341.1991.1154.4038.1202-.0176.2848-.0756.2762.0066.0092-.037.0258-.0718.0487-.1022-.0153-.1318.1109-.3449.412-.5848.3834-.3261.7435-.6323 1.0426-.8866-.0643.0188-.1307.0293-.1977.0313z"/><path d="m24.0768 16.2734-.0177.0002c.0213.0068.0411.0179.0579.0327-.0141-.01-.0275-.021-.0402-.0329z"/><path d="m28.0499 15.2949c.0234.0241.054.0399.0872.0449-.0249-.0219-.0549-.0373-.0872-.0449z"/><path d="m29.4487 14.3641.2379-.0643c-.0815.0124-.1613.0339-.2379.0643z"/><path d="m30.5325 13.6598c-.0043-.0321-.0126-.0635-.025-.0934l-.0026.0005z"/><path d="m13.4006 24.9502c-.0117.0135-.0218.0282-.0303.0439-.061.1169-.0139.0454.0303-.0439z"/><path d="m18.2102 21.165c-.0312.0642-.0703.1242-.1163.1786.1058-.0377.1842-.0727.1163-.1786z"/><path d="m17.8405 21.4748c.0975-.0131.1872-.0602.2533-.133-.0939.0233-.1808.069-.2533.133z"/><path d="m31.1757 12.3732.4157-.1534c-.0872.0012-.2109-.0123-.0276-.0919-.5817.0932.1495.0319-.3881.2453z"/><path d="m29.8777 12.8378c.198-.127-.0624-.1012-.0756-.1483-.1025.12-.1233.1559.0756.1483z"/><path d="m21.3618 17.713-.1634-.296c-.1208.1476.0693.11.1634.296z"/><path d="m20.6904 20.1026.2556.0708-.0804-.2759z"/><path d="m18.6653 19.0471.0384-.0852-.1751.2843z"/><path d="m43.5229 23.8972.0595-.0222c-.0217.0009-.0425.0087-.0595.0222z"/><path d="m43.4346 26.4456c-.005-.0099-.0124-.0184-.0215-.0248-.0091-.0063-.0196-.0103-.0307-.0116.0179.0209.0334.0382.0522.0364z"/><path d="m43.306 26.8645.0081-.0237c-.0133.0075-.02.016-.0081.0237z"/><path d="m43.5229 23.8965-.1547.0558c.1558.017.1178-.0255.1547-.0558z"/><path d="m43.3457 22.7676.0045-.0203-.1606-.0246z"/><path d="m43.6062 21.9224c-.0199.0189.2144.0318.3176.0421-.096-.0136-.1373-.0291-.1494-.0465z"/><path d="m43.1151 23.3647-.1427-.0014z"/><path d="m43.0492 27.6284.0043-.0027c-.0007-.0204-.0056-.0097-.0043.0027z"/><path d="m41.9254 29.252c.049.0075.0984.0121.1479.0138-.0488-.0089-.0983-.0136-.1479-.0138z"/><path d="m43.06 28.1064-.0456.0254c.017-.0047.0327-.0134.0456-.0254z"/><path d="m42.3451 30.0654c-.0226.0135-.0625.0103-.0236.0455l.0352.0006c-.0392-.0188-.0583-.0357-.0116-.0461z"/><path d="m44.1843 21.0798c-.013.0163-.0279.0311-.0442.044l.0397.0114c-.0048.0196-.017.0582-.0503.0509.0466.0731.0381-.0122.0923.0305-.1101.0931.0679.261-.1907.2786.1251.0357.1049-.0886.1866.0132-.3084.0239.0496.1172-.1057.2006-.1852-.0301-.0611-.1087-.2484-.0266.3084.0579-.1185.164-.0892.236.3002.0112.0878.1591.1768.2829-.1195-.0114-.2433.2195-.4297.3232l-.0687-.0062c.4122.0387.314.1507.3957.239-.1644.0039-.3278-.0255-.4805-.0863l-.0179.0777c.0953.0039.1861.0418.2559.1068l-.3408-.0368c-.0142.1029.3649.2303.0957.35.352.0291.9704-.0532 1.2011.1068-.1977.0039-.3951-.017-.5876-.0621.0235.0137.1537.0534.0709.0735l-.3131-.0764c-.1478.0531.2624.0481.2285.0959-.2723-.0176-.1988.0245-.4151.004-.0243-.014.1186-.0358.0149-.061-.1343.0805-.2889.1209-.4454.1165.1376-.008.2753.0147.4031.0665.0073.1056-.3403.0136-.4955.0639.1904.0382-.0216.0899.4016.1213-.0057.0304-.2046.022-.3212.0254.1786.0667.0286.2544.4883.2283l.0311-.0116.0179.0103c.409.2123-.2612.3514-.0852.5432l-.1377-.0127c.1552.1201.092.2442.3717.3478-.1268.0443-.2635.0519-.3944.0219.099.0908.2371.1146.0287.2103-.2195-.1044-.1929.0078-.1618-.1003-.1082.0941-.2979.0967.0389.2459-.3134-.0722-.386.0364-.2866.0971l.2124-.0498c.0168.0224.026.0495.0263.0774.0003.028-.0083.0553-.0246.078l-.3945-.0718c-.2147.0818.0026.2022.1771.3138.1763.1115.2706.2086-.0233.2529.2394.0876.1223-.1013.4083-.0144-.041.095-.4394.1464-.4186.1798-.0865.1235.4473.1864.3733.3198.08-.0072.3209.0084.3891.126-.0434.0951-.3207.0781-.3964.0042-.0114-.0256.0117-.0339.0393-.0291-.0166-.026-.0413-.0458-.0703-.0562-.029-.0105-.0607-.0109-.09-.0014l.0851.0249c-.0729.0393-.0243.1836-.1529.1328.0948.089.1251.0504.1518-.0018-.0755.1172.0581.2091.0085.3341.0294-.0166.0973-.0257.0973-.0047-.0615.1852.1087.1023.1264.2375-.0823.0623-.1816-.0555-.1256.0864-.0547.0725-.1292-.0036-.1702-.0422.0939.1359-.0754.2135-.1072.2769l-.0258-.0678c.013.0323.0126.0685-.0009.1006l.1052-.0187c-.0255.0331-.0357.063-.0756.0556.0524.0474.1699-.001.2346.0867-.0657.0388.0132.155-.1397.1457.106-.1267-.1027-.0284-.1101-.1119-.0027.0134-.0083.026-.0163.037-.008.0109-.0184.02-.0303.0266-.0032.0008-.0064.0008-.0096.0002-.0032-.0007-.0062-.002-.0088-.004-.0027-.0019-.0048-.0044-.0064-.0072s-.0025-.006-.0027-.0092c-.2253.1102.1198.0897.0407.2314-.0329-.0133-.0686-.018-.1038-.0136-.0352.0045-.0687.0178-.0973.0388.0589-.0519.1772.0018.2188.067-.1479.0729-.0081.1071-.0467.1524l.0759-.0458c.0998.0386.062.0819.0682.1529-.0375-.0047-.052-.0158-.0579-.0269.0711.0874-.3647.0937-.2778.2075-.1331.024-.2842-.0502-.3884-.0269.1147.1423-.3344.0634-.2642.2021.2717.0187.2065-.0013.3876.1242-.0146-.07-.023-.1411-.0251-.2125l.249.183c.0336-.0564-.0699-.1467-.0092-.1724.1401.0913.0957.0763.2888.084-.3801.0111.1366.1994-.1439.2432l-.6252-.1304c-.3889.0675.1821.3013-.0373.4486l.1387-.0324c.2699.0839.006.1211.1084.2062-.1556-.0363-.3153-.0512-.4748-.0441.1738.0352-.0345.1329.4259.2538l-.313.0162c-.1245.1271.6212.3215.529.4533-.2313-.1001-.3821-.0668-.5545-.2081.0003.0503-.0354.087.1116.1225-.1277-.001.2812.207.0836.2066.0883.0425.2967.0998.274.1517-.033-.0046-.0654-.0126-.0968-.0237.0972.0237.1224.1196.342.1229-.5776.0154-.014.4392-.4073.4772.0585.1267.1094.2568.1523.3896l-.0265-.0117.02.0542.0079.0248c.0656.0591.1529.0911.1086.1909-.0539.0604-.0487-.0693-.0662-.0595l.0517.1548.0084-.0287c.0172-.0444.0498-.0812.0919-.1036.0421-.0223.0908-.0287.1373-.0179.0133.0028.0256.0089.0358.0178.0103.009.018.0203.0226.0331.1156-.0633.2364-.1167.3611-.1595.0254-.1492.0947-.2874.199-.397.0452-.0429.097-.0781.1535-.1042.0082-.038.0268-.0729.0536-.101s.0609-.0483.0984-.0583l.6263-.2218c-.0401-.0137-.0812-.0241-.123-.0312.5891-.0049-.0359-.294.2261-.3325l-.0184-.0469c-.0307-.0813.0454-.1392.1657-.1688-.12-.2278-.2735-.4503-.3765-.6559.4993.1119.0772.286.6198.3906-.2532-.2891-.6848-.5098-.6536-.7312.0367-.0518.1945.072.2809.1095-.2626-.283-.1859-.4823-.4401-.7322.0355.0138.0679.0344.0955.0607-.0273-.0451-.0048-.0939-.1236-.111l.0493.0479c-.1739.0313-.4109-.2328-.4736-.2505.3117.123.0699-.1857.4451-.0125-.0355-.043-.0861-.0709-.1414-.078.014-.0362.0464-.0429.1281.0108-.0844-.1571-.1649-.1203-.1633-.2485.0412.0075.0568.036.1065.0579-.0845-.0797-.1564-.1568-.1071-.2569.0229.0103.0558.0032.0504.0346.0215-.1831-.1491-.3404-.0042-.5213.1839.0882.0909-.0554.2813-.0376l.0096-.1086-.1219.026c.0594-.0875-.0664-.1906.0448-.2572l.0618.0804.0456-.1739-.1424.0818c-.0893-.1097-.3152-.0343-.2091-.1465.0215.0288.0231-.092.2141-.1159l.0006.0004c-.0721-.0573-.1648-.1181-.0656-.1756.111-.0038.3513.0611.4248.0588-.2516-.0798.0454-.2203-.2668-.3189.1015.0299.2062.0478.3119.0533l-.2427-.0697c.0977-.0331.2032-.0353.3022-.0065.1042-.1216-.5142-.0204-.2431-.1462.0181.0147.0618.014.0937.0439.1842-.1383-.0951-.3195.0883-.4454.4705.0083.0763.1373.4711.1315-.0033-.2158-.437-.4877-.2826-.6769l-.0636.032c-.7091-.0962.384-.1158.0681-.2499.1043.0301.2115.0488.3198.0557.1507-.128-.1145-.3003-.3383-.53l.1942.0417c.1853-.0683.1213-.2093.2124-.2925-.1418-.0592-.2949-.0861-.4483-.0788 1.0937-.2041-.5709-.5583.2717-.7517.0055.0294.1654.0785.1622.055l-.1953-.2185c-.1318-.0017-.2631.0157-.3899.0516-.1744-.0348-.3053-.0988-.3043-.1493.1961.0637.408.059.601-.0134-.0842.003-.1797-.0151-.2656-.0156.473-.087-.5514-.0422-.2328-.1745l.1383.0134c-.0772-.0581-.2535-.1152-.216-.1726.2832-.014.1366.0633.3777.0764-.0406-.0856-.5428-.1833-.28-.2492.0789.0377.0861.0887.1666.1269.3136-.0712.2192-.0844.2482-.1446l-.0045.0059c.0278-.0448.0524-.0914.0738-.1396l-.0611.0344c-.6411-.1223-.1857-.2177-.5497-.3654.3276.1423.1847.0264.3989.0411.0477-.0348.0842-.0888.1489-.072-.0221-.0067-.0428-.0172-.0613-.031-.0628-.0093-.1224-.0332-.1742-.0699-.0518-.0366-.0941-.085-.1237-.1411-.0846-.1648-.1933-.3197-.2397-.4254-.0203.0232-.0443.0429-.071.0583z"/><path d="m43.5915 23.8695-.0097.004.0591-.0053z"/><path d="m44.9115 22.7237c.0286-.0003.057-.0046.0844-.0128-.0285.0014-.0568.0057-.0844.0128z"/><path d="m44.848 22.1841.0646-.0747c-.027.0196-.0491.0451-.0646.0747z"/><path d="m44.7963 21.7698-.091-.01-.0011.0008z"/><path d="m44.28 28.3027.0156.0189c.0529.0473.0267.0169-.0156-.0189z"/><path d="m44.2307 26.3242c.0288.0202.0539.0451.0744.0737.0326-.0307.0511-.0556-.0744-.0737z"/><path d="m44.2613 26.4834c.0551-.0275.0595-.0564.0434-.0859-.0285.025-.0612.0543-.0434.0859z"/><path d="m44.0246 21.3783.0775-.1354c-.0413.0235-.1141.0541-.0884-.0075-.2124.1695.0997-.0345.0109.1429z"/><path d="m43.7729 21.7957c-.0091-.0728-.1168-.0017-.163-.0066.0509.047.0706.0587.163.0066z"/><path d="m43.2653 24.7869-.3348-.0408c.0524.0607.1291.0135.3348.0408z"/><path d="m44.8219 25.5441.2051-.0336-.2687-.0564z"/><path d="m42.8019 25.6504-.0473-.0303.1272.109z"/><path d="m43.0582 28.4922-.055.0303c.021-.0043.0401-.0149.055-.0303z"/><path d="m42.6506 26.1294c.0074.008.0166.0141.0269.0179s.0213.0051.0321.0037c-.022-.0151-.0411-.0274-.059-.0216z"/><path d="m42.6787 25.7168-.0021.0234c.0111-.0098.0155-.0192.0021-.0234z"/><path d="m43.0579 28.4914.1436-.0773c-.1564.0098-.112.0431-.1436.0773z"/><path d="m43.4013 29.5205-.0019.0197.1623.0013z"/><path d="m43.2468 30.3457c-.1063-.0135-.2138-.0143-.3203-.0024.0968.0015.1397.0111.1536.026z"/><path d="m43.5439 28.9247.1412-.0204z"/><path d="m42.7403 24.96-.0036.0035c.0059.0184.0079.0075.0036-.0035z"/><path d="m43.3701 23.1729-.1452.031c.0492-.0062.0978-.0166.1452-.031z"/><path d="m42.6064 24.5291.0361-.034c-.0146.0083-.027.0199-.0361.034z"/><path d="m42.7209 22.5656c.0172-.0191.0559-.0286.0077-.048l-.0335.0103c.0431.0047.0668.014.0258.0377z"/><path d="m42.7571 31.193c.0116-.0164.0249-.0315.0398-.0449l-.0406-.0068c.003-.0185.0115-.0555.0453-.0519-.0534-.0631-.0369.015-.0949-.0192.1008-.0971-.0923-.234.1633-.2773-.1279-.0198-.096.0929-.1867.0074.304-.0547-.0596-.1031.0849-.1968.1872.0075.0728.0941.2499-.0026-.313-.0197.0993-.1655.0621-.2299-.2995.0244-.105-.1377-.2073-.2421.1212-.0039.2144-.2337.3856-.3552l.069-.0032c-.4137.0175-.3305-.0993-.4229-.1702.1619-.0262.3273-.0209.4872.0156l.0078-.0754c-.0939.0096-.1882-.0133-.2673-.0648l.3422-.0127c.0005-.0995-.3941-.164-.1449-.3148-.3942.091-.8006.117-1.2031.0771.1949-.0326.3929-.0423.59-.0289-.0252-.0093-.1596-.0267-.0807-.0573l.3206.0246c.1385-.071-.2663-.006-.2397-.055.2716-.0241.193-.0523.4097-.0655.0261.0095-.1122.0509-.0058.059.1227-.0957.269-.1565.4235-.1759-.1347.0283-.2738.028-.4083-.001-.0226-.0973.3349-.0648.4802-.1361-.1942-.0063.0067-.0882-.4161-.051.0009-.0291.1985-.0527.313-.0744-.187-.0343-.0693-.234-.5186-.1347l-.0287.0158-.0195-.0066c-.4364-.1285.2009-.3688-.0073-.5171l.1378-.0124c-.1741-.0839-.1339-.21-.4271-.2544.1176-.064.25-.0959.3839-.0924-.1141-.0659-.2545-.0615-.0685-.1889.2355.0551.1879-.0438.1782.0623.088-.1073.2734-.1468-.0858-.2203.3213.0067.3715-.1089.2623-.146l-.1986.0878c-.0206-.0169-.035-.0403-.0408-.0663-.0057-.0261-.0026-.0533.009-.0773l.4007-.0114c.1951-.1195-.043-.1891-.2371-.2567-.1958-.0675-.3083-.1366-.0303-.2394-.2523-.0306-.0984.1193-.396.0986.0202-.0953.3986-.2274.3712-.2541.0586-.1333-.4774-.0755-.4348-.2133-.0763.0242-.3145.0623-.4074-.0293.0213-.0954.2948-.142.3851-.0913.017.0209-.0038.0336-.0315.0352.0228.0203.0513.0329.0817.0361.0303.0031.0608-.0035.0872-.0188l-.0885-.004c.0623-.0521-.0175-.1733.119-.1557-.1122-.0603-.1332-.018-.1472.0357.0464-.1242-.1025-.1779-.0847-.3029-.0246.0219-.0883.0458-.0934.0267.0151-.1823-.1301-.0677-.1799-.1858.0649-.0756.1897.0076.1011-.1077.0356-.0787.1261-.0276.1753-.0022-.1239-.101.0217-.2121.0372-.2778l.0411.0555c-.0099-.0129-.0172-.0277-.0212-.0435-.0041-.0158-.0048-.0323-.0022-.0483l-.0974.0427c.017-.0363.0186-.066.0592-.069-.0628-.0301-.1639.0425-.249-.0208.0535-.0513-.0527-.1364.0974-.1662-.0698.141.1066 0 .1353.0738-.0008-.013.0014-.0259.0064-.0379.0049-.012.0125-.0227.0222-.0314.0028-.0015.0059-.0024.0091-.0026s.0064.0002.0094.0013.0057.0028.008.005.0041.0049.0053.0079c.1892-.157-.1389-.0514-.0989-.1997.035.0038.0704-.0009.1031-.0139s.0617-.0337.0845-.0605c-.0435.0623-.1716.0436-.2286-.0046.1239-.1041-.0196-.099.0059-.1499l-.0614.0611c-.106-.0091-.081-.0577-.1066-.12.0373-.0055.0542.0007.063.0092-.0923-.0597.3251-.1808.2103-.2609.1212-.0576.2869-.0309.3806-.0803-.1492-.0984.304-.1494.1981-.2576-.2659.0585-.1978.0581-.4062-.0057.0331.0594.0607.1217.0823.1862l-.2894-.0977c-.0167.0599.1074.1135.0562.1533-.1597-.0446-.1129-.0428-.3005.0024.3618-.1133-.1851-.1416.0709-.2577l.6362-.0557c.3524-.1715-.262-.2231-.0951-.419l-.1233.0693c-.2823.0018-.0408-.1077-.1634-.155.1592-.0123.3161-.0456.4666-.0989-.1759.0192-.0084-.1315-.4833-.1042l.2927-.1076c.0792-.1531-.6898-.103-.6423-.2476.2506.0192.3837-.0568.5912.0181-.0159-.0454.0069-.0896-.1438-.0764.1216-.0386-.3307-.0994-.1442-.1596-.0973-.0108-.3132.0026-.3084-.0504.0327-.0061.0659-.0091.0992-.0089-.0996.0089-.1545-.0681-.3632-.003.541-.1939-.1277-.3912.2302-.5497-.0975-.0921-.1895-.1899-.2756-.2927l.0288.0015-.0371-.0408-.0158-.0191c-.0819-.03-.1747-.0288-.1669-.1304.0301-.0705.0694.0441.0824.0298l-.101-.1174.0019.0277c-.0027.0461-.0217.0897-.0536.123-.032.0332-.0748.054-.1207.0585-.0131.002-.0265.0008-.0391-.0035-.0125-.0043-.0238-.0116-.0329-.0213-.0876.0932-.1832.1785-.2856.2551.0273.1373.0077.2797-.0556.4044-.0294.0517-.0672.0981-.1119.1374.004.0362-.0027.0729-.0191.1054-.0165.0325-.0421.0596-.0736.0779-.0672.0483-.331.2379-.5241.3767.0423-.0002.0846-.0035.1265-.0098-.5592.1765.1233.2398-.1145.3488l.0317.0347c.0538.0605-.0008.1315-.107.1906.1801.1601.3909.3087.5486.4586-.5102.0391-.1561-.2253-.7054-.1656.3243.176.8038.2505.8326.4519-.0213.0548-.2065-.011-.2998-.0203.3287.1753.3104.3689.6209.5232-.0374-.003-.0739-.0128-.1078-.029.0378.0326.0286.0812.1476.0662l-.0599-.0297c.1601-.0722.4565.1012.5215.1017-.3324-.0306-.0199.1825-.4268.1227.0466.0294.1022.0413.1568.0336-.0044.0356-.034.0495-.1267.0223.1217.1179.1902.0657.2214.1798-.0417.0034-.0643-.0181-.1177-.0253.102.0499.1918.1011.1675.2022-.0248-.0037-.0549.0106-.0573-.0187.023.1676.2263.2685.1292.4637-.1998-.0366-.0751.0702-.2642.0975l.0151.0987.1128-.0505c-.0383.0912.1073.1553.0139.2393l-.0782-.058-.0056.1649.1205-.1041c.1115.0785.3146-.0384.2364.0855-.0274-.0212-.0019.0879-.1828.1503l-.0007-.0003c.083.0358.1876.0708.1022.1436-.1076.0267-.3559.0192-.4272.0366.2623.0187.001.2054.3268.2297-.1057-.006-.2117-.0007-.3162.016l.2519.0127c-.0897.0497-.1917.073-.2941.067-.077.1293.507-.0854.2679.0816-.0208-.0094-.0634-.0001-.1008-.0204-.1507.1596.1572.2671.0012.4153-.4631.0821-.1009-.1077-.4871-.027.0431.1891.5239.3515.4035.5494l.0568-.04c.7143-.0398-.3576.172-.0234.2357-.1081-.0088-.2167-.0069-.3244.0058-.1268.1396.1664.2462.4222.4165l-.1981-.0058c-.172.0912-.0866.2065-.1635.295.1501.0308.3049.031.4551.0006-1.0474.3474.6452.4196-.1595.7164-.0099-.0257-.175-.0474-.1686-.0268l.2226.1693c.1305-.016.2582-.0495.3797-.0996.1773.0077.3151.0486.3205.0951-.2028-.0316-.4104.0006-.594.0922.0832-.0138.1799-.0101.2654-.021-.458.1412.5516-.0342.2526.1287l-.1387.0056c.0839.0429.2659.0728.2361.1302-.2792.0483-.1436-.0408-.3843-.0221.0508.0721.5621.0997.308.1925-.0825-.0249-.0951-.0707-.1802-.0954-.3018.1034-.2079.1035-.2298.1617l.004-.0059c-.0225.0436-.0419.0888-.058.1352l.0568-.0383c.6503.0362.2084.1764.5866.2709-.3414-.0943-.1866-.0036-.401.0065-.0437.037-.074.0899-.1402.0818.0226.0035.0443.0108.0645.0215.0615.0006.1221.0155.1769.0435.0549.0279.1025.0682.1393.1176.0995.1423.2224.2745.2786.3678.0183-.0236.0402-.0441.065-.0606z"/><path d="m42.9948 28.5287.009-.0053-.0576.0146z"/><path d="m41.8562 29.7715c-.0282.004-.0558.0116-.082.0226.028-.0049.0554-.0125.082-.0226z"/><path d="m41.9851 30.252-.0559.0753c.0243-.0204.0434-.0462.0559-.0753z"/><path d="m42.0822 30.6199.0916-.0009.0009-.0008z"/><path d="m41.3796 24.6705-.0202-.0129c-.0653-.0285-.0307-.0082.0202.0129z"/><path d="m41.9029 26.4132c-.0322-.0117-.0622-.0285-.089-.0499-.0249.0344-.0374.0606.089.0499z"/><path d="m41.8371 26.2783c-.0474.0366-.0453.0632-.0232.0861.0223-.0283.0476-.0617.0232-.0861z"/><path d="m42.8875 30.8984-.0643.1335c.039-.0259.1086-.0616.0889-.0018.1951-.1787-.0959.042-.0246-.1317z"/><path d="m43.0955 30.4831c.0171.0669.1161-.0115.1627-.0122-.056-.0383-.0768-.0469-.1627.0122z"/><path d="m43.1573 27.6201.3365-.024c-.0633-.047-.1294.0115-.3365.024z"/><path d="m41.4854 27.2285-.1944.0696.2736-.0012z"/><path d="m43.4408 26.7263.0516.018-.1463-.0744z"/><path d="m21.0337 37.78.0594-.0222c-.0216.0009-.0424.0087-.0594.0222z"/><path d="m20.9452 40.3284c-.005-.0099-.0124-.0184-.0215-.0248-.0091-.0063-.0196-.0103-.0306-.0116.0178.0208.0335.0382.0521.0364z"/><path d="m20.8164 40.7473.0082-.0237c-.0134.0075-.02.016-.0082.0237z"/><path d="m21.0338 37.7793-.1548.0558c.1557.017.1177-.0255.1548-.0558z"/><path d="m20.8563 36.6523.0047-.0203-.1607-.0246z"/><path d="m21.1168 35.8062c-.0199.0188.2146.0318.3178.042-.0961-.0136-.1374-.0291-.1495-.0464z"/><path d="m20.6259 37.2495-.1426-.0015z"/><path d="m20.5596 41.5122.0045-.0027c-.0007-.0204-.0056-.0097-.0045.0027z"/><path d="m19.4362 43.1348c.0489.0075.0982.0121.1477.0138-.0487-.0089-.0982-.0136-.1477-.0138z"/><path d="m20.5705 41.9893-.0456.0253c.0171-.0046.0327-.0133.0456-.0253z"/><path d="m19.8557 43.9482c-.0228.0135-.0625.0103-.0238.0455l.0353.0006c-.0391-.0188-.0582-.0358-.0115-.0461z"/><path d="m21.6952 34.9626c-.0131.0163-.0279.031-.0442.044l.0397.0114c-.0048.0196-.0171.0583-.0504.0509.0467.0732.0382-.0122.0924.0305-.1101.0932.0679.2611-.1907.2786.1251.0357.1049-.0886.1864.0132-.3084.024.0497.1172-.1055.2006-.1851-.0301-.0611-.1087-.2486-.0266.3085.0579-.1184.164-.0892.2361.3004.0111.0879.159.177.2828-.1195-.0114-.2433.2195-.4297.3232l-.0689-.0062c.4125.0387.314.1508.3958.239-.1644.0039-.3278-.0255-.4805-.0863l-.0179.0777c.0953.0039.1861.0418.2558.1068l-.3406-.0368c-.0142.1029.3648.2304.0958.3501.3519.029.9702-.0533 1.2009.1067-.1977.0039-.3951-.0169-.5876-.0621.0236.0138.1538.0535.0709.0735l-.313-.0764c-.1477.0531.2623.0481.2285.0959-.2722-.0176-.1987.0245-.415.004-.0243-.014.1186-.0358.0149-.0609-.1344.0803-.289.1208-.4455.1165.1377-.008.2754.0147.4032.0665.0073.1055-.3405.0135-.4955.0638.1904.0382-.0218.0899.4016.1214-.0059.0303-.2046.0219-.3214.0253.1787.0667.0286.2544.4883.2284l.0311-.0117.018.0103c.4089.2124-.2611.3515-.0852.5433l-.1378-.0127c.1554.1201.0921.2442.3717.3478-.1268.0443-.2635.0519-.3944.0219.0991.0907.2372.1145.0288.2102-.2196-.1044-.193.0079-.1618-.1002-.1084.094-.2981.0966.0389.2458-.3134-.0722-.3862.0364-.2867.0972l.2125-.0498c.0168.0223.026.0494.0263.0774.0003.0279-.0083.0552-.0246.078l-.3945-.0718c-.2147.0818.0026.2022.1769.3138.1764.1115.2708.2086-.0231.2529.2394.0876.1224-.1013.4081-.0144-.0408.095-.4393.1464-.4184.1798-.0865.1235.4473.1864.3733.3197.0798-.0071.3209.0084.3891.1261-.0436.0951-.3207.078-.3964.0041-.0114-.0256.0117-.0339.0391-.029-.0165-.026-.0412-.0458-.0701-.0563-.029-.0104-.0607-.0108-.09-.0013l.085.0249c-.073.0393-.0243.1835-.1528.1328.0948.089.1251.0503.1516-.0018-.0753.1172.0583.2091.0086.3341.0295-.0166.0973-.0258.0974-.0048-.0616.1852.1087.1024.1263.2376-.0823.0622-.1816-.0556-.1255.0864-.0548.0724-.1292-.0036-.1702-.0422.0937.1359-.0756.2135-.1074.2768l-.0256-.0677c.013.0323.0126.0685-.001.1006l.1053-.0187c-.0255.0331-.0358.063-.0756.0556.0523.0474.1697-.001.2345.0867-.0656.0388.0133.1549-.1396.1457.106-.1267-.1028-.0284-.1103-.1119-.0026.0134-.0081.026-.0162.0369-.008.011-.0183.0201-.0302.0267-.0032.0008-.0065.0008-.0096.0002-.0032-.0007-.0062-.002-.0089-.004-.0026-.0019-.0048-.0044-.0063-.0072-.0016-.0029-.0025-.006-.0027-.0093-.2254.1103.1196.0897.0407.2314-.0329-.0133-.0686-.0179-.1038-.0135s-.0687.0177-.0973.0387c.0589-.0518.1772.0019.2188.0671-.1479.0729-.0081.1071-.0469.1524l.0761-.0458c.0997.0386.062.0818.068.1529-.0373-.0048-.0518-.0158-.0577-.0269.0711.0873-.3648.0937-.2778.2075-.1331.024-.2844-.0502-.3884-.027.1147.1423-.3346.0634-.2642.2022.2717.0186.2064-.0013.3876.1242-.0146-.07-.023-.1411-.0251-.2125l.249.183c.0336-.0564-.0699-.1467-.0094-.1724.1403.0913.0958.0762.2888.0839-.3799.0111.1368.1994-.1438.2433l-.6251-.1304c-.3891.0675.1819.3012-.0373.4486l.1387-.0324c.2699.0839.006.1211.1082.2061-.1555-.0363-.3153-.0511-.4748-.0441.174.0352-.0343.133.4259.2539l-.3128.0161c-.1246.1272.6212.3216.5288.4533-.2312-.1-.3819-.0668-.5544-.2081.0004.0504-.0355.0871.1115.1225-.1275-.001.2814.2071.0838.2066.0883.0426.2967.0999.274.1517-.033-.0045-.0654-.0125-.0968-.0237.0972.0237.1224.1197.3418.1229-.5774.0155-.0139.4393-.4071.4772.0585.1267.1093.2568.1523.3896l-.0265-.0116.0198.0542.0079.0248c.0657.0591.153.091.1088.1909-.0539.0604-.0488-.0693-.0664-.0595l.0517.1548.0084-.0289c.0172-.0445.0499-.0812.092-.1036.0421-.0223.0909-.0286.1374-.0179.0132.0028.0256.009.0358.0179s.018.0203.0226.033c.1156-.0633.2364-.1167.3611-.1595.0254-.1492.0946-.2874.1989-.397.0452-.0429.0971-.0781.1536-.1042.0082-.0379.0268-.0729.0536-.101s.0608-.0483.0983-.0583l.6264-.2218c-.0402-.0137-.0814-.0241-.1232-.0311.5892-.0049-.0359-.2941.2261-.3326l-.0184-.0469c-.0305-.0813.0454-.1391.1659-.1688-.1201-.2278-.2737-.4502-.3767-.6559.4994.112.0773.2861.6199.3907-.2532-.2892-.6849-.5098-.6536-.7312.0366-.0519.1943.0719.2809.1094-.2628-.283-.186-.4823-.4402-.7322.0355.0137.0679.0344.0954.0607-.0271-.045-.0047-.0939-.1234-.111l.0493.048c-.1739.0313-.4111-.2328-.4737-.2505.3118.123.07-.1857.4452-.0125-.0356-.043-.0862-.0709-.1416-.0779.0142-.0362.0466-.0429.1283.0107-.0844-.1571-.165-.1203-.1634-.2485.0411.0075.0569.036.1066.0579-.0847-.0797-.1566-.1568-.1072-.2569.023.0103.0559.0032.0505.0346.0215-.1831-.1491-.3404-.0042-.5213.1837.0882.0909-.0554.2811-.0376l.0097-.1086-.1218.026c.0594-.0875-.0665-.1906.0446-.2571l.062.0803.0454-.1739-.1424.0818c-.0892-.1096-.315-.0343-.209-.1464.0214.0287.0232-.0921.2141-.116l.0006.0004c-.0722-.0573-.1647-.1181-.0656-.1756.1109-.0038.3514.0612.4247.0589-.2516-.0799.0454-.2204-.2668-.319.1016.0299.2063.0478.3121.0534l-.2428-.0697c.0976-.0331.2031-.0354.3021-.0065.1044-.1217-.5142-.0204-.2431-.1462.0181.0146.0619.0139.0939.0438.1842-.1383-.0951-.3194.0881-.4453.4706.0082.0763.1372.4713.1314-.0035-.2158-.437-.4877-.2828-.6769l-.0636.0321c-.709-.0962.3842-.1159.0683-.2499.1042.0301.2114.0487.3197.0556.1508-.128-.1144-.3003-.3382-.53l.1942.0418c.1851-.0684.1211-.2094.2124-.2926-.1418-.0592-.295-.0861-.4485-.0787 1.0937-.2042-.5708-.5583.2717-.7518.0057.0295.1655.0785.1624.055l-.1954-.2184c-.1318-.0017-.2631.0156-.39.0516-.1744-.0348-.3052-.0988-.3043-.1494.1961.0638.4081.0591.6012-.0133-.0844.0029-.1798-.0151-.2658-.0156.473-.087-.5513-.0422-.2326-.1746l.1381.0135c-.077-.0582-.2535-.1152-.2158-.1726.2832-.014.1364.0633.3776.0764-.0405-.0856-.5427-.1833-.28-.2492.0788.0377.0861.0887.1667.1268.3134-.0711.2192-.0843.2482-.1445l-.0047.0059c.0278-.0448.0525-.0915.0739-.1396l-.061.0343c-.6411-.1222-.1858-.2176-.5499-.3653.3276.1423.185.0263.3989.041.0479-.0348.0843-.0888.1491-.072-.0221-.0067-.0429-.0172-.0613-.031-.0628-.0093-.1225-.0332-.1743-.0699-.0517-.0366-.0942-.0849-.1238-.1411-.0845-.1648-.1933-.3197-.2396-.4254-.0202.0232-.0441.0429-.0708.0583z"/><path d="m21.1023 37.7533-.0096.004.059-.0053z"/><path d="m22.4221 36.6075c.0286-.0003.0569-.0046.0843-.0128-.0285.0014-.0567.0056-.0843.0128z"/><path d="m22.3586 36.0679.0646-.0747c-.027.0195-.0491.0451-.0646.0747z"/><path d="m22.307 35.6536-.0912-.01-.0008.0007z"/><path d="m21.7905 42.1855.0156.0189c.0528.0473.0269.0169-.0156-.0189z"/><path d="m21.7412 40.207c.0288.0202.054.0451.0745.0737.0327-.0308.051-.0556-.0745-.0737z"/><path d="m21.7719 40.3653c.0551-.0276.0597-.0564.0435-.086-.0285.025-.0613.0544-.0435.086z"/><path d="m21.5354 35.2621.0776-.1355c-.0413.0236-.1141.0542-.0885-.0075-.2123.1695.0998-.0345.0109.143z"/><path d="m21.2835 35.6795c-.009-.0728-.1167-.0017-.163-.0066.0509.047.0706.0587.163.0066z"/><path d="m20.7761 38.6707-.3348-.0408c.0526.0606.1292.0135.3348.0408z"/><path d="m22.3317 39.4269.2051-.0324-.2675-.0576z"/><path d="m20.3117 39.5342-.0472-.0303.1284.109z"/><path d="m20.5688 42.376-.055.0302c.021-.0042.0401-.0148.055-.0302z"/><path d="m20.1613 40.0132c.0074.008.0166.0141.0268.0179.0103.0038.0213.005.0321.0037-.0222-.0151-.0413-.0274-.0589-.0216z"/><path d="m20.1894 39.6006-.0021.0234c.0111-.0099.0156-.0192.0021-.0234z"/><path d="m20.5682 42.3752.1437-.0773c-.1563.0098-.112.0431-.1437.0773z"/><path d="m20.9121 43.4033-.0019.0197.1622.0013z"/><path d="m20.7574 44.2285c-.1063-.0135-.2139-.0143-.3204-.0024.097.0015.1397.0112.1538.026z"/><path d="m21.0547 42.8085.1412-.0204z"/><path d="m20.2511 38.8428-.0035.0035c.0059.0184.0078.0075.0035-.0035z"/><path d="m20.8808 37.0566-.1452.031c.0492-.0062.0977-.0165.1452-.031z"/><path d="m20.1172 38.4148.036-.0339c-.0145.0083-.0269.0199-.036.0339z"/><path d="m20.2318 36.4474c.0171-.019.0559-.0285.0077-.048l-.0336.0104c.0432.0046.0667.0139.0259.0376z"/><path d="m20.2679 45.0758c.0115-.0165.0249-.0315.0398-.045l-.0407-.0067c.0029-.0186.0116-.0555.0453-.0519-.0533-.0631-.0368.015-.0948-.0192.1008-.0972-.0924-.234.1633-.2774-.1279-.0198-.096.093-.1869.0074.304-.0547-.0594-.1031.085-.1967.1873.0075.0727.0941.2498-.0026-.313-.0197.0994-.1655.0622-.2299-.2994.0244-.105-.1377-.2072-.2421.121-.0039.2143-.2337.3856-.3552l.069-.0032c-.4137.0175-.3307-.0993-.4229-.1702.1619-.0262.3273-.0209.4872.0156l.0076-.0754c-.0938.0096-.1881-.0133-.2671-.0648l.3422-.0127c.0005-.0995-.3941-.164-.1449-.3148-.3942.091-.8006.117-1.2031.0771.1948-.0326.3929-.0423.59-.0289-.0253-.0093-.1598-.0267-.0808-.0573l.3207.0246c.1384-.071-.2666-.006-.2397-.055.2716-.0241.1928-.0523.4097-.0655.0261.0095-.1122.0509-.006.059.1228-.0956.2691-.1564.4235-.1759-.1346.0283-.2737.028-.4081-.001-.0227-.0973.3349-.0647.48-.1361-.1942-.0062.0069-.0882-.4159-.051.0007-.0291.1983-.0527.3128-.0744-.187-.0343-.0692-.234-.5184-.1347l-.0289.0158-.0193-.0066c-.4366-.1285.2008-.3688-.0075-.517l.1378-.0125c-.1739-.0838-.1337-.21-.4271-.2544.1177-.064.2501-.0958.384-.0923-.114-.0659-.2546-.0615-.0685-.189.2355.0552.1877-.0437.1781.0623.0881-.1073.2735-.1468-.0857-.2203.3213.0067.3716-.1089.2623-.146l-.1986.0878c-.0206-.0169-.035-.0402-.0407-.0663-.0058-.026-.0026-.0533.0089-.0773l.4006-.0113c.1952-.1195-.0431-.1892-.237-.2568-.1959-.0675-.3084-.1365-.0304-.2394-.2524-.0305-.0984.1194-.3959.0987.0202-.0953.3986-.2274.3711-.2541.0585-.1333-.4773-.0755-.4347-.2133-.0763.0241-.3146.0622-.4074-.0293.0211-.0954.2948-.142.3851-.0913.017.0208-.0038.0336-.0316.0352.0227.0203.0513.0329.0817.036.0303.0031.0609-.0034.0873-.0187l-.0885-.004c.0621-.0521-.0177-.1733.1189-.1557-.1123-.0603-.1332-.018-.1473.0356.0466-.1241-.1025-.1778-.0847-.3029-.0244.0219-.0881.0458-.0934.0268.0152-.1824-.13-.0677-.1797-.1858.0648-.0756.1896.0075.1011-.1078.0355-.0786.1261-.0276.1751-.0021-.1237-.1011.0217-.2121.0372-.2778l.0413.0555c-.01-.0129-.0172-.0277-.0213-.0435-.004-.0158-.0048-.0323-.0023-.0484l-.0971.0428c.0169-.0363.0186-.066.059-.069-.0627-.0301-.1638.0425-.249-.0208.0536-.0513-.0526-.1364.0975-.1662-.0698.141.1065 0 .1352.0738-.0008-.013.0014-.0259.0063-.0379.005-.012.0126-.0228.0223-.0314.0028-.0015.0059-.0024.0091-.0027.0032-.0002.0064.0002.0094.0013s.0057.0028.008.0051c.0023.0022.0041.0049.0053.0078.1893-.1569-.1387-.0513-.0989-.1997.035.0039.0704-.0009.1031-.0138.0327-.013.0617-.0338.0845-.0605-.0435.0623-.1715.0436-.2285-.0046.1239-.1042-.0196-.099.0058-.1499l-.0612.0611c-.1061-.0091-.0812-.0577-.1067-.12.0372-.0055.0542.0007.063.0092-.0922-.0597.325-.1808.2102-.2609.1214-.0576.287-.0309.3806-.0802-.1492-.0985.304-.1495.1983-.2577-.2661.0585-.198.0581-.4063-.0057.0331.0594.0606.1218.0824.1862l-.2894-.0977c-.0167.0599.1073.1135.0562.1533-.1598-.0446-.1129-.0428-.3005.0024.3616-.1133-.1851-.1417.0708-.2578l.6361-.0556c.3526-.1715-.2618-.2231-.095-.4191l-.1232.0694c-.2825.0017-.041-.1078-.1634-.155.1592-.0124.3161-.0457.4666-.099-.176.0192-.0084-.1314-.4833-.1042l.2927-.1075c.0791-.1532-.6898-.1031-.6423-.2477.2506.0192.3837-.0567.5911.0181-.0158-.0453.0069-.0895-.1438-.0764.1217-.0385-.3306-.0994-.1441-.1595-.0973-.0108-.3132.0026-.3085-.0504.0328-.0062.066-.0092.0993-.009-.0997.009-.1545-.068-.3632-.0029.5409-.194-.1277-.3913.2301-.5498-.0975-.0921-.1895-.1898-.2755-.2926l.0287.0014-.0369-.0408-.0159-.0191c-.0818-.03-.1746-.0288-.1668-.1304.0302-.0705.0693.0441.0823.0298l-.1009-.1174.0018.0277c-.0026.0461-.0216.0897-.0536.123-.0319.0333-.0748.054-.1207.0585-.0132.002-.0266.0008-.0392-.0035s-.0239-.0116-.033-.0213c-.0876.0932-.1831.1785-.2856.2551.0274.1372.0079.2797-.0555.4044-.0294.0517-.0672.0981-.1118.1374.0039.0362-.0027.0728-.0192.1054-.0164.0325-.042.0596-.0735.0779l-.5242.3767c.0424-.0003.0847-.0036.1265-.0098-.5593.1765.1232.2397-.1145.3488l.0318.0347c.0536.0605-.0009.1315-.1071.1905.1802.1601.3909.3088.5485.4587-.5102.039-.156-.2254-.7053-.1656.3242.1759.8037.2505.8326.4518-.0214.0548-.2065-.011-.2998-.0202.3286.1753.3103.3688.6208.5231-.0373-.0029-.0738-.0127-.1076-.029.0376.0327.0285.0812.1475.0662l-.0599-.0296c.16-.0722.4564.1012.5216.1016-.3326-.0306-.0201.1825-.4268.1227.0466.0295.1021.0414.1567.0336-.0045.0356-.034.0495-.1267.0223.1216.118.1901.0658.2215.1799-.0418.0034-.0643-.0181-.1179-.0253.102.0498.1919.1011.1675.2022-.0246-.0037-.0548.0105-.0571-.0188.023.1677.2261.2686.129.4637-.1996-.0365-.0751.0703-.264.0975l.0149.0988.1129-.0506c-.0384.0912.1072.1554.0139.2394l-.0783-.058-.0055.1649.1204-.1041c.1115.0785.3146-.0384.2366.0855-.0274-.0212-.0021.0879-.1828.1502l-.0008-.0002c.0831.0358.1875.0708.1023.1435-.1077.0268-.356.0192-.4274.0367.2625.0187.0012.2053.3269.2296-.1057-.006-.2117-.0006-.3162.016l.2518.0128c-.0897.0497-.1917.0729-.2941.067-.0769.1293.507-.0854.268.0816-.0208-.0095-.0634-.0001-.1009-.0204-.1506.1595.1572.267.0013.4153-.4631.0821-.1009-.1078-.4871-.027.0431.1891.5239.3515.4033.5494l.057-.04c.7143-.0398-.3576.172-.0236.2357-.108-.0087-.2167-.0068-.3244.0058-.1266.1396.1666.2462.4223.4165l-.1981-.0058c-.1719.0912-.0867.2065-.1636.295.1501.0308.3049.031.455.0007-1.0472.3473.6455.4196-.1594.7164-.0099-.0258-.1749-.0475-.1685-.0269l.2225.1694c.1305-.0161.2583-.0496.3799-.0997.1772.0077.3148.0486.3204.0951-.2028-.0316-.4103.0006-.594.0922.0831-.0138.18-.0101.2652-.021-.4578.1412.5519-.0341.2528.1287l-.1387.0056c.0838.0429.266.0729.2361.1302-.2793.0483-.1435-.0408-.3843-.022.0508.072.5621.0997.308.1925-.0825-.025-.095-.0707-.1801-.0955-.302.1034-.208.1035-.2298.1617l.0039-.0059c-.0225.0436-.0419.0888-.058.1352l.0567-.0383c.6503.0362.2086.1764.5867.2709-.3414-.0943-.1867-.0036-.401.0065-.0438.037-.0739.09-.1403.0818.0225.0035.0443.0108.0644.0215.0616.0007.1222.0155.177.0435.0549.0279.1025.0682.1392.1176.0998.1423.2226.2745.2787.3678.0183-.0237.0404-.0441.0653-.0606z"/><path d="m20.5054 42.4115.0089-.0053-.0575.0146z"/><path d="m19.3668 43.6543c-.0282.004-.0558.0116-.082.0226.028-.005.0554-.0126.082-.0226z"/><path d="m19.4957 44.1348-.056.0753c.0243-.0204.0435-.0462.056-.0753z"/><path d="m19.5927 44.5037.0917-.0009.0008-.0008z"/><path d="m18.8902 38.5533-.0204-.0128c-.0652-.0286-.0307-.0083.0204.0128z"/><path d="m19.4135 40.297c-.0322-.0117-.0622-.0286-.0889-.0499-.025.0344-.0374.0605.0889.0499z"/><path d="m19.3479 40.1621c-.0476.0365-.0455.0632-.0232.0861.0221-.0284.0476-.0617.0232-.0861z"/><path d="m20.3981 44.7822-.0642.1334c.0388-.0258.1083-.0615.0887-.0017.1951-.1787-.0959.042-.0245-.1317z"/><path d="m20.6062 44.3688c.0171.0669.1161-.0115.1626-.0122-.0558-.0383-.0766-.0469-.1626.0122z"/><path d="m20.6682 41.505.3364-.0241c-.0633-.047-.1294.0114-.3364.0241z"/><path d="m18.9966 41.1104-.1944.0683h.2736z"/><path d="m20.9521 40.6091.0516.018-.1464-.0744z"/><path d="m11.8312 35.1979.0594-.0221c-.0217.0009-.0425.0087-.0594.0221z"/><path d="m11.7425 37.7464c-.005-.0099-.0124-.0184-.0215-.0248-.009-.0063-.0196-.0103-.0306-.0116.0179.0208.0335.0381.0521.0364z"/><path d="m11.614 38.1663.0081-.0237c-.0133.0075-.0201.016-.0081.0237z"/><path d="m11.831 35.1992-.1547.0558c.1558.0171.1177-.0255.1547-.0558z"/><path d="m11.6537 34.0693.0045-.0203-.1606-.0246z"/><path d="m11.9143 33.2242c-.0199.0188.2144.0317.3176.042-.096-.0136-.1373-.0291-.1495-.0465z"/><path d="m11.4232 34.6665-.1427-.0015z"/><path d="m11.357 38.9292.0045-.0027c-.0007-.0204-.0056-.0098-.0045.0027z"/><path d="m10.2335 40.5527c.049.0076.0983.0122.1478.0139-.0488-.009-.0982-.0136-.1478-.0139z"/><path d="m11.368 39.4062-.0457.0254c.017-.0046.0327-.0133.0457-.0254z"/><path d="m10.6531 41.3652c-.0226.0135-.0625.0103-.0236.0455l.0351.0006c-.0391-.0188-.0582-.0357-.0115-.0461z"/><path d="m12.4926 32.3796c-.0131.0163-.0279.0311-.0443.044l.0397.0114c-.0048.0196-.0171.0583-.0502.0509.0466.0732.0381-.0122.0923.0305-.1102.0932.0679.261-.1907.2786.125.0357.1048-.0886.1864.0132-.3084.0239.0497.1172-.1056.2006-.1851-.0301-.061-.1086-.2483-.0266.3084.0579-.1185.164-.0893.2361.3003.0111.0878.159.1769.2828-.1195-.0114-.2433.2195-.4297.3232l-.0689-.0062c.4125.0387.314.1508.396.239-.1644.0039-.3278-.0254-.4805-.0863l-.0179.0777c.0953.004.186.0418.2558.1068l-.3408-.0368c-.0142.1029.365.2304.0958.3501.3519.029.9704-.0533 1.201.1067-.1977.0039-.3951-.0169-.5876-.0621.0236.0138.1538.0535.071.0736l-.3131-.0765c-.1478.0531.2624.0481.2285.0959-.2723-.0176-.1988.0245-.4151.004-.0243-.014.1186-.0357.015-.0609-.1344.0804-.289.1208-.4455.1165.1376-.008.2753.0147.4031.0665.0074.1056-.3403.0135-.4955.0638.1904.0382-.0216.09.4016.1214-.0057.0303-.2046.0219-.3212.0253.1786.0667.0286.2544.4882.2284l.031-.0117.018.0103c.4089.2124-.2611.3515-.0852.5433l-.1378-.0128c.1553.1201.092.2442.3717.3478-.1268.0443-.2635.0519-.3944.0219.099.0908.2372.1146.0287.2102-.2195-.1044-.193.0079-.1618-.1002-.1084.0941-.2979.0966.039.2458-.3134-.0721-.3861.0365-.2866.0972l.2123-.0498c.0168.0224.026.0495.0263.0774s-.0083.0553-.0245.078l-.3946-.0718c-.2147.0818.0027.2022.1771.3138.1764.1115.2706.2086-.0233.2529.2395.0876.1225-.1013.4082-.0144-.0409.095-.4392.1464-.4184.1798-.0866.1235.4472.1865.3733.3198.0799-.0072.3208.0084.3891.126-.0437.0951-.3207.078-.3965.0041-.0114-.0256.0118-.0339.0393-.029-.0165-.026-.0412-.0458-.0702-.0562-.0291-.0104-.0607-.0109-.09-.0013l.0851.0248c-.073.0393-.0243.1836-.1529.1328.0947.089.125.0504.1516-.0018-.0753.1172.0582.2091.0086.3341.0294-.0166.0974-.0257.0974-.0047-.0615.1852.1086.1024.1264.2375-.0823.0623-.1818-.0555-.1257.0864-.0546.0725-.1292-.0036-.1702-.0422.0939.1359-.0754.2135-.1072.2769l-.0257-.0678c.0129.0323.0126.0685-.0009.1006l.1051-.0187c-.0254.0331-.0357.063-.0755.0556.0524.0474.1697-.001.2346.0867-.0658.0388.0132.155-.1397.1457.106-.1267-.1027-.0284-.1102-.1118-.0027.0133-.0082.0259-.0163.0369-.008.011-.0183.0201-.0303.0266-.0031.0008-.0064.0008-.0096.0002-.0032-.0007-.0062-.002-.0088-.0039-.0026-.002-.0048-.0044-.0064-.0073-.0015-.0028-.0025-.006-.0027-.0092-.2254.1102.1198.0897.0407.2314-.0329-.0133-.0686-.0179-.1038-.0135s-.0686.0177-.0972.0387c.0588-.0518.1772.0018.2187.067-.1479.073-.008.1071-.0467.1524l.0759-.0458c.0999.0386.0621.0819.0682.1529-.0374-.0048-.052-.0158-.0578-.0269.071.0874-.3648.0938-.2778.2075-.1332.024-.2843-.0502-.3884-.0269.1147.1422-.3345.0634-.2642.2021.2717.0186.2065-.0013.3875.1242-.0145-.07-.0229-.1411-.025-.2125l.2489.183c.0336-.0564-.0698-.1467-.0092-.1724.1402.0913.0958.0762.2887.0839-.3799.0111.1367.1994-.1437.2432l-.6252-.1303c-.389.0675.182.3012-.0374.4485l.1387-.0323c.27.0838.006.121.1083.2061-.1555-.0363-.3153-.0511-.4748-.0441.1739.0352-.0343.133.4259.2539l-.3128.0161c-.1245.1272.6212.3215.5288.4533-.2311-.1001-.3819-.0668-.5545-.2081.0005.0504-.0354.0871.1116.1225-.1276-.001.2813.207.0838.2066.0883.0425.2967.0998.274.1517-.033-.0046-.0654-.0125-.0968-.0237.0972.0237.1224.1196.3418.1229-.5775.0154-.0138.4393-.4071.4772.0585.1267.1093.2568.1523.3896l-.0265-.0116.0199.0541.0079.0248c.0656.0591.1529.0911.1087.191-.0539.0603-.0488-.0693-.0662-.0595l.0516.1547.0084-.0286c.0172-.0445.0498-.0813.0919-.1036.0421-.0224.0909-.0287.1373-.0179.0133.0027.0256.0089.0359.0178.0102.0089.018.0203.0225.0331.1156-.0634.2365-.1168.3611-.1596.0254-.1492.0947-.2874.1991-.397.0451-.0429.097-.0781.1535-.1042.0082-.0379.0267-.0729.0535-.101s.0608-.0482.0983-.0582l.6264-.2219c-.0401-.0136-.0813-.024-.123-.0311.589-.0049-.0359-.294.2261-.3325l-.0184-.047c-.0307-.0812.0453-.1391.1657-.1687-.1201-.2278-.2735-.4503-.3765-.6559.4992.1119.0772.286.6198.3906-.2532-.2891-.6848-.5098-.6536-.7312.0367-.0518.1943.072.2809.1095-.2626-.283-.1859-.4823-.4403-.7322.0356.0137.0681.0343.0957.0607-.0273-.0451-.0048-.0939-.1236-.1111l.0494.048c-.174.0313-.411-.2327-.4737-.2505.3117.123.0699-.1857.4451-.0125-.0355-.043-.0862-.0709-.1415-.0779.0142-.0362.0465-.0429.1283.0108-.0844-.1571-.165-.1204-.1635-.2485.0413.0074.057.036.1066.0578-.0846-.0796-.1564-.1568-.107-.2568.0228.0103.0558.0031.0504.0346.0215-.1831-.1491-.3405-.0043-.5214.1838.0882.091-.0553.2814-.0375l.0095-.1087-.1219.026c.0595-.0875-.0663-.1906.0448-.2571l.0618.0804.0456-.174-.1425.0818c-.0891-.1096-.315-.0343-.209-.1464.0214.0288.0232-.092.2142-.116l.0006.0004c-.0721-.0573-.1648-.1181-.0657-.1756.1109-.0038.3514.0612.4249.0589-.2516-.0799.0454-.2203-.2668-.319.1015.0299.2062.0478.3119.0534l-.2427-.0697c.0976-.0331.2031-.0354.302-.0065.1044-.1217-.514-.0204-.2431-.1462.0183.0146.0619.0139.0939.0438.1842-.1383-.0951-.3194.0883-.4453.4705.0082.0763.1372.4711.1314-.0034-.2158-.437-.4877-.2828-.6769l-.0634.0321c-.7091-.0962.384-.1159.0681-.2499.1043.0301.2115.0487.3198.0556.1507-.128-.1145-.3003-.3383-.53l.1942.0418c.1851-.0684.1213-.2094.2124-.2926-.1418-.0592-.295-.0861-.4485-.0787 1.0937-.2042-.5707-.5583.2717-.7518.0057.0295.1656.0785.1624.0551l-.1954-.2185c-.1318-.0017-.2631.0157-.39.0516-.1742-.0348-.3052-.0988-.3043-.1494.1961.0637.4081.059.6012-.0133-.0842.0029-.1797-.0152-.2657-.0156.4731-.087-.5514-.0423-.2327-.1746l.1382.0134c-.0771-.0581-.2535-.1151-.216-.1725.2833-.014.1365.0633.3777.0763-.0405-.0855-.5427-.1832-.28-.2492.0788.0378.0861.0887.1667.1269.3135-.0711.2192-.0843.2482-.1445l-.0047.0059c.0278-.0448.0525-.0915.074-.1396l-.0611.0343c-.6412-.1222-.1857-.2176-.5498-.3653.3276.1423.1848.0264.399.041.0477-.0348.0842-.0889.1489-.0721-.0221-.0066-.0429-.0171-.0614-.0309-.0627-.0093-.1224-.0332-.1741-.0699-.0518-.0366-.0942-.085-.1237-.1411-.0847-.1649-.1934-.3197-.2398-.4254-.0203.0232-.0442.0429-.0709.0583z"/><path d="m11.8998 35.1713-.0098.0039.0591-.0053z"/><path d="m13.2195 34.0254c.0286-.0003.057-.0046.0844-.0127-.0285.0014-.0568.0056-.0844.0127z"/><path d="m13.156 33.4858.0646-.0747c-.027.0196-.0491.0452-.0646.0747z"/><path d="m13.1044 33.0716-.091-.0101-.0011.0008z"/><path d="m12.588 39.6035.0156.0189c.0527.0473.0267.0169-.0156-.0189z"/><path d="m12.5385 37.624c.0288.0202.054.0451.0744.0737.0327-.0307.0512-.0556-.0744-.0737z"/><path d="m12.5694 37.7832c.0549-.0275.0595-.0564.0434-.0859-.0285.025-.0612.0544-.0434.0859z"/><path d="m12.3329 32.6801.0774-.1355c-.0412.0235-.114.0541-.0884-.0075-.2124.1695.0997-.0345.011.143z"/><path d="m12.0809 33.0965c-.0091-.0729-.1167-.0017-.1632-.0066.0511.047.0706.0587.1632.0066z"/><path d="m11.5735 36.0886-.3347-.0407c.0523.0606.1291.0135.3347.0407z"/><path d="m13.1297 36.8451.2052-.0336-.2687-.0576z"/><path d="m11.1097 36.9541-.0472-.0303.1271.109z"/><path d="m11.3664 39.793-.0551.0302c.021-.0042.0402-.0148.0551-.0302z"/><path d="m10.9587 37.4311c.0074.0081.0167.0142.0269.018.0103.0038.0213.005.0321.0037-.022-.0151-.0412-.0274-.059-.0217z"/><path d="m10.9869 37.0176-.0022.0234c.011-.0099.0155-.0192.0022-.0234z"/><path d="m11.3657 39.7932.1435-.0774c-.1563.0099-.1119.0432-.1435.0774z"/><path d="m11.7094 40.8213-.0019.0197.1624.0013z"/><path d="m11.5548 41.6475c-.1063-.0135-.2138-.0143-.3203-.0024.0968.0014.1397.0111.1536.0259z"/><path d="m11.8522 40.2265.1412-.0204z"/><path d="m11.0485 36.2617-.0037.0036c.0059.0184.0079.0075.0037-.0036z"/><path d="m11.6781 34.4756-.1451.031c.0491-.0062.0977-.0166.1451-.031z"/><path d="m10.9146 35.8328.036-.034c-.0146.0082-.027.0199-.036.034z"/><path d="m11.0292 33.8664c.0171-.0191.0558-.0286.0076-.048l-.0335.0103c.0432.0047.0668.014.0259.0377z"/><path d="m11.0652 42.4928c.0116-.0164.025-.0315.0399-.0449l-.0406-.0068c.0029-.0185.0114-.0555.0453-.0519-.0535-.0631-.0369.015-.0949-.0192.1007-.0972-.0924-.234.1632-.2774-.1278-.0198-.0959.093-.1867.0074.304-.0547-.0596-.1031.0848-.1967.1873.0074.0728.0941.25-.0026-.3131-.0197.0993-.1656.0621-.23-.2995.0244-.105-.1377-.2072-.242.1212-.0039.2144-.2337.3856-.3553l.069-.0032c-.4138.0176-.3306-.0992-.423-.1702.1619-.0261.3274-.0208.4872.0157l.0077-.0754c-.0939.0095-.1881-.0133-.2672-.0648l.3423-.0127c.0004-.0995-.3941-.164-.145-.3148-.3942.091-.8005.117-1.2031.0771.1949-.0326.3929-.0423.5901-.0289-.0254-.0093-.1598-.0267-.0807-.0573l.3206.0246c.1383-.071-.2664-.006-.2398-.055.2717-.0241.193-.0522.4098-.0655.0261.0095-.1122.0509-.0059.059.1228-.0957.2691-.1565.4235-.176-.1346.0284-.2737.0281-.4083-.0009-.0225-.0973.335-.0647.4802-.1361-.1941-.0062.0068-.0882-.416-.0509.0009-.0292.1984-.0528.3129-.0745-.187-.0343-.0694-.234-.5185-.1347l-.0287.0158-.0195-.0066c-.4364-.1285.2009-.3689-.0073-.5171l.1376-.0124c-.1739-.0839-.1337-.21-.4269-.2544.1176-.064.25-.0959.3839-.0924-.1141-.0658-.2546-.0615-.0686-.1889.2355.0551.1878-.0437.1783.0623.088-.1073.2734-.1468-.0859-.2203.3213.0067.3716-.1089.2623-.146l-.1986.0878c-.0206-.0169-.035-.0403-.0407-.0663-.0058-.0261-.0026-.0533.009-.0773l.4007-.0114c.195-.1194-.0432-.1891-.2371-.2567-.1958-.0675-.3085-.1366-.0305-.2394-.2523-.0305-.0984.1193-.3959.0986.0202-.0952.3986-.2273.3712-.254.0586-.1334-.4774-.0755-.4348-.2133-.0763.0241-.3146.0622-.4074-.0293.0211-.0955.2948-.142.3852-.0913.017.0208-.0038.0336-.0317.0351.0228.0204.0514.033.0817.0361.0304.0031.0609-.0035.0873-.0188l-.0884-.0039c.0622-.0521-.0177-.1734.1189-.1558-.1123-.0602-.1332-.0179-.1472.0357.0464-.1241-.1025-.1779-.0846-.3029-.0246.0219-.0883.0458-.0935.0268.0151-.1824-.1302-.0678-.1798-.1858.0649-.0757.1896.0075.101-.1078.0356-.0786.1261-.0276.1752-.0021-.1237-.1011.0218-.2122.0372-.2778l.0413.0554c-.01-.0129-.0172-.0277-.0213-.0434-.004-.0158-.0047-.0323-.0021-.0484l-.0974.0428c.017-.0364.0186-.066.0591-.0691-.0628-.03-.1638.0426-.2489-.0208.0534-.0512-.0527-.1363.0974-.1662-.0699.1411.1066 0 .1353.0739-.0008-.013.0013-.026.0062-.038.005-.012.0126-.0227.0223-.0313.0028-.0015.0059-.0024.0091-.0027.0032-.0002.0064.0002.0094.0013s.0057.0028.008.005c.0023.0023.0041.0049.0053.0079.1892-.157-.1388-.0514-.099-.1997.035.0039.0704-.0009.1031-.0139.0328-.0129.0618-.0337.0847-.0605-.0435.0623-.1717.0437-.2286-.0046.1239-.1041-.0197-.0989.0058-.1499l-.0613.0611c-.1061-.009-.0812-.0577-.1067-.1199.0374-.0055.0542.0006.063.0091-.0922-.0597.325-.1808.2102-.2609.1214-.0576.287-.0309.3807-.0802-.1493-.0985.3041-.1494.1982-.2576-.2661.0584-.1979.0581-.4063-.0058.0332.0594.0607.1218.0823.1863l-.2893-.0978c-.0167.06.1073.1136.0562.1533-.1598-.0446-.1129-.0428-.3005.0024.3617-.1133-.1851-.1416.0709-.2577l.636-.0557c.3525-.1715-.2619-.2231-.0949-.419l-.1233.0693c-.2824.0018-.0409-.1077-.1635-.155.1592-.0123.3161-.0456.4666-.099-.1759.0192-.0084-.1314-.4832-.1041l.2927-.1076c.0792-.1531-.6899-.103-.6423-.2476.2505.0192.3836-.0568.591.0181-.0158-.0454.007-.0896-.1436-.0764.1215-.0386-.3307-.0994-.1443-.1596-.0972-.0108-.3131.0026-.3083-.0504.0327-.0061.0659-.0091.0991-.0089-.0996.0089-.1545-.0681-.3632-.003.541-.1939-.1277-.3913.2302-.5497-.0974-.0921-.1895-.1899-.2756-.2927l.0288.0015-.037-.0408-.0159-.0191c-.0818-.03-.1747-.0288-.1669-.1303.0302-.0706.0694.044.0824.0297l-.101-.1174.0019.0277c-.0026.046-.0216.0896-.0536.1229-.0319.0333-.0747.054-.1206.0585-.01313.002-.02654.0009-.03909-.0034-.01254-.0043-.02385-.0117-.03292-.0213-.08761.0931-.18314.1785-.28553.2551.02729.1372.0077.2796-.05564.4044-.02944.0517-.06725.0981-.1119.1374.00397.0362-.00268.0728-.01914.1054-.01646.0325-.04201.0596-.07356.0778l-.52415.3767c.04236-.0002.08464-.0035.12653-.0098-.55914.1766.12332.2398-.11452.3489l.03178.0347c.05375.0605-.00088.1315-.10705.1905.18014.1601.39088.3088.54861.4587-.51025.0391-.15612-.2254-.70544-.1656.32439.1759.80372.2505.83261.4518-.02124.0548-.2065-.011-.29979-.0202.32864.1753.31033.3688.62095.5231-.0374-.0029-.07394-.0127-.10778-.0289.03778.0325.02855.0811.14763.0661l-.0599-.0296c.15992-.0723.4565.1012.5215.1016-.33244-.0306-.0201.1825-.42675.1227.04659.0295.10213.0414.15665.0336-.0043.0356-.03393.0495-.12663.0223.12173.1179.19023.0658.22143.1799-.0417.0034-.0643-.0181-.1177-.0253.102.0498.1918.1011.1675.2022-.0248-.0037-.0549.0105-.0573-.0188.023.1677.2263.2686.1291.4637-.1997-.0365-.075.0703-.26409.0975l.01508.0988.11281-.0506c-.0383.0912.1073.1554.0139.2394l-.0782-.058-.0056.1649.1205-.1041c.1115.0785.3146-.0384.2364.0855-.0274-.0212-.0019.0879-.1828.1502l-.0007-.0002c.083.0358.1874.0708.1022.1435-.1076.0268-.35603.0192-.42735.0367.26245.0187.0012.2053.32685.2296-.1056-.006-.2116-.0006-.31616.016l.25176.0128c-.0897.0497-.19168.073-.29407.067-.0769.1293.50717-.0854.26797.0816-.0208-.0095-.0634-.0001-.1008-.0204-.15065.1596.157.267.0012.4153-.46305.082-.10087-.1077-.48705-.027.04306.1891.52385.3515.40347.5494l.05683-.0401c.71425-.0397-.35764.172-.02343.2358-.10805-.0088-.21672-.0069-.32439.0057-.12682.1396.16636.2463.42217.4166l-.1981-.0058c-.17193.0912-.08655.2065-.16344.295.15009.0308.30484.031.45504.0006-1.04744.3474.6452.4196-.1595.7164-.00994-.0257-.17518-.0473-.1687-.0267l.2225.1693c.1305-.016.2583-.0495.3799-.0997.1772.0078.315.0487.3204.0952-.2028-.0317-.4104.0006-.594.0922.0832-.0139.1799-.0101.2653-.0211-.4579.1413.5517-.0341.2527.1287l-.1387.0056c.0838.043.2659.0729.2361.1303-.2793.0483-.1436-.0408-.3843-.0221.0508.0721.5621.0997.308.1925-.0825-.025-.0951-.0707-.1802-.0955-.3019.1034-.2079.1035-.2297.1617l.0039-.0058c-.0225.0436-.0419.0888-.058.1352l.0568-.0383c.6501.0362.2084.1763.5866.2709-.3414-.0944-.1866-.0036-.401.0064-.0437.0371-.074.0901-.1402.0818.0225.0036.0443.0108.0643.0215.0616.0007.1222.0156.1771.0436.0548.0279.1025.0682.1393.1176.0995.1423.2224.2745.2787.3678.0182-.0237.0401-.0442.0649-.0607z"/><path d="m11.3028 39.8285.0088-.0053-.0574.0146z"/><path d="m10.1642 41.0723c-.0282.004-.0558.0116-.082.0226.0279-.005.0554-.0125.082-.0226z"/><path d="m10.2931 41.5537-.0559.0754c.0243-.0204.0434-.0462.0559-.0754z"/><path d="m10.3901 41.9207.0917-.0009.0008-.0009z"/><path d="m9.68776 35.9713-.02026-.0129c-.06531-.0285-.03073-.0082.02026.0129z"/><path d="m10.2108 37.7149c-.0322-.0117-.0623-.0285-.089-.0499-.025.0345-.0374.0606.089.0499z"/><path d="m10.1453 37.5791c-.0474.0366-.0455.0632-.0232.0862.0223-.0285.0475-.0619.0232-.0862z"/><path d="m11.1954 42.2012-.0643.1334c.039-.0259.1085-.0616.0889-.0018.1951-.1787-.0959.042-.0246-.1316z"/><path d="m11.4036 41.7858c.0171.0669.1161-.0115.1627-.0122-.056-.0383-.0768-.0469-.1627.0122z"/><path d="m11.4656 38.9219.3364-.024c-.0633-.047-.1293.0114-.3364.024z"/><path d="m9.79335 38.5293-.19435.0696.27354-.0012z"/><path d="m11.749 38.0281.0515.018-.1463-.0744z"/></g></svg>
