<svg alt="twinkle" fill="none" height="54" viewBox="0 0 54 54" width="54" xmlns="http://www.w3.org/2000/svg" xmlns:xlink="http://www.w3.org/1999/xlink"><clipPath id="a"><path d="m11 10h33v34h-33z"/></clipPath><g clip-path="url(#a)" fill="#8a2432"><path d="m43.5002 27.6947c.0096-.0145-.0039-.0434-.0341-.0221l-.0103.0659z"/><path d="m43.2591 27.6652c-.0201.0339-.0315.0722-.0332.1115-.0016.0394.0064.0786.0236.114.0149-.1095.0312-.0811.0501-.1902.0056-.0043.0124-.0069.0194-.0075.0071-.0007.0142.0006.0206.0037.0064.003.0118.0078.0156.0138.0039.0059.006.0128.0062.0199.0074-.022.0518-.0109.0604-.056-.0128-.0085-.0272-.014-.0424-.0161-.0151-.0022-.0305-.001-.0451.0036-.0146.0045-.028.0123-.0392.0226-.0113.0104-.02.0231-.0257.0373-.0164-.0143-.0096-.0408-.0103-.0566z"/><path d="m39.8535 28.0713.0391.041c-.0089-.0171-.0225-.0313-.0391-.041z"/><path d="m37.7338 28.5522c.0096-.0175-.006-.066-.0256-.1079-.0018.0377.0071.0751.0256.1079z"/><path d="m37.143 28.1972.0359.0221c-.0291-.039-.0487-.0589-.0359-.0221z"/><path d="m39.8536 28.0712-.1034-.1103c.0462.1308.0654.0889.1034.1103z"/><path d="m42.9011 28.1307c.0091-.0169.0149-.0354.0171-.0545l-.021.0307z"/><path d="m40.6675 27.564.0175-.003-.032-.1391z"/><path d="m41.382 27.4277c.0147.1158.0402.23.076.3411-.0182-.0553-.0238-.114-.0163-.1717z"/><path d="m42.6194 27.6545.0149-.0217z"/><path d="m40.1275 27.5934-.0473-.111z"/><path d="m31.3677 43.2201-.0263-.0013c.0085.0027.0176.0032.0263.0013z"/><path d="m30.6201 43.9926-.0015-.0117-.0247-.0043z"/><path d="m36.2633 28.0172.0068.0059c-.0075-.0531-.0125-.0402-.0068-.0059z"/><path d="m32.0065 32.9597c.1531.0375.0856.2264.2707.2442-.0544-.0324-.1499-.2592-.2707-.2442z"/><path d="m42.8813 28.125-.0245.0175c.0052-.0009.01-.0029.0143-.006.0042-.003.0077-.0069.0102-.0115z"/><path d="m32.2772 33.2041.0011.0009.0185.0014z"/><path d="m35.0691 29.167.1073.1417c-.0325-.0497-.0683-.097-.1073-.1417z"/><path d="m36.341 29.0034-.0529-.0356c.0291.0285.0437.0355.0529.0356z"/><path d="m34.8933 30.0249c-.0288-.0152-.0626-.0567-.0504.0005l.0312.0354c-.0231-.0491-.0291-.0766.0192-.0359z"/><path d="m34.4048 30.4219.0515.0541.0039-.0291z"/><path d="m32.0442 41.4326-.2788.0129c.217.0023.2636.0929.2788-.0129z"/><path d="m42.8838 28.0615c.0055.0208.0046.0428-.0025.0631l.0161-.0179c-.0015-.0158-.0061-.0311-.0136-.0452z"/><path d="m36.5642 32.6083-.1127-.0116c.0169.0099.0357.016.0551.018s.0391-.0002.0576-.0064z"/><path d="m32.0804 37.1777.0374.0237c.0039-.0074-.0061-.0154-.0374-.0237z"/><path d="m36.242 32.7508c-.0578-.0708-.1222-.1358-.1926-.1942l.0455.0847z"/><path d="m32.2094 42.098c.0458-.0884-.3202-.0598-.5113-.0892-.0682-.112.2721-.0357.4665-.0622-.065-.0712-.3816-.14-.3535-.189.0532-.0055.1069-.0034.1595.0065-.2743-.0862.0582-.2094-.3091-.3123l.1005-.0056c-.201.0028-.4014-.0058-.5435-.0161.0003-.0408-.2416-.0885.0223-.0897-.0113.0243.0938.032.1727.0479l-.1059-.0483c.3845-.0179.1198.0646.3951.0793-.0973-.0884-.4047-.2018-.2856-.2592.383.0071.0998.1545.4515.0881l-.1634.09c.6033-.0433-.0558.0569.5873.0219.1482-.1219-.1506-.1532-.0036-.2749-.2078-.0402-.3204-.0074-.5301-.0477-.3602-.2033 1.0268-.0902.5273-.2521-.2601-.0489-.7727-.0898-.485-.1708l.4559.0571c.0742-.1218-.6548-.1067-.3173-.2203.1812.0331.1372.1061.1965.0902.3876-.0646-.2533-.0738-.2448-.1389l.422.0089c-.0401-.136-.3265-.2986-.3894-.4502.1305.0281.2646.0348.3972.0201-.1925-.1972.1031-.3935.3852-.5588l-.3773-.089c.0819-.0188.1672-.0185.249.001.151-.0623-.2437-.0167-.3922-.0584-.0242-.0412.2245-.0408.3382-.0094-.3183-.1409-.6853-.3898-.2828-.4989l.1137.0315c.1489-.0938-.7781-.1562-.4306-.2321l.0671.0217c.1436-.2127-.1918-.4768.291-.6134-.4917-.0606.1624-.2009-.496-.2556.2995-.1016.4282-.0601.5784-.214.0107-.0427-.399-.097-.4697-.1581l.3052.024-.3357-.1031.3435-.0086-.0905-.0587c-.0646.0266-.1354.0338-.204.0207-.1439-.0945.1535-.1797.2882-.1651l-.2704-.2164c.0773.017.1515.0462.2196.0866-.2882-.1336.2629.0165-.0015-.1063-.068-.0049-.1352-.0169-.2007-.0357.1407-.0263.1101-.1295.0362-.2169l.1595.0404c-.0035-.1316-.1488-.3058-.1719-.4642-.0473.0432-.2761-.0202-.2971-.0725l.1901.0267c-.119-.0582-.0703.0316-.2156-.0648.0227-.0546.2078.0122.2753.0609l-.07-.0872c.0519.0156.1029.0341.1528.0553-.1119-.0584.167-.0723-.0216-.1649l.0504.0105c-.0205-.1193-.0342-.2397-.0409-.3607-.1271-.0491-.0891-.086-.1794-.1611.0597-.0769.1883-.1323.2143-.2404-.0281-.0987-.0871-.0657-.1407-.1304.1033.0423.1428-.062.19.0255.0418-.113.063-.2324.0626-.3528-.0497-.0072-.0786.0012-.1062-.0271.0007-.0365.0792-.0379.124-.0064l.0057.0128c-.0505-.2661.5514-.1672.4544-.412l.0046.0138.0007-.1964c.0718-.0371.0466.0903.1521.1029-.0494-.255.2409-.1471.2352-.3325.4409.2443.3038-.2438.6893-.0736l-.1017-.088c-.0557-.1068.0974.0326.1468.044-.0778-.0722-.1244-.0669-.1539-.1283.1731-.2819.7746-.1362 1.2297-.0705.1567.0126-.5503-.7717-.1161-.4791l.1851.2966c-.0459-.4409.4953-.1475.4707-.5767.043.0826.1155.1818.0928.19.2238.2206.1833-.0592.0376-.2656.0508.006.1397.1786.2349.2717.1528.1276-.1112-.3749.092-.1358.0255.0326.0428.0709.0504.1116-.0564-.1366.1645-.0323-.0728-.3154.1812.102.0626-.2139.2512-.0676-.1919-.3649.254.0999-.0647-.3986.3376.5109.4218.3468.3113.0747.0867.1661.1531.1425.2771.3715.0547-.0333.0448-.1563-.1432-.4248.5237.5931-.1123-.6267.4814.182-.0195-.2949.0165-.5909.1063-.8725.3403.5816-.1425.1404.2277.7363.0092-.295-.2-.8398.0323-.773.0857.0625.1279.2681.1738.3744.0071-.3168.3212-.0754.2668-.4718.0292.0567.0508.117.0643.1793.0149-.0325.1105.0609-.0469-.2165l.0164.0881c-.1952-.3555-.3546-.7295-.4761-1.1164.3958.8255.243.1307.7269 1.1842-.038-.1377-.0949-.2695-.1691-.3915.0993.1065.1724.2348.2131.3746.0104-.1983-.1843-.4825-.0955-.5192.0727.1373.0838.1989.1613.3642-.1002-.2878-.1986-.5788-.0654-.5002.0391.0852.1041.1888.0821.1978.0984-.1041-.1624-.8301.1094-.6398.2629.6214.146.1737.4136.6891l-.0068-.1937-.1542-.2365c.0671-.0252-.0626-.4337.076-.2935l.0576.2393.0696-.1641-.1624-.1589c-.0646-.302-.3261-.6514-.168-.5527.0074.0624.0696-.0282.2494.2591l.0003.0015c-.0458-.1805-.0927-.3687.0167-.2659.0896.1576.2566.5727.3158.6774-.1698-.4452.0932-.2001-.0749-.674.0534.1479.1157.2924.1865.4329l-.1318-.3593c.0888.1067.1571.2288.2014.3604.1173.0135-.3211-.6271-.0881-.4074.0152.0467.0277.0944.0373.1426.1699.0829.1148-.3214.2878-.2074.2448.4812-.0323.1683.1844.571.0938-.1736.0352-.7541.2256-.7064l-.0483-.0403c-.2591-.685.2426.2826.1819-.0719.0254.1042.0595.2061.1019.3046.1358.0547.1226-.2715.1933-.5421l.0455.1729c.113.1182.1794.0059.2668.0459-.01-.1317-.0454-.2603-.1041-.3787.5077.7757.2025-.6307.625-.0053-.0199.0113-.0043.1501.0121.1425l.0966-.2054c-.0404-.1085-.0949-.2112-.162-.3055-.0299-.15-.0238-.2749.0145-.288.0161.1797.0854.3505.199.4907l-.0718-.2228c.2136.3735-.1414-.4679.0582-.2351l.0331.12c.0199-.0768.0081-.2426.0636-.2242.0994.2447-.0054.1333.0604.3442.0526-.0454-.032-.5191.1027-.2941-.0047.0774-.0416.0931-.0452.1724.1525.2651.1339.1852.1915.2098l-.006-.0043.1375.0742-.0483-.0614c-.1144-.6411.1148-.1864.1037-.6032.0046.3887.0451.2109.1109.4588.0547.0489.0946.1123.1151.1828-.0114-.2186.1176.0989.102-.2119.0241.0714.0508-.0213.0927.1652.0419-.0945-.0494-.1151-.0711-.2099.0285-.2788.2928.1494.3429-.228.0849-.1786.0597-.3695.156-.4827.0593.0668.0152.1929.0152.1929.0811.0496.1212.0098.1667-.0637.0014.0418.0183.0816.0476.1115.0419-.0361-.0078-.168.0686-.1333.0033.0622.0017.1246-.0047.1865.0356-.0778.0781-.1522.1269-.2225.0291.0533-.0114.1081-.0203.1625.0537-.0656.1461-.1453.1471-.2327l-.0483-.0148c.0227-.012.0291.0677.016.092-.0369.0971-.0849.0059-.097-.0299l.0355-.0369c-.0913-.1889-.1598.08-.2398.1157l-.0103-.1913-.0476.179c-.0302-.0425-.0714-.1509-.0359-.1878-.0867-.0854-.0362.0827-.1183-.0187-.0041-.005-.0069-.0109-.0081-.0173-.0011-.0063-.0007-.0129.0013-.019l-.0447.0733c0-.0474-.0501-.1518-.0039-.1245-.1471-.1235-.1329.1953-.2231.0199l.0053-.016c-.1308.1048.033.1802-.0156.436l-.2107-.4719.0415.2053c-.0177-.0039-.0526-.013-.0703-.0972-.0181.1539.0352.0879.0398.2306-.1301-.1784-.1738.1516-.2967-.2089.0245.1816.1102.1181.0668.2591-.14-.3951-.0707.092-.1936-.0789-.0444-.2225.0575-.1149-.0707-.2985.0682.375-.1624-.0635-.2018.0148.0931.3116-.0871.1549-.1507.2838-.0288-.1112-.243-.1451-.3801-.2608l-.0171-.06c.1006.361-.0149.3162-.0568.4092-.0558-.1332-.085-.276-.086-.4203l-.0661.0114c.0268.0788.0266.1644-.0007.2431l-.081-.2878c-.0849.0282-.0572.3765-.2384.2034.0952.2836.357.7445.3155.9718-.0681-.153-.1176-.3135-.1475-.4782-.0029.0226.0107.1363-.032.0776l-.0458-.2679c-.0895-.0989.0501.2195.0032.208-.0775-.2178-.0849-.1468-.1418-.3218.0025-.0235.0668.0803.0515-.0083-.1068-.0786-.19-.1849-.2405-.3075.053.1039.0824.2182.086.3348-.0796.0382-.1279-.2608-.2217-.3657.0366.1608-.0807.0092.0451.3499-.026.0047-.0902-.1536-.135-.2441.011.1604-.1958.0893-.0025.4504l.0206.0214-.0015.0174.0004-.0001-.0004.0001c-.0053.3941-.3727-.1085-.4551.0879l-.0497-.1238c-.027.1679-.1549.1423-.1006.436-.0945-.1058-.1651-.2307-.2071-.3662-.0245.1176.0305.2655-.1521.0861-.0309-.2469-.1073-.1915-.0032-.1871-.1307-.0819-.2419-.2856-.179.0999-.1126-.3429-.2476-.4008-.2451-.288l.1648.221c-.0241.0638-.0763.0472-.1293.0325l-.1735-.4512c-.4285-.4945.1047 1.0378-.4477.167.1016.3352.1975.1885.3276.5749-.1041-.029-.4932-.6528-.5205-.6458-.2324-.2144.2142.7074.0206.5807.1509.2393.2566.5043.3116.7818-.2066-.2302-.3585-.5042-.4442-.8014.0121-.0219.0462.0266.0725.0825-.003-.1175-.0461-.2305-.1222-.3202l.0696.1687c-.1201-.1516-.2199-.0876-.3272-.3686.0047.0685.0244.1352.0577.1953.0334.0601.0795.1121.1352.1523-.2178-.1951-.1595.0619-.3425-.0522.0662.0838.1193.177.1578.2765-.2523-.1351.0927.3433.0316.4638-.1844-.2232-.2881-.6111-.2793-.3495-.1371-.1687-.2342-.3663-.2838-.578.0721.3648-.2821-.1198-.367-.1488l-.0207-.1588c.0121.0945-.0131.105-.038.1175l.2015.3134c-.0714-.0337-.1271-.0935-.1556-.167.0852.2306.3119.5338.4114.858-.1261-.1462-.0156.2387-.2622-.187.1961.0825-.248-.4279-.1855-.5534.0082.0625-.0163.0736-.0757.0322-.0243-.0368-.0413-.0779-.0501-.1212-.3233-.3212.2125.5189.0932.5766-.1183-.2514-.2789-.443-.2692-.3794.049-.0242.244.3904.3048.6004-.1766-.1436-.0011.1877-.0508.1884l.092.0616c.1193.2492.0664.2389.0593.3439-.1091-.1834-.0273-.1554-.0909-.2266.1819.4519-.3695-.356-.2867-.0259-.1276-.1369-.258-.4406-.3517-.528.0909.3634-.2782-.2535-.2217.0614.1407.1597.2385.3525.2842.5603l.017-.3209.1723.5189c.0462-.0243-.0223-.2588.0349-.2235.0429.1668.1236.3215.2359.452-.3336-.4305.0415.3488-.2128.0775l-.4513-.7666c-.3056-.2602.0487.5221-.1982.4287l.1215.0975c.162.3068-.0565.1005-.0263.2502-.098-.1629-.2127-.3153-.3421-.4547.1147.1784-.1059.0599.1851.5498l-.258-.2717c-.1865-.0436.3106.7655.1581.7562-.1363-.1996-.2493-.4141-.3368-.6394-.0355.0236-.0924.0065.0114.1673-.1134-.128.1112.384-.0622.1897.0519.1115.205.3535.1553.3625-.0272-.0357-.052-.0731-.0742-.112.056.1531.1377.2956.2415.4215-.5706-.6224-.2544.2538-.7404-.2567-.0125.1186-.0505.2331-.1112.3357-.0401-.0656-.0735-.1037-.0462-.0922-.2249-.1176.3688.6369.1148.5007-.2885-.2869-.075-.2203-.1969-.3191-.4967-.6569-.0529.1951-.3975-.1262l-.0125-.0534c-.2107-.1679.0586.3587-.0529.3926-.0212-.0328-.0447-.064-.0704-.0935.1263.2156.1775.4668.1457.7145-.0628-.1363-.1489-.2606-.2544-.3673-.0082.0663.3003.3598.2814.4844-.1638-.111-.314-.2408-.4477-.3866l.0519-.0798c-.2778-.2722-.0717.0985-.1453.0822l-.102-.1348c-.0525.1596.2072.4743.0888.5605l.087.0795c.1958.3514-.1875-.1165-.0557.1587l-.2661-.2694c.0556.1717.0881.35.0966.5302-.0996-.1924-.1758-.3961-.227-.6065-.0327.0483-.0494.1057-.0478.164s.0214.1147.0567.1612c-.0093-.0421-.0516-.1297-.0015-.1056.1489.2643.1826.4233.1091.4949-.4327-.487-.286.0922-.6519-.167.0426.3101-.2533.2857-.3422.5121.3205.1782-.0248.0653.2665.302-.0107.0572-.0263.0686-.0472.0568l-.247-.0071c-.0963-.0312-.0359-.0938-.0987-.1404-.0736.0886-.1368-.0507-.2392-.0337.1009.0616.1201.1492.0526.1797l.1627.012c.0622.251-.2846-.0475-.222.2068l-.0565-.1074c.0135.1156-.1421.2843.0142.4882-.0345-.006-.1084-.0322-.1094-.0773-.119.1654-.0064.5132-.1937.5788l-.05-.0452c-.0008.0423.076.1149-.0018.125-.0224-.0149-.0505-.0444-.0615-.0308.0107.0288.0569.1413.0004.1667l-.0459-.0707c-.1702.1343.0231.3432-.0032.501-.0659-.0257-.138-.0306-.2068-.0142-.0688.0163-.131.0532-.1783.1058l-.0263-.0129c-.1492.1965-.0288.4114-.0224.6265-.3172.052-.3329.3752-.6154.5419.0469-.0041.0942.0017.1388.0168.0445.0151.0855.0392.1203.0709-.0895.0361.1762.1637-.1276.1092l.0131-.0157c-.3158-.0115-.2924.0993-.3371.1735l.4264.0692c-.7479.1195.0739.5362-.6232.5821.1119.0579.0867.1158.2071.1725l-.2959-.0241c-.1294.1251-.195.1891-.1809.3525l-.216-.0462c-.0636.0897.8907.167.8957.2496l-.5052-.0031c-.0295.1545-.5433.2821-.0899.4576-.0845.0002-.1683-.0151-.2473-.045-.027.0708-.4296.2563.3265.2704-.4871-.0242-.0721.1544.1403.2485l-.3623-.0322c.458.0943.5859.1033.7084.2075-.049.0205-.2938.0046-.1982-.021-.1961.0666.3418.0783.1428.1611l-.2316-.0472c-.0316.0777.0941.0781.3638.1361.1442.0575-.0974.1452-.4257.1395.2004.0213.4665.0789.3706.1206-.0802.0009-.1602-.0099-.2373-.032-.2469.1194.4157.2193.0618.2916-.071-.005-.1424-.0036-.2132.0041.0086-.1049.0284-.1887.0547-.1793-.2828.0263-.5679.017-.8484-.0278.2544.0818.793.2273.641.3022l-.1127.0049-.0369-.0105c-.032.0174-.0007.0362.0547.0553-.0529.0236-.0917.0384-.0956.0636-.2682-.0045-.1392.0901-.1485.1321.1929.0347.3894.0452.5848.0311-.0252.0054-.0423-.0102-.0579-.0392-.0106-.0095-.0232-.0163-.0369-.0201l.0309.0046c-.0124-.0346-.021-.0704-.0256-.1069.1815.0432.3311.0862.1364.1227l.5678.0895c-.491.032-.7486.1301-1.0432.13.2043.1405.1585.3137.7824.4284.0799.0411-.1769.0329-.2732.0416-.0633-.0247-.0551-.0495-.145-.0658.1613.0822.08.2225.5003.2624-.1851.0829-.3898-.0729-.3127.0587l-.129-.0241c-.6047.2188 1.0379.4633.2669.7004.0392-.0182.0821-.0271.1254-.0261-.2754.3025.3038.6698-.0675.963-.0601.0858.1094.1044.2373.1655l-.1979.0088.2412.1056c.1429.1393-.3691.2083-.0764.3906l.0906-.0167c-.0071.0595.0722.1935-.0213.1785.016.007.0846.0241.0473.0455l-.059-.0013c.0414.0485.0795.0996.1141.1531-.01.1135-.2015-.0286-.1322.1415.054.0647.1542.1843.1581.1612-.0039-.0251.0053-.0634.0352-.0637l.0145.0573c.081.0146.0974.0589.2519-.0716.004-.0323.0028-.065-.0035-.0969l.0778-.0271-.0515.0787c.0817-.0418.0621-.0722.044-.1059.0358-.0046.0703-.0166.1013-.0352-.0283-.0368-.0606-.0704-.0963-.1.0703-.0078.1012.048.173-.0119-.0522-.0473-.1638.0339-.1823-.0408.0956-.0411.1621-.0241.1145-.0809.0522-.0049.0781.008.0866.03-.0316-.0501.0455-.1255-.0561-.1559.1464-.0404.0366-.1613.264-.1444-.0444-.0176-.1418-.0927-.1357-.1367.2664.0953.0966-.1611.4448-.1211-.2636-.0741-.0171-.2178-.1698-.3323.0263.0073.0788.0218.0568.0301.0533-.0571.1705-.0682.259-.102-.3009-.0237-.3382-.1189-.5258-.1791.339-.0553.3663.064.6708.0572-.2601-.0102-.2064-.1385-.4434-.1261.1333-.0391.2718-.0577.4107-.0554-.4285-.0327-.0469-.0547-.3045-.115.2434-.0682.4264.0018.3194-.0931.0983-.0184.2.0001.2855.0521zm-.4054-2.1432.0071.0004.0153.0446zm.0131-.1776c-.0156.0223-.0233.0491-.022.0762-.1248-.0004-.2523-.014-.2445-.0314.0907.0002.1808-.0149.2665-.0448zm-2.4931.2444c-.0515-.031.0178-.0367.0902-.0367.0114.0199.0264.0375.0444.0517l.0434.0056z"/><path d="m29.7895 40.0965.0263.0131.0786-.0127-.1108-.0158z"/><path d="m39.8993 28.1189-.0067-.0066.0259.0453z"/><path d="m32.2717 37.3779-.0713-.0058.067.0189z"/><path d="m41.1969 28.833c.0092.0233.0211.0455.0355.066-.0098-.023-.0217-.0451-.0355-.066z"/><path d="m41.5895 28.7021.0806.0618c-.0227-.0254-.0501-.0464-.0806-.0618z"/><path d="m41.9113 28.6681-.0241-.1016-.0011-.0011z"/><path d="m37.7825 31.5342c-.0019.0072-.0022.0148-.001.0222.0167.0855.017.0485.001-.0222z"/><path d="m38.6139 29.9492c.0184.0676.0333.1361.0448.2053.0376.0172.0597.0158-.0448-.2053z"/><path d="m36.5772 32.6108-.0031-.0063-.0093.0047z"/><path d="m38.5947 30.1808c.0607.0651.0718.0375.064-.0264-.0313-.0155-.0733-.0431-.064.0264z"/><path d="m43.1587 27.9754.0145-.0043-.0014-.016z"/><path d="m43.1712 27.9556.0127-.0201c-.0039.0017-.0072.0044-.0095.008s-.0034.0078-.0032.0121z"/><path d="m43.2117 27.8945-.0277.0409c.0082-.0031.0153-.0087.0203-.016.0049-.0074.0075-.016.0074-.0249z"/><path d="m42.7661 28.1611.0085.053z"/><path d="m42.6553 28.2479c.0309-.003.0973.0689.1261.009l-.0067-.0425c.0024.0906-.1166-.0717-.1194.0335z"/><path d="m41.9163 27.6204.1279.0422c-.0405-.0719-.0963-.1735-.0494-.195-.2089-.2184.0775.1666-.0785.1528z"/><path d="m41.5291 27.5352c.049-.0472-.0401-.13-.0526-.1817-.0121.0319-.0135.0669-.004.0996.0095.0328.0294.0616.0566.0821z"/><path d="m39.0278 28.0712-.1325-.3319c-.0263.0613.0532.1281.1325.3319z"/><path d="m39.3473 29.9966.131.192-.1208-.3214z"/><path d="m37.9808 27.6485-.0029-.0567-.0189.1527z"/><path d="m34.3028 30.0772.2491.337c-.0178-.0825-.2807-.4786-.2491-.337z"/><path d="m33.1978 31.7456c-.1161-.1058-.2139-.1364-.135.0058.0402-.0189.1471.0419.135-.0058z"/><path d="m29.9928 36.672-.0698-.048.0407.08z"/><path d="m26.6985 43.9238c.0128.0102.043.0026.0287-.0266l-.0607-.0183z"/><path d="m26.772 43.7184c-.0283-.0226-.0616-.0382-.097-.0456-.0355-.0074-.0722-.0063-.1073.0031.0967.0298.0675.0398.1649.0724.0026.0059.0035.0125.0026.0189-.0008.0064-.0034.0125-.0075.0176-.004.005-.0094.0089-.0155.0112-.0061.0022-.0127.0028-.019.0015.0191.0097 0 .0466.0412.0607.0102-.0092.018-.0207.0228-.0336.0049-.0128.0066-.0266.005-.0403-.0016-.0136-.0065-.0266-.0141-.038-.0077-.0114-.018-.0208-.0301-.0274.016-.0118.0395-.0023.054-.0005z"/><path d="m27.1386 40.7266-.0494.0255c.0184-.0041.0354-.0129.0494-.0255z"/><path d="m27.2203 38.7973c.0362.01.0745.0093.1102-.0021-.0363-.0088-.0742-.0081-.1102.0021z"/><path d="m27.7121 38.3388-.0306.0279c.0451-.0187.0693-.0325.0306-.0279z"/><path d="m27.1387 40.7269.1325-.0667c-.1382.0139-.1023.0386-.1325.0667z"/><path d="m26.3907 43.335c.015.0106.0317.0186.0494.0235l-.0259-.0233z"/><path d="m27.4268 41.5195-.0018.0154.1422-.0009z"/><path d="m27.3756 42.1534c-.1138-.0086-.2281-.0079-.3418.0023.0563-.0056.1131.0005.167.0177z"/><path d="m26.9014 43.1689.0177.0164z"/><path d="m27.532 41.0542.119-.019z"/><path d="m14.8608 32.2317.0007-.0256c-.0022.0083-.0025.0171-.0007.0256z"/><path d="m14.171 31.5252.0102-.0029.0029-.0233z"/><path d="m28.0937 37.5723-.0072.0051c.053.0028.0421-.0042.0072-.0051z"/><path d="m23.7932 33.2529c-.0412.1505-.2149.1014-.2388.2812.032-.055.248-.1664.2388-.2812z"/><path d="m26.4 43.3183-.0124-.0244c-.0001.0048.001.0095.0032.0138.0021.0042.0053.0079.0092.0106z"/><path d="m23.5545 33.5342-.0011.001-.0021.0178z"/><path d="m27.2193 36.2588-.1581.0822c.0543-.0241.1071-.0515.1581-.0822z"/><path d="m27.1212 37.4703.0462-.0426c-.0341.022-.0441.0341-.0462.0426z"/><path d="m26.4075 35.986c.0191-.0255.065-.0532.0078-.0478l-.0398.0259c.0515-.0169.0792-.0194.032.0219z"/><path d="m26.0867 35.4873-.0594.0453.0281.0058z"/><path d="m16.3907 32.9032-.0043-.2792c-.0071.2167-.0842.2589.0043.2792z"/><path d="m26.4601 43.3316c-.0208.0014-.0415-.0028-.0601-.0123l.0142.0167c.0155.0014.031-.0001.0459-.0044z"/><path d="m23.6248 37.2996.0366-.0916c-.0124.0117-.022.026-.0284.0418-.0063.0158-.0091.0328-.0082.0498z"/><path d="m19.9035 33.252-.0274.0321c.0057.005.0142-.0031.0274-.0321z"/><path d="m23.5626 37.0392c.0769-.0469.15-.0999.2185-.1583l-.0877.0383z"/><path d="m16.3869 32.6201-.0004.0034z"/><path d="m15.8294 33.0305c.0742.0499.0529-.3095.0792-.4951.0966-.063.0284.2677.049.4595.0608-.0605.123-.3692.1642-.3393.0039.0525.0013.1053-.0078.1572.0774-.2672.1748.0687.2703-.2933l.0025.1007c.0022-.201.0142-.4003.0263-.5419.0348.0014.0824-.2396.0771.0242-.0209-.0117-.0302.093-.0458.1715l.0444-.1047c.0057.3841-.0586.1188-.0778.3926.0771-.0935.1841-.4041.23-.2847-.0178.3808-.1351.101-.0888.4502l-.0721-.1616c.0206.6004-.0466-.0545-.0342.5858.0974.1445.1336-.1542.2303-.0095.0408-.2062.0174-.3179.0586-.5255.1869-.3558.0352 1.0187.1897.5299.0519-.256.1109-.7644.1656-.4751l-.0704.4515c.0967.0794.123-.6479.2004-.3068-.038.1795-.0963.1324-.0863.1923.0323.3892.0753-.2488.13-.2391l-.032.4202c.1137-.0384.2661-.315.3976-.3688-.033.1289-.0486.2616-.0466.3946.1766-.1814.3158.1185.4143.4135l.1105-.369c.0063.0834-.003.1672-.0274.2472.0331.1547.0395-.2408.0892-.3851.0363-.0213.0082.2257-.0295.3365.145-.3055.4008-.6557.4338-.2424l-.0401.1094c.0526.1569.232-.7546.2462-.4051l-.0274.0644c.1518.1497.4196-.1315.4481.3531.136-.4734.135.1784.3006-.4558.0312.3038-.0274.4166.0742.5849.0341.0163.1552-.3695.221-.4276l-.0789.2928.1509-.3079-.0593.3372.0671-.0774c-.0099-.0685-.0024-.1384.0221-.2032.1087-.1242.1233.1833.0849.3117l.243-.2353c-.0297.0731-.0698.1416-.119.2034.1741-.2647-.0647.2549.0956.012.017-.0659.0404-.1301.0696-.1916-.0039.142.0927.1291.1844.0691l-.0654.1509c.1194.0162.3045-.1042.4555-.1125-.033-.0506.0626-.2684.1134-.2838l-.0544.1837c.0714-.1101-.0174-.0731.0927-.2046.0452.0291-.0436.2038-.0987.264l.0899-.0573c-.022.0492-.0465.0972-.0736.1438.0693-.1022.0402.1804.1532.0037l-.0171.0492c.141.0136.2295-.0321.3496-.024.0597-.1233.091-.0858.1681-.1685.0593.072.1051.187.2007.2193.0934-.0265.0675-.085.1315-.1369-.0476.1016.0483.1358-.037.1843.1036.0362.2126.0543.3223.0534.0095-.049.0035-.0768.0312-.1046.0331-.0004.0295.0761-.0018.1207l-.012.006c.2401-.0516.136.5187.357.4207l-.0124.0052.1801-.0133c.032.0652-.0856.0529-.1012.1547.2437-.0774.1289.2156.3002.1925-.2569.4545.2004.2759.0323.6401l.0867-.103c.1041-.0652-.0334.0909-.0455.1358.0714-.0792.0672-.1196.1269-.1544.2473.1385.0845.6894-.0416 1.0956-.032.1362.7713-.5457.454-.1435l-.2959.1862c.4246-.0833.0558.4175.4683.3596-.0839.0404-.1873.1064-.1919.0885-.2384.1975.0306.1431.2455.0149-.0145.043-.189.1235-.2924.2069-.1478.1317.3613-.1034.1023.0737-.034.0218-.0719.0371-.1115.0451.1357-.0506-.0071.1358.302-.0678-.1304.1517.1868.0492.0135.2062.3801-.1592-.1393.2043.3904-.0546-.5468.2758-.4157.345-.1371.261-.1741.068-.167.1233-.4082.2201.0181.0446.135.0392.4284-.1068-.6747.4067.6214-.0668-.2742.3821.2731-.0006.5439.0502.7983.1498-.6335.2315-.103-.1293-.755.1307.2754.0255.8531-.1017.7284.0897-.1259.0566-.26.0924-.3973.1061.2966.0395-.0125.2716.3808.272-.0611.0171-.1239.0278-.1872.0319.0273.016-.0853.0829.2188-.0134l-.0884.0032c.3873-.1192.7844-.2041 1.1867-.2536-.8868.2212-.188.1896-1.3153.4516.1415-.0133.281-.043.4157-.0883-.1278.0689-.2678.1122-.4122.1275.1866.0347.5081-.0881.5202-.0083-.1499.0415-.2114.042-.3891.0836.3002-.0439.604-.0835.4949.017-.0916.0204-.2074.0595-.2103.0396.0739.0964.8374-.0096.5862.1911-.6636.1208-.2046.0956-.7677.2365l.1868.0259.2669-.0909c.0067.0604.4309.0205.26.1141l-.244.0076.1386.0872.195-.1104c.3063-.0024.7102-.1643.5741-.0462-.0618-.0048.0079.0654-.3133.1668l-.0015.0001c.1862-.0072.3799-.0129.2541.0615l-.733.1465c.4725-.0642.1674.1152.6658.0595-.1559.0183-.3108.0447-.464.0792l.3791-.0459c-.1263.0561-.2608.0914-.3983.1047-.0455.0976.6857-.1571.4122.0012-.0317-.0026-.0864.0115-.1461.0051-.1272.1294.2786.1581.1262.2838-.5259.1167-.156-.059-.5991.0491.1507.1094.7138.1751.6236.3275l.0504-.0332c.7241-.0877-.3322.152.0231.1694-.1067.0014-.2133.0106-.3187.0275-.0878.1052.2295.1577.4683.2726l-.1784.0048c-.1432.0739-.0508.1529-.1115.2203.1307.0172.2635.0121.3926-.0151-.8783.2841.5595.2967-.1496.5384-.0061-.0192-.1443-.0327-.1411-.0173l.1759.1235c.1144-.0138.2268-.0408.335-.0805.1528.0032.2722.0324.2754.0678-.1778-.0209-.3581.0057-.5223.077l.2327-.0192c-.4114.112.4857-.032.2136.095l-.124.0057c.0707.0317.2337.0528.2039.0968-.2583.0392-.1279-.0297-.3464-.0133.0342.054.5088.0708.2615.144-.0731-.0186-.0799-.0534-.1556-.0715-.2892.0812-.2078.0806-.2441.1257l.0054-.0046-.1002.1051.0689-.0302c.6395.0213.1528.1343.5535.2015-.3727-.0671-.2114.0001-.4622.0115-.0599.0388-.1288.0616-.2.0662.2114.0303-.1215.0844.1794.1275-.0739.008.0089.0482-.1794.0509.0806.0536.1218-.0223.2174-.024.2644.0742-.2185.23.1414.3391.1599.1042.3508.1141.441.2155-.0312.0098-.064.0132-.0966.0101-.0325-.0032-.0641-.0129-.0928-.0285-.0632.0617-.0316.1033.0306.1545-.0402-.0056-.081.0026-.1158.0234.027.0423.1616.0203.1147.0808-.0597-.0071-.1188-.0184-.1769-.0341.0679.0432.132.0919.1918.1457-.0547.0171-.1005-.0269-.1509-.043.0547.0571.1168.1494.1971.1638l.021-.0397c.0078.0215-.0672.0148-.0881-.0003-.0856-.0469.0071-.0746.043-.0795l.0288.0366c.1925-.0495-.0502-.1506-.069-.2261l.1841.0218-.1613-.0698c.0462-.0193.1584-.0371.1868-.0008.0992-.0607-.0724-.0446.0416-.0986.0056-.0027.0118-.0042.0181-.0042s.0125.0014.0181.0041l-.0614-.0503c.0455.0079.1567-.0182.1208.0172.1503-.1061-.1621-.1466.027-.1946l.0145.0072c-.0753-.1299-.1826-.0018-.4231-.0871l.5052-.1003-.2086.0003c.0075-.0144.0242-.0429.1095-.0434-.1454-.0422-.0928.0149-.232-.0058.201-.0803-.1084-.1762.2643-.2174-.1801-.0113-.1364.0735-.2636.0111.4093-.0494-.0739-.0771.1154-.1518.2224.0024.0992.0697.301-.0066-.3745-.0093.0934-.1267.0305-.1742-.3179.0223-.1257-.103-.233-.1812.114-.0037.1972-.1801.341-.2752l.0619-.0032c-.3717.0175-.2996-.0727-.3784-.1264.1414-.0223.2857-.02.4264.0066l.0064-.0587c-.0811.0085-.1629-.0078-.2345-.0467l.2988-.0144c-.0064-.0774-.3507-.1205-.1383-.2416-.3338.0766-.6771.104-1.0189.0813.1648-.0285.3323-.0397.4995-.0332-.0213-.0066-.1343-.0174-.0675-.0423l.2711.0128c.1179-.0574-.2256.0003-.2029-.0377.2302-.0239.1634-.0441.3468-.0588.022.0069-.0945.0417-.0046.0459.1051-.0775.228-.1276.3574-.1458-.1135.025-.2308.0277-.3454.0082-.017-.0755.2843-.0585.4093-.1184-.1648-.0001.0114-.0705-.3496-.0296.0018-.023.1709-.0471.2697-.0676-.1578-.0218-.037-.1849-.4349-.0902l-.0259.0135-.0164-.0045c-.3805-.0818.2026-.298.0302-.4073l.1315-.0183c-.1556-.0565-.0995-.161-.3951-.1721.127-.0609.2645-.0969.405-.1062-.1051-.0445-.2614-.026-.0398-.1484.2438.0222.2125-.0549.1791.0342.1141-.0968.3411-.1527-.0458-.1748.3592-.0296.4498-.1358.3404-.1561l-.2555.0998c-.0554-.0335-.0256-.0758.0007-.1186l.48-.0624c.5802-.2769-1.0286-.1111-.0462-.4247-.3475.0238-.2338.1364-.6381.1748.2462-.1249.4995-.2354.7586-.331.2647-.1646-.7393.0515-.5681-.0945-.2686.0869-.5495.1296-.8318.1263.2758-.1385.5767-.2201.8847-.2398.0178.0147-.0377.036-.0981.0484.1153.0197.2337.0033.3393-.0468l-.1801.0291c.1769-.0773.1403-.1785.4377-.2201-.0677-.0089-.1364-.0041-.2023.014-.0658.018-.1274.0491-.181.0912.2423-.1565-.0196-.1533.1375-.2953-.0975.0435-.2004.0734-.3059.0889.1943-.1992-.3529.019-.4552-.0565.2601-.1235.6602-.1452.4051-.1853.1962-.0927.4097-.1433.6267-.1485-.3702-.0031.1826-.2343.2302-.3075l.1588.0112c-.0945-.0071-.0987-.0323-.1047-.0576l-.3508.1264c.0505-.0598.1209-.0994.1983-.1114-.243.0355-.5898.1863-.9266.2187.1709-.0881-.2263-.0553.243-.2041-.1261.1634.4711-.1498.5781-.0698-.0626-.0039-.0675-.0284-.0135-.0754.0411-.0156.0846-.0237.1286-.0238.3855-.2393-.5503.1008-.577-.0185.2711-.064.4917-.178.4274-.1807.0139.0501-.4327.1551-.6505.1747.1773-.1369-.1822-.0327-.1723-.0778l-.0799.0733c-.2683.0674-.2462.0211-.3468-.0018.2022-.0695.157.0002.2401-.0461-.4782.0934.4246-.279.0856-.2567.1596-.095.4822-.1665.5863-.2391-.3699.0246.307-.2194-.0078-.2194-.1839.1057-.3904.1662-.6023.1766l.3035.067-.5362.0776c.0121.0461.2523.0196.205.0671-.171.0138-.3371.0637-.4875.1463.4889-.24-.3389-.0142-.0256-.2047l.8371-.3025c.3112-.2477-.5226-.0328-.3841-.2486l-.1179.1c-.3304.1091-.086-.0663-.2367-.058.1772-.0699.347-.157.5071-.2602-.1947.084-.0374-.1097-.5664.1013l.3102-.2079c.0707-.1717-.804.202-.7692.0639.2169-.1069.4449-.1896.68-.2463-.0188-.036.0078-.0888-.1663-.0084.1432-.0942-.3914.0636-.1741-.08-.1165.0378-.3766.1581-.3766.1108l.1208-.059c-.1581.0386-.3091.102-.4473.1878.7003-.483-.2103-.2492.355-.671-.1123-.0199-.2193-.0628-.3141-.126.0682-.0347.1091-.0643.0948-.0389.1386-.2078-.659.3182-.4984.0873.3059-.2596.2238-.0638.3314-.1739.6868-.4439-.1879-.0561.1574-.3728l.0533-.0101c.1819-.1978-.3563.0446-.378-.0612.0336-.0198.0659-.0417.0966-.0657-.2148.1145-.4588.1623-.701.1375.1369-.0615.2633-.1442.3745-.2449-.0646-.0062-.3702.287-.4903.2736.1193-.156.2542-.2993.4026-.4278l.0756.0472c.2811-.2671-.0934-.0663-.0739-.1357l.1368-.0996c-.1531-.0475-.4704.2078-.5453.0984l-.0814.0855c-.3463.1987.1219-.1818-.1464-.0474l.2725-.2641c-.1668.06-.3399.1012-.5159.1229.1882-.1064.3881-.1904.5959-.2501-.0495-.0282-.1064-.0407-.1632-.0357s-.1106.0272-.1545.0636c.0413-.0117.1276-.0567.1027-.0082-.2618.1563-.4135.1981-.4782.1336.4796-.4395-.076-.2638.1894-.636-.301.0681-.2562-.2285-.4722-.2898-.1802.3243-.0604-.0183-.2938.2826-.0526-.0056-.0626-.0199-.0505-.0409.0089-.0774.013-.1552.0124-.2331.0317-.0935.0896-.0439.1358-.1086-.0832-.058.0508-.1334.0366-.2266-.0601.1-.145.13-.1699.0671l-.016.155c-.2363.0823.0526-.2741-.1808-.198l.0998-.061c-.102.016-.2515-.1182-.4469.05.0071-.0331.0344-.1051.076-.1105-.1471-.096-.4679.0325-.512-.1482l.0441-.0504c-.0377.0011-.1091.0791-.1105.002.0149-.0224.043-.0502.0323-.0611-.0252.0096-.1308.0615-.1489.0082l.0672-.0478c-.1063-.1539-.307.0354-.4438.0083.0303-.0601.0434-.1274.0378-.1945-.0057-.067-.0298-.1312-.0698-.1854l.0145-.0253c-.1488-.1448-.3449-.042-.535-.0435.0078-.3158-.2636-.3524-.3521-.6503-.0108.0931-.0547.1792-.1237.2426-.0139-.0916-.1734.15-.0689-.14l.011.0155c.07-.3075-.0277-.3028-.0832-.3548l-.1421.4081c.043-.745-.4796.0021-.3897-.683-.0725.099-.1194.0675-.1922.1777l.0756-.2825c-.0881-.1438-.1325-.2232-.2842-.2404l.0799-.2024c-.0714-.0809-.3073.8411-.3816.8322l.0878-.4972c-.135-.0635-.1876-.5582-.4178-.148.017-.0755.0504-.225.0774-.2367-.0625-.0378-.1897-.4695-.3002.2808.0856-.4792-.1389-.0939-.2498.111l.0725-.3563c-.1417.4448-.1641.5711-.2728.6837-.0135-.0503.0277-.2918.0408-.1949-.0405-.2005-.1087.3329-.1631.128l.0676-.226c-.0686-.0385-.0821.0867-.1621.3498-.066.1385-.1218-.1087-.0874-.4349-.038.1972-.1144.4571-.1435.358.006-.0797.0228-.1583.0497-.2335-.0899-.2553-.2341.4006-.2718.0436.0098-.0704.0139-.1415.0121-.2126.0963.0147.1716.039.161.0646-.0016-.2836.0301-.5664.0945-.8426-.0995.2482-.2743.7755-.3326.6214l.0032-.1126.0124-.0363c-.0138-.0325-.0337-.0024-.0554.0518-.0185-.0535-.0298-.0929-.0529-.098.0213-.2663-.0764-.1429-.1148-.1558-.0437.1906-.065.3857-.0636.5812-.0032-.0254.0121-.0415.0398-.0552.0093-.0104.0163-.0225.0206-.0357l-.006.0307c.0324-.0103.0659-.0171.0998-.0203-.0519.1785-.1002.326-.1211.1297-.0462.223-.0932.4523-.1155.5602.0015-.4916-.0753-.7539-.06-1.0461-.1404.2019-.2992.1549-.4271.7715-.0398.0786-.0227-.176-.027-.2715.0245-.0621.0469-.0537.0654-.1427-.0814.1606-.2058.0716-.2547.4884-.0686-.1871.0778-.3854-.043-.3127l.0256-.1274c-.1858-.6109-.4392 1.0282-.6367.2664.0162.039.0238.0809.0224.1231-.2697-.2567-.5962.3074-.8563-.0622-.0764-.0607-.0916.1078-.1442.2382l-.01-.1966-.0906.2435c-.1204.144-.1897-.3526-.3457-.0574l.016.0859c-.0522-.0034-.1688.0778-.1574-.0107-.0056.0157-.0195.0806-.039.0467v-.0548c-.0413.0411-.0856.0789-.1326.1133-.0998-.0091.0206-.1821-.1272-.1229-.0554.0473-.1581.1423-.1378.1479.022-.0037.0558.0054.0568.0341l-.0501.0154c-.011.0787-.0493.1056.0686.2381.0289 0 .0576-.0041.0853-.0123l.0252.0691-.07-.0402c.0384.0716.0647.05.0938.031.0048.0316.016.0619.0331.0889.0315-.0252.0601-.0537.0852-.0852.0085.0657-.0394.0908.0142.1608.0402-.0466-.033-.1529.0317-.1681.038.0903.0245.1527.0731.1095.005.0496-.0056.0738-.0245.081.043-.0282.1102.0481.135-.049.0377.1417.1411.0383.1297.2597.0146-.0423.0786-.136.1169-.1297-.0792.2607.1411.0983.1098.4437.0615-.2556.1879-.0194.2864-.1796-.0064.0263-.0185.079-.026.058.0498.0488.0604.1627.0896.2477.02-.1818.0719-.3587.1533-.5225.0483.3278-.0551.3597-.0487.6568.0085-.2546.119-.2088.1084-.438.0338.1291.0497.2621.0472.3955.0288-.415.0469-.0506.0995-.2974.0572.2387-.0039.4147.0778.3144.0157.0946-.0005.1918-.0462.2762zm1.8148-.3288-.0011.0071-.0383.0127zm.1478.0214c-.0167-.016-.039-.025-.0622-.0252.0103-.1243.0317-.2508.0459-.2419-.0073.0894-.0018.1793.0163.2672zm-.0369-2.4938c.0323-.0497.0334.0193.0287.0915-.0196.0105-.0369.0246-.0511.0417l-.0078.043z"/><path d="m17.6567 30.6886-.0139.0251.0071.0793.0213-.1094z"/><path d="m27.0811 40.7573.0082-.0044-.0505.0134z"/><path d="m19.6996 33.3999.0175-.0669-.0291.0611z"/><path d="m26.0703 41.7314c-.0246.0034-.0488.0094-.0721.0178z"/><path d="m26.1119 42.0938-.0767.0581c.0288-.0146.0548-.0343.0767-.0581z"/><path d="m26.0753 42.3797.102-.0021.0014-.0006z"/><path d="m24.3485 38.3627c-.0068-.0024-.014-.0035-.0213-.0033-.086.004-.0504.0084.0213.0033z"/><path d="m25.6507 39.3037-.2096.0021c-.0263.0288-.0299.0475.2096-.0021z"/><path d="m23.6201 37.3099.0062-.0016-.0016-.0095z"/><path d="m25.4326 39.2471c-.0782.0403-.0547.0544.0085.059.0231-.024.0608-.0548-.0085-.059z"/><path d="m26.5016 43.584.0014.0131.016.0014z"/><path d="m26.5187 43.5977.017.0143c-.0012-.0037-.0034-.0071-.0064-.0096-.003-.0026-.0067-.0042-.0106-.0047z"/><path d="m26.5699 43.6426-.0341-.0303c.002.0079.0064.0149.0124.0203.0061.0054.0136.0089.0217.01z"/><path d="m26.3847 43.2132-.0529-.0013z"/><path d="m26.3197 43.1025c-.0025.0275-.0838.0733-.0302.1082l.0423.0011c-.0884-.0127.0899-.0893-.0121-.1093z"/><path d="m27.0805 42.5732-.0676.1017c.0782-.0221.1884-.0519.1994-.0084.2547-.1398-.1777.0372-.1318-.0933z"/><path d="m27.2389 42.2591c.0348.05.1325-.0105.1844-.0117-.0286-.0161-.0612-.0236-.094-.0215-.0327.0021-.0641.0137-.0904.0332z"/><path d="m27.3462 40.0188.3528-.0487c-.0512-.0348-.1368.0207-.3528.0487z"/><path d="m25.4145 39.9189-.2183.0757.3405-.0407z"/><path d="m28.0238 39.1902.0553.0101-.1411-.048z"/><path d="m26.4384 35.417-.3624.2109c.0831-.0107.5059-.2284.3624-.2109z"/><path d="m24.8978 34.3158c.1084-.114.1421-.2087.0022-.1291.0155.0383-.0484.1422-.0022.1291z"/><path d="m20.7445 31.2852.0568-.0625-.0772.029z"/><path d="m43.993 25.1091c.0135-.0111.0089-.0424-.0266-.0317l-.0295.0596z"/><path d="m43.7684 25.0059c-.0298.0258-.0526.0587-.0665.0956s-.0184.0767-.0131.1157c.049-.0994.0558-.0673.108-.1651.0068-.0023.014-.0027.021-.0011.007.0015.0134.0049.0186.0098.0052.005.0089.0112.0108.0181.002.0068.002.0141.0001.021.0138-.0187.0536.0058.0756-.0345-.0097-.012-.0219-.0217-.0358-.0285s-.0291-.0104-.0446-.0106c-.0155-.0003-.0308.0029-.0449.0092-.0141.0064-.0266.0157-.0367.0274-.0113-.0186.0033-.0417.0075-.057z"/><path d="m40.5065 24.0195.0131.0549c.0007-.0191-.0038-.0381-.0131-.0549z"/><path d="m38.5804 23.2488c.0175-.0076.0349-.0554.0455-.1004-.0239.0288-.0396.0635-.0455.1004z"/><path d="m38.3833 22.6077.0107.0391c.0039-.0482.0028-.0757-.0107-.0391z"/><path d="m40.5066 24.0195-.0327-.1465c-.0252.1365.0113.1094.0327.1465z"/><path d="m43.2704 25.3337c.0145-.0128.0263-.0283.0348-.0456l-.0306.0218z"/><path d="m41.432 23.9477.016.0048.032-.139z"/><path d="m42.1121 24.123c-.0327.1121-.0552.2268-.0672.3429.0056-.0579.0239-.1138.0537-.1638z"/><path d="m43.162 24.7887.0213-.0153z"/><path d="m40.9609 23.7306.011-.1202z"/><path d="m28.8018 11.612.0259-.0031c-.0088-.0012-.0177-.0002-.0259.0031z"/><path d="m29.386 10.7188.0044.0116.0247-.0029z"/><path d="m37.9452 21.9103.0003.0087c.0285-.0448.0175-.0383-.0003-.0087z"/><path d="m32.6549 20.6973c-.0562.1433-.2249.0737-.2668.2481.039-.0491.2629-.1354.2668-.2481z"/><path d="m43.2532 25.3213-.0302.0077c.0053.001.0108.0008.016-.0005.0052-.0014.01-.0038.0142-.0072z"/><path d="m32.3882 20.9453-.0011.0009-.0036.0176z"/><path d="m36.5478 21.8818-.0487.1712z"/><path d="m37.3618 22.6802-.0089-.062c-.001.0404.0032.0555.0089.062z"/><path d="m35.8302 22.2763c-.0018-.0319.0142-.0829-.0238-.0403l-.0128.0454c.027-.0468.045-.0673.0366-.0051z"/><path d="m35.3001 22.1045-.0224.0714.0249-.0117z"/><path d="m28.3597 13.4368.2757-.0426c-.216.0209-.2721-.0638-.2757.0426z"/><path d="m43.2767 25.2627c-.0018.0214-.01.0417-.0234.0584l.0213-.0113c.004-.0154.0047-.0314.0021-.0471z"/><path d="m34.6264 25.1075-.0735-.1104c.0042.0223.0129.0436.0256.0626.0126.019.0289.0352.0479.0478z"/><path d="m29.1287 17.9643-.0441-.0131c-.0004.0099.0117.0155.0441.0131z"/><path d="m34.2473 24.8775c.0282-.0874.0466-.1777.0547-.2691l-.0515.0817z"/><path d="m28.1221 12.8029c-.0355.0912.3248.0209.5181.0274.0803.1024-.2665.0665-.4565.1146.0727.0616.395.0936.373.1449-.0522.0113-.1058.0151-.1592.0113.2818.0549-.0355.2136.3411.2761l-.0998.0164c.2-.0244.4-.0374.5425-.0424.0039.0408.2498.0627-.0128.0922.0089-.0256-.0963-.0221-.1766-.0295l.1105.037c-.3801.0588-.1261-.0518-.4014-.0369.1062.0771.4238.159.3115.2292-.3815.0336-.1154-.1445-.4583-.0404l.1531-.1078c-.5954.1077.0494-.0631-.5865.0406-.1343.1381.1662.1378.033.2756.2107.0183.3194-.0266.5319-.0084.3798.166-1.0112.2015-.4971.3124.264.0216.7781.007.501.1207l-.4595-.008c-.0604.1324.6627.0364.34.1905-.1836-.0133-.1485-.0937-.2057-.0706-.3776.1106.2605.0475.2594.1151l-.4203.0394c.0551.1357.3595.2709.4413.42-.1329-.0126-.267-.0026-.3965.0296.2145.1807-.0487.428-.3031.6506l.3876.0383c-.0776.0331-.1622.0461-.2462.0379-.1389.0915.2437-.0203.3969.0012.0309.04-.215.0797-.3326.0639.3362.1035.7429.2996.3684.4913l-.1176-.0129c-.1286.1315.7927.0186.469.1663l-.0703-.0097c-.097.2602.2913.4599-.1389.7316.4885-.062-.097.2733.5524.151-.2546.1981-.3943.1886-.4817.4188.0071.0551.4135-.0192.5031.0238l-.296.0784.3546-.0014-.3173.135.108.0347c.0022-.0264.0978-.0812.1812-.1003.1689.0503-.0653.2597-.1936.3024l.3482.1306c-.079.0165-.1606.0164-.2395-.0004.3248.0243-.2437.1022.0544.124.0629-.0263.1289-.0444.1964-.0538-.1126.095-.0248.2011.0878.2586l-.1602.0389c.0781.1538.3137.2639.4391.4125.0082-.0764.2331-.1531.2821-.1168l-.167.0948c.1322-.0192.0341-.0752.2121-.0749.0178.0655-.1698.1241-.2561.1177l.1144.0417c-.0507.0195-.1029.0352-.156.047.1251-.0183-.0685.193.1414.152l-.0444.026c.1265.1475.2171.196.3237.31.1222-.0607.1297.0013.2476-.0126.021.1105.0018.2605.0878.363.1041.0451.1052-.0316.1904-.0354-.0923.0636-.0131.1684-.1183.1537.0814.1136.1879.2069.3113.2726.0266-.0441.0302-.0752.0685-.0865.0348.0189.005.0942-.0426.1212l-.0146-.0013c.2594.0776.0029.6435.2932.6479l-.0157-.0001.2089.0663c.0291.0874-.103.021-.1311.1289.2786.0222.1372.3081.3489.34-.2657.4464.2804.3692.1482.7785l.0816-.1068c.1109-.0546-.0199.1064-.0223.1622.0664-.0832.0522-.1356.1158-.1642.3364.1984.3457.8497.5137 1.3786.0718.1775.5948-.7385.4796-.2191l-.2341.2625c.4534-.1429.4463.4936.8858.3262-.059.0724-.1176.1802-.1404.1597-.0917.3072.1805.1664.2967-.0604.0252.0507-.0945.2058-.1286.335-.0291.2004.3098-.26.1996.0343-.0166.0387-.0445.0716-.0799.0945.1013-.1107.1446.1476.2693-.2013.0199.2182.2494-.0298.2341.2102.2207-.3507.0818.28.3376-.2537-.2551.5567-.0291.5567.1449.3185-.0938.1626-.0227.212-.1474.4405.0739.0359.183-.0378.2927-.347-.1524.7806.4825-.4463.1997.5172.2625-.179.5471-.3231.8467-.4289-.2224.6361-.2295-.0268-.4516.6385.2739-.1703.5585-.6814.6854-.4532.0182.1089-.1165.2729-.1684.3767.2668-.193.3368.1988.6079-.1064-.0206.0607-.0503.118-.0881.1698.0387-.0104.0466.1256.1315-.182l-.0554.0722c.1181-.3877.2738-.7631.4647-1.1207-.3031.8636.0941.2697-.3031 1.358.0739-.1228.1271-.257.1574-.397.0029.1461-.0335.2904-.1055.4176.1627-.1338.2107-.4747.313-.439-.0409.1501-.0775.2022-.1361.3753.1325-.2768.2626-.5562.3166-.4059-.0288.0892-.0494.2099-.075.2007.1663-.0066.4544-.7123.5479-.3954-.2072.6435.0042.2273-.1219.794l.1311-.1508.0284-.2812c.0772.0251.2409-.3717.2654-.174l-.1115.2205.1719-.0794-.0351-.2283c.1439-.2739.1528-.7123.2185-.5344-.0331.0529.0735.0238.0419.3605l-.0007.0015c.0771-.1707.1556-.3494.1826-.2016-.0231.1797-.1428.6112-.1581.7306.1364-.4573.2118-.1023.3599-.583-.0453.1507-.0807.3042-.1062.4594l.108-.3672c.0113.1385-.0046.278-.0469.4105.0959.0824.1052-.697.1734-.3796-.0152.0468-.0333.0926-.0544.137.0999.1721.2938-.1932.3784-.0019-.0643.536-.1293.1206-.1741.5756.1965-.0897.4757-.6009.6189-.4587l-.0213-.06c.1467-.7174.0622.37.2046.036-.0338.1019-.0586.2066-.0742.3128.0967.1178.2654-.1655.4694-.3619l-.0487.1723c.0433.159.1641.0955.2255.1738.0577-.1193.0901-.2493.0953-.3818.0909.9275.4903-.4565.5851.2909-.0238.001-.0742.1316-.0554.1323l.1879-.1395c.0112-.1153.007-.2315-.0124-.3458.0409-.1476.102-.2569.1428-.2518-.066.1683-.0782.353-.0348.5285l.0327-.2318c.0331.4299.0761-.4823.1578-.1856l-.0217.1228c.0522-.0613.1126-.2168.1556-.1769-.0121.2638-.0618.1188-.092.3376.0707-.0189.1926-.4845.222-.2238-.0369.0684-.0778.0672-.1154.1377.0302.3046.048.2245.092.2711l-.0039-.0065.1005.125-.0206-.0757c.1585-.6328.1876-.1222.345-.5105-.1506.3605-.0419.2118-.0789.4657.0331.0658.0462.1398.0377.2129.0767-.2061.0757.1367.184-.1562-.0046.0752.058 0 .0256.1883.0782-.071-.0032-.1254.0128-.2213.1343-.2471.2288.2528.4186-.0834.1478-.1377.1904-.3256.3208-.3985.0337.0833-.0519.1863-.0519.1863.06.0746.1133.0513.1816-.002-.0126.0401-.0096.0834.0085.1214.0529-.0193.049-.1608.1108-.1023-.0176.0597-.04.118-.0671.1742.0613-.0617.1272-.1186.1972-.1702.011.0598-.0466.099-.0728.1479.0742-.0454.1894-.0923.2182-.175l-.0423-.0292c.0259-.0044.0067.0734-.0139.0925-.0668.0806-.0842-.0211-.0842-.0588l.0462-.0239c-.0267-.2083-.1798.0277-.2693.0326l.054-.1836-.1055.1521c-.0146-.0505-.0171-.1665.0291-.189-.0533-.1102-.0626.0652-.1056-.0583-.0022-.0061-.0029-.0127-.0019-.0191s.0036-.0124.0076-.0175l-.0671.0534c.0163-.0444.005-.1598.0391-.1182-.0953-.1666-.1933.1374-.2157-.0582l.0103-.0132c-.1599.0531-.0327.1804-.1712.4032l-.0257-.5167-.0366.2062c-.0149-.0101-.044-.0315-.0295-.1164-.0735.1362.0004.0949-.0483.229-.0543-.2147-.2203.0739-.1964-.3062-.0469.1772.0572.1512-.0373.265.022-.4185-.1013.0582-.1493-.1466.0466-.2223.0974-.0844.0516-.3026-.0839.3731-.1226-.1214-.1873-.0655-.0398.3227-.1407.107-.2501.1973.0195-.1132-.1585-.2327-.2295-.3947l.0102-.0615c-.0639.3689-.1474.278-.2253.3431.0092-.1438.0452-.2847.1063-.4153l-.0622-.0187c-.0101.0825-.0473.1594-.1059.2184l.0551-.294c-.0839-.0114-.2146.3109-.2931.0752-.0476.2953-.0245.8249-.1691 1.0078.0105-.1671.0409-.3324.0906-.4923-.0128.0189-.0537.126-.0643.0546l.0834-.2591c-.0326-.1288-.0571.2183-.0934.1861.033-.2288-.006-.1697.0252-.351.0131-.0195.021.1029.0483.017-.0558-.12-.0779-.2529-.0638-.3845-.0026.1164-.0303.2308-.0811.3356-.0856-.004.0125-.2901-.0177-.4268-.0437.159-.0707-.0295-.1251.3294-.0241-.0081-.0035-.1776.0018-.2783-.0664.1471-.2039-.0167-.2167.3926l.0071.0287-.0096.0145.0003.0001-.0003-.0001c-.2004.3419-.2601-.2821-.4253-.154l.022-.1316c-.1083.1309-.1994.0422-.3094.3194-.0222-.1401-.0141-.2833.0238-.42-.0807.0853-.1166.2391-.1667-.011.1066-.2235.0167-.2188.0963-.1585-.0604-.14-.0362-.3705-.1936-.014.0952-.348.0238-.4694-.0345-.3736l.0078.274c-.0529.0402-.0849-.0023-.1176-.043l.112-.4708c-.0422-.6419-.4918.9092-.4143-.1169-.1144.3306.038.267-.0828.6559-.0251-.274-.0299-.5495-.0142-.8242-.0401-.3073-.2512.6978-.3173.4782-.0303.2807-.1108.5537-.2376.806-.0153-.3089.0377-.6173.1552-.9034.021-.0098.0171.0496.0025.1096.0676-.0954.103-.2099.1012-.3268l-.0493.1754c.0039-.1932-.1013-.2042-.01-.4903-.0747.1157-.1003.2564-.0714.391-.0345-.2866-.1467-.0496-.2025-.2508-.0058.1063-.0258.2114-.0597.3124-.0906-.2606-.1471.3253-.2661.3781.0121-.2898.183-.6497.0277-.4469.014-.2162.0711-.4275.1681-.6213-.1748.3225-.1031-.2724-.1336-.348l.0824-.1334c-.049.0793-.0703.0711-.0924.0648l-.0692.3656c-.0234-.0739-.0206-.1536.0078-.2257-.0906.2282-.1372.6025-.2796.9096.0124-.1912-.1667.167-.0491-.3103.0711.1885.1183-.4798.2349-.5339-.0338.0523-.0558.0449-.0654-.0241.0086-.0431.024-.0846.0455-.123.0106-.4476-.1979.5272-.307.4868.0892-.2626.1173-.5104.0835-.4577-.0261.2248-.0957.4425-.205.6408-.0124-.2245-.1233.1336-.1549.0996l.0156.1075c-.0923.2604-.1193.2158-.1961.285.0569-.2057.0892-.1289.0973-.2237-.1961.4457.0146-.5081-.1584-.2168.0178-.1841.1478-.4885.1531-.6142-.1936.3181.0189-.3709-.1588-.1142-.0311.2094-.1085.4092-.2267.5849l.2285-.2049-.2579.4766c.0451.0177.1659-.1898.1758-.1257-.091.1458-.15.3093-.1733.4796.1016-.5356-.2242.2632-.1859-.1068l.2814-.8438c.0192-.3947-.3371.387-.4082.1437l-.0046.1531c-.134.3204-.1052.0246-.1969.1413.0664-.1782.1174-.3617.1525-.5486-.0711.1997-.0935-.0421-.3066.486l.0699-.3663c-.0568-.168-.4196.7109-.4967.5846.0866-.2256.1947-.4423.3227-.6472-.0352-.0118-.0487-.0667-.1212.1107.0437-.1634-.2401.3132-.1737.0609-.0612.106-.177.3679-.2089.3319l.0525-.1235c-.0945.1325-.1678.2789-.2171.434.2235-.8142-.3432-.0678-.1424-.7486-.0995.0502-.2094.0762-.3209.0758.0384-.0665.0569-.1136.0583-.0848.0103-.2466-.388.626-.3809.342.13-.3825.1599-.1699.195-.3208.3645-.7356-.1866.0496-.0341-.3991l.0401-.0352c.0757-.256-.2796.2145-.3463.1291l.059-.1009c-.1392.2043-.348.3511-.5874.4131.1049-.1068.1913-.2303.2559-.3653-.0604.0166-.2345.4061-.355.4305.0533-.1902.1301-.3729.2288-.544l.0825.0173c.1734-.3475-.1017-.0274-.1059-.0996l.097-.1386c-.1468.0105-.3809.352-.4832.2639l-.0554.104c-.2874.2791.0703-.2068-.1595-.0112l.2036-.3194c-.1481.0988-.3115.1724-.4836.218.1696-.1317.3483-.2515.5347-.3583-.0532-.0153-.1098-.0147-.1628.0018-.0529.0165-.0998.0481-.1349.0909.0387-.0186.1144-.0793.0984-.0276-.2267.2052-.3745.2637-.4519.2025.4217-.4952-.1141-.2589.1233-.6399-.2839.0756-.253-.2006-.4417-.2745-.2064.3028-.0558-.0231-.3148.2489-.0536-.0128-.0629-.0289-.049-.0481l.0423-.2326c.0466-.0876.0934-.0285.1478-.0858-.0675-.0698.0721-.1235.0792-.2152-.0778.0891-.1609.1016-.1712.0368l-.0491.1496c-.2426.0308.1098-.2549-.1318-.2259l.1112-.038c-.1062-.0014-.2095-.1582-.4398-.0676.0174-.03.0671-.0898.1066-.0808-.1002-.1327-.4513-.1438-.4171-.3337l.0618-.0262c-.0345-.0148-.135.023-.1038-.0465.0238-.0131.0622-.0254.0569-.0396-.0281-.0013-.1464-.0068-.135-.0653l.0806-.0082c-.0121-.1886-.28-.1299-.3897-.2358.0577-.034.1055-.0825.1388-.1406.0332-.0582.0508-.1239.0509-.1909l.027-.0117c-.0323-.1981-.2448-.2407-.3813-.3804.2203-.221.0647-.4406.243-.6919-.0787.0508-.1729.0719-.2657.0596.0632-.0663-.227-.0424.0664-.1382l-.0057.0175c.2875-.1338.2185-.1947.2349-.2679l-.4139.1234c.6388-.3769-.2598-.4036.3876-.6746-.1226-.0102-.1158-.0634-.2459-.0739l.2888-.0669c.0935-.1358.1421-.2004.0895-.3264l.22-.0174c.0405-.0811-.9007.0813-.9245.0068l.4917-.1152c-.0057-.143.4715-.3563-.0046-.4217.0827-.0166.1675-.0196.2512-.0089.0124-.0684.3745-.3013-.3706-.1789.4836-.0664.0459-.1513-.1798-.2043l.3624-.0311c-.4665-.0098-.5958.0024-.7319-.0774.0451-.0275.2889-.0511.1986-.0117.1837-.0938-.3496-.0207-.1655-.1311l.2359.0094c.0199-.0782-.1045-.0592-.3799-.0749-.152-.0343.0747-.1548.4008-.195-.2011.0079-.4722-.0111-.383-.0649.0794-.0119.16-.0124.2395-.0017.2288-.1472-.4424-.1567-.0999-.2735.0711-.0042.1418-.0145.2111-.0308.0035.1031-.0036.1847-.0309.1795.2769-.0619.5603-.0904.8441-.0846-.2632-.0411-.815-.1142-.6736-.2058l.1115-.0186.0381.0057c.0295-.0207-.0039-.0349-.0611-.0466.0493-.0291.0863-.0478.087-.0725.2668-.0276.1275-.1019.1322-.1445-.1957-.0118-.3922.0006-.5848.0369.0245-.0082.0433.0053.0621.032.0117.0081.0251.0133.0391.0153l-.0312-.0008c.0163.0321.0292.0659.0383.1007-.1854-.0202-.3393-.0449-.1503-.1033l-.5739-.0226c.4843-.0889.7294-.2142 1.0218-.2467-.2192-.1138-.1918-.2921-.8243-.3394-.0842-.0326.1723-.0519.2672-.0707.0654.0178.0597.0434.151.05-.1691-.0642-.1033-.2138-.5255-.2095.1752-.1033.3955.032.3049-.0924l.1304.0105c.5784-.2853-1.0808-.3553-.3415-.6801-.0367.0229-.0783.0369-.1215.0408.2384-.3418-.3794-.6416-.0554-.9912.0469-.0967-.1237-.091-.2587-.1338l.194-.0388-.2551-.0705c-.1644-.1165.3326-.273.0093-.4083l-.0864.033c-.0039-.0615-.1066-.1814-.0118-.1839-.0174-.004-.0877-.0082-.055-.0368l.0582-.01-.1428-.1312c-.0138-.1153.2032-.0124.0995-.1691-.0668-.0539-.1897-.1506-.1887-.1267.0093.0241.0082.0642-.0209.071l-.0263-.0535c-.0821.0032-.1073-.0354-.231.1254.0029.0322.0109.0637.0235.0935l-.0704.0423.0341-.087c-.071.0578-.0458.0828-.0209.1118-.0341.0117-.0654.0302-.092.0543.0353.0301.0739.0561.1151.0776-.0679.0211-.1088-.0265-.1681.045.0601.0358.1549-.0645.1866.0046-.0867.0584-.1546.054-.0978.1003-.0508.0144-.0785.0067-.0909-.0129.0405.0425-.022.1291.0835.1404-.1365.0646-.0071.1623-.2349.1842.0466.0094.1543.0661.1553.11-.2778-.0494-.07.171-.4203.1851.2732.0305.0476.206.2149.2948-.027-.0036-.081-.0103-.0604-.0213-.0447.0624-.1591.0889-.2423.1328.1867-.0013.3717.0346.5443.1057-.3294.0974-.3713-.0158-.6726.0302.2594-.0237.2221.1078.4555.0663-.1275.0547-.2626.09-.4007.1045.4292-.0206.0536.0471.3165.0747-.233.0956-.4231.0487-.3062.1288-.0955.0295-.1984.0233-.2896-.0174zm.6425 2.1112-.0072.0005-.0206-.0442zm.0099.1855c.0122-.0255.0163-.0541.0117-.0819.124-.0158.2522-.0183.2462.0007-.0902.0114-.1775.0389-.258.0812zm2.4434-.5532c.0547.0236-.0131.0372-.0853.0458-.0136-.018-.0306-.0331-.0501-.0445l-.0436-.0004z"/><path d="m30.7467 14.5274-.0274-.0098-.0767.0216.1119.0027z"/><path d="m40.5221 24.0822-.0024-.009v.0522z"/><path d="m28.8708 17.8007.0684-.0175h-.0698z"/><path d="m41.3508 25.3203c-.002.025-.0007.0502.0039.0749.0009-.025-.0004-.0501-.0039-.0749z"/><path d="m41.7816 25.3711.0512.0902c-.0113-.033-.0287-.0636-.0512-.0902z"/><path d="m42.1057 25.4715.0181-.1029-.0003-.0014z"/><path d="m36.5613 25.4805c-.0071.0032-.0135.0081-.0184.0142-.0548.07-.0246.0456.0184-.0142z"/><path d="m38.4053 24.8926c-.0276.0647-.059.1276-.0941.1885.0213.0376.0415.0501.0941-.1885z"/><path d="m34.6336 25.1191.0029-.0059-.0102-.0058z"/><path d="m38.239 25.0604c.0096.0897.0373.0758.0721.0215-.017-.0326-.0344-.0811-.0721-.0215z"/><path d="m43.572 25.2694h.016l.0044-.0145z"/><path d="m43.5919 25.2542.0192-.0149c-.0043.0003-.0085.0019-.0119.0045-.0034.0027-.0059.0063-.0073.0104z"/><path d="m43.6512 25.209-.0401.0302c.0089-.0004.0176-.0035.0247-.0089.0072-.0054.0126-.0128.0154-.0213z"/><path d="m43.1282 25.3154-.0099.0528z"/><path d="m42.99 25.3574c.0313.0079.071.0985.1201.0524l.0082-.0422c-.0292.0859-.0885-.1079-.1283-.0102z"/><path d="m42.5203 24.5059.1016.0876c-.011-.082-.0242-.1972.0263-.1994-.1098-.2814.0096.1837-.1279.1118z"/><path d="m42.2013 24.2794c.0622-.024.0145-.1351.0238-.1876-.0232.0248-.038.0563-.0423.09-.0043.0336.0022.0678.0185.0976z"/><path d="m39.8311 23.596.0678-.3509c-.0515.0375-.0245.1367-.0678.3509z"/><path d="m39.0184 25.3738.0029.2327.0859-.3331z"/><path d="m39.2702 22.6681.0291-.048-.0961.1135z"/><path d="m35.5314 21.8364-.1635.3857c.059-.0592.2612-.4894.1635-.3857z"/><path d="m33.7964 21.6189c.0739-.1386.0878-.2349-.0276-.1219.0227.0311-.0132.1472.0276.1219z"/><path d="m31.2502 17.6233.0815.0072-.064-.0436z"/><path d="m24.2902 10.0014c-.0181-.00745-.0408.0152-.0081.0458l.0686-.0037z"/><path d="m24.3568 10.2935c.0375.0163.079.0213.1193.0144s.0778-.0255.1077-.0533c-.1147.0062-.0931-.0195-.2082-.0169-.0313-.0315-.0216-.0732.0054-.0799-.0249-.0036-.0313-.0586-.0793-.0582-.0058.0363.0018.0736.0215.1047s.0501.0539.0855.0642c-.0079.0222-.0366.0206-.0519.025z"/><path d="m25.5281 14.2711.0408-.0416c-.0176.0092-.0319.0238-.0408.0416z"/><path d="m25.7143 16.7136c-.0135-.0162-.0647-.0167-.1105-.0113.0348.0149.0733.0188.1105.0113z"/><path d="m25.1817 17.1629.0338-.0252c-.0469.0129-.0725.0236-.0338.0252z"/><path d="m25.5281 14.2715-.1109.1078c.1329-.0403.0899-.0663.1109-.1078z"/><path d="m24.9579 10.6238c-.0192-.0076-.0398-.0112-.0604-.0104l.0383.0197z"/><path d="m24.9494 13.3215-.0049-.0197-.1375.0395z"/><path d="m24.691 12.5128c.114-.0267.2246-.0657.3301-.1163-.0531.0257-.112.0369-.1709.0327z"/><path d="m24.5807 11.0458-.0271-.0136z"/><path d="m25.0299 13.9316-.1101.0498z"/><path d="m11.9688 28.6629.0022-.0262c-.0064.0123-.0086.0219-.0022.0262z"/><path d="m11.016 27.8548.0145-.0015.0059-.0232z"/><path d="m24.6527 17.8435.0082-.0028c-.0511-.016-.0416-.0068-.0082.0028z"/><path d="m23.375 23.8606c.1528.0479.0501.2465.2398.2748-.0494-.0387-.1133-.283-.2398-.2748z"/><path d="m24.9594 10.6494.0266.0269c-.0052-.012-.0147-.0216-.0266-.0269z"/><path d="m23.6149 24.1357.001.001.0192.0022z"/><path d="m24.8994 19.3066.1766.0217c-.0584-.0107-.1173-.018-.1766-.0217z"/><path d="m25.5455 18.2402-.0572.0265c.0391-.0096.0526-.0184.0572-.0265z"/><path d="m25.3608 20.041c-.0323.0071-.0849-.0035-.0402.0333l.0469.0075c-.0486-.0235-.0703-.041-.0067-.0408z"/><path d="m25.1945 20.6722.0727.0164-.0121-.0275z"/><path d="m14.3666 29.2667c-.0224-.0905-.0398-.1821-.0522-.2745.0245.2156-.0906.273.0522.2745z"/><path d="m24.8954 10.6574c.0196-.0105.0423-.0135.0639-.0087l-.0234-.0159c-.0154.0046-.0293.0131-.0405.0246z"/><path d="m28.2946 20.9697-.1144.1171c.0505-.0247.0909-.066.1144-.1171z"/><path d="m19.9056 27.9199-.0139.0466c.0118-.0009.0178-.0141.0139-.0466z"/><path d="m28.0529 21.5c-.0925-.0192-.1872-.0256-.2814-.0189l.0831.0492z"/><path d="m14.3141 28.9893.0004.0034z"/><path d="m13.4918 29.496c.1233.0376.0533-.3242.0764-.5174.1414-.0782.0707.2678.124.4588.0902-.0716.1503-.3931.2174-.3698.0127.0521.0154.1061.0079.1592.0845-.2808.2856.0381.3769-.3371.009.0326.0156.0659.0195.0995-.0249-.1798-.0402-.3608-.0458-.5422.0522-.0046.0821-.2524.1169.0094-.0324-.0076-.0288.0977-.0395.1784l.0487-.1122c.0725.3782-.0678.1285-.0526.4036.1041-.1099.2079-.4317.2974-.3224.0455.3805-.1862.1224-.0511.4608l-.14-.1484c.1368.5911-.0828-.0465.0486.5854.1852.1278.1844-.1729.3688-.0463.0221-.212-.0387-.3183-.0174-.5317.206-.3884.2849 1.0032.4189.4794.0206-.2664-.0167-.7795.1393-.5135l.0067.4606c.1762.0468.0199-.6665.2317-.3587-.0086.185-.1134.1572-.0814.2123.1592.367.0494-.2647.1353-.2699l.0711.4161c.1744-.0672.3286-.3844.5091-.4888-.0075.1338.014.2677.0629.3925.215-.2439.5415.0015.8371.2132l.0167-.3932c.0464.0712.0694.1552.0657.2402.1233.1251-.0437-.2401-.0295-.3967.0469-.0368.1148.2027.1045.3225.1012-.3551.3091-.7804.5688-.4428l-.0061.1203c.1685.1056-.0394-.7996.1638-.4976l-.0064.0719c.3202.0591.5323-.3629.8808.0231-.1034-.4844.3255.059.1439-.576.2476.2306.2427.3677.5127.4212.0629-.0146-.0419-.4142.0053-.5111l.1034.2882-.0153-.3583.1684.3026.0363-.1141c-.0306.0013-.0974-.0877-.1226-.1698.054-.1789.3063.0345.3574.1571l.1436-.3743c.0202.0803.0216.1641.0039.245.0221-.3353.1215.2343.1418-.0733-.0314-.0608-.0532-.126-.0647-.1933.1116.1019.2338.0033.3017-.1178l.0444.1589c.1759-.1014.3048-.3577.4818-.5014-.0885 0-.172-.2226-.1276-.2776l.1055.1616c-.0181-.1342-.087-.0266-.0806-.2104.0778-.0259.1389.1612.129.2508l.0522-.1222c.0209.0503.0373.1023.049.1554-.0153-.1244.2203.0497.1812-.1629l.0281.0432c.1748-.1491.2345-.2505.3759-.3674-.0622-.1205.0106-.1332.0018-.2577.1492-.0164.294-.061.4267-.1313.0618-.1125-.0274-.1072-.0238-.1964.0653.0915.1943-.0001.1673.1111.1343-.0991.2503-.2208.3429-.3596-.0481-.0241-.0835-.025-.0924-.0649.0256-.0388.1094-.014.135.0342l-.0032.0158c.1229-.2826.7287-.0637.7703-.3711l-.0022.0166.1009-.2321c.101-.0396.0107.1109.128.1322.0554-.3114.3648-.1696.426-.4064.4522.2515.4522-.3318.8782-.2227l-.1062-.0829c-.0451-.1201.1133.0132.1737.0115-.082-.0678-.141-.0475-.1637-.1168.27-.3858.9738-.4546 1.5646-.6951.2058-.0962-.7187-.6179-.1762-.5359l.2544.247c-.1041-.5136.582-.581.4392-1.0903.0724.0617.1815.1184.1591.1488.3123.0679.1858-.2461-.0436-.3538.0561-.0384.2103.0851.3446.1077.2107.0046-.2494-.3395.054-.2502.0405.0152.0738.045.0934.0835-.1058-.1054.1607-.205-.1968-.3009.2278-.0622-.027-.3045.2278-.3279-.3543-.2097.2956-.1565-.2551-.3756.5741.2139.5759-.0754.3286-.2453.1684.0846.2192-.0156.4562.0944.0377-.1015-.0455-.2277-.3642-.2989.8073.0149-.4739-.5121.5259-.3791-.2066-.3087-.3804-.6382-.5188-.9829.6651.1075.0071.3039.6975.4093-.2036-.3166-.754-.5339-.5489-.7632.1023-.056.2923.0682.4025.1047-.2441-.2876.141-.5096-.2241-.7607.0653.0063.1287.0257.1865.0569-.0199-.0468.1094-.1041-.2096-.1092l.0839.0473c-.4078-.0237-.8114-.0947-1.2027-.2116.9124.0896.237-.2089 1.3906-.0824-.1345-.0526-.2791-.074-.4231-.0627.1375-.056.2906-.0606.4313-.013-.1677-.1659-.5141-.1011-.5081-.244.1557-.0031.2161.0245.399.0364-.3037-.0695-.6093-.1295-.4821-.253.0938.0032.2154-.0161.2143.0202-.0519-.2129-.8254-.2963-.5547-.5327.6769.0035.2132-.0947.7902-.1648l-.1872-.1051-.2741.0787c-.0039-.1072-.4384-.1452-.264-.2555l.2484.046-.1411-.1785-.1979.1372c-.3105-.0614-.7209.1072-.5813-.043.0619.0173-.006-.0958.3184-.1991l.0014.0001c-.189-.0207-.3858-.0373-.2611-.1314.1748-.0494.6214-.0906.7376-.1231-.4772.032-.1834-.2132-.6861-.1787.157-.0125.3126-.0378.4655-.0756l-.382.0329c.1197-.0736.2556-.1169.3959-.1261.0298-.1503-.6804.1842-.425-.0363.0499-.003.0999-.002.1496.0029.1077-.1953-.3113-.2578-.1762-.4443.513-.1737.1688.0973.5997-.0606-.1759-.1961-.7699-.2792-.717-.5105l-.0419.0529c-.7116.1774.2935-.2485-.0753-.2514.1071-.0107.2127-.0334.3148-.0676.0543-.1709-.2828-.2276-.5685-.357l.1773-.0317c.1147-.1287-.0082-.234.0263-.3438-.1716.0325-.1677-.0237-.3848.0883.7493-.5811-.6704-.3082-.0888-.7997.0149.0257.1571.0125.1464-.0087l-.2309-.1338c-.2231.1113-.1255.0825-.2885.1974-.1499.0337-.2789.0251-.2981-.0218.1883.021.3684-.1556.4715-.2443-.0657.0353-.1485.0554-.2171.0882.345-.2655-.4562.1755-.2537-.0708l.1173-.0424c-.0839-.0239-.2523-.0049-.2445-.0725.2309-.1292.1382.0026.3421-.0828-.0593-.0667-.5272.0546-.3247-.1186.0803.0025.1041.0476.1865.0497.2395-.1975.1613-.1738.173-.2467l-.0029.0079.0413-.1764-.0509.0636c-.6317.1756-.2199-.1349-.6441-.0898.3965-.0375.2039-.0717.4402-.1725.0448-.0614.0817-.1406.1553-.1582-.221.0314.0653-.1571-.2491-.11.0657-.0368-.0377-.0616.1403-.132-.1097-.0437-.1023.0734-.1929.1094-.2931-.0038.0643-.3859-.3396-.3971-.2107-.0779-.3941-.0166-.5394-.1117.0469-.0825.1883-.0512.1883-.0512.0227-.1057-.033-.1471-.1223-.1881.0442-.0055.0655-.0352.0946-.0778-.0515-.044-.1652.0405-.1577-.0572.0615-.0161.1244-.026.1879-.0294-.0927-.0296-.183-.0659-.2704-.1087.042-.0459.1123-.0083.1699-.0087-.0857-.0518-.2015-.1445-.2892-.1267l.0046.0604c-.021-.0242.0557-.049.0852-.0387.1116.023.0384.1.0079.1214l-.0505-.0346c-.1538.1471.1411.1716.2046.2626l-.1872.0483.1954.0229c-.0319.044-.126.1121-.1751.0774-.0558.1177.0952.0278.022.1424-.0135.0153-.0239.0171-.0341.0147l.0881.0398c-.0476.008-.1357.0853-.1233.0261-.0767.1933.2388.124.0913.2579l-.0177-.0036c.1478.137.1709-.0675.4462-.0472l-.4132.3162.1947-.0772c.0011.0214.0018.0643-.0782.0963.1599.0012.0789-.0533.2214-.0773-.1443.1767.2025.1908-.1301.3766.1781-.049.0899-.1438.2452-.1076-.3645.2084.1148.0738-.0284.2381-.2153.0734-.1304-.0561-.2857.1124.3649-.1168-.027.1958.0594.233.2959-.134.1769.0898.3208.1564-.1073.0406-.1016.2938-.1972.4548l-.0582.0219c.351-.1289.3265.0077.4253.0567-.129.0663-.2711.1028-.4161.107l.0196.0754c.079-.0326.1676-.0335.2472-.0025l-.2835.0963c.0373.0939.3912.0648.2345.2701.2818-.1012.7227-.403.9643-.3404-.1499.0754-.3101.1284-.4754.1572.0234.0039.1386-.007.0828.0415l-.27.0441c-.0932.1018.2202-.0517.2128.0044-.216.0826-.1436.0943-.3177.1538-.0238-.0038.0775-.0753-.012-.0605-.0686.1177-.1727.2106-.2974.2654.124-.0521.2956-.1125.3354-.0846.044.0936-.2583.1345-.3603.2355.162-.0338.0128.0895.355-.0332.006.0297-.1525.093-.2431.138.1638-.0034.0935.2255.4583.0359l.0214-.0219.0177.0031c.4072.0491-.1051.4205.0867.5371l-.1275.0391c.1691.0556.1378.1959.4405.1868-.1122.089-.2454.1477-.3869.1705.1144.0479.2693.017.0689.1865-.2508-.0137-.2042.0816-.1876-.0321-.0969.1299-.3157.206.0789.216-.3585.0534-.4327.1831-.3229.2027l.2458-.1296c.0597.0395.0341.0932.011.1463l-.4761.086c-.5688.3133 1.0485.1414.069.4862.3503-.0129.2313-.1506.6377-.182-.0522.1075-.7543.3259-.755.3513-.2689.1616.7458-.0088.566.1511.2727-.0782.5592-.0961.8396-.0524-.279.1377-.5892.1995-.8996.1794-.0171-.0192.0398-.0374.1009-.0449-.1123-.0363-.2339-.0306-.3422.0162l.1819-.0139c-.1815.0698-.1528.1855-.4537.1949.0664.0181.1359.0213.2036.0093.0677-.0121.1319-.0391.1879-.079-.254.1435.0089.1762-.1659.3078.102-.0316.2083-.0475.3151-.0469-.2178.1907.3546.0437.4445.1585-.2771.0885-.6758.0253-.4303.1253-.2097.0576-.4297.0675-.6437.029.3645.0786-.2303.1958-.2925.2482l-.1517-.043c.0903.0252.0885.0495.0888.0738l.3702-.0408c-.0628.0465-.1406.0682-.2185.0611.2448.025.6168-.043.9526.0148-.1873.0463.21.1326-.2839.15.162-.133-.4932.0178-.5784-.0877.0596.0191.0593.0446-.0043.0745-.0439.0038-.0881.0001-.1307-.011-.4374.1137.5571.0498.5472.1782-.2772-.0198-.5237.0189-.4637.039.2243-.0345.4534-.0211.6722.0392-.2132.0762.1617.0966.1372.1412l.0994-.0472c.2743.0283.2424.0719.3244.139-.2135-.0067-.1442-.0639-.2391-.0468.4768.0979-.5031.1203-.1823.2327-.1844.0265-.5091-.039-.6334-.0149.3492.1307-.3624.0651-.0796.1932.2119-.0141.4241.025.6171.1136l-.2451-.2023.5191.1706c.0124-.0552-.2207-.1401-.1585-.1659.16.0649.3333.0901.5052.0737-.5414.0197.3006.1919-.0718.2409l-.8819-.1188c-.3958.0615.4467.2866.2036.4164l.1549-.0254c.3372.0843.0338.1119.1638.1929-.1861-.039-.3755-.0606-.5656-.0642.2078.0416-.0276.1109.5244.2536l-.3755-.0118c-.1659.0902.7493.3491.6256.4632-.234-.062-.4608-.1487-.6764-.2587-.0093.0412-.0636.0649.1204.1182-.1677-.0243.335.2246.0732.1886.1105.0533.3819.1447.3461.188-.0436-.0107-.0863-.0244-.128-.0411.1287.0405.1518.1345.4502.1832-.8321-.1301-.0647.415-.7685.2773.0553.1134.0813.2388.0757.3648-.0672-.0366-.1158-.0522-.0853-.0572-.2583.0164.6335.3745.3354.4011-.3929-.1067-.1684-.166-.3244-.1894-.75-.34.0427.2103-.415.0862l-.0337-.0425c-.264-.0613.2039.3003.108.387-.0322-.0218-.0661-.0412-.1012-.0579.104.0749.1916.1705.2571.2807s.1076.2327.1237.3599c-.2249-.1839-.1041-.1278-.362-.2612.0113.0689.4075.2323.4206.3703-.1946-.0417-.3816-.1131-.5546-.2116l.027-.0979c-.3514-.1671-.0394.1216-.1165.1337l-.1375-.0992c-.0004.1725.3254.4029.2217.5328l.1048.0544c.265.3069-.2135-.0615-.0313.1865l-.3182-.2049c.0902.1651.1468.3465.1666.5336-.119-.1844-.2231-.378-.3112-.5789-.0242.0546-.0319.1151-.022.174.0098.0589.0367.1136.0774.1573-.0142-.042-.0686-.1229-.0139-.1088.188.2394.232.4042.1556.4996-.4785-.4346-.2991.1556-.6906-.0844.0461.3234-.2633.3085-.3791.5294.3087.2012-.0349.0661.2323.3298-.022.0617-.0412.0739-.0607.0603l-.258-.0248c-.0938-.0442-.0163-.0998-.0732-.1552-.0941.0794-.1311-.0697-.2376-.0697.0898.0774.0902.1683.0149.1882l.1634.0379c-.0007.268-.2753-.0937-.2782.1734l-.0274-.1195c-.0149.1213-.2202.2467-.1456.4919-.0327-.0157-.0952-.0635-.0789-.1078-.1698.1279-.2288.5099-.448.4925l-.0231-.0639c-.0224.0392.0099.1427-.0682.1168-.0125-.024-.0224-.0637-.0398-.0563-.005.0309-.0267.1567-.0924.1544l-.0015-.0873c-.2206.0438-.1883.3142-.324.4435-.0414-.059-.0989-.1049-.1657-.1321-.0668-.0273-.14-.0348-.2109-.0216l-.0117-.027c-.2494.0538-.318.2895-.4953.4533-.2561-.1991-.5404-.0098-.8438-.1463.0299.0369.0511.0799.0623.126.0112.046.012.094.0024.1404-.081-.0555-.0601.239-.1713-.0486l.0217.0031c-.1584-.2751-.2419-.1981-.3329-.1997l.1478.406c-.4661-.5875-.5042.3336-.8523-.2786-.0114.127-.0803.1287-.0903.2639l-.092-.2819c-.0634-.0381-.1349-.0607-.2088-.0658-.0738-.0051-.1477.0074-.2158.0365l-.0302-.2187c-.1108-.0273.1425.8953.0515.9328l-.1708-.4752c-.178.0343-.4786-.4077-.5291.0791-.0167-.076-.0504-.2262-.0277-.25-.087-.002-.4057-.325-.1979.4015-.118-.4746-.1883-.0141-.2377.2152l-.0661-.3573c.0235.4669.048.5926-.0387.7413-.037-.041-.0853-.2812-.0299-.1969-.1289-.1693.0022.3525-.1471.1853l-.0071-.2372c-.0969-.0079-.064.1134-.0614.3912-.0306.1565-.1947-.0505-.2683-.37.0256.2007.0231.4736-.0494.3905-.0202-.0777-.027-.1583-.0202-.2384-.195-.2111-.1585.4582-.324.1315-.0101-.0706-.0276-.1399-.0523-.2068.1226-.017.2235-.0182.2189.0096-.0953-.2679-.151-.5482-.1652-.8321-.0298.2664-.0764.8266-.1958.6969l-.0295-.1089.004-.0386c-.0267-.0269-.0412.008-.0512.0666-.0377-.0456-.0626-.0801-.0917-.0778-.0501-.262-.1293-.1156-.179-.118.0522.3479-.0195.3045.08.5801-.0114-.0236.0035-.0435.0341-.0644.0087-.0118.0141-.0257.0156-.0403l.0011.0314.1178-.0497c-.0116.1876-.032.3462-.114.1615l.0071.5743c-.1368-.4754-.2981-.7096-.3517-.999-.1237.2271-.3283.2174-.3649.852-.0366.0852-.0675-.1701-.0928-.2642.0192-.0659.0498-.0613.0548-.1526-.0711.1712-.2484.1107-.236.5326-.1257-.1714.0309-.3964-.1144-.3013l.0107-.1309c-.3258-.5652-.4278 1.0948-.8008.346.0249.0363.0398.0786.0433.1225-.3833-.2383-.7951.3433-1.1689-.0157-.1052-.0607-.1237.1076-.1968.2344l-.0131-.1983-.1269.2386c-.173.1393-.2522-.3741-.4793-.0861l.0185.0909c-.0727-.0091-.2401.0562-.2185-.0354-.0092.0156-.0327.0827-.0579.0432l.0039-.0588c-.0622.0378-.1269.0715-.1935.1008-.1398-.0202.0458-.1987-.167-.1445-.0825.0484-.2381.1376-.21.1436.0316-.0018.0786.0107.0767.0405l-.0725.0096c-.0234.0793-.0817.0914.0729.2574.0404.0069.0816.0087.1225.0055l.0298.08-.0966-.0586c.048.0852.0881.0686.1318.0535.0044.0375.0179.0733.0394.1044.0472-.0238.0914-.053.1318-.0869.0072.0712-.0653.0967.0082.1742.0622-.0478-.0366-.1669.059-.1787.0487.0996.0249.1643.0991.122.0046.0528-.0128.0775-.0412.0842.065-.0274.1599.0574.2011-.0422.049.1473.2061.0412.1826.2679.0231-.0436.1208-.1387.1773-.1314-.1229.2636.2089.1012.1617.4485.0927-.2628.2867-.0068.432-.1667-.0089.0265-.0256.0794-.0373.0578.0767.0513.0963.1678.145.2553.0181-.3014.1406-.3417.2082-.531.0909.3365-.0633.3679-.0384.6719-.0004-.2603.172-.2111.1407-.4472.0586.1287.0925.2673.0998.4085.0139-.4291.0697-.0488.1304-.3082.108.2403.0306.4268.1478.312.0157.0485.0197.0999.0117.1502s-.0279.098-.0579.1392zm2.7685-.7534.0014.007-.0544.0266zm.2316-.0347c-.0337-.0091-.0692-.0095-.103-.0009-.0284-.1217-.0402-.2496-.0164-.2464.0011.0841.0668.1476.1194.2473zm-.8392-2.3697c.0242-.0578.0448.0084.0597.0793-.0199.0154-.0367.0343-.0498.0557l.0025.0436z"/><path d="m15.6598 26.8087-.0099.0281.0306.0748-.0039-.1118z"/><path d="m25.5754 14.223-.0064.007.0454-.0259z"/><path d="m19.7258 28.2026-.0233-.0669.0029.0713z"/><path d="m26.1694 12.6798c.0226-.0114.0432-.0263.0612-.0441-.0221.0123-.0426.0271-.0612.0441z"/><path d="m25.9485 12.1841.043-.104c-.021.0315-.0356.0669-.043.104z"/><path d="m25.8297 11.7793-.0977.0373-.001.0013z"/><path d="m28.4575 18.3398c.0046.0079.0109.0146.0185.0196.0814.0479.0501.0163-.0185-.0196z"/><path d="m27.3093 16.252c.0714.0062.1422.0177.2118.0345.0266-.0414.0301-.0713-.2118-.0345z"/><path d="m28.3077 20.957-.0059-.0029-.0072.016z"/><path d="m27.5291 16.3825c.0796-.0487.0558-.0771-.0082-.0964-.0234.0343-.0618.0755.0082.0964z"/><path d="m24.7043 10.3446-.0102-.0175-.0145.0059z"/><path d="m24.6793 10.3335-.0252-.0112c.0071.0075.0138.0137.0252.0112z"/><path d="m24.6022 10.2974.0518.0241c-.0054-.0086-.0132-.0154-.0224-.0197-.0091-.0042-.0194-.0058-.0294-.0044z"/><path d="m25.0378 10.7822.0501-.0195c-.0174.0044-.0342.011-.0501.0195z"/><path d="m25.1636 10.903c-.0139-.0372.0359-.1309-.0352-.1559l-.0405.0154c.0909-.0185-.0313.1541.0757.1405z"/><path d="m24.7579 11.8749.0085-.1552c-.0614.0572-.1492.1351-.1833.0836-.1649.2713.1475-.1123.1748.0716z"/><path d="m24.7685 12.3331c-.0582-.052-.1226.0589-.1723.078.0874.0089.1123.0098.1723-.078z"/><path d="m25.4987 15.2031-.3461.0891c.0575.0376.1339-.0365.3461-.0891z"/><path d="m27.4796 15.3088.2081-.1106-.3391.0509z"/><path d="m24.9095 16.2065-.0553-.0102.1427.0538z"/><path d="m24.9195 20.4416.3969.1366c-.0601-.0595-.5024-.2329-.3969-.1366z"/><path d="m24.5702 22.4678c-.14-.0725-.2416-.0785-.1343.0443.0362-.0296.1563.0008.1343-.0443z"/><path d="m19.4697 25.8075.0116-.0858-.0553.0756z"/></g></svg>
